<svg xmlns="http://www.w3.org/2000/svg" viewBox="0 0 275.1915 61.2255"><defs><style>.cls-1{fill:#6d767b;}.cls-2{fill:#e20e17;}</style></defs><title>Element 9</title><g id="Ebene_2" data-name="Ebene 2"><g id="Bereich_Basis-Stilelemente" data-name="Bereich Basis-Stilelemente"><g id="Logos"><path class="cls-1" d="M153.0643,17.26a45.47,45.47,0,0,0-14.9366,2.5921v.68a6.3444,6.3444,0,0,0,7.5273,6.2325,31.8136,31.8136,0,0,1,6.2584-.5882c5.05,0,7.0181,1.9031,7.0181,6.7881v1.031a1.6124,1.6124,0,0,1-1.5374,1.6057c-7.6059.3586-10.05.6249-13.5331,1.5305-6.1971,1.4934-8.9581,4.9429-8.9581,11.1864,0,7.395,4.2131,11.6363,11.56,11.6363a13.4176,13.4176,0,0,0,9.3939-3.484,2.5751,2.5751,0,0,0-2.3684-4.4072,9.3,9.3,0,0,1-2.2659.28c-3.4208,0-4.9462-1.5961-4.9462-5.1762,0-3.3367,1.0656-4.8821,3.9312-5.7a35.02,35.02,0,0,1,7.0035-.788,1.6352,1.6352,0,0,1,1.7207,1.6286v7.8545a8.5641,8.5641,0,0,0,8.5643,8.5645h3.1155V32.8884c0-11.1-5.0835-15.628-17.547-15.628"/><path class="cls-2" d="M252.7,41.6136c7.606-.3586,10.05-.625,13.5332-1.5306,6.1971-1.4933,8.9581-4.9429,8.9581-11.1863,0-7.395-4.2132-11.6363-11.56-11.6363-3.7054,0-23.56,0-24.1486,6.73V44.3268c0,11.1,5.0834,15.628,17.547,15.628a45.4679,45.4679,0,0,0,14.9365-2.5922v-.68a6.3444,6.3444,0,0,0-7.5273-6.2325,31.82,31.82,0,0,1-6.2583.5881c-5.05,0-7.0181-1.9031-7.0181-6.788v-1.031A1.6123,1.6123,0,0,1,252.7,41.6136Zm-1.7963-16.6729c3.8108-.0457,7.5878-.0688,7.9681-.0688,3.4208,0,4.9463,1.5961,4.9463,5.1762,0,3.3367-1.0657,4.8821-3.9313,5.7a35.0267,35.0267,0,0,1-7.0035.788,1.6351,1.6351,0,0,1-1.7206-1.6286V32.5547A62.6427,62.6427,0,0,0,250.9039,24.9407Z"/><path class="cls-2" d="M239.48,23.9428l-.0029-.0438Z"/><path class="cls-2" d="M239.4831,23.99l-.0034-.0474Z"/><path class="cls-2" d="M239.4768,23.899c-.0335-.4836-.012-.1719,0,0Z"/><path class="cls-2" d="M14.8181,17.3721c5.9079,0,10.2966,3.3472,12.5253,5.5234a.9725.9725,0,0,0,1.6464-.7039V9.8282a8.2153,8.2153,0,0,1,6.5386-8.0427L41.0737.6294V58.5447a1.41,1.41,0,0,1-1.41,1.41h-.2722c-6.4431,0-10.4018-5.41-10.4018-12.0839V31.3037a2.5815,2.5815,0,0,0-1.2457-2.2c-2.9332-1.7874-4.7552-2.3479-7.2862-2.3479-5.7565,0-7.8971,3.3888-7.8971,12.5034,0,10.2148,2.2485,14.0128,8.2939,14.0128a13.268,13.268,0,0,0,2.7412-.2622,3.0663,3.0663,0,0,1,2.2371,5.6185,17.9161,17.9161,0,0,1-9.6643,2.5972C5.8935,61.2255,0,53.1612,0,39.1,0,24.8853,5.1242,17.3721,14.8181,17.3721"/><path class="cls-1" d="M54.7962,46.1078a7.2973,7.2973,0,1,0,7.297,7.297,7.1139,7.1139,0,0,0-7.297-7.297"/><path class="cls-1" d="M110.8047,34.3687V33.3021c0-.1519.008-.2921.0116-.4385l0-.1933,0,.1933c.12-4.7232,2.1814-6.5845,7.2495-6.5845a32.9212,32.9212,0,0,1,6.4747.6085,6.564,6.564,0,0,0,7.7878-6.4481V19.736a47.044,47.044,0,0,0-15.4532-2.6818c-12.8951,0-18.1542,4.6844-18.1542,16.1687V59.9548h3.2233a8.86,8.86,0,0,0,8.8605-8.8608V42.9678l.0022-.02.008-8.4768C110.8127,34.4367,110.8047,34.4037,110.8047,34.3687Z"/><path class="cls-1" d="M92.4947,0C79.6,0,74.3405,4.6844,74.3405,16.1687v1.6087A41.1155,41.1155,0,0,0,68.046,19.736V20.44c0,4.0175,2.9968,7.0587,6.2945,6.4858v33.03h3.2233a8.86,8.86,0,0,0,8.8605-8.8608V42.9678l.0022-.02.0051-16.1535c.145.03.2881.0594.4368.093,3.3914.7688,6.5346-2.3331,6.5346-6.4481V19.736a39.8585,39.8585,0,0,0-6.9685-2.0947V17.417c-.0023-.0345-.01-.0674-.01-.1025V16.2479c0-.1519.008-.2921.0116-.4385.12-4.7232,2.1814-6.5845,7.2494-6.5845a32.92,32.92,0,0,1,6.4747.6085,6.564,6.564,0,0,0,7.7879-6.4481V2.6818A47.044,47.044,0,0,0,92.4947,0Z"/><path class="cls-2" d="M232.453,34.3687V19.736A47.044,47.044,0,0,0,217,17.0542a28.0554,28.0554,0,0,0-10.1345,1.5221,44.1626,44.1626,0,0,0-11.5421-1.5221c-12.8951,0-18.1542,4.6844-18.1542,16.1687V59.9548h3.2234a8.86,8.86,0,0,0,8.8605-8.8608V42.9678l.0021-.02.0081-8.4769c-.0023-.0345-.01-.0674-.01-.1025V33.3021c0-.1519.0079-.2921.0115-.4385.12-4.7232,2.1813-6.5845,7.2494-6.5845,1.0953,0,2.1278.0408,3.1806.1374a24.0493,24.0493,0,0,0-.8488,6.8064V59.9548h3.2233a8.86,8.86,0,0,0,8.86-8.8608V42.9678l.0022-.02.0081-8.4769c-.0023-.0345-.01-.0674-.01-.1025V33.3021c0-.1519.008-.2921.0116-.4385.12-4.7232,2.1814-6.5845,7.2494-6.5845,1.0948,0,2.1269.0407,3.1792.1372a19.0375,19.0375,0,0,0-1,6.8066V59.9548h3.2233a8.86,8.86,0,0,0,8.8606-8.8608V42.9678l.0022-.02.008-8.4769C232.4608,34.4367,232.453,34.4038,232.453,34.3687Z"/></g></g></g></svg>