<svg xmlns="http://www.w3.org/2000/svg" viewBox="0 0 175.2765 62.4493"><defs><style>.cls-1{fill:#e20e17;}.cls-2{fill:#6d767b;}</style></defs><title>Element 8</title><g id="Ebene_2" data-name="Ebene 2"><g id="Bereich_Basis-Stilelemente" data-name="Bereich Basis-Stilelemente"><g id="Logos"><path class="cls-1" d="M15.2672,17.2667c6.087,0,10.6086,3.4486,12.9048,5.6908a1.002,1.002,0,0,0,1.6963-.7253V9.4941a8.4642,8.4642,0,0,1,6.7368-8.2863L42.3184.0166v59.67A1.4527,1.4527,0,0,1,40.8653,61.14h-.28c-6.6385,0-10.7171-5.5743-10.7171-12.45V31.6205a2.66,2.66,0,0,0-1.2834-2.2667c-3.0221-1.8416-4.8994-2.419-7.507-2.419-5.9309,0-8.1365,3.4915-8.1365,12.8823,0,10.5244,2.3167,14.4374,8.5453,14.4374a13.6743,13.6743,0,0,0,2.8243-.27,3.1592,3.1592,0,0,1,2.3048,5.7887,18.4585,18.4585,0,0,1-9.9571,2.676C6.0721,62.4491,0,54.14,0,39.6529,0,25.0076,5.28,17.2667,15.2672,17.2667"/><path class="cls-2" d="M81.4846,61.1235V0L76.1788,1.1509a8.546,8.546,0,0,0-6.7338,8.351V52.8887A8.2348,8.2348,0,0,0,77.68,61.1235Z"/><path class="cls-1" d="M160.009,17.2667c-6.0865,0-10.608,3.4486-12.9047,5.6908a1.0021,1.0021,0,0,1-1.6964-.7253V0L139.75,1.1874a8.5455,8.5455,0,0,0-6.792,8.3633V59.687a1.4531,1.4531,0,0,0,1.4535,1.4527h.28c6.6392,0,10.7167-5.5743,10.7167-12.45l.0007-17.0691a2.66,2.66,0,0,1,1.2837-2.2667c3.0219-1.8416,4.9-2.419,7.5066-2.419,5.9309,0,8.1359,3.4915,8.1359,12.8823,0,10.5244-2.3158,14.4374-8.5444,14.4374a13.679,13.679,0,0,1-2.8245-.27,3.1591,3.1591,0,0,0-2.3044,5.7887,18.4575,18.4575,0,0,0,9.9566,2.676c10.5861,0,16.6584-8.3087,16.6584-22.7962,0-14.6453-5.2795-22.3862-15.2675-22.3862"/><path class="cls-2" d="M106.9317,16.9392A48.4681,48.4681,0,0,0,91.01,19.7023v.7247a6.7629,6.7629,0,0,0,8.0238,6.6436,33.9151,33.9151,0,0,1,6.6711-.6269c5.3833,0,7.481,2.0286,7.481,7.2357v1.099a1.7188,1.7188,0,0,1-1.6388,1.7116c-8.1076.3822-10.7125.6662-14.4257,1.6315-6.6058,1.5918-9.5489,5.2689-9.5489,11.9241,0,7.8827,4.491,12.4037,12.3222,12.4037a14.3027,14.3027,0,0,0,10.0135-3.7137,2.7449,2.7449,0,0,0-2.5247-4.6979,9.9144,9.9144,0,0,1-2.4152.2981c-3.6464,0-5.2725-1.7014-5.2725-5.5176,0-3.5567,1.1359-5.2041,4.1905-6.0762a37.3287,37.3287,0,0,1,7.4654-.84,1.743,1.743,0,0,1,1.8342,1.736v8.3724A9.1289,9.1289,0,0,0,122.315,61.14h3.321V33.5979c0-11.8323-5.4188-16.6587-18.7043-16.6587"/><path class="cls-2" d="M56.4568,46.8732a7.5185,7.5185,0,1,0,7.5181,7.5182,7.3295,7.3295,0,0,0-7.5181-7.5182"/></g></g></g></svg>