<svg xmlns="http://www.w3.org/2000/svg" viewBox="0 0 97.3353 96.4216"><defs><style>.cls-1{font-size:4.7476px;fill:#0087b9;font-family:DBOffice-Regular, DB Office;}.cls-2{letter-spacing:-0.0371em;}.cls-3{fill:#575756;}</style></defs><title>Element 12</title><g id="Ebene_2" data-name="Ebene 2"><g id="Ebene_1-2" data-name="Ebene 1"><g id="Illustrationen"><text class="cls-1" transform="translate(13.6929 26.9906)"><tspan class="cls-2">W</tspan><tspan x="4.3047" y="0">ARUM?</tspan></text><text class="cls-1" transform="translate(37.9419 46.5619)"><tspan class="cls-2">W</tspan><tspan x="4.3047" y="0">AS?</tspan></text><text class="cls-1" transform="translate(57.566 67.7641)">WIE?</text><text class="cls-1" transform="translate(75.5835 86.2445)">WER?</text><path class="cls-3" d="M70.354,83.547a13.3129,13.3129,0,0,1,3.3905-9.0527,11.9947,11.9947,0,0,1,8.9893-3.92,12.705,12.705,0,0,1,4.8787,1.0672,13.4291,13.4291,0,0,1,4.0691,2.8059,13.252,13.252,0,0,1,3.883,8.88A12.55,12.55,0,0,1,92.06,92.4943a12.9844,12.9844,0,0,1-4.1467,2.8837,12.5606,12.5606,0,0,1-9.9122.0489A12.0643,12.0643,0,0,1,73.89,92.5505,13.3142,13.3142,0,0,1,70.354,83.547Zm.1017-.0009A11.6937,11.6937,0,0,0,74.36,92.073a12.6684,12.6684,0,0,0,8.5891,3.2636,12.1884,12.1884,0,0,0,8.4288-3.513,12.4089,12.4089,0,0,0,3.63-8.4907,11.7448,11.7448,0,0,0-3.5572-8.65,12.0176,12.0176,0,0,0-8.7093-3.2616A13.1048,13.1048,0,0,0,74.2,74.9419a12.1746,12.1746,0,0,0-2.7655,3.8857A11.4154,11.4154,0,0,0,70.4557,83.5461Z"/><path class="cls-3" d="M71.4368,95.65a25.339,25.339,0,0,1-3.6172-.1407l-.9034-.1027-.4525-.0516-.4444-.0951-1.7777-.4a25.9173,25.9173,0,0,1-6.6629-2.9467,27.5282,27.5282,0,0,1-5.4965-4.82,25.9381,25.9381,0,0,1-3.7943-6.2544,26.413,26.413,0,0,1-1.6991-7.0921,27.04,27.04,0,0,1-.0192-3.6394,26.703,26.703,0,0,1,.4178-3.6062,25.8589,25.8589,0,0,1,6.5663-12.7627,26.6772,26.6772,0,0,1,5.7427-4.49,26.0544,26.0544,0,0,1,6.8429-2.5935,27.5682,27.5682,0,0,1,7.3206-.4742,24.6643,24.6643,0,0,1,13.4456,5.4727,27.5544,27.5544,0,0,1,4.8939,5.4418,24.0164,24.0164,0,0,1,3.97,13.7953l-.1019.0008a27.6718,27.6718,0,0,0-1.313-7.025,24.6741,24.6741,0,0,0-8.0652-11.45,27.2024,27.2024,0,0,0-6.0858-3.5371,26.8979,26.8979,0,0,0-6.8376-1.6424,24.2926,24.2926,0,0,0-13.6827,2.72,27.5533,27.5533,0,0,0-5.7325,4.1718,25.67,25.67,0,0,0-4.2707,5.7,24.3208,24.3208,0,0,0-2.347,6.7377,24.9873,24.9873,0,0,0-.1814,7.1205,26.5727,26.5727,0,0,0,1.9116,6.8223A27.6828,27.6828,0,0,0,52.7672,86.52a26.7018,26.7018,0,0,0,5.24,4.7411,27.0718,27.0718,0,0,0,6.3843,3.087,28.8056,28.8056,0,0,0,7.0443,1.2Z"/><path class="cls-3" d="M59.79,95.7511l-2.6657-.0531a13.0251,13.0251,0,0,1-1.3334-.0561l-1.3258-.161-1.328-.1616-.6646-.081-.6528-.1452-2.61-.6048a38.5,38.5,0,0,1-9.7645-4.3811,40.4271,40.4271,0,0,1-8.0493-7.0938,38.6465,38.6465,0,0,1-5.5768-9.1705,39.0029,39.0029,0,0,1-2.5575-10.4,39.7592,39.7592,0,0,1-.0629-5.3517l.0669-1.3359c.0136-.2224.0142-.4459.0386-.6672l.0987-.6615.3951-2.6448a41.1606,41.1606,0,0,1,3.499-10.0663,41.4917,41.4917,0,0,1,6.2019-8.6875A40.3087,40.3087,0,0,1,41.975,27.49a38.17,38.17,0,0,1,10.0443-3.7837l2.66-.4429.6653-.11c.2227-.0284.4479-.0328.672-.05l1.3456-.0864a40.0248,40.0248,0,0,1,5.3906.0187,38.7386,38.7386,0,0,1,10.46,2.5268,39.0681,39.0681,0,0,1,9.2547,5.4785,40.4391,40.4391,0,0,1,7.2111,7.9545,38.7477,38.7477,0,0,1,4.535,9.6941,39.2462,39.2462,0,0,1,1.4553,10.5543l-.1017.0009A40.5127,40.5127,0,0,0,93.722,48.8426a39.3814,39.3814,0,0,0-4.7007-9.3993,39.58,39.58,0,0,0-7.17-7.64,39.9069,39.9069,0,0,0-9.0323-5.2688,39.487,39.487,0,0,0-10.16-2.4432,39.0225,39.0225,0,0,0-5.2393-.0679l-1.31.0708c-.2181.0149-.4376.0166-.6547.0421l-.6479.1018-2.5935.4056A39.6617,39.6617,0,0,0,42.35,28.1756a39.65,39.65,0,0,0-8.4544,6.2426,38.5318,38.5318,0,0,0-6.2822,8.4633,36.8036,36.8036,0,0,0-3.47,9.9655,37.82,37.82,0,0,0-.3194,10.5359,39.1684,39.1684,0,0,0,2.77,10.13A40.3617,40.3617,0,0,0,32.08,82.4405a39.5949,39.5949,0,0,0,7.7926,7.0143,39.6467,39.6467,0,0,0,9.4864,4.5215,40.8472,40.8472,0,0,0,10.4294,1.6731Z"/><path class="cls-3" d="M48.2832,95.851a52.6532,52.6532,0,0,1-7.02-.34,46.6326,46.6326,0,0,1-6.9068-1.3818,47.478,47.478,0,0,1-12.8294-5.8025,52.4991,52.4991,0,0,1-5.6279-4.28,53.2116,53.2116,0,0,1-4.9426-5.0619,48.1486,48.1486,0,0,1-4.1253-5.75,50.1773,50.1773,0,0,1-3.2184-6.3A48.1307,48.1307,0,0,1,1.4,60.2211,50.2342,50.2342,0,0,1,.21,53.2638a52.8891,52.8891,0,0,1-.16-7.0459,52.16,52.16,0,0,1,.83-6.99A49.75,49.75,0,0,1,5.49,25.9707a54.4516,54.4516,0,0,1,3.684-6,53.0217,53.0217,0,0,1,4.5113-5.4153A47.7161,47.7161,0,0,1,38.0693,1.028a51.5846,51.5846,0,0,1,7.0193-.95,53.17,53.17,0,0,1,7.0863.0861,48.1028,48.1028,0,0,1,6.9969,1.1419A49.5841,49.5841,0,0,1,65.92,3.48a50.2914,50.2914,0,0,1,6.3522,3.1435,49.25,49.25,0,0,1,5.8123,4.0515,53.2468,53.2468,0,0,1,5.1383,4.8707,52.5023,52.5023,0,0,1,4.3648,5.5658,48.6379,48.6379,0,0,1,3.4827,6.147,49.4164,49.4164,0,0,1,2.5266,6.5868A47.4715,47.4715,0,0,1,95.1,40.725a52.6669,52.6669,0,0,1,.4688,7.0121l-.1019.0009A47.7381,47.7381,0,0,0,38.2632,1.9651,48.3815,48.3815,0,0,0,25.229,6.6631a50.4647,50.4647,0,0,0-5.874,3.7294,52.4893,52.4893,0,0,0-5.2728,4.5537A46.3311,46.3311,0,0,0,1.2259,39.2928,47.0817,47.0817,0,0,0,4.3883,66.605,48.2041,48.2041,0,0,0,48.2822,95.7493Z"/></g></g></g></svg>