<svg xmlns="http://www.w3.org/2000/svg" viewBox="0 0 92.8628 78.1628"><defs><style>.cls-1{fill:#575756;}.cls-2,.cls-4{fill:#0087b9;}.cls-3{fill:#fff;}.cls-4{font-size:4.7476px;font-family:DBOffice-Regular, DB Office;letter-spacing:-0.034em;}.cls-5{letter-spacing:-0.0521em;}.cls-6{letter-spacing:-0.1082em;}.cls-7{letter-spacing:-0.052em;}</style></defs><title>Element 42</title><g id="Ebene_2" data-name="Ebene 2"><g id="Ebene_1-2" data-name="Ebene 1"><g id="Illustrationen"><path class="cls-1" d="M48.3391,14.1967a2.9418,2.9418,0,0,0-.7153.3726,1.5709,1.5709,0,0,1-.7712.41,3.487,3.487,0,0,1-1.6939-.16,2.732,2.732,0,0,1-1.3882-.9446.763.763,0,0,1-.1391-.4341.3124.3124,0,0,1,.1344-.2406.5342.5342,0,0,1,.239-.0789,2.2438,2.2438,0,0,1,.8637.1336l.0036.0012.018.0094a2.9787,2.9787,0,0,0,1.3661.392,1.2773,1.2773,0,0,0,1.1405-.5974l-.0147.0388a1.3482,1.3482,0,0,1,.5694-.7121,1.9655,1.9655,0,0,1,.8175-.2789l.0075.0331a2.1533,2.1533,0,0,0-.719.3887,1.3965,1.3965,0,0,0-.2593.2933,1.1207,1.1207,0,0,0-.1492.3325l-.0038.0178-.0109.0213a1.4626,1.4626,0,0,1-.5635.6179,1.6667,1.6667,0,0,1-.8163.2028,2.8545,2.8545,0,0,1-1.5009-.5255l.0216.0105a2.2129,2.2129,0,0,0-.7551-.1816c-.1262.004-.2121.0394-.2232.1383a.6885.6885,0,0,0,.0874.3517,1.9172,1.9172,0,0,0,1.3225.8354,6.0607,6.0607,0,0,0,1.5974.0528,1.6882,1.6882,0,0,0,.7057-.3049,1.9161,1.9161,0,0,1,.822-.2282Z"/><path class="cls-1" d="M49.2412,10.2144a2.9434,2.9434,0,0,1,.4222-.3658.9664.9664,0,0,1,.5716-.1847.8124.8124,0,0,1,.559.2893,1.522,1.522,0,0,1,.2821.5182l.008.0211,0,.005a3.8193,3.8193,0,0,1-.0241.6036,3.0274,3.0274,0,0,1-.0978.5891,1.5555,1.5555,0,0,1-.2694.5579,1.2382,1.2382,0,0,1-.5362.3618l-.0069.0028-.0149.0017A1.3208,1.3208,0,0,1,49.59,12.57a.9376.9376,0,0,1-.4724-.3162,1.1354,1.1354,0,0,1-.214-.5128,1.5752,1.5752,0,0,1,.0153-.5167l.0015.0321a2.163,2.163,0,0,1,.0621-.5614A.9205.9205,0,0,1,49.2412,10.2144Zm.0233.0246a.5941.5941,0,0,0-.1715.47,1.73,1.73,0,0,0,.0842.5023l.0017.0323a1.4226,1.4226,0,0,0,.2219.784.7316.7316,0,0,0,.3.2186,1.0179,1.0179,0,0,0,.3941.0639l-.0216.0045a1.0672,1.0672,0,0,0,.7708-.6631,1.7594,1.7594,0,0,0,.0237-1.1149l.0081.0259a1.338,1.338,0,0,0-.6777-.6445A.9916.9916,0,0,0,49.2645,10.239Z"/><path class="cls-1" d="M51.18,23.6754a6.0751,6.0751,0,0,1-.0035-1.5583,4.2821,4.2821,0,0,0,.005-1.5615,9.1562,9.1562,0,0,1-.0121-1.563,10.0292,10.0292,0,0,1,.1116-1.6021l-.0035.0119.2655-.901c.087-.2989.1881-.6021.2637-.8972l.034-.0014c-.0232.3228-.0833.6261-.135.9372l-.1758.9246-.0037.0121a11.1136,11.1136,0,0,0-.0531,1.5166,8.43,8.43,0,0,1-.02,1.5643,4.7486,4.7486,0,0,0-.0413,1.5654,3.2887,3.2887,0,0,1-.1987,1.56Z"/><path class="cls-1" d="M48.655,13.7311a9.7514,9.7514,0,0,0-.44,2.7946c.05.9381.1255,1.91.2249,2.8531a7.8168,7.8168,0,0,1,.06,2.9029,2.1253,2.1253,0,0,1-.2782.705c-.0839.1387-.098.1127-.0406.1727a.7359.7359,0,0,0,.2963.0993,1.4036,1.4036,0,0,0,.6656-.0394c.0666-.0148.1047-.1624.1427-.26a2.4433,2.4433,0,0,0,.083-.3409,13.6922,13.6922,0,0,0,.0707-2.86,2.5567,2.5567,0,0,1,.1424-1.4679.2154.2154,0,0,1,.1288-.0747.1868.1868,0,0,1,.1572.0594.4863.4863,0,0,1,.1039.1976,1.7752,1.7752,0,0,1,.0616.3767c.0111.2527.0178.4721.0481.7124.1086.9441.3353,1.8827.38,2.8632a2.1978,2.1978,0,0,1-.3252,1.4963l-.04.04-.02.02-.01.01c-.0065.0031-.011.0164.0241-.0276a.159.159,0,0,0,.0224-.0589.1556.1556,0,0,0-.0191-.1081.1331.1331,0,0,0-.0536-.0545c-.005-.0046-.0189-.0082-.0133-.0069l.0219.0042a1.4031,1.4031,0,0,0,.1573.0122,3.2945,3.2945,0,0,0,.3409-.0086,2.1868,2.1868,0,0,0,.3284-.0474.63.63,0,0,0,.1316-.0441.0744.0744,0,0,0,.0239-.0143c-.0045.005-.0081.0057,0,.0069a.45.45,0,0,0,.15.0315l.0329.0077c.158.0808.1325.1565.0747.2a.4293.4293,0,0,1-.124.0864.9675.9675,0,0,1-.209.0691,2.5055,2.5055,0,0,1-.3838.0506,3.5853,3.5853,0,0,1-.3783.0043,1.7242,1.7242,0,0,1-.2009-.0193.5287.5287,0,0,1-.0659-.0154.29.29,0,0,1-.0551-.0234.1982.1982,0,0,1-.07-.0693.1877.1877,0,0,1-.0212-.119.1691.1691,0,0,1,.0277-.0683l.0452-.05.0119-.0118.0244-.023a1.96,1.96,0,0,0,.2579-1.257c-.0344-.94-.2121-1.8872-.2975-2.8518-.0222-.2371-.0247-.4978-.0235-.7245a1.6155,1.6155,0,0,0-.0389-.3346.335.335,0,0,0-.0525-.1228c-.0192-.01.0183-.017-.0235.0076a2.4482,2.4482,0,0,0-.1484,1.3431,17.9247,17.9247,0,0,1-.0712,2.8863,2.6015,2.6015,0,0,1-.0808.3591.9819.9819,0,0,1-.0664.1766.2756.2756,0,0,1-.1378.1694,1.52,1.52,0,0,1-.7521.088.894.894,0,0,1-.3843-.1153.2515.2515,0,0,1-.12-.2471.6639.6639,0,0,1,.0942-.1985,1.9137,1.9137,0,0,0,.2113-.639,9.5131,9.5131,0,0,0-.1048-2.8233c-.0779-.9668-.156-1.9109-.1514-2.89a8.5109,8.5109,0,0,1,.1924-1.44c.0538-.2358.1164-.4695.19-.7.0369-.115.0752-.2295.1195-.3421l.07-.1674.0388-.0823c.027-.0161-.002-.0792.0794-.0574Z"/><path class="cls-1" d="M41.3834,15.5386a1.9127,1.9127,0,0,1,.8218.2282,1.69,1.69,0,0,0,.7059.3049,6.0607,6.0607,0,0,0,1.5974-.0528,1.9178,1.9178,0,0,0,1.3225-.8354.6893.6893,0,0,0,.0873-.3517c-.011-.0989-.0969-.1343-.2231-.1383a2.2134,2.2134,0,0,0-.7552.1816l.0215-.0106a2.8535,2.8535,0,0,1-1.5008.5257,1.6659,1.6659,0,0,1-.8163-.2029,1.4626,1.4626,0,0,1-.5635-.6179l-.011-.0213-.0038-.0178a1.1178,1.1178,0,0,0-.1491-.3325,1.397,1.397,0,0,0-.2594-.2933,2.1537,2.1537,0,0,0-.7187-.3887l.0072-.0331a1.9641,1.9641,0,0,1,.8175.2789,1.3482,1.3482,0,0,1,.57.712l-.0146-.0388a1.2768,1.2768,0,0,0,1.14.5975,2.977,2.977,0,0,0,1.366-.392l.0181-.0095.0038-.0012a2.2449,2.2449,0,0,1,.8636-.1335.5338.5338,0,0,1,.239.0789.3127.3127,0,0,1,.1344.2406.7644.7644,0,0,1-.1391.4341,2.7325,2.7325,0,0,1-1.3884.9446,3.4854,3.4854,0,0,1-1.6939.16,1.57,1.57,0,0,1-.7709-.41,2.945,2.945,0,0,0-.7155-.3726Z"/><path class="cls-2" d="M3.2881,31.22a1.0361,1.0361,0,0,1,.7274.1743.9945.9945,0,0,1,.3719.6681l-.0058-.0154a4.708,4.708,0,0,1,.33.889,3.1746,3.1746,0,0,1,.0628.9527,2.4924,2.4924,0,0,1-.2563.9262,1.7709,1.7709,0,0,1-.6152.7288l-.024-.0239a4.1261,4.1261,0,0,0,.5433-1.6711,5.3551,5.3551,0,0,0,.0556-.883,1.6651,1.6651,0,0,0-.19-.8651l-.0016-.0028-.0043-.0128a.6335.6335,0,0,0-.1987-.2533l-.2461-.1954c-.1631-.1319-.3481-.2426-.5555-.3832Z"/><path class="cls-2" d="M1.0022,35.6569a1.9939,1.9939,0,0,1-.8839-.9853A2.8515,2.8515,0,0,1,.04,33.3428a3.9725,3.9725,0,0,1,.0581-.6663,2.2207,2.2207,0,0,1,.26-.6365,1.4283,1.4283,0,0,1,1.1686-.653l.0086.0328a2.5988,2.5988,0,0,0-.8756.82,3.5867,3.5867,0,0,0-.5009,1.1169,2.0229,2.0229,0,0,0,.24,1.1977A5.3265,5.3265,0,0,0,1.0232,35.63Z"/><path class="cls-2" d="M2.8721,29.6657a.7929.7929,0,0,0-.7744-.25,1.1911,1.1911,0,0,0-.5526.5249l.0082-.026a1.3765,1.3765,0,0,0,.0122.9241.8756.8756,0,0,0,.6406.5321l-.0216-.0044a.8286.8286,0,0,0,.3164-.0549.598.598,0,0,0,.2364-.1745,1.2171,1.2171,0,0,0,.1878-.634l.0017-.032C3.0049,30.2238,3.09,29.8769,2.8721,29.6657Zm.0234-.0245a.8034.8034,0,0,1,.2238.401,1.8251,1.8251,0,0,1,.0644.4734l.0017-.0317a1.272,1.272,0,0,1,.0182.4381.9629.9629,0,0,1-.1831.4411.8018.8018,0,0,1-.4083.2719,1.13,1.13,0,0,1-.4678.036l-.0153-.002-.0064-.0026a1.042,1.042,0,0,1-.4539-.3134,1.3248,1.3248,0,0,1-.2212-.4753,2.7294,2.7294,0,0,1-.0815-.4943,3.3839,3.3839,0,0,1-.0289-.5074v-.0032l.0081-.023a1.235,1.235,0,0,1,.2338-.4419.6849.6849,0,0,1,.482-.246.8141.8141,0,0,1,.4843.1673A2.856,2.856,0,0,1,2.8955,29.6412Z"/><path class="cls-2" d="M1.1441,38.2745a.4343.4343,0,0,1-.135-.3256c.0158-.1089.1352-.2183.09-.3269a.9135.9135,0,0,1-.0939-.6525v-.6477a4.8638,4.8638,0,0,0-.04-.6115L.958,35.6626l.0033-.02a2.3676,2.3676,0,0,0-.0263-.7566A2.3661,2.3661,0,0,1,.88,34.0567a5.1642,5.1642,0,0,1,.4935-1.5537l.0313.013a5.5266,5.5266,0,0,0-.3653,1.5534,2.1009,2.1009,0,0,0,.0977.7728,2.3982,2.3982,0,0,1,.0795.85l-.0048-.0677a4.16,4.16,0,0,1,.0756.6869l.022.6572a.91.91,0,0,1-.09.6528c-.044.1089.076.2171.0923.3257a.4373.4373,0,0,1-.1332.327Z"/><path class="cls-2" d="M2.6681,37.4261c-.1366-.11-.1777-.22-.0508-.3208.0573-.0533.0189-.0984.0076-.1509a1.4612,1.4612,0,0,0-.0185-.1508A.8111.8111,0,0,0,2.52,36.532c-.0186-.04-.0575-.052-.0315-.045.0207-.0093-.0114.0166-.0215.0576a1.0527,1.0527,0,0,0,.0015.5967.71.71,0,0,1-.157.6338l-.0338-.0029a.7125.7125,0,0,1-.1212-.636c.01-.0521.0351-.1029.05-.1568l.0106-.165a1.2825,1.2825,0,0,1,.0724-.3391c.0291-.0518.0493-.14.1777-.1683a.222.222,0,0,1,.203.14.9637.9637,0,0,1,.09.3346,1.6478,1.6478,0,0,1,.0109.1653c-.0015.0531-.0436.114.0066.1662.1164.11.0681.2125-.0755.314Z"/><path class="cls-2" d="M3.3516,32.577c.1143.0329.0976.1405.1461.2092.0331.0779.0621.1573.0894.2371.0551.16.1032.3219.1464.4855a6.5778,6.5778,0,0,1,.1823.9995c.0184.1691.0308.3382.0371.5092-.0085.0853.0478.1739.0369.2573.0007.0848-.0767.1661-.104.2487-.042.1656.1063.3432.0855.5119a.6722.6722,0,0,1-.2017.4895l-.0338-.0034a.7051.7051,0,0,1-.1144-.512c.004-.1656.1728-.3226.1475-.4917-.0194-.0847-.0894-.1709-.0829-.2535-.0058-.0842.0579-.1631.0453-.2453.0027-.1641-.0005-.33-.0094-.495a8.9545,8.9545,0,0,0-.1138-.9878c-.0475-.3239-.1583-.66-.2225-.9592Z"/><path class="cls-2" d="M7.8979,25.1165a1.0361,1.0361,0,0,1,.7274.1743.9947.9947,0,0,1,.3719.6681l-.0058-.0154a4.7161,4.7161,0,0,1,.33.8891,3.1771,3.1771,0,0,1,.0627.9526,2.4924,2.4924,0,0,1-.2563.9262,1.7711,1.7711,0,0,1-.6151.7289l-.0241-.024a4.1226,4.1226,0,0,0,.5433-1.6711,5.3647,5.3647,0,0,0,.0557-.883,1.6664,1.6664,0,0,0-.1905-.8651l-.0016-.0027-.0043-.0129a.6342.6342,0,0,0-.1987-.2533l-.2461-.1955c-.1631-.1318-.348-.2425-.5555-.383Z"/><path class="cls-2" d="M5.612,29.5536a1.9946,1.9946,0,0,1-.8839-.9854A2.8553,2.8553,0,0,1,4.65,27.2394a3.97,3.97,0,0,1,.0581-.6662,2.2216,2.2216,0,0,1,.26-.6366,1.4285,1.4285,0,0,1,1.1686-.653l.0087.0328a2.5986,2.5986,0,0,0-.8758.82,3.5923,3.5923,0,0,0-.5009,1.1169,2.022,2.022,0,0,0,.24,1.1978A5.3132,5.3132,0,0,0,5.633,29.527Z"/><path class="cls-2" d="M7.4819,23.5624a.7928.7928,0,0,0-.7744-.25,1.1907,1.1907,0,0,0-.5525.525l.0081-.0259a1.3765,1.3765,0,0,0,.0122.9239.8757.8757,0,0,0,.6407.5322l-.0216-.0045a.8278.8278,0,0,0,.3163-.0549.5961.5961,0,0,0,.2364-.1744,1.2172,1.2172,0,0,0,.188-.6341l.0015-.0319C7.6147,24.1205,7.7,23.7735,7.4819,23.5624Zm.0234-.0245a.8035.8035,0,0,1,.2238.4009,1.83,1.83,0,0,1,.0645.4734l.0016-.0317a1.2775,1.2775,0,0,1,.0184.4382A.9659.9659,0,0,1,7.63,25.26a.8016.8016,0,0,1-.4083.2719,1.13,1.13,0,0,1-.4676.0359l-.0154-.0019-.0065-.0027a1.0394,1.0394,0,0,1-.4537-.3134,1.3216,1.3216,0,0,1-.2214-.4752A2.73,2.73,0,0,1,5.976,24.28a3.3944,3.3944,0,0,1-.029-.5072v-.0034l.008-.0229a1.2354,1.2354,0,0,1,.2338-.442.6856.6856,0,0,1,.482-.246.8161.8161,0,0,1,.4843.1673A2.8411,2.8411,0,0,1,7.5053,23.5379Z"/><path class="cls-2" d="M5.7539,32.1712a.4341.4341,0,0,1-.1349-.3256c.0157-.109.1351-.2184.09-.327a.9127.9127,0,0,1-.0939-.6524v-.6477a4.8856,4.8856,0,0,0-.04-.6116l-.0081-.0477.0033-.02a2.3618,2.3618,0,0,0-.0263-.7566,2.3617,2.3617,0,0,1-.0552-.8291A5.1648,5.1648,0,0,1,5.9831,26.4l.0313.013a5.542,5.542,0,0,0-.3653,1.5534,2.1025,2.1025,0,0,0,.0975.7728,2.3937,2.3937,0,0,1,.08.85l-.0048-.0676a4.1691,4.1691,0,0,1,.0756.6869l.0221.6572a.9114.9114,0,0,1-.09.6527c-.0441.109.076.2172.0922.3257a.438.438,0,0,1-.1331.327Z"/><path class="cls-2" d="M7.2779,31.3227c-.1366-.11-.1776-.2194-.0508-.3208.0573-.0533.0189-.0984.0076-.151A1.4661,1.4661,0,0,0,7.2162,30.7a.8126.8126,0,0,0-.0868-.2716c-.0185-.04-.0575-.052-.0315-.045.0207-.0092-.0114.0167-.0215.0577a1.0523,1.0523,0,0,0,.0015.5966.71.71,0,0,1-.157.6339l-.0337-.003a.7121.7121,0,0,1-.1212-.6359c.01-.0522.0351-.1029.05-.1568l.0106-.1651a1.2831,1.2831,0,0,1,.0723-.339c.0292-.0519.0494-.14.1777-.1684a.222.222,0,0,1,.203.14.9636.9636,0,0,1,.09.3347,1.6464,1.6464,0,0,1,.0111.1653c-.0017.0531-.0438.1138.0064.1662.1164.11.0681.2124-.0753.3139Z"/><path class="cls-2" d="M7.9615,26.4737c.1142.0328.0975.14.146.2091.0331.0779.0621.1573.0894.2372.0552.16.103.3219.1464.4854a6.59,6.59,0,0,1,.1823,1c.0182.169.0308.3381.0371.5091-.0085.0854.0478.174.0369.2574.0007.0848-.0767.166-.1041.2487-.0421.1656.1064.3432.0856.5118a.6724.6724,0,0,1-.2017.49l-.0338-.0034a.7052.7052,0,0,1-.1144-.5121c.004-.1655.173-.3225.1474-.4916-.0194-.0847-.0893-.1709-.0828-.2536-.0058-.084.0579-.1629.0452-.2451.0028-.1642,0-.33-.0093-.495a9.002,9.002,0,0,0-.1138-.9879c-.0475-.3239-.1583-.66-.2225-.9591Z"/><path class="cls-1" d="M14.36,3.43Q21,6.1774,27.6038,9.01l.1173.05,0,.1293L27.75,19.8279q-.0036,5.319-.0693,10.6383-.0615,5.3192-.0731,10.6383c-.0024,3.5461.0031,7.0922.0356,10.6383l.0009.1149-.118.0022c-4.5592.0867-9.1183.1683-13.6775.1464-2.28.0061-4.5591-.0335-6.8387-.08Q3.59,51.8749.1708,51.7683v-.0509Q3.59,51.6106,7.01,51.56c2.28-.0467,4.5592-.0862,6.8387-.08,4.5592-.0218,9.1183.06,13.6775.1465l-.1171.1169c.0326-3.5461.0379-7.0922.0358-10.6383q-.01-5.3192-.0732-10.6383-.0576-5.3192-.0692-10.6383L27.33,9.19l.1175.1794Q20.8759,6.4629,14.3392,3.4764Z"/><path class="cls-1" d="M16.1606,0C21.247,1.9771,26.3035,4.0261,31.3491,6.1014l.1328.0546.001.1458c.025,3.7868-.0033,7.5735-.0536,11.36-.0527,3.7867-.0914,7.5735-.0821,11.36l.17,22.7205-.2515-.2516q3.34-.0248,6.6806-.012c2.2268.0079,4.4537-.0019,6.68.0352l6.6806.0807c2.2269.0175,4.4537.07,6.6806.1223v.0509c-2.2269.0522-4.4537.1048-6.6806.1224l-6.6806.0807c-2.2267.0371-4.4536.0273-6.68.0351q-3.34.0155-6.6806-.012l-.2536-.0019.0019-.25.17-22.72c.0094-3.7867-.0293-7.5735-.0822-11.36-.05-3.7868-.0785-7.5735-.0535-11.36l.1337.2C26.1515,4.3919,21.1314,2.2554,16.1411.0469Z"/><path class="cls-1" d="M23.0305,28.98q-2.1117.0906-4.2236.1284l.1088-.0452c-1.4382,1.5246-2.9157,3.01-4.3872,4.5012-1.48,1.483-3.0075,2.9184-4.5208,4.3681q-2.2569,2.1874-4.4344,4.4541L1.2189,46.92l-.1624-.3915L5,46.4881l3.943.0163,3.9432.08q1.9716.0509,3.9432.148v.0509q-1.9716.0953-3.9432.1481l-3.9432.08L5,47.0282l-3.9432-.0405-.5618-.0058.3992-.3858,4.5209-4.3679q2.2635-2.181,4.4406-4.448c1.4452-1.5176,2.876-3.05,4.3545-4.5338,1.4867-1.4761,2.9677-2.9581,4.4879-4.4009l.0489-.0463.06.0011q2.1117.0389,4.2236.1284Z"/><path class="cls-2" d="M17.5045,48.7314A7.5965,7.5965,0,0,1,16.6,45.27,7.4325,7.4325,0,0,1,16.8,43.4572a6.2437,6.2437,0,0,1,.72-1.6811l.2468-.3851.2913-.3516.5726-.6766a5.4719,5.4719,0,0,0,.8662-1.5066,11.58,11.58,0,0,0,.5747-3.4706,7.9257,7.9257,0,0,1,.26-1.7941,5.317,5.317,0,0,1,.8744-1.62c.7346-.9519,1.5613-1.8115,1.5477-2.9312.0168-1.1236-.2248-2.3219-.2038-3.5287a5.888,5.888,0,0,1,.2773-1.7968,3.7908,3.7908,0,0,1,.9588-1.5213l.0374.0344a4.6493,4.6493,0,0,0-.8758,3.2775c.04,1.1654.3461,2.3019.3484,3.5506a3.3209,3.3209,0,0,1-.5885,1.8032c-.35.5183-.7638.9508-1.1225,1.4042a5.405,5.405,0,0,0-.87,1.4552,8.8618,8.8618,0,0,0-.3663,1.6957,18.6357,18.6357,0,0,1-.6863,3.5021,7.549,7.549,0,0,1-.8039,1.6145l-.5185.7254-.2485.3536-.2073.3782a8.1077,8.1077,0,0,0-.3345,6.72Z"/><path class="cls-2" d="M26.224,21.611a4.5632,4.5632,0,0,0-1.0577,3.0174,32.3529,32.3529,0,0,0,.3853,3.2966,16.8478,16.8478,0,0,1-.1532,3.38,20.0891,20.0891,0,0,1-.737,3.2924c-.96,2.0584-.406,4.3344.4108,6.3359.106.2509.2156.5018.342.7395a2.2916,2.2916,0,0,1,.1767.46,1.7826,1.7826,0,0,1,.0074.4883,5.3652,5.3652,0,0,1-.5782,1.6509c-.2487.5076-.5335.9883-.7676,1.4882a2.1043,2.1043,0,0,0-.3051,1.5527l-.0443.025a2.1412,2.1412,0,0,1,.1117-1.6763c.1981-.532.4269-1.046.6437-1.5553a5.0036,5.0036,0,0,0,.4512-1.5241,1.4745,1.4745,0,0,0-.0192-.3466,1.7383,1.7383,0,0,0-.1353-.3154c-.1424-.2529-.2636-.512-.3817-.7732a10.6845,10.6845,0,0,1-.8486-3.3135,5.9962,5.9962,0,0,1,.0825-1.7291A7.9262,7.9262,0,0,1,24.4,34.5017a11.5635,11.5635,0,0,0,.8238-3.2184,13.5445,13.5445,0,0,0-.0914-3.3158c-.0533-.553-.1742-1.0805-.26-1.64a7.6611,7.6611,0,0,1-.0961-1.7177,4.1979,4.1979,0,0,1,1.4162-3.0386Z"/><path class="cls-2" d="M21.5412,49.127a5.23,5.23,0,0,1-1.4684-1.5045,3.0377,3.0377,0,0,1-.5279-2.0922,2.6853,2.6853,0,0,1,.4137-1.02,7.8541,7.8541,0,0,0,.5318-.8757,8.6022,8.6022,0,0,0,.6832-1.9322,18.7678,18.7678,0,0,0,.5189-4.0258c.0153-.3358-.0167-.66-.0056-1.0326a5.2158,5.2158,0,0,1,.1663-1.0694,3.313,3.313,0,0,1,1.1612-1.7579l.0321.0394a3.8356,3.8356,0,0,0-.806,1.8085,4.7721,4.7721,0,0,0-.0633.98c.0214.316.0545.6793.0578,1.0327a11.8364,11.8364,0,0,1-.7951,4.1063c-.2463.6518-.5208,1.2873-.8006,1.9217-.1418.3162-.2853.6341-.437.9489a2.463,2.463,0,0,0-.2369.9246,3.4385,3.4385,0,0,0,.449,1.8463,8.537,8.537,0,0,0,1.1593,1.6621Z"/><path class="cls-2" d="M8.8005,8.7336a9.0688,9.0688,0,0,0-.104,1.5071,5.5743,5.5743,0,0,0,.1684,1.4644,3.3994,3.3994,0,0,0,1.5568,2.25,6.5079,6.5079,0,0,0,2.7591.9147,5.1961,5.1961,0,0,0,2.8914-.5905l.2691-.1483-.0989.2947a2.3756,2.3756,0,0,0,.0818,1.7988,2.1773,2.1773,0,0,0,1.4157.9815,5.1962,5.1962,0,0,0,1.8367.1224,3.1148,3.1148,0,0,0,1.6366-.5651l.0619-.05.0451-.0323a.5284.5284,0,0,1,.0746-.0391l.0418-.0156a.3912.3912,0,0,1,.3477.077.3235.3235,0,0,1,.1144.1891.3967.3967,0,0,1,.0061.1526.3753.3753,0,0,1-.0172.0682l-.0233.0609-.031.068-.0962.2111a3.14,3.14,0,0,0-.1386.4068,1.6465,1.6465,0,0,0-.0151.8047,2.5152,2.5152,0,0,0,1.06,1.3464,4.2331,4.2331,0,0,0,1.64.8536,6.3543,6.3543,0,0,0,1.9193-.0047l.0118.0668a5.1938,5.1938,0,0,1-1.988.3019,4.136,4.136,0,0,1-1.912-.7624,3.017,3.017,0,0,1-1.3962-1.6254,2.3509,2.3509,0,0,1-.0207-1.1453,2.8418,2.8418,0,0,1,.1724-.5267l.1089-.2367.02-.0439c.0037-.0073.005-.0123-.0007.0037l-.0082.0389a.3268.3268,0,0,0,.0066.1372.3511.3511,0,0,0,.1091.1782.365.365,0,0,0,.3327.0748l.0281-.0086a.2435.2435,0,0,0,.0475-.0246l-.0048.0039-.0342.0273a2.4123,2.4123,0,0,1-1.003.5014,5.5939,5.5939,0,0,1-1.0378.1684,5.2713,5.2713,0,0,1-2.0627-.2415,3.3337,3.3337,0,0,1-.9438-.4949,2.0469,2.0469,0,0,1-.6605-.8644,2.9126,2.9126,0,0,1,.0535-2.0493l.17.1463a7.7459,7.7459,0,0,1-3.0189.7139,5.8807,5.8807,0,0,1-3.0631-.7274A3.6316,3.6316,0,0,1,8.3807,11.8a6.2414,6.2414,0,0,1,.3547-3.0856Z"/><path class="cls-2" d="M11.1534,8.1087c.07.6454.0983,1.25.1111,1.8585a3.523,3.523,0,0,0,.0527.92,1.5568,1.5568,0,0,0,.4642.77,3.76,3.76,0,0,0,1.5651.7467,8.3316,8.3316,0,0,0,1.8064.2483l.0129.0493a3.0567,3.0567,0,0,1-1.9433.2306,2.874,2.874,0,0,1-.933-.3911,2.0069,2.0069,0,0,1-.7246-.7087,5.3168,5.3168,0,0,1-.4047-.8948,6.4452,6.4452,0,0,1-.3171-.93,3.3472,3.3472,0,0,1,.26-1.909Z"/><path class="cls-2" d="M13.5572,7.151A2.7126,2.7126,0,0,0,13.3209,8.38a1.3771,1.3771,0,0,0,.1155.6373,1.34,1.34,0,0,0,.4748.4791,3.7677,3.7677,0,0,0,1.1773.4952,4.3563,4.3563,0,0,0,1.3094.14l.02.0468a1.759,1.759,0,0,1-1.4449.343,2.05,2.05,0,0,1-1.2537-.8236c-.1492-.1988-.2711-.4036-.4224-.5929a2.3485,2.3485,0,0,1-.394-.6581,1.18,1.18,0,0,1,.62-1.3333Z"/><path class="cls-2" d="M18.137,12.5078a4.0742,4.0742,0,0,1,.1391,1.1533,1.9349,1.9349,0,0,0-.0166.574.778.778,0,0,0,.3017.4585,2.96,2.96,0,0,0,.9621.4011c.3359.0969.6947.17,1.1046.2451l.0127.0492a1.6348,1.6348,0,0,1-1.8452-.0312,1.1986,1.1986,0,0,1-.4508-.489c-.1084-.196-.1563-.3973-.242-.583a4.99,4.99,0,0,1-.2479-.5836,1.6329,1.6329,0,0,1,.2323-1.2038Z"/><path class="cls-2" d="M19.638,11.9138a4.1146,4.1146,0,0,0-.0762.7491.72.72,0,0,0,.02.3948.6213.6213,0,0,0,.307.2783,3.7143,3.7143,0,0,0,.7223.2485,5.2285,5.2285,0,0,0,.7936.1781l.02.0468a1.0038,1.0038,0,0,1-.9292.3052,1.1936,1.1936,0,0,1-.7988-.5767,2.7188,2.7188,0,0,0-.2545-.3922,1.6144,1.6144,0,0,1-.2987-.4156.6917.6917,0,0,1,.46-.8536Z"/><path class="cls-2" d="M23.12,16.0394a4.0752,4.0752,0,0,1,.1391,1.1534,1.9307,1.9307,0,0,0-.0166.5739.7779.7779,0,0,0,.3017.4585,2.9608,2.9608,0,0,0,.9619.401c.3361.097.6949.17,1.1046.2451l.0129.0492a1.6351,1.6351,0,0,1-1.8453-.0312,1.1984,1.1984,0,0,1-.4507-.489c-.1085-.1959-.1563-.3972-.2421-.583a5.006,5.006,0,0,1-.2479-.5835A1.6345,1.6345,0,0,1,23.07,16.03Z"/><path class="cls-2" d="M24.6214,15.4454a4.1032,4.1032,0,0,0-.0762.7491.7188.7188,0,0,0,.02.3948.62.62,0,0,0,.3068.2783,3.7247,3.7247,0,0,0,.7223.2484,5.2186,5.2186,0,0,0,.7938.1783l.02.0467a1.0037,1.0037,0,0,1-.9292.3051,1.1941,1.1941,0,0,1-.7988-.5767,2.699,2.699,0,0,0-.2545-.3922,1.6162,1.6162,0,0,1-.2987-.4155.6919.6919,0,0,1,.46-.8538Z"/><path class="cls-2" d="M7.5475,33.4665a1.0342,1.0342,0,0,1,.7274.1736.9932.9932,0,0,1,.3719.6682l-.0058-.0154a4.6955,4.6955,0,0,1,.3295.8889,3.1738,3.1738,0,0,1,.0631.9526,2.4914,2.4914,0,0,1-.2563.9261,1.7712,1.7712,0,0,1-.6147.7291l-.024-.0239a4.1347,4.1347,0,0,0,.5428-1.6713,5.3435,5.3435,0,0,0,.0553-.883,1.6631,1.6631,0,0,0-.19-.865l-.0017-.0028-.0043-.0128a.6345.6345,0,0,0-.1987-.2534l-.2459-.1953C7.9328,33.75,7.7479,33.64,7.54,33.5Z"/><path class="cls-2" d="M5.2616,37.9022a1.993,1.993,0,0,1-.8835-.9852A2.8629,2.8629,0,0,1,4.3,35.5886a3.98,3.98,0,0,1,.058-.6661,2.2142,2.2142,0,0,1,.26-.6364,1.4269,1.4269,0,0,1,1.1683-.6525l.0086.0328a2.5968,2.5968,0,0,0-.8754.8193,3.5852,3.5852,0,0,0-.5,1.1166,2.022,2.022,0,0,0,.24,1.1974,5.3155,5.3155,0,0,0,.6243,1.0759Z"/><path class="cls-3" d="M7.1432,31.9a.8006.8006,0,0,0-1.4379.2417s-.2411,1.3525.7193,1.6227c0,0,.9749.1285.89-1.0253C7.3147,32.7386,7.422,32.1266,7.1432,31.9Z"/><path class="cls-2" d="M7.1316,31.9117a.7929.7929,0,0,0-.7741-.25,1.1888,1.1888,0,0,0-.5521.5247l.008-.026a1.3762,1.3762,0,0,0,.0122.9238.8744.8744,0,0,0,.6405.5317l-.0214-.0044a.8268.8268,0,0,0,.3161-.0549.5973.5973,0,0,0,.2365-.1745,1.2174,1.2174,0,0,0,.1874-.634l.0017-.0321C7.2649,32.4694,7.3493,32.1226,7.1316,31.9117Zm.0233-.0245a.8017.8017,0,0,1,.224.4006,1.8116,1.8116,0,0,1,.0643.4733l.0016-.0319a1.2736,1.2736,0,0,1,.0186.438.964.964,0,0,1-.183.4412.8016.8016,0,0,1-.4083.272,1.1285,1.1285,0,0,1-.4674.0359l-.0153-.002-.0064-.0025a1.0393,1.0393,0,0,1-.4539-.3132,1.3219,1.3219,0,0,1-.2214-.4751,2.73,2.73,0,0,1-.0815-.4942,3.3959,3.3959,0,0,1-.0289-.5073v-.0032l.0081-.023a1.23,1.23,0,0,1,.2336-.4418.685.685,0,0,1,.4819-.2458.8148.8148,0,0,1,.4841.1672A2.8444,2.8444,0,0,1,7.1549,31.8872Z"/><path class="cls-2" d="M5.4035,40.52a.4332.4332,0,0,1-.1347-.3256c.016-.1088.1352-.218.0905-.3267a.911.911,0,0,1-.0935-.652v-.6474a4.8565,4.8565,0,0,0-.04-.6107l-.0083-.0484.0033-.02a2.3478,2.3478,0,0,0-.0256-.7563,2.3632,2.3632,0,0,1-.0555-.829A5.1554,5.1554,0,0,1,5.6327,34.75l.0313.013a5.5266,5.5266,0,0,0-.3649,1.5534,2.0969,2.0969,0,0,0,.098.7728,2.3882,2.3882,0,0,1,.0788.85l-.005-.0683a4.1073,4.1073,0,0,1,.0765.6869l.0221.6569a.9109.9109,0,0,1-.0906.6525c-.0444.1089.0753.2171.0919.3256a.4373.4373,0,0,1-.1333.3267Z"/><path class="cls-2" d="M6.9276,39.6713c-.1365-.11-.1774-.22-.05-.3207.0568-.0526.0188-.1.0079-.1514a1.4671,1.4671,0,0,0-.0185-.15.8066.8066,0,0,0-.0871-.2713c-.0189-.04-.0573-.0513-.0313-.0446.02-.0093-.012.0174-.0221.0581a1.0542,1.0542,0,0,0,.0015.5969.71.71,0,0,1-.1569.634l-.0338-.0032a.7127.7127,0,0,1-.1212-.6361c.01-.0521.0351-.1027.05-.1567l.0106-.165a1.294,1.294,0,0,1,.0722-.339c.0295-.0521.049-.139.1767-.1688a.2208.2208,0,0,1,.2041.1391.96.96,0,0,1,.0908.3347c.0074.0553.0091.1106.011.1656-.0016.0543-.0447.1129.006.1659.1166.11.0682.2128-.0755.3141Z"/><path class="cls-2" d="M7.6117,34.8236c.1145.0326.0977.1405.1463.209.0329.0779.0619.1573.0894.2372.0549.16.103.3219.1462.4855a6.5778,6.5778,0,0,1,.1823,1c.0182.1691.0308.3382.0371.5093-.0085.0853.0477.1741.0367.2574.0007.0848-.0768.166-.1043.2487-.042.1656.1063.3432.0853.5118a.6722.6722,0,0,1-.2017.49l-.0338-.0034a.7057.7057,0,0,1-.1144-.5121c.004-.1656.1732-.3225.1477-.4916-.0192-.0848-.0891-.171-.0826-.2537-.0058-.0842.0581-.1629.0454-.2451.0028-.1641,0-.33-.0093-.495a8.9553,8.9553,0,0,0-.1138-.988c-.0475-.3238-.1581-.6606-.2225-.959Z"/><path class="cls-2" d="M11.5667,29.6138a1.0341,1.0341,0,0,1,.7266.1745.9937.9937,0,0,1,.3712.6679l-.0058-.0154a4.7011,4.7011,0,0,1,.3293.8891,3.18,3.18,0,0,1,.063.9525,2.4969,2.4969,0,0,1-.2564.9262,1.7711,1.7711,0,0,1-.6149.7289l-.024-.0239a4.1264,4.1264,0,0,0,.5429-1.6711,5.3124,5.3124,0,0,0,.0556-.8831,1.6655,1.6655,0,0,0-.19-.8651l-.0017-.0028-.0043-.0128a.6341.6341,0,0,0-.1985-.2532l-.2458-.1954c-.1627-.1319-.3474-.2426-.5547-.3832Z"/><path class="cls-2" d="M9.2793,34.05a1.9947,1.9947,0,0,1-.8835-.9854,2.8629,2.8629,0,0,1-.0782-1.3287,3.9591,3.9591,0,0,1,.0578-.6661,2.22,2.22,0,0,1,.26-.6365,1.4269,1.4269,0,0,1,1.169-.6519l.0085.0328a2.5962,2.5962,0,0,0-.8761.8188A3.5863,3.5863,0,0,0,8.436,31.75a2.0238,2.0238,0,0,0,.24,1.1975A5.3229,5.3229,0,0,0,9.3,34.0235Z"/><path class="cls-3" d="M11.1616,28.0467a.8013.8013,0,0,0-1.4386.2418s-.2424,1.3531.7192,1.6233c0,0,.975.1285.89-1.0246C11.3324,28.8872,11.44,28.2745,11.1616,28.0467Z"/><path class="cls-2" d="M11.15,28.0589a.7937.7937,0,0,0-.7744-.25,1.1874,1.1874,0,0,0-.5524.5245l.0079-.0259a1.3768,1.3768,0,0,0,.0118.9242.8748.8748,0,0,0,.641.5318l-.0214-.0044a.8286.8286,0,0,0,.3161-.0548.5977.5977,0,0,0,.2365-.1742,1.2162,1.2162,0,0,0,.1872-.6336l.0017-.0322C11.2824,28.6175,11.3672,28.2706,11.15,28.0589Zm.0234-.0245a.8065.8065,0,0,1,.2235.4015,1.828,1.828,0,0,1,.0642.4737l.0015-.0319a1.2658,1.2658,0,0,1,.0186.4379.9631.9631,0,0,1-.1832.4411.7993.7993,0,0,1-.4083.2717,1.1265,1.1265,0,0,1-.4674.0357l-.0151-.0019-.0064-.0025a1.04,1.04,0,0,1-.4542-.3131,1.3227,1.3227,0,0,1-.2218-.4754,2.7306,2.7306,0,0,1-.0811-.4945,3.3993,3.3993,0,0,1-.0288-.5076l0-.0031.0079-.023a1.232,1.232,0,0,1,.234-.4418.6856.6856,0,0,1,.482-.2456.816.816,0,0,1,.4842.1673A2.8529,2.8529,0,0,1,11.1733,28.0344Z"/><path class="cls-2" d="M9.4212,36.6677a.4349.4349,0,0,1-.1348-.3255c.0159-.109.1353-.2183.0906-.3269a.9122.9122,0,0,1-.0935-.6523v-.6475a4.9141,4.9141,0,0,0-.04-.6111l-.0082-.0481.0032-.02a2.37,2.37,0,0,0-.0262-.7565,2.3579,2.3579,0,0,1-.0559-.829,5.1265,5.1265,0,0,1,.4947-1.5534l.0313.0131a5.4976,5.4976,0,0,0-.3666,1.5528,2.1,2.1,0,0,0,.0984.7728,2.3954,2.3954,0,0,1,.08.85l-.005-.0677a4.1661,4.1661,0,0,1,.076.6869l.0218.6571a.91.91,0,0,1-.09.6525c-.0442.1089.0755.2171.0919.3256a.4381.4381,0,0,1-.1333.3269Z"/><path class="cls-2" d="M10.9446,35.8192c-.1363-.11-.1773-.22-.05-.3206.0571-.0529.0192-.0991.0079-.1512a1.4937,1.4937,0,0,0-.0183-.1505.8071.8071,0,0,0-.0868-.2713c-.0186-.04-.0573-.0518-.0315-.0448.0206-.0093-.0116.0167-.0215.0576a1.0509,1.0509,0,0,0,.0013.5965.7083.7083,0,0,1-.1569.6335l-.0338-.0031a.7122.7122,0,0,1-.1212-.6358c.01-.0521.0354-.1026.05-.1565l.0107-.165a1.2851,1.2851,0,0,1,.0722-.339c.0293-.0518.05-.1394.1777-.1682a.2217.2217,0,0,1,.2032.14.9625.9625,0,0,1,.09.3346,1.6478,1.6478,0,0,1,.0109.1654c-.002.0535-.0441.1133.0061.166.1164.11.0679.2125-.0757.3138Z"/><path class="cls-2" d="M11.6294,30.9709c.1145.0324.0977.14.1462.2089.0332.0779.0621.1573.09.2372.0552.16.1032.322.1466.4856a6.5929,6.5929,0,0,1,.1824,1c.0183.1691.0308.3383.0371.5094-.0084.0855.0476.1744.0366.2577.0005.0847-.0768.1659-.1045.2485-.0425.1656.1059.3434.0848.5121a.6721.6721,0,0,1-.2022.4894l-.0337-.0034a.7057.7057,0,0,1-.114-.5124c.0042-.1656.1736-.3223.1482-.4916-.0193-.0847-.089-.1711-.0824-.2538-.0056-.0842.0583-.1629.0455-.245.0028-.1641,0-.33-.0093-.4951a8.9861,8.9861,0,0,0-.1139-.9882c-.0477-.3238-.1583-.6607-.223-.959Z"/><path class="cls-2" d="M3.4609,37.27a1.0359,1.0359,0,0,1,.7273.1743.9935.9935,0,0,1,.3714.6681l-.0058-.0154a4.6924,4.6924,0,0,1,.33.8888,3.1666,3.1666,0,0,1,.0631.9525,2.4911,2.4911,0,0,1-.2561.926,1.7692,1.7692,0,0,1-.615.7288l-.024-.024a4.1231,4.1231,0,0,0,.5429-1.6708A5.3308,5.3308,0,0,0,4.65,39.015a1.6647,1.6647,0,0,0-.19-.8648l-.0016-.0028-.0043-.0129a.6337.6337,0,0,0-.1986-.2533l-.2459-.1954c-.1629-.1318-.3477-.2424-.5552-.3831Z"/><path class="cls-2" d="M1.1751,41.7067a1.9948,1.9948,0,0,1-.8839-.9853,2.8569,2.8569,0,0,1-.0785-1.3288,3.9837,3.9837,0,0,1,.058-.6663A2.2239,2.2239,0,0,1,.53,38.09a1.4273,1.4273,0,0,1,1.1689-.6524l.0084.0327a2.6024,2.6024,0,0,0-.8759.8193,3.59,3.59,0,0,0-.5007,1.1169,2.0238,2.0238,0,0,0,.24,1.1977,5.3131,5.3131,0,0,0,.6246,1.076Z"/><path class="cls-3" d="M3.0566,35.7032a.8011.8011,0,0,0-1.4385.2411s-.2418,1.3525.72,1.6234c0,0,.9749.1291.89-1.0246C3.2282,36.5431,3.3354,35.93,3.0566,35.7032Z"/><path class="cls-2" d="M3.045,35.7156a.794.794,0,0,0-.7744-.25,1.1851,1.1851,0,0,0-.5524.5242l.0079-.0259a1.375,1.375,0,0,0,.0123.9242A.8758.8758,0,0,0,2.38,37.42l-.0214-.0045a.8268.8268,0,0,0,.3163-.0546.596.596,0,0,0,.2363-.1742,1.216,1.216,0,0,0,.1873-.6338L3.1,36.5205C3.1781,36.2736,3.2631,35.9264,3.045,35.7156Zm.0233-.0246a.8018.8018,0,0,1,.2242.4009,1.8272,1.8272,0,0,1,.0643.4736l.0015-.0319a1.2712,1.2712,0,0,1,.0185.438.9613.9613,0,0,1-.183.441.8.8,0,0,1-.4084.2719,1.1288,1.1288,0,0,1-.4675.0355l-.0152-.0019-.0065-.0026a1.04,1.04,0,0,1-.454-.3132,1.32,1.32,0,0,1-.2217-.4752,2.7146,2.7146,0,0,1-.0817-.4945A3.4133,3.4133,0,0,1,1.51,35.925v-.0032l.008-.0229a1.2332,1.2332,0,0,1,.234-.4419.6845.6845,0,0,1,.4823-.2453.8168.8168,0,0,1,.484.1676A2.8293,2.8293,0,0,1,3.0683,35.691Z"/><path class="cls-2" d="M1.317,44.3236a.4337.4337,0,0,1-.135-.3254c.0161-.109.1353-.2184.09-.327a.9124.9124,0,0,1-.0939-.6523v-.6475a4.8611,4.8611,0,0,0-.04-.6109L1.13,41.7122l.0033-.0205a2.332,2.332,0,0,0-.0255-.756,2.3573,2.3573,0,0,1-.0556-.8292,5.1649,5.1649,0,0,1,.4937-1.5539l.0313.013a5.54,5.54,0,0,0-.3656,1.5535,2.099,2.099,0,0,0,.098.7728,2.3644,2.3644,0,0,1,.0787.8507l-.0048-.0685a4.139,4.139,0,0,1,.0765.687l.022.6571a.9093.9093,0,0,1-.09.6525c-.0444.109.0753.2171.092.3255a.4368.4368,0,0,1-.1331.3271Z"/><path class="cls-2" d="M2.84,43.4751c-.1366-.11-.1776-.2194-.0508-.3207.0573-.0532.019-.0982.0076-.1509a1.4927,1.4927,0,0,0-.0184-.1508.8068.8068,0,0,0-.0866-.2714c-.0187-.04-.0574-.0515-.0309-.0447.02-.0094-.0118.0173-.0217.058a1.0555,1.0555,0,0,0,.0013.5968.7083.7083,0,0,1-.1575.6336L2.45,43.8218a.7108.7108,0,0,1-.1207-.6357c.01-.0521.0354-.1028.05-.1567l.0106-.1649a1.2853,1.2853,0,0,1,.0722-.3389c.0293-.052.0487-.1391.1767-.1687a.22.22,0,0,1,.2036.1395.955.955,0,0,1,.09.3346,1.6481,1.6481,0,0,1,.011.1653c-.0019.0529-.0436.1138.0064.1662.1164.11.0681.2122-.0755.3137Z"/><path class="cls-2" d="M3.5252,38.6274c.1142.0325.0977.14.1462.2089.0329.0779.0619.1573.0894.2372.055.16.103.3219.1462.4854a6.5743,6.5743,0,0,1,.1823.9994c.0182.169.0308.3381.0371.5091-.0084.0854.0477.1741.0368.2575.0005.0848-.077.1659-.1045.2485-.0419.1656.1061.3433.0851.5119a.6712.6712,0,0,1-.202.4893l-.0336-.0034a.7042.7042,0,0,1-.1141-.5121c.004-.1656.173-.3224.1478-.4915-.0192-.0847-.089-.1709-.0826-.2536-.0059-.0841.0581-.1629.0454-.2451.0028-.164,0-.33-.0093-.4948a8.98,8.98,0,0,0-.1137-.9879c-.0476-.3237-.1582-.66-.2226-.9588Z"/><path class="cls-1" d="M74.1582,3.4853a8.8468,8.8468,0,0,0-3.6352-.1959,6.1906,6.1906,0,0,0-3.22,1.5329,5.5321,5.5321,0,0,0-1.654,3.1128,12.439,12.439,0,0,0-.3258,3.6032c.0192.3006.0488.599.0938.895a4.2829,4.2829,0,0,1,.1261.9862,5.8528,5.8528,0,0,1-.7927,1.7767,30.4514,30.4514,0,0,0-1.7149,3.2329,13.4562,13.4562,0,0,0-1.0982,7.0923l.026.2066-.197-.0124c-.8824-.0551-1.7655-.0745-2.6482-.1028l-.11-.0035,0-.1073.0076-1.5438.1858.0619c-.95,1.293-1.91,2.5791-2.8384,3.889l.01-.1776,2.9393,4.7575-.5221.152-.0691-1.3968-.0152-.3074.3159-.0043,3.2738-.0437.563-.0075-.27.5243a15.6351,15.6351,0,0,0-1.62,5.2586,15.94,15.94,0,0,0,.2156,5.5448,14.2626,14.2626,0,0,0,2.2519,5.107A8.5742,8.5742,0,0,0,67.85,50.6406l-.0129.0665a8.717,8.717,0,0,1-4.5918-3.2478,13.1168,13.1168,0,0,1-1.4792-2.4533,20.2024,20.2024,0,0,1-.9641-2.7,14.7431,14.7431,0,0,1-.509-5.7231,15.969,15.969,0,0,1,.5793-2.8386,12.3457,12.3457,0,0,1,1.1325-2.69l.2927.5167-3.2737-.0358.3-.3116.0277,1.3981.0223,1.1239-.5444-.9719-2.7328-4.8792-.0541-.0968.064-.081c.9949-1.26,1.9579-2.5436,2.93-3.82l.1844-.2422.0015.304L59.23,25.502l-.1088-.1107c.8832.0008,1.7664.0105,2.65-.0155l-.1709.1941a13.5139,13.5139,0,0,1-.1056-3.7473,13.1636,13.1636,0,0,1,.99-3.63,24.2981,24.2981,0,0,1,1.7843-3.28,5.6318,5.6318,0,0,0,.7533-1.5626,4.3446,4.3446,0,0,0-.114-.84,9.1958,9.1958,0,0,1-.0871-.9452,12.8808,12.8808,0,0,1,.42-3.7317,9.2041,9.2041,0,0,1,.6476-1.7736,4.2109,4.2109,0,0,1,.52-.8149,6.9733,6.9733,0,0,1,.6688-.6738,6.3623,6.3623,0,0,1,3.4136-1.4951,8.6282,8.6282,0,0,1,3.6884.3458Z"/><path class="cls-2" d="M73.8235,43.3876a3.3478,3.3478,0,0,1-.7628,2.1657,2.7034,2.7034,0,0,1-2.1658.949,3.136,3.136,0,0,1-2.1112-1.0039,3.3144,3.3144,0,0,1-.9309-2.1112,2.9534,2.9534,0,0,1,.82-2.2221,3.0594,3.0594,0,0,1,2.2221-.9524,2.8564,2.8564,0,0,1,2.1709,1.0035A3.3487,3.3487,0,0,1,73.8235,43.3876Zm-.0508,0a2.5374,2.5374,0,0,0-.9432-1.9347,3.0285,3.0285,0,0,0-1.9343-.6977,2.7714,2.7714,0,0,0-1.8837.7482,2.8832,2.8832,0,0,0-.88,1.8838A2.56,2.56,0,0,0,68.9,45.3818a2.6816,2.6816,0,0,0,1.9945.6971,3.2892,3.2892,0,0,0,1.94-.7514A2.5392,2.5392,0,0,0,73.7727,43.3876Z"/><rect class="cls-2" x="70.6405" y="40.4838" width="0.5087" height="0.8213"/><rect class="cls-2" x="70.6405" y="45.4698" width="0.5087" height="0.8206"/><rect class="cls-2" x="68.2071" y="43.1331" width="0.8213" height="0.5087"/><rect class="cls-2" x="70.0679" y="41.97" width="0.5087" height="1.6951" transform="translate(-8.282 67.311) rotate(-48.6435)"/><rect class="cls-2" x="69.1557" y="43.6849" width="2.3331" height="0.5092" transform="translate(-12.3137 50.8093) rotate(-36.7507)"/><rect class="cls-2" x="72.9766" y="43.1331" width="0.8213" height="0.5087"/><path class="cls-2" d="M40.5246,34.434a.6254.6254,0,0,0,0-1.25.6254.6254,0,0,0,0,1.25Z"/><path class="cls-2" d="M43.1044,34.3935a.6254.6254,0,0,0,0-1.25.6254.6254,0,0,0,0,1.25Z"/><path class="cls-2" d="M45.6345,34.3935a.6254.6254,0,0,0,0-1.25.6254.6254,0,0,0,0,1.25Z"/><path class="cls-2" d="M40.5246,37.0522a.6254.6254,0,0,0,0-1.25.6254.6254,0,0,0,0,1.25Z"/><path class="cls-2" d="M43.1044,37.0118a.6254.6254,0,0,0,0-1.25.6254.6254,0,0,0,0,1.25Z"/><path class="cls-2" d="M45.6345,37.0118a.6254.6254,0,0,0,0-1.25.6254.6254,0,0,0,0,1.25Z"/><path class="cls-2" d="M40.5246,39.6538a.6254.6254,0,0,0,0-1.25.6254.6254,0,0,0,0,1.25Z"/><path class="cls-2" d="M43.1044,39.6134a.6254.6254,0,0,0,0-1.25.6254.6254,0,0,0,0,1.25Z"/><path class="cls-2" d="M45.6345,39.6134a.6254.6254,0,0,0,0-1.25.6254.6254,0,0,0,0,1.25Z"/><path class="cls-2" d="M75.6317,15.78a3.291,3.291,0,0,1-1.6363,2.4773,3.5463,3.5463,0,0,1-3.0288.5834,3.11,3.11,0,0,1-1.9491-2.3239,3.43,3.43,0,0,1,.7017-2.9229,2.9862,2.9862,0,0,1,.5884-.5337,1.5754,1.5754,0,0,0-.0161-.1766,2.1586,2.1586,0,0,0-.0919-.3318l-.2628-.7048a2.1273,2.1273,0,0,1-.1093-.4057.5721.5721,0,0,1,.03-.3138.339.339,0,0,1,.2-.18.5929.5929,0,0,1,.1263-.0274l.049.0012.38.0114a1.5427,1.5427,0,0,0,.27.0012c.0327-.0134.0795-.0727.2026-.2057a.5055.5055,0,0,1,.0779-.061.4047.4047,0,0,1,.1143-.0479.7687.7687,0,0,1,.1358-.0232c.08-.0074.149-.0081.2142-.0081.13,0,.25.0012.3567-.0057a.8964.8964,0,0,0,.1456-.0188l.0577-.0157.101-.0337a1.0237,1.0237,0,0,1,.5095-.0448.55.55,0,0,1,.2875.1634.71.71,0,0,1,.1634.2184,1.7224,1.7224,0,0,1,.1428.8719,5.1048,5.1048,0,0,1-.1.7765l-.064.3607a1.1215,1.1215,0,0,0-.0139.1342s0,.0169-.0065-.0024c-.0015-.0376-.076-.0842-.073-.0744l.0828.0487a7.2148,7.2148,0,0,1,.6413.4232,6.6436,6.6436,0,0,1,1.1443,1.0228A2.2115,2.2115,0,0,1,75.6317,15.78Zm-.0508,0a1.8556,1.8556,0,0,0-.68-1.27,5.9581,5.9581,0,0,0-1.2207-.8373c-.2169-.1191-.4426-.2219-.6631-.3331l-.0835-.04a.3506.3506,0,0,1-.1308-.1475.4221.4221,0,0,1-.0232-.0942,1.1233,1.1233,0,0,1-.0036-.2416l.0367-.3866a2.7232,2.7232,0,0,0-.0422-1.3218.2647.2647,0,0,0-.0909-.1073.5506.5506,0,0,0-.233.0326l-.0778.0257a1.0981,1.0981,0,0,1-.1238.0341,1.4407,1.4407,0,0,1-.228.03c-.1443.009-.2762-.001-.3973-.004-.06-.0023-.1169-.0029-.1624,0a.306.306,0,0,0-.05.0055c-.0184.0052.02-.0071.0273-.0138.0093-.0065.0036-.003.0036-.003a1.1618,1.1618,0,0,1-.3571.291,1.0868,1.0868,0,0,1-.4766.0264l-.373-.0243-.0451-.0027a.0449.0449,0,0,0,.0351-.0037c.0118-.0159.0557-.0271.0626-.0645.0093-.0227-.0026.0068.0057.0565a2.2315,2.2315,0,0,0,.0743.3244l.2214.7235a2.5121,2.5121,0,0,1,.0838.4,1.04,1.04,0,0,1-.0007.2366,1.2017,1.2017,0,0,1-.0485.1472.58.58,0,0,1-.1285.137,2.67,2.67,0,0,0-.5676.4283,2.8208,2.8208,0,0,0-.7349,2.6943,2.6913,2.6913,0,0,0,1.9021,1.961,2.7825,2.7825,0,0,0,1.38.0158,5.875,5.875,0,0,0,1.3636-.4724,3.955,3.955,0,0,0,1.1791-.8657A2.076,2.076,0,0,0,75.5809,15.78Z"/><path class="cls-2" d="M69.7081,13.0336a1.472,1.472,0,0,1,1.0389-.2395,2.4669,2.4669,0,0,0,.514.1372.7347.7347,0,0,0,.4663-.1766,3.2749,3.2749,0,0,1,.8347-.6155,1.4251,1.4251,0,0,1,.6025-.112.6364.6364,0,0,1,.5663.323l-.0389.0556a.786.786,0,0,0-.4357.1475l-.379.2369a3.4675,3.4675,0,0,1-.4661.2011,1.4917,1.4917,0,0,1-.5679.1162,2.1516,2.1516,0,0,0-.5546.042c-.174.0431-.3477.1629-.5285.209a1.3965,1.3965,0,0,1-1.052-.2571Z"/><path class="cls-2" d="M72.1794,14.1117a1.8383,1.8383,0,0,0-1.9879,2.649,1.7608,1.7608,0,0,0,3.0857.0183.2545.2545,0,0,0-.4392-.2567,1.2554,1.2554,0,0,1-2.1374.1148,1.3329,1.3329,0,0,1,1.3436-2.0349c.32.0516.4581-.4384.1352-.49Z"/><path class="cls-2" d="M69.9527,17.0575c.5718-.172,1.1512-.3961,1.7088-.61.3025-.1161.1711-.6081-.1353-.4905-.5576.2139-1.1369.438-1.7088.61a.2546.2546,0,0,0,.1353.4905Z"/><rect class="cls-3" x="67.7781" y="25.5457" width="5.8762" height="8.8474"/><path class="cls-2" d="M73.6664,34.4051l-2.9057.0955c-.9863.0271-1.9863.0325-2.9824.0449l-.1527.002V34.393c0-1.4745.05-2.9491.0859-4.4236.0242-1.4745.012-2.9491-.0261-4.4236l-.0025-.0906.0954-.0023q2.938-.07,5.876-.0872l.18-.001,0,.1811C73.8393,28.5371,73.7624,31.5458,73.6664,34.4051Zm-.024-.024c-.0961-3.0389-.1729-5.9283-.1681-8.8353l.18.18q-2.9381-.0166-5.876-.0872l.0927-.0927c-.0382,1.4745-.05,2.9491-.0263,4.4236.0357,1.4745.0859,2.9491.0859,4.4236l-.1523-.1524c.9623.0124,1.9212.0178,2.8935.045Z"/><rect class="cls-3" x="68.6326" y="26.8816" width="0.8133" height="0.8518"/><path class="cls-2" d="M69.4555,27.743a2.3107,2.3107,0,0,1-.8228.1052l-.1353-.0083.02-.1066a2.0657,2.0657,0,0,0,.0405-.8516l-.0132-.0578.0876-.0165a4.6823,4.6823,0,0,1,.8132-.0711l.149-.002-.0037.1474A3.4989,3.4989,0,0,1,69.4555,27.743Zm-.0192-.0192a5.7741,5.7741,0,0,1-.1357-.8422l.1453.1453a4.6919,4.6919,0,0,1-.8132-.071l.0742-.0742a2.059,2.059,0,0,0,.04.8516l-.1147-.1147A2.8791,2.8791,0,0,1,69.4363,27.7238Z"/><rect class="cls-3" x="68.6326" y="29.5435" width="0.8133" height="0.8518"/><path class="cls-2" d="M69.4555,30.4049a2.3107,2.3107,0,0,1-.8228.1052l-.1353-.0083.02-.1066a2.0657,2.0657,0,0,0,.0405-.8516l-.0132-.0578.0876-.0165a4.6724,4.6724,0,0,1,.8132-.071l.149-.0021-.0037.1474A3.4989,3.4989,0,0,1,69.4555,30.4049Zm-.0192-.0192a5.7741,5.7741,0,0,1-.1357-.8422l.1453.1453a4.6919,4.6919,0,0,1-.8132-.071l.0742-.0742a2.059,2.059,0,0,0,.04.8516l-.1147-.1147A2.8791,2.8791,0,0,1,69.4363,30.3857Z"/><rect class="cls-3" x="68.6326" y="32.32" width="0.8133" height="0.8517"/><path class="cls-2" d="M69.4555,33.1814a2.313,2.313,0,0,1-.8228.1052l-.1353-.0083.02-.1066a2.0623,2.0623,0,0,0,.0405-.8516l-.0132-.0578.0876-.0165a4.6921,4.6921,0,0,1,.8132-.0711l.149-.0019-.0037.1473A3.4989,3.4989,0,0,1,69.4555,33.1814Zm-.0192-.0192a5.773,5.773,0,0,1-.1357-.8421l.1453.1452a4.6724,4.6724,0,0,1-.8132-.071l.0742-.0742a2.0589,2.0589,0,0,0,.04.8516l-.1147-.1147A2.8754,2.8754,0,0,1,69.4363,33.1622Z"/><path class="cls-2" d="M70.0969,26.8816a4.3731,4.3731,0,0,1,1.2611-.1694,4.3172,4.3172,0,0,1,1.2611.1694,4.3139,4.3139,0,0,1-1.2611.17A4.3767,4.3767,0,0,1,70.0969,26.8816Z"/><path class="cls-2" d="M70.0969,30.3556a4.3767,4.3767,0,0,1,1.2611-.1695,4.3139,4.3139,0,0,1,1.2611.1695,4.3172,4.3172,0,0,1-1.2611.1694A4.3731,4.3731,0,0,1,70.0969,30.3556Z"/><path class="cls-2" d="M70.0969,33.05a4.3766,4.3766,0,0,1,1.2611-.1694,4.3172,4.3172,0,0,1,1.2611.1694,4.3139,4.3139,0,0,1-1.2611.1695A4.37,4.37,0,0,1,70.0969,33.05Z"/><path class="cls-2" d="M70.0969,27.6966a1.0156,1.0156,0,0,1,.6306-.1242,3.1437,3.1437,0,0,0,.3152.0862.8748.8748,0,0,0,.3153-.0379,1.6767,1.6767,0,0,1,1.2611.0759v.0339a1.6757,1.6757,0,0,1-1.2611.0758.8769.8769,0,0,0-.3153-.0378,3.1437,3.1437,0,0,0-.3152.0862,1.015,1.015,0,0,1-.6306-.1242Z"/><path class="cls-2" d="M72.741,32.337a1.0147,1.0147,0,0,1-.6306.1242,3.1165,3.1165,0,0,0-.3153-.0862.8769.8769,0,0,0-.3152.0378,1.6758,1.6758,0,0,1-1.2611-.0758v-.0339a1.6767,1.6767,0,0,1,1.2611-.0759.8748.8748,0,0,0,.3152.0379,3.1423,3.1423,0,0,0,.3153-.0861,1.0146,1.0146,0,0,1,.6306.1241Z"/><path class="cls-2" d="M72.741,29.6a1.016,1.016,0,0,1-.6306.1241,3.1158,3.1158,0,0,0-.3153-.0861.8725.8725,0,0,0-.3152.0378A1.6772,1.6772,0,0,1,70.2188,29.6v-.034a1.6767,1.6767,0,0,1,1.2611-.0758.8747.8747,0,0,0,.3152.0378,3.1165,3.1165,0,0,0,.3153-.0862,1.0147,1.0147,0,0,1,.6306.1242Z"/><path class="cls-2" d="M68.92,27.5452l-.01-.1364c-.0027-.0378-.004-.0788-.0053-.12A.7115.7115,0,0,0,68.81,26.87l.1311-.1073a.6537.6537,0,0,1,.1252.3736c.0152-.0259.03-.0517.0444-.0782.0311-.0563.0629-.1119.096-.1662.208-.3438.3676-.5895.5252-.6153l.0278.1669c-.0934.0152-.306.3676-.408.5365-.0331.0529-.0629.1066-.0933.1609a2.8539,2.8539,0,0,1-.1484.2464.1671.1671,0,0,1-.0722.0881Z"/><path class="cls-2" d="M68.92,33.0836l-.01-.1364c-.0027-.0378-.004-.0788-.0053-.12a.7117.7117,0,0,0-.0947-.4186l.1311-.1073a.6537.6537,0,0,1,.1252.3736c.0152-.0259.03-.0517.0444-.0782.0311-.0563.0629-.1119.096-.1662.208-.3438.3676-.5895.5252-.6153l.0278.1669c-.0934.0152-.306.3676-.408.5365-.0331.0529-.0629.1066-.0933.1609a2.8539,2.8539,0,0,1-.1484.2464.1671.1671,0,0,1-.0722.0881Z"/><path class="cls-1" d="M.7434,46.9436c.1116.721.1707,1.4395.2108,2.1582L.7472,48.9c.55-.018,1.1-.0337,1.6494-.0056l1.65.1179A29.7362,29.7362,0,0,0,7.345,48.9c1.1-.0426,2.1991-.0849,3.2987-.0518,1.1.0416,2.1993.0861,3.2989.2339v.0509c-1.1.1478-2.1992.1922-3.2989.2338-1.1.0332-2.1992-.0091-3.2987-.0518a29.7848,29.7848,0,0,0-3.2989-.1127l-1.65.118c-.55.028-1.1.0123-1.6494-.0057l-.2126-.0069L.54,49.1129c.02-.7238.06-1.4478.1523-2.1693Z"/><polyline class="cls-3" points="41.802 11.714 42.983 11.121 47.676 11.121 47.676 16.575 47.084 17.33"/><path class="cls-2" d="M41.7939,11.6991c.3691-.2472.7518-.4673,1.1348-.6865l.02-.0118L42.9833,11a19.2508,19.2508,0,0,1,2.3461.0134,16.9366,16.9366,0,0,0,2.3463.0252l.0767-.0042.0061.0869c.0625.9091.0812,1.818.0971,2.7271-.0022.909-.0184,1.818-.0822,2.7271l-.0028.04-.018.0207c-.21.2413-.435.4712-.6549.7047l-.0267-.0209c.1742-.2693.344-.5425.5281-.8042l-.0209.06c-.0639-.9091-.08-1.8181-.0821-2.7271.0159-.9091.0346-1.818.097-2.7271l.0826.0827a16.921,16.921,0,0,0-2.3463.0252,19.2508,19.2508,0,0,1-2.3461.0133l.0541-.0129c-.4045.1764-.8095.352-1.2282.5Z"/><rect class="cls-3" x="41.8016" y="11.8951" width="5.1947" height="5.4344"/><path class="cls-2" d="M47.0083,17.3415c-.8241.0452-1.6865.08-2.56.1075-.8766.0175-1.763.0419-2.6467.0224l-.1445-.0032L41.66,17.33c.0167-.9057.0752-1.8114.0821-2.7172.02-.9056-.0056-1.8114-.0331-2.7171l-.0028-.09.0957-.0028c1.7315-.0515,3.463-.0964,5.1945-.0826l.1752.0014,0,.1741C47.174,13.75,47.0878,15.6076,47.0083,17.3415Zm-.024-.0239c-.0795-1.8889-.1658-3.6542-.1635-5.4224l.1754.1754c-1.7315.0138-3.463-.0311-5.1945-.0826l.0927-.0928c-.0276.9057-.0531,1.8115-.0332,2.7171.0069.9058.0654,1.8115.0822,2.7172l-.1417-.1418c.8476-.02,1.6929.005,2.5478.0224Z"/><line class="cls-3" x1="47.6758" y1="11.1209" x2="47.0592" y2="11.8951"/><rect class="cls-2" x="46.8724" y="11.3387" width="0.9898" height="0.3385" transform="translate(8.8823 41.4243) rotate(-51.5153)"/><path class="cls-2" d="M50.41,11.53l-.0384-.1656a.9944.9944,0,0,0,.7134-.5391l.1629.0477A1.1715,1.1715,0,0,1,50.41,11.53Z"/><path class="cls-2" d="M49.5116,12.1189a2.4259,2.4259,0,0,1-.2835-.0172l.02-.1683a1.34,1.34,0,0,0,1.24-.39l.1192.1206A1.4285,1.4285,0,0,1,49.5116,12.1189Z"/><path class="cls-2" d="M50.2417,11.3758a.356.356,0,1,0,.3563-.355A.3556.3556,0,0,0,50.2417,11.3758Z"/><path class="cls-2" d="M48.6964,11.9832a.1925.1925,0,0,0,.1736.2073h.4424a.193.193,0,0,0,.1749-.2073h0a.1922.1922,0,0,0-.1749-.2073H48.87a.1917.1917,0,0,0-.1736.2073Z"/><path class="cls-1" d="M47.0835,37.8787c-.5036.0242-.944.1809-1.4661.2563A2.1837,2.1837,0,0,1,44.156,37.67c-.2085-.145-.4-.3109-.5932-.4705a1.4931,1.4931,0,0,1-.5068-.5813.5161.5161,0,0,1-.03-.2174.242.242,0,0,1,.1724-.2028.8331.8331,0,0,1,.4191.025,3.6413,3.6413,0,0,1,.7125.2842l-.0249-.0109c.4167.1034.7607.3439,1.1018.4222a1.1561,1.1561,0,0,0,.9788-.216l-.0368.0447a1.3462,1.3462,0,0,1,.7362-.5378,1.9088,1.9088,0,0,1,.8617-.0547l-.0017.034a2.2313,2.2313,0,0,0-.7954.1863,1.4022,1.4022,0,0,0-.327.215,1.116,1.116,0,0,0-.2309.2817l-.0127.0245-.0242.02a1.6936,1.6936,0,0,1-.558.3411,1.1516,1.1516,0,0,1-.6832.01c-.43-.1342-.7423-.3846-1.0879-.5207l-.0192-.0075-.0058-.0034a4.0129,4.0129,0,0,0-.6431-.3145.6753.6753,0,0,0-.31-.052c-.0659.0031-.0745.0882-.0459.2057a1.0354,1.0354,0,0,0,.4284.5395,3.3009,3.3009,0,0,0,.6436.3477,3.2447,3.2447,0,0,0,1.329.4093,5.8324,5.8324,0,0,1,1.4826-.0263Z"/><path class="cls-1" d="M48.0952,33.8821a2.9506,2.9506,0,0,1,.4224-.3658.9656.9656,0,0,1,.5714-.1847.8127.8127,0,0,1,.5592.2893,1.5225,1.5225,0,0,1,.2821.5181l.0078.0212,0,.005a3.8435,3.8435,0,0,1-.024.6036,3.0363,3.0363,0,0,1-.0978.5891,1.5551,1.5551,0,0,1-.2694.558,1.2383,1.2383,0,0,1-.5362.3617l-.007.0028-.0147.0017a1.322,1.322,0,0,1-.5453-.0449.9371.9371,0,0,1-.4722-.3162,1.135,1.135,0,0,1-.2141-.5129,1.5741,1.5741,0,0,1,.0151-.5165l.0016.032a2.1673,2.1673,0,0,1,.0621-.5614A.9211.9211,0,0,1,48.0952,33.8821Zm.0235.0245a.5945.5945,0,0,0-.1716.47,1.73,1.73,0,0,0,.0843.5023l.0017.0323a1.4218,1.4218,0,0,0,.2219.784.7316.7316,0,0,0,.3.2186,1.0215,1.0215,0,0,0,.394.064l-.0215.0044a1.0674,1.0674,0,0,0,.7708-.6631,1.76,1.76,0,0,0,.0237-1.1149l.0081.0259a1.3372,1.3372,0,0,0-.6779-.6445A.9916.9916,0,0,0,48.1187,33.9066Z"/><path class="cls-1" d="M50.0345,47.343a6.0842,6.0842,0,0,1-.0037-1.5583,4.286,4.286,0,0,0,.0052-1.5614,9.1459,9.1459,0,0,1-.0121-1.563,10.0064,10.0064,0,0,1,.1117-1.6021l-.0036.0119.2656-.901c.0869-.2989.1879-.6021.2636-.8972l.0338-.0015c-.0229.3229-.0831.6262-.1346.9373l-.1759.9246-.0036.0121a11.08,11.08,0,0,0-.0534,1.5166,8.4205,8.4205,0,0,1-.02,1.5642,4.7486,4.7486,0,0,0-.0412,1.5654,3.2886,3.2886,0,0,1-.1987,1.56Z"/><path class="cls-1" d="M47.5092,37.3988a9.7479,9.7479,0,0,0-.44,2.7946c.05.9382.1255,1.91.2248,2.8531a7.8105,7.8105,0,0,1,.06,2.9029,2.13,2.13,0,0,1-.278.705c-.084.1387-.0981.1127-.04.1727a.7343.7343,0,0,0,.2962.0993,1.4021,1.4021,0,0,0,.6655-.0394c.0667-.0148.1046-.1624.1427-.26a2.43,2.43,0,0,0,.0831-.3409,13.706,13.706,0,0,0,.0706-2.86,2.5554,2.5554,0,0,1,.1424-1.468.2154.2154,0,0,1,.1288-.0746.186.186,0,0,1,.157.0594.4839.4839,0,0,1,.1041.1976,1.7743,1.7743,0,0,1,.0616.3766c.0111.2528.0177.4722.048.7125.1087.9441.3353,1.8827.3805,2.8632a2.1967,2.1967,0,0,1-.3252,1.4963l-.04.04-.02.02-.01.01c-.0064.0032-.0107.0164.0242-.0276a.1575.1575,0,0,0,.0224-.059.1557.1557,0,0,0-.0191-.1081.133.133,0,0,0-.0536-.0543c-.005-.0047-.0187-.0083-.0133-.007l.0219.0042a1.405,1.405,0,0,0,.1573.0122,3.2952,3.2952,0,0,0,.3409-.0086,2.19,2.19,0,0,0,.3285-.0474.6371.6371,0,0,0,.1315-.0441.0738.0738,0,0,0,.0238-.0144c-.0043.0049-.0079.0054,0,.0069a.4353.4353,0,0,0,.15.0315l.0331.0077c.158.08.1323.1574.0747.2a.431.431,0,0,1-.1239.0864.9718.9718,0,0,1-.2091.0691,2.5055,2.5055,0,0,1-.3838.0506,3.5841,3.5841,0,0,1-.3782.0042,1.7031,1.7031,0,0,1-.201-.0192.5473.5473,0,0,1-.0659-.0154.3114.3114,0,0,1-.0552-.0233.1986.1986,0,0,1-.07-.0693.1867.1867,0,0,1-.0214-.1191.17.17,0,0,1,.0278-.0683l.0451-.05.0119-.0118.0243-.023a1.96,1.96,0,0,0,.258-1.257c-.0344-.94-.2123-1.8872-.2976-2.8518-.0221-.2372-.0246-.4979-.0235-.7246a1.6018,1.6018,0,0,0-.039-.3345.3327.3327,0,0,0-.0524-.1228c-.0192-.01.0184-.017-.0236.0075a2.4506,2.4506,0,0,0-.1482,1.3432,17.9247,17.9247,0,0,1-.0712,2.8863,2.5871,2.5871,0,0,1-.0808.3591.9928.9928,0,0,1-.0663.1767.2768.2768,0,0,1-.1377.1693,1.5233,1.5233,0,0,1-.7523.088.89.89,0,0,1-.3843-.1154.251.251,0,0,1-.12-.2469.661.661,0,0,1,.0942-.1986,1.913,1.913,0,0,0,.2113-.639,9.52,9.52,0,0,0-.1049-2.8233c-.0778-.9668-.1559-1.9109-.1513-2.89a8.5109,8.5109,0,0,1,.1924-1.44c.0538-.2359.1164-.4695.19-.7.0369-.115.0753-.23.1195-.3419l.07-.1675.0389-.0823c.027-.0161-.0022-.0792.0793-.0574Z"/><path class="cls-1" d="M49.8724,38.2657a.1441.1441,0,0,1,.0457.1979.5088.5088,0,0,1-.1355.1549,1.4962,1.4962,0,0,1-.3485.1933,3.05,3.05,0,0,1-.7659.19,6.0446,6.0446,0,0,1-1.5693-.0394,2.31,2.31,0,0,1-.4133-.09l-.3471-.1863a3.81,3.81,0,0,0-.6706-.2885.4857.4857,0,0,0-.2835-.0048c-.0647.0162-.0836.0517-.0543.1643a1.2115,1.2115,0,0,0,.4651.5405,2.7308,2.7308,0,0,0,1.428.4534c.51.0415,1.02.0748,1.5258.0684a4.5423,4.5423,0,0,0,1.4522-.21.8891.8891,0,0,0,.48-.4357,1.1684,1.1684,0,0,0,.2011-.6289l-.0035-.0237a3.571,3.571,0,0,0-.08-.6483,1.91,1.91,0,0,0-.2418-.5968,1.6,1.6,0,0,0-.4474-.467c-.1765-.137-.3977-.1939-.5817-.3538l.0265-.0212c.1716.1213.4123.1667.61.2876a1.5957,1.5957,0,0,1,.53.46,2.6334,2.6334,0,0,1,.4429,1.3248l-.0035-.0235a1.3666,1.3666,0,0,1-.1786.8434,1.6213,1.6213,0,0,1-.2409.3607,1.2712,1.2712,0,0,1-.3759.2405,3.8268,3.8268,0,0,1-1.59.2234,9.3305,9.3305,0,0,1-1.5557-.1752,4.9062,4.9062,0,0,1-1.4614-.5792,1.6817,1.6817,0,0,1-.5988-.5553.4237.4237,0,0,1-.0485-.256.3281.3281,0,0,1,.1784-.2382.7071.7071,0,0,1,.4734-.0349,2.4854,2.4854,0,0,1,.7424.3278l.3251.1961a2.561,2.561,0,0,0,.34.0763,5.8321,5.8321,0,0,0,1.5106.12,3.2705,3.2705,0,0,0,.745-.1232,1.399,1.399,0,0,0,.34-.1524c.0939-.0582.2208-.18.1155-.2633Z"/><path class="cls-2" d="M49.2645,35.1978l-.0384-.1656a.9942.9942,0,0,0,.7133-.5391l.163.0476A1.1715,1.1715,0,0,1,49.2645,35.1978Z"/><path class="cls-2" d="M48.3657,35.7866a2.4272,2.4272,0,0,1-.2835-.0172l.02-.1683a1.34,1.34,0,0,0,1.24-.39l.1192.1206A1.4287,1.4287,0,0,1,48.3657,35.7866Z"/><path class="cls-2" d="M49.0958,35.0435a.356.356,0,1,0,.3563-.355A.3557.3557,0,0,0,49.0958,35.0435Z"/><path class="cls-2" d="M47.5506,35.6509a.1925.1925,0,0,0,.1736.2073h.4424a.193.193,0,0,0,.1748-.2073h0a.1921.1921,0,0,0-.1748-.2073h-.4424a.1917.1917,0,0,0-.1736.2073Z"/><text class="cls-4" transform="translate(2.8976 62.4854)">FRON<tspan class="cls-5" x="12.8047" y="0">T</tspan><tspan x="15.457" y="0"></tspan><tspan x="0" y="5.6973">S</tspan><tspan class="cls-6" x="3.0049" y="5.6973">T</tspan><tspan x="5.3911" y="5.6973">AGE</tspan></text><text class="cls-4" transform="translate(35.6305 62.4854)">BACK <tspan x="0" y="5.6973">S</tspan><tspan class="cls-6" x="3.0049" y="5.6973">T</tspan><tspan x="5.3911" y="5.6973">AGE</tspan></text><text class="cls-4" transform="translate(61.3639 62.5996)">BEHIND<tspan class="cls-7" x="16.9692" y="0"> </tspan><tspan x="18.041" y="0">THE </tspan><tspan x="0" y="5.6973">SCENES</tspan></text><rect class="cls-3" x="14.7411" y="27.4735" width="5.1503" height="6.8882"/><path class="cls-1" d="M15.4166,26.2981a2.9457,2.9457,0,0,0-.7153.3727,1.57,1.57,0,0,1-.7711.41,3.4855,3.4855,0,0,1-1.6939-.16,2.7318,2.7318,0,0,1-1.3882-.9445.7635.7635,0,0,1-.1391-.4342.3121.3121,0,0,1,.1344-.2406.5338.5338,0,0,1,.239-.0789,2.2449,2.2449,0,0,1,.8636.1336l.0037.0012.018.0094a2.9784,2.9784,0,0,0,1.3661.392,1.277,1.277,0,0,0,1.14-.5975L14.46,25.2a1.3474,1.3474,0,0,1,.5694-.7121,1.9664,1.9664,0,0,1,.8175-.2789l.0074.0332a2.1507,2.1507,0,0,0-.7189.3886,1.3965,1.3965,0,0,0-.2593.2933,1.1171,1.1171,0,0,0-.1492.3325l-.0038.0177-.0109.0214a1.463,1.463,0,0,1-.5634.6179,1.6666,1.6666,0,0,1-.8164.2029,2.8549,2.8549,0,0,1-1.5009-.5256l.0215.0105a2.2118,2.2118,0,0,0-.755-.1816c-.1262.004-.2121.0394-.2232.1383a.69.69,0,0,0,.0874.3517,1.917,1.917,0,0,0,1.3224.8355,6.0613,6.0613,0,0,0,1.5975.0527,1.69,1.69,0,0,0,.7057-.3048,1.9159,1.9159,0,0,1,.822-.2283Z"/><path class="cls-1" d="M16.3187,22.3159a2.9387,2.9387,0,0,1,.4223-.3659.9667.9667,0,0,1,.5714-.1847.8128.8128,0,0,1,.5592.2894,1.5216,1.5216,0,0,1,.2821.5181l.0078.0212,0,.0049a3.8207,3.8207,0,0,1-.024.6037,3.0353,3.0353,0,0,1-.0978.589,1.5527,1.5527,0,0,1-.2694.558,1.24,1.24,0,0,1-.536.3618l-.0071.0027-.0148.0017a1.3231,1.3231,0,0,1-.5452-.0448.938.938,0,0,1-.4725-.3164,1.1366,1.1366,0,0,1-.2139-.5127,1.5746,1.5746,0,0,1,.0152-.5166l.0015.032a2.1721,2.1721,0,0,1,.0621-.5614A.9205.9205,0,0,1,16.3187,22.3159Zm.0234.0245a.5942.5942,0,0,0-.1716.47,1.7305,1.7305,0,0,0,.0843.5022l.0017.0323a1.4228,1.4228,0,0,0,.2219.784.73.73,0,0,0,.3.2186,1.0188,1.0188,0,0,0,.3939.064l-.0215.0044a1.0671,1.0671,0,0,0,.7708-.663,1.76,1.76,0,0,0,.0237-1.115l.0081.0259a1.3384,1.3384,0,0,0-.6777-.6445A.9918.9918,0,0,0,16.3421,22.34Z"/><path class="cls-1" d="M18.2579,35.7767a6.0751,6.0751,0,0,1-.0035-1.5583,4.286,4.286,0,0,0,.005-1.5614,9.146,9.146,0,0,1-.0121-1.563,10.0168,10.0168,0,0,1,.1116-1.6021l-.0047.0687a.5173.5173,0,0,1,.0946-.1878l.0339-.0015a.7794.7794,0,0,1,.1262.1378l.0043.0058-.0091.0632a11.0976,11.0976,0,0,0-.0531,1.5166,8.439,8.439,0,0,1-.02,1.5643,4.7453,4.7453,0,0,0-.0413,1.5653,3.289,3.289,0,0,1-.1987,1.56Z"/><path class="cls-1" d="M15.7326,25.8325a9.7485,9.7485,0,0,0-.44,2.7946c.05.9382.1255,1.91.2248,2.8532a7.8141,7.8141,0,0,1,.06,2.9028,2.131,2.131,0,0,1-.2782.7051c-.084.1386-.098.1126-.04.1727a.7358.7358,0,0,0,.2962.0992,1.4021,1.4021,0,0,0,.6655-.0394c.0665-.0148.1046-.1624.1427-.26a2.4481,2.4481,0,0,0,.083-.341,13.6982,13.6982,0,0,0,.0707-2.86,2.5553,2.5553,0,0,1,.1424-1.468.2156.2156,0,0,1,.129-.0746.1864.1864,0,0,1,.1569.0595.4861.4861,0,0,1,.1042.1976,1.7875,1.7875,0,0,1,.0614.3766c.0111.2528.0177.4722.048.7125.1087.9441.3353,1.8827.3805,2.8632a2.1965,2.1965,0,0,1-.3252,1.4963l-.04.04-.02.02-.01.01c-.0068.0035-.01.016.0245-.0282a.1564.1564,0,0,0,.0223-.0594.1547.1547,0,0,0-.02-.108.1338.1338,0,0,0-.053-.0535c-.0052-.0047-.0189-.0083-.0133-.007l.0219.0042a1.4069,1.4069,0,0,0,.1573.0122,3.2675,3.2675,0,0,0,.3409-.0086,2.19,2.19,0,0,0,.3285-.0474.6272.6272,0,0,0,.1315-.0441.0707.0707,0,0,0,.0238-.0143c-.0044.0051-.0081.0056,0,.0069a.4432.4432,0,0,0,.15.0314l.0329.0078c.1578.0806.1328.1566.0749.2a.43.43,0,0,1-.1241.0865.9689.9689,0,0,1-.2091.0692,2.5179,2.5179,0,0,1-.3838.0506,3.6106,3.6106,0,0,1-.3782.0042,1.6972,1.6972,0,0,1-.2008-.0193.4924.4924,0,0,1-.066-.0154.2989.2989,0,0,1-.0551-.0232.1981.1981,0,0,1-.0695-.0684.1868.1868,0,0,1-.0221-.1189.1675.1675,0,0,1,.0275-.0688L16.93,35.83l.0119-.0117.0243-.0231a1.9592,1.9592,0,0,0,.258-1.2569c-.0344-.94-.2121-1.8871-.2975-2.8518-.0222-.2371-.0247-.4979-.0236-.7246a1.61,1.61,0,0,0-.0389-.3346.3335.3335,0,0,0-.0525-.1227c-.0192-.01.0184-.0171-.0235.0075a2.4488,2.4488,0,0,0-.1483,1.343,17.926,17.926,0,0,1-.0712,2.8864,2.6048,2.6048,0,0,1-.0808.3591.989.989,0,0,1-.0663.1766.2768.2768,0,0,1-.1377.1693,1.52,1.52,0,0,1-.7523.0881.8936.8936,0,0,1-.3843-.1152.2513.2513,0,0,1-.12-.247.66.66,0,0,1,.0942-.1986,1.9145,1.9145,0,0,0,.2113-.639,9.52,9.52,0,0,0-.1049-2.8233c-.0778-.9668-.1559-1.911-.1513-2.89a8.5082,8.5082,0,0,1,.1924-1.44c.0538-.2359.1164-.47.19-.7.0369-.1149.0751-.23.12-.3419l.07-.1674.0387-.0825c.027-.0161-.0019-.0792.08-.0574Z"/><path class="cls-1" d="M18.0964,26.11a1.4961,1.4961,0,0,1,.3751.69,3.8786,3.8786,0,0,1,.16.7728,1.5559,1.5559,0,0,1-.0067.4183.3548.3548,0,0,1-.1487.2476.2164.2164,0,0,1-.2268,0,.5987.5987,0,0,1-.0969-.0842,4.97,4.97,0,0,1-.4719-.6439c-.0707-.1116-.1384-.2192-.2045-.345-.0614-.1365-.0955-.2351-.1551-.3474-.1-.2058-.2774-.437-.3988-.4215a.1619.1619,0,0,0-.1495.1309.8219.8219,0,0,0,.0093.3351,2.7188,2.7188,0,0,0,.2482.706l.0022.0039.0006.0017a5.596,5.596,0,0,0,.5983,1.0417,1.1081,1.1081,0,0,0,.9916.4547.5106.5106,0,0,0,.4233-.2417,3.1385,3.1385,0,0,0,.1349-.5534l.1833-1.18-.001.0171a5.3511,5.3511,0,0,0,.0217-.8167,2.4486,2.4486,0,0,0-.1728-.7735,1.6309,1.6309,0,0,0-.4638-.6337c-.2-.1861-.47-.2578-.6988-.4433l.0263-.0212c.2158.1411.5128.1979.7433.37a1.6361,1.6361,0,0,1,.563.6495,2.6613,2.6613,0,0,1,.2472.8262c.0459.2919.0431.5613.0656.8431l0,.0024-.0012.0149a5.8145,5.8145,0,0,1-.2066,1.2165,2.12,2.12,0,0,1-.2494.5941.7144.7144,0,0,1-.6032.3068,1.3156,1.3156,0,0,1-1.0992-.5657,10.5085,10.5085,0,0,1-.6194-1.0564l.0026.0053a3.8159,3.8159,0,0,1-.3331-.72,1.0185,1.0185,0,0,1-.0533-.4284.4193.4193,0,0,1,.3647-.3651.5508.5508,0,0,1,.4488.2141,1.76,1.76,0,0,1,.2384.3469,6.8573,6.8573,0,0,0,.3431.6792,4.8027,4.8027,0,0,0,.4183.6149.4827.4827,0,0,0,.0453.0454c-.0417-.0174-.0347-.005-.0438-.0037a.2454.2454,0,0,0,.0346-.08,1.3452,1.3452,0,0,0,.0331-.35,4.441,4.441,0,0,0-.085-.7487,1.6106,1.6106,0,0,0-.253-.6979Z"/><path class="cls-3" d="M41.2979,14.6124a10.8346,10.8346,0,0,1,.5221,1.6828c.0274.1193.2927-.1861.318-.0578.0125.0632.2105.5025.16.68-.0459.1606-.3409.0607-.331.1212a10.4725,10.4725,0,0,1,.1365,1.374c.0636,2.0771-2.2255-1.6107-2.2255-1.6107Z"/><path class="cls-1" d="M40.81,11.37a.9918.9918,0,0,0-.9339-.3214,1.3361,1.3361,0,0,0-.6777.6445l.0079-.0259a1.7608,1.7608,0,0,0,.0237,1.1149,1.0675,1.0675,0,0,0,.7709.6631L39.98,13.44a1.02,1.02,0,0,0,.3941-.064.7336.7336,0,0,0,.3-.2186,1.4242,1.4242,0,0,0,.2219-.784l.0015-.0323a1.7234,1.7234,0,0,0,.0844-.5023A.5948.5948,0,0,0,40.81,11.37Zm.0233-.0246a.9215.9215,0,0,1,.2587.48,2.15,2.15,0,0,1,.062.5614l.0017-.032a1.5746,1.5746,0,0,1,.0151.5166,1.1343,1.1343,0,0,1-.214.5128.9379.9379,0,0,1-.4722.3162,1.3217,1.3217,0,0,1-.5453.0449l-.0149-.0017-.0069-.0028a1.2382,1.2382,0,0,1-.5362-.3618,1.5517,1.5517,0,0,1-.2692-.5579,3.02,3.02,0,0,1-.0979-.5891,3.8553,3.8553,0,0,1-.0242-.6036l0-.005.0078-.0212a1.5277,1.5277,0,0,1,.2821-.5181.8131.8131,0,0,1,.5592-.2893.9653.9653,0,0,1,.5714.1847A2.9452,2.9452,0,0,1,40.8337,11.345Z"/><path class="cls-1" d="M38.8616,24.8138a3.29,3.29,0,0,1-.1988-1.56,4.748,4.748,0,0,0-.0411-1.5653,8.4131,8.4131,0,0,1-.02-1.5643,11.1447,11.1447,0,0,0-.0533-1.5166l-.0037-.0121-.1758-.9246c-.0515-.3111-.1118-.6144-.1348-.9373l.0339.0015c.0756.2951.1767.5983.2637.8972l.2654.901-.0035-.0119a10.03,10.03,0,0,1,.1118,1.6021,9.1664,9.1664,0,0,1-.0123,1.563,4.2838,4.2838,0,0,0,.0052,1.5614,6.08,6.08,0,0,1-.0035,1.5583Z"/><path class="cls-1" d="M41.3859,14.8617c.0815-.0218.0524.0413.0793.0574l.0388.0823.07.1674c.0442.1126.0825.2271.1194.3421.0735.23.136.4637.19.7a8.4906,8.4906,0,0,1,.1924,1.44c.0046.979-.0735,1.9231-.1514,2.89a9.5232,9.5232,0,0,0-.1048,2.8233,1.9175,1.9175,0,0,0,.2113.639.661.661,0,0,1,.0942.1986.2512.2512,0,0,1-.12.2469.8922.8922,0,0,1-.3844.1154,1.5215,1.5215,0,0,1-.7521-.088.2763.2763,0,0,1-.1378-.1693,1.008,1.008,0,0,1-.0664-.1766,2.5765,2.5765,0,0,1-.0806-.3592,17.89,17.89,0,0,1-.0712-2.8863,2.452,2.452,0,0,0-.1484-1.3431c-.0419-.0246-.0045-.0178-.0235-.0076a.3317.3317,0,0,0-.0525.1228,1.6021,1.6021,0,0,0-.0389.3346c.0012.2267-.0015.4874-.0237.7245-.0852.9646-.2629,1.9119-.2974,2.8518a1.959,1.959,0,0,0,.258,1.257l.0242.023.0119.0118.0452.05a.17.17,0,0,1,.0278.0683.1882.1882,0,0,1-.0215.1192.198.198,0,0,1-.07.0691.2969.2969,0,0,1-.0551.0234.5246.5246,0,0,1-.0659.0154,1.7181,1.7181,0,0,1-.2009.0193,3.5809,3.5809,0,0,1-.3781-.0043,2.5047,2.5047,0,0,1-.384-.0506.9675.9675,0,0,1-.209-.0691.434.434,0,0,1-.124-.0864c-.0575-.0423-.0833-.12.0748-.2l.033-.0077a.4375.4375,0,0,0,.15-.0315c.0075-.0015.0038-.002,0-.0069a.0722.0722,0,0,0,.0237.0144.6343.6343,0,0,0,.1316.0441,2.1868,2.1868,0,0,0,.3284.0474,3.2945,3.2945,0,0,0,.3409.0086,1.4069,1.4069,0,0,0,.1575-.0122l.0217-.0042c.0056-.0013-.0082.0023-.0133.007a.1337.1337,0,0,0-.0535.0542.1557.1557,0,0,0-.0192.1083.158.158,0,0,0,.0225.0588c.0348.044.0307.031.0242.0277l-.01-.01-.02-.02-.04-.04a2.1978,2.1978,0,0,1-.3252-1.4963c.0452-.9805.2721-1.9191.38-2.8632.03-.24.0371-.46.0481-.7124a1.7869,1.7869,0,0,1,.0616-.3767.4857.4857,0,0,1,.1041-.1976.1866.1866,0,0,1,.157-.0594.2167.2167,0,0,1,.129.0746,2.5588,2.5588,0,0,1,.1424,1.468,13.6922,13.6922,0,0,0,.0705,2.86,2.4575,2.4575,0,0,0,.083.3409c.0382.0976.0761.2452.1429.26a1.4015,1.4015,0,0,0,.6654.0394.7359.7359,0,0,0,.2963-.0993c.0576-.06.0434-.034-.04-.1727a2.1253,2.1253,0,0,1-.2782-.705,7.8168,7.8168,0,0,1,.06-2.9029c.0995-.9432.1752-1.915.2249-2.8531a9.7444,9.7444,0,0,0-.44-2.7946Z"/><polygon class="cls-3" points="49.193 15.34 47.83 15.055 46.585 14.568 46.879 15.46 47.491 15.776 48.331 15.993 49.193 15.34"/><path class="cls-1" d="M51.0182,14.598a.1442.1442,0,0,1,.0457.1979.51.51,0,0,1-.1355.1549,1.4921,1.4921,0,0,1-.3485.1933,3.0548,3.0548,0,0,1-.7658.19,6.0454,6.0454,0,0,1-1.5694-.0394,2.3013,2.3013,0,0,1-.4133-.09l-.3471-.1863a3.802,3.802,0,0,0-.6706-.2885.4857.4857,0,0,0-.2835-.0048c-.0647.0162-.0836.0517-.0543.1643a1.2123,1.2123,0,0,0,.4652.54,2.7308,2.7308,0,0,0,1.4279.4534c.51.0415,1.02.0749,1.5259.0684a4.5421,4.5421,0,0,0,1.4521-.21.889.889,0,0,0,.48-.4357,1.1707,1.1707,0,0,0,.201-.6288l-.0037-.0238a3.5347,3.5347,0,0,0-.08-.6483,1.9088,1.9088,0,0,0-.2418-.5969,1.5961,1.5961,0,0,0-.4475-.4668c-.1764-.1371-.3978-.194-.5816-.3539l.0265-.0212c.1716.1212.4123.1667.6095.2876a1.5926,1.5926,0,0,1,.53.46,2.6334,2.6334,0,0,1,.4429,1.3248l-.0036-.0235a1.3652,1.3652,0,0,1-.1785.8434,1.6213,1.6213,0,0,1-.2409.3607,1.2669,1.2669,0,0,1-.3759.24,3.8252,3.8252,0,0,1-1.59.2235,9.3422,9.3422,0,0,1-1.5557-.1751,4.9112,4.9112,0,0,1-1.4614-.5793,1.6815,1.6815,0,0,1-.5987-.5553.4221.4221,0,0,1-.0485-.256.3277.3277,0,0,1,.1783-.2382.7071.7071,0,0,1,.4734-.0349,2.4871,2.4871,0,0,1,.7425.3278l.325.1962a2.5773,2.5773,0,0,0,.34.0762,5.84,5.84,0,0,0,1.5106.12,3.28,3.28,0,0,0,.7449-.1232,1.4038,1.4038,0,0,0,.34-.1525c.0939-.0582.2207-.18.1154-.2633Z"/><path class="cls-2" d="M39.664,12.6607a1.1713,1.1713,0,0,1-.8378-.657l.1629-.0477a.9944.9944,0,0,0,.7134.5391Z"/><path class="cls-2" d="M40.5628,13.25a1.4277,1.4277,0,0,1-1.0955-.455l.1192-.1206a1.3288,1.3288,0,0,0,1.24.39l.02.1683A2.4259,2.4259,0,0,1,40.5628,13.25Z"/><path class="cls-2" d="M39.8331,12.5064a.356.356,0,1,1-.3563-.355A.3556.3556,0,0,1,39.8331,12.5064Z"/><path class="cls-2" d="M41.3784,13.1138a.1925.1925,0,0,1-.1736.2073h-.4424a.193.193,0,0,1-.1749-.2073h0a.1922.1922,0,0,1,.1749-.2073h.4424a.1917.1917,0,0,1,.1736.2073Z"/><polygon class="cls-3" points="41.482 16.35 41.651 17.136 42.18 17.036 42.028 16.295 41.482 16.35"/><path class="cls-1" d="M39.0757,15.7566c-.1053.0838.0217.2051.1156.2633a1.4,1.4,0,0,0,.34.1525,3.2723,3.2723,0,0,0,.7448.1231,5.8336,5.8336,0,0,0,1.5108-.12,2.5714,2.5714,0,0,0,.34-.0763l.325-.1961a2.4883,2.4883,0,0,1,.7427-.3278.7066.7066,0,0,1,.4732.0349.3284.3284,0,0,1,.1785.2382.4237.4237,0,0,1-.0485.256,1.6847,1.6847,0,0,1-.5987.5553,4.9134,4.9134,0,0,1-1.4616.5793,9.341,9.341,0,0,1-1.5555.1751,3.8263,3.8263,0,0,1-1.59-.2234,1.27,1.27,0,0,1-.3759-.2405,1.6076,1.6076,0,0,1-.2409-.3607,1.3658,1.3658,0,0,1-.1787-.8434l-.0036.0235a2.6317,2.6317,0,0,1,.4431-1.3248,1.5934,1.5934,0,0,1,.53-.46c.1971-.1209.438-.1663.6094-.2876l.0265.0212c-.1838.16-.4051.2168-.5816.3539a1.5936,1.5936,0,0,0-.4474.4669,1.91,1.91,0,0,0-.2419.5968,3.5609,3.5609,0,0,0-.08.6483l-.0037.0238a1.1711,1.1711,0,0,0,.2012.6288.8886.8886,0,0,0,.4794.4357,4.5425,4.5425,0,0,0,1.4523.21c.5058.0065,1.0155-.0269,1.5257-.0684a2.7314,2.7314,0,0,0,1.4281-.4534,1.2106,1.2106,0,0,0,.465-.5405c.0294-.1126.01-.1481-.0542-.1643a.4857.4857,0,0,0-.2835.0048,3.82,3.82,0,0,0-.6707.2885l-.3469.1863a2.3155,2.3155,0,0,1-.4135.09,6.0451,6.0451,0,0,1-1.5694.0394,3.049,3.049,0,0,1-.7656-.19,1.4928,1.4928,0,0,1-.3486-.1933.5058.5058,0,0,1-.1354-.1549.144.144,0,0,1,.0455-.1979Z"/><polygon class="cls-3" points="46.901 36.004 46.79 40.759 46.681 40.794 46.681 41.294 47.771 41.123 47.803 35.951 46.901 36.004"/><path class="cls-2" d="M47.4328,40.95l-4.29.1075c-1.4534.0182-2.9168.0414-4.3772.022l-.1432-.0019.0016-.14c.0179-1.4927.0757-2.9853.0821-4.4779.0192-1.4927-.0059-2.9853-.0334-4.478l-.0017-.0914.0946-.0015q4.3274-.07,8.6551-.0872l.181-.0007-.0008.1808c-.0075,1.5119-.0043,3.0351-.0522,4.5309C47.5113,38.0094,47.485,39.5048,47.4328,40.95Zm-.024-.024-.1159-4.519c-.0478-1.4894-.0447-2.9515-.0521-4.425l.18.18q-4.3276-.0166-8.6551-.0871l.0927-.0928c-.0275,1.4927-.0526,2.9853-.0334,4.478.0064,1.4926.0642,2.9852.0821,4.4779l-.1414-.1414c1.4245-.02,2.8462.0038,4.278.0218Z"/></g></g></g></svg>