<svg xmlns="http://www.w3.org/2000/svg" viewBox="0 0 68.8628 85.2918"><defs><style>.cls-1{fill:#575756;}.cls-2{fill:#0087b9;}</style></defs><title>Element 5</title><g id="Ebene_2" data-name="Ebene 2"><g id="Ebene_1-2" data-name="Ebene 1"><g id="Illustrationen"><path class="cls-1" d="M8.1044,7.6775a4.2029,4.2029,0,0,1,1.862-.2484c.31.0419.6208.1514.9311.1723a3.4519,3.4519,0,0,0,.9309-.0757,8.8521,8.8521,0,0,1,1.8621-.176,6.5031,6.5031,0,0,1,1.862.3278v.0678a6.5031,6.5031,0,0,1-1.862.3278,8.8587,8.8587,0,0,1-1.8621-.176,3.452,3.452,0,0,0-.9309-.0758c-.31.0209-.6208.1305-.9311.1723a4.2028,4.2028,0,0,1-1.862-.2483Z"/><path class="cls-1" d="M8.6065,11.8618a1.286,1.286,0,0,1,.9834-.2484,4.5674,4.5674,0,0,0,.4916.1723.998.998,0,0,0,.4916-.0757,2.5706,2.5706,0,0,1,.9834-.176,2.048,2.048,0,0,1,.9832.3278V11.93a2.048,2.048,0,0,1-.9832.3278,2.5725,2.5725,0,0,1-.9834-.176.9981.9981,0,0,0-.4916-.0758,4.5892,4.5892,0,0,0-.4916.1723,1.2859,1.2859,0,0,1-.9834-.2483Z"/><path class="cls-1" d="M8.1044,33.4767a4.2029,4.2029,0,0,1,1.862-.2484c.31.0419.6208.1514.9311.1723a3.4519,3.4519,0,0,0,.9309-.0757,8.8521,8.8521,0,0,1,1.8621-.176,6.5031,6.5031,0,0,1,1.862.3278v.0678a6.5066,6.5066,0,0,1-1.862.3278,8.8522,8.8522,0,0,1-1.8621-.1761,3.4559,3.4559,0,0,0-.9309-.0757c-.31.0209-.6208.13-.9311.1723a4.2028,4.2028,0,0,1-1.862-.2483Z"/><path class="cls-1" d="M8.6065,37.661a1.286,1.286,0,0,1,.9834-.2484,4.5674,4.5674,0,0,0,.4916.1723.998.998,0,0,0,.4916-.0757,2.5706,2.5706,0,0,1,.9834-.176,2.048,2.048,0,0,1,.9832.3278v.0678a2.049,2.049,0,0,1-.9832.3278,2.5707,2.5707,0,0,1-.9834-.1761.9991.9991,0,0,0-.4916-.0757,4.5892,4.5892,0,0,0-.4916.1723,1.2859,1.2859,0,0,1-.9834-.2483Z"/><path class="cls-1" d="M8.1044,20.3778a4.2028,4.2028,0,0,1,1.862-.2483c.31.0418.6208.1514.9311.1723a3.4559,3.4559,0,0,0,.9309-.0757,8.8522,8.8522,0,0,1,1.8621-.1761,6.5031,6.5031,0,0,1,1.862.3278v.0678a6.5031,6.5031,0,0,1-1.862.3278,8.8521,8.8521,0,0,1-1.8621-.176,3.4519,3.4519,0,0,0-.9309-.0757c-.31.0209-.6208.13-.9311.1723a4.2029,4.2029,0,0,1-1.862-.2484Z"/><path class="cls-1" d="M8.6065,24.5621a1.2859,1.2859,0,0,1,.9834-.2483,4.5892,4.5892,0,0,0,.4916.1723.9981.9981,0,0,0,.4916-.0758,2.5725,2.5725,0,0,1,.9834-.176,2.048,2.048,0,0,1,.9832.3278V24.63a2.048,2.048,0,0,1-.9832.3278,2.5706,2.5706,0,0,1-.9834-.176.998.998,0,0,0-.4916-.0757,4.5674,4.5674,0,0,0-.4916.1723,1.286,1.286,0,0,1-.9834-.2484Z"/><path class="cls-1" d="M37.4693,46.6169q-9.2931.1239-18.5863.1881L.2967,46.8792,0,46.88l0-.2975L.0121,35.0244.0883,23.4659l.08-11.5585C.172,8.0545.2119,4.2017.1821.3489L.1813.2349.2967.2343,34.4049.0616,51.459.0051,68.5132,0h.35l-.0009.3489-.0248,11.5585-.0719,11.5585c-.0546,7.7057-.0743,15.4113-.1828,23.117l-.001.07-.0682-.0008-3.0305-.0352v-.0678l3.0305-.0352-.069.069c-.1085-7.7057-.1282-15.4113-.1828-23.117L68.19,11.9074,68.1647.3489l.3485.3486L51.459.6925,34.4049.636.2967.4633.4111.3489c-.03,3.8528.01,7.7056.0138,11.5585l.08,11.5585L.5812,35.0244.5928,46.5829l-.2961-.2961,18.5863.0741q9.2932.0507,18.5863.1882Z"/><path class="cls-1" d="M19.51,15.016c-1.0291.0481-2.0741.1008-3.1435.1317-1.0658.0344-2.1371.08-3.228.0925-2.169.0476-4.3722.0763-6.5529-.0062l-.25-.0094.0078-.2326L6.43,12.4187c.0358-.8578.03-1.7156.0469-2.5733C6.492,8.9876,6.466,8.13,6.4627,7.2721L6.4,4.6988,6.3951,4.52l.19-.0065q3.2249-.11,6.45-.141c2.15-.0267,4.3-.056,6.45-.0223l.3517.0055-.0026.3436c-.0136,1.7578-.0732,3.51-.1186,5.2421Zm-.0481-.0479L19.2553,9.75c-.0454-1.699-.105-3.3779-.1186-5.0511l.349.3489c-2.15.0337-4.3.0043-6.45-.0223q-3.2252-.0285-6.45-.141l.1854-.1856L6.7077,7.2721c-.0033.8577-.0291,1.7155-.0139,2.5733.0171.8577.0111,1.7155.0469,2.5733l.0864,2.5733L6.5852,14.75c2.1193-.0825,4.2164-.0538,6.3475-.0062,1.0592.0123,2.1381.0582,3.2222.0925C17.2356,14.8674,18.3406,14.92,19.4617,14.9681Z"/><path class="cls-2" d="M53.8939,46.0785a23.4942,23.4942,0,0,1-3.7834,2.0567,17.3194,17.3194,0,0,1-4.1428,1.2657,7.6128,7.6128,0,0,1-4.304-.4355,4.9408,4.9408,0,0,1-.94-.5618,4.5615,4.5615,0,0,1-.7472-.8029,6.2433,6.2433,0,0,1-.559-.946,7.2934,7.2934,0,0,1-.35-1.0407,10.8588,10.8588,0,0,1-.1271-4.35,16.196,16.196,0,0,1,1.218-4.1838,8.483,8.483,0,0,1,2.6659-3.49,5.317,5.317,0,0,1,2.0358-.8722,6.0292,6.0292,0,0,1,2.1714-.011l-.0067.0675a5.8331,5.8331,0,0,0-3.8806,1.2386,8.6352,8.6352,0,0,0-2.324,3.3591A18.7258,18.7258,0,0,0,39.57,41.3692a12.324,12.324,0,0,0-.1395,4.1651,4.5431,4.5431,0,0,0,.7409,1.9283,4.338,4.338,0,0,0,.6853.7789,3.94,3.94,0,0,0,.8975.5232,6.8555,6.8555,0,0,0,4.1145.0805A40.65,40.65,0,0,0,53.86,46.02Z"/><path class="cls-2" d="M55.75,33.0656a8.7794,8.7794,0,0,1,2.35.2976,7.1235,7.1235,0,0,1,2.2095.96,4.5036,4.5036,0,0,1,1.6181,1.863,18.1549,18.1549,0,0,1,.8438,2.21,17.1406,17.1406,0,0,1,.1348,9.355l.0086-.0409a4.8161,4.8161,0,0,1-2.1851,3.3131,6.5875,6.5875,0,0,1-3.8718.8725,14.7809,14.7809,0,0,1-3.8052-.8249c-.5973-.2453-1.2156-.4324-1.7888-.724-.5762-.2847-1.1518-.5664-1.7173-.863l.0285-.0615c1.2149.4044,2.3973.8638,3.625,1.1672a17.1621,17.1621,0,0,0,1.8356.415,6.337,6.337,0,0,0,.9254.1144c.3087.02.617.0813.9238.0768a6.7329,6.7329,0,0,0,3.4883-.7513,4.43,4.43,0,0,0,2.0306-2.8l.0088-.0411a14.2468,14.2468,0,0,0,.8641-4.539,11.163,11.163,0,0,0-.969-4.5023c-.2972-.7114-.6164-1.4194-.9342-2.1249a4.2677,4.2677,0,0,0-1.3813-1.6686,10.1035,10.1035,0,0,0-4.2457-1.6354Z"/><path class="cls-2" d="M55.2183,43.45c.8544.3081,1.6248.6452,2.4113.9859.39.1728.7806.3477,1.1719.5315a11.2079,11.2079,0,0,1,1.1744.618,5.88,5.88,0,0,1-2.6191-.529,6.7276,6.7276,0,0,1-1.1666-.6652A3.9952,3.9952,0,0,1,55.2183,43.45Z"/><path class="cls-2" d="M57.8219,43.3662a7.7262,7.7262,0,0,0-1.13-1.9142A3.3553,3.3553,0,0,0,54.9729,40.3c-1.3573-.3483-2.6792.6215-4.081,1.1675a33.098,33.098,0,0,0-4.0326,2.0772,3.6193,3.6193,0,0,1-1.06.5208.9136.9136,0,0,1-.7019-.0522.7772.7772,0,0,1-.31-.6861,4.687,4.687,0,0,0,.017-.54.3839.3839,0,0,0-.1449-.2961,1.1043,1.1043,0,0,0-.8256.0259l-.2407.0841-.1189-.2057a1.482,1.482,0,0,1-.2815-1.0788.8086.8086,0,0,1,.4587-.5463,1.77,1.77,0,0,1,.5182-.1255.319.319,0,0,0,.1015-.0272.1271.1271,0,0,0-.048.0476.2166.2166,0,0,0-.0361.1424c.0322.0748-.0616-.0752-.15-.1349a4.6837,4.6837,0,0,0-.6615-.4567l-.2507-.1457.0812-.2662a3.5623,3.5623,0,0,1,.3811-.8691,1.77,1.77,0,0,1,.765-.7251,1.06,1.06,0,0,1,.6138-.0686,1.5338,1.5338,0,0,1,.487.2051l.7387.4143c.2483.1391.5014.2605.7617.4305a2.2793,2.2793,0,0,1,.6489.67c.3234.49.5832.9916.8574,1.4966l-.0558.0386c-.3786-.4282-.74-.882-1.1013-1.3025a1.8225,1.8225,0,0,0-.6029-.4742c-.232-.1172-.5-.2274-.761-.343l-.7859-.3566c-.2646-.1321-.3706-.1394-.5234-.0766a2.0543,2.0543,0,0,0-.7259,1.1548l-.17-.4117a4.8929,4.8929,0,0,1,.78.55,1.9506,1.9506,0,0,1,.1892.1982.7621.7621,0,0,1,.1764.3627.5007.5007,0,0,1-.0759.3529.5586.5586,0,0,1-.2174.1839.98.98,0,0,1-.321.0881c-.3267.02-.4264.0816-.4388.1487a.9394.9394,0,0,0,.1646.5816l-.3595-.1215a2.1443,2.1443,0,0,1,.6537-.0988,1.145,1.145,0,0,1,.712.22,1.2719,1.2719,0,0,1,.256,1.29.38.38,0,0,0,.072.3291.5434.5434,0,0,0,.4.0447,3.3338,3.3338,0,0,0,1.0057-.398c1.3423-.7091,2.6764-1.4234,3.9767-2.2105.6658-.3786,1.2937-.766,2.0057-1.11a3.5351,3.5351,0,0,1,2.4062-.25,3.491,3.491,0,0,1,1.8888,1.4662,5.7946,5.7946,0,0,1,.8791,2.1348Z"/><path class="cls-2" d="M48.2441,23.7486a9.34,9.34,0,0,1,1.9208-1.5463,4.1282,4.1282,0,0,1,2.4483-.6327,3.5515,3.5515,0,0,1,2.2706,1.2339,8.4975,8.4975,0,0,1,.7521,1.0367l.5366,1.139.0136.0288.0026.0234a14.636,14.636,0,0,1,.0207,2.6442,10.9825,10.9825,0,0,1-.4454,2.593,6.4827,6.4827,0,0,1-1.2579,2.35,5.4489,5.4489,0,0,1-2.3028,1.4435l-.0173.0062-.026.0027a5.5188,5.5188,0,0,1-2.251-.2243,3.9205,3.9205,0,0,1-1.899-1.2933,4.8438,4.8438,0,0,1-.8925-2.0938c-.0666-.3684-.0689-.7417-.1-1.11l.0742-1.0953.0032.0642a9.1673,9.1673,0,0,1,.0975-2.4377A3.6106,3.6106,0,0,1,48.2441,23.7486Zm.0469.049a2.97,2.97,0,0,0-.8775,2.1122,8.2868,8.2868,0,0,0,.1956,2.3191l.0015.0069.0018.0576.031,1.0332c.0478.3357.0778.6761.145,1.0027a4.5,4.5,0,0,0,.788,1.7723A3.5071,3.5071,0,0,0,50.1316,33.2a4.9142,4.9142,0,0,0,1.9484.2624l-.0432.0088a5.367,5.367,0,0,0,2.1486-1.1638A5.7047,5.7047,0,0,0,55.5282,30.19a9.618,9.618,0,0,0,.228-5.0815l.0161.0519-.6062-1.0322c-.2464-.304-.4593-.6411-.7261-.9157a3.54,3.54,0,0,0-1.9-1.1359,3.72,3.72,0,0,0-2.2749.32A6.21,6.21,0,0,0,48.291,23.7976Z"/><path class="cls-2" d="M56.9253,83.915c.0581-1.1614-.0183-2.3225-.0229-3.4858-.0387-1.1629.0325-2.3279.1065-3.496a63.6167,63.6167,0,0,0-.3719-6.9927,53.4439,53.4439,0,0,1-.0027-7.03,39.3863,39.3863,0,0,1,.9983-6.9827l-.0046.12a4.312,4.312,0,0,1-.0224-.608c.0035-.1974.0144-.3933.0293-.5881a8.4512,8.4512,0,0,1,.1845-1.1528l.0676.006c.0213.386.0453.7679.0826,1.1456a7.7844,7.7844,0,0,0,.1687,1.0972l.0119.05-.0165.0694a38.9588,38.9588,0,0,0-.9169,6.8768c-.0559,1.1564-.099,2.3274-.048,3.4758.08,1.16.1353,2.3283.1353,3.4964.0823,2.3358-.2088,4.6806.04,7.0117a22.9767,22.9767,0,0,1,.14,3.509c-.02.5857-.0616,1.1723-.135,1.7572a7.7838,7.7838,0,0,1-.3575,1.7372Z"/><path class="cls-2" d="M43.2311,50.6267c.0651,1.0034.0944,1.995.1669,2.9753l.2032,2.9846c.1357,1.9893.2783,3.9786.4557,5.9625.0875.9919.1859,1.9828.3078,2.9659.0612.4986.1357.9621.227,1.467.0833.5024.1462,1.0014.196,1.5019a56.48,56.48,0,0,1,.2456,6.011,31.5224,31.5224,0,0,1-.5711,6,8.9149,8.9149,0,0,1-1.0551,2.87,1.7457,1.7457,0,0,0-.326.5737.46.46,0,0,0,.2214.4541,3.1355,3.1355,0,0,0,1.31.4667,7.3,7.3,0,0,0,2.9-.0846,1.3247,1.3247,0,0,0,.5885-.3006,3.34,3.34,0,0,0,.3009-.6312,9.0045,9.0045,0,0,0,.3934-1.42,38.7738,38.7738,0,0,0,.5681-5.9321c.12-3.9854-.0386-7.9737-.2071-11.96a11.9233,11.9233,0,0,1,.1084-3.0187,3.6806,3.6806,0,0,1,.5643-1.4572,1.0006,1.0006,0,0,1,.3482-.2938.551.551,0,0,1,.5271.0342,1.4109,1.4109,0,0,1,.4823.7093,10.1478,10.1478,0,0,1,.3557,3.022A29.5045,29.5045,0,0,0,51.83,66.48c.5347,3.9377,1.4768,7.838,1.6758,11.8775a15.2431,15.2431,0,0,1-.1366,3.0509,5.1148,5.1148,0,0,1-1.3029,2.869l-.1542.1405c-.0278.0224.009.0019.0419-.0539a.3007.3007,0,0,0,.0194-.2474c-.06-.1172-.0689-.09-.0672-.0973a1.33,1.33,0,0,0,.2563.0924,6.4186,6.4186,0,0,0,.6936.141,12.372,12.372,0,0,0,1.448.1323,7.9773,7.9773,0,0,0,1.4273-.0658,2.4376,2.4376,0,0,0,.6246-.1695.6005.6005,0,0,0,.1909-.1275c.0226-.0322-.0028.0032.0507-.0344a1.5216,1.5216,0,0,1,.3279-.0731l.066.0158a.4583.4583,0,0,1,.2231.2858.437.437,0,0,1-.14.2839,1.2873,1.2873,0,0,1-.4212.2935,3.1,3.1,0,0,1-.8152.2217,8.6315,8.6315,0,0,1-1.5586.0636,13.0326,13.0326,0,0,1-1.53-.15,7.0412,7.0412,0,0,1-.7706-.1629,1.7339,1.7339,0,0,1-.4393-.1775.4711.4711,0,0,1-.1969-.2277.3945.3945,0,0,1,.0267-.3365.4987.4987,0,0,1,.1054-.1218l.1232-.1107A4.4807,4.4807,0,0,0,52.7243,81.3a14.6567,14.6567,0,0,0,.1485-2.918c-.1749-3.9478-1.0475-7.8642-1.5451-11.8361a30.0341,30.0341,0,0,1-.2366-3.0069,9.9843,9.9843,0,0,0-.2652-2.9067,1.1,1.1,0,0,0-.3168-.5272c-.1094-.0874-.26-.006-.4052.1679a3.3941,3.3941,0,0,0-.5259,1.3047A8.5845,8.5845,0,0,0,49.4,63.0344c-.0083.4869.0109.99.0235,1.487.1379,3.9874.2629,7.9816.1533,11.9763a38.9692,38.9692,0,0,1-.5309,5.9763,9.2557,9.2557,0,0,1-.395,1.4634,3.405,3.405,0,0,1-.3421.7145,1.558,1.558,0,0,1-.7129.4005,7.5944,7.5944,0,0,1-3.0391.1579,3.45,3.45,0,0,1-1.49-.51.8606.8606,0,0,1-.3846-.8264,1.99,1.99,0,0,1,.371-.7356,8.5148,8.5148,0,0,0,.939-2.74,34.3352,34.3352,0,0,0,.47-5.9094,55.947,55.947,0,0,0-.28-5.9436c-.0512-.4919-.1052-.9842-.1825-1.4666-.0828-.4775-.1628-1-.2186-1.4921-.1152-.9981-.2058-1.9939-.2856-2.99-.1616-1.9924-.288-3.985-.4077-5.978l-.1541-2.9908c-.0095-.253-.0278-.49-.029-.7565l.0541-.7557q.0669-.75.2049-1.4934Z"/><path class="cls-1" d="M19.51,40.8152c-1.0291.0481-2.0741.1007-3.1435.1317-1.0658.0343-2.1371.08-3.228.0925-2.169.0476-4.3722.0763-6.5529-.0062l-.25-.0094.0078-.2326L6.43,38.2179c.0358-.8578.03-1.7156.0469-2.5733.0154-.8578-.0106-1.7156-.0139-2.5733L6.4,30.4979l-.0045-.1792.19-.0065q3.2249-.11,6.45-.1411c2.15-.0266,4.3-.0559,6.45-.0222l.3517.0055-.0026.3435c-.0136,1.7579-.0732,3.51-.1186,5.2422Zm-.0481-.0479-.2064-5.2182c-.0454-1.699-.105-3.3779-.1186-5.0512l.349.349c-2.15.0337-4.3.0043-6.45-.0223q-3.2252-.0285-6.45-.1411l.1854-.1856-.0631,2.5734c-.0033.8577-.0291,1.7155-.0139,2.5733.0171.8577.0111,1.7155.0469,2.5733l.0864,2.5733-.2419-.2419c2.1193-.0825,4.2164-.0538,6.3475-.0062,1.0592.0123,2.1381.0581,3.2222.0925C17.2356,40.6666,18.3406,40.7192,19.4617,40.7673Z"/><path class="cls-1" d="M19.51,27.7164c-1.0291.048-2.0741.1007-3.1435.1316-1.0658.0344-2.1371.08-3.228.0926-2.169.0475-4.3722.0763-6.5529-.0062l-.25-.0095.0078-.2326L6.43,25.119c.0358-.8577.03-1.7155.0469-2.5733.0154-.8578-.0106-1.7155-.0139-2.5733L6.4,17.3991,6.3951,17.22l.19-.0064q3.2249-.11,6.45-.1411c2.15-.0266,4.3-.056,6.45-.0223l.3517.0055-.0026.3436c-.0136,1.7578-.0732,3.51-.1186,5.2421Zm-.0481-.048L19.2553,22.45c-.0454-1.699-.105-3.3779-.1186-5.0512l.349.3489c-2.15.0337-4.3.0044-6.45-.0223q-3.2252-.0285-6.45-.141l.1854-.1856-.0631,2.5733c-.0033.8578-.0291,1.7155-.0139,2.5733.0171.8578.0111,1.7156.0469,2.5733l.0864,2.5733L6.5852,27.45c2.1193-.0825,4.2164-.0538,6.3475-.0062,1.0592.0123,2.1381.0582,3.2222.0926C17.2356,27.5677,18.3406,27.62,19.4617,27.6684Z"/><path class="cls-1" d="M34.28,15.016c-1.0289.0481-2.0741.1008-3.1434.1317-1.0659.0344-2.1372.08-3.228.0925-2.169.0476-4.3721.0763-6.553-.0062l-.25-.0094.0077-.2326L21.2,12.4187c.0357-.8578.03-1.7156.0468-2.5733s-.0106-1.7156-.0139-2.5733L21.17,4.6988,21.1656,4.52l.19-.0065q3.225-.11,6.45-.141c2.15-.0267,4.3-.056,6.45-.0223l.3517.0055-.0027.3436c-.0135,1.7578-.0731,3.51-.1185,5.2421Zm-.048-.0479L34.0257,9.75c-.0454-1.699-.105-3.3779-.1186-5.0511l.3491.3489c-2.15.0337-4.3.0043-6.45-.0223q-3.2252-.0285-6.45-.141l.1855-.1856-.0631,2.5733c-.0033.8577-.0291,1.7155-.0139,2.5733.017.8577.0111,1.7155.0468,2.5733l.0865,2.5733-.2418-.2419c2.1192-.0825,4.2163-.0538,6.3473-.0062,1.0592.0123,2.1382.0582,3.2222.0925C32.0061,14.8674,33.1112,14.92,34.2322,14.9681Z"/><path class="cls-1" d="M22.8749,7.6775a4.2029,4.2029,0,0,1,1.862-.2484c.31.0419.6207.1514.931.1723a3.454,3.454,0,0,0,.9311-.0757,8.8493,8.8493,0,0,1,1.862-.176,6.5024,6.5024,0,0,1,1.8619.3278v.0678a6.5024,6.5024,0,0,1-1.8619.3278,8.8559,8.8559,0,0,1-1.862-.176,3.4541,3.4541,0,0,0-.9311-.0758c-.31.0209-.6206.1305-.931.1723a4.2028,4.2028,0,0,1-1.862-.2483Z"/><path class="cls-1" d="M23.3769,11.8618a1.2862,1.2862,0,0,1,.9834-.2484,4.5674,4.5674,0,0,0,.4916.1723.9982.9982,0,0,0,.4917-.0757,2.57,2.57,0,0,1,.9833-.176,2.0483,2.0483,0,0,1,.9833.3278V11.93a2.0483,2.0483,0,0,1-.9833.3278,2.572,2.572,0,0,1-.9833-.176.9983.9983,0,0,0-.4917-.0758,4.5892,4.5892,0,0,0-.4916.1723,1.2861,1.2861,0,0,1-.9834-.2483Z"/><path class="cls-1" d="M34.28,40.8152c-1.0289.0481-2.0741.1007-3.1434.1317-1.0659.0343-2.1372.08-3.228.0925-2.169.0476-4.3721.0763-6.553-.0062l-.25-.0094.0077-.2326L21.2,38.2179c.0357-.8578.03-1.7156.0468-2.5733s-.0106-1.7156-.0139-2.5733L21.17,30.4979l-.0044-.1792.19-.0065q3.225-.11,6.45-.1411c2.15-.0266,4.3-.0559,6.45-.0222l.3517.0055-.0027.3435c-.0135,1.7579-.0731,3.51-.1185,5.2422Zm-.048-.0479-.2065-5.2182c-.0454-1.699-.105-3.3779-.1186-5.0512l.3491.349c-2.15.0337-4.3.0043-6.45-.0223q-3.2252-.0285-6.45-.1411l.1855-.1856-.0631,2.5734c-.0033.8577-.0291,1.7155-.0139,2.5733.017.8577.0111,1.7155.0468,2.5733l.0865,2.5733-.2418-.2419c2.1192-.0825,4.2163-.0538,6.3473-.0062,1.0592.0123,2.1382.0581,3.2222.0925C32.0061,40.6666,33.1112,40.7192,34.2322,40.7673Z"/><path class="cls-1" d="M22.8749,33.4767a4.2029,4.2029,0,0,1,1.862-.2484c.31.0419.6207.1514.931.1723a3.454,3.454,0,0,0,.9311-.0757,8.8493,8.8493,0,0,1,1.862-.176,6.5024,6.5024,0,0,1,1.8619.3278v.0678a6.5059,6.5059,0,0,1-1.8619.3278,8.8494,8.8494,0,0,1-1.862-.1761,3.4581,3.4581,0,0,0-.9311-.0757c-.31.0209-.6206.13-.931.1723a4.2028,4.2028,0,0,1-1.862-.2483Z"/><path class="cls-1" d="M23.3769,37.661a1.2862,1.2862,0,0,1,.9834-.2484,4.5674,4.5674,0,0,0,.4916.1723.9982.9982,0,0,0,.4917-.0757,2.57,2.57,0,0,1,.9833-.176,2.0483,2.0483,0,0,1,.9833.3278v.0678a2.0494,2.0494,0,0,1-.9833.3278,2.57,2.57,0,0,1-.9833-.1761.9994.9994,0,0,0-.4917-.0757,4.5892,4.5892,0,0,0-.4916.1723,1.2861,1.2861,0,0,1-.9834-.2483Z"/><path class="cls-1" d="M34.28,27.7164c-1.0289.048-2.0741.1007-3.1434.1316-1.0659.0344-2.1372.08-3.228.0926-2.169.0475-4.3721.0763-6.553-.0062l-.25-.0095.0077-.2326L21.2,25.119c.0357-.8577.03-1.7155.0468-2.5733s-.0106-1.7155-.0139-2.5733L21.17,17.3991l-.0044-.1793.19-.0064q3.225-.11,6.45-.1411c2.15-.0266,4.3-.056,6.45-.0223l.3517.0055-.0027.3436c-.0135,1.7578-.0731,3.51-.1185,5.2421Zm-.048-.048L34.0257,22.45c-.0454-1.699-.105-3.3779-.1186-5.0512l.3491.3489c-2.15.0337-4.3.0044-6.45-.0223q-3.2252-.0285-6.45-.141l.1855-.1856-.0631,2.5733c-.0033.8578-.0291,1.7155-.0139,2.5733.017.8578.0111,1.7156.0468,2.5733l.0865,2.5733-.2418-.2419c2.1192-.0825,4.2163-.0538,6.3473-.0062,1.0592.0123,2.1382.0582,3.2222.0926C32.0061,27.5677,33.1112,27.62,34.2322,27.6684Z"/><path class="cls-1" d="M22.8749,20.3778a4.2028,4.2028,0,0,1,1.862-.2483c.31.0418.6207.1514.931.1723a3.4581,3.4581,0,0,0,.9311-.0757,8.8494,8.8494,0,0,1,1.862-.1761,6.5024,6.5024,0,0,1,1.8619.3278v.0678a6.5024,6.5024,0,0,1-1.8619.3278,8.8493,8.8493,0,0,1-1.862-.176,3.454,3.454,0,0,0-.9311-.0757c-.31.0209-.6206.13-.931.1723a4.2029,4.2029,0,0,1-1.862-.2484Z"/><path class="cls-1" d="M23.3769,24.5621a1.2861,1.2861,0,0,1,.9834-.2483,4.5892,4.5892,0,0,0,.4916.1723.9983.9983,0,0,0,.4917-.0758,2.572,2.572,0,0,1,.9833-.176,2.0483,2.0483,0,0,1,.9833.3278V24.63a2.0483,2.0483,0,0,1-.9833.3278,2.57,2.57,0,0,1-.9833-.176.9982.9982,0,0,0-.4917-.0757,4.5674,4.5674,0,0,0-.4916.1723,1.2862,1.2862,0,0,1-.9834-.2484Z"/><path class="cls-1" d="M49.1248,15.016c-1.0289.0481-2.0741.1008-3.1432.1317-1.066.0344-2.1374.08-3.2282.0925-2.169.0476-4.3721.0763-6.5529-.0062l-.25-.0094.0078-.2326.0866-2.5733c.0356-.8578.03-1.7156.0468-2.5733.0153-.8578-.0107-1.7156-.014-2.5733l-.0631-2.5733L36.01,4.52l.19-.0065q3.225-.11,6.45-.141c2.15-.0267,4.3-.056,6.45-.0223l.3517.0055-.0026.3436c-.0136,1.7578-.0732,3.51-.1186,5.2421Zm-.048-.0479L48.87,9.75c-.0453-1.699-.1048-3.3779-.1184-5.0511l.3489.3489c-2.15.0337-4.3.0043-6.45-.0223q-3.225-.0285-6.45-.141l.1856-.1856-.0633,2.5733c-.0031.8577-.0291,1.7155-.0139,2.5733.0171.8577.0111,1.7155.0469,2.5733l.0866,2.5733-.2419-.2419c2.1193-.0825,4.2162-.0538,6.3474-.0062,1.0592.0123,2.138.0582,3.2221.0925C46.8507,14.8674,47.9558,14.92,49.0768,14.9681Z"/><path class="cls-1" d="M37.72,7.6775a4.2037,4.2037,0,0,1,1.8622-.2484c.31.0419.6206.1514.9309.1723a3.4526,3.4526,0,0,0,.931-.0757,8.8505,8.8505,0,0,1,1.862-.176,6.5031,6.5031,0,0,1,1.862.3278v.0678a6.5031,6.5031,0,0,1-1.862.3278,8.8571,8.8571,0,0,1-1.862-.176,3.4527,3.4527,0,0,0-.931-.0758c-.31.0209-.6206.1305-.9309.1723A4.2036,4.2036,0,0,1,37.72,7.7453Z"/><path class="cls-1" d="M38.2217,11.8618a1.2858,1.2858,0,0,1,.9833-.2484,4.569,4.569,0,0,0,.4917.1723.9983.9983,0,0,0,.4916-.0757,2.57,2.57,0,0,1,.9833-.176,2.049,2.049,0,0,1,.9834.3278V11.93a2.049,2.049,0,0,1-.9834.3278,2.572,2.572,0,0,1-.9833-.176.9984.9984,0,0,0-.4916-.0758,4.5908,4.5908,0,0,0-.4917.1723,1.2857,1.2857,0,0,1-.9833-.2483Z"/><path class="cls-1" d="M37.6364,40.8252q-.7181.1018-1.4359.1583l-.1764.0136-.016-.2059c-.0668-.8578-.1-1.7156-.1105-2.5733a25.3562,25.3562,0,0,1,.1227-2.5733,20.1593,20.1593,0,0,0,.0614-2.5733l-.1545-2.5734-.0153-.2571.2886-.0161c.7472-.0417,1.4943-.0508,2.2416-.0734.7473-.0249,1.4946-.0192,2.2418,0s1.4944.0627,2.2417.1013c.7473.0555,1.4945.1109,2.2416.2114v.0678c-.7471.1005-1.4943.1559-2.2416.2113-.7473.0386-1.4946.082-2.2417.1014s-1.4945.0249-2.2418,0c-.7473-.0226-1.4944-.0317-2.2416-.0734l.273-.2731-.1545,2.5734a20.196,20.196,0,0,0,.0613,2.5733,25.2985,25.2985,0,0,1,.1228,2.5733c-.0106.8577-.0438,1.7155-.11,2.5733l-.1922-.1922q.7181.0554,1.4359.1583Z"/><path class="cls-1" d="M37.72,33.4767a1.1692,1.1692,0,0,1,.9311-.2484,4.1718,4.1718,0,0,0,.4654.1723.9011.9011,0,0,0,.4657-.0757,2.3181,2.3181,0,0,1,.9309-.176,1.87,1.87,0,0,1,.931.3278v.0678a1.8712,1.8712,0,0,1-.931.3278,2.3183,2.3183,0,0,1-.9309-.1761.9021.9021,0,0,0-.4657-.0757,4.1917,4.1917,0,0,0-.4654.1723,1.1691,1.1691,0,0,1-.9311-.2483Z"/><path class="cls-1" d="M38.2217,37.661c.154-.2335.308-.3008.4622-.2484.077.0419.154.1514.231.1723a.2581.2581,0,0,0,.2311-.0757.6772.6772,0,0,1,.4621-.176.7175.7175,0,0,1,.4622.3278v.0678a.7179.7179,0,0,1-.4622.3278.6773.6773,0,0,1-.4621-.1761.2584.2584,0,0,0-.2311-.0757c-.077.0209-.154.13-.231.1723-.1542.0524-.3082-.0148-.4622-.2483Z"/><path class="cls-1" d="M45.1672,27.7263c-1.4943.1237-2.9889.1776-4.4833.227-1.4945.038-2.9891.0587-4.4834.0252l-.2939-.0066.0077-.28c.0479-1.7155.17-3.431.18-5.1466s-.0434-3.4311-.1193-5.1466l-.01-.2162.2352-.0093c2.15-.0846,4.3-.1045,6.45-.1351q1.6127-.011,3.2252.0178l3.225.0827.27.0069-.01.2532c-.0567,1.4586-.1174,2.9173-.2262,4.376h-.0679c-.1086-1.4587-.1694-2.9174-.226-4.376l.26.26-3.225.0828q-1.6128.0264-3.2252.0178c-2.15-.0307-4.3-.0506-6.45-.1352l.2253-.2253c-.0758,1.7155-.13,3.4311-.1192,5.1466s.132,3.4311.18,5.1466l-.2859-.286c1.4943-.0335,2.9889-.0128,4.4834.0252,1.4944.0494,2.989.1033,4.4833.227Z"/><path class="cls-1" d="M37.72,20.3778a4.2036,4.2036,0,0,1,1.8622-.2483c.31.0418.6206.1514.9309.1723a3.4567,3.4567,0,0,0,.931-.0757,8.8506,8.8506,0,0,1,1.862-.1761,6.5031,6.5031,0,0,1,1.862.3278v.0678a6.5031,6.5031,0,0,1-1.862.3278,8.8505,8.8505,0,0,1-1.862-.176,3.4526,3.4526,0,0,0-.931-.0757c-.31.0209-.6206.13-.9309.1723a4.2037,4.2037,0,0,1-1.8622-.2484Z"/><path class="cls-1" d="M38.2217,24.5621a1.2857,1.2857,0,0,1,.9833-.2483,4.5908,4.5908,0,0,0,.4917.1723.9984.9984,0,0,0,.4916-.0758,2.572,2.572,0,0,1,.9833-.176,2.049,2.049,0,0,1,.9834.3278V24.63a2.049,2.049,0,0,1-.9834.3278,2.57,2.57,0,0,1-.9833-.176.9983.9983,0,0,0-.4916-.0757,4.569,4.569,0,0,0-.4917.1723,1.2858,1.2858,0,0,1-.9833-.2484Z"/></g></g></g></svg>