<svg xmlns="http://www.w3.org/2000/svg" viewBox="0 0 81.8279 56.8375"><defs><style>.cls-1{fill:#575756;}.cls-2{fill:#0087b9;}.cls-3{fill:#fff;}</style></defs><title>Element 23</title><g id="Ebene_2" data-name="Ebene 2"><g id="Ebene_1-2" data-name="Ebene 1"><g id="Illustrationen"><path class="cls-1" d="M38.4227,56.5811c-3.0987.0771-6.2471.1255-9.4064.171l-9.5314.0854-4.7943-.014-4.7994-.07c-3.196-.06-6.3744-.0883-9.5523-.0913H.234l0-.1051q-.0091-4.3328-.08-8.6657L.15,47.7091l.1887-.0035c6.3433-.12,12.6866-.14,19.03-.1739l9.5149.0258,9.515.1136.2231.0026-.0028.2176C38.5789,50.837,38.4824,53.745,38.4227,56.5811Zm-.048-.048-.1962-8.6418.22.22-9.515.1136-9.5149.0258c-6.3433-.0335-12.6866-.0539-19.03-.1739l.1855-.1856q-.0715,4.3329-.08,8.6657l-.105-.105c3.1653-.003,6.33-.0316,9.4775-.0913l4.7156-.07,4.7206-.0139,9.4986.0854C31.9352,56.4076,35.13,56.456,38.3747,56.5331Z"/><path class="cls-1" d="M81.3205,56.5811c-3.0987.0771-6.2471.1255-9.4064.171l-9.5314.0854-4.7943-.014-4.7994-.07c-3.1961-.06-6.3744-.0883-9.5523-.0913h-.105l0-.1051q-.0091-4.3328-.0805-8.6657l-.0029-.1822.1887-.0035c6.3433-.12,12.6866-.14,19.03-.1739l9.5149.0258,9.515.1136.223.0026-.0028.2176C81.4767,50.837,81.38,53.745,81.3205,56.5811Zm-.048-.048-.1962-8.6418.22.22-9.515.1136-9.5149.0258c-6.3433-.0335-12.6866-.0539-19.03-.1739l.1855-.1856q-.0715,4.3329-.08,8.6657l-.105-.105c3.1653-.003,6.33-.0316,9.4775-.0913l4.7156-.07,4.7206-.0139,9.4986.0854C74.833,56.4076,78.0277,56.456,81.2725,56.5331Z"/><path class="cls-2" d="M78.8992,20.471a1.4782,1.4782,0,0,1-.284.9019,1.0548,1.0548,0,0,1-.9019.4082,1.3205,1.3205,0,0,1-.8653-.4446,1.4544,1.4544,0,0,1-.3964-.8654,1.2588,1.2588,0,0,1,1.2617-1.35,1.146,1.146,0,0,1,.9056.4443A1.4769,1.4769,0,0,1,78.8992,20.471Zm-.0339,0a.9361.9361,0,0,0-.4042-.7476,1.2726,1.2726,0,0,0-.7478-.24,1.0966,1.0966,0,0,0-1.076.9881.9481.9481,0,0,0,.2883.7877,1.02,1.02,0,0,0,.7877.24,1.5,1.5,0,0,0,.7514-.2765A.9378.9378,0,0,0,78.8653,20.471Z"/><path class="cls-2" d="M76.06,25.6385a9.74,9.74,0,0,1-.118-1.12,7.7708,7.7708,0,0,1,.0061-1.12l.0139-.14.1151.0106.3742.0345.1055.01-.011.0848a6.0972,6.0972,0,0,0-.0067,1.379c.05.46.0705.9193.0846,1.3789l-.1722-.1722a11.0727,11.0727,0,0,1,1.2619.02,11.28,11.28,0,0,1,1.2617.135v.0339a11.28,11.28,0,0,1-1.2617.135,11.0958,11.0958,0,0,1-1.2619.02l-.1774-.007.005-.1654c.0141-.46.0346-.9193.0846-1.3789a6.0914,6.0914,0,0,0-.0068-1.379l.0944.0944-.3742.0344.1288-.1288a7.7565,7.7565,0,0,1,.0063,1.12,9.7847,9.7847,0,0,1-.1182,1.12Z"/><path class="cls-2" d="M80.1489,25.6385a25.6251,25.6251,0,0,1-.136-2.8746.7807.7807,0,0,0-.2361-.5492,1.0067,1.0067,0,0,0-.6181-.1991c-.48-.0185-.9634-.021-1.4449-.0016l-1.4432.0732a1.0258,1.0258,0,0,0-.5928.167.6692.6692,0,0,0-.2328.5124c-.008.9284-.0151,1.9164-.0828,2.8718l-.1013-.1013c.2722.0178.5442.0526.8163.0844v.0339c-.2721.0318-.5441.0666-.8163.0844l-.0948.0062-.0066-.1076c-.0606-.9705-.0907-1.9094-.0669-2.9059a1.0061,1.0061,0,0,1,.3943-.7381,1.2289,1.2289,0,0,1,.781-.1872c.4885.014.9629.0535,1.4459.0732s.9614.0185,1.4444-.0033a1.1787,1.1787,0,0,1,.7552.1544.9228.9228,0,0,1,.3891.7039,20.8278,20.8278,0,0,1-.12,2.9031Z"/><path class="cls-2" d="M78.9583,26.1561a5.8539,5.8539,0,0,1-.1338-1.379c.006-.23.0479-.46.0735-.69a3.6626,3.6626,0,0,0,.0158-.6895l-.003-.0581.0646-.0035c.129-.0071.2579-.0239.3871-.0373l.084-.0087.0149.1076c.0519.3734.0617.7468.0783,1.12a8.8336,8.8336,0,0,1-.0422,1.12l-.1348-.1349a7.0547,7.0547,0,0,1,.8032.118v.0339a7.0324,7.0324,0,0,1-.8032.118l-.1222.0117-.0129-.1467a8.8152,8.8152,0,0,1-.0423-1.12c.0166-.3733.0264-.7467.0784-1.12l.0988.0988c-.1292-.0134-.2581-.03-.3871-.0373l.0614-.0615a3.6375,3.6375,0,0,0,.0157.6895c.0257.23.0676.46.0734.69a5.8484,5.8484,0,0,1-.1336,1.379Z"/><path class="cls-2" d="M26.1544,8.3484a1.4777,1.4777,0,0,1-.284.9018,1.0543,1.0543,0,0,1-.9017.4083,1.3211,1.3211,0,0,1-.8655-.4447,1.4542,1.4542,0,0,1-.3964-.8654,1.2589,1.2589,0,0,1,1.2617-1.35,1.1466,1.1466,0,0,1,.9056.4443A1.4774,1.4774,0,0,1,26.1544,8.3484Zm-.0338,0a.9365.9365,0,0,0-.4043-.7477,1.2733,1.2733,0,0,0-.7478-.24,1.0966,1.0966,0,0,0-1.0759.9881.9475.9475,0,0,0,.2882.7877,1.02,1.02,0,0,0,.7879.24A1.4971,1.4971,0,0,0,25.72,9.1.9381.9381,0,0,0,26.1206,8.3484Z"/><path class="cls-2" d="M23.3153,13.5158a9.74,9.74,0,0,1-.118-1.12,7.7693,7.7693,0,0,1,.0061-1.12l.0139-.14.1151.0106.3742.0344.1055.01-.0109.0849a6.0847,6.0847,0,0,0-.0067,1.3789c.05.46.07.9193.0845,1.379l-.1722-.1723a11.0951,11.0951,0,0,1,1.2619.02,11.2306,11.2306,0,0,1,1.2617.135V14.05a11.2775,11.2775,0,0,1-1.2617.135,11.095,11.095,0,0,1-1.2619.02l-.1774-.007.005-.1653c.0141-.46.0346-.9194.0846-1.379a6.0847,6.0847,0,0,0-.0068-1.3789l.0944.0943-.3742.0345.129-.1288a7.7837,7.7837,0,0,1,.0061,1.12,9.7847,9.7847,0,0,1-.1182,1.12Z"/><path class="cls-2" d="M27.4041,13.5158a25.5771,25.5771,0,0,1-.1358-2.8746.7819.7819,0,0,0-.2363-.5492,1.0067,1.0067,0,0,0-.6181-.199c-.48-.0185-.9634-.021-1.4449-.0017l-1.4432.0732a1.0259,1.0259,0,0,0-.5928.1671.6692.6692,0,0,0-.2328.5123c-.0078.9284-.0151,1.9165-.0828,2.8718l-.1012-.1012c.2721.0178.5441.0525.8162.0844v.0339c-.2721.0318-.5441.0665-.8162.0844l-.0948.0062-.0067-.1077c-.0606-.9705-.0907-1.9094-.0669-2.9058a1.0059,1.0059,0,0,1,.3943-.7381,1.2278,1.2278,0,0,1,.781-.1872c.4885.014.9629.0535,1.4459.0731s.9614.0185,1.4444-.0032a1.1775,1.1775,0,0,1,.7552.1544.9224.9224,0,0,1,.3891.7038,20.8271,20.8271,0,0,1-.12,2.9031Z"/><path class="cls-2" d="M26.2135,14.0334a5.8539,5.8539,0,0,1-.1338-1.379c.006-.23.0479-.46.0735-.69a3.6613,3.6613,0,0,0,.0158-.6894l-.003-.0581.0646-.0035c.129-.0072.258-.024.3871-.0374l.084-.0087.0149.1077c.052.3733.0617.7467.0783,1.12a8.8128,8.8128,0,0,1-.0422,1.12l-.1348-.1349a7.0328,7.0328,0,0,1,.8032.1181v.0339a7.032,7.032,0,0,1-.8032.1179l-.1222.0118-.0129-.1468a8.8129,8.8129,0,0,1-.0423-1.12c.0168-.3734.0264-.7468.0784-1.12l.0988.0987c-.1291-.0134-.2581-.03-.3871-.0373l.0614-.0614a3.6613,3.6613,0,0,0,.0157.6894c.0257.23.0676.46.0734.69a5.8484,5.8484,0,0,1-.1336,1.379Z"/><path class="cls-1" d="M10.3661,45.445H0V.0045H10.3661V8.9334h6.1557v5.85H10.3661V30.8062h6.1557v5.85H10.3661ZM.6782,44.7667h9.01V35.9776h6.1557V31.4844H9.6879V14.1049h6.1557V9.6116H9.6879V.6827H.6782Z"/><path class="cls-1" d="M13.4011.3677c.051,2.1608.1366,4.2518.1631,6.3191L13.3771,6.5l4.8168-.0707.2568-.0038.001.2616c.0137,3.4477.0685,6.8955.0314,10.3432L18.48,17.32l-.2861,0c-1.6057-.0011-3.2112-.0306-4.8168-.0582l.231-.2309-.0792,4.6666-.1518-.1517,4.9895.0438c1.6631.0135,3.3262-.0108,4.9893-.0143l9.9787-.1368-.259.259L32.992,11.02c-.0355-3.5588,0-7.1176,0-10.6765l.3425.3425C30.05.6748,26.7606.6172,23.45.57ZM13.3531.32,23.262.1174C26.6036.07,29.9671.0127,33.3346.0012L33.6771,0l0,.3438c0,3.5589.0354,7.1177,0,10.6765l-.0834,10.6765-.0022.2628-.2571-.0036-9.9787-.1368c-1.6631-.0035-3.3262-.0278-4.9893-.0143l-4.9895.0438-.1492.0014-.0027-.1533L13.1461,17.03l-.0038-.227.2348-.0041c1.6056-.0275,3.2111-.057,4.8168-.0581l-.2891.2891c-.0371-3.4477.0177-6.8955.0314-10.3432l.2577.2577-4.8168-.0707-.1893-.0028.0022-.1843C13.2165,4.5253,13.3019,2.3877,13.3531.32Z"/><path class="cls-1" d="M13.4011,28.578l4.7928-.1385.16-.0046.0027.1672.0823,5.1716.0387,5.1715.0022.2824-.2858.0012c-1.6057.0071-3.2112.031-4.8168.0139l.2974-.2973-.0161,3.08-.0464,3.08-.2349-.235c3.3262.0583,6.6526.1188,9.9788.1274q4.9893.01,9.9787-.076l-.1837.1836q-.0913-5.3658-.13-10.7315c-.0124-3.5771-.0632-7.1543-.0405-10.7314l.3537.3537c-3.3263-.009-6.6525-.0052-9.9787-.0526-3.3262-.0271-6.6526-.0821-9.9788-.1439l.1573-.1572Zm-.048.048L13.22,23.6426l-.0042-.1544.1615-.003c3.3262-.0618,6.6526-.1168,9.9788-.1439,3.3262-.0474,6.6524-.0436,9.9787-.0526l.3517-.001.0023.3549c.0225,3.5771-.0282,7.1543-.0408,10.7314q-.0346,5.3658-.1294,10.7315l-.0032.1866-.1806-.0029q-4.9895-.0786-9.9787-.076c-3.3262.0086-6.6526.0691-9.9788.1274l-.2315.0041-.0037-.2392-.0462-3.08-.016-3.08-.0017-.2943.2991-.0032c1.6056-.0171,3.2111.0068,4.8168.0139l-.2835.2834.0387-5.1715.0823-5.1716.1625.1625Z"/><path class="cls-1" d="M67.8608,15.844l-.6463,2.04-.1326-.1467c1.2177-.3564,2.441-.6909,3.664-1.0263,1.2224-.3386,2.4453-.6739,3.6735-.9895l-.1515.4154-2.2516-3.0756c-.7509-1.0248-1.474-2.07-2.2124-3.1037l.4968-.0688c-.2492.6861-.5208,1.3641-.7827,2.0455l-.0914.2381-.2355-.0952a28.3511,28.3511,0,0,0-6.02-1.89,23.8242,23.8242,0,0,0-6.3047-.3848A26.3059,26.3059,0,0,0,50.67,10.9741a25.58,25.58,0,0,0-5.7372,2.5029l.1013-.4387,2.2006,3.5956-.5-.115a22.4928,22.4928,0,0,1,10.5143-3.003l.6872-.0286.6875.0235c.4576.0246.9173.0121,1.3723.0676a21.4932,21.4932,0,0,1,2.7076.4392,19.066,19.066,0,0,1,2.629.7509,10.6951,10.6951,0,0,1,1.2852.5218Zm-.0624.0262L66.52,15.4137a11.5293,11.5293,0,0,0-1.2641-.4107,23.1535,23.1535,0,0,0-2.6278-.6042,22.218,22.218,0,0,0-5.3509-.2977,23.55,23.55,0,0,0-5.2657.9275,21.2607,21.2607,0,0,0-4.8879,2.0882l-.32.19-.1805-.3053-2.1445-3.6294-.1662-.2815.2676-.1574a24.3152,24.3152,0,0,1,5.9507-2.4411,27.7009,27.7009,0,0,1,6.3221-.9464,29.0332,29.0332,0,0,1,6.3623.3972,31.24,31.24,0,0,1,3.1232.68,13.7479,13.7479,0,0,1,1.5274.4771l1.5165.5228-.3267.1428c.2365-.6907.463-1.385.7122-2.0711l.1826-.5027.3143.4339c.7453,1.029,1.5058,2.0469,2.2385,3.085l2.1991,3.1132.227.3213-.3785.0941c-1.23.3062-2.4658.5926-3.7022.8756-1.2355.2863-2.4707.5736-3.7116.8388l-.2114.0452.0788-.1919Z"/><path class="cls-1" d="M67.7984,29.5791l-.7943-1.9373-.0788-.192.2114.0452c1.2409.2653,2.4761.5526,3.7116.8388,1.2364.2831,2.4718.5694,3.7022.8756l.3785.0942-.227.3213-2.1991,3.1132c-.7327,1.038-1.4932,2.056-2.2385,3.085l-.3143.4339-.1826-.5027c-.2492-.6861-.4757-1.38-.7122-2.0711l.3267.1428-1.5165.5228a13.7479,13.7479,0,0,1-1.5274.4771,31.2116,31.2116,0,0,1-3.1232.68,29.0271,29.0271,0,0,1-6.3623.3973,27.7064,27.7064,0,0,1-6.3221-.9464A24.3191,24.3191,0,0,1,44.58,32.5159l-.2676-.1574.1662-.2815,2.1445-3.6294.1805-.3054.32.19a21.265,21.265,0,0,0,4.8879,2.0882,23.5558,23.5558,0,0,0,5.2657.9275,22.2231,22.2231,0,0,0,5.3509-.2977,23.1535,23.1535,0,0,0,2.6278-.6042,11.5293,11.5293,0,0,0,1.2641-.4107Zm.0624.0262-1.2437.5537a10.6779,10.6779,0,0,1-1.2852.5217,19.0381,19.0381,0,0,1-2.629.7509,21.4753,21.4753,0,0,1-2.7076.4393c-.455.0555-.9147.043-1.3723.0676l-.6875.0235-.6872-.0286A22.4928,22.4928,0,0,1,46.734,28.93l.5-.115L45.0338,32.411l-.1013-.4387A25.5754,25.5754,0,0,0,50.67,34.4752a26.3059,26.3059,0,0,0,6.1971,1.1723,23.8242,23.8242,0,0,0,6.3047-.3848,28.3511,28.3511,0,0,0,6.02-1.89l.2355-.0952.0914.2381c.2619.6814.5335,1.3594.7827,2.0454l-.4968-.0687c.7384-1.0339,1.4615-2.0789,2.2124-3.1038l2.2516-3.0755.1515.4153c-1.2282-.3155-2.4511-.6508-3.6735-.99-1.223-.3353-2.4463-.67-3.664-1.0262l.1326-.1467Z"/><path class="cls-1" d="M47.4988.3677,41.588.4842,35.77.57l.2257-.2257c.051,3.73.0454,7.46.0709,11.19.0064,3.73.0025,7.46-.0514,11.19-.0366,3.73-.1139,7.46-.1225,11.19-.0316,3.73-.0106,7.46.0083,11.19l-.131-.1309,11.7532-.1169-.2479.2478-.0664-7.9525.1267.252L41.674,33.2324l-.2526-.1861.1643-.2719c1.4488-2.3995,2.921-4.7848,4.3916-7.1711l.1036-.1682.1961,0,1.2458.0022-.3494.3494.0113-6.1247L47.5228,20l-1.2458-.0126-.1855-.0018L46,19.8324,41.6749,12.62l-.1144-.1909.176-.1282L47.4215,8.16l-.0684.1361C47.374,5.6913,47.4649,3.051,47.4988.3677Zm.048-.048c.034,2.6184.1249,5.28.1457,7.9766l.0007.0837-.0692.0525-5.6,4.2548.0616-.319,4.4691,7.1237-.2775-.1554,1.2458-.0125.3375-.0034.0006.3416.0113,6.1247.0007.3489-.35.0006-1.2458.0021.3-.1677c-1.4608,2.3923-2.92,4.7857-4.402,7.1648l-.0883-.4578L47.71,36.9008l.128.0962-.0014.156-.0662,7.9525-.0022.25-.2457-.0024L35.77,45.2365l-.1316-.0013.0006-.13c.0189-3.73.04-7.46.0083-11.19-.0086-3.73-.0859-7.46-.1225-11.19-.0538-3.73-.0578-7.46-.0513-11.19.0255-3.73.02-7.46.0708-11.19l.0032-.229L35.77.118l5.9348.0853Z"/><path class="cls-1" d="M69.7455.3677l.1314,6.2343-.03-.0919c2.426,3.2223,4.8643,6.4354,7.2586,9.6808l.1181.16-.1182.1618L76.01,18.0118l-.06.0819-.1008.0243-6.0582,1.46.2322-.2938-.0328,6.881-.207-.2618L75.83,27.4144l.0714.0179.04.056,1.0836,1.5075L77.1,29.1l-.0751.0989Q75.1974,31.61,73.401,34.0436c-1.2024,1.6189-2.4082,3.2353-3.5908,4.8688l.0214-.0651.0334,6.2582-.1434-.1434L81.4747,44.85l-.2557.2557-.0748-11.19-.0227-11.19c.0157-3.73-.0093-7.46.04-11.19l.1091-11.19.204.204L75.652.474ZM69.6975.32,75.5442.2135,81.4747.14l.202-.0025.0021.2066.109,11.19c.0493,3.73.0243,7.46.04,11.19l-.0226,11.19-.0748,11.19-.0018.2582-.254-.0024L69.7216,45.249l-.1444-.0014.0009-.1421.0333-6.2582V38.81l.0214-.0285c1.2058-1.6163,2.3885-3.25,3.5746-4.8806q1.7847-2.4423,3.5413-4.9051l0,.2032-1.12-1.48.1116.0737-6.0807-1.3657-.206-.0463-.001-.2157-.033-6.881-.0011-.2394.2336-.0545L75.72,17.5733l-.16.1061,1.1091-1.4887,0,.3214c-2.3826-3.2541-4.7211-6.5406-7.0722-9.8179l-.0311-.0436.0009-.0486Z"/><path class="cls-2" d="M18.6047,55.4367l.1187-.9177.0585.0885-.6721-.1911-.0563-.016-.0025-.0769-.0267-.8075-.0071-.217.1982.1032a2.5653,2.5653,0,0,0,.7585.2633l-.1651.112c.0785-.4491.1689-.8959.2678-1.3409l.0753.1561a2.1961,2.1961,0,0,1-.8668-.697,1.5081,1.5081,0,0,1-.1752-1.0922,1.2031,1.2031,0,0,1,.61-.8872,2.1254,2.1254,0,0,1,1.0544-.2353l-.0626.0507.0886-.5109.0107-.0621.0683-.0022.4843-.0155.1151-.0037-.0209.1193-.1.5752-.0865-.1341.5248.14.0823.0219.0029.1.0234.8.0061.2125-.2209-.0717-.6249-.2024.1974-.1262-.235,1.2389-.0973-.1974a2.4378,2.4378,0,0,1,.9594.6991,1.5988,1.5988,0,0,1,.2208,1.1887,1.2985,1.2985,0,0,1-.6868.9824,2.3152,2.3152,0,0,1-1.1415.1948l.0892-.0727-.2154.8292-.01.04-.0352-.0025Zm.0261-.0216L19.11,55.38l-.0454.0371.128-.8473.01-.0694.0792-.0034a2.2467,2.2467,0,0,0,1.0133-.2462.9985.9985,0,0,0,.4956-.7955,1.3622,1.3622,0,0,0-.1866-.9427,2.142,2.142,0,0,0-.8322-.5753l-.1267-.0629.0292-.1346.2674-1.2323.04-.1824.158.0561.6721.2384-.2148.1408.0235-.8.085.122L20.22,49.92l-.11-.0367.0232-.0976.1354-.568.0941.1155-.4843-.0155.0788-.0642-.1217.5041-.0124.0515-.05-.0007a2.0064,2.0064,0,0,0-1.0026.1961,1.0765,1.0765,0,0,0-.5254.8194,1.3318,1.3318,0,0,0,.2231.9456,2.2933,2.2933,0,0,0,.8146.5673l.0944.05-.019.1061c-.0807.4487-.17.8958-.27,1.34l-.0315.1387-.1338-.0265a2.8348,2.8348,0,0,1-.8309-.3161l.1911-.1137-.0266.8075-.0588-.0929.6146.2293.0755.0282-.0169.0606Z"/><path class="cls-2" d="M19.61,50.502c-.0949.0928-.2365.1444-.3.2073a1.083,1.083,0,0,0-.1755.2131.2908.2908,0,0,0,.018.3377c.0623.0969.2193.1287.3262.1555l.0038.0009-.2255.1025C19.2408,51.1938,19.4082,50.9693,19.61,50.502Zm.0253-.0225a1.9727,1.9727,0,0,1-.078,1.1l-.1089.259-.1168-.1564-.0033-.0044c-.09-.1472-.1973-.2216-.2771-.3545a1.959,1.959,0,0,1-.1239-.43.4034.4034,0,0,1,.2414-.4306A.5718.5718,0,0,1,19.6354,50.48Z"/><path class="cls-2" d="M19.4455,53.82c.1005-.0963.2353-.155.3091-.23a1.1808,1.1808,0,0,0,.1939-.2362.29.29,0,0,0-.0165-.3514c-.0788-.093-.2452-.108-.3454-.1716l.2232-.0976a1.3525,1.3525,0,0,1-.0972.4888Zm-.025.0229a2.2624,2.2624,0,0,1-.0364-.53,2.3067,2.3067,0,0,1,.1336-.6391l.0762-.2437.147.1461a1.2991,1.2991,0,0,1,.2937.36,1.5619,1.5619,0,0,1,.1252.4542.4378.4378,0,0,1-.2548.4392A.595.595,0,0,1,19.4205,53.8427Z"/><path class="cls-2" d="M61.4639,55.4367l.1187-.9177.0584.0885-.6721-.1911-.0563-.016-.0024-.0769-.0267-.8075-.0071-.217.1982.1032a2.5653,2.5653,0,0,0,.7585.2633l-.1651.112c.0785-.4491.1689-.8959.2678-1.3409l.0753.1561a2.1961,2.1961,0,0,1-.8668-.697,1.5081,1.5081,0,0,1-.1752-1.0922,1.2032,1.2032,0,0,1,.61-.8872,2.126,2.126,0,0,1,1.0545-.2353l-.0626.0507.0886-.5109.0107-.0621.0683-.0022.4843-.0155.1151-.0037-.0209.1193-.1.5752-.0865-.1341.5248.14.0823.0219.0029.1.0234.8.0061.2125-.221-.0717-.6248-.2024.1974-.1262-.235,1.2389-.0973-.1974a2.4368,2.4368,0,0,1,.9593.6991,1.5984,1.5984,0,0,1,.2209,1.1887,1.2985,1.2985,0,0,1-.6868.9824,2.3152,2.3152,0,0,1-1.1415.1948l.0892-.0727-.2154.8292-.01.04-.0352-.0025Zm.0261-.0216.4791-.0356-.0454.0371.128-.8473.01-.0694.079-.0034a2.2469,2.2469,0,0,0,1.0135-.2462.9985.9985,0,0,0,.4956-.7955,1.3622,1.3622,0,0,0-.1866-.9427,2.142,2.142,0,0,0-.8322-.5753l-.1268-.0629.0293-.1346.2674-1.2323.04-.1824.158.0561.6721.2384-.2148.1408.0235-.8.085.122L63.08,49.92l-.11-.0367.0232-.0976.1354-.568.0941.1155-.4843-.0155.0788-.0642-.1217.5041-.0124.0515-.05-.0007a2.0062,2.0062,0,0,0-1.0026.1961,1.0765,1.0765,0,0,0-.5254.8194,1.3318,1.3318,0,0,0,.2231.9456,2.2933,2.2933,0,0,0,.8146.5673l.0944.05-.019.1061c-.0807.4487-.17.8958-.27,1.34l-.0315.1387-.1338-.0265a2.8338,2.8338,0,0,1-.8309-.3161l.1911-.1137-.0267.8075-.0587-.0929.6146.2293.0755.0282-.0169.0606Z"/><path class="cls-2" d="M62.4693,50.502c-.0949.0928-.2365.1444-.3.2073a1.083,1.083,0,0,0-.1755.2131.2908.2908,0,0,0,.018.3377c.0623.0969.2192.1287.3262.1555l.0038.0009-.2255.1025C62.1,51.1938,62.2674,50.9693,62.4693,50.502Zm.0252-.0225a1.9716,1.9716,0,0,1-.0779,1.1l-.1089.259-.1168-.1564-.0033-.0044c-.09-.1472-.1973-.2216-.2772-.3545a1.9588,1.9588,0,0,1-.1238-.43.4034.4034,0,0,1,.2414-.4306A.5716.5716,0,0,1,62.4945,50.48Z"/><path class="cls-2" d="M62.3047,53.82c.1005-.0963.2353-.155.3091-.23a1.1808,1.1808,0,0,0,.1939-.2362.29.29,0,0,0-.0165-.3514c-.0788-.093-.2452-.108-.3454-.1716l.2232-.0976a1.3525,1.3525,0,0,1-.0972.4888Zm-.025.0229a2.2624,2.2624,0,0,1-.0364-.53,2.3067,2.3067,0,0,1,.1336-.6391l.0762-.2437.147.1461a1.2991,1.2991,0,0,1,.2937.36,1.5619,1.5619,0,0,1,.1252.4542.4378.4378,0,0,1-.2548.4392A.595.595,0,0,1,62.28,53.8427Z"/><path class="cls-2" d="M5.6224,16.36a.9283.9283,0,0,1,.3233.7312,2.9151,2.9151,0,0,1-.0727.8219A4.1472,4.1472,0,0,1,5.2018,19.41,6.6075,6.6075,0,0,1,4.0793,20.598a3.6154,3.6154,0,0,1-.683.4525.9352.9352,0,0,1-.847.0537.9351.9351,0,0,1-.3722-.7947,2.74,2.74,0,0,1,.1119-.8371,5.1864,5.1864,0,0,1,.6933-1.5,4.5438,4.5438,0,0,1,1.1169-1.21,2.9876,2.9876,0,0,1,.7226-.4009A.9255.9255,0,0,1,5.6224,16.36Zm-.0184.0284a.7633.7633,0,0,0-.7438.0592,2.6208,2.6208,0,0,0-.6158.4843,8.4129,8.4129,0,0,0-.9685,1.23,6.6983,6.6983,0,0,0-.6809,1.4006,2.9132,2.9132,0,0,0-.1489.7462.7629.7629,0,0,0,.2042.6395.7359.7359,0,0,0,.6974-.0068,2.2446,2.2446,0,0,0,.6553-.4328,5.1248,5.1248,0,0,0,.963-1.2519,10.3359,10.3359,0,0,0,.7029-1.4043,2.6818,2.6818,0,0,0,.1881-.7615A.7614.7614,0,0,0,5.604,16.3881Z"/><path class="cls-2" d="M6.9366,24.28a.9285.9285,0,0,1-.7912.1153,2.9182,2.9182,0,0,1-.7722-.29,4.1511,4.1511,0,0,1-1.262-1.048,6.6087,6.6087,0,0,1-.8436-1.4,3.6048,3.6048,0,0,1-.2528-.7795.9352.9352,0,0,1,.1753-.83.935.935,0,0,1,.8655-.1454,2.7325,2.7325,0,0,1,.7764.3323,5.1821,5.1821,0,0,1,1.26,1.07,4.5427,4.5427,0,0,1,.8658,1.4,2.9811,2.9811,0,0,1,.1926.8036A.9254.9254,0,0,1,6.9366,24.28Zm-.0224-.0254a.7635.7635,0,0,0,.1426-.7324,2.6281,2.6281,0,0,0-.3015-.7231A8.3985,8.3985,0,0,0,5.83,21.5362,6.7115,6.7115,0,0,0,4.663,20.5046a2.9155,2.9155,0,0,0-.6789-.3434.7627.7627,0,0,0-.671.025.736.736,0,0,0-.18.6738,2.2457,2.2457,0,0,0,.2412.7473,5.1285,5.1285,0,0,0,.9478,1.2636,10.3253,10.3253,0,0,0,1.1644,1.0537,2.6809,2.6809,0,0,0,.683.3855A.7614.7614,0,0,0,6.9142,24.2548Z"/><path class="cls-2" d="M7.963,22.8517a.9286.9286,0,0,1,.3232.7313,2.9226,2.9226,0,0,1-.0725.8219,4.15,4.15,0,0,1-.6713,1.4967A6.6035,6.6035,0,0,1,6.42,27.09a3.6093,3.6093,0,0,1-.6832.4526.9354.9354,0,0,1-.847.0537.9346.9346,0,0,1-.372-.7948,2.7371,2.7371,0,0,1,.1117-.8371,5.1858,5.1858,0,0,1,.6933-1.5,4.5442,4.5442,0,0,1,1.117-1.21,2.9846,2.9846,0,0,1,.7226-.401A.9258.9258,0,0,1,7.963,22.8517Zm-.0184.0285a.7635.7635,0,0,0-.7439.0591,2.6243,2.6243,0,0,0-.6157.4844,8.4007,8.4007,0,0,0-.9686,1.23,6.7065,6.7065,0,0,0-.6809,1.4007,2.9164,2.9164,0,0,0-.1488.7462.7623.7623,0,0,0,.2041.6394.7358.7358,0,0,0,.6975-.0068,2.2472,2.2472,0,0,0,.6553-.4328,5.1307,5.1307,0,0,0,.9631-1.2519A10.3532,10.3532,0,0,0,8.01,24.3446a2.6947,2.6947,0,0,0,.1881-.7614A.7617.7617,0,0,0,7.9446,22.88Z"/><path class="cls-2" d="M25.1573,31.5684a1.5,1.5,0,0,0-1.6254-.319l.0209-.0953,1.302,1.1993.0592.0546-.0291.0834a1.6745,1.6745,0,0,1-.994,1.0193l-.0924.0328-.0664-.0675c-.4135-.42-.8264-.841-1.2261-1.2751l.19-.0415a1.4652,1.4652,0,0,0,1.8069,1.9514l.0321-.0108.0268.0255L26.6528,36.12l1.0428.9995c.1845.1814.3122.33.5016.3545a.5684.5684,0,0,0,.5077-.1614.5788.5788,0,0,0,.1492-.5052c-.0252-.1848-.1708-.3066-.3547-.4914l-1.0152-1.0274c-.668-.6937-1.3129-1.41-1.9648-2.12l-.0255-.0277.0113-.03A1.5016,1.5016,0,0,0,25.1573,31.5684Zm.024-.024a1.6515,1.6515,0,0,1,.4331,1.6L25.6,33.0873c.71.652,1.4265,1.297,2.12,1.9649l1.0275,1.015c.0894.0915.1621.1545.2652.2692a.93.93,0,0,1,.1919.4008.9022.9022,0,0,1-.2526.8224.9028.9028,0,0,1-1.2136.049c-.1119-.1017-.1758-.1766-.2663-.2662L26.473,36.3l-1.9941-2.0907.0586.0146a1.6775,1.6775,0,0,1-2.0582-2.1445l.0573-.164.133.1224c.4341.4.8549.8126,1.2751,1.2262l-.1585-.0346A1.47,1.47,0,0,0,24.64,32.4l.03.1378-1.1992-1.3021-.0629-.0683.0838-.0271A1.6545,1.6545,0,0,1,25.1813,31.5444Z"/><path class="cls-2" d="M43.7944,24.1156c-1.5247.087-3.1936.16-4.8353.1285l-.1443-.0028.0037-.1378c.0213-.8039.0771-1.6078.0818-2.4116.0174-.8039-.0066-1.6078-.0341-2.4117l-.003-.09.0959-.0031c1.6078-.0521,3.2156-.099,4.8234-.082l.1748.0018V19.28C43.9567,20.9309,43.8736,22.584,43.7944,24.1156Zm-.0238-.024c-.0792-1.6839-.1623-3.2465-.163-4.8114l.1749.1748c-1.6078.017-3.2156-.03-4.8234-.082l.0927-.0928c-.0273.8039-.0515,1.6078-.0341,2.4117.0048.8038.06,1.6077.0818,2.4116l-.14-.14C40.5331,23.9318,42.08,24.0046,43.7706,24.0916Z"/><path class="cls-2" d="M41.9967,19.1963a4.0844,4.0844,0,0,1,.1629-.8347c.0732-.2571.1573-.5185.229-.7172.0172-.0427.0287-.089.0464-.0829a.1186.1186,0,0,0,.071.0363c.023.002.027-.012.0081-.0163a.5323.5323,0,0,0-.3394.0784,1.8856,1.8856,0,0,0-.5938.5584l-.0677.09-.1764-.09c-.25-.1269-.4913-.2615-.7077-.3813a.6778.6778,0,0,0-.2467-.0914.0239.0239,0,0,0,.0172.0019.1126.1126,0,0,0,.0714-.0155.2234.2234,0,0,0,.1255-.1281c.0141-.05.0071-.007.0111.0294a6.4092,6.4092,0,0,0,.1543.7265,7.3744,7.3744,0,0,1,.1592.8365l-.0592.0332a3.0885,3.0885,0,0,1-.5873-.6508,2.3312,2.3312,0,0,1-.3831-.844.7755.7755,0,0,1,.0271-.3829.7066.7066,0,0,1,.0909-.1545.5917.5917,0,0,1,.17-.1248.6483.6483,0,0,1,.1727-.04,1.0006,1.0006,0,0,1,.1207.01,1.1642,1.1642,0,0,1,.5032.2551,2.9065,2.9065,0,0,1,.6047.64H41.337a5.0731,5.0731,0,0,0,.7186-.4633,1.48,1.48,0,0,1,.41-.268.3593.3593,0,0,1,.213,0,.3774.3774,0,0,1,.2063.1874.7542.7542,0,0,1,.0624.3294,1.802,1.802,0,0,1-.3085.8535,2.3547,2.3547,0,0,1-.5833.6525Z"/><rect class="cls-2" x="41.1585" y="19.3902" width="0.3391" height="4.6032"/><rect class="cls-2" x="39.0755" y="21.5223" width="4.4939" height="0.3391"/><rect class="cls-3" x="52.8861" y="29.4088" width="11.3603" height="3.6455"/><path class="cls-2" d="M62.3527,33.99a1.0378,1.0378,0,0,1-.148.5733.6149.6149,0,0,1-.5733.2722.8531.8531,0,0,1-.5369-.3085,1.0131,1.0131,0,0,1-.26-.537.7938.7938,0,0,1,.7972-.8852.6935.6935,0,0,1,.5769.3082A1.0324,1.0324,0,0,1,62.3527,33.99Zm-.0339,0a.4914.4914,0,0,0-.2683-.4191.8546.8546,0,0,0-.4191-.1044.6327.6327,0,0,0-.6115.5235.4976.4976,0,0,0,.1524.4592.5546.5546,0,0,0,.4591.1041,1.2884,1.2884,0,0,0,.4228-.14A.4932.4932,0,0,0,62.3188,33.99Z"/><path class="cls-3" d="M60.3019,30.3541h-6.21v3.4971h.875a.6688.6688,0,0,0-.0282.1392.7044.7044,0,0,0,1.4088,0,.6686.6686,0,0,0-.0281-.1392h.6981a.6686.6686,0,0,0-.0281.1392.7044.7044,0,1,0,1.4087,0,.6751.6751,0,0,0-.0281-.1392h1.9319Z"/><path class="cls-2" d="M60.29,30.3661c-1.0818.0487-2.1226.0947-3.1448.1132-1.0256.0233-2.0326.037-3.0531-.01l.1147-.1147c-.046,1.1656-.0793,2.3313-.0528,3.4969l-.0619-.0618.8747-.023.1179-.0031-.0346.1054a.5453.5453,0,0,0,.127.5022.6.6,0,0,0,.4662.2042.5522.5522,0,0,0,.5262-.6926l-.0664-.1818.2166-.0027.6979-.0089.2321-.0029-.0733.1981a.472.472,0,0,0,.1036.4439.536.536,0,0,0,.4138.1886.5491.5491,0,0,0,.4079-.1935.4618.4618,0,0,0,.0971-.4364l-.0813-.2109.2527.0005c.6438.0012,1.2878.0055,1.9317.0244l-.15.15C60.1708,32.7228,60.2387,31.5806,60.29,30.3661Zm.024-.024c.0512,1.1168.1192,2.306.1384,3.509l.0023.146-.1528.0045c-.6439.019-1.2879.0232-1.9317.0245l.1711-.21a.8633.8633,0,0,1-.8475,1.057.8853.8853,0,0,1-.6772-.3294.8016.8016,0,0,1-.1578-.725l.1588.195-.6979-.0089.15-.1844a.7775.7775,0,0,1-.1749.7023.8394.8394,0,0,1-.6515.2922.791.791,0,0,1-.76-.9806l.0831.1022-.8747-.0231-.0634-.0017.0014-.06c.0264-1.1656-.0069-2.3313-.0529-3.4969l-.0043-.1095.1192-.0054c1.0494-.0474,2.1125-.0337,3.1568-.01C58.2966,30.2474,59.3257,30.2934,60.3139,30.3421Z"/><path class="cls-2" d="M63.2792,30.8125a19.4244,19.4244,0,0,1-2.0632.14l.1515-.1515c-.0046.7224-.1364,1.4448-.0931,2.1672l-.0867-.0513a1.1346,1.1346,0,0,1,1.7255.8337l-.1631-.1467.541-.0151-.1794.1793C63.0983,32.822,63.1866,31.8912,63.2792,30.8125Zm.024-.024a26.282,26.282,0,0,1,.1674,2.9792l-.0025.1844-.177-.005-.541-.0152-.1517-.0043-.0116-.1424a.9511.9511,0,0,0-.4449-.7255.8907.8907,0,0,0-.8978-.0406l-.093.0519.0063-.1032c.0432-.7224-.0886-1.4448-.0931-2.1672l-.001-.1513.1527,0A16.6235,16.6235,0,0,1,63.3032,30.7885Z"/><polygon class="cls-3" points="60.856 11.068 56.307 11.068 54.978 7.423 61.959 7.423 60.856 11.068"/><path class="cls-3" d="M58.5172,12.6072l2.5469-3.6938A1.4018,1.4018,0,0,0,59.89,6.7457a1.6547,1.6547,0,0,0-1.373,1.06h0a1.6549,1.6549,0,0,0-1.373-1.06A1.402,1.402,0,0,0,55.97,8.9134l2.547,3.6938Z"/><path class="cls-2" d="M58.5033,12.5976c.39-.6751.8067-1.3316,1.23-1.9834.4192-.6438.8807-1.3045,1.2915-1.9164a1.295,1.295,0,0,0-.664-1.8068,1.3906,1.3906,0,0,0-1.7571.9485l-.0755.2207L58.4306,7.84a1.3876,1.3876,0,0,0-1.7218-.8542A1.258,1.258,0,0,0,56.04,8.6828l1.2625,1.93C57.7108,11.2667,58.1613,11.9276,58.5033,12.5976Zm.0278.0192c-.5407-.61-.9727-1.2289-1.4474-1.8549-.4586-.641-.921-1.2264-1.3579-1.9262a1.5511,1.5511,0,0,1-.0466-1.2739,1.5668,1.5668,0,0,1,.9177-.8751,1.3649,1.3649,0,0,1,1.242.1363,1.9546,1.9546,0,0,1,.7649.9494h-.1732a1.9927,1.9927,0,0,1,.8011-.8888,1.3618,1.3618,0,0,1,1.1705-.1025,1.54,1.54,0,0,1,.8765.8113,1.5068,1.5068,0,0,1-.0011,1.2283c-.4181.701-.8778,1.2963-1.3291,1.94C59.4893,11.3886,59.0235,12.0121,58.5311,12.6168Z"/></g></g></g></svg>