<svg xmlns="http://www.w3.org/2000/svg" viewBox="0 0 81.3193 88.1304"><defs><style>.cls-1{fill:#0087b9;}.cls-2{fill:#6d757b;}.cls-3{fill:#fff;}</style></defs><title>Element 44</title><g id="Ebene_2" data-name="Ebene 2"><g id="Ebene_1-2" data-name="Ebene 1"><g id="Illustrationen"><path class="cls-1" d="M21.5875,23.8675c.3848.0214.7675.0764,1.155.1269a10.0407,10.0407,0,0,1,1.131.2975,8.1889,8.1889,0,0,1,2.1109,1.0665,5.8844,5.8844,0,0,1,1.6218,1.7447,7.43,7.43,0,0,1,.9058,2.1882l-.0172-.0459c.6783,1.2878,1.4014,2.5543,2.1706,3.7781a18.4968,18.4968,0,0,0,2.4711,3.4113,7.6611,7.6611,0,0,0,3.4223,2.0722,12.3069,12.3069,0,0,0,2.06.3583c.7078.0472,1.4274.0574,2.1583.0531l.0157.0994a9.5658,9.5658,0,0,1-4.4272.3434,6.7826,6.7826,0,0,1-3.9938-2.2039,14.2,14.2,0,0,1-2.3259-3.81,30.0921,30.0921,0,0,0-1.8317-3.943l-.0073-.0123-.01-.034a4.9772,4.9772,0,0,0-1.1433-1.84,15.7592,15.7592,0,0,0-1.6011-1.4412,13.6151,13.6151,0,0,0-1.844-1.1588c-.6532-.3429-1.3382-.6389-2.0425-.9519Z"/><path class="cls-1" d="M20.0345,48.4966a19,19,0,0,1-5.9061,1.7745,13.2213,13.2213,0,0,1-6.2235-.5345,10.1362,10.1362,0,0,1-2.8061-1.509A10.6355,10.6355,0,0,1,2.942,45.8963a16.4482,16.4482,0,0,1-2.2686-5.78L.668,40.09l0-.0106c.0757-1.6231.1752-3.2143.4082-4.8266a15.02,15.02,0,0,1,1.47-4.6692,10.4143,10.4143,0,0,1,3.1723-3.7973,9.6248,9.6248,0,0,1,4.5193-1.8326l.0256.0974a13.8011,13.8011,0,0,0-3.9806,2.43,14.8433,14.8433,0,0,0-2.8285,3.59,21.7805,21.7805,0,0,0-1.7788,4.3144,13.4456,13.4456,0,0,0-.6232,4.68l-.0047-.0367a15.66,15.66,0,0,0,2.5281,5.4117,12.1847,12.1847,0,0,0,2.0679,2.0759,10.5769,10.5769,0,0,0,2.5608,1.394,14.1321,14.1321,0,0,0,5.86.7236,24.1593,24.1593,0,0,0,5.9287-1.23Z"/><path class="cls-1" d="M18.9531,13.7284A7.1975,7.1975,0,0,0,16.5663,12.06a4.4175,4.4175,0,0,0-2.7184-.3429,4.2839,4.2839,0,0,0-2.2388,1.3556c-.3166.326-.5746.7263-.8715,1.0871l-.74,1.2295.0239-.0769a11.1442,11.1442,0,0,0,.2467,6.1044,6.7644,6.7644,0,0,0,1.6309,2.52A6.465,6.465,0,0,0,14.4675,25.3l-.0641-.0131a5.8415,5.8415,0,0,0,2.3069-.3219,4.1736,4.1736,0,0,0,1.8268-1.2968,5.3851,5.3851,0,0,0,.9353-2.092c.0814-.3878.1212-.7935.1814-1.1939l.0524-1.2369.0039-.0917.0007-.0038a9.8591,9.8591,0,0,0,.2765-2.7792A3.503,3.503,0,0,0,18.9531,13.7284Zm.07-.0728a4.4564,4.4564,0,0,1,1.2925,2.5733,11.1572,11.1572,0,0,1,.1587,2.955l.0047-.0952.1039,1.3292c-.0349.4481-.0339.9028-.1142,1.3528A5.8922,5.8922,0,0,1,19.3776,24.34,4.7882,4.7882,0,0,1,17.04,25.9263a6.7364,6.7364,0,0,1-2.7557.2652l-.04-.0041-.0248-.009a6.5848,6.5848,0,0,1-2.7975-1.7793,7.9183,7.9183,0,0,1-1.5048-2.866,13.7315,13.7315,0,0,1-.5351-3.1355,18.19,18.19,0,0,1-.0036-3.2l.0032-.0323.0206-.0451.6373-1.3881a9.9094,9.9094,0,0,1,.91-1.2666,4.2934,4.2934,0,0,1,2.7889-1.5011,5.023,5.023,0,0,1,2.9757.8068A11.9309,11.9309,0,0,1,19.0227,13.6556Z"/><path class="cls-1" d="M8.4628,86.2152a18.8325,18.8325,0,0,1-.74-4.1854,27.5007,27.5007,0,0,1-.0865-4.2226,37.822,37.822,0,0,0,.1013-4.22c-.0273-1.4048-.2057-2.8082-.28-4.2133-.0889-1.4049-.11-2.8106-.1518-4.2159-.03-1.4048.0413-2.8129.0818-4.2142.0086-1.4012.0015-2.8022-.0376-4.1994-.0214-.6982-.0482-1.396-.0924-2.09a15.2011,15.2011,0,0,0-.2263-1.99l-.0266-.12.0121-.0821a15.3436,15.3436,0,0,0-.2608-5.0492,19.5662,19.5662,0,0,1-.46-2.6025,14.79,14.79,0,0,1,.0255-2.6539,25.4426,25.4426,0,0,1,1.1-5.1424A47.9908,47.9908,0,0,1,9.29,32.1234l.0929.0386A35.032,35.032,0,0,0,6.7948,42.1944a14.2929,14.2929,0,0,0,.0394,2.5646,17.8,17.8,0,0,0,.5212,2.5245,15.4183,15.4183,0,0,1,.4185,5.3281l-.0145-.202a14.0277,14.0277,0,0,1,.3,2.1867c.0561.7072.0939,1.4129.1266,2.1182.0612,1.4106.09,2.8193.103,4.2275.1447,2.8125.0838,5.6166-.0258,8.4263-.0529,1.4043-.2023,2.81-.191,4.2144A32.0375,32.0375,0,0,0,8.3345,77.79c.3279,2.7981.1492,5.6024.2264,8.4021Z"/><path class="cls-1" d="M22.0716,32.5821c.0069-.0182-.0135-.0293.0334-.0752.0743-.0177.0752.0184.09.0236a.5117.5117,0,0,1,.0454.06l.0681.1168.1185.2365.2118.481c.1347.3229.26.6494.38.9779.2374.6575.4485,1.3239.6461,1.9943q.59,2.0121.9951,4.0745a47.1915,47.1915,0,0,1,.8607,8.3521l-.0072-.069q.7613,3.429,1.3478,6.8865c.3893,2.308.7523,4.6211.9381,6.9763.0413.59.0722,1.1829.0658,1.7866A10.4325,10.4325,0,0,1,27.674,66.2c-.1571,1.135-.2743,2.29-.3571,3.4446a58.53,58.53,0,0,0-.1,6.9445,21.9771,21.9771,0,0,0,1.1288,6.755,7.5414,7.5414,0,0,0,.3608.7516c.132.2481.2912.4268.4669.7721a1.0551,1.0551,0,0,1-.1142,1.1278,2.0514,2.0514,0,0,1-.8406.5636,8.488,8.488,0,0,1-3.577.3635,5.4565,5.4565,0,0,1-1.7724-.417,1.4859,1.4859,0,0,1-.4188-.2876,1.8825,1.8825,0,0,1-.2566-.424,7.8186,7.8186,0,0,1-.36-.82,20.7684,20.7684,0,0,1-.8983-3.4135c-.434-2.3048-.6889-4.6287-.96-6.947-.28-2.3174-.5476-4.635-.901-6.9376a38.547,38.547,0,0,0-1.5414-6.7847,14.5045,14.5045,0,0,0-1.3849-3.1164.6453.6453,0,0,0-.205-.1974c-.0083.0147.0389-.0078.0376,0a.32.32,0,0,0-.0484.0738,2.6648,2.6648,0,0,0-.185.75,15.36,15.36,0,0,0-.1,1.71,44.6884,44.6884,0,0,1-.4716,7.0174C14.597,71.761,13.7489,76.38,13.7774,80.98a15.0127,15.0127,0,0,0,.389,3.3589,6.2825,6.2825,0,0,0,.5818,1.5085,3.8673,3.8673,0,0,0,.4421.6343,2.9906,2.9906,0,0,0,.2644.2682l.07.0628a.6886.6886,0,0,1,.21.3052.579.579,0,0,1-.359.6851,1.0384,1.0384,0,0,1-.1765.0633,8.7933,8.7933,0,0,1-1.8771.1672c-.6.003-1.1973-.02-1.7968-.0719a11.7747,11.7747,0,0,1-1.8112-.2866,4.3226,4.3226,0,0,1-.9391-.3474,1.7342,1.7342,0,0,1-.4947-.3844c-.031-.0519-.0929-.0784-.128-.1771-.0221-.0781-.0563-.1243-.0322-.19a.67.67,0,0,1,.3428-.3609l.0981-.0233a12.99,12.99,0,0,0,6.363.7065c.02-.005.0447-.0125.03-.0079.0177.0162-.0578-.0327-.1812.228a.4322.4322,0,0,0-.0034.2743.35.35,0,0,0,.0558.129c.0921.1077.0693.0661.0474.0531l-.0926-.0844a3.9818,3.9818,0,0,1-.3463-.3574,4.855,4.855,0,0,1-.5513-.8031,7.2485,7.2485,0,0,1-.663-1.7524,15.9322,15.9322,0,0,1-.39-3.5839c.0012-4.7566.9366-9.36,1.5765-13.97a48.32,48.32,0,0,0,.6139-6.93,15.9,15.9,0,0,1,.1593-1.7787,3.0715,3.0715,0,0,1,.274-.9308.7177.7177,0,0,1,.2271-.2591.4968.4968,0,0,1,.4527-.0507,1.0612,1.0612,0,0,1,.4357.3836,14.5911,14.5911,0,0,1,1.3765,3.2948c1.3928,4.5115,1.7776,9.1987,2.333,13.8253.28,2.3155.5641,4.633,1.0121,6.9134a20.4049,20.4049,0,0,0,.91,3.3413,7.4268,7.4268,0,0,0,.3495.7789,1.5168,1.5168,0,0,0,.1929.3225,1.0948,1.0948,0,0,0,.3069.1932,5.0793,5.0793,0,0,0,1.6292.3307,8.0386,8.0386,0,0,0,3.3259-.4163,1.5235,1.5235,0,0,0,.5942-.4049.447.447,0,0,0,.0236-.5149c-.0882-.174-.3091-.4484-.46-.71a8.17,8.17,0,0,1-.4173-.8148,22.4892,22.4892,0,0,1-1.3561-6.9635,59.3147,59.3147,0,0,1,.044-7.0495c.0771-1.1733.1735-2.3446.3578-3.5186a9.552,9.552,0,0,0,.199-1.6779c.0116-.5633-.012-1.1374-.0466-1.7114a131.65,131.65,0,0,0-2.0841-13.7837l-.0076-.0411,0-.0281a47.9692,47.9692,0,0,0-.637-8.2725q-.3255-2.0541-.8294-4.0775-.2541-1.01-.5623-2.0049c-.1018-.3317-.2094-.6618-.3264-.9881l-.1848-.4853-.1035-.2363-.0577-.1118-.0308-.0461c0-.0085-.0157.0074.0364-.005.031-.0294.017-.0139.017-.0139Z"/><path class="cls-2" d="M60.8842,23.6581c-.7068.32-1.4016.6021-2.0582.951a14.7654,14.7654,0,0,0-1.8543,1.17A15.7806,15.7806,0,0,0,55.3605,27.23a5.0085,5.0085,0,0,0-1.15,1.8528l-.01.0322-.0079.014a10.47,10.47,0,0,0-.9808,3.4645c-.161,1.2092-.2637,2.429-.3969,3.655a19.5641,19.5641,0,0,1-.71,3.6794,6.4728,6.4728,0,0,1-.86,1.7818,3.06,3.06,0,0,1-1.7521,1.241A3.8154,3.8154,0,0,1,47.3961,42.8a8.1307,8.1307,0,0,1-1.7574-.855,18.9,18.9,0,0,1-2.9366-2.3472,42.7121,42.7121,0,0,1-4.874-5.5564l.0757-.0666c1.77,1.7034,3.5294,3.405,5.3792,4.9676a24.2888,24.2888,0,0,0,2.901,2.1043,4.7585,4.7585,0,0,0,3.0693.88c.95-.1693,1.5876-1.22,1.9779-2.3012a24.0713,24.0713,0,0,0,.8934-3.4849l.7065-3.6125A13.343,13.343,0,0,1,53.9122,28.97l-.0172.0458a7.4623,7.4623,0,0,1,.9125-2.2006,5.9293,5.9293,0,0,1,1.6324-1.754,7.9482,7.9482,0,0,1,2.1251-1.0679c.3723-.1288.7582-.2106,1.1356-.3049.39-.0512.7747-.1069,1.1618-.1289Z"/><path class="cls-2" d="M63.4443,13.2811a11.9712,11.9712,0,0,1,2.323-1.8957,5.0528,5.0528,0,0,1,2.9936-.81,4.3219,4.3219,0,0,1,2.8051,1.51,9.9968,9.9968,0,0,1,.916,1.274l.6416,1.3963.0207.045.0034.0324a18.2719,18.2719,0,0,1-.0029,3.22,13.7945,13.7945,0,0,1-.5385,3.1549,7.9594,7.9594,0,0,1-1.5146,2.8831,6.6268,6.6268,0,0,1-2.8145,1.7894l-.0246.0091-.04.0041a6.7817,6.7817,0,0,1-2.7714-.2669,4.8146,4.8146,0,0,1-2.3507-1.5952,5.9231,5.9231,0,0,1-1.0969-2.5836c-.0808-.4527-.08-.91-.115-1.3609L61.983,18.75l.0047.0954a11.2476,11.2476,0,0,1,.1575-2.9737A4.4842,4.4842,0,0,1,63.4443,13.2811Zm.07.0727a3.529,3.529,0,0,0-1.04,2.56,9.9247,9.9247,0,0,0,.2772,2.7979l.001.0042.0039.0915.0519,1.2449c.06.403.1.8114.1818,1.2019a5.42,5.42,0,0,0,.9418,2.1063,4.2008,4.2008,0,0,0,1.84,1.3056,5.8866,5.8866,0,0,0,2.3227.3235l-.0641.0131a6.5053,6.5053,0,0,0,2.5856-1.3742,6.8135,6.8135,0,0,0,1.6407-2.5366,11.2222,11.2222,0,0,0,.2493-6.1438l.024.0771-.7449-1.2378c-.2991-.3633-.5586-.7663-.8773-1.0946a4.3131,4.3131,0,0,0-2.2551-1.3646,4.4487,4.4487,0,0,0-2.7366.3461A7.2555,7.2555,0,0,0,63.5139,13.3538Z"/><path class="cls-2" d="M73.9745,86.2808c.0793-2.8174-.1-5.64.2288-8.4555a32.4247,32.4247,0,0,0,.2627-4.2337c.0115-1.4133-.1379-2.8281-.1907-4.2413-.1094-2.8274-.17-5.65-.0256-8.48.013-1.4171.0418-2.8348.1032-4.2541.0327-.71.0706-1.42.1269-2.1317a14.1223,14.1223,0,0,1,.3013-2.2l-.0214.1418c-.103-4.9657-.2-9.9322-.2256-14.9027l.1005-.0044c.3482,4.9565.6252,9.917.896,14.8784l.002.0356-.0234.1065a15.3079,15.3079,0,0,0-.2275,2.003c-.0443.6986-.0711,1.4008-.0927,2.1035-.0393,1.4061-.0467,2.8159-.0378,4.2261.04,1.41.1118,2.8272.0818,4.241-.042,1.4142-.0629,2.8288-.1521,4.2425-.0742,1.4141-.2527,2.8264-.28,4.24a38.3476,38.3476,0,0,0,.1008,4.2463,27.8506,27.8506,0,0,1-.087,4.2494,19.0224,19.0224,0,0,1-.742,4.2121Z"/><path class="cls-2" d="M60.2757,32.329s-.0118-.0222.0116.011c.0383.0181.0538-.0029.0427.0065l-.0277.0405-.0546.1032-.0978.22-.175.4524c-.1106.3043-.2126.6121-.31.9217q-.2905.9282-.5358,1.87-.4881,1.8835-.8123,3.8028a49.6922,49.6922,0,0,0-.7372,7.7217c-.0475,1.2839.1088,2.5621.1853,3.8688l.272,3.8916c.1905,2.5926.3913,5.1874.6732,7.762.1177,1.2958.3728,2.5244.5657,3.8515.1681,1.3066.2669,2.6159.3237,3.9277a32.2881,32.2881,0,0,1-.5056,7.87,11.1728,11.1728,0,0,1-1.416,3.7484c-.4579.608-.6336.9147-.1514,1.2655a4.21,4.21,0,0,0,1.7147.5589A7.71,7.71,0,0,0,62.958,83.95a.8126.8126,0,0,0,.31-.2267c.0708-.0976.1408-.2672.2119-.3971a7.5922,7.5922,0,0,0,.3364-.8881,14.2747,14.2747,0,0,0,.4448-1.8734c.82-5.1176.5822-10.363.3792-15.5471-.05-1.3021-.1435-2.5923-.1759-3.9093a10.709,10.709,0,0,1,.1779-1.9859,4.2055,4.2055,0,0,1,.7783-1.915.9647.9647,0,0,1,.5685-.3324.7828.7828,0,0,1,.66.2609,2.4193,2.4193,0,0,1,.5026.98,9.44,9.44,0,0,1,.3109,1.9914c.0477,1.34.0779,2.5792.2382,3.8784.5655,5.145,1.7087,10.2518,1.9479,15.52a22.5611,22.5611,0,0,1-.1433,3.9823,7.1877,7.1877,0,0,1-1.537,3.8413c-.0644.0663-.1234.137-.1932.199l-.1032.0943-.0516.047-.0258.0235a.3585.3585,0,0,0,.08-.0877.4676.4676,0,0,0,.06-.1657.4237.4237,0,0,0-.0572-.3077.3207.3207,0,0,0-.1364-.1394c.0015-.0068-.0224-.0086.0123-.0006a1.5068,1.5068,0,0,0,.1725.0364,7.9,7.9,0,0,0,.9071.0749,18.1337,18.1337,0,0,0,1.8956-.0417,12.2308,12.2308,0,0,0,1.8493-.2611,3.8678,3.8678,0,0,0,.8091-.27.94.94,0,0,0,.2533-.1672.115.115,0,0,1,.0207-.0229c-.0207.0294.01.0182.0231.0046a3.4345,3.4345,0,0,1,.4908-.063l.098.0233a.6213.6213,0,0,1,.3517.4045.57.57,0,0,1-.0843.2231l-.1383.162a1.9373,1.9373,0,0,1-.5488.3791,4.8573,4.8573,0,0,1-1.0389.3444,13.2263,13.2263,0,0,1-2.0142.2707,19.106,19.106,0,0,1-2.0059.0284,8.7475,8.7475,0,0,1-1.0362-.0956,2.3611,2.3611,0,0,1-.3032-.07,1.1714,1.1714,0,0,1-.2148-.0888.6845.6845,0,0,1-.2264-.2195.6.6,0,0,1-.0693-.3676.515.515,0,0,1,.0882-.2163.8253.8253,0,0,1,.1175-.1353l.0194-.0174.0386-.0351.0777-.07c.0528-.045.0978-.1.1477-.15a6.2719,6.2719,0,0,0,1.3153-3.3045,21.6529,21.6529,0,0,0,.1659-3.8091c-.1964-5.15-1.2433-10.273-1.7331-15.4826-.13-1.29-.145-2.6555-.1492-3.9167a8.8759,8.8759,0,0,0-.2332-1.8664,1.9308,1.9308,0,0,0-.3453-.7589c-.1556-.1611-.2364-.1443-.4493.05a3.8076,3.8076,0,0,0-.6974,1.6542,10.14,10.14,0,0,0-.2163,1.8921c.0064,1.2855.0688,2.5944.116,3.8929.098,2.6021.1646,5.2076.1342,7.8142a52.5663,52.5663,0,0,1-.5154,7.8112,14.677,14.677,0,0,1-.4377,1.9262,7.962,7.962,0,0,1-.3458.9386,4.9831,4.9831,0,0,1-.2433.4645,1.19,1.19,0,0,1-.4517.3654,5.5812,5.5812,0,0,1-1.9764.4551A10.3238,10.3238,0,0,1,59.173,84.74a4.67,4.67,0,0,1-1.9764-.6069,1.1212,1.1212,0,0,1-.5427-1.1043,2.7893,2.7893,0,0,1,.496-.9681,10.5312,10.5312,0,0,0,1.2194-3.5546,35.7618,35.7618,0,0,0,.36-7.6864c-.0661-1.2877-.1794-2.5747-.3494-3.8489-.1662-1.25-.4235-2.5772-.5277-3.8776-.2583-2.6027-.433-5.2008-.5979-7.8012L57.03,51.3917c-.0437-1.2917-.17-2.61-.09-3.93a47.08,47.08,0,0,1,.9548-7.7852Q58.3,37.758,58.86,35.879c.19-.6249.3888-1.2469.6159-1.8595.1133-.3063.2317-.6108.3588-.9121l.2-.4485.1118-.2207.0654-.1091a.3579.3579,0,0,1,.0452-.0572.0738.0738,0,0,1,.0929-.012c.0388.0488.0184.0475.0258.0691Z"/><path class="cls-2" d="M60.9235,40.2825A9.2669,9.2669,0,0,0,63.69,45.821a19.8726,19.8726,0,0,0,5.0728,3.7124,10.2732,10.2732,0,0,0,6.1359,1.3053,5.3746,5.3746,0,0,0,2.8061-1.275,5.2155,5.2155,0,0,0,1.4787-2.6264,40.2053,40.2053,0,0,0,1.015-6.29c.0568-.526.1165-1.0781.1465-1.581l.0531-1.6091c.0118-.5351.0486-1.0778.04-1.6082-.0287-.5218-.07-1.0487-.1317-1.5776a11.3618,11.3618,0,0,0-2.25-5.8271,8.8466,8.8466,0,0,0-2.3969-2.06c-.4571-.2766-.9378-.5162-1.4252-.7491a4.6882,4.6882,0,0,1-1.3986-.8561l.0787-.0631a4.6571,4.6571,0,0,0,1.4042.7313c.5.2074,1.0008.4249,1.4839.6836a9.17,9.17,0,0,1,2.6046,2.0162A11.9349,11.9349,0,0,1,81.0074,34.17a21.7508,21.7508,0,0,1,.2556,3.2839l.0531,1.6346c.017.5783-.0378,1.1035-.0705,1.6545a25.6661,25.6661,0,0,1-1.2578,6.46,5.8369,5.8369,0,0,1-1.9413,2.7728,6.6329,6.6329,0,0,1-3.1025,1.1963,14.3105,14.3105,0,0,1-6.4667-1.0055A13.6193,13.6193,0,0,1,63.08,46.3715,8.2689,8.2689,0,0,1,60.8228,40.28Z"/><path class="cls-3" d="M7.621,13.4406c.1385.5215,1.7987-1.0943,5.8493-1.5439,3.9394-.4378,5.8715.65,5.7757.171-.7744-3.8848.2651-10.1409.2651-10.1409S17.81,5.8576,16.4779,7.0818c-.7933.7284-2.4365-5.155-2.7494-4.5361-.3351.6651-.954,4.8217-1.5132,4.6046-1.2414-.48-3.524-3.1257-3.524-3.1257s-.0513,3.1-.188,3.8351-4.83-2.1082-4.83-2.1082S6.1659,7.9761,7.621,13.4406Z"/><path class="cls-2" d="M7.6575,13.4309c.0184.0994.1442.074.2479.0435a3.07,3.07,0,0,0,.318-.1245l.6316-.2889c.4218-.1956.8565-.361,1.2888-.5372a15.7507,15.7507,0,0,1,2.6975-.7819,13.6492,13.6492,0,0,1,5.6213.0408c.22.0392.4719.1026.626.1147.0459.02.0086-.0562-.1151.1312-.0209.1747-.0061.021-.0226-.0176l-.0476-.3524a14.1032,14.1032,0,0,1-.1146-1.4075c-.0418-.9371-.0056-1.87.0448-2.7987.1019-1.8582.2858-3.7042.54-5.5485l.2662.0784a24.6945,24.6945,0,0,1-2.5675,4.7084,5.1711,5.1711,0,0,1-.461.5176.4243.4243,0,0,1-.5232.0443,1.1189,1.1189,0,0,1-.2915-.2727,6.6271,6.6271,0,0,1-.6793-1.1949c-.3824-.812-.7036-1.6456-1.0641-2.4464a4.5957,4.5957,0,0,0-.2891-.5607.5626.5626,0,0,0-.058-.0764.0413.0413,0,0,0,.0273.0132c.0049.004.0873.024.1231-.0054.0576-.0124.0824-.09.0635-.0451a2.2755,2.2755,0,0,0-.0949.2834c-.1143.4141-.205.8513-.3008,1.2837a19.009,19.009,0,0,1-.69,2.6208,1.8505,1.8505,0,0,1-.187.349.5708.5708,0,0,1-.2418.1995.3863.3863,0,0,1-.2591.0132A.8163.8163,0,0,1,12.04,7.373a3.303,3.303,0,0,1-.6335-.3478,10.7521,10.7521,0,0,1-1.0814-.8472,23.9273,23.9273,0,0,1-1.91-1.9149l.641-.2324L9.0207,6.3566c-.014.3892-.04.7763-.0774,1.1746l-.0391.3109-.013.0815a.6851.6851,0,0,1-.1091.2427.6035.6035,0,0,1-.3866.2A1.86,1.86,0,0,1,7.66,8.2406,15.4464,15.4464,0,0,1,5.5083,7.2268c-.6761-.39-1.3355-.7955-1.9914-1.2171l.3573-.4833A10.3462,10.3462,0,0,1,5.2151,7.3335,18.3792,18.3792,0,0,1,6.2306,9.2919c.2939.672.5537,1.3557.8,2.0426C7.2731,12.0236,7.4731,12.7257,7.6575,13.4309Zm-.073.0194A20.0572,20.0572,0,0,0,5.9973,9.4059,16.68,16.68,0,0,0,4.8587,7.5692,10.2225,10.2225,0,0,0,3.4721,5.9767l-2.027-1.81L3.83,5.4934c.668.3715,1.349.7324,2.0332,1.0711a15.603,15.603,0,0,0,2.0417.937,1.5013,1.5013,0,0,0,.395.0868c-.0059,0-.0568-.0008-.1283.0835a.187.187,0,0,0-.0536.11L8.1261,7.72l.03-.2637c.0331-.37.0462-.7541.0678-1.1356l.103-2.3022.0417-.936.5992.7036c.5645.663,1.1735,1.3061,1.795,1.9155a10.1557,10.1557,0,0,0,.9782.8416,3.1916,3.1916,0,0,0,.5161.3213c.0132.0072.0612.0319.0464.0247a.1623.1623,0,0,0-.0968.0027c-.0374.0214-.0123.0084.0056-.0158a1.39,1.39,0,0,0,.13-.2359,18.9184,18.9184,0,0,0,.7142-2.5164c.1054-.4328.204-.8645.335-1.3044a2.6254,2.6254,0,0,1,.1256-.3449.3558.3558,0,0,1,.1624-.1724.2911.2911,0,0,1,.3018.0527.7762.7762,0,0,1,.1506.1815,4.852,4.852,0,0,1,.3136.6267c.3561.8253.6636,1.6556,1.0285,2.4565a6.3554,6.3554,0,0,0,.6179,1.1276.7935.7935,0,0,0,.1863.1859c.0715.0316.0368.0324.0835.0054a4.8222,4.8222,0,0,0,.4316-.4708,23.9589,23.9589,0,0,0,2.59-4.5964l.4431-.96L19.6489,1.95a36.07,36.07,0,0,0-.5215,5.5121,23.57,23.57,0,0,0,.1184,2.7571c.0462.455.103.91.1935,1.3534l.0658.3332a.5859.5859,0,0,1,.0074.3251.3807.3807,0,0,1-.2526.23.6766.6766,0,0,1-.163.0251,4.3022,4.3022,0,0,1-.7476-.086,20.2338,20.2338,0,0,0-5.44-.1938,14.93,14.93,0,0,0-2.7034.5023,11.401,11.401,0,0,0-1.3022.466l-.642.2671a3.1051,3.1051,0,0,1-.3332.1169C7.8376,13.5872,7.628,13.6272,7.5845,13.45Z"/><circle class="cls-3" cx="1.0758" cy="3.8776" r="0.8327"/><path class="cls-2" d="M1.9462,3.8775a1.7406,1.7406,0,0,1-.114.7565.714.714,0,0,1-.7565.39A1.1511,1.1511,0,0,1,.4,4.553a1.7754,1.7754,0,0,1-.364-.6755A1.0335,1.0335,0,0,1,1.0757,2.6422a.8529.8529,0,0,1,.7646.4709A1.7036,1.7036,0,0,1,1.9462,3.8775Zm-.0754,0a.4479.4479,0,0,0-.3817-.4131,1.7515,1.7515,0,0,0-.4134-.017.6879.6879,0,0,0-.6259.43A.4274.4274,0,0,0,.5736,4.38a.5138.5138,0,0,0,.5021.0163,2.1262,2.1262,0,0,1,.4215-.0972A.45.45,0,0,0,1.8708,3.8775Z"/><circle class="cls-3" cx="8.1614" cy="2.7218" r="0.8327"/><path class="cls-2" d="M9.0317,2.7218a1.7385,1.7385,0,0,1-.114.7564.7139.7139,0,0,1-.7564.3906,1.1515,1.1515,0,0,1-.6754-.4716,1.7742,1.7742,0,0,1-.364-.6754A1.0336,1.0336,0,0,1,8.1613,1.4865a.8526.8526,0,0,1,.7645.4709A1.702,1.702,0,0,1,9.0317,2.7218Zm-.0754,0a.4482.4482,0,0,0-.3817-.4131,1.74,1.74,0,0,0-.4133-.017.6877.6877,0,0,0-.626.43.4272.4272,0,0,0,.1239.5024.5143.5143,0,0,0,.5021.0162,2.1234,2.1234,0,0,1,.4214-.0972A.45.45,0,0,0,8.9563,2.7218Z"/><path class="cls-3" d="M14.6912,2.2123a.8328.8328,0,1,1-.8327-.8327A.8325.8325,0,0,1,14.6912,2.2123Z"/><path class="cls-2" d="M14.729,2.2124a1.7363,1.7363,0,0,1-.1143.7563.7138.7138,0,0,1-.7564.39,1.15,1.15,0,0,1-.6751-.4715,1.7669,1.7669,0,0,1-.364-.6754A1.0331,1.0331,0,0,1,13.8585.977a.8533.8533,0,0,1,.7646.4709A1.7109,1.7109,0,0,1,14.729,2.2124Zm-.0757,0a.4478.4478,0,0,0-.3817-.4132,1.7426,1.7426,0,0,0-.4131-.0169.6875.6875,0,0,0-.6259.43.4266.4266,0,0,0,.1236.5022.5142.5142,0,0,0,.5023.0163,2.1114,2.1114,0,0,1,.4212-.0971A.45.45,0,0,0,14.6533,2.2124Z"/><path class="cls-3" d="M20.8465,1.2359a.8328.8328,0,1,1-.8327-.8325A.8327.8327,0,0,1,20.8465,1.2359Z"/><path class="cls-2" d="M20.8841,1.2359a1.7345,1.7345,0,0,1-.114.7564.7138.7138,0,0,1-.7563.3905,1.1508,1.1508,0,0,1-.6753-.4715,1.7709,1.7709,0,0,1-.3642-.6752A1.0335,1.0335,0,0,1,20.0136.0007a.8531.8531,0,0,1,.7646.4707A1.7038,1.7038,0,0,1,20.8841,1.2359Zm-.0755,0A.4477.4477,0,0,0,20.427.8228,1.75,1.75,0,0,0,20.0136.806a.6881.6881,0,0,0-.626.43.4277.4277,0,0,0,.1239.5024.5146.5146,0,0,0,.5023.0161,2.126,2.126,0,0,1,.4213-.0972A.45.45,0,0,0,20.8086,1.2359Z"/><path class="cls-2" d="M8.4935,12.0961a5.1368,5.1368,0,0,1,2.3891-1.2549c.4485-.0789.9093-.0851,1.35-.1554a10.6243,10.6243,0,0,0,1.3067-.3135,7.0065,7.0065,0,0,1,5.3121.4208l-.0181.0733c-.9187.0441-1.771-.0182-2.6353-.0073l-1.2925-.0538c-.4313.0195-.869-.02-1.3109-.0234a4.4324,4.4324,0,0,0-1.3094.1431,9.915,9.915,0,0,0-1.2195.5172,14.9075,14.9075,0,0,1-2.5357.72Z"/></g></g></g></svg>