<svg xmlns="http://www.w3.org/2000/svg" viewBox="0 0 85.3734 46.0932"><defs><style>.cls-1{font-size:4.7476px;font-family:DBOffice-Regular, DB Office;}.cls-1,.cls-3{fill:#0087b9;}.cls-2{fill:#575756;}</style></defs><title>Element 1</title><g id="Ebene_2" data-name="Ebene 2"><g id="Ebene_1-2" data-name="Ebene 1"><g id="Illustrationen"><text class="cls-1" transform="translate(33.441 18.8755)">SUCHE...</text><path class="cls-2" d="M69.9724.332,58.167.3842,46.3615.5056Q34.5561.64,22.7505.5816L16.8478.5442a1.7808,1.7808,0,0,0-1.8389,1.5185c-.045.9216-.0258,1.95-.0423,2.92L14.89,16.7884c-.0547,7.87.0375,15.7406.0547,23.611l-.1769-.1769,28.6061-.1492c9.5354-.0419,19.0707-.0308,28.6061-.0159l-.342.342.0543-10.3116.1039-10.3116.1073-10.3115.0213-5.1558L71.93,3.02a4.8413,4.8413,0,0,0-.0753-1.2685A1.98,1.98,0,0,0,69.9724.332Zm0-.0678A2.0587,2.0587,0,0,1,71.94,1.7263,4.907,4.907,0,0,1,72.03,3.02l.0053,1.289.0213,5.1558.1072,10.3115.104,10.3116.0543,10.3116.0018.3415-.3439.0006c-9.5354.0149-19.0707.0259-28.6061-.016l-28.6061-.1491-.1774-.001,0-.176c.0172-7.87.1094-15.7407.0547-23.611L14.5684,4.9829c.002-.9967-.0385-1.9386-.001-2.98A2.2221,2.2221,0,0,1,15.3329.59,2.2852,2.2852,0,0,1,16.8478.052L22.7505.0146q11.8054-.048,23.611.0759L58.167.212Z"/><path class="cls-2" d="M10.7436,44.7672l8.6853-.0448,8.6853-.1135c2.8951-.0436,5.79-.0781,8.6853-.0877q4.3426-.04,8.6853-.0108c5.79.0085,11.5805.1025,17.3706.1528l8.6853.0352,4.3427-.0134a7.6913,7.6913,0,0,0,2.1179-.2152,1.4579,1.4579,0,0,0,.8235-.5248.829.829,0,0,0,.1279-.4459l-.0035-.5414h.2685l.007.8364h-.2825l-.0185-2.1956.16.16-17.8549.1427-17.8548.0545c-5.9517-.0183-11.9033.01-17.8549-.0618L7.664,41.6707l.0722-.0722-.0116,2.1956H7.6033l.0044-.8364H7.72a1.9265,1.9265,0,0,0,.1248,1.0039,1.4241,1.4241,0,0,0,.8225.5642A7.19,7.19,0,0,0,10.7436,44.7672Zm0,.0678A7.2552,7.2552,0,0,1,8.64,44.6116a1.5155,1.5155,0,0,1-.8817-.5978,2.0124,2.0124,0,0,1-.15-1.0561H7.72l.0044.8364H7.6033l-.0116-2.1956,0-.0714.0727-.0009,17.8548-.2229c5.9516-.0712,11.9032-.0434,17.8549-.0618l17.8548.0545,17.8549.1427.1611.0013-.0013.1585-.0185,2.1956h-.2825l.007-.8364h.2685l-.0057.5442a1.1106,1.1106,0,0,1-.1754.58,1.6917,1.6917,0,0,1-.9646.6228,7.8939,7.8939,0,0,1-2.1886.2122l-4.3427-.0134-8.6853.0351c-5.79.05-11.58.1444-17.3706.1529q-4.3426.0253-8.6853-.0108c-2.8951-.01-5.79-.0441-8.6853-.0877L19.4289,44.88Z"/><path class="cls-2" d="M36.6939,41.5985l.0448.9172h-.09l-.0147-.1563h.1192c-.0392.2952.3277.2252.5884.215.2872-.0244.5745-.0473.8617-.0617.5744-.0375,1.1489-.0605,1.7234-.0842,1.1489-.0438,2.2978-.0584,3.4467-.0633,1.1489.0042,2.2978.0187,3.4467.0622.5745.0241,1.1489.0466,1.7234.0844.2872.0146.5744.037.8617.0618.2608.01.627.0806.5881-.2142h.12l-.0148.1563h-.09l.0451-.9172.0451.9172h-.09l-.0148-.1563h.12a.3738.3738,0,0,1-.0332.2545.4251.4251,0,0,1-.2225.1489,1.9238,1.9238,0,0,1-.4522.0718c-.2873.0248-.5745.0473-.8617.0618-.5745.0378-1.1489.06-1.7234.0844-1.1489.0435-2.2978.0581-3.4467.0622-1.1489-.0049-2.2978-.02-3.4467-.0633-.5745-.0236-1.149-.0466-1.7234-.0841-.2872-.0144-.5745-.0373-.8617-.0617a1.9251,1.9251,0,0,1-.452-.0716.4237.4237,0,0,1-.2224-.1486.3738.3738,0,0,1-.0332-.2543h.1192l-.0147.1563h-.09Z"/><path class="cls-2" d="M16.9114,38.8107l-.1938-18.093L16.6319,2.4684l-.0014-.3046.3049.001c4.4064.0156,8.8128.0116,13.2191.0609l13.2192.1106c4.4064.0131,8.8128.045,13.2191.0085L69.812,2.2826l.1844-.0008.0013.1866.1205,18.1591.0533,18.1591.0011.36-.3606-.0006-13.2836-.0217c-4.4311.0021-8.847-.0535-13.26-.0842Zm.048-.048,26.5193-.23c4.4-.0307,8.7968-.0863,13.1785-.0841l13.1548-.0218-.3595.3594.0533-18.1591.1205-18.1591.1857.1855L56.5928,2.5918C52.1865,2.5553,47.78,2.5872,43.3737,2.6l-13.2192.1107c-4.4063.0493-8.8127.0453-13.2191.0609l.3035-.3034-.0858,18.0689Z"/><path class="cls-3" d="M57.4456,23.0275l-6.7061.1384c-2.2687.0133-4.5271.0633-6.8169.0463-2.28.0062-4.5811-.06-6.8579-.0947s-4.5449-.0356-6.8152-.0134l-.0931.0009-.0015-.0956-.0446-2.87-.0022-.1374L30.25,20l6.7945-.095c2.2649-.0089,4.53-.0461,6.7945-.0318q6.7945.0015,13.589.1571l.1125.0026-.0033.1065Zm-.0359-.036-.091-2.8525.1088.1089q-6.7944.1584-13.589.1571c-2.2648.0143-4.53-.0229-6.7945-.0318L30.25,20.2781l.1393-.1391-.0447,2.87-.0946-.0945c2.2595.0222,4.5224.02,6.774-.0134s4.4817-.101,6.7312-.0947c2.24-.017,4.5111.0329,6.772.0462Z"/><path class="cls-3" d="M31.2859,20.6275A2.0194,2.0194,0,0,1,31.54,21.65a1.9979,1.9979,0,0,1-.2542,1.0222,1.9959,1.9959,0,0,1-.2542-1.0222A2.0194,2.0194,0,0,1,31.2859,20.6275Z"/><path class="cls-3" d="M0,45.7545c7.1145-.14,14.2289-.2054,21.3434-.26l21.3433-.079,21.3434.0779,10.6717.0946,10.6716.1662-10.6716.1662L64.03,46.0154l-21.3434.0778-21.3433-.079C14.2289,45.96,7.1145,45.8944,0,45.7545Z"/></g></g></g></svg>