<svg xmlns="http://www.w3.org/2000/svg" viewBox="0 0 76.5941 65.3589"><defs><style>.cls-1,.cls-6,.cls-7{fill:#0087b9;}.cls-2{fill:#fff;}.cls-3{fill:#575756;}.cls-4{fill:#6d757b;}.cls-5{fill:#e20613;}.cls-6,.cls-7{font-size:4.7476px;font-family:DBOffice-Regular, DB Office;}.cls-6,.cls-8{letter-spacing:-0.034em;}.cls-7{letter-spacing:-0.1448em;}</style></defs><title>Element 40</title><g id="Ebene_2" data-name="Ebene 2"><g id="Ebene_1-2" data-name="Ebene 1"><g id="Illustrationen"><path class="cls-1" d="M21.455,33.4139a80.4434,80.4434,0,0,1-.2482-8.2631c.0485-1.3771.1472-2.7544.1722-4.1315.02-1.3772-.0175-2.7544-.0757-4.1315-.1286-2.7544-.1743-5.5087-.176-8.2631C21.1614,5.87,21.24,3.116,21.455.3616h.0679c.2153,2.7544.2937,5.5088.3277,8.2631-.0015,2.7544-.0472,5.5087-.176,8.2631-.0581,1.3771-.0956,2.7543-.0757,4.1315.025,1.3771.1239,2.7544.1724,4.1315a80.4153,80.4153,0,0,1-.2484,8.2631Z"/><path class="cls-2" d="M23.6641,6.4a.872.872,0,0,1-.8723.8736H18.9669A.872.872,0,0,1,18.0945,6.4h0a.8718.8718,0,0,1,.8724-.8723h3.8249a.8717.8717,0,0,1,.8723.8723Z"/><path class="cls-3" d="M23.69,6.4a1.0184,1.0184,0,0,1-.3442.7587,1.2982,1.2982,0,0,1-.8239.2746,8.8988,8.8988,0,0,1-1.6415.052c-.5472-.0364-1.0945-.11-1.6415-.1292a1.3506,1.3506,0,0,1-.8357-.1807,1.0214,1.0214,0,0,1-.0692-1.642,1.0582,1.0582,0,0,1,.4585-.2152,3.1156,3.1156,0,0,1,.4452-.03c.5473-.0175,1.0943-.0389,1.6416-.032A13.6247,13.6247,0,0,1,22.52,5.36a1.3263,1.3263,0,0,1,.8264.2782A1.0106,1.0106,0,0,1,23.69,6.4Zm-.051,0a.7546.7546,0,0,0-.375-.6474,1.0545,1.0545,0,0,0-.7431-.0575,13.6041,13.6041,0,0,1-1.6416.1038c-.5473.007-1.0943-.0144-1.6416-.032a1.0291,1.0291,0,0,0-.6655.0922.7191.7191,0,0,0-.0672,1.1768.9818.9818,0,0,0,.7339.1552c.547-.0187,1.0943-.0928,1.6415-.1292a8.8988,8.8988,0,0,1,1.6415.0521,1.0673,1.0673,0,0,0,.7454-.0626A.7527.7527,0,0,0,23.6385,6.4Z"/><path class="cls-2" d="M23.6641,14.621a.8725.8725,0,0,1-.8723.8736H18.9669a.8725.8725,0,0,1-.8724-.8736h0a.8718.8718,0,0,1,.8724-.8724h3.8249a.8718.8718,0,0,1,.8723.8724Z"/><path class="cls-3" d="M23.69,14.6209a1.0186,1.0186,0,0,1-.3444.7586,1.2978,1.2978,0,0,1-.8237.2747,8.8914,8.8914,0,0,1-1.6416.052c-.5471-.0364-1.0944-.11-1.6414-.1291a1.35,1.35,0,0,1-.8357-.1809,1.0213,1.0213,0,0,1-.0691-1.6419,1.0563,1.0563,0,0,1,.4585-.2151,3.0861,3.0861,0,0,1,.4453-.03c.5471-.0176,1.0943-.0389,1.6414-.0321a13.6645,13.6645,0,0,1,1.6416.1039,1.3267,1.3267,0,0,1,.8264.2782A1.0107,1.0107,0,0,1,23.69,14.6209Zm-.051,0a.754.754,0,0,0-.375-.6473,1.054,1.054,0,0,0-.7431-.0576,13.6234,13.6234,0,0,1-1.6416.1039c-.5471.0069-1.0943-.0144-1.6414-.0321a1.0306,1.0306,0,0,0-.6657.0922.7191.7191,0,0,0-.0672,1.1768.9816.9816,0,0,0,.7339.1553c.547-.0187,1.0943-.0928,1.6414-.1292a8.9,8.9,0,0,1,1.6416.052,1.066,1.066,0,0,0,.7453-.0627A.7529.7529,0,0,0,23.6385,14.6209Z"/><path class="cls-2" d="M23.6641,23.1326a.8725.8725,0,0,1-.8723.8736H18.9669a.8725.8725,0,0,1-.8724-.8736h0a.8718.8718,0,0,1,.8724-.8724h3.8249a.8718.8718,0,0,1,.8723.8724Z"/><path class="cls-3" d="M23.69,23.1325a1.0186,1.0186,0,0,1-.3444.7586,1.2978,1.2978,0,0,1-.8237.2747,8.8914,8.8914,0,0,1-1.6416.052c-.5471-.0364-1.0944-.11-1.6414-.1292a1.3491,1.3491,0,0,1-.8357-.1808,1.0213,1.0213,0,0,1-.0691-1.6419,1.0563,1.0563,0,0,1,.4585-.2151,3.0861,3.0861,0,0,1,.4453-.03c.5471-.0176,1.0943-.0389,1.6414-.0321a13.6439,13.6439,0,0,1,1.6416.1039,1.3267,1.3267,0,0,1,.8264.2782A1.0107,1.0107,0,0,1,23.69,23.1325Zm-.051,0a.754.754,0,0,0-.375-.6473,1.054,1.054,0,0,0-.7431-.0576,13.6234,13.6234,0,0,1-1.6416.1039c-.5471.0069-1.0943-.0144-1.6414-.0321a1.0306,1.0306,0,0,0-.6657.0922.719.719,0,0,0-.0672,1.1767.9812.9812,0,0,0,.7339.1554c.547-.0187,1.0943-.0928,1.6414-.1293a8.909,8.909,0,0,1,1.6416.0521,1.066,1.066,0,0,0,.7453-.0627A.7529.7529,0,0,0,23.6385,23.1325Z"/><path class="cls-2" d="M23.6641,31.5719a.8728.8728,0,0,1-.8723.8736H18.9669a.8729.8729,0,0,1-.8724-.8736h0a.8717.8717,0,0,1,.8724-.8722h3.8249a.8717.8717,0,0,1,.8723.8722Z"/><path class="cls-4" d="M23.69,31.5719a1.0192,1.0192,0,0,1-.3445.7585,1.2976,1.2976,0,0,1-.8238.2748,8.8977,8.8977,0,0,1-1.6414.052c-.5471-.0364-1.0944-.1105-1.6414-.1292a1.3486,1.3486,0,0,1-.8357-.181,1.0212,1.0212,0,0,1-.0691-1.6418,1.0575,1.0575,0,0,1,.4587-.215,3.1116,3.1116,0,0,1,.4451-.03c.5472-.0176,1.0943-.0389,1.6414-.032a13.6438,13.6438,0,0,1,1.6416.1038,1.3269,1.3269,0,0,1,.8264.2782A1.0106,1.0106,0,0,1,23.69,31.5719Zm-.051,0a.7543.7543,0,0,0-.375-.6473,1.054,1.054,0,0,0-.7431-.0575,13.6645,13.6645,0,0,1-1.6416.1039c-.5471.0068-1.0942-.0145-1.6414-.0321a1.0292,1.0292,0,0,0-.6655.0921.7187.7187,0,0,0-.0672,1.1766.9805.9805,0,0,0,.7337.1555c.547-.0187,1.0943-.0928,1.6414-.1292a8.889,8.889,0,0,1,1.6414.052,1.0664,1.0664,0,0,0,.7453-.0627A.7533.7533,0,0,0,23.6385,31.5719Z"/><path class="cls-1" d="M43.8121,54.5948a48.5,48.5,0,0,1-5.497.1862c-.9162-.0364-1.8323-.1105-2.7485-.1292-.9162-.0149-1.8323.0131-2.7485.0568a81.4985,81.4985,0,0,1-10.994-.1138v-.0509a81.4821,81.4821,0,0,1,10.994-.1138c.9162.0436,1.8323.0717,2.7485.0568.9162-.0187,1.8323-.0928,2.7485-.1292a48.4772,48.4772,0,0,1,5.497.1862Z"/><path class="cls-3" d="M54.5652,22.2842c-4.3146.1163-8.7393.2039-13.1919.2392-2.221.0344-4.4612.0255-6.6949.0131l-6.6912-.119-.1612-.0029L27.83,22.26c.028-1.1155.029-2.2309.0394-3.3465s.0212-2.2309.0085-3.3463c-.0046-2.2309-.0364-4.4619-.0763-6.6928l-.0032-.1816.1889-.0041c4.4257-.0959,8.8512-.1275,13.2769-.156,2.2129-.0237,4.4257-.0158,6.6386-.0082,2.2128.0049,4.4257.0067,6.6385.0427l.3108.0051-.0036.3021c-.0277,2.2662-.057,4.5334-.1171,6.7715Zm-.048-.048-.1661-6.7475c-.06-2.2237-.0892-4.4184-.1171-6.6141l.3072.3071c-2.2128.036-4.4257.0378-6.6385.0427-2.2129.0076-4.4257.0155-6.6386-.0082-4.4257-.0284-8.8512-.06-13.2769-.1559l.1857-.1857c-.04,2.2309-.0717,4.4619-.0764,6.6928-.0129,1.1154-.0008,2.2309.0085,3.3463s.0114,2.231.0394,3.3465l-.1572-.1573,6.5858-.119c2.1919-.0124,4.3775-.0212,6.5822.0131C45.5539,22.0324,49.9806,22.12,54.5172,22.2362Z"/><polygon class="cls-2" points="0.028 35.047 5.703 63.492 26.655 59.418 21.708 30.682 0.028 35.047"/><path class="cls-3" d="M.0565,35.0661l1.5662,7.1666,1.5085,7.09c.4838,2.3549.9949,4.7063,1.4515,7.0561.4657,2.3507.9211,4.7031,1.3466,7.0687l-.27-.1814c3.5031-.6222,7.006-1.2457,10.5-1.9162l5.2354-1.0323,5.2268-1.0755-.1427.2069Q25.1329,52.2834,23.86,45.1057c-.8642-4.7824-1.68-9.5732-2.4894-14.3651l.4055.278c-3.5746.71-7.1634,1.3714-10.7706,2.05ZM0,35.0284l10.7311-2.3678c3.6194-.7759,7.2573-1.5692,10.9094-2.3142l.3445-.07.0611.3482c.8394,4.7867,1.6728,9.5745,2.4575,14.3706q1.2105,7.1884,2.3289,14.3927l.0275.176-.1706.0313-5.2491.9614L16.2,61.561c-3.49.6875-6.9715,1.422-10.4524,2.1579l-.2206.0466-.05-.2281c-.52-2.3754-1.0107-4.7637-1.4907-7.1538C3.4966,53.9925,3.062,51.603,2.6,49.2171L1.271,42.0843Z"/><path class="cls-3" d="M8.2783,36.4444a1.2365,1.2365,0,0,1-.0845.7529.8188.8188,0,0,1-.66.4542,1.071,1.071,0,0,1-.7443-.2492,1.2143,1.2143,0,0,1-.4372-.6254,1.0114,1.0114,0,0,1,.8124-1.2594.9033.9033,0,0,1,.7837.2421A1.2383,1.2383,0,0,1,8.2783,36.4444Zm-.0335.0058A.6973.6973,0,0,0,7.82,35.942a1.0385,1.0385,0,0,0-.5931-.0681.8493.8493,0,0,0-.6913.8714.7066.7066,0,0,0,.3176.5672.7705.7705,0,0,0,.6327.0609,1.3255,1.3255,0,0,0,.534-.2989A.6975.6975,0,0,0,8.2448,36.45Z"/><path class="cls-3" d="M8.7923,39.4157a1.2453,1.2453,0,0,1-.083.7526.8166.8166,0,0,1-.6584.4563,1.0765,1.0765,0,0,1-.7442-.2478,1.21,1.21,0,0,1-.4382-.6243,1.01,1.01,0,0,1,.8089-1.2605.903.903,0,0,1,.7839.24A1.2342,1.2342,0,0,1,8.7923,39.4157Zm-.0335.0058a.6953.6953,0,0,0-.4257-.5068,1.0386,1.0386,0,0,0-.5931-.0665.8482.8482,0,0,0-.6887.8723.7045.7045,0,0,0,.3186.5663.7745.7745,0,0,0,.6329.06,1.3118,1.3118,0,0,0,.5321-.3A.7.7,0,0,0,8.7588,39.4215Z"/><path class="cls-3" d="M9.3188,42.4625a1.24,1.24,0,0,1-.0831.7525.8177.8177,0,0,1-.659.455,1.0732,1.0732,0,0,1-.7442-.2488,1.2171,1.2171,0,0,1-.4376-.6247,1.0107,1.0107,0,0,1,.8112-1.26.9047.9047,0,0,1,.7834.241A1.2309,1.2309,0,0,1,9.3188,42.4625Zm-.0334.0057a.6939.6939,0,0,0-.4244-.5077,1.0426,1.0426,0,0,0-.5933-.0672.849.849,0,0,0-.69.8712.7078.7078,0,0,0,.3181.5668.7721.7721,0,0,0,.6325.0606,1.32,1.32,0,0,0,.5332-.2992A.6993.6993,0,0,0,9.2854,42.4682Z"/><path class="cls-3" d="M9.8917,45.7687a1.2377,1.2377,0,0,1-.0833.7528.8159.8159,0,0,1-.6593.4549,1.0717,1.0717,0,0,1-.7443-.2481,1.2149,1.2149,0,0,1-.4376-.6249,1.0111,1.0111,0,0,1,.8108-1.26.9051.9051,0,0,1,.7839.241A1.2349,1.2349,0,0,1,9.8917,45.7687Zm-.0334.0059a.6958.6958,0,0,0-.4247-.5079A1.0444,1.0444,0,0,0,8.84,45.2a.8494.8494,0,0,0-.69.8719.7064.7064,0,0,0,.3181.567.7708.7708,0,0,0,.633.06,1.31,1.31,0,0,0,.5331-.2991A.6981.6981,0,0,0,9.8583,45.7746Z"/><path class="cls-3" d="M10.4461,48.9691a1.2387,1.2387,0,0,1-.084.7525.8181.8181,0,0,1-.6591.4545,1.0713,1.0713,0,0,1-.744-.2487,1.2167,1.2167,0,0,1-.4371-.625,1.01,1.01,0,0,1,.8117-1.2588.9024.9024,0,0,1,.7833.2409A1.2363,1.2363,0,0,1,10.4461,48.9691Zm-.0334.0058a.697.697,0,0,0-.4244-.5079A1.0374,1.0374,0,0,0,9.3951,48.4a.8483.8483,0,0,0-.69.8707.707.707,0,0,0,.3176.567.7705.7705,0,0,0,.6324.06,1.3221,1.3221,0,0,0,.5333-.2991A.698.698,0,0,0,10.4127,48.9749Z"/><path class="cls-3" d="M11.0217,52.2894a1.2419,1.2419,0,0,1-.0848.7525.82.82,0,0,1-.6584.4565,1.0732,1.0732,0,0,1-.7443-.2492,1.216,1.216,0,0,1-.4369-.625,1.0087,1.0087,0,0,1,.81-1.26.906.906,0,0,1,.7834.2409A1.2367,1.2367,0,0,1,11.0217,52.2894Zm-.0335.0058a.6962.6962,0,0,0-.4254-.5074,1.046,1.046,0,0,0-.5939-.067.8461.8461,0,0,0-.6888.8711.7063.7063,0,0,0,.3176.5674.7721.7721,0,0,0,.6325.061,1.3335,1.3335,0,0,0,.5327-.301A.7.7,0,0,0,10.9882,52.2952Z"/><path class="cls-3" d="M11.6469,55.9024a1.2463,1.2463,0,0,1-.0846.7527.8175.8175,0,0,1-.6589.4555,1.072,1.072,0,0,1-.7444-.2482,1.2125,1.2125,0,0,1-.4367-.6256,1.0113,1.0113,0,0,1,.81-1.2605.9018.9018,0,0,1,.7839.2418A1.2477,1.2477,0,0,1,11.6469,55.9024Zm-.0334.0058a.7017.7017,0,0,0-.4258-.5078,1.0356,1.0356,0,0,0-.5927-.0678.85.85,0,0,0-.69.8726.7059.7059,0,0,0,.3171.5674.7719.7719,0,0,0,.6329.06,1.3175,1.3175,0,0,0,.5332-.3A.7021.7021,0,0,0,11.6135,55.9082Z"/><path class="cls-3" d="M12.1966,59.0782a1.2386,1.2386,0,0,1-.0842.7527.8182.8182,0,0,1-.6594.4544,1.0715,1.0715,0,0,1-.7441-.2488,1.2167,1.2167,0,0,1-.4372-.6251,1.0089,1.0089,0,0,1,.8114-1.2587.9025.9025,0,0,1,.7837.2411A1.2367,1.2367,0,0,1,12.1966,59.0782Zm-.0334.0058a.6967.6967,0,0,0-.4249-.5077,1.0356,1.0356,0,0,0-.5929-.0672.8455.8455,0,0,0-.6907.87.706.706,0,0,0,.3174.5672.7716.7716,0,0,0,.6327.0606,1.3243,1.3243,0,0,0,.5337-.2991A.6984.6984,0,0,0,12.1632,59.084Z"/><path class="cls-3" d="M11.1561,35.6289a1.24,1.24,0,0,1-.0712.7541.8191.8191,0,0,1-.6517.466,1.074,1.074,0,0,1-.7483-.2363,1.2179,1.2179,0,0,1-.4485-.6174,1.0107,1.0107,0,0,1,.79-1.2732.9044.9044,0,0,1,.7879.228A1.2383,1.2383,0,0,1,11.1561,35.6289Zm-.0334.0063a.6972.6972,0,0,0-.4337-.5,1.0419,1.0419,0,0,0-.5944-.0576.849.849,0,0,0-.6759.8831.7073.7073,0,0,0,.328.5614.7724.7724,0,0,0,.6337.05,1.3252,1.3252,0,0,0,.5285-.3084A.6981.6981,0,0,0,11.1227,35.6352Z"/><path class="cls-3" d="M11.7211,38.5921a1.2435,1.2435,0,0,1-.0706.754A.8173.8173,0,0,1,11,39.8135a1.0767,1.0767,0,0,1-.7482-.2362,1.2162,1.2162,0,0,1-.4493-.6168,1.01,1.01,0,0,1,.789-1.2736.9038.9038,0,0,1,.7877.2268A1.2326,1.2326,0,0,1,11.7211,38.5921Zm-.0333.0064a.6958.6958,0,0,0-.434-.5,1.0406,1.0406,0,0,0-.5946-.0563.8478.8478,0,0,0-.6747.8833.7066.7066,0,0,0,.3285.5608.7758.7758,0,0,0,.634.05,1.32,1.32,0,0,0,.5272-.3093A.7006.7006,0,0,0,11.6878,38.5985Z"/><path class="cls-3" d="M12.2993,41.6289a1.24,1.24,0,0,1-.0707.754.8176.8176,0,0,1-.6514.4662,1.075,1.075,0,0,1-.7483-.2361,1.2138,1.2138,0,0,1-.448-.6176,1.01,1.01,0,0,1,.79-1.2734.9047.9047,0,0,1,.7875.228A1.232,1.232,0,0,1,12.2993,41.6289Zm-.0333.0063a.695.695,0,0,0-.4333-.5,1.0417,1.0417,0,0,0-.5945-.0573.8488.8488,0,0,0-.675.8832.706.706,0,0,0,.3275.5614.7737.7737,0,0,0,.6338.05,1.3171,1.3171,0,0,0,.5279-.3084A.6994.6994,0,0,0,12.266,41.6352Z"/><path class="cls-3" d="M14.8552,55.0278a1.2442,1.2442,0,0,1-.0722.754.8174.8174,0,0,1-.6509.4669,1.072,1.072,0,0,1-.7484-.2363,1.2153,1.2153,0,0,1-.4471-.6183,1.0105,1.0105,0,0,1,.7892-1.2736.903.903,0,0,1,.7877.2285A1.245,1.245,0,0,1,14.8552,55.0278Zm-.0333.0064a.7.7,0,0,0-.4339-.5006,1.04,1.04,0,0,0-.5942-.058.8483.8483,0,0,0-.6747.8838.706.706,0,0,0,.3265.5621.7711.7711,0,0,0,.6337.05,1.3188,1.3188,0,0,0,.5276-.3091A.701.701,0,0,0,14.8219,55.0342Z"/><path class="cls-3" d="M15.505,58.2978a1.237,1.237,0,0,1-.0709.754.8185.8185,0,0,1-.6516.4661,1.0715,1.0715,0,0,1-.7482-.2365,1.2175,1.2175,0,0,1-.4478-.6178,1.0107,1.0107,0,0,1,.79-1.2734.905.905,0,0,1,.7877.2284A1.2391,1.2391,0,0,1,15.505,58.2978Zm-.0333.0063a.697.697,0,0,0-.4332-.5008,1.0421,1.0421,0,0,0-.5942-.0578.8488.8488,0,0,0-.6755.8832.7078.7078,0,0,0,.3274.5618.7711.7711,0,0,0,.6335.05,1.3214,1.3214,0,0,0,.5282-.3085A.6977.6977,0,0,0,15.4717,58.3041Z"/><path class="cls-3" d="M18.4311,57.7321a1.2359,1.2359,0,0,1-.071.7539.8182.8182,0,0,1-.6514.4663,1.0734,1.0734,0,0,1-.7481-.2369,1.2167,1.2167,0,0,1-.4479-.6175,1.0107,1.0107,0,0,1,.79-1.2732.9031.9031,0,0,1,.7876.2284A1.2372,1.2372,0,0,1,18.4311,57.7321Zm-.0332.0064a.6976.6976,0,0,0-.4332-.5008,1.041,1.041,0,0,0-.5941-.0578.8488.8488,0,0,0-.6756.8831.7075.7075,0,0,0,.3275.5615.7722.7722,0,0,0,.6336.05,1.3238,1.3238,0,0,0,.528-.3086A.697.697,0,0,0,18.3979,57.7385Z"/><path class="cls-3" d="M21.4911,57.2182a1.236,1.236,0,0,1-.0709.7539.8182.8182,0,0,1-.6512.4662,1.0739,1.0739,0,0,1-.7481-.2365,1.2158,1.2158,0,0,1-.4477-.6176,1.01,1.01,0,0,1,.7893-1.2729.9022.9022,0,0,1,.7877.2279A1.2382,1.2382,0,0,1,21.4911,57.2182Zm-.0333.0063a.6978.6978,0,0,0-.4331-.5008,1.0386,1.0386,0,0,0-.5941-.0573.8477.8477,0,0,0-.6751.8829.7067.7067,0,0,0,.3272.5616.7725.7725,0,0,0,.6336.05,1.3214,1.3214,0,0,0,.5279-.3086A.6977.6977,0,0,0,21.4578,57.2245Z"/><path class="cls-3" d="M24.455,56.8094a1.2386,1.2386,0,0,1-.0712.754.818.818,0,0,1-.6512.4662,1.07,1.07,0,0,1-.7481-.2365,1.2187,1.2187,0,0,1-.4479-.6175,1.01,1.01,0,0,1,.79-1.2729.903.903,0,0,1,.7875.2278A1.2378,1.2378,0,0,1,24.455,56.8094Zm-.0334.0064a.6964.6964,0,0,0-.4332-.5006,1.0392,1.0392,0,0,0-.5943-.0573.8474.8474,0,0,0-.6752.8826.7081.7081,0,0,0,.3274.5617.77.77,0,0,0,.6333.05,1.3216,1.3216,0,0,0,.5282-.3085A.6986.6986,0,0,0,24.4216,56.8158Z"/><path class="cls-3" d="M4.74,37.2462A1.2424,1.2424,0,0,1,4.6686,38a.8175.8175,0,0,1-.6512.4662,1.0731,1.0731,0,0,1-.7485-.2357,1.2136,1.2136,0,0,1-.4479-.6176A1.01,1.01,0,0,1,3.61,36.34a.9032.9032,0,0,1,.7876.2277A1.24,1.24,0,0,1,4.74,37.2462Zm-.0333.0064a.6986.6986,0,0,0-.4339-.5,1.0426,1.0426,0,0,0-.5945-.0571.8474.8474,0,0,0-.6749.883.7048.7048,0,0,0,.3272.5615.7718.7718,0,0,0,.6337.0494,1.3179,1.3179,0,0,0,.5282-.3085A.7.7,0,0,0,4.7068,37.2526Z"/><path class="cls-3" d="M5.3044,40.21a1.2407,1.2407,0,0,1-.071.7538.8175.8175,0,0,1-.6507.4671,1.0751,1.0751,0,0,1-.748-.2365,1.2146,1.2146,0,0,1-.448-.6173,1.0092,1.0092,0,0,1,.7886-1.2731.9039.9039,0,0,1,.7875.2275A1.236,1.236,0,0,1,5.3044,40.21Zm-.0332.0064a.6966.6966,0,0,0-.4337-.5,1.0417,1.0417,0,0,0-.5943-.057.8469.8469,0,0,0-.6742.883.7059.7059,0,0,0,.3273.5612.7743.7743,0,0,0,.6337.05,1.3215,1.3215,0,0,0,.5272-.3091A.7.7,0,0,0,5.2712,40.2165Z"/><path class="cls-3" d="M5.8833,43.247a1.2417,1.2417,0,0,1-.0714.754.8184.8184,0,0,1-.6514.4661,1.0718,1.0718,0,0,1-.7482-.2368,1.2174,1.2174,0,0,1-.4476-.6178,1.0106,1.0106,0,0,1,.79-1.2732.9051.9051,0,0,1,.7874.2286A1.2348,1.2348,0,0,1,5.8833,43.247Zm-.0334.0063a.6957.6957,0,0,0-.4329-.5008,1.0456,1.0456,0,0,0-.5946-.0578.8489.8489,0,0,0-.6754.8828.7073.7073,0,0,0,.3272.5619.7714.7714,0,0,0,.6334.05,1.3256,1.3256,0,0,0,.5282-.3085A.6991.6991,0,0,0,5.85,43.2533Z"/><path class="cls-3" d="M6.5125,46.5421a1.2408,1.2408,0,0,1-.0713.754.8168.8168,0,0,1-.6516.4662,1.0718,1.0718,0,0,1-.7484-.2355,1.2177,1.2177,0,0,1-.4483-.6176,1.012,1.012,0,0,1,.79-1.2739.904.904,0,0,1,.788.2279A1.2363,1.2363,0,0,1,6.5125,46.5421Zm-.0333.0064a.6966.6966,0,0,0-.4338-.5006,1.0414,1.0414,0,0,0-.5943-.0575.851.851,0,0,0-.6759.8838.7077.7077,0,0,0,.3277.5616.7712.7712,0,0,0,.634.0492,1.3114,1.3114,0,0,0,.5281-.3084A.6989.6989,0,0,0,6.4792,46.5485Z"/><path class="cls-3" d="M7.1205,49.7332a1.241,1.241,0,0,1-.0715.7538.8181.8181,0,0,1-.6512.4662,1.0716,1.0716,0,0,1-.7481-.2366,1.22,1.22,0,0,1-.4476-.6176,1.01,1.01,0,0,1,.79-1.2726.9027.9027,0,0,1,.7873.2278A1.2372,1.2372,0,0,1,7.1205,49.7332Zm-.0332.0064a.6971.6971,0,0,0-.433-.5008,1.04,1.04,0,0,0-.5943-.0572.8478.8478,0,0,0-.6756.8823.709.709,0,0,0,.3272.5618.7713.7713,0,0,0,.6334.05,1.3241,1.3241,0,0,0,.528-.3086A.7.7,0,0,0,7.0873,49.74Z"/><path class="cls-3" d="M7.7524,53.0428a1.2415,1.2415,0,0,1-.0719.7539.8183.8183,0,0,1-.6509.4669,1.0722,1.0722,0,0,1-.7484-.2357,1.213,1.213,0,0,1-.4477-.6176,1.0086,1.0086,0,0,1,.7893-1.2729.9035.9035,0,0,1,.7877.2267A1.2377,1.2377,0,0,1,7.7524,53.0428Zm-.0333.0063a.6973.6973,0,0,0-.4338-.5,1.0416,1.0416,0,0,0-.5948-.0562.846.846,0,0,0-.6747.8826.7057.7057,0,0,0,.3272.5618.7717.7717,0,0,0,.6337.0493,1.3216,1.3216,0,0,0,.5278-.3091A.7007.7007,0,0,0,7.7191,53.0491Z"/><path class="cls-3" d="M8.4386,56.6446a1.25,1.25,0,0,1-.0712.7541.8168.8168,0,0,1-.6508.4672,1.074,1.074,0,0,1-.7484-.2355,1.212,1.212,0,0,1-.4474-.6179,1.0094,1.0094,0,0,1,.788-1.2737.9013.9013,0,0,1,.788.2271A1.2422,1.2422,0,0,1,8.4386,56.6446Zm-.0333.0064a.6987.6987,0,0,0-.434-.5005,1.0348,1.0348,0,0,0-.5941-.0566.8468.8468,0,0,0-.6741.8837.7044.7044,0,0,0,.3269.5618.7731.7731,0,0,0,.6338.0493,1.3151,1.3151,0,0,0,.5272-.3093A.7025.7025,0,0,0,8.4053,56.651Z"/><path class="cls-3" d="M9.042,59.8111a1.2376,1.2376,0,0,1-.0707.754.8184.8184,0,0,1-.6513.4663,1.0738,1.0738,0,0,1-.7482-.2366,1.2191,1.2191,0,0,1-.4484-.6173,1.01,1.01,0,0,1,.79-1.2731.9031.9031,0,0,1,.7877.2278A1.2412,1.2412,0,0,1,9.042,59.8111Zm-.0333.0064a.698.698,0,0,0-.4334-.5007,1.04,1.04,0,0,0-.5942-.0572.8482.8482,0,0,0-.6753.8829.7074.7074,0,0,0,.3279.5613.7723.7723,0,0,0,.6335.05,1.322,1.322,0,0,0,.528-.3085A.6983.6983,0,0,0,9.0087,59.8175Z"/><polygon class="cls-2" points="10.847 27.181 10.956 55.771 31.046 55.648 31.512 27.054 10.847 27.181"/><path class="cls-1" d="M10.8647,27.1992l.1285,7.21.0965,7.1442c.0189,2.3725.0606,4.7468.0583,7.1112q.012,3.5505-.0212,7.1058l-.1719-.17c3.3488.021,6.6973.0417,10.0458.0274l5.0226-.0388,5.0222-.07-.1279.1267.1182-14.2989c.047-4.7661.1285-9.5318.219-14.2972l.2587.2614c-3.4122.0159-6.8324-.0243-10.2684-.0372Zm-.0361-.0357,10.285-.2022c3.4524-.0556,6.92-.1384,10.3967-.1651l.2625-.002-.0035.2635c-.0649,4.7659-.1384,9.5317-.2467,14.2968L31.1752,55.65l-.003.127-.125,0-5.0229-.0083-5.0227.0228c-3.3484.0268-6.6964.0886-10.0445.1506l-.1689.0032-.0032-.1734q-.0648-3.589-.0758-7.1889c-.02-2.4005.003-4.7912.0037-7.1835l.0418-7.1505Z"/><path class="cls-1" d="M17.5261,49.6257a1.2428,1.2428,0,0,1-.2111.7273.817.817,0,0,1-.727.3364,1.0735,1.0735,0,0,1-.6908-.372,1.2181,1.2181,0,0,1-.3242-.6906,1.0107,1.0107,0,0,1,1.0139-1.1031.9026.9026,0,0,1,.731.3713A1.2373,1.2373,0,0,1,17.5261,49.6257Zm-.034,0a.6968.6968,0,0,0-.332-.5728,1.04,1.04,0,0,0-.5727-.1676.8492.8492,0,0,0-.8288.7413.7075.7075,0,0,0,.2163.613.7727.7727,0,0,0,.6131.1676,1.3187,1.3187,0,0,0,.5763-.2045A.7006.7006,0,0,0,17.4921,49.6257Z"/><path class="cls-1" d="M20.586,49.6257a1.2439,1.2439,0,0,1-.2112.7274.8176.8176,0,0,1-.7271.3363,1.073,1.073,0,0,1-.6908-.372,1.2155,1.2155,0,0,1-.3246-.6906,1.0111,1.0111,0,0,1,1.0142-1.1031.9038.9038,0,0,1,.7312.3712A1.2372,1.2372,0,0,1,20.586,49.6257Zm-.0339,0a.697.697,0,0,0-.332-.5729,1.0432,1.0432,0,0,0-.5732-.1675.85.85,0,0,0-.829.7413.7069.7069,0,0,0,.2166.613.7728.7728,0,0,0,.6132.1676,1.32,1.32,0,0,0,.5764-.2044A.7.7,0,0,0,20.5521,49.6257Z"/><path class="cls-1" d="M23.446,49.6257a1.2427,1.2427,0,0,1-.2115.7272.8176.8176,0,0,1-.7267.3365,1.0709,1.0709,0,0,1-.6908-.372,1.2161,1.2161,0,0,1-.3241-.6906,1.0107,1.0107,0,0,1,1.0137-1.1032.9045.9045,0,0,1,.7309.3715A1.2379,1.2379,0,0,1,23.446,49.6257Zm-.034,0a.6964.6964,0,0,0-.3321-.5726,1.0429,1.0429,0,0,0-.5731-.1678.849.849,0,0,0-.8283.7413.7073.7073,0,0,0,.2163.613.7708.7708,0,0,0,.6128.1676,1.3215,1.3215,0,0,0,.5764-.2047A.7.7,0,0,0,23.412,49.6257Z"/><path class="cls-1" d="M26.3159,49.6257a1.2447,1.2447,0,0,1-.2113.7272.8177.8177,0,0,1-.7269.3365,1.073,1.073,0,0,1-.6908-.372,1.2161,1.2161,0,0,1-.3241-.6906,1.0107,1.0107,0,0,1,1.0137-1.1032.904.904,0,0,1,.731.3715A1.2387,1.2387,0,0,1,26.3159,49.6257Zm-.034,0a.6968.6968,0,0,0-.3322-.5727,1.0414,1.0414,0,0,0-.5729-.1677.8491.8491,0,0,0-.8284.7413.707.707,0,0,0,.2163.613.7718.7718,0,0,0,.613.1676,1.3216,1.3216,0,0,0,.5762-.2047A.7.7,0,0,0,26.2819,49.6257Z"/><path class="cls-1" d="M29.4493,49.6257a1.2427,1.2427,0,0,1-.2114.7274.8177.8177,0,0,1-.7269.3363,1.0727,1.0727,0,0,1-.6912-.3719,1.2168,1.2168,0,0,1-.3242-.6907A1.0107,1.0107,0,0,1,28.51,48.5236a.9049.9049,0,0,1,.7311.3713A1.2366,1.2366,0,0,1,29.4493,49.6257Zm-.0339,0a.6963.6963,0,0,0-.3322-.5728,1.0425,1.0425,0,0,0-.5732-.1676.8491.8491,0,0,0-.8288.7413.7069.7069,0,0,0,.2165.6131.7714.7714,0,0,0,.6131.1675,1.3228,1.3228,0,0,0,.5766-.2045A.7.7,0,0,0,29.4154,49.6257Z"/><path class="cls-1" d="M14.6,29.877a1.2441,1.2441,0,0,1-.2114.7274.818.818,0,0,1-.7271.3364,1.0731,1.0731,0,0,1-.6908-.3721,1.2158,1.2158,0,0,1-.3244-.6907A1.0108,1.0108,0,0,1,13.66,28.7749a.9041.9041,0,0,1,.7312.3713A1.2377,1.2377,0,0,1,14.6,29.877Zm-.0339,0a.6971.6971,0,0,0-.3322-.5729,1.0416,1.0416,0,0,0-.5731-.1675.849.849,0,0,0-.8289.7413.7068.7068,0,0,0,.2164.6129.7726.7726,0,0,0,.6132.1678,1.32,1.32,0,0,0,.5764-.2046A.7006.7006,0,0,0,14.566,29.877Z"/><path class="cls-1" d="M17.5261,29.877a1.2444,1.2444,0,0,1-.2113.7273.8173.8173,0,0,1-.7269.3365,1.0733,1.0733,0,0,1-.6907-.3723,1.2172,1.2172,0,0,1-.3242-.6905,1.011,1.011,0,0,1,1.0139-1.1031.903.903,0,0,1,.731.3714A1.2375,1.2375,0,0,1,17.5261,29.877Zm-.034,0a.6971.6971,0,0,0-.332-.5729,1.0405,1.0405,0,0,0-.5727-.1675.8492.8492,0,0,0-.8288.7413.7071.7071,0,0,0,.2165.6129.7722.7722,0,0,0,.6129.1678,1.3187,1.3187,0,0,0,.5761-.2047A.7.7,0,0,0,17.4921,29.877Z"/><path class="cls-1" d="M20.586,29.877a1.2436,1.2436,0,0,1-.2114.7274.8176.8176,0,0,1-.7269.3364,1.0724,1.0724,0,0,1-.6908-.3723,1.2152,1.2152,0,0,1-.3246-.6905,1.0112,1.0112,0,0,1,1.0142-1.1031.9038.9038,0,0,1,.7312.3713A1.237,1.237,0,0,1,20.586,29.877Zm-.0339,0a.6969.6969,0,0,0-.332-.5729,1.0431,1.0431,0,0,0-.5731-.1675.85.85,0,0,0-.8291.7413.7074.7074,0,0,0,.2166.6129.773.773,0,0,0,.6132.1678,1.3226,1.3226,0,0,0,.5764-.2046A.7008.7008,0,0,0,20.5521,29.877Z"/><path class="cls-1" d="M23.446,29.877a1.2429,1.2429,0,0,1-.2115.7271.8178.8178,0,0,1-.7267.3367,1.0709,1.0709,0,0,1-.6907-.3722,1.2166,1.2166,0,0,1-.3242-.6906,1.0106,1.0106,0,0,1,1.0139-1.1031.9051.9051,0,0,1,.7309.3715A1.2393,1.2393,0,0,1,23.446,29.877Zm-.034,0a.6964.6964,0,0,0-.3321-.5726,1.044,1.044,0,0,0-.5731-.1679.849.849,0,0,0-.8283.7414.7076.7076,0,0,0,.2163.6129.7707.7707,0,0,0,.6128.1677,1.3225,1.3225,0,0,0,.5762-.2047A.7.7,0,0,0,23.412,29.877Z"/><path class="cls-1" d="M26.3159,29.877a1.2444,1.2444,0,0,1-.2115.7271.8171.8171,0,0,1-.7267.3367,1.0719,1.0719,0,0,1-.6907-.3723,1.216,1.216,0,0,1-.3242-.6905,1.0107,1.0107,0,0,1,1.0137-1.1031.904.904,0,0,1,.731.3715A1.2387,1.2387,0,0,1,26.3159,29.877Zm-.034,0a.6968.6968,0,0,0-.3322-.5727,1.0414,1.0414,0,0,0-.5729-.1677.849.849,0,0,0-.8284.7413.7073.7073,0,0,0,.2163.6129.7722.7722,0,0,0,.613.1678,1.321,1.321,0,0,0,.576-.2048A.7.7,0,0,0,26.2819,29.877Z"/><path class="cls-1" d="M29.4493,29.877a1.2434,1.2434,0,0,1-.2114.7274.8185.8185,0,0,1-.7271.3364,1.0722,1.0722,0,0,1-.6908-.3721,1.2158,1.2158,0,0,1-.3244-.6907A1.0108,1.0108,0,0,1,28.51,28.7749a.9046.9046,0,0,1,.7312.3713A1.237,1.237,0,0,1,29.4493,29.877Zm-.0339,0a.6966.6966,0,0,0-.3322-.5729,1.0438,1.0438,0,0,0-.5732-.1675.849.849,0,0,0-.8288.7413.7069.7069,0,0,0,.2165.613.7722.7722,0,0,0,.6131.1677,1.3215,1.3215,0,0,0,.5764-.2047A.7.7,0,0,0,29.4154,29.877Z"/><path class="cls-1" d="M14.6,32.8946a1.2439,1.2439,0,0,1-.2114.7274.8182.8182,0,0,1-.7273.3364,1.0736,1.0736,0,0,1-.691-.3725,1.2169,1.2169,0,0,1-.324-.6908,1.0112,1.0112,0,0,1,1.0144-1.1033.9037.9037,0,0,1,.7312.3718A1.24,1.24,0,0,1,14.6,32.8946Zm-.0339,0a.6981.6981,0,0,0-.332-.5732,1.04,1.04,0,0,0-.5731-.1679.85.85,0,0,0-.8291.7415.7068.7068,0,0,0,.2163.6132.772.772,0,0,0,.6131.1679,1.32,1.32,0,0,0,.5766-.2044A.7007.7007,0,0,0,14.566,32.8946Z"/><path class="cls-1" d="M17.5261,32.8946a1.2444,1.2444,0,0,1-.2113.7273.8175.8175,0,0,1-.7271.3365,1.0723,1.0723,0,0,1-.6906-.3726,1.2161,1.2161,0,0,1-.3241-.6907,1.0113,1.0113,0,0,1,1.0141-1.1033.9031.9031,0,0,1,.731.3719A1.2393,1.2393,0,0,1,17.5261,32.8946Zm-.034,0a.6981.6981,0,0,0-.3318-.5732,1.0393,1.0393,0,0,0-.5727-.1679.85.85,0,0,0-.829.7415.7076.7076,0,0,0,.2163.6131.772.772,0,0,0,.613.168,1.3166,1.3166,0,0,0,.5762-.2045A.7005.7005,0,0,0,17.4921,32.8946Z"/><path class="cls-1" d="M20.586,32.8946a1.2434,1.2434,0,0,1-.2114.7274.818.818,0,0,1-.7273.3364,1.0737,1.0737,0,0,1-.6908-.3726,1.2165,1.2165,0,0,1-.3242-.6907,1.0117,1.0117,0,0,1,1.0146-1.1033.9036.9036,0,0,1,.731.3718A1.239,1.239,0,0,1,20.586,32.8946Zm-.0339,0a.6977.6977,0,0,0-.332-.5732,1.04,1.04,0,0,0-.5729-.1679.85.85,0,0,0-.8293.7415.7069.7069,0,0,0,.2165.6131.7721.7721,0,0,0,.6131.168,1.32,1.32,0,0,0,.5764-.2044A.7006.7006,0,0,0,20.5521,32.8946Z"/><path class="cls-1" d="M23.446,32.8946a1.2428,1.2428,0,0,1-.2116.7272.8183.8183,0,0,1-.7269.3366,1.0709,1.0709,0,0,1-.6907-.3726,1.2177,1.2177,0,0,1-.3239-.6907,1.0112,1.0112,0,0,1,1.0141-1.1034.9048.9048,0,0,1,.7308.3721A1.24,1.24,0,0,1,23.446,32.8946Zm-.034,0a.6976.6976,0,0,0-.332-.573,1.0429,1.0429,0,0,0-.573-.1681.8494.8494,0,0,0-.8285.7415.7084.7084,0,0,0,.2161.6132.7708.7708,0,0,0,.6129.1679,1.3225,1.3225,0,0,0,.5762-.2047A.7.7,0,0,0,23.412,32.8946Z"/><path class="cls-1" d="M26.3159,32.8946a1.2437,1.2437,0,0,1-.2117.7272.8176.8176,0,0,1-.7269.3366,1.0723,1.0723,0,0,1-.6906-.3726,1.2177,1.2177,0,0,1-.3239-.6907,1.0111,1.0111,0,0,1,1.014-1.1033.9038.9038,0,0,1,.7309.372A1.24,1.24,0,0,1,26.3159,32.8946Zm-.034,0a.6978.6978,0,0,0-.332-.573,1.0407,1.0407,0,0,0-.5729-.1681.85.85,0,0,0-.8286.7415.7075.7075,0,0,0,.2161.6131.7715.7715,0,0,0,.6128.1681,1.32,1.32,0,0,0,.5763-.2048A.7.7,0,0,0,26.2819,32.8946Z"/><path class="cls-1" d="M29.4493,32.8946a1.2422,1.2422,0,0,1-.2116.7274.818.818,0,0,1-.7271.3364,1.0725,1.0725,0,0,1-.6909-.3724,1.217,1.217,0,0,1-.3241-.6909A1.0113,1.0113,0,0,1,28.51,31.7917a.9048.9048,0,0,1,.7311.3719A1.24,1.24,0,0,1,29.4493,32.8946Zm-.0339,0a.6977.6977,0,0,0-.332-.5732,1.0432,1.0432,0,0,0-.5733-.1679.85.85,0,0,0-.8289.7415.7077.7077,0,0,0,.2163.6133.7719.7719,0,0,0,.613.1679,1.3238,1.3238,0,0,0,.5767-.2046A.7.7,0,0,0,29.4154,32.8946Z"/><path class="cls-1" d="M14.6,35.9857a1.2407,1.2407,0,0,1-.2118.7272.8175.8175,0,0,1-.7272.3358,1.0728,1.0728,0,0,1-.6908-.3722,1.217,1.217,0,0,1-.3241-.6909,1.0113,1.0113,0,0,1,1.0149-1.1027.9036.9036,0,0,1,.731.3718A1.2373,1.2373,0,0,1,14.6,35.9857Zm-.0339,0a.6977.6977,0,0,0-.3319-.5732,1.0411,1.0411,0,0,0-.5729-.1679.8492.8492,0,0,0-.8294.741.7067.7067,0,0,0,.2159.6131.7727.7727,0,0,0,.6133.1678,1.3215,1.3215,0,0,0,.5766-.204A.7.7,0,0,0,14.566,35.9857Z"/><path class="cls-1" d="M17.5261,35.9857a1.2429,1.2429,0,0,1-.2115.7272.8175.8175,0,0,1-.7272.3358,1.072,1.072,0,0,1-.69-.3724,1.2158,1.2158,0,0,1-.3239-.6907,1.0111,1.0111,0,0,1,1.0144-1.1027.9034.9034,0,0,1,.731.3719A1.24,1.24,0,0,1,17.5261,35.9857Zm-.034,0a.6978.6978,0,0,0-.3316-.5732,1.04,1.04,0,0,0-.5728-.1679.8494.8494,0,0,0-.8291.741.7069.7069,0,0,0,.216.613.7726.7726,0,0,0,.6131.1679,1.3189,1.3189,0,0,0,.5762-.2041A.6994.6994,0,0,0,17.4921,35.9857Z"/><path class="cls-1" d="M20.586,35.9857a1.2412,1.2412,0,0,1-.2116.7272.8183.8183,0,0,1-.7274.3358,1.073,1.073,0,0,1-.6906-.3724,1.2151,1.2151,0,0,1-.3241-.6907,1.0114,1.0114,0,0,1,1.0149-1.1027.9039.9039,0,0,1,.731.3718A1.2385,1.2385,0,0,1,20.586,35.9857Zm-.0339,0a.6977.6977,0,0,0-.3318-.5732,1.0407,1.0407,0,0,0-.573-.1679.85.85,0,0,0-.8294.741.7067.7067,0,0,0,.2161.613.7731.7731,0,0,0,.6132.1679,1.3217,1.3217,0,0,0,.5767-.2041A.7.7,0,0,0,20.5521,35.9857Z"/><path class="cls-1" d="M23.446,35.9857a1.241,1.241,0,0,1-.2118.727.818.818,0,0,1-.7269.336,1.07,1.07,0,0,1-.6907-.3724,1.2159,1.2159,0,0,1-.3237-.6907,1.0108,1.0108,0,0,1,1.0144-1.1027.9043.9043,0,0,1,.7307.372A1.2388,1.2388,0,0,1,23.446,35.9857Zm-.034,0a.6973.6973,0,0,0-.3318-.5729,1.0415,1.0415,0,0,0-.5729-.1682.8491.8491,0,0,0-.8288.741.7074.7074,0,0,0,.2158.6131.7709.7709,0,0,0,.6128.1678,1.3266,1.3266,0,0,0,.5766-.2042A.7.7,0,0,0,23.412,35.9857Z"/><path class="cls-1" d="M26.3159,35.9857a1.243,1.243,0,0,1-.2118.7271.818.818,0,0,1-.7271.3359,1.0716,1.0716,0,0,1-.6905-.3724,1.2165,1.2165,0,0,1-.3239-.6907,1.0111,1.0111,0,0,1,1.0146-1.1027.9036.9036,0,0,1,.7307.372A1.2388,1.2388,0,0,1,26.3159,35.9857Zm-.034,0a.6976.6976,0,0,0-.3318-.573,1.0415,1.0415,0,0,0-.5728-.1681.8491.8491,0,0,0-.8289.741.7069.7069,0,0,0,.2158.613.7723.7723,0,0,0,.613.1679,1.3224,1.3224,0,0,0,.5764-.2042A.7.7,0,0,0,26.2819,35.9857Z"/><path class="cls-1" d="M29.4493,35.9857a1.242,1.242,0,0,1-.2117.7272.8189.8189,0,0,1-.7273.3359,1.072,1.072,0,0,1-.6908-.3723,1.2167,1.2167,0,0,1-.3239-.6909,1.0109,1.0109,0,0,1,1.0149-1.1027.9047.9047,0,0,1,.7309.3718A1.2407,1.2407,0,0,1,29.4493,35.9857Zm-.0339,0a.6976.6976,0,0,0-.3318-.5732,1.0425,1.0425,0,0,0-.5733-.1679.8491.8491,0,0,0-.8291.741.7074.7074,0,0,0,.216.6132.7719.7719,0,0,0,.6131.1677,1.3238,1.3238,0,0,0,.5767-.2041A.6992.6992,0,0,0,29.4154,35.9857Z"/><path class="cls-1" d="M14.6,39.34a1.2423,1.2423,0,0,1-.2116.7272.818.818,0,0,1-.7271.3358,1.0736,1.0736,0,0,1-.6908-.3719,1.2153,1.2153,0,0,1-.3242-.6906,1.0108,1.0108,0,0,1,1.0144-1.1026.9037.9037,0,0,1,.731.3713A1.2375,1.2375,0,0,1,14.6,39.34Zm-.0339,0a.697.697,0,0,0-.332-.5728,1.0407,1.0407,0,0,0-.5731-.1676.849.849,0,0,0-.8291.7408.7063.7063,0,0,0,.2163.6129.7725.7725,0,0,0,.6131.1675,1.32,1.32,0,0,0,.5766-.2041A.7.7,0,0,0,14.566,39.34Z"/><path class="cls-1" d="M17.5261,39.34a1.2426,1.2426,0,0,1-.2115.7271.8171.8171,0,0,1-.7269.3359,1.073,1.073,0,0,1-.6906-.372,1.2158,1.2158,0,0,1-.3241-.6905,1.0108,1.0108,0,0,1,1.0141-1.1026.903.903,0,0,1,.731.3715A1.238,1.238,0,0,1,17.5261,39.34Zm-.034,0a.6971.6971,0,0,0-.3318-.5728,1.04,1.04,0,0,0-.5727-.1676.849.849,0,0,0-.829.7408.7069.7069,0,0,0,.2163.6128.7723.7723,0,0,0,.613.1676,1.32,1.32,0,0,0,.5762-.2042A.7.7,0,0,0,17.4921,39.34Z"/><path class="cls-1" d="M20.586,39.34a1.2416,1.2416,0,0,1-.2116.7272.818.818,0,0,1-.7271.3358,1.073,1.073,0,0,1-.6906-.372,1.2149,1.2149,0,0,1-.3244-.6905,1.0112,1.0112,0,0,1,1.0146-1.1026.9041.9041,0,0,1,.731.3714A1.2377,1.2377,0,0,1,20.586,39.34Zm-.0339,0a.6967.6967,0,0,0-.332-.5728,1.04,1.04,0,0,0-.5729-.1676.85.85,0,0,0-.8293.7408.7062.7062,0,0,0,.2165.6128.7729.7729,0,0,0,.6131.1676,1.322,1.322,0,0,0,.5764-.2042A.6993.6993,0,0,0,20.5521,39.34Z"/><path class="cls-1" d="M23.446,39.34a1.2417,1.2417,0,0,1-.2116.7269.8181.8181,0,0,1-.7269.3361,1.0721,1.0721,0,0,1-.6907-.372,1.2168,1.2168,0,0,1-.3239-.6905,1.0107,1.0107,0,0,1,1.0141-1.1027.9049.9049,0,0,1,.7307.3717A1.2386,1.2386,0,0,1,23.446,39.34Zm-.034,0a.6963.6963,0,0,0-.3321-.5726A1.0438,1.0438,0,0,0,22.507,38.6a.8489.8489,0,0,0-.8285.7409.7073.7073,0,0,0,.2161.6128.771.771,0,0,0,.6129.1676,1.3232,1.3232,0,0,0,.5762-.2044A.6994.6994,0,0,0,23.412,39.34Z"/><path class="cls-1" d="M26.3159,39.34a1.2426,1.2426,0,0,1-.2117.7269.818.818,0,0,1-.7269.3362,1.0717,1.0717,0,0,1-.69-.3721,1.2158,1.2158,0,0,1-.3241-.6905,1.0106,1.0106,0,0,1,1.014-1.1026.9037.9037,0,0,1,.7307.3716A1.238,1.238,0,0,1,26.3159,39.34Zm-.034,0a.6967.6967,0,0,0-.3322-.5727A1.0417,1.0417,0,0,0,25.377,38.6a.849.849,0,0,0-.8286.7409.7068.7068,0,0,0,.2161.6128.7721.7721,0,0,0,.6128.1676,1.3221,1.3221,0,0,0,.5763-.2043A.7.7,0,0,0,26.2819,39.34Z"/><path class="cls-1" d="M29.4493,39.34a1.2416,1.2416,0,0,1-.2116.7272.8189.8189,0,0,1-.7271.3359,1.0725,1.0725,0,0,1-.6908-.372,1.2153,1.2153,0,0,1-.3242-.6906A1.0107,1.0107,0,0,1,28.51,38.2383a.9043.9043,0,0,1,.7309.3714A1.2363,1.2363,0,0,1,29.4493,39.34Zm-.0339,0a.6967.6967,0,0,0-.332-.5728A1.0437,1.0437,0,0,0,28.51,38.6a.8492.8492,0,0,0-.8289.7409.7068.7068,0,0,0,.2163.6129.772.772,0,0,0,.613.1675,1.3257,1.3257,0,0,0,.5767-.2042A.6993.6993,0,0,0,29.4154,39.34Z"/><path class="cls-1" d="M14.6,42.5885a1.2439,1.2439,0,0,1-.2113.7272.8175.8175,0,0,1-.7269.3365,1.0741,1.0741,0,0,1-.691-.3719,1.2161,1.2161,0,0,1-.3245-.69A1.01,1.01,0,0,1,13.66,41.4871a.9042.9042,0,0,1,.7313.3707A1.2359,1.2359,0,0,1,14.6,42.5885Zm-.0339,0a.6964.6964,0,0,0-.3322-.5727,1.0429,1.0429,0,0,0-.5732-.1671.8485.8485,0,0,0-.8288.7409.7061.7061,0,0,0,.2168.6128.7721.7721,0,0,0,.6131.1675,1.3209,1.3209,0,0,0,.5762-.2045A.7007.7007,0,0,0,14.566,42.5885Z"/><path class="cls-1" d="M17.5261,42.5885a1.2438,1.2438,0,0,1-.2111.7271.8173.8173,0,0,1-.7268.3366,1.0734,1.0734,0,0,1-.6906-.372,1.2162,1.2162,0,0,1-.3246-.69,1.01,1.01,0,0,1,1.0136-1.1028.9034.9034,0,0,1,.7312.3708A1.2364,1.2364,0,0,1,17.5261,42.5885Zm-.034,0a.6961.6961,0,0,0-.332-.5726,1.04,1.04,0,0,0-.5729-.1671.8484.8484,0,0,0-.8286.7408.7069.7069,0,0,0,.2166.6128.7724.7724,0,0,0,.613.1675,1.3194,1.3194,0,0,0,.5761-.2046A.7.7,0,0,0,17.4921,42.5885Z"/><path class="cls-1" d="M20.586,42.5885a1.244,1.244,0,0,1-.2112.7272.818.818,0,0,1-.727.3365,1.0744,1.0744,0,0,1-.6908-.372,1.217,1.217,0,0,1-.3247-.69,1.0107,1.0107,0,0,1,1.0141-1.1028.9041.9041,0,0,1,.7312.3707A1.2357,1.2357,0,0,1,20.586,42.5885Zm-.0339,0a.6956.6956,0,0,0-.3322-.5726,1.0413,1.0413,0,0,0-.573-.1672.8491.8491,0,0,0-.829.7409.7067.7067,0,0,0,.217.6128.7722.7722,0,0,0,.6129.1675,1.32,1.32,0,0,0,.5763-.2045A.7006.7006,0,0,0,20.5521,42.5885Z"/><path class="cls-1" d="M23.446,42.5885a1.243,1.243,0,0,1-.2115.727.8181.8181,0,0,1-.7265.3367,1.0711,1.0711,0,0,1-.6907-.372,1.2172,1.2172,0,0,1-.3244-.69,1.01,1.01,0,0,1,1.0136-1.1029.9048.9048,0,0,1,.7308.371A1.2364,1.2364,0,0,1,23.446,42.5885Zm-.034,0a.696.696,0,0,0-.3321-.5725,1.0457,1.0457,0,0,0-.5733-.1673.8483.8483,0,0,0-.8281.7409.7072.7072,0,0,0,.2165.6128.7706.7706,0,0,0,.6128.1675,1.3214,1.3214,0,0,0,.576-.2048A.6994.6994,0,0,0,23.412,42.5885Z"/><path class="cls-1" d="M26.3159,42.5885a1.2445,1.2445,0,0,1-.2115.727.8175.8175,0,0,1-.7266.3367,1.0725,1.0725,0,0,1-.6906-.372,1.2166,1.2166,0,0,1-.3244-.69,1.01,1.01,0,0,1,1.0135-1.1028.9042.9042,0,0,1,.7311.3709A1.2376,1.2376,0,0,1,26.3159,42.5885Zm-.034,0a.6961.6961,0,0,0-.3322-.5725,1.0442,1.0442,0,0,0-.573-.1673.8483.8483,0,0,0-.8283.7409.7067.7067,0,0,0,.2166.6128.7714.7714,0,0,0,.6128.1675,1.318,1.318,0,0,0,.5759-.2048A.7.7,0,0,0,26.2819,42.5885Z"/><path class="cls-1" d="M29.4493,42.5885a1.2426,1.2426,0,0,1-.2114.7272.8183.8183,0,0,1-.7268.3365A1.072,1.072,0,0,1,27.82,43.28a1.2162,1.2162,0,0,1-.3246-.69A1.01,1.01,0,0,1,28.51,41.487a.9049.9049,0,0,1,.7312.3708A1.2345,1.2345,0,0,1,29.4493,42.5885Zm-.0339,0a.6956.6956,0,0,0-.3322-.5726,1.0446,1.0446,0,0,0-.5734-.1672.8485.8485,0,0,0-.8286.7409.7065.7065,0,0,0,.2168.6129.7715.7715,0,0,0,.613.1674,1.32,1.32,0,0,0,.5762-.2046A.7.7,0,0,0,29.4154,42.5885Z"/><path class="cls-1" d="M14.6,45.9591a1.2386,1.2386,0,0,1-.2121.727.8178.8178,0,0,1-.7272.3353,1.0725,1.0725,0,0,1-.6907-.3724,1.214,1.214,0,0,1-.3237-.6908,1.011,1.011,0,0,1,1.0152-1.102.9036.9036,0,0,1,.7307.372A1.2384,1.2384,0,0,1,14.6,45.9591Zm-.0339,0a.6981.6981,0,0,0-.3317-.5732,1.0418,1.0418,0,0,0-.5729-.168.8493.8493,0,0,0-.83.74.7061.7061,0,0,0,.2158.6129.7728.7728,0,0,0,.6131.1679,1.3219,1.3219,0,0,0,.5767-.2037A.699.699,0,0,0,14.566,45.9591Z"/><path class="cls-1" d="M17.5261,45.9591a1.24,1.24,0,0,1-.2118.7269.8175.8175,0,0,1-.7272.3354,1.0734,1.0734,0,0,1-.69-.3724,1.2143,1.2143,0,0,1-.3237-.6908,1.0109,1.0109,0,0,1,1.0149-1.1019.9027.9027,0,0,1,.73.372A1.24,1.24,0,0,1,17.5261,45.9591Zm-.034,0a.6975.6975,0,0,0-.3315-.5731,1.0393,1.0393,0,0,0-.5726-.1681.8494.8494,0,0,0-.8294.74.7059.7059,0,0,0,.2158.6128.7728.7728,0,0,0,.613.168,1.322,1.322,0,0,0,.5764-.2037A.6991.6991,0,0,0,17.4921,45.9591Z"/><path class="cls-1" d="M20.586,45.9591a1.24,1.24,0,0,1-.2119.727.8181.8181,0,0,1-.7274.3353,1.0729,1.0729,0,0,1-.6905-.3724,1.2145,1.2145,0,0,1-.3239-.6908,1.0113,1.0113,0,0,1,1.0152-1.102.9033.9033,0,0,1,.7307.372A1.2384,1.2384,0,0,1,20.586,45.9591Zm-.0339,0a.6975.6975,0,0,0-.3317-.5731,1.04,1.04,0,0,0-.5727-.1681.85.85,0,0,0-.83.74.7061.7061,0,0,0,.216.6128.7732.7732,0,0,0,.6131.168,1.3228,1.3228,0,0,0,.5766-.2037A.6987.6987,0,0,0,20.5521,45.9591Z"/><path class="cls-1" d="M23.446,45.9591a1.24,1.24,0,0,1-.2121.7268.8184.8184,0,0,1-.7271.3355,1.0711,1.0711,0,0,1-.69-.3724,1.2151,1.2151,0,0,1-.3236-.6908,1.0107,1.0107,0,0,1,1.0149-1.1019.904.904,0,0,1,.73.3721A1.24,1.24,0,0,1,23.446,45.9591Zm-.034,0a.6968.6968,0,0,0-.3318-.5729,1.0415,1.0415,0,0,0-.5727-.1683.849.849,0,0,0-.829.74.7069.7069,0,0,0,.2156.6129.7719.7719,0,0,0,.6129.1679,1.3255,1.3255,0,0,0,.5765-.204A.6986.6986,0,0,0,23.412,45.9591Z"/><path class="cls-1" d="M26.3159,45.9591a1.24,1.24,0,0,1-.2122.7268.818.818,0,0,1-.727.3355,1.0715,1.0715,0,0,1-.69-.3724,1.2151,1.2151,0,0,1-.3236-.6908,1.0108,1.0108,0,0,1,1.0147-1.102.9035.9035,0,0,1,.73.3722A1.24,1.24,0,0,1,26.3159,45.9591Zm-.034,0a.6976.6976,0,0,0-.3318-.573,1.04,1.04,0,0,0-.5726-.1682.8491.8491,0,0,0-.8291.74.7061.7061,0,0,0,.2156.6128.7719.7719,0,0,0,.6128.168,1.324,1.324,0,0,0,.5766-.2039A.6989.6989,0,0,0,26.2819,45.9591Z"/><path class="cls-1" d="M29.4493,45.9591a1.24,1.24,0,0,1-.2121.727.8186.8186,0,0,1-.7272.3353,1.0719,1.0719,0,0,1-.6907-.3723,1.2146,1.2146,0,0,1-.3237-.6909,1.0108,1.0108,0,0,1,1.0152-1.1019.9038.9038,0,0,1,.7307.3719A1.24,1.24,0,0,1,29.4493,45.9591Zm-.0339,0a.6974.6974,0,0,0-.3318-.5731,1.0426,1.0426,0,0,0-.573-.1681.8493.8493,0,0,0-.8294.74.7064.7064,0,0,0,.2158.613.7722.7722,0,0,0,.613.1678,1.3269,1.3269,0,0,0,.5769-.2037A.6987.6987,0,0,0,29.4154,45.9591Z"/><path class="cls-1" d="M14.6,49.6257a1.2433,1.2433,0,0,1-.2113.7274.8176.8176,0,0,1-.7271.3363,1.0743,1.0743,0,0,1-.6911-.3719,1.2168,1.2168,0,0,1-.3242-.6907,1.0107,1.0107,0,0,1,1.014-1.1031.9041.9041,0,0,1,.7314.3712A1.2379,1.2379,0,0,1,14.6,49.6257Zm-.0339,0a.6971.6971,0,0,0-.3322-.5729,1.0424,1.0424,0,0,0-.5731-.1675.8491.8491,0,0,0-.8289.7413.7065.7065,0,0,0,.2164.6131.7728.7728,0,0,0,.6133.1675,1.3206,1.3206,0,0,0,.5764-.2044A.7.7,0,0,0,14.566,49.6257Z"/><path class="cls-1" d="M14.6,52.848a1.2443,1.2443,0,0,1-.2113.7272.8178.8178,0,0,1-.7269.3365,1.0736,1.0736,0,0,1-.6908-.3719,1.2147,1.2147,0,0,1-.3247-.69A1.01,1.01,0,0,1,13.66,51.7465a.9044.9044,0,0,1,.7313.3707A1.2363,1.2363,0,0,1,14.6,52.848Zm-.0339,0a.6961.6961,0,0,0-.3322-.5727,1.0429,1.0429,0,0,0-.5732-.1671.8483.8483,0,0,0-.8288.741.706.706,0,0,0,.2168.6127.7717.7717,0,0,0,.6131.1675,1.3193,1.3193,0,0,0,.5762-.2046A.7006.7006,0,0,0,14.566,52.848Z"/><path class="cls-1" d="M17.5261,52.848a1.2433,1.2433,0,0,1-.2111.727.8167.8167,0,0,1-.7268.3367,1.0725,1.0725,0,0,1-.6906-.372,1.2165,1.2165,0,0,1-.3246-.69,1.01,1.01,0,0,1,1.0136-1.1029.9036.9036,0,0,1,.7312.3708A1.2365,1.2365,0,0,1,17.5261,52.848Zm-.034,0a.6959.6959,0,0,0-.332-.5726,1.04,1.04,0,0,0-.5729-.1672.8485.8485,0,0,0-.8286.741.7068.7068,0,0,0,.2166.6127.7724.7724,0,0,0,.613.1675,1.3189,1.3189,0,0,0,.5761-.2046A.7.7,0,0,0,17.4921,52.848Z"/><path class="cls-1" d="M20.586,52.848a1.2437,1.2437,0,0,1-.2112.7271.8175.8175,0,0,1-.727.3366,1.0734,1.0734,0,0,1-.6906-.372,1.216,1.216,0,0,1-.3249-.69,1.0107,1.0107,0,0,1,1.0141-1.1029.9045.9045,0,0,1,.7312.3708A1.2357,1.2357,0,0,1,20.586,52.848Zm-.0339,0a.6957.6957,0,0,0-.3322-.5727,1.0427,1.0427,0,0,0-.5732-.1671.849.849,0,0,0-.8288.741.7066.7066,0,0,0,.217.6127.7722.7722,0,0,0,.6129.1675,1.3193,1.3193,0,0,0,.5763-.2046A.7005.7005,0,0,0,20.5521,52.848Z"/><path class="cls-1" d="M23.446,52.848a1.2425,1.2425,0,0,1-.2115.7269.8175.8175,0,0,1-.7264.3368,1.0711,1.0711,0,0,1-.6908-.372,1.2172,1.2172,0,0,1-.3244-.69,1.01,1.01,0,0,1,1.0136-1.1029.9046.9046,0,0,1,.7308.371A1.236,1.236,0,0,1,23.446,52.848Zm-.034,0a.696.696,0,0,0-.3321-.5725,1.045,1.045,0,0,0-.5733-.1674.8484.8484,0,0,0-.8281.7411.7069.7069,0,0,0,.2166.6127.77.77,0,0,0,.6127.1675,1.3214,1.3214,0,0,0,.576-.2048A.7.7,0,0,0,23.412,52.848Z"/><path class="cls-1" d="M26.3159,52.848a1.244,1.244,0,0,1-.2115.7269.8172.8172,0,0,1-.7266.3368,1.0721,1.0721,0,0,1-.6906-.372,1.2166,1.2166,0,0,1-.3244-.69,1.01,1.01,0,0,1,1.0135-1.1029.9036.9036,0,0,1,.7309.371A1.2362,1.2362,0,0,1,26.3159,52.848Zm-.034,0a.6961.6961,0,0,0-.3322-.5725,1.0425,1.0425,0,0,0-.573-.1673.8482.8482,0,0,0-.8283.741.7067.7067,0,0,0,.2166.6127.7714.7714,0,0,0,.6128.1675,1.318,1.318,0,0,0,.5759-.2048A.7.7,0,0,0,26.2819,52.848Z"/><path class="cls-1" d="M29.4493,52.848a1.2425,1.2425,0,0,1-.2114.7271.8178.8178,0,0,1-.7268.3366A1.0729,1.0729,0,0,1,27.82,53.54a1.2165,1.2165,0,0,1-.3246-.69A1.01,1.01,0,0,1,28.51,51.7465a.9046.9046,0,0,1,.7312.3708A1.2345,1.2345,0,0,1,29.4493,52.848Zm-.0339,0a.6958.6958,0,0,0-.3322-.5726,1.0438,1.0438,0,0,0-.5734-.1672.8484.8484,0,0,0-.8286.741.7063.7063,0,0,0,.2168.6128.7715.7715,0,0,0,.613.1674,1.3214,1.3214,0,0,0,.5762-.2046A.7.7,0,0,0,29.4154,52.848Z"/><path class="cls-1" d="M59.9293,32.8953a77.8883,77.8883,0,0,1-.2484-8.1334c.0485-1.3556.1473-2.7111.1722-4.0667.02-1.3556-.0174-2.7111-.0757-4.0667-.1286-2.7111-.1743-5.4223-.176-8.1335.0341-2.711.1126-5.4222.3279-8.1334h.0677c.2152,2.7112.2937,5.4224.3278,8.1334-.0016,2.7112-.0473,5.4224-.176,8.1335-.0583,1.3556-.0957,2.7111-.0758,4.0667.025,1.3556.1238,2.7111.1723,4.0667a77.8882,77.8882,0,0,1-.2483,8.1334Z"/><path class="cls-1" d="M59.963.3956c-3.1782.2293-6.3565.2967-9.5349.2484C48.839.5954,47.25.4966,45.6607.4717c-1.5891-.02-3.1782.0174-4.7675.0756-3.1782.1287-6.3565.1745-9.5349.176C28.18.6893,25.0018.6108,21.8234.3956V.3278C25.0018.1126,28.18.034,31.3583,0c3.1784.0016,6.3567.0474,9.5349.176,1.5893.0582,3.1784.0956,4.7675.0757C47.25.2268,48.839.128,50.4281.0794c3.1784-.0484,6.3567.019,9.5349.2484Z"/><path class="cls-3" d="M76.281,56.626l-7.6933.14q-3.8689.0672-7.7862.0918c-2.6046.0217-5.2142.05-7.832.03-2.6137.0033-5.2309-.05-7.8352-.0859l-.204-.0028.0038-.1973c.0619-3.3066.0864-6.6132.097-9.92q-.0121-4.96-.0826-9.92l-.0028-.1835.1886-.0022c5.187-.0582,10.3742-.1349,15.5613-.1485,5.1872-.0435,10.3742-.0133,15.5614.0017l.3371.001-.0046.3315-.1376,10-.0729,4.9621Zm-.0478-.048-.1711-9.9764-.1374-9.839.3323.3324c-5.1872.0152-10.3742.0452-15.5614.0018-5.1871-.0137-10.3743-.09-15.5613-.1486l.1856-.1856q-.0757,4.96-.0828,9.92c.0108,3.3065.0351,6.6131.0972,9.92l-.2-.2c2.5828-.0359,5.1526-.0891,7.7261-.0858,2.5693-.02,5.1468.0086,7.7294.03q3.8679.0227,7.7752.0918Z"/><path class="cls-3" d="M73.7834,43.0311a17.48,17.48,0,0,1-1.9163.233c-.3448.0213-.6953.0419-1.0493.04a8.4421,8.4421,0,0,1-1.0561-.0686l-.25-.0279.0214-.2009a13.7129,13.7129,0,0,0,.1248-1.4862,12.6539,12.6539,0,0,0-.0818-1.4862l-.0159-.1614.2017-.0243c.6661-.08,1.3324-.1263,1.9987-.1435.6664-.0295,1.3327-.0506,1.999-.016l.3563.0186-.0113.3266c-.0183.5362-.0617,1.0717-.121,1.5791C73.921,42.1193,73.8571,42.6022,73.7834,43.0311Zm-.0479-.048-.2-1.555c-.0591-.4836-.1026-.9388-.121-1.3935l.3451.345c-.6663.0347-1.3326.0137-1.999-.0159-.6663-.0172-1.3326-.0633-1.9987-.1435l.1855-.1856a12.6753,12.6753,0,0,0-.0817,1.4862A13.7127,13.7127,0,0,0,69.99,43.007l-.2285-.2287a6.8876,6.8876,0,0,1,.9427-.0685c.3123-.0016.628.019.95.04C72.2969,42.7947,72.973,42.8814,73.7355,42.9831Z"/><path class="cls-3" d="M72.7621,42.2547a3.539,3.539,0,0,1-.93.2333,3.0194,3.0194,0,0,1-1.1192-.0267l-.2674-.0687.0368-.1619a3.402,3.402,0,0,0,.1266-.7516,3.299,3.299,0,0,0-.0818-.7517l-.0261-.1349.2119-.0508a5.9459,5.9459,0,0,1,1.0125-.1462,5.5807,5.5807,0,0,1,1.0127-.0132l.364.0365-.0189.3086A5.3969,5.3969,0,0,1,72.7621,42.2547Zm-.0481-.0479a12.6519,12.6519,0,0,1-.3209-1.4794l.3449.345a5.5807,5.5807,0,0,1-1.0127-.0132,5.9559,5.9559,0,0,1-1.0125-.1462l.1856-.1856a3.2934,3.2934,0,0,0-.0818.7517,3.4076,3.4076,0,0,0,.1265.7516l-.23-.23a1.98,1.98,0,0,1,.9061-.0265C71.9353,42.021,72.2767,42.1005,72.714,42.2068Z"/><path class="cls-3" d="M53.0577,36.7323a6.8193,6.8193,0,0,0,.3264-.8059l.3121-.8357c.2125-.555.4305-1.1088.6609-1.6547l.0708-.1681.2-.01a24.1739,24.1739,0,0,1,3.0882.146,19.8418,19.8418,0,0,0,3.0873-.0779c1.029-.0982,2.0581-.1235,3.0871-.1579q1.5437-.0474,3.0878.0446l.2138.013.06.1744c.38,1.1.7146,2.2182,1.0125,3.35l-.0632.0244c-.5379-1.04-1.0392-2.0933-1.4949-3.1645l.2738.1873q-1.5433.1062-3.0874.0691c-1.0293-.0261-2.0585-.0433-3.0881-.1333a19.83,19.83,0,0,0-3.0878-.0534,24.1583,24.1583,0,0,1-3.0869.17l.27-.1777c-.2476.5446-.5158,1.0775-.8024,1.6035-.1429.263-.2926.523-.4529.778a3.4523,3.4523,0,0,1-.5569.7386Z"/><path class="cls-3" d="M69.4534,36.2645l-.0891-1.1311-.0088-.1116.132-.0116c.77-.0682,1.54-.0978,2.3094-.1482.385-.0194.77-.0674,1.1547-.0774a6.8887,6.8887,0,0,1,1.1548.07l.3095.039-.0308.24a6.3388,6.3388,0,0,1-.2447,1.1311h-.0678a6.3388,6.3388,0,0,1-.2447-1.1311l.2785.2785a6.8887,6.8887,0,0,1-1.1548.07c-.3848-.01-.77-.058-1.1547-.0774-.77-.05-1.54-.08-2.3094-.1482l.123-.123-.0892,1.1311Z"/><path class="cls-3" d="M47.1165,36.2645l-.0893-1.1311-.0087-.1116L47.15,35.01c.77-.0682,1.5391-.0978,2.3087-.1482.3849-.0193.77-.0674,1.1545-.0774a6.884,6.884,0,0,1,1.1544.07l.3095.0389-.0308.24a6.3563,6.3563,0,0,1-.2447,1.1311h-.0679a6.3567,6.3567,0,0,1-.2448-1.1311l.2787.2785a6.884,6.884,0,0,1-1.1544.07c-.3848-.01-.77-.0581-1.1545-.0774-.77-.05-1.539-.08-2.3087-.1482l.1231-.123-.0893,1.1311Z"/><path class="cls-3" d="M48.0687,35.1333l-.1152-1.1312-.0136-.1336.1628-.0157c.5105-.0491,1.021-.0808,1.5313-.1221a6.28,6.28,0,0,1,1.5313-.0448l.3481.06-.032.2558a4.2448,4.2448,0,0,1-.2822,1.1312h-.0677a4.2484,4.2484,0,0,1-.2821-1.1312l.3159.3159a6.2794,6.2794,0,0,1-1.5313-.0447c-.51-.0413-1.0208-.0729-1.5313-.1221l.1492-.1491-.1153,1.1312Z"/><path class="cls-2" d="M67.7316,46.683a7.0774,7.0774,0,1,1-7.0784-7.0763A7.0781,7.0781,0,0,1,67.7316,46.683Z"/><path class="cls-3" d="M67.7654,46.683a7.6554,7.6554,0,0,1-1.957,5.1542,6.6812,6.6812,0,0,1-2.3324,1.6583,7.0288,7.0288,0,0,1-2.8223.5447,7.4452,7.4452,0,0,1-5.0875-2.27,7.68,7.68,0,0,1-2.175-5.0872,7.1474,7.1474,0,0,1,2.0324-5.23,7.2911,7.2911,0,0,1,5.23-2.2083,7.0418,7.0418,0,0,1,5.162,2.2765A7.656,7.656,0,0,1,67.7654,46.683Zm-.0677,0A6.5767,6.5767,0,0,0,65.5,41.8372a7.1915,7.1915,0,0,0-4.8464-1.8688,6.9051,6.9051,0,0,0-4.7787,1.936,7.0528,7.0528,0,0,0-2.1123,4.7788,6.5613,6.5613,0,0,0,1.97,4.9211,6.7462,6.7462,0,0,0,4.9215,1.874,7.5126,7.5126,0,0,0,4.8537-1.9422A6.5794,6.5794,0,0,0,67.6977,46.683Z"/><path class="cls-3" d="M65.9242,46.6843a5.7336,5.7336,0,0,1-1.3914,3.7918,4.8677,4.8677,0,0,1-3.7922,1.6387,5.4633,5.4633,0,0,1-3.7191-1.712,5.6906,5.6906,0,0,1-1.6148-3.7194,5.2177,5.2177,0,0,1,1.4682-3.8668,5.3583,5.3583,0,0,1,3.8667-1.6443A5.0827,5.0827,0,0,1,64.54,42.8852,5.7381,5.7381,0,0,1,65.9242,46.6843Zm-.0679,0a4.6552,4.6552,0,0,0-1.6318-3.4835,5.304,5.304,0,0,0-3.4829-1.305,4.9725,4.9725,0,0,0-3.4156,1.3719,5.1218,5.1218,0,0,0-1.5479,3.4158,4.6846,4.6846,0,0,0,1.3988,3.5638A4.8577,4.8577,0,0,0,60.7406,51.55a5.6257,5.6257,0,0,0,3.4911-1.3754A4.6557,4.6557,0,0,0,65.8563,46.6843Z"/><path class="cls-3" d="M64.7273,46.6843a4.59,4.59,0,0,1-1.0542,2.9774,3.7273,3.7273,0,0,1-2.9772,1.3027,4.31,4.31,0,0,1-2.9046-1.375,4.5466,4.5466,0,0,1-1.2785-2.9047,4.0643,4.0643,0,0,1,1.1306-3.0525,4.206,4.206,0,0,1,3.052-1.3073A3.9341,3.9341,0,0,1,63.68,43.7,4.59,4.59,0,0,1,64.7273,46.6843Zm-.0677,0a3.51,3.51,0,0,0-1.2953-2.6688,4.1619,4.1619,0,0,0-2.6686-.9673,3.8211,3.8211,0,0,0-2.6011,1.0351,3.9688,3.9688,0,0,0-1.21,2.6014,3.5375,3.5375,0,0,0,1.0625,2.7492,3.7034,3.7034,0,0,0,2.7494.9659,4.5029,4.5029,0,0,0,2.6759-1.0392A3.5114,3.5114,0,0,0,64.66,46.6843Z"/><path class="cls-3" d="M51.4834,52.0326a2.1009,2.1009,0,0,1-.2779,1.112,1.1866,1.1866,0,0,1-1.1113.5274,1.64,1.64,0,0,1-1.0374-.6,2.0344,2.0344,0,0,1-.5057-1.0364,1.5307,1.5307,0,0,1,1.54-1.7192,1.3378,1.3378,0,0,1,1.1172.6A2.0431,2.0431,0,0,1,51.4834,52.0326Zm-.0679,0a.9262.9262,0,0,0-.5221-.8,1.6747,1.6747,0,0,0-.8016-.1929,1.22,1.22,0,0,0-1.1695.9952.93.93,0,0,0,.29.8813,1.0658,1.0658,0,0,0,.8816.1916,2.5668,2.5668,0,0,0,.8062-.2682A.919.919,0,0,0,51.4155,52.0326Z"/><path class="cls-3" d="M45.1341,38.8422a69.7512,69.7512,0,0,1,7.6945-.2483c1.2824.0486,2.5649.1473,3.8473.1723,1.2824.02,2.5647-.0175,3.8471-.0757,2.5649-.1288,5.13-.1745,7.6945-.176,2.5649.034,5.13.1126,7.6944.3277V38.91c-2.5647.2151-5.13.2937-7.6944.3277-2.5647-.0016-5.13-.0473-7.6945-.176-1.2824-.0582-2.5647-.0956-3.8471-.0757-1.2824.025-2.5649.1237-3.8473.1723a69.8,69.8,0,0,1-7.6945-.2483Z"/><path class="cls-3" d="M45.1341,54.605a69.7512,69.7512,0,0,1,7.6945-.2483c1.2824.0486,2.5649.1473,3.8473.1722,1.2824.02,2.5647-.0174,3.8471-.0756,2.5649-.1288,5.13-.1745,7.6945-.176,2.5649.034,5.13.1126,7.6944.3277v.0678c-2.5647.2152-5.13.2938-7.6944.3278-2.5647-.0016-5.13-.0473-7.6945-.176-1.2824-.0582-2.5647-.0956-3.8471-.0758-1.2824.025-2.5649.1238-3.8473.1724a69.7759,69.7759,0,0,1-7.6945-.2484Z"/><path class="cls-1" d="M70.681,62.4094c-2.2221.0538-4.4523.08-6.6855.0907s-4.464.0483-6.7.04l-6.71-.0577c-2.2356-.015-4.47-.0545-6.7035-.0237l-.0655.0009,0-.067-.0149-2.1915-.0007-.08.0816-.0006L57.28,60.0239l6.699.0075,6.6989.0672.0207,0,.0173.007,2.6112,1.0694.16.0658-.1581.0659Zm-.0069-.0332,2.5976-1.2.0023.1315L70.64,60.2963l.0377.0073-6.6989.0673-6.699.0075L43.8818,60.282l.0808-.0808-.015,2.1915-.0658-.0658c2.2322.0307,4.464-.0088,6.6942-.0239l6.6884-.0577c2.2294-.0081,4.4642.0284,6.6974.04S68.43,62.3223,70.6741,62.3762Z"/><polygon class="cls-2" points="15.613 47.261 15.766 65.062 41.635 65.035 41.629 47.068 15.613 47.261"/><path class="cls-3" d="M15.6369,47.285l.2812,8.9691c.0573,2.946.1356,5.8749.1439,8.8052l-.2964-.2936q3.2336.0011,6.4673.07c2.1557.03,4.3116.0886,6.4673.09,2.1559.0232,4.3116.0141,6.4674-.005l6.4673-.0935-.2073.2075q-.0837-4.4918-.11-8.9834c-.0129-2.9945-.0556-5.9889-.0439-8.9834l.3585.3557c-4.2947.0283-8.58.0372-12.9018-.0017Zm-.0483-.0476,12.9234-.33c4.35-.1034,8.7369-.1589,13.1144-.1951l.357-.0029.0017.3588c.0136,2.9945-.0272,5.989-.0379,8.9834q-.0311,4.4917-.1047,8.9835l-.0036.21-.2037-.0026-6.4673-.08c-2.1559-.0147-4.3116-.0191-6.4673.0086-2.1557.0062-4.3115.07-6.4672.1039q-3.2335.07-6.4673.0832l-.2923.0008-.0043-.2944c-.0427-3.0033-.0154-6.008-.0089-8.9955C15.4937,53.09,15.5291,50.1285,15.5886,47.2374Z"/><path class="cls-5" d="M26.9505,62.7432s-.0225.0357-.0635.1086A1.0307,1.0307,0,0,1,26.8,62.98a.2327.2327,0,0,1-.1961.1087c-.3066.0132-.7484.0357-1.273.041a.44.44,0,0,1-.3868-.2769c-.05-.14-.0894-.2761-.1378-.4205-.0953-.2868-.1788-.5942-.2728-.91-.09-.3166-.1948-.64-.302-.969-.0557-.1623-.1126-.3271-.17-.4928a.6427.6427,0,0,1-.0656-.27.3081.3081,0,0,1,.1756-.2411.7983.7983,0,0,1,.2788-.0338l.2629-.0093c.1743-.0065.35-.0112.522-.0172.3457-.0079.6855-.0145,1.014-.02a1.951,1.951,0,0,1,.2623.002.372.372,0,0,1,.2557.1821,2.6022,2.6022,0,0,1,.1351.4729,5.6941,5.6941,0,0,1,.1185.8525,8.1713,8.1713,0,0,1-.0126,1.28l-.0556.4835Zm-.0165-.0086c.002-.0133.0073-.1849.0013-.4809a12.1286,12.1286,0,0,0-.0735-1.2617c-.0325-.2583-.0795-.5372-.1417-.8273a3.1021,3.1021,0,0,0-.12-.4179.1721.1721,0,0,0-.1232-.0855c-.045-.0053-.153-.0026-.2272-.0039-.3292-.0033-.6689-.006-1.0146-.0093-.1723-.0033-.3478-.0079-.5213-.0119l-.263-.0053a.7539.7539,0,0,0-.24.0105.2127.2127,0,0,0-.1311.16.5583.5583,0,0,0,.0463.2371c.053.1669.1066.3324.159.4967.1126.3266.2232.6478.3418.9558.1139.3086.2325.6054.3278.8908.0484.1417.0947.28.1411.412a.2787.2787,0,0,0,.2391.1847c.5279.0033.9643.02,1.271.0325.07.0153.11-.0265.1543-.0682a1.28,1.28,0,0,0,.0974-.1126C26.9016,62.7723,26.9294,62.74,26.934,62.7346Z"/><path class="cls-3" d="M26.9648,62.7525a1.5664,1.5664,0,0,1-.1141.2361.291.291,0,0,1-.2544.1721l.01,0c-.3318.0342-.6648.0722-.9986.091l-.25.0144a.5581.5581,0,0,1-.3106-.0782.5854.5854,0,0,1-.2255-.239,2.0628,2.0628,0,0,1-.085-.2515c-.2084-.6394-.2932-1.3068-.4977-1.936-.0856-.3345-.2332-.5918-.32-.97a.4146.4146,0,0,1,.4263-.3778l.4939-.0445c.3316-.0286.6646-.0444.998-.0572l.5085-.0192a.6988.6988,0,0,1,.3045.0332.5453.5453,0,0,1,.2712.2416l.0071.0129.0012.0041a4.0814,4.0814,0,0,1,.1788.7976,4.4193,4.4193,0,0,1,.0467.7981c-.01.2654-.0359.53-.0553.7917A4.0869,4.0869,0,0,1,26.9648,62.7525Zm-.0283-.0187a7.3732,7.3732,0,0,0-.0156-.7726c-.0143-.2582-.0349-.5141-.04-.769a4.3666,4.3666,0,0,0-.1068-.7515,3.8327,3.8327,0,0,0-.1709-.72l.0081.0169c-.05-.08-.1091-.097-.2831-.0919l-.487-.0039-.9928-.0071-.5011-.0116a.2286.2286,0,0,0-.2768.18,1.7662,1.7662,0,0,0,.1187.4508l.1536.4736c.2009.635.48,1.2446.674,1.87.094.367.193.4174.5916.39.33-.0025.66.014.9918.0269l.0105,0C26.7157,63.0471,26.8326,62.8611,26.9365,62.7338Z"/><path class="cls-3" d="M26.9186,62.7274l-.0933-.7438c-.0311-.2487-.0665-.4956-.0834-.7436a6.3953,6.3953,0,0,0-.1159-.733c-.0258-.2511-.0916-.4774-.1379-.7144l.0062.0133a.0494.0494,0,0,0-.0418-.0362l-.1545-.0137-.3269-.0274-.66-.0288-.66.0026-.331.0114a.1156.1156,0,0,0-.134.1044l-.0008.0062-.0012.0032a1.94,1.94,0,0,0,.08.2258l.1025.2765.2124.5511c.14.3665.2893.7336.42,1.1127l.1952.5636c.0807.2345.0394.2678.2275.2785.3963.0247.7917.065,1.1866.11l.0113.0014h0c.028.0238.0876-.0149.1414-.0684Zm.0308.0143c-.04.0646-.0833.1311-.1289.1939a.4836.4836,0,0,1-.0778.0933.1836.1836,0,0,1-.151.0462l.0111.0015c-.3976.0251-.7946.0452-1.1909.05l-.0743.0015a.4.4,0,0,1-.1169-.018.4437.4437,0,0,1-.1924-.1207,1.013,1.013,0,0,1-.1565-.3225l-.205-.5559c-.1457-.3642-.2667-.7422-.3914-1.1231-.0616-.19-.1287-.377-.177-.5722l-.0788-.29a.8482.8482,0,0,1-.0452-.3495l-.0019.0091a.3169.3169,0,0,1,.3519-.2449l.329.0272.6595.03.66-.0167.3331-.02.1754-.008a.2824.2824,0,0,1,.2242.1349l.0033.0055.0033.0081a3.4,3.4,0,0,1,.21.7521,4.4886,4.4886,0,0,1,.0869.7606c.0123.2543.0062.51.0044.7632A4.7319,4.7319,0,0,1,26.9494,62.7417Z"/><path class="cls-5" d="M32.5618,59.4435c-.0179.0695-.0384.141-.0642.2112-.0139.0338-.0279.0683-.045.102a.233.233,0,0,1-.0735.0914l.0032-.0013c-.1145.0927.0033.2358-.0119.3722a1.5437,1.5437,0,0,1-.0536.404c-.0179.1418-.169.2464-.1868.3425a1.5575,1.5575,0,0,1,.0139.2c-.0007.07-.006.1371-.0133.2047s-.0165.1358-.03.2046a.8476.8476,0,0,1-.0251.1027.2672.2672,0,0,1-.0616.1039.2338.2338,0,0,0-.0762.1432c-.0046.0417.0232.12.0238.1926a.9373.9373,0,0,1-.0668.4279.6892.6892,0,0,1-.3365.2954.9939.9939,0,0,1-.4253.0709l-.4046.002h-.808L28.3064,62.89h-.0079a3.2254,3.2254,0,0,1-.3829-.0953c-.1391-.0524-.2213-.1265-.36-.1233a.0989.0989,0,0,1-.0808-.1039l.0073-.0974.0132-.1934c.0033-.1291.0132-.2583.0106-.3881a7.9471,7.9471,0,0,0-.1391-1.5406c-.0252-.1265-.0556-.2516-.09-.3755-.0178-.0616-.0364-.1225-.0576-.1841a.3075.3075,0,0,1-.0265-.11.178.178,0,0,1,.055-.1258.1869.1869,0,0,1,.1192-.05.7119.7119,0,0,0,.0874-.0186.7569.7569,0,0,0,.1669-.0695.985.985,0,0,0,.2756-.2357,5.4516,5.4516,0,0,0,.3815-.6624l.3709-.6842.0126-.0172a.3473.3473,0,0,0,.0232-.04.5619.5619,0,0,0,.0225-.055.929.929,0,0,0,.0357-.1232,2.0318,2.0318,0,0,0,.04-.2636,3.92,3.92,0,0,0,.002-.5431l-.0007-.0086v-.006a1.196,1.196,0,0,1,.1325-.4484.3962.3962,0,0,1,.2046-.1841.3544.3544,0,0,1,.2808.0285.78.78,0,0,1,.1948.1437,1.2916,1.2916,0,0,1,.153.1662l.0728.0915a.624.624,0,0,1,.06.1013,1.338,1.338,0,0,1,.08.2206,4.3072,4.3072,0,0,1,.0039,1.7412l-.0019.01-.0047.0093c-.03.07-.0371.16.0059.1987a.3307.3307,0,0,0,.23.06l.5934.0139c.3941.0059.79.0192,1.1843.0186h.004a1.2894,1.2894,0,0,1,.3954.1443.46.46,0,0,1,.1569.1438A.2666.2666,0,0,1,32.5618,59.4435Zm-.0172-.006a.2439.2439,0,0,0-.0338-.1915.4235.4235,0,0,0-.151-.1324,1.2353,1.2353,0,0,0-.3881-.1325l.0027.0007c-.3948.0033-.79.0218-1.185.0331l-.5921.0192a.4423.4423,0,0,1-.3285-.0834.2678.2678,0,0,1-.0782-.18.4537.4537,0,0,1,.0318-.1775l-.0053.0186a5.8993,5.8993,0,0,0,.0577-.8425,3.3181,3.3181,0,0,0-.0921-.8266,1.1906,1.1906,0,0,0-.0662-.1828.6482.6482,0,0,0-.05-.0835l-.0616-.0742a1.1217,1.1217,0,0,0-.1371-.1477.59.59,0,0,0-.15-.1106.1635.1635,0,0,0-.1318-.02.2215.2215,0,0,0-.1026.102,1.0166,1.0166,0,0,0-.1106.3682v-.0145a4.2271,4.2271,0,0,1-.01.5709,2.179,2.179,0,0,1-.0477.2875,1.057,1.057,0,0,1-.045.1444.5014.5014,0,0,1-.0312.0709.3891.3891,0,0,1-.051.08l.0127-.0166-.3842.6756a5.1615,5.1615,0,0,1-.4179.6716,1.092,1.092,0,0,1-.3193.259.9381.9381,0,0,1-.1947.0735c-.0689.0212-.1483.0139-.1623.0364-.0258.0338-.0311.05-.0033.1245l.053.19c.0331.1271.0616.2543.0835.3835a8.0465,8.0465,0,0,1,.1073,1.5591l-.0087.39-.0105.1941-.0053.0967a.0326.0326,0,0,0,.0278.0364,1.0044,1.0044,0,0,1,.3722.1186,2.7313,2.7313,0,0,0,.3749.08l-.0073-.0013,1.6141-.0411.8081-.01.404-.0027a.8476.8476,0,0,0,.3649-.05.5394.5394,0,0,0,.2683-.2172.8662.8662,0,0,0,.0695-.361c.0047-.0622-.0206-.1146-.0133-.2086a.3358.3358,0,0,1,.114-.2027c.0722-.0695.0848-.2285.1112-.351a1.4266,1.4266,0,0,0,.0172-.4c.0166-.09.0782-.13.1179-.1821a.445.445,0,0,0,.0928-.1663,1.3132,1.3132,0,0,0,.0629-.3921.49.49,0,0,0-.0285-.194.1959.1959,0,0,1,.0563-.1987l.004-.0027a.2341.2341,0,0,0,.0622-.0788.9458.9458,0,0,0,.0458-.0987A1.94,1.94,0,0,0,32.5446,59.4375Z"/><path class="cls-3" d="M32.5782,59.4477l-.0633.2189a.4357.4357,0,0,1-.1223.2017l-.0224-.0429.003-.0013.1541-.064-.13.1057c-.0955.0779.0159.2124.0035.3565v-.0034l-.045.4146.0012-.0052c-.0153.1554-.1549.2649-.1694.3479l.001-.0107.0228.2073,0-.0066a2.5136,2.5136,0,0,1-.049.5415l.0023-.008a.9716.9716,0,0,1-.0841.1535l.0065-.0066c-.0338.0395-.05.0778-.0436.0792l-.0006.0106a1.1272,1.1272,0,0,1,.0391.26.9566.9566,0,0,1-.0335.3059.7655.7655,0,0,1-.431.467,1.36,1.36,0,0,1-.5973.0952l-.5442-.0048c-.7279.0057-1.453-.06-2.1783-.0894l-.0119,0-.0036-.0011-.3845-.11c-.1368-.0515-.234-.1323-.3418-.1266l-.0053,0-.0031-.0007a.1566.1566,0,0,1-.1322-.1741l-.0006.0047a7.0527,7.0527,0,0,0-.01-1.5185,5.3058,5.3058,0,0,0-.1339-.7452c-.035-.1207-.0618-.2429-.103-.3617a1.8735,1.8735,0,0,1-.0615-.1966.2574.2574,0,0,1,.0693-.2635l-.0093.01a.2785.2785,0,0,1,.1969-.0923l-.0105.0007a.7409.7409,0,0,0,.3949-.2352,1.8476,1.8476,0,0,0,.2612-.4336c.1609-.3348.33-.6491.4989-.9712l.0076-.0146.0038-.0035a.5462.5462,0,0,0,.0654-.1885l.0313-.2448-.0058-.5092,0-.0138V56.775l0-.01.0019-.0143a1.6733,1.6733,0,0,1,.0748-.3493.7261.7261,0,0,1,.2293-.3467.4975.4975,0,0,1,.4656-.0823,1.1714,1.1714,0,0,1,.3441.2224l-.0106-.0105c.0757.0837.1649.1734.2242.2544A1.2289,1.2289,0,0,1,30.04,56.6l.0594.1637a2.565,2.565,0,0,1,.1154.646,5.2861,5.2861,0,0,1-.1179,1.2619l-.0056.03-.0065.0053c-.0263.0221-.0106.1031-.0357.0561l.01.0106a1.5862,1.5862,0,0,0,.4014.05l.5055.0354c.3368.0187.674.0481,1.0114.0551h.004l.0028.0006a1.317,1.317,0,0,1,.4057.1578A.3413.3413,0,0,1,32.5782,59.4477Zm-.0328-.0084a.3.3,0,0,0-.181-.325,1.2575,1.2575,0,0,0-.3932-.1358l.0064.0006c-.3376-.0034-.6756.0154-1.0138.0236l-.5071.0143-.2535.007a.4231.4231,0,0,1-.33-.09l.01.0105a.2524.2524,0,0,1-.0754-.2022.4165.4165,0,0,1,.0369-.1575l-.0119.0347a5.3815,5.3815,0,0,0,.0429-1.1861,2.2464,2.2464,0,0,0-.1043-.56.6191.6191,0,0,0-.11-.223c-.0631-.0838-.1233-.1357-.1833-.2055l-.0079-.0093-.0029-.0014c-.0685-.0338-.1294-.1113-.1924-.1229a.1307.1307,0,0,0-.139.0261.4449.4449,0,0,0-.1148.1855,1.3459,1.3459,0,0,0-.0651.2761l.0017-.0242v.0058l-.0007-.0135-.0083.564-.0443.2861a.8135.8135,0,0,1-.1264.3081l.0113-.0178-.5353.9459a2.0678,2.0678,0,0,1-.33.4768.97.97,0,0,1-.5446.2778l-.0093.0015-.0013-.0008c-.008-.0039-.0553.0173-.0416.0083l-.0094.01c-.05.0267-.006.12.028.2572.0349.1247.0556.254.0839.38a7.4118,7.4118,0,0,1,.0977.7671,10.7466,10.7466,0,0,1,.0055,1.5394l0,.0047,0,0c-.0052.0044.022.0386.0293.0337l-.0083,0a1.0385,1.0385,0,0,1,.3886.1224l.3713.0785-.0153-.0015,2.1784-.0416.5451-.0077a1.1886,1.1886,0,0,0,.4733-.0464c.3224-.1215.381-.3857.3369-.8006l-.0006.01a.3225.3225,0,0,1,.1086-.2067l.0066-.0068a.1482.1482,0,0,1,.0389-.0542l.0025-.0083a2.3982,2.3982,0,0,0,.0874-.4822l0-.0045V61.158l-.0052-.1925v-.007l.0013-.0039a.5281.5281,0,0,1,.12-.1854.3573.3573,0,0,0,.0838-.1512l.001-.0056.0624-.3932v-.0037a.585.585,0,0,0-.0255-.1833.19.19,0,0,1,.0527-.2044l.0243.0418-.0031.0011-.1369.0517.1144-.0947A.8757.8757,0,0,0,32.5454,59.4393Z"/><path class="cls-3" d="M32.5282,59.4335a.283.283,0,0,0-.184-.3012,1.2116,1.2116,0,0,0-.378-.1209l.0132-.06.0025.0007.2212.0531-.2286.0075c-.4176.0138-.8342.0576-1.2512.0858-.2121.0153-.4111.0381-.6342.0472a.4244.4244,0,0,1-.3727-.1848.5371.5371,0,0,1-.02-.4166l.2553.0858-.0048.0186-.3219,1.23.0578-1.2855.0217-.48c.0032-.16.0235-.3183.0164-.4791a3.4413,3.4413,0,0,0-.0372-.47,1.2456,1.2456,0,0,0-.131-.41l.0079.01c-.0639-.0863-.1192-.1445-.1771-.2154l-.0048-.0057-.0035-.0024c-.0439-.0289-.0878-.0744-.1275-.0983-.0219-.0126-.04-.0073-.0139-.0153a.1.1,0,0,0-.04.0288.8549.8549,0,0,0-.128.35l-.1868-.0121,0-.0144.1864-.0037c-.0124.2024-.0188.4037-.0367.604a1.341,1.341,0,0,1-.1947.591l-.0941-.074.0128-.0162.099.0655c-.2009.3393-.4006.6772-.585,1.0246a1.7585,1.7585,0,0,1-.3686.4844.8226.8226,0,0,1-.2663.1658c-.05.02-.095.0418-.15.0584l-.0812.0152c-.0144-.0074-.0692.0324-.0074-.0172l-.0046.0067c-.0126.0217-.0025,0-.0025,0l.0149.0419.0025.0073a8.0208,8.0208,0,0,1,.2947,2.846l-.0012.0122a.1331.1331,0,0,0-.0294-.1006.12.12,0,0,0-.06-.04l-.0566-.0049a1,1,0,0,1,.4336.1192l.3549.07-.057.3393-.0071-.0011-1.6363-.2681,1.662-.0735c.6535-.0289,1.3067-.04,1.9614-.0465.3231,0,.6634-.01.9768.0039a.5223.5223,0,0,0,.3544-.1189c.0649-.0355.1059-.2135.1134-.3479l0-.01c.0081-.0175-.0146-.1173-.0028-.2027a.4037.4037,0,0,1,.1266-.2437.2107.2107,0,0,0,.083-.1283l.05-.1958-.001.0058L32,60.9669,32,60.9477a.4229.4229,0,0,1,.1383-.203l.0034-.0038.0007-.001.09-.1486.0366-.1854.0343-.1877-.0229-.1826-.0008-.0029a.2233.2233,0,0,1,.0682-.2256l.0027-.002a.4973.4973,0,0,0,.1071-.17Zm.0329.008a.89.89,0,0,1-.182.4058l.0025-.0018a.1688.1688,0,0,0-.0443.1716l-.0009-.0026.0341.205-.0276.1991-.0253.2014c-.027.0646-.0628.13-.0969.1947l.0038-.0045c-.0551.07-.0934.107-.0972.1609l.0007-.0189.0016.4191-.0011.0061-.03.2064a.4258.4258,0,0,1-.1111.2246.18.18,0,0,0-.05.1174c-.0036.0521.0216.0861.0244.2055l0-.0093a.724.724,0,0,1-.1705.5621.8329.8329,0,0,1-.54.2264l-.9832.0208c-.6519.0086-1.3048.0439-1.9577.0443l.0257-.3416.0071.0014-.0568.3392-.4057-.0928a1.0975,1.0975,0,0,0-.3-.1141l-.0265.0039-.03-.0088a.2013.2013,0,0,1-.1032-.0653.1935.1935,0,0,1-.0422-.148l-.001.0119c.03-.4683.0538-.9369.0427-1.4008a6.2039,6.2039,0,0,0-.1864-1.38l.0023.0071a.3849.3849,0,0,1-.0212-.0855.1658.1658,0,0,1,.04-.1212l-.0044.0065c.0978-.085.099-.0406.1314-.0566l.0643-.0076c.04-.01.0848-.0282.1275-.0416a.6908.6908,0,0,0,.24-.1289,1.5151,1.5151,0,0,0,.353-.44c.1975-.34.3987-.6789.5819-1.0258l.099.0654-.0123.0166-.094-.0739a1.1856,1.1856,0,0,0,.1475-.5311c.002-.1939-.007-.3887-.0094-.5813l.1862-.0035,0,.0144-.1866-.0121a1.0191,1.0191,0,0,1,.1378-.4575.3236.3236,0,0,1,.1238-.1054.2518.2518,0,0,1,.1941.0045,1.338,1.338,0,0,1,.2239.1455l-.0081-.0079c.076.0757.1607.1587.22.2282l.0038.0046.0041.0061a1.3656,1.3656,0,0,1,.1893.5141,3.7212,3.7212,0,0,1,.053.51,3.1188,3.1188,0,0,1-.0249.5042l-.0457.5026-.2639-.0558.0056-.0184.2554.0859c-.05.1613-.0274.2572.1516.28.1948.011.4132.0092.619.0144.4184.0035.8375.0249,1.2553.0151l-.0075.0606-.0025-.0007.0133-.06a1.27,1.27,0,0,1,.39.14A.3234.3234,0,0,1,32.5611,59.4415Z"/><text class="cls-6" transform="translate(22.6461 53.6327)">Hallo!</text><text class="cls-7" transform="translate(30.9799 16.8173)">T<tspan class="cls-8" x="2.2124" y="0">agebuch</tspan></text></g></g></g></svg>