<svg xmlns="http://www.w3.org/2000/svg" viewBox="0 0 80.8746 87.9808"><defs><style>.cls-1{fill:#fff;}.cls-2{fill:#575756;}.cls-3{fill:#0087b9;}</style></defs><title>Element 33</title><g id="Ebene_2" data-name="Ebene 2"><g id="Ebene_1-2" data-name="Ebene 1"><g id="Illustrationen"><rect class="cls-1" x="15.8538" y="13.7909" width="44.7405" height="67.036" transform="translate(-20.693 32.2096) rotate(-36.6885)"/><path class="cls-2" d="M76.2221,60.8262,58.45,74.3062,40.4937,87.7969l-.2449.1839-.1822-.2464L30.1007,74.2605,20.1789,60.7538c-3.3284-4.4867-6.6372-8.9877-10.0047-13.4451L.1108,33.9074,0,33.76l.1489-.1122,17.867-13.4613,17.9057-13.41L36.21,6.56l.2154.29L46.46,20.3541l9.9712,13.5215Zm-.0671-.01-20.26-26.8051L45.84,20.6549,35.8481,7.2808l.504.0737L18.3806,20.6757l-18.01,13.27.038-.26L10.3711,47.162c3.3077,4.5019,6.6741,8.96,10.021,13.4328l10.104,13.3711L40.5559,87.37l-.4268-.0623L58.05,74.0673Z"/><path class="cls-2" d="M9.5387,33.0834a3.7774,3.7774,0,0,1,.7792,2.408A2.9229,2.9229,0,0,1,9.0307,37.775a3.4847,3.4847,0,0,1-2.5415.4784A3.7725,3.7725,0,0,1,4.2682,37.01a3.2422,3.2422,0,0,1-.7627-2.514A3.3841,3.3841,0,0,1,4.85,32.1642a3.12,3.12,0,0,1,2.6053-.5267A3.777,3.777,0,0,1,9.5387,33.0834Zm-.0545.0405a2.6951,2.6951,0,0,0-2.0931-1.0447,3.3555,3.3555,0,0,0-2.1085.6651,3,3,0,0,0-1.1459,1.8441,3.1487,3.1487,0,0,0,.4292,2.2A2.7,2.7,0,0,0,6.521,38.0358a2.88,2.88,0,0,0,2.1724-.7135A3.73,3.73,0,0,0,9.8967,35.43,2.6983,2.6983,0,0,0,9.4842,33.1239Z"/><path class="cls-2" d="M15.2576,28.8223A3.7779,3.7779,0,0,1,16.037,31.23,2.9233,2.9233,0,0,1,14.75,33.514a3.4849,3.4849,0,0,1-2.5416.4783,3.7737,3.7737,0,0,1-2.2211-1.2431,3.2423,3.2423,0,0,1-.7625-2.5141,3.3838,3.3838,0,0,1,1.3447-2.3319,3.1209,3.1209,0,0,1,2.6054-.5268A3.7767,3.7767,0,0,1,15.2576,28.8223Zm-.0543.0405A2.6956,2.6956,0,0,0,13.11,27.8181a3.3569,3.3569,0,0,0-2.1087.6651,3,3,0,0,0-1.1457,1.8441,3.1475,3.1475,0,0,0,.4292,2.2,2.699,2.699,0,0,0,1.955,1.2474,2.88,2.88,0,0,0,2.1725-.7134,3.7309,3.7309,0,0,0,1.2032-1.8925A2.6986,2.6986,0,0,0,15.2033,28.8628Z"/><path class="cls-2" d="M20.9766,24.5613a3.7764,3.7764,0,0,1,.7794,2.408,2.9227,2.9227,0,0,1-1.2872,2.2836,3.4847,3.4847,0,0,1-2.5415.4784,3.7724,3.7724,0,0,1-2.2211-1.2432,3.2426,3.2426,0,0,1-.7627-2.514,3.3846,3.3846,0,0,1,1.3448-2.3319,3.1207,3.1207,0,0,1,2.6055-.5268A3.7768,3.7768,0,0,1,20.9766,24.5613Zm-.0543.0405a2.6954,2.6954,0,0,0-2.0931-1.0447,3.3561,3.3561,0,0,0-2.1087.6651,3,3,0,0,0-1.1457,1.8441,3.1486,3.1486,0,0,0,.4292,2.2,2.6993,2.6993,0,0,0,1.9551,1.2474A2.88,2.88,0,0,0,20.1315,28.8a3.7324,3.7324,0,0,0,1.2033-1.8925A2.699,2.699,0,0,0,20.9223,24.6018Z"/><path class="cls-2" d="M26.6957,20.3a3.7779,3.7779,0,0,1,.7794,2.4081,2.9236,2.9236,0,0,1-1.2872,2.2836,3.4851,3.4851,0,0,1-2.5417.4784,3.7733,3.7733,0,0,1-2.221-1.2432,3.2425,3.2425,0,0,1-.7627-2.5141,3.3844,3.3844,0,0,1,1.3449-2.3319,3.12,3.12,0,0,1,2.6053-.5267A3.7766,3.7766,0,0,1,26.6957,20.3Zm-.0543.0406a2.6956,2.6956,0,0,0-2.0931-1.0447,3.3551,3.3551,0,0,0-2.1087.6651,3,3,0,0,0-1.1459,1.8441,3.1494,3.1494,0,0,0,.4292,2.2,2.6993,2.6993,0,0,0,1.9551,1.2474,2.88,2.88,0,0,0,2.1726-.7134,3.7328,3.7328,0,0,0,1.2033-1.8924A2.7,2.7,0,0,0,26.6414,20.3408Z"/><path class="cls-2" d="M13.7269,38.7048a3.7764,3.7764,0,0,1,.7794,2.408,2.9227,2.9227,0,0,1-1.2872,2.2836,3.4842,3.4842,0,0,1-2.5415.4784,3.7724,3.7724,0,0,1-2.2211-1.2432,3.2426,3.2426,0,0,1-.7627-2.514,3.385,3.385,0,0,1,1.3448-2.332,3.121,3.121,0,0,1,2.6055-.5267A3.7771,3.7771,0,0,1,13.7269,38.7048Zm-.0543.0405A2.6957,2.6957,0,0,0,11.58,37.7006a3.3557,3.3557,0,0,0-2.1087.6651A3,3,0,0,0,8.3252,40.21a3.148,3.148,0,0,0,.4291,2.2,2.6993,2.6993,0,0,0,1.9551,1.2474,2.88,2.88,0,0,0,2.1724-.7134,3.7324,3.7324,0,0,0,1.2033-1.8925A2.699,2.699,0,0,0,13.6726,38.7453Z"/><path class="cls-2" d="M19.446,34.4438a3.7774,3.7774,0,0,1,.7794,2.408,2.9236,2.9236,0,0,1-1.2872,2.2836,3.4854,3.4854,0,0,1-2.5417.4784,3.7728,3.7728,0,0,1-2.221-1.2432,3.2424,3.2424,0,0,1-.7627-2.5141,3.3844,3.3844,0,0,1,1.3449-2.3319,3.12,3.12,0,0,1,2.6053-.5267A3.7763,3.7763,0,0,1,19.446,34.4438Zm-.0543.04A2.6958,2.6958,0,0,0,17.2986,33.44a3.3558,3.3558,0,0,0-2.1087.6652,3,3,0,0,0-1.1459,1.8441,3.15,3.15,0,0,0,.4292,2.2,2.7,2.7,0,0,0,1.9551,1.2475,2.88,2.88,0,0,0,2.1726-.7135A3.7328,3.7328,0,0,0,19.8042,36.79,2.6993,2.6993,0,0,0,19.3917,34.4843Z"/><path class="cls-2" d="M25.1651,30.1827a3.7776,3.7776,0,0,1,.7792,2.408,2.9232,2.9232,0,0,1-1.2873,2.2837,3.4851,3.4851,0,0,1-2.5415.4783A3.7726,3.7726,0,0,1,19.8946,34.11a3.2425,3.2425,0,0,1-.7627-2.5141,3.3844,3.3844,0,0,1,1.3449-2.332,3.12,3.12,0,0,1,2.6052-.5267A3.7775,3.7775,0,0,1,25.1651,30.1827Zm-.0545.04a2.6951,2.6951,0,0,0-2.093-1.0447,3.3557,3.3557,0,0,0-2.1087.6651,3.0013,3.0013,0,0,0-1.1458,1.8441,3.1475,3.1475,0,0,0,.4292,2.2,2.6994,2.6994,0,0,0,1.955,1.2474,2.8791,2.8791,0,0,0,2.1725-.7135,3.7312,3.7312,0,0,0,1.2034-1.8924A2.6987,2.6987,0,0,0,25.1106,30.2232Z"/><path class="cls-2" d="M30.8841,25.9216a3.7779,3.7779,0,0,1,.7792,2.4081,2.9229,2.9229,0,0,1-1.2872,2.2836,3.4847,3.4847,0,0,1-2.5415.4784,3.7727,3.7727,0,0,1-2.221-1.2432,3.2422,3.2422,0,0,1-.7627-2.514,3.3845,3.3845,0,0,1,1.3447-2.332,3.121,3.121,0,0,1,2.6055-.5267A3.7783,3.7783,0,0,1,30.8841,25.9216Zm-.0545.0406a2.6951,2.6951,0,0,0-2.0931-1.0447,3.3555,3.3555,0,0,0-2.1085.6651,3,3,0,0,0-1.1459,1.8441,3.1486,3.1486,0,0,0,.4292,2.2,2.7,2.7,0,0,0,1.9551,1.2474,2.88,2.88,0,0,0,2.1724-.7135,3.7314,3.7314,0,0,0,1.2033-1.8924A2.6983,2.6983,0,0,0,30.83,25.9622Z"/><path class="cls-2" d="M18.0462,44.5019a3.7776,3.7776,0,0,1,.7794,2.408,2.9233,2.9233,0,0,1-1.2873,2.2836,3.4847,3.4847,0,0,1-2.5415.4784,3.7727,3.7727,0,0,1-2.2211-1.2432,3.243,3.243,0,0,1-.7627-2.514,3.3851,3.3851,0,0,1,1.3449-2.332,3.1207,3.1207,0,0,1,2.6054-.5267A3.7777,3.7777,0,0,1,18.0462,44.5019Zm-.0543.0405a2.6956,2.6956,0,0,0-2.0932-1.0447,3.3561,3.3561,0,0,0-2.1087.6651,3,3,0,0,0-1.1456,1.8441,3.1485,3.1485,0,0,0,.429,2.2,2.7,2.7,0,0,0,1.9552,1.2474,2.8794,2.8794,0,0,0,2.1724-.7135,3.7314,3.7314,0,0,0,1.2033-1.8924A2.6993,2.6993,0,0,0,17.9919,44.5424Z"/><path class="cls-2" d="M23.7652,40.2408a3.7781,3.7781,0,0,1,.7794,2.4081,2.9231,2.9231,0,0,1-1.2874,2.2836,3.4847,3.4847,0,0,1-2.5415.4784,3.7733,3.7733,0,0,1-2.221-1.2432,3.2421,3.2421,0,0,1-.7626-2.5141,3.3843,3.3843,0,0,1,1.3448-2.3319,3.12,3.12,0,0,1,2.6053-.5267A3.7766,3.7766,0,0,1,23.7652,40.2408Zm-.0543.0406a2.6954,2.6954,0,0,0-2.0931-1.0447,3.3557,3.3557,0,0,0-2.1087.6651,3,3,0,0,0-1.1458,1.8441,3.1483,3.1483,0,0,0,.4291,2.2,2.6994,2.6994,0,0,0,1.9551,1.2474A2.88,2.88,0,0,0,22.92,44.48a3.7326,3.7326,0,0,0,1.2033-1.8925A2.6991,2.6991,0,0,0,23.7109,40.2814Z"/><path class="cls-2" d="M29.4843,35.98a3.7776,3.7776,0,0,1,.7792,2.408,2.923,2.923,0,0,1-1.2872,2.2836,3.4845,3.4845,0,0,1-2.5416.4784,3.7726,3.7726,0,0,1-2.2209-1.2431,3.2425,3.2425,0,0,1-.7627-2.5141,3.3844,3.3844,0,0,1,1.3449-2.332,3.12,3.12,0,0,1,2.6052-.5267A3.7775,3.7775,0,0,1,29.4843,35.98ZM29.43,36.02a2.6953,2.6953,0,0,0-2.0931-1.0447,3.356,3.356,0,0,0-2.1086.6651,3,3,0,0,0-1.1458,1.8441,3.148,3.148,0,0,0,.4292,2.2,2.6994,2.6994,0,0,0,1.955,1.2474,2.88,2.88,0,0,0,2.1725-.7134,3.73,3.73,0,0,0,1.2033-1.8925A2.6983,2.6983,0,0,0,29.43,36.02Z"/><path class="cls-2" d="M35.2033,31.7188a3.7779,3.7779,0,0,1,.7793,2.408A2.9233,2.9233,0,0,1,34.6953,36.41a3.4852,3.4852,0,0,1-2.5415.4784,3.7725,3.7725,0,0,1-2.221-1.2432,3.2415,3.2415,0,0,1-.7626-2.514A3.3842,3.3842,0,0,1,30.5149,30.8a3.12,3.12,0,0,1,2.6054-.5267A3.7766,3.7766,0,0,1,35.2033,31.7188Zm-.0545.04a2.6954,2.6954,0,0,0-2.0931-1.0448,3.3562,3.3562,0,0,0-2.1085.6652,3,3,0,0,0-1.1458,1.8441,3.1477,3.1477,0,0,0,.4292,2.2,2.6993,2.6993,0,0,0,1.955,1.2474,2.88,2.88,0,0,0,2.1724-.7135,3.7313,3.7313,0,0,0,1.2033-1.8925A2.6981,2.6981,0,0,0,35.1488,31.7593Z"/><path class="cls-2" d="M22.2346,50.1233a3.7777,3.7777,0,0,1,.7792,2.4081,2.9229,2.9229,0,0,1-1.2872,2.2835,3.485,3.485,0,0,1-2.5416.4785A3.7733,3.7733,0,0,1,16.9641,54.05a3.2425,3.2425,0,0,1-.7627-2.5141,3.3837,3.3837,0,0,1,1.3449-2.332,3.12,3.12,0,0,1,2.6052-.5267A3.7779,3.7779,0,0,1,22.2346,50.1233Zm-.0545.0405a2.6953,2.6953,0,0,0-2.0931-1.0447,3.356,3.356,0,0,0-2.1086.6651,3,3,0,0,0-1.1458,1.8441,3.148,3.148,0,0,0,.4292,2.2,2.6991,2.6991,0,0,0,1.955,1.2474,2.88,2.88,0,0,0,2.1725-.7134A3.73,3.73,0,0,0,22.5926,52.47,2.699,2.699,0,0,0,22.18,50.1638Z"/><path class="cls-2" d="M27.9536,45.8623a3.7781,3.7781,0,0,1,.7793,2.408,2.9233,2.9233,0,0,1-1.2873,2.2836,3.4852,3.4852,0,0,1-2.5415.4784,3.7735,3.7735,0,0,1-2.2211-1.2432,3.2421,3.2421,0,0,1-.7625-2.514,3.384,3.384,0,0,1,1.3447-2.332,3.12,3.12,0,0,1,2.6054-.5267A3.7776,3.7776,0,0,1,27.9536,45.8623Zm-.0544.0405a2.6953,2.6953,0,0,0-2.0932-1.0447,3.3565,3.3565,0,0,0-2.1087.6651,3.0008,3.0008,0,0,0-1.1456,1.8441,3.1476,3.1476,0,0,0,.4292,2.2,2.6993,2.6993,0,0,0,1.955,1.2474,2.88,2.88,0,0,0,2.1724-.7135,3.7313,3.7313,0,0,0,1.2033-1.8925A2.6984,2.6984,0,0,0,27.8992,45.9028Z"/><path class="cls-2" d="M33.6725,41.6012a3.7778,3.7778,0,0,1,.7794,2.408,2.9231,2.9231,0,0,1-1.2872,2.2837,3.4849,3.4849,0,0,1-2.5416.4783,3.7731,3.7731,0,0,1-2.2211-1.2431,3.2428,3.2428,0,0,1-.7626-2.5141,3.3842,3.3842,0,0,1,1.3448-2.3319,3.1206,3.1206,0,0,1,2.6055-.5267A3.7761,3.7761,0,0,1,33.6725,41.6012Zm-.0543.0405a2.6961,2.6961,0,0,0-2.0931-1.0447,3.3562,3.3562,0,0,0-2.1087.6652,3,3,0,0,0-1.1457,1.844,3.148,3.148,0,0,0,.4292,2.2,2.699,2.699,0,0,0,1.955,1.2474,2.88,2.88,0,0,0,2.1725-.7134,3.733,3.733,0,0,0,1.2033-1.8925A2.6994,2.6994,0,0,0,33.6182,41.6417Z"/><path class="cls-2" d="M39.3916,37.34a3.7776,3.7776,0,0,1,.7794,2.408,2.9237,2.9237,0,0,1-1.2873,2.2836,3.4851,3.4851,0,0,1-2.5417.4784,3.7728,3.7728,0,0,1-2.2209-1.2432,3.2423,3.2423,0,0,1-.7627-2.514,3.3844,3.3844,0,0,1,1.3449-2.332,3.12,3.12,0,0,1,2.6052-.5267A3.7765,3.7765,0,0,1,39.3916,37.34Zm-.0543.04a2.6956,2.6956,0,0,0-2.0932-1.0447,3.3561,3.3561,0,0,0-2.1087.6651A3,3,0,0,0,33.99,38.8452a3.1486,3.1486,0,0,0,.429,2.2,2.7,2.7,0,0,0,1.955,1.2474,2.88,2.88,0,0,0,2.1726-.7134A3.7324,3.7324,0,0,0,39.75,39.6867,2.6993,2.6993,0,0,0,39.3373,37.3807Z"/><path class="cls-2" d="M26.5538,55.92a3.7782,3.7782,0,0,1,.7792,2.408,2.9227,2.9227,0,0,1-1.2872,2.2836,3.4848,3.4848,0,0,1-2.5415.4784,3.7726,3.7726,0,0,1-2.221-1.2431,3.2425,3.2425,0,0,1-.7627-2.5141,3.3836,3.3836,0,0,1,1.3449-2.3319,3.1194,3.1194,0,0,1,2.6053-.5267A3.7773,3.7773,0,0,1,26.5538,55.92Zm-.0545.0405a2.6956,2.6956,0,0,0-2.0931-1.0447,3.3561,3.3561,0,0,0-2.1085.6651,3,3,0,0,0-1.1459,1.8441,3.1486,3.1486,0,0,0,.4292,2.2,2.7,2.7,0,0,0,1.9551,1.2474,2.8794,2.8794,0,0,0,2.1724-.7135,3.73,3.73,0,0,0,1.2033-1.8924A2.699,2.699,0,0,0,26.4993,55.9609Z"/><path class="cls-2" d="M32.2727,51.6594a3.7776,3.7776,0,0,1,.7794,2.408,2.9228,2.9228,0,0,1-1.2873,2.2836,3.4847,3.4847,0,0,1-2.5415.4784,3.7735,3.7735,0,0,1-2.2211-1.2432,3.2422,3.2422,0,0,1-.7625-2.514,3.3842,3.3842,0,0,1,1.3447-2.332,3.1205,3.1205,0,0,1,2.6054-.5267A3.7757,3.7757,0,0,1,32.2727,51.6594Zm-.0543.0405a2.6953,2.6953,0,0,0-2.0932-1.0447,3.3559,3.3559,0,0,0-2.1087.6651,3,3,0,0,0-1.1456,1.8441,3.1477,3.1477,0,0,0,.4292,2.2,2.6993,2.6993,0,0,0,1.955,1.2474,2.88,2.88,0,0,0,2.1724-.7135,3.73,3.73,0,0,0,1.2033-1.8924A2.6986,2.6986,0,0,0,32.2184,51.7Z"/><path class="cls-2" d="M37.9917,47.3983a3.7772,3.7772,0,0,1,.7794,2.408A2.9231,2.9231,0,0,1,37.4839,52.09a3.4848,3.4848,0,0,1-2.5415.4783,3.773,3.773,0,0,1-2.2212-1.2431,3.2427,3.2427,0,0,1-.7626-2.5141,3.3846,3.3846,0,0,1,1.3448-2.3319,3.121,3.121,0,0,1,2.6055-.5268A3.7768,3.7768,0,0,1,37.9917,47.3983Zm-.0543.0405a2.6954,2.6954,0,0,0-2.0931-1.0447,3.3561,3.3561,0,0,0-2.1087.6651A3,3,0,0,0,32.59,48.9033a3.1485,3.1485,0,0,0,.4292,2.2,2.699,2.699,0,0,0,1.9551,1.2474,2.8794,2.8794,0,0,0,2.1724-.7134A3.733,3.733,0,0,0,38.35,49.7448,2.699,2.699,0,0,0,37.9374,47.4388Z"/><path class="cls-2" d="M43.7108,43.1372a3.7781,3.7781,0,0,1,.7794,2.4081,2.9233,2.9233,0,0,1-1.2873,2.2836,3.4849,3.4849,0,0,1-2.5416.4784,3.7733,3.7733,0,0,1-2.221-1.2432,3.2422,3.2422,0,0,1-.7627-2.514,3.3844,3.3844,0,0,1,1.3449-2.332,3.1206,3.1206,0,0,1,2.6053-.5267A3.7776,3.7776,0,0,1,43.7108,43.1372Zm-.0543.0406a2.6956,2.6956,0,0,0-2.0932-1.0447,3.3556,3.3556,0,0,0-2.1086.6651,3.0007,3.0007,0,0,0-1.1459,1.8441,3.15,3.15,0,0,0,.4292,2.2A2.7,2.7,0,0,0,40.693,48.09a2.88,2.88,0,0,0,2.1727-.7135,3.7319,3.7319,0,0,0,1.2032-1.8924A2.6993,2.6993,0,0,0,43.6565,43.1778Z"/><path class="cls-2" d="M30.742,61.5418a3.7766,3.7766,0,0,1,.7794,2.408,2.9231,2.9231,0,0,1-1.2872,2.2837,3.4847,3.4847,0,0,1-2.5415.4783,3.7721,3.7721,0,0,1-2.2212-1.2432,3.2424,3.2424,0,0,1-.7626-2.514,3.3846,3.3846,0,0,1,1.3448-2.3319,3.1206,3.1206,0,0,1,2.6055-.5267A3.7765,3.7765,0,0,1,30.742,61.5418Zm-.0543.04a2.6961,2.6961,0,0,0-2.0931-1.0447,3.3563,3.3563,0,0,0-2.1087.6651A3,3,0,0,0,25.34,63.0468a3.1491,3.1491,0,0,0,.4291,2.2,2.7,2.7,0,0,0,1.9552,1.2475,2.88,2.88,0,0,0,2.1724-.7135A3.7326,3.7326,0,0,0,31.1,63.8883,2.699,2.699,0,0,0,30.6877,61.5823Z"/><path class="cls-2" d="M36.4611,57.2808a3.7774,3.7774,0,0,1,.7794,2.408,2.9234,2.9234,0,0,1-1.2874,2.2837,3.4852,3.4852,0,0,1-2.5415.4783,3.7728,3.7728,0,0,1-2.221-1.2432,3.2423,3.2423,0,0,1-.7627-2.514,3.3844,3.3844,0,0,1,1.3449-2.332,3.1206,3.1206,0,0,1,2.6053-.5267A3.7768,3.7768,0,0,1,36.4611,57.2808Zm-.0543.0405a2.6956,2.6956,0,0,0-2.0932-1.0447,3.355,3.355,0,0,0-2.1086.6651,3.0007,3.0007,0,0,0-1.1459,1.8441,3.15,3.15,0,0,0,.4292,2.2,2.7,2.7,0,0,0,1.955,1.2474A2.88,2.88,0,0,0,35.616,61.52a3.7322,3.7322,0,0,0,1.2032-1.8925A2.6993,2.6993,0,0,0,36.4068,57.3213Z"/><path class="cls-2" d="M42.18,53.02a3.7772,3.7772,0,0,1,.7793,2.4081,2.9234,2.9234,0,0,1-1.2873,2.2836,3.4847,3.4847,0,0,1-2.5415.4783A3.7718,3.7718,0,0,1,36.91,56.9466a3.2419,3.2419,0,0,1-.7627-2.514,3.3847,3.3847,0,0,1,1.3448-2.332,3.12,3.12,0,0,1,2.6053-.5267A3.7763,3.7763,0,0,1,42.18,53.02Zm-.0544.0405a2.6957,2.6957,0,0,0-2.093-1.0447,3.3563,3.3563,0,0,0-2.1087.6651,3.0009,3.0009,0,0,0-1.1458,1.8441,3.1475,3.1475,0,0,0,.4292,2.2,2.7,2.7,0,0,0,1.955,1.2475,2.88,2.88,0,0,0,2.1724-.7135,3.731,3.731,0,0,0,1.2035-1.8925A2.6987,2.6987,0,0,0,42.1257,53.06Z"/><path class="cls-2" d="M47.8992,48.7587a3.7788,3.7788,0,0,1,.7792,2.408A2.9227,2.9227,0,0,1,47.3912,53.45a3.4848,3.4848,0,0,1-2.5415.4784,3.7727,3.7727,0,0,1-2.221-1.2432,3.2422,3.2422,0,0,1-.7627-2.514,3.3845,3.3845,0,0,1,1.3447-2.332,3.121,3.121,0,0,1,2.6055-.5267A3.778,3.778,0,0,1,47.8992,48.7587Zm-.0545.0405a2.6953,2.6953,0,0,0-2.0931-1.0447,3.3555,3.3555,0,0,0-2.1085.6651,3,3,0,0,0-1.1459,1.8441,3.1485,3.1485,0,0,0,.4292,2.2,2.7,2.7,0,0,0,1.9551,1.2474,2.879,2.879,0,0,0,2.1724-.7135,3.731,3.731,0,0,0,1.2033-1.8924A2.699,2.699,0,0,0,47.8447,48.7992Z"/><path class="cls-2" d="M32.2558,16.1576a3.7778,3.7778,0,0,1,.7794,2.408,2.9228,2.9228,0,0,1-1.2873,2.2836,3.4842,3.4842,0,0,1-2.5415.4784,3.7727,3.7727,0,0,1-2.2211-1.2432,3.2422,3.2422,0,0,1-.7627-2.514,3.3844,3.3844,0,0,1,1.3449-2.332,3.1208,3.1208,0,0,1,2.6054-.5267A3.7774,3.7774,0,0,1,32.2558,16.1576Zm-.0543.0405a2.6959,2.6959,0,0,0-2.0931-1.0447A3.3557,3.3557,0,0,0,28,15.8185a3,3,0,0,0-1.1457,1.8441,3.1485,3.1485,0,0,0,.429,2.2A2.7,2.7,0,0,0,29.2382,21.11a2.88,2.88,0,0,0,2.1725-.7134,3.7322,3.7322,0,0,0,1.2032-1.8925A2.6993,2.6993,0,0,0,32.2015,16.1981Z"/><path class="cls-2" d="M37.9748,11.8966a3.7762,3.7762,0,0,1,.7794,2.408,2.9238,2.9238,0,0,1-1.2874,2.2836,3.4847,3.4847,0,0,1-2.5415.4784,3.7725,3.7725,0,0,1-2.2209-1.2432,3.2423,3.2423,0,0,1-.7627-2.514,3.3847,3.3847,0,0,1,1.3448-2.332,3.12,3.12,0,0,1,2.6053-.5267A3.7759,3.7759,0,0,1,37.9748,11.8966Zm-.0544.04a2.6951,2.6951,0,0,0-2.093-1.0447,3.3551,3.3551,0,0,0-2.1087.6651,3.0006,3.0006,0,0,0-1.1458,1.8441,3.1473,3.1473,0,0,0,.4292,2.2,2.7,2.7,0,0,0,1.955,1.2475,2.88,2.88,0,0,0,2.1726-.7135,3.7321,3.7321,0,0,0,1.2033-1.8924A2.6987,2.6987,0,0,0,37.92,11.9371Z"/><path class="cls-2" d="M36.4442,21.779a3.7782,3.7782,0,0,1,.7792,2.408,2.9231,2.9231,0,0,1-1.2872,2.2837,3.4848,3.4848,0,0,1-2.5415.4783,3.7726,3.7726,0,0,1-2.221-1.2431,3.2425,3.2425,0,0,1-.7627-2.5141A3.3841,3.3841,0,0,1,31.7557,20.86a3.1207,3.1207,0,0,1,2.6055-.5267A3.7773,3.7773,0,0,1,36.4442,21.779ZM36.39,21.82a2.6959,2.6959,0,0,0-2.0931-1.0447,3.3561,3.3561,0,0,0-2.1085.6651,3,3,0,0,0-1.1459,1.8441,3.1485,3.1485,0,0,0,.4292,2.2,2.7,2.7,0,0,0,1.9551,1.2474,2.8793,2.8793,0,0,0,2.1724-.7134,3.73,3.73,0,0,0,1.2033-1.8925A2.6986,2.6986,0,0,0,36.39,21.82Z"/><path class="cls-2" d="M42.1631,17.518a3.7776,3.7776,0,0,1,.7794,2.408A2.9228,2.9228,0,0,1,41.6552,22.21a3.4847,3.4847,0,0,1-2.5415.4784,3.773,3.773,0,0,1-2.2211-1.2432,3.2422,3.2422,0,0,1-.7625-2.514,3.3842,3.3842,0,0,1,1.3447-2.332,3.1209,3.1209,0,0,1,2.6054-.5267A3.7762,3.7762,0,0,1,42.1631,17.518Zm-.0543.04a2.6956,2.6956,0,0,0-2.0932-1.0447,3.356,3.356,0,0,0-2.1086.6651,3,3,0,0,0-1.1457,1.8441,3.1476,3.1476,0,0,0,.4292,2.2,2.6993,2.6993,0,0,0,1.955,1.2474,2.88,2.88,0,0,0,2.1725-.7134,3.7309,3.7309,0,0,0,1.2032-1.8925A2.6986,2.6986,0,0,0,42.1088,17.5585Z"/><path class="cls-2" d="M40.7634,27.5761a3.7777,3.7777,0,0,1,.7792,2.4081,2.923,2.923,0,0,1-1.2872,2.2836,3.4847,3.4847,0,0,1-2.5415.4783,3.7728,3.7728,0,0,1-2.221-1.2431,3.2421,3.2421,0,0,1-.7626-2.5141,3.3836,3.3836,0,0,1,1.3446-2.3319A3.1208,3.1208,0,0,1,38.68,26.13,3.778,3.778,0,0,1,40.7634,27.5761Zm-.0545.04a2.6954,2.6954,0,0,0-2.0931-1.0447,3.3555,3.3555,0,0,0-2.1085.6651,3,3,0,0,0-1.1458,1.8441,3.1479,3.1479,0,0,0,.4291,2.2,2.7,2.7,0,0,0,1.9551,1.2474,2.879,2.879,0,0,0,2.1724-.7134,3.7317,3.7317,0,0,0,1.2033-1.8925A2.6983,2.6983,0,0,0,40.7089,27.6166Z"/><path class="cls-2" d="M46.4823,23.3151a3.7776,3.7776,0,0,1,.7794,2.408,2.9232,2.9232,0,0,1-1.2872,2.2836,3.485,3.485,0,0,1-2.5416.4784,3.7738,3.7738,0,0,1-2.2211-1.2432,3.2421,3.2421,0,0,1-.7625-2.514,3.3842,3.3842,0,0,1,1.3447-2.332,3.1209,3.1209,0,0,1,2.6054-.5267A3.7767,3.7767,0,0,1,46.4823,23.3151Zm-.0543.04a2.6954,2.6954,0,0,0-2.0931-1.0447,3.3565,3.3565,0,0,0-2.1087.6651A3,3,0,0,0,41.0805,24.82a3.1481,3.1481,0,0,0,.4292,2.2,2.6993,2.6993,0,0,0,1.955,1.2474,2.88,2.88,0,0,0,2.1725-.7135,3.7314,3.7314,0,0,0,1.2033-1.8924A2.699,2.699,0,0,0,46.428,23.3556Z"/><path class="cls-2" d="M44.9517,33.1975a3.7779,3.7779,0,0,1,.7794,2.4081,2.9234,2.9234,0,0,1-1.2873,2.2836,3.4847,3.4847,0,0,1-2.5415.4784,3.7732,3.7732,0,0,1-2.2211-1.2432,3.2429,3.2429,0,0,1-.7627-2.5141,3.3851,3.3851,0,0,1,1.3449-2.3319,3.12,3.12,0,0,1,2.6054-.5267A3.7771,3.7771,0,0,1,44.9517,33.1975Zm-.0544.0406a2.6953,2.6953,0,0,0-2.0931-1.0447,3.3553,3.3553,0,0,0-2.1087.6651A3,3,0,0,0,39.55,34.7026a3.1482,3.1482,0,0,0,.429,2.2A2.6991,2.6991,0,0,0,41.9341,38.15a2.8793,2.8793,0,0,0,2.1724-.7134A3.7321,3.7321,0,0,0,45.31,35.5441,2.6989,2.6989,0,0,0,44.8973,33.2381Z"/><path class="cls-2" d="M50.6707,28.9365a3.7778,3.7778,0,0,1,.7794,2.408,2.9229,2.9229,0,0,1-1.2874,2.2836,3.4842,3.4842,0,0,1-2.5415.4784A3.7731,3.7731,0,0,1,45.4,32.8634a3.2425,3.2425,0,0,1-.7627-2.5141,3.3844,3.3844,0,0,1,1.3449-2.332,3.1206,3.1206,0,0,1,2.6053-.5267A3.7773,3.7773,0,0,1,50.6707,28.9365Zm-.0543.0405a2.6954,2.6954,0,0,0-2.0931-1.0447,3.3557,3.3557,0,0,0-2.1087.6651,3.0012,3.0012,0,0,0-1.1459,1.8441,3.1491,3.1491,0,0,0,.4292,2.2,2.7,2.7,0,0,0,1.9551,1.2474,2.88,2.88,0,0,0,2.1726-.7135,3.7328,3.7328,0,0,0,1.2033-1.8924A2.6993,2.6993,0,0,0,50.6164,28.977Z"/><path class="cls-2" d="M49.2709,38.9946a3.7778,3.7778,0,0,1,.7794,2.408,2.9233,2.9233,0,0,1-1.2873,2.2837,3.4847,3.4847,0,0,1-2.5415.4783A3.7731,3.7731,0,0,1,44,42.9215a3.2424,3.2424,0,0,1-.7627-2.514,3.384,3.384,0,0,1,1.3449-2.332,3.12,3.12,0,0,1,2.6054-.5267A3.7771,3.7771,0,0,1,49.2709,38.9946Zm-.0543.0405A2.6962,2.6962,0,0,0,47.1234,37.99a3.3568,3.3568,0,0,0-2.1087.6652A3,3,0,0,0,43.8691,40.5a3.1484,3.1484,0,0,0,.429,2.2,2.6994,2.6994,0,0,0,1.9552,1.2474,2.8793,2.8793,0,0,0,2.1724-.7134,3.7317,3.7317,0,0,0,1.2033-1.8925A2.6993,2.6993,0,0,0,49.2166,39.0351Z"/><path class="cls-2" d="M54.99,34.7336a3.777,3.777,0,0,1,.7794,2.408,2.9235,2.9235,0,0,1-1.2874,2.2836,3.4847,3.4847,0,0,1-2.5415.4784,3.7728,3.7728,0,0,1-2.221-1.2432,3.2421,3.2421,0,0,1-.7626-2.514,3.3847,3.3847,0,0,1,1.3448-2.332,3.1205,3.1205,0,0,1,2.6053-.5267A3.7769,3.7769,0,0,1,54.99,34.7336Zm-.0544.04a2.6951,2.6951,0,0,0-2.093-1.0447,3.3557,3.3557,0,0,0-2.1087.6651,3.0009,3.0009,0,0,0-1.1458,1.8441,3.1476,3.1476,0,0,0,.4292,2.2,2.7,2.7,0,0,0,1.955,1.2474,2.8805,2.8805,0,0,0,2.1726-.7134A3.733,3.733,0,0,0,55.3481,37.08,2.699,2.699,0,0,0,54.9355,34.7741Z"/><path class="cls-2" d="M53.4593,44.6161a3.7784,3.7784,0,0,1,.7792,2.408,2.9229,2.9229,0,0,1-1.2872,2.2836,3.4848,3.4848,0,0,1-2.5415.4783,3.7715,3.7715,0,0,1-2.221-1.2431,3.2423,3.2423,0,0,1-.7627-2.514,3.3841,3.3841,0,0,1,1.3447-2.332,3.1207,3.1207,0,0,1,2.6055-.5267A3.777,3.777,0,0,1,53.4593,44.6161Zm-.0545.04a2.6959,2.6959,0,0,0-2.0931-1.0447,3.3562,3.3562,0,0,0-2.1085.6652,3,3,0,0,0-1.1459,1.8441,3.1482,3.1482,0,0,0,.4292,2.2,2.7,2.7,0,0,0,1.955,1.2474,2.88,2.88,0,0,0,2.1725-.7135,3.73,3.73,0,0,0,1.2033-1.8925A2.6991,2.6991,0,0,0,53.4048,44.6565Z"/><path class="cls-2" d="M59.1782,40.355a3.7776,3.7776,0,0,1,.7794,2.408A2.9234,2.9234,0,0,1,58.67,45.0467a3.4851,3.4851,0,0,1-2.5415.4783,3.7734,3.7734,0,0,1-2.2211-1.2431,3.2424,3.2424,0,0,1-.7625-2.5141A3.3838,3.3838,0,0,1,54.49,39.4359a3.1209,3.1209,0,0,1,2.6054-.5268A3.777,3.777,0,0,1,59.1782,40.355Zm-.0543.0405a2.6956,2.6956,0,0,0-2.0932-1.0447,3.3565,3.3565,0,0,0-2.1087.6651A3,3,0,0,0,53.7764,41.86a3.1475,3.1475,0,0,0,.4292,2.2,2.699,2.699,0,0,0,1.955,1.2474,2.8793,2.8793,0,0,0,2.1724-.7134,3.7311,3.7311,0,0,0,1.2033-1.8925A2.6986,2.6986,0,0,0,59.1239,40.3955Z"/><path class="cls-2" d="M34.9881,67.2407a3.7777,3.7777,0,0,1,.7794,2.4081A2.9231,2.9231,0,0,1,34.48,71.9323a3.4842,3.4842,0,0,1-2.5415.4784,3.7731,3.7731,0,0,1-2.2211-1.2431,3.2433,3.2433,0,0,1-.7627-2.5141A3.3847,3.3847,0,0,1,30.3,66.3216a3.12,3.12,0,0,1,2.6054-.5268A3.7765,3.7765,0,0,1,34.9881,67.2407Zm-.0543.04a2.6959,2.6959,0,0,0-2.0932-1.0447,3.3569,3.3569,0,0,0-2.1087.6651,3,3,0,0,0-1.1456,1.8442,3.1473,3.1473,0,0,0,.4292,2.2,2.6983,2.6983,0,0,0,1.955,1.2474,2.88,2.88,0,0,0,2.1724-.7134,3.7324,3.7324,0,0,0,1.2033-1.8925A2.6993,2.6993,0,0,0,34.9338,67.2812Z"/><path class="cls-2" d="M40.7071,62.98a3.7776,3.7776,0,0,1,.7794,2.408,2.9234,2.9234,0,0,1-1.2872,2.2836,3.4851,3.4851,0,0,1-2.5417.4784,3.7728,3.7728,0,0,1-2.221-1.2432,3.2419,3.2419,0,0,1-.7626-2.5141,3.3843,3.3843,0,0,1,1.3448-2.3319,3.12,3.12,0,0,1,2.6053-.5267A3.7768,3.7768,0,0,1,40.7071,62.98Zm-.0543.0405A2.6958,2.6958,0,0,0,38.56,61.9754a3.3564,3.3564,0,0,0-2.1087.6652,3,3,0,0,0-1.1458,1.8441,3.15,3.15,0,0,0,.4291,2.2,2.7,2.7,0,0,0,1.9551,1.2474,2.88,2.88,0,0,0,2.1726-.7135,3.7328,3.7328,0,0,0,1.2033-1.8924A2.6993,2.6993,0,0,0,40.6528,63.02Z"/><path class="cls-2" d="M46.4262,58.7186a3.7779,3.7779,0,0,1,.7794,2.4081A2.9239,2.9239,0,0,1,45.9182,63.41a3.4855,3.4855,0,0,1-2.5416.4784,3.7739,3.7739,0,0,1-2.2209-1.2432,3.2425,3.2425,0,0,1-.7627-2.5141,3.3844,3.3844,0,0,1,1.3449-2.332,3.1207,3.1207,0,0,1,2.6052-.5267A3.7775,3.7775,0,0,1,46.4262,58.7186Zm-.0545.0406a2.695,2.695,0,0,0-2.093-1.0448A3.3562,3.3562,0,0,0,42.17,58.38a3,3,0,0,0-1.1458,1.8441,3.1478,3.1478,0,0,0,.4292,2.2,2.6991,2.6991,0,0,0,1.955,1.2474,2.8794,2.8794,0,0,0,2.1725-.7134,3.7312,3.7312,0,0,0,1.2034-1.8925A2.6985,2.6985,0,0,0,46.3717,58.7592Z"/><path class="cls-2" d="M52.1452,54.4576a3.7781,3.7781,0,0,1,.7793,2.408,2.9233,2.9233,0,0,1-1.2873,2.2836,3.4842,3.4842,0,0,1-2.5415.4784,3.7728,3.7728,0,0,1-2.221-1.2431,3.2421,3.2421,0,0,1-.7626-2.5141,3.3838,3.3838,0,0,1,1.3447-2.332,3.1208,3.1208,0,0,1,2.6054-.5267A3.778,3.778,0,0,1,52.1452,54.4576Zm-.0545.0405a2.6954,2.6954,0,0,0-2.0931-1.0447,3.3555,3.3555,0,0,0-2.1085.6651,3,3,0,0,0-1.1458,1.8441,3.1479,3.1479,0,0,0,.4291,2.2A2.7,2.7,0,0,0,49.1275,59.41,2.8794,2.8794,0,0,0,51.3,58.6966a3.73,3.73,0,0,0,1.2033-1.8926A2.6981,2.6981,0,0,0,52.0907,54.4981Z"/><path class="cls-2" d="M39.1765,72.8622a3.7772,3.7772,0,0,1,.7792,2.4079,2.9231,2.9231,0,0,1-1.2872,2.2837,3.4854,3.4854,0,0,1-2.5416.4783A3.7721,3.7721,0,0,1,33.906,76.789a3.2424,3.2424,0,0,1-.7627-2.5141,3.3844,3.3844,0,0,1,1.3449-2.3319,3.12,3.12,0,0,1,2.6052-.5267A3.7765,3.7765,0,0,1,39.1765,72.8622Zm-.0545.04a2.6951,2.6951,0,0,0-2.093-1.0446,3.356,3.356,0,0,0-2.1087.665,3.0013,3.0013,0,0,0-1.1458,1.8441,3.148,3.148,0,0,0,.4292,2.2,2.7,2.7,0,0,0,1.955,1.2475,2.88,2.88,0,0,0,2.1725-.7135,3.7308,3.7308,0,0,0,1.2034-1.8925A2.6987,2.6987,0,0,0,39.122,72.9026Z"/><path class="cls-2" d="M44.8955,68.6011a3.7783,3.7783,0,0,1,.7793,2.408,2.9231,2.9231,0,0,1-1.2873,2.2836,3.4847,3.4847,0,0,1-2.5415.4784,3.7725,3.7725,0,0,1-2.221-1.2432,3.2419,3.2419,0,0,1-.7626-2.514,3.3842,3.3842,0,0,1,1.3447-2.332,3.1208,3.1208,0,0,1,2.6054-.5267A3.7771,3.7771,0,0,1,44.8955,68.6011Zm-.0545.04a2.695,2.695,0,0,0-2.0931-1.0447,3.3555,3.3555,0,0,0-2.1085.6651,3,3,0,0,0-1.1458,1.8441,3.1476,3.1476,0,0,0,.4292,2.2,2.6993,2.6993,0,0,0,1.955,1.2474A2.8791,2.8791,0,0,0,44.05,72.84a3.7314,3.7314,0,0,0,1.2033-1.8924A2.6983,2.6983,0,0,0,44.841,68.6416Z"/><path class="cls-2" d="M50.6144,64.34a3.7779,3.7779,0,0,1,.7794,2.4081,2.9227,2.9227,0,0,1-1.2872,2.2835,3.4845,3.4845,0,0,1-2.5416.4784,3.7732,3.7732,0,0,1-2.2211-1.2431,3.2427,3.2427,0,0,1-.7626-2.514,3.3844,3.3844,0,0,1,1.3448-2.332,3.12,3.12,0,0,1,2.6055-.5267A3.7766,3.7766,0,0,1,50.6144,64.34Zm-.0543.04a2.6956,2.6956,0,0,0-2.0931-1.0446,3.3564,3.3564,0,0,0-2.1087.665,3.0005,3.0005,0,0,0-1.1457,1.8442,3.1477,3.1477,0,0,0,.4292,2.2,2.6989,2.6989,0,0,0,1.955,1.2474,2.88,2.88,0,0,0,2.1725-.7134,3.7326,3.7326,0,0,0,1.2033-1.8925A2.699,2.699,0,0,0,50.56,64.3805Z"/><path class="cls-2" d="M56.3335,60.079a3.7778,3.7778,0,0,1,.7794,2.408,2.9231,2.9231,0,0,1-1.2873,2.2836,3.4847,3.4847,0,0,1-2.5415.4784,3.7731,3.7731,0,0,1-2.2211-1.2431A3.2433,3.2433,0,0,1,50.3,61.4918,3.3847,3.3847,0,0,1,51.6452,59.16a3.12,3.12,0,0,1,2.6054-.5267A3.7771,3.7771,0,0,1,56.3335,60.079Zm-.0543.0405a2.6959,2.6959,0,0,0-2.0932-1.0447,3.3565,3.3565,0,0,0-2.1087.6651,3,3,0,0,0-1.1456,1.8441,3.1484,3.1484,0,0,0,.429,2.2,2.6994,2.6994,0,0,0,1.9552,1.2474,2.8794,2.8794,0,0,0,2.1724-.7135,3.7321,3.7321,0,0,0,1.2033-1.8924A2.6993,2.6993,0,0,0,56.2792,60.12Z"/><path class="cls-2" d="M43.4957,78.6592a3.7779,3.7779,0,0,1,.7792,2.4081,2.9229,2.9229,0,0,1-1.2872,2.2836,3.4853,3.4853,0,0,1-2.5415.4784,3.7732,3.7732,0,0,1-2.221-1.2432,3.2424,3.2424,0,0,1-.7627-2.5141,3.3844,3.3844,0,0,1,1.3449-2.332,3.1208,3.1208,0,0,1,2.6053-.5267A3.7773,3.7773,0,0,1,43.4957,78.6592Zm-.0545.0406a2.6951,2.6951,0,0,0-2.0931-1.0448A3.3556,3.3556,0,0,0,39.24,78.32a2.9993,2.9993,0,0,0-1.1459,1.8441,3.1487,3.1487,0,0,0,.4292,2.2,2.6994,2.6994,0,0,0,1.9551,1.2473,2.8793,2.8793,0,0,0,2.1724-.7134,3.73,3.73,0,0,0,1.2033-1.8925A2.6981,2.6981,0,0,0,43.4412,78.7Z"/><path class="cls-2" d="M49.2147,74.3982a3.7781,3.7781,0,0,1,.7793,2.408A2.923,2.923,0,0,1,48.7067,79.09a3.4847,3.4847,0,0,1-2.5415.4784,3.7719,3.7719,0,0,1-2.2209-1.2432,3.2414,3.2414,0,0,1-.7627-2.514,3.3842,3.3842,0,0,1,1.3447-2.332,3.1209,3.1209,0,0,1,2.6054-.5267A3.7768,3.7768,0,0,1,49.2147,74.3982Zm-.0544.04a2.6956,2.6956,0,0,0-2.0932-1.0447,3.3555,3.3555,0,0,0-2.1085.6651,3,3,0,0,0-1.1458,1.8441,3.1476,3.1476,0,0,0,.4292,2.2,2.699,2.699,0,0,0,1.955,1.2474,2.88,2.88,0,0,0,2.1724-.7134,3.73,3.73,0,0,0,1.2033-1.8926A2.6984,2.6984,0,0,0,49.16,74.4387Z"/><path class="cls-2" d="M54.9336,70.1372a3.7767,3.7767,0,0,1,.7794,2.4079,2.9231,2.9231,0,0,1-1.2872,2.2837,3.4848,3.4848,0,0,1-2.5415.4783,3.7726,3.7726,0,0,1-2.2212-1.2431,3.2427,3.2427,0,0,1-.7626-2.5141,3.385,3.385,0,0,1,1.3448-2.3319,3.1207,3.1207,0,0,1,2.6055-.5267A3.7758,3.7758,0,0,1,54.9336,70.1372Zm-.0543.04a2.6956,2.6956,0,0,0-2.0931-1.0446,3.3564,3.3564,0,0,0-2.1087.665,3,3,0,0,0-1.1457,1.8441,3.1489,3.1489,0,0,0,.4292,2.2A2.7,2.7,0,0,0,51.9161,75.09a2.88,2.88,0,0,0,2.1724-.7135,3.7326,3.7326,0,0,0,1.2033-1.8925A2.6994,2.6994,0,0,0,54.8793,70.1776Z"/><path class="cls-2" d="M60.6527,65.8761a3.7778,3.7778,0,0,1,.7794,2.408,2.9232,2.9232,0,0,1-1.2873,2.2837,3.4851,3.4851,0,0,1-2.5415.4783,3.7727,3.7727,0,0,1-2.2211-1.2432,3.243,3.243,0,0,1-.7627-2.514,3.3851,3.3851,0,0,1,1.3449-2.332A3.1211,3.1211,0,0,1,58.57,64.43,3.7769,3.7769,0,0,1,60.6527,65.8761Zm-.0543.0405a2.6956,2.6956,0,0,0-2.0932-1.0447,3.3556,3.3556,0,0,0-2.1086.6651,3,3,0,0,0-1.1457,1.8441,3.1485,3.1485,0,0,0,.429,2.2,2.7,2.7,0,0,0,1.9552,1.2475,2.88,2.88,0,0,0,2.1724-.7135,3.7317,3.7317,0,0,0,1.2033-1.8925A2.6993,2.6993,0,0,0,60.5984,65.9166Z"/><path class="cls-2" d="M57.7053,50.3149a3.777,3.777,0,0,1,.7792,2.408,2.9231,2.9231,0,0,1-1.2872,2.2837,3.4847,3.4847,0,0,1-2.5415.4783,3.7718,3.7718,0,0,1-2.221-1.2431,3.242,3.242,0,0,1-.7626-2.5141,3.3832,3.3832,0,0,1,1.3448-2.3319,3.1206,3.1206,0,0,1,2.6053-.5268A3.778,3.778,0,0,1,57.7053,50.3149Zm-.0545.0405a2.6954,2.6954,0,0,0-2.0931-1.0447,3.3561,3.3561,0,0,0-2.1085.6651A3,3,0,0,0,52.3034,51.82a3.1478,3.1478,0,0,0,.4291,2.2,2.7,2.7,0,0,0,1.9551,1.2475,2.88,2.88,0,0,0,2.1724-.7135,3.73,3.73,0,0,0,1.2033-1.8925A2.6984,2.6984,0,0,0,57.6508,50.3554Z"/><path class="cls-2" d="M63.4244,46.0539a3.7786,3.7786,0,0,1,.7792,2.408,2.9233,2.9233,0,0,1-1.2872,2.2837,3.4854,3.4854,0,0,1-2.5416.4783,3.7726,3.7726,0,0,1-2.2209-1.2431,3.2418,3.2418,0,0,1-.7627-2.5141,3.3838,3.3838,0,0,1,1.3447-2.3319,3.1206,3.1206,0,0,1,2.6054-.5268A3.7779,3.7779,0,0,1,63.4244,46.0539Zm-.0545.0405A2.6953,2.6953,0,0,0,61.2768,45.05a3.3565,3.3565,0,0,0-2.1087.6651,3.0007,3.0007,0,0,0-1.1457,1.8441,3.148,3.148,0,0,0,.4292,2.2,2.699,2.699,0,0,0,1.955,1.2474,2.8794,2.8794,0,0,0,2.1725-.7134A3.7317,3.7317,0,0,0,63.7824,48.4,2.699,2.699,0,0,0,63.37,46.0944Z"/><path class="cls-2" d="M61.8936,55.9363a3.7781,3.7781,0,0,1,.7794,2.4081,2.9233,2.9233,0,0,1-1.2873,2.2836,3.4847,3.4847,0,0,1-2.5415.4784,3.7732,3.7732,0,0,1-2.2211-1.2432,3.2427,3.2427,0,0,1-.7627-2.5141,3.3844,3.3844,0,0,1,1.3449-2.3319,3.12,3.12,0,0,1,2.6054-.5267A3.7772,3.7772,0,0,1,61.8936,55.9363Zm-.0544.0406a2.6958,2.6958,0,0,0-2.0931-1.0448,3.3566,3.3566,0,0,0-2.1087.6652,3,3,0,0,0-1.1456,1.8441,3.1477,3.1477,0,0,0,.4292,2.2,2.6989,2.6989,0,0,0,1.955,1.2474,2.8794,2.8794,0,0,0,2.1724-.7135,3.7321,3.7321,0,0,0,1.2033-1.8924A2.699,2.699,0,0,0,61.8392,55.9769Z"/><path class="cls-2" d="M67.6126,51.6753a3.7777,3.7777,0,0,1,.7794,2.4081,2.9236,2.9236,0,0,1-1.2872,2.2836,3.4851,3.4851,0,0,1-2.5417.4784,3.7738,3.7738,0,0,1-2.221-1.2432,3.2425,3.2425,0,0,1-.7627-2.5141,3.384,3.384,0,0,1,1.3449-2.3319,3.12,3.12,0,0,1,2.6053-.5268A3.7773,3.7773,0,0,1,67.6126,51.6753Zm-.0543.0405a2.6957,2.6957,0,0,0-2.0931-1.0447,3.3557,3.3557,0,0,0-2.1087.6651A3.0014,3.0014,0,0,0,62.2106,53.18a3.15,3.15,0,0,0,.4292,2.2,2.6993,2.6993,0,0,0,1.9551,1.2474,2.88,2.88,0,0,0,2.1726-.7134,3.733,3.733,0,0,0,1.2033-1.8925A2.6994,2.6994,0,0,0,67.5583,51.7158Z"/><path class="cls-2" d="M66.2128,61.7334a3.7779,3.7779,0,0,1,.7794,2.4081,2.9234,2.9234,0,0,1-1.2873,2.2836,3.4847,3.4847,0,0,1-2.5415.4784A3.7732,3.7732,0,0,1,60.9423,65.66a3.2432,3.2432,0,0,1-.7627-2.514,3.3851,3.3851,0,0,1,1.3449-2.332,3.12,3.12,0,0,1,2.6054-.5267A3.7776,3.7776,0,0,1,66.2128,61.7334Zm-.0543.0406a2.6956,2.6956,0,0,0-2.0932-1.0447,3.3555,3.3555,0,0,0-2.1087.6651,3,3,0,0,0-1.1456,1.8441,3.1472,3.1472,0,0,0,.4292,2.2,2.6983,2.6983,0,0,0,1.955,1.2474,2.8793,2.8793,0,0,0,2.1724-.7134A3.7314,3.7314,0,0,0,66.5709,64.08,2.6992,2.6992,0,0,0,66.1585,61.774Z"/><path class="cls-2" d="M71.9318,57.4724a3.7778,3.7778,0,0,1,.7794,2.408A2.9233,2.9233,0,0,1,71.424,62.164a3.4853,3.4853,0,0,1-2.5417.4784,3.7731,3.7731,0,0,1-2.221-1.2431,3.242,3.242,0,0,1-.7626-2.514,3.3842,3.3842,0,0,1,1.3448-2.332,3.12,3.12,0,0,1,2.6053-.5267A3.7763,3.7763,0,0,1,71.9318,57.4724Zm-.0543.0405a2.6957,2.6957,0,0,0-2.0931-1.0447,3.3563,3.3563,0,0,0-2.1087.6651A3.0009,3.0009,0,0,0,66.53,58.9774a3.15,3.15,0,0,0,.4292,2.2,2.6994,2.6994,0,0,0,1.955,1.2474,2.88,2.88,0,0,0,2.1726-.7135A3.7328,3.7328,0,0,0,72.29,59.8189,2.6993,2.6993,0,0,0,71.8775,57.5129Z"/><rect class="cls-1" x="25.9519" y="6.6404" width="44.7405" height="67.036" transform="translate(-10.8534 19.0401) rotate(-20.0883)"/><path class="cls-2" d="M80.8746,63.9681,59.9923,71.8089,38.93,79.6072l-.2871.1064-.1043-.2882L32.8373,63.666,27.1878,47.8875C25.28,42.637,23.395,37.3782,21.4413,32.1446L15.626,16.4268l-.0641-.1733.1749-.065L36.705,8.3928,57.6954.6577l.3384-.1248.1237.3394L63.9152,16.68l5.6927,15.8067ZM80.813,63.94,69.0552,32.4633l-5.82-15.6722L57.4808,1.12l.462.2146L36.9146,8.9661l-21.05,7.5712.1106-.2381,5.697,15.761c1.8837,5.2593,3.8362,10.4935,5.7658,15.7359l5.8627,15.7,5.8113,15.7193-.3912-.1818,20.9562-7.5685Z"/><path class="cls-2" d="M24.8963,18.3306a3.777,3.777,0,0,1,.059,2.53,2.9239,2.9239,0,0,1-1.886,1.8207,3.4853,3.4853,0,0,1-2.5723-.2677,3.7725,3.7725,0,0,1-1.7733-1.8259,3.2424,3.2424,0,0,1-.0127-2.6271A3.3847,3.3847,0,0,1,20.666,16.11a3.1207,3.1207,0,0,1,2.6473.24A3.7758,3.7758,0,0,1,24.8963,18.3306Zm-.0636.0233a2.6955,2.6955,0,0,0-1.7075-1.5992,3.3559,3.3559,0,0,0-2.2106.0349A3,3,0,0,0,19.29,18.23a3.1475,3.1475,0,0,0-.2173,2.2309A2.7,2.7,0,0,0,20.59,22.2144a2.88,2.88,0,0,0,2.2859-.063,3.7317,3.7317,0,0,0,1.6937-1.47A2.6988,2.6988,0,0,0,24.8327,18.3539Z"/><path class="cls-2" d="M31.5945,15.881a3.7783,3.7783,0,0,1,.0587,2.53,2.9228,2.9228,0,0,1-1.8859,1.8207,3.4853,3.4853,0,0,1-2.5724-.2677,3.7736,3.7736,0,0,1-1.7732-1.8259,3.2416,3.2416,0,0,1-.0126-2.6271,3.3845,3.3845,0,0,1,1.9549-1.8506,3.1207,3.1207,0,0,1,2.6473.24A3.7779,3.7779,0,0,1,31.5945,15.881Zm-.0638.0233a2.696,2.696,0,0,0-1.7075-1.5992,3.3562,3.3562,0,0,0-2.2107.035,3,3,0,0,0-1.6248,1.44,3.1486,3.1486,0,0,0-.2173,2.2309,2.6991,2.6991,0,0,0,1.5173,1.754,2.8794,2.8794,0,0,0,2.2857-.0631,3.7311,3.7311,0,0,0,1.6937-1.47A2.6987,2.6987,0,0,0,31.5307,15.9043Z"/><path class="cls-2" d="M38.2924,13.4314a3.7777,3.7777,0,0,1,.0588,2.53,2.923,2.923,0,0,1-1.886,1.8207,3.485,3.485,0,0,1-2.5723-.2677A3.7726,3.7726,0,0,1,32.12,15.6889a3.2422,3.2422,0,0,1-.0126-2.6272,3.3835,3.3835,0,0,1,1.9549-1.8505,3.12,3.12,0,0,1,2.6473.2395A3.7773,3.7773,0,0,1,38.2924,13.4314Zm-.0637.0233a2.6953,2.6953,0,0,0-1.7073-1.5991,3.3562,3.3562,0,0,0-2.2109.0349,3.0011,3.0011,0,0,0-1.6249,1.44,3.1492,3.1492,0,0,0-.2172,2.2309,2.6992,2.6992,0,0,0,1.5172,1.754,2.8794,2.8794,0,0,0,2.2857-.0631,3.731,3.731,0,0,0,1.6939-1.47A2.699,2.699,0,0,0,38.2287,13.4547Z"/><path class="cls-2" d="M44.99,10.9818a3.7786,3.7786,0,0,1,.059,2.53,2.9237,2.9237,0,0,1-1.8862,1.8207,3.4851,3.4851,0,0,1-2.5722-.2677,3.773,3.773,0,0,1-1.7733-1.8259,3.2422,3.2422,0,0,1-.0126-2.6272A3.3837,3.3837,0,0,1,40.76,8.7616a3.1208,3.1208,0,0,1,2.6472.2395A3.7777,3.7777,0,0,1,44.99,10.9818Zm-.0637.0233A2.6955,2.6955,0,0,0,43.2193,9.406a3.3552,3.3552,0,0,0-2.2108.035,3,3,0,0,0-1.6249,1.44,3.1481,3.1481,0,0,0-.2172,2.2309,2.6992,2.6992,0,0,0,1.5172,1.7539,2.8794,2.8794,0,0,0,2.2857-.063,3.7317,3.7317,0,0,0,1.6939-1.47A2.6989,2.6989,0,0,0,44.9267,11.0051Z"/><path class="cls-2" d="M27.3042,24.9142a3.7786,3.7786,0,0,1,.0588,2.53,2.9228,2.9228,0,0,1-1.886,1.8206,3.4845,3.4845,0,0,1-2.5723-.2676,3.7728,3.7728,0,0,1-1.7732-1.8259,3.2412,3.2412,0,0,1-.0126-2.6271,3.3837,3.3837,0,0,1,1.9548-1.8506,3.1209,3.1209,0,0,1,2.6474.24A3.7771,3.7771,0,0,1,27.3042,24.9142Zm-.0637.0233a2.6961,2.6961,0,0,0-1.7075-1.5991,3.3556,3.3556,0,0,0-2.2107.035,3,3,0,0,0-1.6249,1.44,3.1486,3.1486,0,0,0-.2172,2.2309,2.699,2.699,0,0,0,1.5172,1.7539,2.8794,2.8794,0,0,0,2.2857-.063,3.7322,3.7322,0,0,0,1.6939-1.47A2.6993,2.6993,0,0,0,27.2405,24.9375Z"/><path class="cls-2" d="M34.0022,22.4647a3.7783,3.7783,0,0,1,.0588,2.53,2.923,2.923,0,0,1-1.886,1.8207,3.485,3.485,0,0,1-2.5723-.2677,3.7736,3.7736,0,0,1-1.7733-1.8258,3.2426,3.2426,0,0,1-.0125-2.6272,3.3838,3.3838,0,0,1,1.955-1.8506,3.12,3.12,0,0,1,2.6472.24A3.7774,3.7774,0,0,1,34.0022,22.4647Zm-.0638.0233a2.6957,2.6957,0,0,0-1.7073-1.5992,3.3565,3.3565,0,0,0-2.2108.035,3,3,0,0,0-1.6249,1.44,3.1481,3.1481,0,0,0-.2172,2.2309,2.6992,2.6992,0,0,0,1.5172,1.754,2.8794,2.8794,0,0,0,2.2857-.0631,3.7326,3.7326,0,0,0,1.6939-1.47A2.6994,2.6994,0,0,0,33.9384,22.488Z"/><path class="cls-2" d="M40.7,20.0151a3.7785,3.7785,0,0,1,.0589,2.53,2.9232,2.9232,0,0,1-1.8861,1.8206,3.4846,3.4846,0,0,1-2.5722-.2676,3.7736,3.7736,0,0,1-1.7734-1.8259,3.2426,3.2426,0,0,1-.0126-2.6272A3.3844,3.3844,0,0,1,36.47,17.7949a3.12,3.12,0,0,1,2.6471.24A3.7783,3.7783,0,0,1,40.7,20.0151Zm-.0638.0233a2.6948,2.6948,0,0,0-1.7073-1.5991,3.3562,3.3562,0,0,0-2.2109.0349,3.0009,3.0009,0,0,0-1.6248,1.44,3.1487,3.1487,0,0,0-.2173,2.2309,2.6993,2.6993,0,0,0,1.5173,1.754,2.8794,2.8794,0,0,0,2.2857-.0631,3.7316,3.7316,0,0,0,1.6939-1.47A2.6987,2.6987,0,0,0,40.6364,20.0384Z"/><path class="cls-2" d="M47.3981,17.5656a3.777,3.777,0,0,1,.059,2.53,2.923,2.923,0,0,1-1.886,1.8206,3.4843,3.4843,0,0,1-2.5723-.2676,3.7723,3.7723,0,0,1-1.7734-1.8259,3.2428,3.2428,0,0,1-.0126-2.6271,3.3844,3.3844,0,0,1,1.955-1.8506,3.12,3.12,0,0,1,2.6472.24A3.7759,3.7759,0,0,1,47.3981,17.5656Zm-.0637.0232A2.6953,2.6953,0,0,0,45.6271,15.99a3.3562,3.3562,0,0,0-2.2109.035,3,3,0,0,0-1.6248,1.44,3.1475,3.1475,0,0,0-.2171,2.2309,2.7,2.7,0,0,0,1.517,1.7539,2.88,2.88,0,0,0,2.2859-.063,3.7313,3.7313,0,0,0,1.6937-1.47A2.6983,2.6983,0,0,0,47.3344,17.5888Z"/><path class="cls-2" d="M29.7871,31.7037a3.777,3.777,0,0,1,.059,2.53,2.9234,2.9234,0,0,1-1.886,1.8207,3.4848,3.4848,0,0,1-2.5723-.2677,3.7721,3.7721,0,0,1-1.7734-1.8258,3.243,3.243,0,0,1-.0126-2.6272,3.3844,3.3844,0,0,1,1.955-1.8506,3.1209,3.1209,0,0,1,2.6474.24A3.7764,3.7764,0,0,1,29.7871,31.7037Zm-.0637.0233a2.6955,2.6955,0,0,0-1.7073-1.5992,3.3568,3.3568,0,0,0-2.2109.035,3,3,0,0,0-1.6247,1.44,3.1475,3.1475,0,0,0-.2172,2.2309,2.6994,2.6994,0,0,0,1.517,1.754,2.88,2.88,0,0,0,2.2859-.0631,3.7316,3.7316,0,0,0,1.6937-1.47A2.6987,2.6987,0,0,0,29.7234,31.727Z"/><path class="cls-2" d="M36.4851,29.2542a3.777,3.777,0,0,1,.0589,2.53,2.9231,2.9231,0,0,1-1.8859,1.8206,3.4852,3.4852,0,0,1-2.5724-.2676,3.7732,3.7732,0,0,1-1.7732-1.8259A3.2422,3.2422,0,0,1,30.3,28.8844a3.3848,3.3848,0,0,1,1.955-1.8505,3.12,3.12,0,0,1,2.6473.24A3.7762,3.7762,0,0,1,36.4851,29.2542Zm-.0636.0232a2.6956,2.6956,0,0,0-1.7075-1.5991,3.3562,3.3562,0,0,0-2.2107.0349,3,3,0,0,0-1.6248,1.44,3.1477,3.1477,0,0,0-.2173,2.2309,2.7,2.7,0,0,0,1.5171,1.754,2.88,2.88,0,0,0,2.2859-.063,3.7319,3.7319,0,0,0,1.6937-1.47A2.6987,2.6987,0,0,0,36.4215,29.2774Z"/><path class="cls-2" d="M43.1832,26.8046a3.7776,3.7776,0,0,1,.0588,2.53,2.9232,2.9232,0,0,1-1.886,1.8207,3.485,3.485,0,0,1-2.5723-.2677,3.7728,3.7728,0,0,1-1.7732-1.8259,3.2416,3.2416,0,0,1-.0126-2.6271,3.3845,3.3845,0,0,1,1.9549-1.8506,3.1207,3.1207,0,0,1,2.6473.24A3.7773,3.7773,0,0,1,43.1832,26.8046Zm-.0637.0233a2.696,2.696,0,0,0-1.7075-1.5992,3.3562,3.3562,0,0,0-2.2107.035,3,3,0,0,0-1.6248,1.44,3.1486,3.1486,0,0,0-.2173,2.2309,2.6992,2.6992,0,0,0,1.5172,1.7539,2.8794,2.8794,0,0,0,2.2857-.063,3.7308,3.7308,0,0,0,1.6938-1.47A2.6987,2.6987,0,0,0,43.12,26.8279Z"/><path class="cls-2" d="M49.8812,24.355a3.7783,3.7783,0,0,1,.0588,2.53,2.923,2.923,0,0,1-1.886,1.8207,3.485,3.485,0,0,1-2.5723-.2677,3.7726,3.7726,0,0,1-1.7732-1.8258,3.2422,3.2422,0,0,1-.0126-2.6272,3.384,3.384,0,0,1,1.9548-1.8506,3.1209,3.1209,0,0,1,2.6474.24A3.7773,3.7773,0,0,1,49.8812,24.355Zm-.0637.0233A2.6956,2.6956,0,0,0,48.11,22.7791a3.3565,3.3565,0,0,0-2.2108.035,3,3,0,0,0-1.6249,1.44,3.1486,3.1486,0,0,0-.2172,2.2309,2.6992,2.6992,0,0,0,1.5172,1.754,2.8794,2.8794,0,0,0,2.2857-.0631,3.7316,3.7316,0,0,0,1.6939-1.47A2.6991,2.6991,0,0,0,49.8175,24.3783Z"/><path class="cls-2" d="M32.1949,38.2874a3.777,3.777,0,0,1,.0589,2.53,2.9232,2.9232,0,0,1-1.886,1.8207,3.4849,3.4849,0,0,1-2.5723-.2677,3.7723,3.7723,0,0,1-1.7732-1.8259,3.2423,3.2423,0,0,1-.0128-2.6271,3.3844,3.3844,0,0,1,1.9551-1.8505,3.12,3.12,0,0,1,2.6473.2395A3.7766,3.7766,0,0,1,32.1949,38.2874Zm-.0636.0233a2.6956,2.6956,0,0,0-1.7075-1.5991,3.3556,3.3556,0,0,0-2.2107.0349,3,3,0,0,0-1.6249,1.44,3.1481,3.1481,0,0,0-.2172,2.2309,2.6993,2.6993,0,0,0,1.5171,1.754,2.88,2.88,0,0,0,2.2858-.0631,3.73,3.73,0,0,0,1.6938-1.47A2.6987,2.6987,0,0,0,32.1313,38.3107Z"/><path class="cls-2" d="M38.893,35.8378a3.7786,3.7786,0,0,1,.0588,2.53,2.9228,2.9228,0,0,1-1.886,1.8206,3.4849,3.4849,0,0,1-2.5723-.2676A3.7738,3.7738,0,0,1,32.72,38.0953a3.2418,3.2418,0,0,1-.0125-2.6272,3.3839,3.3839,0,0,1,1.9548-1.85,3.1213,3.1213,0,0,1,2.6474.2395A3.7778,3.7778,0,0,1,38.893,35.8378Zm-.0638.0233a2.6955,2.6955,0,0,0-1.7074-1.5991,3.355,3.355,0,0,0-2.2107.035,3,3,0,0,0-1.6249,1.44,3.1481,3.1481,0,0,0-.2172,2.2309,2.6992,2.6992,0,0,0,1.5172,1.7539,2.879,2.879,0,0,0,2.2857-.0631,3.73,3.73,0,0,0,1.6937-1.47A2.6983,2.6983,0,0,0,38.8292,35.8611Z"/><path class="cls-2" d="M45.591,33.3882a3.7786,3.7786,0,0,1,.0588,2.53,2.9232,2.9232,0,0,1-1.886,1.8207,3.4853,3.4853,0,0,1-2.5724-.2677,3.7736,3.7736,0,0,1-1.7732-1.8259,3.2424,3.2424,0,0,1-.0126-2.6271,3.3842,3.3842,0,0,1,1.9549-1.8506,3.1206,3.1206,0,0,1,2.6473.24A3.7777,3.7777,0,0,1,45.591,33.3882Zm-.0638.0234A2.6957,2.6957,0,0,0,43.82,31.8124a3.3562,3.3562,0,0,0-2.2109.035,3,3,0,0,0-1.6248,1.44,3.1486,3.1486,0,0,0-.2173,2.2309,2.6993,2.6993,0,0,0,1.5173,1.754,2.8794,2.8794,0,0,0,2.2857-.0631,3.7332,3.7332,0,0,0,1.6939-1.47A2.6994,2.6994,0,0,0,45.5272,33.4116Z"/><path class="cls-2" d="M52.2889,30.9387a3.7782,3.7782,0,0,1,.059,2.53A2.9231,2.9231,0,0,1,50.4617,35.29,3.4839,3.4839,0,0,1,47.89,35.022a3.7725,3.7725,0,0,1-1.7734-1.8258,3.2422,3.2422,0,0,1-.0126-2.6272,3.3839,3.3839,0,0,1,1.955-1.8505,3.12,3.12,0,0,1,2.6472.2395A3.7773,3.7773,0,0,1,52.2889,30.9387Zm-.0637.0233a2.6948,2.6948,0,0,0-1.7073-1.5991,3.3562,3.3562,0,0,0-2.2109.0349,3.0009,3.0009,0,0,0-1.6248,1.44,3.1487,3.1487,0,0,0-.2173,2.2309,2.6992,2.6992,0,0,0,1.5172,1.754,2.8794,2.8794,0,0,0,2.2857-.0631,3.7313,3.7313,0,0,0,1.694-1.47A2.6987,2.6987,0,0,0,52.2252,30.962Z"/><path class="cls-2" d="M34.6779,45.0768a3.7786,3.7786,0,0,1,.059,2.53,2.9231,2.9231,0,0,1-1.8862,1.8206,3.4843,3.4843,0,0,1-2.5721-.2676,3.7727,3.7727,0,0,1-1.7734-1.8259,3.243,3.243,0,0,1-.0126-2.6272,3.3842,3.3842,0,0,1,1.955-1.85,3.1208,3.1208,0,0,1,2.6472.2395A3.7777,3.7777,0,0,1,34.6779,45.0768Zm-.0637.0233a2.6953,2.6953,0,0,0-1.7073-1.5991,3.3562,3.3562,0,0,0-2.2109.035,3.001,3.001,0,0,0-1.6249,1.44,3.1491,3.1491,0,0,0-.2172,2.2309,2.7,2.7,0,0,0,1.5172,1.7539,2.8794,2.8794,0,0,0,2.2857-.063,3.7312,3.7312,0,0,0,1.6939-1.47A2.6986,2.6986,0,0,0,34.6142,45.1Z"/><path class="cls-2" d="M41.3759,42.6273a3.777,3.777,0,0,1,.059,2.53,2.9236,2.9236,0,0,1-1.886,1.8207,3.4851,3.4851,0,0,1-2.5724-.2677,3.7725,3.7725,0,0,1-1.7733-1.8259,3.2424,3.2424,0,0,1-.0126-2.6271,3.3844,3.3844,0,0,1,1.955-1.8506,3.12,3.12,0,0,1,2.6472.24A3.7759,3.7759,0,0,1,41.3759,42.6273Zm-.0637.0233a2.6956,2.6956,0,0,0-1.7074-1.5992,3.3559,3.3559,0,0,0-2.2108.035,3,3,0,0,0-1.6247,1.44,3.1465,3.1465,0,0,0-.2173,2.2309,2.7,2.7,0,0,0,1.5171,1.754,2.88,2.88,0,0,0,2.2859-.0631,3.7322,3.7322,0,0,0,1.6937-1.47A2.6987,2.6987,0,0,0,41.3122,42.6506Z"/><path class="cls-2" d="M48.0739,40.1777a3.7773,3.7773,0,0,1,.0589,2.53,2.9233,2.9233,0,0,1-1.886,1.8206,3.4849,3.4849,0,0,1-2.5723-.2676,3.7728,3.7728,0,0,1-1.7732-1.8259,3.2426,3.2426,0,0,1-.0128-2.6272,3.3853,3.3853,0,0,1,1.9551-1.85,3.12,3.12,0,0,1,2.6473.2395A3.7766,3.7766,0,0,1,48.0739,40.1777Zm-.0636.0233a2.6956,2.6956,0,0,0-1.7075-1.5991,3.3556,3.3556,0,0,0-2.2107.0349,3,3,0,0,0-1.6248,1.44,3.1476,3.1476,0,0,0-.2173,2.2309,2.6993,2.6993,0,0,0,1.5171,1.754,2.88,2.88,0,0,0,2.2858-.0631,3.7308,3.7308,0,0,0,1.6938-1.47A2.6987,2.6987,0,0,0,48.01,40.201Z"/><path class="cls-2" d="M54.7719,37.7282a3.777,3.777,0,0,1,.0589,2.53,2.9228,2.9228,0,0,1-1.886,1.8206,3.4845,3.4845,0,0,1-2.5723-.2676,3.7728,3.7728,0,0,1-1.7732-1.8259,3.2416,3.2416,0,0,1-.0126-2.6271,3.3836,3.3836,0,0,1,1.9549-1.8506,3.1207,3.1207,0,0,1,2.6473.24A3.7762,3.7762,0,0,1,54.7719,37.7282Zm-.0636.0232a2.6959,2.6959,0,0,0-1.7075-1.5991,3.3556,3.3556,0,0,0-2.2107.035,3,3,0,0,0-1.6249,1.44,3.1491,3.1491,0,0,0-.2172,2.2309,2.6992,2.6992,0,0,0,1.5172,1.7539,2.88,2.88,0,0,0,2.2857-.063,3.7311,3.7311,0,0,0,1.6938-1.47A2.6987,2.6987,0,0,0,54.7083,37.7514Z"/><path class="cls-2" d="M37.0857,51.6606a3.777,3.777,0,0,1,.0589,2.53,2.9234,2.9234,0,0,1-1.886,1.8207,3.4853,3.4853,0,0,1-2.5723-.2677,3.7736,3.7736,0,0,1-1.7734-1.8259A3.2432,3.2432,0,0,1,30.9,51.2909,3.3843,3.3843,0,0,1,32.8554,49.44a3.1207,3.1207,0,0,1,2.6473.24A3.7762,3.7762,0,0,1,37.0857,51.6606Zm-.0638.0233a2.6952,2.6952,0,0,0-1.7073-1.5992,3.3562,3.3562,0,0,0-2.2109.035,3,3,0,0,0-1.6247,1.44,3.1478,3.1478,0,0,0-.2172,2.2308,2.7,2.7,0,0,0,1.5171,1.7541,2.8805,2.8805,0,0,0,2.2858-.0631,3.7319,3.7319,0,0,0,1.6938-1.47A2.6987,2.6987,0,0,0,37.0219,51.6839Z"/><path class="cls-2" d="M43.7836,49.211a3.777,3.777,0,0,1,.059,2.53,2.9228,2.9228,0,0,1-1.886,1.8206,3.4844,3.4844,0,0,1-2.5723-.2676,3.7719,3.7719,0,0,1-1.7732-1.8259,3.242,3.242,0,0,1-.0128-2.6271,3.385,3.385,0,0,1,1.955-1.8506,3.1209,3.1209,0,0,1,2.6474.24A3.7759,3.7759,0,0,1,43.7836,49.211Zm-.0635.0233a2.696,2.696,0,0,0-1.7075-1.5992,3.3562,3.3562,0,0,0-2.2107.035,3,3,0,0,0-1.6249,1.44,3.1475,3.1475,0,0,0-.2172,2.2309,2.699,2.699,0,0,0,1.517,1.7539,2.88,2.88,0,0,0,2.2859-.063,3.7307,3.7307,0,0,0,1.6937-1.47A2.6984,2.6984,0,0,0,43.72,49.2343Z"/><path class="cls-2" d="M50.4818,46.7614a3.7783,3.7783,0,0,1,.0588,2.53,2.9232,2.9232,0,0,1-1.886,1.8207,3.485,3.485,0,0,1-2.5723-.2677,3.7732,3.7732,0,0,1-1.7733-1.8258,3.2422,3.2422,0,0,1-.0126-2.6272,3.384,3.384,0,0,1,1.9549-1.85,3.1207,3.1207,0,0,1,2.6473.2395A3.7775,3.7775,0,0,1,50.4818,46.7614Zm-.0638.0233a2.6956,2.6956,0,0,0-1.7075-1.5991,3.3553,3.3553,0,0,0-2.2106.0349,3,3,0,0,0-1.6249,1.44,3.1487,3.1487,0,0,0-.2173,2.2309,2.7,2.7,0,0,0,1.5173,1.754,2.88,2.88,0,0,0,2.2857-.0631,3.7305,3.7305,0,0,0,1.6937-1.47A2.6987,2.6987,0,0,0,50.418,46.7847Z"/><path class="cls-2" d="M57.18,44.3118a3.7786,3.7786,0,0,1,.0587,2.53,2.923,2.923,0,0,1-1.8859,1.8207,3.4858,3.4858,0,0,1-2.5724-.2677,3.7741,3.7741,0,0,1-1.7732-1.8259,3.2426,3.2426,0,0,1-.0126-2.6272,3.3843,3.3843,0,0,1,1.9549-1.8505,3.1207,3.1207,0,0,1,2.6473.24A3.7777,3.7777,0,0,1,57.18,44.3118Zm-.0638.0234a2.6955,2.6955,0,0,0-1.7073-1.5992,3.3555,3.3555,0,0,0-2.2109.035,3,3,0,0,0-1.6248,1.44,3.1486,3.1486,0,0,0-.2173,2.2309,2.6991,2.6991,0,0,0,1.5173,1.7539,2.8794,2.8794,0,0,0,2.2857-.063,3.7332,3.7332,0,0,0,1.6939-1.47A2.6994,2.6994,0,0,0,57.116,44.3352Z"/><path class="cls-2" d="M51.5023,8.6a3.777,3.777,0,0,1,.0589,2.53,2.923,2.923,0,0,1-1.886,1.8206,3.4848,3.4848,0,0,1-2.5723-.2676A3.7736,3.7736,0,0,1,45.33,10.8578a3.2434,3.2434,0,0,1-.0126-2.6272A3.3844,3.3844,0,0,1,47.272,6.38a3.12,3.12,0,0,1,2.6471.24A3.7766,3.7766,0,0,1,51.5023,8.6Zm-.0638.0233a2.695,2.695,0,0,0-1.7073-1.5992,3.3568,3.3568,0,0,0-2.2109.0349,3.001,3.001,0,0,0-1.6248,1.44,3.1486,3.1486,0,0,0-.2173,2.2309,2.7,2.7,0,0,0,1.5173,1.7539,2.88,2.88,0,0,0,2.2858-.063,3.7324,3.7324,0,0,0,1.6938-1.47A2.6987,2.6987,0,0,0,51.4385,8.6237Z"/><path class="cls-2" d="M58.2,6.1508a3.777,3.777,0,0,1,.059,2.53,2.9234,2.9234,0,0,1-1.886,1.8207,3.4849,3.4849,0,0,1-2.5723-.2677,3.7711,3.7711,0,0,1-1.7732-1.8259,3.242,3.242,0,0,1-.0128-2.6271A3.3847,3.3847,0,0,1,53.97,3.9305a3.1209,3.1209,0,0,1,2.6474.24A3.7759,3.7759,0,0,1,58.2,6.1508Zm-.0635.0233a2.696,2.696,0,0,0-1.7075-1.5992,3.3562,3.3562,0,0,0-2.2107.035,3,3,0,0,0-1.6249,1.44,3.1475,3.1475,0,0,0-.2172,2.2309,2.6994,2.6994,0,0,0,1.517,1.754,2.88,2.88,0,0,0,2.2859-.0631,3.7311,3.7311,0,0,0,1.6937-1.47A2.6984,2.6984,0,0,0,58.1367,6.1741Z"/><path class="cls-2" d="M53.91,15.184a3.7773,3.7773,0,0,1,.0589,2.53A2.9231,2.9231,0,0,1,52.083,19.535a3.4852,3.4852,0,0,1-2.5724-.2676,3.7723,3.7723,0,0,1-1.7732-1.8259,3.242,3.242,0,0,1-.0127-2.6271,3.3841,3.3841,0,0,1,1.955-1.8506,3.1207,3.1207,0,0,1,2.6473.24A3.7764,3.7764,0,0,1,53.91,15.184Zm-.0636.0233a2.6961,2.6961,0,0,0-1.7075-1.5991,3.3556,3.3556,0,0,0-2.2107.035,2.9994,2.9994,0,0,0-1.6248,1.44,3.1475,3.1475,0,0,0-.2173,2.2309,2.6994,2.6994,0,0,0,1.5171,1.7539,2.88,2.88,0,0,0,2.2859-.063,3.7322,3.7322,0,0,0,1.6937-1.47A2.699,2.699,0,0,0,53.8464,15.2073Z"/><path class="cls-2" d="M60.608,12.7345a3.777,3.777,0,0,1,.0589,2.53,2.9227,2.9227,0,0,1-1.886,1.8207,3.485,3.485,0,0,1-2.5723-.2677,3.7728,3.7728,0,0,1-1.7732-1.8259,3.2424,3.2424,0,0,1-.0128-2.6271,3.3854,3.3854,0,0,1,1.9551-1.8506,3.1207,3.1207,0,0,1,2.6473.24A3.7762,3.7762,0,0,1,60.608,12.7345Zm-.0636.0233a2.696,2.696,0,0,0-1.7075-1.5992,3.3556,3.3556,0,0,0-2.2107.035,3,3,0,0,0-1.6248,1.44,3.1475,3.1475,0,0,0-.2173,2.2309,2.6992,2.6992,0,0,0,1.5172,1.754,2.8794,2.8794,0,0,0,2.2857-.0631,3.7308,3.7308,0,0,0,1.6938-1.47A2.6987,2.6987,0,0,0,60.5444,12.7578Z"/><path class="cls-2" d="M56.3931,21.9735a3.7776,3.7776,0,0,1,.0589,2.53,2.9231,2.9231,0,0,1-1.8861,1.8207,3.4847,3.4847,0,0,1-2.5722-.2677A3.773,3.773,0,0,1,50.22,24.231a3.2426,3.2426,0,0,1-.0126-2.6272,3.3843,3.3843,0,0,1,1.9551-1.8506,3.12,3.12,0,0,1,2.6471.24A3.7775,3.7775,0,0,1,56.3931,21.9735Zm-.0638.0233a2.6952,2.6952,0,0,0-1.7073-1.5992,3.3568,3.3568,0,0,0-2.2109.035,3,3,0,0,0-1.6248,1.44,3.1486,3.1486,0,0,0-.2173,2.2309,2.6993,2.6993,0,0,0,1.5173,1.754,2.8794,2.8794,0,0,0,2.2857-.0631,3.7316,3.7316,0,0,0,1.6939-1.47A2.6987,2.6987,0,0,0,56.3293,21.9968Z"/><path class="cls-2" d="M63.091,19.5239a3.7773,3.7773,0,0,1,.059,2.53,2.9233,2.9233,0,0,1-1.886,1.8206,3.4848,3.4848,0,0,1-2.5723-.2676,3.7727,3.7727,0,0,1-1.7734-1.8259,3.243,3.243,0,0,1-.0126-2.6272,3.3845,3.3845,0,0,1,1.955-1.8505,3.12,3.12,0,0,1,2.6472.24A3.7761,3.7761,0,0,1,63.091,19.5239Zm-.0637.0233A2.6948,2.6948,0,0,0,61.32,17.9481a3.3562,3.3562,0,0,0-2.2109.0349,3.0012,3.0012,0,0,0-1.6248,1.44,3.1487,3.1487,0,0,0-.2173,2.2309,2.7,2.7,0,0,0,1.5172,1.754,2.88,2.88,0,0,0,2.2859-.063,3.7327,3.7327,0,0,0,1.6938-1.47A2.6987,2.6987,0,0,0,63.0273,19.5472Z"/><path class="cls-2" d="M58.8008,28.5572a3.777,3.777,0,0,1,.059,2.53,2.9236,2.9236,0,0,1-1.886,1.8207,3.4851,3.4851,0,0,1-2.5724-.2677,3.7725,3.7725,0,0,1-1.7733-1.8259,3.2424,3.2424,0,0,1-.0126-2.6271,3.3844,3.3844,0,0,1,1.955-1.8506,3.12,3.12,0,0,1,2.6472.24A3.7768,3.7768,0,0,1,58.8008,28.5572Zm-.0637.0233A2.6956,2.6956,0,0,0,57.03,26.9813a3.3565,3.3565,0,0,0-2.2108.035,3.001,3.001,0,0,0-1.6249,1.44,3.1481,3.1481,0,0,0-.2172,2.2309,2.7,2.7,0,0,0,1.5172,1.754A2.88,2.88,0,0,0,56.78,32.378a3.7316,3.7316,0,0,0,1.6937-1.47A2.6987,2.6987,0,0,0,58.7371,28.5805Z"/><path class="cls-2" d="M65.4988,26.1076a3.7771,3.7771,0,0,1,.0589,2.53,2.9232,2.9232,0,0,1-1.886,1.8207,3.4849,3.4849,0,0,1-2.5723-.2676,3.7723,3.7723,0,0,1-1.7732-1.8259,3.2422,3.2422,0,0,1-.0127-2.6272,3.3839,3.3839,0,0,1,1.955-1.8505,3.1207,3.1207,0,0,1,2.6473.2395A3.7766,3.7766,0,0,1,65.4988,26.1076Zm-.0636.0233a2.6956,2.6956,0,0,0-1.7075-1.5991,3.3556,3.3556,0,0,0-2.2107.0349,3,3,0,0,0-1.6248,1.44,3.1475,3.1475,0,0,0-.2173,2.2309,2.6993,2.6993,0,0,0,1.5171,1.7539,2.88,2.88,0,0,0,2.2858-.0631,3.7316,3.7316,0,0,0,1.6938-1.47A2.699,2.699,0,0,0,65.4352,26.1309Z"/><path class="cls-2" d="M61.2839,35.3466a3.7786,3.7786,0,0,1,.0588,2.53,2.923,2.923,0,0,1-1.886,1.8206,3.4849,3.4849,0,0,1-2.5723-.2676,3.7738,3.7738,0,0,1-1.7733-1.8259,3.243,3.243,0,0,1-.0126-2.6272,3.3843,3.3843,0,0,1,1.9549-1.8505,3.121,3.121,0,0,1,2.6473.24A3.7775,3.7775,0,0,1,61.2839,35.3466ZM61.22,35.37a2.6956,2.6956,0,0,0-1.7073-1.5991,3.3552,3.3552,0,0,0-2.2108.035,3,3,0,0,0-1.6249,1.44,3.1481,3.1481,0,0,0-.2172,2.2309,2.6992,2.6992,0,0,0,1.5172,1.7539,2.879,2.879,0,0,0,2.2857-.0631,3.7324,3.7324,0,0,0,1.6939-1.47A2.7,2.7,0,0,0,61.22,35.37Z"/><path class="cls-2" d="M67.9819,32.8971a3.7783,3.7783,0,0,1,.0589,2.53,2.9231,2.9231,0,0,1-1.8861,1.8207,3.4847,3.4847,0,0,1-2.5722-.2677,3.7732,3.7732,0,0,1-1.7734-1.8259,3.2424,3.2424,0,0,1-.0126-2.6271,3.384,3.384,0,0,1,1.9551-1.8506,3.12,3.12,0,0,1,2.6471.24A3.7776,3.7776,0,0,1,67.9819,32.8971Zm-.0638.0233a2.6952,2.6952,0,0,0-1.7073-1.5992A3.3562,3.3562,0,0,0,64,31.3562a3,3,0,0,0-1.6248,1.44,3.1486,3.1486,0,0,0-.2173,2.2309,2.6991,2.6991,0,0,0,1.5173,1.754,2.8794,2.8794,0,0,0,2.2857-.0631,3.7322,3.7322,0,0,0,1.6939-1.47A2.6987,2.6987,0,0,0,67.9181,32.92Z"/><path class="cls-2" d="M63.6916,41.93a3.7782,3.7782,0,0,1,.059,2.53,2.9233,2.9233,0,0,1-1.8862,1.8206,3.4843,3.4843,0,0,1-2.5721-.2676,3.7723,3.7723,0,0,1-1.7734-1.8259,3.242,3.242,0,0,1-.0126-2.6271,3.3835,3.3835,0,0,1,1.955-1.8506,3.12,3.12,0,0,1,2.6472.24A3.7769,3.7769,0,0,1,63.6916,41.93Zm-.0637.0232a2.6955,2.6955,0,0,0-1.7074-1.5991,3.3565,3.3565,0,0,0-2.2108.0349,3.0008,3.0008,0,0,0-1.6249,1.44,3.1489,3.1489,0,0,0-.2172,2.2308,2.6992,2.6992,0,0,0,1.5172,1.754,2.88,2.88,0,0,0,2.2857-.063,3.7313,3.7313,0,0,0,1.6939-1.47A2.6987,2.6987,0,0,0,63.6279,41.9536Z"/><path class="cls-2" d="M70.39,39.4808a3.777,3.777,0,0,1,.0589,2.53,2.9235,2.9235,0,0,1-1.8859,1.8207,3.4851,3.4851,0,0,1-2.5724-.2677,3.7732,3.7732,0,0,1-1.7734-1.8259,3.2428,3.2428,0,0,1-.0125-2.6271,3.3844,3.3844,0,0,1,1.955-1.8506,3.12,3.12,0,0,1,2.6472.24A3.7773,3.7773,0,0,1,70.39,39.4808Zm-.0638.0233a2.6952,2.6952,0,0,0-1.7073-1.5992,3.3565,3.3565,0,0,0-2.2108.035,3.001,3.001,0,0,0-1.6249,1.44,3.1481,3.1481,0,0,0-.2172,2.2309,2.7,2.7,0,0,0,1.5172,1.754,2.88,2.88,0,0,0,2.2859-.0631,3.7321,3.7321,0,0,0,1.6937-1.47A2.6987,2.6987,0,0,0,70.3258,39.5041Z"/><path class="cls-2" d="M39.5267,58.3349a3.7786,3.7786,0,0,1,.0588,2.53A2.9232,2.9232,0,0,1,37.7,62.686a3.485,3.485,0,0,1-2.5723-.2677,3.7734,3.7734,0,0,1-1.7733-1.8259,3.2428,3.2428,0,0,1-.0126-2.6271,3.3843,3.3843,0,0,1,1.9551-1.8506,3.12,3.12,0,0,1,2.6471.24A3.7773,3.7773,0,0,1,39.5267,58.3349Zm-.0638.0234a2.6957,2.6957,0,0,0-1.7073-1.5992,3.3559,3.3559,0,0,0-2.2108.035,3,3,0,0,0-1.6249,1.44,3.1486,3.1486,0,0,0-.2173,2.2309A2.6992,2.6992,0,0,0,35.22,62.2188a2.879,2.879,0,0,0,2.2857-.063A3.7332,3.7332,0,0,0,39.2,60.686,2.6993,2.6993,0,0,0,39.4629,58.3583Z"/><path class="cls-2" d="M46.2247,55.8854a3.7783,3.7783,0,0,1,.0589,2.53,2.9231,2.9231,0,0,1-1.8861,1.8207,3.4847,3.4847,0,0,1-2.5722-.2677,3.773,3.773,0,0,1-1.7734-1.8258,3.2426,3.2426,0,0,1-.0126-2.6272,3.3841,3.3841,0,0,1,1.9551-1.8505,3.12,3.12,0,0,1,2.6471.2395A3.7783,3.7783,0,0,1,46.2247,55.8854Zm-.0638.0233A2.6952,2.6952,0,0,0,44.4536,54.31a3.3568,3.3568,0,0,0-2.2109.035,3.0006,3.0006,0,0,0-1.6248,1.44,3.1486,3.1486,0,0,0-.2173,2.2309,2.6991,2.6991,0,0,0,1.5173,1.7539,2.8794,2.8794,0,0,0,2.2857-.0631,3.731,3.731,0,0,0,1.6939-1.47A2.6987,2.6987,0,0,0,46.1609,55.9087Z"/><path class="cls-2" d="M52.9226,53.4359a3.777,3.777,0,0,1,.059,2.53,2.9236,2.9236,0,0,1-1.886,1.8207,3.4852,3.4852,0,0,1-2.5723-.2677A3.7727,3.7727,0,0,1,46.75,55.6933a3.243,3.243,0,0,1-.0126-2.6272,3.3845,3.3845,0,0,1,1.955-1.85,3.12,3.12,0,0,1,2.6472.24A3.7751,3.7751,0,0,1,52.9226,53.4359Zm-.0637.0232A2.6951,2.6951,0,0,0,51.1516,51.86a3.3568,3.3568,0,0,0-2.2109.0349,3.0017,3.0017,0,0,0-1.6249,1.44,3.1481,3.1481,0,0,0-.217,2.2309,2.7,2.7,0,0,0,1.517,1.7541,2.8807,2.8807,0,0,0,2.2859-.0631,3.7323,3.7323,0,0,0,1.6937-1.47A2.6986,2.6986,0,0,0,52.8589,53.4591Z"/><path class="cls-2" d="M59.6206,50.9863a3.777,3.777,0,0,1,.059,2.53,2.9233,2.9233,0,0,1-1.886,1.8206,3.4847,3.4847,0,0,1-2.5724-.2676,3.7719,3.7719,0,0,1-1.7732-1.8259,3.242,3.242,0,0,1-.0127-2.6271A3.3844,3.3844,0,0,1,55.39,48.766a3.1207,3.1207,0,0,1,2.6473.24A3.7766,3.7766,0,0,1,59.6206,50.9863Zm-.0636.0233A2.696,2.696,0,0,0,57.85,49.41a3.3562,3.3562,0,0,0-2.2107.035,3,3,0,0,0-1.6248,1.44,3.1475,3.1475,0,0,0-.2173,2.2309A2.6994,2.6994,0,0,0,55.3138,54.87a2.88,2.88,0,0,0,2.2859-.063,3.7318,3.7318,0,0,0,1.6937-1.47A2.6984,2.6984,0,0,0,59.557,51.01Z"/><path class="cls-2" d="M41.9344,64.9187a3.7782,3.7782,0,0,1,.059,2.53A2.9237,2.9237,0,0,1,40.1072,69.27a3.4843,3.4843,0,0,1-2.5721-.2677,3.7723,3.7723,0,0,1-1.7734-1.8259,3.242,3.242,0,0,1-.0126-2.6271,3.3839,3.3839,0,0,1,1.955-1.8505,3.12,3.12,0,0,1,2.6472.2395A3.7773,3.7773,0,0,1,41.9344,64.9187Zm-.0637.0233a2.6954,2.6954,0,0,0-1.7074-1.5992,3.3565,3.3565,0,0,0-2.2108.035,3.0017,3.0017,0,0,0-1.6249,1.44,3.1492,3.1492,0,0,0-.2172,2.2309,2.7,2.7,0,0,0,1.5172,1.754,2.88,2.88,0,0,0,2.2857-.0631,3.7311,3.7311,0,0,0,1.6939-1.47A2.6987,2.6987,0,0,0,41.8707,64.942Z"/><path class="cls-2" d="M48.6324,62.4691A3.7773,3.7773,0,0,1,48.6913,65,2.9233,2.9233,0,0,1,46.8054,66.82a3.485,3.485,0,0,1-2.5724-.2676A3.7736,3.7736,0,0,1,42.46,64.7266,3.2428,3.2428,0,0,1,42.4471,62.1a3.3843,3.3843,0,0,1,1.955-1.8507,3.12,3.12,0,0,1,2.6472.24A3.7767,3.7767,0,0,1,48.6324,62.4691Zm-.0638.0233a2.6951,2.6951,0,0,0-1.7073-1.5991,3.3559,3.3559,0,0,0-2.2108.0349,3.001,3.001,0,0,0-1.6249,1.44,3.1475,3.1475,0,0,0-.2171,2.2309,2.6993,2.6993,0,0,0,1.5171,1.754,2.88,2.88,0,0,0,2.2859-.0631,3.7321,3.7321,0,0,0,1.6937-1.47A2.6987,2.6987,0,0,0,48.5686,62.4924Z"/><path class="cls-2" d="M55.33,60.02a3.7768,3.7768,0,0,1,.0589,2.53,2.923,2.923,0,0,1-1.886,1.8207,3.4849,3.4849,0,0,1-2.5723-.2677,3.7721,3.7721,0,0,1-1.7732-1.8258A3.2426,3.2426,0,0,1,49.145,59.65a3.385,3.385,0,0,1,1.9551-1.85,3.1207,3.1207,0,0,1,2.6473.24A3.7759,3.7759,0,0,1,55.33,60.02Zm-.0636.0232a2.6959,2.6959,0,0,0-1.7075-1.5991,3.3556,3.3556,0,0,0-2.2107.035,3,3,0,0,0-1.6249,1.44,3.1481,3.1481,0,0,0-.2172,2.2309,2.6993,2.6993,0,0,0,1.5171,1.7539,2.88,2.88,0,0,0,2.2858-.063,3.7314,3.7314,0,0,0,1.6938-1.47A2.699,2.699,0,0,0,55.2668,60.0428Z"/><path class="cls-2" d="M62.0283,57.57a3.777,3.777,0,0,1,.059,2.53,2.9232,2.9232,0,0,1-1.886,1.8207,3.485,3.485,0,0,1-2.5723-.2677,3.7728,3.7728,0,0,1-1.7732-1.8259A3.242,3.242,0,0,1,55.843,57.2,3.385,3.385,0,0,1,57.798,55.35a3.1209,3.1209,0,0,1,2.6474.24A3.7756,3.7756,0,0,1,62.0283,57.57Zm-.0635.0233a2.696,2.696,0,0,0-1.7075-1.5992,3.355,3.355,0,0,0-2.2107.035,3,3,0,0,0-1.6249,1.44A3.1481,3.1481,0,0,0,56.2045,59.7a2.6992,2.6992,0,0,0,1.5172,1.754,2.88,2.88,0,0,0,2.2857-.0631,3.7307,3.7307,0,0,0,1.6937-1.47A2.6984,2.6984,0,0,0,61.9648,57.5933Z"/><path class="cls-2" d="M44.4175,71.7081a3.7785,3.7785,0,0,1,.0588,2.53,2.923,2.923,0,0,1-1.886,1.8206,3.4845,3.4845,0,0,1-2.5723-.2676,3.7734,3.7734,0,0,1-1.7733-1.8259,3.2416,3.2416,0,0,1-.0125-2.6271,3.3839,3.3839,0,0,1,1.9548-1.8507,3.1209,3.1209,0,0,1,2.6474.24A3.7781,3.7781,0,0,1,44.4175,71.7081Zm-.0638.0233a2.6957,2.6957,0,0,0-1.7074-1.5991,3.3556,3.3556,0,0,0-2.2107.0349,3,3,0,0,0-1.6249,1.44,3.1481,3.1481,0,0,0-.2172,2.2309,2.6992,2.6992,0,0,0,1.5172,1.754,2.8794,2.8794,0,0,0,2.2857-.0631,3.7306,3.7306,0,0,0,1.6937-1.47A2.6983,2.6983,0,0,0,44.3537,71.7314Z"/><path class="cls-2" d="M51.1155,69.2586a3.778,3.778,0,0,1,.0587,2.53A2.923,2.923,0,0,1,49.2883,73.61a3.4858,3.4858,0,0,1-2.5724-.2677,3.7741,3.7741,0,0,1-1.7732-1.8259,3.2426,3.2426,0,0,1-.0126-2.6272,3.3843,3.3843,0,0,1,1.9549-1.85,3.1207,3.1207,0,0,1,2.6473.24A3.7779,3.7779,0,0,1,51.1155,69.2586Zm-.0638.0232a2.6956,2.6956,0,0,0-1.7073-1.5991,3.3568,3.3568,0,0,0-2.2109.035,3,3,0,0,0-1.6248,1.44,3.1486,3.1486,0,0,0-.2173,2.2309,2.6994,2.6994,0,0,0,1.5173,1.7539,2.8794,2.8794,0,0,0,2.2857-.063,3.7326,3.7326,0,0,0,1.6939-1.47A2.7,2.7,0,0,0,51.0517,69.2818Z"/><path class="cls-2" d="M57.8134,66.809a3.7782,3.7782,0,0,1,.059,2.53A2.9231,2.9231,0,0,1,55.9862,71.16a3.4844,3.4844,0,0,1-2.5721-.2677,3.7723,3.7723,0,0,1-1.7734-1.8259,3.242,3.242,0,0,1-.0126-2.6271,3.3844,3.3844,0,0,1,1.955-1.8506,3.12,3.12,0,0,1,2.6472.24A3.7769,3.7769,0,0,1,57.8134,66.809Zm-.0637.0233a2.6952,2.6952,0,0,0-1.7073-1.5992,3.3562,3.3562,0,0,0-2.2109.035,3,3,0,0,0-1.6248,1.44,3.1486,3.1486,0,0,0-.2173,2.2309,2.6992,2.6992,0,0,0,1.5172,1.754,2.88,2.88,0,0,0,2.2857-.063,3.732,3.732,0,0,0,1.6939-1.47A2.6983,2.6983,0,0,0,57.75,66.8323Z"/><path class="cls-2" d="M64.5114,64.3594a3.7773,3.7773,0,0,1,.059,2.53,2.9237,2.9237,0,0,1-1.886,1.8206,3.4847,3.4847,0,0,1-2.5723-.2676,3.7727,3.7727,0,0,1-1.7734-1.8259,3.243,3.243,0,0,1-.0126-2.6272,3.3839,3.3839,0,0,1,1.955-1.85,3.12,3.12,0,0,1,2.6472.2395A3.7767,3.7767,0,0,1,64.5114,64.3594Zm-.0637.0234A2.6949,2.6949,0,0,0,62.74,62.7836a3.3559,3.3559,0,0,0-2.2108.0349,3.0015,3.0015,0,0,0-1.6249,1.44,3.1491,3.1491,0,0,0-.2172,2.2309,2.7,2.7,0,0,0,1.5172,1.7539,2.88,2.88,0,0,0,2.2859-.0631,3.731,3.731,0,0,0,1.6937-1.47A2.6985,2.6985,0,0,0,64.4477,64.3828Z"/><path class="cls-2" d="M63.1156,53.2252A3.5168,3.5168,0,1,1,66.4193,48.5h0a3.5206,3.5206,0,0,1-3.3037,4.725Zm.0039-6.3563a2.8385,2.8385,0,1,0,2.6626,1.8644h0A2.8432,2.8432,0,0,0,63.12,46.8689Z"/><path class="cls-2" d="M69.82,50.774A3.516,3.516,0,1,1,73.1174,46.05h0A3.5161,3.5161,0,0,1,69.82,50.774ZM69.8124,44.42A2.8377,2.8377,0,1,0,72.48,46.2834h0A2.8426,2.8426,0,0,0,69.8124,44.42Z"/><path class="cls-2" d="M65.5231,59.8088a3.5168,3.5168,0,1,1,3.3037-4.7251h0a3.5207,3.5207,0,0,1-3.3037,4.7251Zm.004-6.3564A2.8386,2.8386,0,1,0,68.19,55.3169h0a2.8423,2.8423,0,0,0-2.6626-1.8645Z"/><path class="cls-2" d="M72.2272,57.3575a3.5159,3.5159,0,1,1,3.2978-4.7237h0a3.5159,3.5159,0,0,1-3.2978,4.7237ZM72.22,51.0038a2.8377,2.8377,0,1,0,2.6679,1.8631h0A2.8429,2.8429,0,0,0,72.22,51.0038Z"/><path class="cls-2" d="M68.0062,66.5983a3.5168,3.5168,0,1,1,3.3037-4.725h0a3.5206,3.5206,0,0,1-3.3037,4.725Zm.004-6.3563a2.8385,2.8385,0,1,0,2.6625,1.8644h0A2.8432,2.8432,0,0,0,68.01,60.242Z"/><path class="cls-2" d="M74.71,64.1471a3.5159,3.5159,0,1,1,3.2984-4.7238h0A3.5161,3.5161,0,0,1,74.71,64.1471Zm-.0066-6.3538a2.8377,2.8377,0,1,0,2.6679,1.8632h0A2.843,2.843,0,0,0,74.703,57.7933Z"/><rect class="cls-1" x="33.1983" y="0.3611" width="44.7405" height="67.036"/><path class="cls-2" d="M77.9628,67.4211l-22.3051.1914-22.4594.09-.3062.0011.001-.3064.0586-16.7589.1135-16.759c.0117-5.5863.0476-11.1726.01-16.7589L33.0127.3612,33.0118.1765l.1865-.001,22.37-.12,22.37-.055L78.3,0l0,.3612-.022,16.8235-.0828,16.8Zm-.048-.048-.2316-33.6-.0827-16.7176L77.5785.3612l.36.36-22.37-.055-22.37-.12.1856-.1856L33.321,17.12c-.0373,5.5863-.0013,11.1726.01,16.7589l.1136,16.759.0587,16.7589-.3052-.3051,22.2811.09Z"/><path class="cls-3" d="M41.0651,5.3332A3.7785,3.7785,0,0,1,40.2513,7.73,2.9234,2.9234,0,0,1,37.8546,8.792a3.485,3.485,0,0,1-2.3238-1.1349,3.7732,3.7732,0,0,1-1.0383-2.3239,3.2418,3.2418,0,0,1,.8905-2.4716,3.3839,3.3839,0,0,1,2.4716-1.0665,3.1206,3.1206,0,0,1,2.404,1.1342A3.7771,3.7771,0,0,1,41.0651,5.3332Zm-.0679,0A2.6957,2.6957,0,0,0,39.943,3.2449a3.3569,3.3569,0,0,0-2.0884-.7265,3.001,3.001,0,0,0-2.0206.7943,3.148,3.148,0,0,0-.97,2.02,2.6987,2.6987,0,0,0,.8224,2.1684,2.88,2.88,0,0,0,2.1683.7259A3.7316,3.7316,0,0,0,39.95,7.4289,2.6987,2.6987,0,0,0,40.9972,5.3332Z"/><path class="cls-3" d="M48.1969,5.3332A3.7767,3.7767,0,0,1,47.3831,7.73,2.9229,2.9229,0,0,1,44.9864,8.792a3.485,3.485,0,0,1-2.3238-1.1349,3.7731,3.7731,0,0,1-1.0382-2.3239,3.2421,3.2421,0,0,1,.89-2.4716,3.3843,3.3843,0,0,1,2.4716-1.0665,3.121,3.121,0,0,1,2.4041,1.1342A3.7776,3.7776,0,0,1,48.1969,5.3332Zm-.0679,0a2.6951,2.6951,0,0,0-1.0542-2.0883,3.3565,3.3565,0,0,0-2.0884-.7265,3,3,0,0,0-2.02.7943,3.1482,3.1482,0,0,0-.97,2.02,2.7,2.7,0,0,0,.8224,2.1684,2.88,2.88,0,0,0,2.1683.7259,3.731,3.731,0,0,0,2.0956-.7986A2.6987,2.6987,0,0,0,48.129,5.3332Z"/><path class="cls-3" d="M55.3287,5.3332A3.7772,3.7772,0,0,1,54.515,7.73,2.9231,2.9231,0,0,1,52.1184,8.792a3.4856,3.4856,0,0,1-2.324-1.1349,3.7731,3.7731,0,0,1-1.0382-2.3239,3.2426,3.2426,0,0,1,.8905-2.4716,3.384,3.384,0,0,1,2.4717-1.0665,3.12,3.12,0,0,1,2.4039,1.1342A3.7764,3.7764,0,0,1,55.3287,5.3332Zm-.0677,0a2.6955,2.6955,0,0,0-1.0543-2.0883,3.3565,3.3565,0,0,0-2.0883-.7265,3.0006,3.0006,0,0,0-2.0206.7943,3.1481,3.1481,0,0,0-.97,2.02A2.6991,2.6991,0,0,0,49.95,7.5016a2.8794,2.8794,0,0,0,2.1683.7259,3.7316,3.7316,0,0,0,2.0956-.7986A2.6993,2.6993,0,0,0,55.261,5.3332Z"/><path class="cls-3" d="M62.4607,5.3332A3.7763,3.7763,0,0,1,61.6468,7.73,2.9228,2.9228,0,0,1,59.25,8.792a3.4847,3.4847,0,0,1-2.3238-1.1349A3.7733,3.7733,0,0,1,55.888,5.3332a3.2434,3.2434,0,0,1,.8905-2.4716A3.3843,3.3843,0,0,1,59.25,1.7951a3.12,3.12,0,0,1,2.4039,1.1342A3.7766,3.7766,0,0,1,62.4607,5.3332Zm-.0679,0a2.6955,2.6955,0,0,0-1.0543-2.0883A3.3562,3.3562,0,0,0,59.25,2.5184a3,3,0,0,0-2.02.7943,3.1474,3.1474,0,0,0-.97,2.02,2.7,2.7,0,0,0,.8225,2.1684,2.88,2.88,0,0,0,2.1683.7259,3.7316,3.7316,0,0,0,2.0956-.7986A2.6987,2.6987,0,0,0,62.3928,5.3332Z"/><path class="cls-3" d="M41.0651,12.3434a3.7787,3.7787,0,0,1-.8138,2.3966,2.9237,2.9237,0,0,1-2.3967,1.0622,3.4854,3.4854,0,0,1-2.3238-1.1349,3.7732,3.7732,0,0,1-1.0383-2.3239,3.2421,3.2421,0,0,1,.8905-2.4717,3.3843,3.3843,0,0,1,2.4716-1.0665A3.121,3.121,0,0,1,40.2586,9.94,3.7771,3.7771,0,0,1,41.0651,12.3434Zm-.0679,0a2.6955,2.6955,0,0,0-1.0542-2.0883,3.3563,3.3563,0,0,0-2.0884-.7265,3.0005,3.0005,0,0,0-2.0206.7943,3.1478,3.1478,0,0,0-.97,2.0205,2.6987,2.6987,0,0,0,.8224,2.1684,2.8794,2.8794,0,0,0,2.1683.7258A3.7308,3.7308,0,0,0,39.95,14.439,2.6984,2.6984,0,0,0,40.9972,12.3434Z"/><path class="cls-3" d="M48.1969,12.3434a3.7769,3.7769,0,0,1-.8138,2.3966,2.9232,2.9232,0,0,1-2.3967,1.0622,3.4854,3.4854,0,0,1-2.3238-1.1349,3.7731,3.7731,0,0,1-1.0382-2.3239,3.2424,3.2424,0,0,1,.89-2.4717,3.3846,3.3846,0,0,1,2.4716-1.0665A3.1214,3.1214,0,0,1,47.3905,9.94,3.7776,3.7776,0,0,1,48.1969,12.3434Zm-.0679,0a2.6949,2.6949,0,0,0-1.0542-2.0883,3.3559,3.3559,0,0,0-2.0884-.7265,3,3,0,0,0-2.02.7943,3.148,3.148,0,0,0-.97,2.0205,2.7,2.7,0,0,0,.8224,2.1684,2.88,2.88,0,0,0,2.1683.7258,3.73,3.73,0,0,0,2.0956-.7986A2.6984,2.6984,0,0,0,48.129,12.3434Z"/><path class="cls-3" d="M55.3287,12.3434A3.7774,3.7774,0,0,1,54.515,14.74a2.9234,2.9234,0,0,1-2.3966,1.0622,3.4861,3.4861,0,0,1-2.324-1.1349,3.7731,3.7731,0,0,1-1.0382-2.3239,3.2428,3.2428,0,0,1,.8905-2.4717,3.3844,3.3844,0,0,1,2.4717-1.0665A3.1207,3.1207,0,0,1,54.5223,9.94,3.7764,3.7764,0,0,1,55.3287,12.3434Zm-.0677,0a2.6953,2.6953,0,0,0-1.0543-2.0883,3.3559,3.3559,0,0,0-2.0883-.7265,3,3,0,0,0-2.0206.7943,3.1479,3.1479,0,0,0-.97,2.0205,2.6991,2.6991,0,0,0,.8225,2.1684,2.8793,2.8793,0,0,0,2.1683.7258,3.7308,3.7308,0,0,0,2.0956-.7986A2.699,2.699,0,0,0,55.261,12.3434Z"/><path class="cls-3" d="M62.4607,12.3434a3.7764,3.7764,0,0,1-.8139,2.3966A2.9231,2.9231,0,0,1,59.25,15.8022a3.4852,3.4852,0,0,1-2.3238-1.1349,3.7733,3.7733,0,0,1-1.0384-2.3239,3.2436,3.2436,0,0,1,.8905-2.4717A3.3847,3.3847,0,0,1,59.25,8.8052,3.1207,3.1207,0,0,1,61.6541,9.94,3.7766,3.7766,0,0,1,62.4607,12.3434Zm-.0679,0a2.6953,2.6953,0,0,0-1.0543-2.0883A3.3556,3.3556,0,0,0,59.25,9.5286a3,3,0,0,0-2.02.7943,3.1471,3.1471,0,0,0-.97,2.0205,2.7,2.7,0,0,0,.8225,2.1684,2.88,2.88,0,0,0,2.1683.7258,3.7308,3.7308,0,0,0,2.0956-.7986A2.6984,2.6984,0,0,0,62.3928,12.3434Z"/><path class="cls-3" d="M41.0651,19.5726a3.7789,3.7789,0,0,1-.8138,2.3967,2.9236,2.9236,0,0,1-2.3967,1.0621,3.485,3.485,0,0,1-2.3238-1.1349,3.773,3.773,0,0,1-1.0383-2.3239,3.2418,3.2418,0,0,1,.8905-2.4716,3.3843,3.3843,0,0,1,2.4716-1.0665,3.1206,3.1206,0,0,1,2.404,1.1342A3.7775,3.7775,0,0,1,41.0651,19.5726Zm-.0679,0a2.6958,2.6958,0,0,0-1.0542-2.0883,3.3568,3.3568,0,0,0-2.0884-.7264,3,3,0,0,0-2.0206.7942,3.148,3.148,0,0,0-.97,2.0205,2.6985,2.6985,0,0,0,.8224,2.1684,2.88,2.88,0,0,0,2.1683.7259,3.7317,3.7317,0,0,0,2.0956-.7987A2.6984,2.6984,0,0,0,40.9972,19.5726Z"/><path class="cls-3" d="M48.1969,19.5726a3.7772,3.7772,0,0,1-.8138,2.3967,2.9231,2.9231,0,0,1-2.3967,1.0621,3.485,3.485,0,0,1-2.3238-1.1349,3.7728,3.7728,0,0,1-1.0382-2.3239,3.2421,3.2421,0,0,1,.89-2.4716,3.3846,3.3846,0,0,1,2.4716-1.0665,3.121,3.121,0,0,1,2.4041,1.1342A3.7779,3.7779,0,0,1,48.1969,19.5726Zm-.0679,0a2.6952,2.6952,0,0,0-1.0542-2.0883,3.3564,3.3564,0,0,0-2.0884-.7264,3,3,0,0,0-2.02.7942,3.1482,3.1482,0,0,0-.97,2.0205,2.7,2.7,0,0,0,.8224,2.1684,2.88,2.88,0,0,0,2.1683.7259,3.7311,3.7311,0,0,0,2.0956-.7987A2.6984,2.6984,0,0,0,48.129,19.5726Z"/><path class="cls-3" d="M55.3287,19.5726a3.7777,3.7777,0,0,1-.8137,2.3967,2.9233,2.9233,0,0,1-2.3966,1.0621,3.4856,3.4856,0,0,1-2.324-1.1349,3.7728,3.7728,0,0,1-1.0382-2.3239,3.2426,3.2426,0,0,1,.8905-2.4716,3.3844,3.3844,0,0,1,2.4717-1.0665,3.12,3.12,0,0,1,2.4039,1.1342A3.7768,3.7768,0,0,1,55.3287,19.5726Zm-.0677,0a2.6956,2.6956,0,0,0-1.0543-2.0883,3.3563,3.3563,0,0,0-2.0883-.7264,3,3,0,0,0-2.0206.7942,3.1481,3.1481,0,0,0-.97,2.0205A2.699,2.699,0,0,0,49.95,21.741a2.88,2.88,0,0,0,2.1683.7259,3.7317,3.7317,0,0,0,2.0956-.7987A2.699,2.699,0,0,0,55.261,19.5726Z"/><path class="cls-3" d="M62.4607,19.5726a3.7767,3.7767,0,0,1-.8139,2.3967A2.923,2.923,0,0,1,59.25,23.0314a3.4847,3.4847,0,0,1-2.3238-1.1349,3.7731,3.7731,0,0,1-1.0384-2.3239,3.2434,3.2434,0,0,1,.8905-2.4716A3.3847,3.3847,0,0,1,59.25,16.0345a3.12,3.12,0,0,1,2.4039,1.1342A3.777,3.777,0,0,1,62.4607,19.5726Zm-.0679,0a2.6956,2.6956,0,0,0-1.0543-2.0883,3.3561,3.3561,0,0,0-2.0883-.7264,3,3,0,0,0-2.02.7942,3.1474,3.1474,0,0,0-.97,2.0205,2.7,2.7,0,0,0,.8225,2.1684,2.88,2.88,0,0,0,2.1683.7259,3.7317,3.7317,0,0,0,2.0956-.7987A2.6984,2.6984,0,0,0,62.3928,19.5726Z"/><path class="cls-3" d="M41.0651,26.5828a3.7791,3.7791,0,0,1-.8138,2.3967,2.9232,2.9232,0,0,1-2.3967,1.062,3.4844,3.4844,0,0,1-2.3238-1.1348,3.773,3.773,0,0,1-1.0383-2.3239,3.2418,3.2418,0,0,1,.8905-2.4716,3.384,3.384,0,0,1,2.4716-1.0666,3.1207,3.1207,0,0,1,2.404,1.1343A3.7771,3.7771,0,0,1,41.0651,26.5828Zm-.0679,0a2.6957,2.6957,0,0,0-1.0542-2.0883,3.3569,3.3569,0,0,0-2.0884-.7265,3.0005,3.0005,0,0,0-2.0206.7943,3.148,3.148,0,0,0-.97,2.02,2.6985,2.6985,0,0,0,.8224,2.1684,2.8794,2.8794,0,0,0,2.1683.7258,3.7316,3.7316,0,0,0,2.0956-.7986A2.6985,2.6985,0,0,0,40.9972,26.5828Z"/><path class="cls-3" d="M48.1969,26.5828a3.7774,3.7774,0,0,1-.8138,2.3967,2.9227,2.9227,0,0,1-2.3967,1.062,3.4844,3.4844,0,0,1-2.3238-1.1348,3.7728,3.7728,0,0,1-1.0382-2.3239,3.2421,3.2421,0,0,1,.89-2.4716,3.3844,3.3844,0,0,1,2.4716-1.0666,3.1211,3.1211,0,0,1,2.4041,1.1343A3.7776,3.7776,0,0,1,48.1969,26.5828Zm-.0679,0a2.6951,2.6951,0,0,0-1.0542-2.0883,3.3565,3.3565,0,0,0-2.0884-.7265,3,3,0,0,0-2.02.7943,3.1482,3.1482,0,0,0-.97,2.02,2.7,2.7,0,0,0,.8224,2.1684,2.88,2.88,0,0,0,2.1683.7258,3.731,3.731,0,0,0,2.0956-.7986A2.6985,2.6985,0,0,0,48.129,26.5828Z"/><path class="cls-3" d="M55.3287,26.5828A3.7779,3.7779,0,0,1,54.515,28.98a2.9229,2.9229,0,0,1-2.3966,1.062,3.4851,3.4851,0,0,1-2.324-1.1348,3.7728,3.7728,0,0,1-1.0382-2.3239,3.2426,3.2426,0,0,1,.8905-2.4716,3.3841,3.3841,0,0,1,2.4717-1.0666,3.12,3.12,0,0,1,2.4039,1.1343A3.7764,3.7764,0,0,1,55.3287,26.5828Zm-.0677,0a2.6955,2.6955,0,0,0-1.0543-2.0883,3.3565,3.3565,0,0,0-2.0883-.7265,3,3,0,0,0-2.0206.7943,3.1481,3.1481,0,0,0-.97,2.02,2.699,2.699,0,0,0,.8225,2.1684,2.8793,2.8793,0,0,0,2.1683.7258,3.7316,3.7316,0,0,0,2.0956-.7986A2.6991,2.6991,0,0,0,55.261,26.5828Z"/><path class="cls-3" d="M62.4607,26.5828a3.7769,3.7769,0,0,1-.8139,2.3967,2.9226,2.9226,0,0,1-2.3966,1.062,3.4842,3.4842,0,0,1-2.3238-1.1348,3.7731,3.7731,0,0,1-1.0384-2.3239,3.2434,3.2434,0,0,1,.8905-2.4716A3.3844,3.3844,0,0,1,59.25,23.0446a3.12,3.12,0,0,1,2.4039,1.1343A3.7766,3.7766,0,0,1,62.4607,26.5828Zm-.0679,0a2.6955,2.6955,0,0,0-1.0543-2.0883A3.3562,3.3562,0,0,0,59.25,23.768a3,3,0,0,0-2.02.7943,3.1474,3.1474,0,0,0-.97,2.02,2.7,2.7,0,0,0,.8225,2.1684,2.88,2.88,0,0,0,2.1683.7258,3.7316,3.7316,0,0,0,2.0956-.7986A2.6985,2.6985,0,0,0,62.3928,26.5828Z"/><path class="cls-3" d="M41.0651,33.8121a3.7789,3.7789,0,0,1-.8138,2.3966,2.9233,2.9233,0,0,1-2.3967,1.0621,3.485,3.485,0,0,1-2.3238-1.1349,3.7729,3.7729,0,0,1-1.0383-2.3238A3.2419,3.2419,0,0,1,35.383,31.34a3.3843,3.3843,0,0,1,2.4716-1.0665,3.1206,3.1206,0,0,1,2.404,1.1342A3.7774,3.7774,0,0,1,41.0651,33.8121Zm-.0679,0a2.6954,2.6954,0,0,0-1.0542-2.0883,3.3557,3.3557,0,0,0-2.0884-.7265,3,3,0,0,0-2.0206.7942,3.148,3.148,0,0,0-.97,2.0206,2.6985,2.6985,0,0,0,.8224,2.1683,2.88,2.88,0,0,0,2.1683.7259,3.7316,3.7316,0,0,0,2.0956-.7986A2.6987,2.6987,0,0,0,40.9972,33.8121Z"/><path class="cls-3" d="M48.1969,33.8121a3.7771,3.7771,0,0,1-.8138,2.3966,2.9228,2.9228,0,0,1-2.3967,1.0621,3.485,3.485,0,0,1-2.3238-1.1349,3.7728,3.7728,0,0,1-1.0382-2.3238,3.2422,3.2422,0,0,1,.89-2.4717,3.3846,3.3846,0,0,1,2.4716-1.0665,3.121,3.121,0,0,1,2.4041,1.1342A3.7778,3.7778,0,0,1,48.1969,33.8121Zm-.0679,0a2.6948,2.6948,0,0,0-1.0542-2.0883,3.3553,3.3553,0,0,0-2.0884-.7265,3,3,0,0,0-2.02.7942,3.1482,3.1482,0,0,0-.97,2.0206,2.7,2.7,0,0,0,.8224,2.1683,2.88,2.88,0,0,0,2.1683.7259,3.731,3.731,0,0,0,2.0956-.7986A2.6987,2.6987,0,0,0,48.129,33.8121Z"/><path class="cls-3" d="M55.3287,33.8121a3.7776,3.7776,0,0,1-.8137,2.3966,2.923,2.923,0,0,1-2.3966,1.0621,3.4856,3.4856,0,0,1-2.324-1.1349,3.7728,3.7728,0,0,1-1.0382-2.3238,3.2427,3.2427,0,0,1,.8905-2.4717,3.3844,3.3844,0,0,1,2.4717-1.0665,3.12,3.12,0,0,1,2.4039,1.1342A3.7767,3.7767,0,0,1,55.3287,33.8121Zm-.0677,0a2.6952,2.6952,0,0,0-1.0543-2.0883,3.3553,3.3553,0,0,0-2.0883-.7265,3,3,0,0,0-2.0206.7942,3.1481,3.1481,0,0,0-.97,2.0206A2.6989,2.6989,0,0,0,49.95,35.98a2.8794,2.8794,0,0,0,2.1683.7259,3.7316,3.7316,0,0,0,2.0956-.7986A2.6993,2.6993,0,0,0,55.261,33.8121Z"/><path class="cls-3" d="M62.4607,33.8121a3.7766,3.7766,0,0,1-.8139,2.3966A2.9227,2.9227,0,0,1,59.25,37.2708a3.4847,3.4847,0,0,1-2.3238-1.1349,3.7731,3.7731,0,0,1-1.0384-2.3238,3.2434,3.2434,0,0,1,.8905-2.4717A3.3847,3.3847,0,0,1,59.25,30.2739a3.12,3.12,0,0,1,2.4039,1.1342A3.7769,3.7769,0,0,1,62.4607,33.8121Zm-.0679,0a2.6952,2.6952,0,0,0-1.0543-2.0883,3.355,3.355,0,0,0-2.0883-.7265,3,3,0,0,0-2.02.7942,3.1474,3.1474,0,0,0-.97,2.0206,2.7,2.7,0,0,0,.8225,2.1683,2.88,2.88,0,0,0,2.1683.7259,3.7316,3.7316,0,0,0,2.0956-.7986A2.6987,2.6987,0,0,0,62.3928,33.8121Z"/><path class="cls-3" d="M41.0651,40.8222a3.7785,3.7785,0,0,1-.8138,2.3966,2.9234,2.9234,0,0,1-2.3967,1.0622,3.485,3.485,0,0,1-2.3238-1.1349,3.7732,3.7732,0,0,1-1.0383-2.3239,3.2422,3.2422,0,0,1,.8905-2.4717,3.3842,3.3842,0,0,1,2.4716-1.0664,3.1206,3.1206,0,0,1,2.404,1.1342A3.7771,3.7771,0,0,1,41.0651,40.8222Zm-.0679,0a2.6957,2.6957,0,0,0-1.0542-2.0883,3.3569,3.3569,0,0,0-2.0884-.7265,3.0005,3.0005,0,0,0-2.0206.7943,3.148,3.148,0,0,0-.97,2.0205,2.6987,2.6987,0,0,0,.8224,2.1684,2.88,2.88,0,0,0,2.1683.7259,3.7316,3.7316,0,0,0,2.0956-.7986A2.6987,2.6987,0,0,0,40.9972,40.8222Z"/><path class="cls-3" d="M48.1969,40.8222a3.7767,3.7767,0,0,1-.8138,2.3966,2.9229,2.9229,0,0,1-2.3967,1.0622,3.485,3.485,0,0,1-2.3238-1.1349,3.7731,3.7731,0,0,1-1.0382-2.3239,3.2425,3.2425,0,0,1,.89-2.4717,3.3845,3.3845,0,0,1,2.4716-1.0664,3.121,3.121,0,0,1,2.4041,1.1342A3.7776,3.7776,0,0,1,48.1969,40.8222Zm-.0679,0a2.6951,2.6951,0,0,0-1.0542-2.0883,3.3565,3.3565,0,0,0-2.0884-.7265,3,3,0,0,0-2.02.7943,3.1482,3.1482,0,0,0-.97,2.0205,2.7,2.7,0,0,0,.8224,2.1684,2.88,2.88,0,0,0,2.1683.7259,3.731,3.731,0,0,0,2.0956-.7986A2.6987,2.6987,0,0,0,48.129,40.8222Z"/><path class="cls-3" d="M55.3287,40.8222a3.7772,3.7772,0,0,1-.8137,2.3966,2.9231,2.9231,0,0,1-2.3966,1.0622,3.4856,3.4856,0,0,1-2.324-1.1349,3.7731,3.7731,0,0,1-1.0382-2.3239,3.243,3.243,0,0,1,.8905-2.4717,3.3843,3.3843,0,0,1,2.4717-1.0664,3.12,3.12,0,0,1,2.4039,1.1342A3.7764,3.7764,0,0,1,55.3287,40.8222Zm-.0677,0a2.6955,2.6955,0,0,0-1.0543-2.0883,3.3565,3.3565,0,0,0-2.0883-.7265,3,3,0,0,0-2.0206.7943,3.1481,3.1481,0,0,0-.97,2.0205,2.6991,2.6991,0,0,0,.8225,2.1684,2.8794,2.8794,0,0,0,2.1683.7259,3.7316,3.7316,0,0,0,2.0956-.7986A2.6993,2.6993,0,0,0,55.261,40.8222Z"/><path class="cls-3" d="M62.4607,40.8222a3.7763,3.7763,0,0,1-.8139,2.3966A2.9228,2.9228,0,0,1,59.25,44.281a3.4847,3.4847,0,0,1-2.3238-1.1349,3.7733,3.7733,0,0,1-1.0384-2.3239,3.2437,3.2437,0,0,1,.8905-2.4717A3.3846,3.3846,0,0,1,59.25,37.2841a3.12,3.12,0,0,1,2.4039,1.1342A3.7766,3.7766,0,0,1,62.4607,40.8222Zm-.0679,0a2.6955,2.6955,0,0,0-1.0543-2.0883,3.3562,3.3562,0,0,0-2.0883-.7265,3,3,0,0,0-2.02.7943,3.1474,3.1474,0,0,0-.97,2.0205,2.7,2.7,0,0,0,.8225,2.1684,2.88,2.88,0,0,0,2.1683.7259,3.7316,3.7316,0,0,0,2.0956-.7986A2.6987,2.6987,0,0,0,62.3928,40.8222Z"/><path class="cls-3" d="M69.3944,5.3332A3.7779,3.7779,0,0,1,68.5806,7.73,2.9233,2.9233,0,0,1,66.184,8.792,3.4847,3.4847,0,0,1,63.86,7.6571a3.7733,3.7733,0,0,1-1.0384-2.3239,3.2422,3.2422,0,0,1,.89-2.4716A3.384,3.384,0,0,1,66.184,1.7951a3.12,3.12,0,0,1,2.4039,1.1342A3.7765,3.7765,0,0,1,69.3944,5.3332Zm-.0678,0a2.6958,2.6958,0,0,0-1.0543-2.0883,3.3569,3.3569,0,0,0-2.0883-.7265,3.0006,3.0006,0,0,0-2.0206.7943,3.1481,3.1481,0,0,0-.97,2.02,2.6984,2.6984,0,0,0,.8225,2.1684,2.8793,2.8793,0,0,0,2.1683.7259A3.7321,3.7321,0,0,0,68.28,7.4289,2.699,2.699,0,0,0,69.3266,5.3332Z"/><path class="cls-3" d="M76.5262,5.3332A3.7761,3.7761,0,0,1,75.7124,7.73,2.9228,2.9228,0,0,1,73.3158,8.792,3.4847,3.4847,0,0,1,70.992,7.6571a3.7744,3.7744,0,0,1-1.0384-2.3239,3.2426,3.2426,0,0,1,.8905-2.4716,3.3846,3.3846,0,0,1,2.4717-1.0665A3.12,3.12,0,0,1,75.72,2.9293,3.7765,3.7765,0,0,1,76.5262,5.3332Zm-.0678,0a2.6952,2.6952,0,0,0-1.0543-2.0883,3.3565,3.3565,0,0,0-2.0883-.7265,3.0005,3.0005,0,0,0-2.02.7943,3.1482,3.1482,0,0,0-.97,2.02,2.7,2.7,0,0,0,.8225,2.1684,2.88,2.88,0,0,0,2.1683.7259,3.7316,3.7316,0,0,0,2.0956-.7986A2.699,2.699,0,0,0,76.4584,5.3332Z"/><path class="cls-3" d="M69.3944,12.3434a3.7781,3.7781,0,0,1-.8138,2.3966,2.9236,2.9236,0,0,1-2.3966,1.0622A3.4852,3.4852,0,0,1,63.86,14.6673a3.7733,3.7733,0,0,1-1.0384-2.3239,3.2424,3.2424,0,0,1,.89-2.4717A3.3844,3.3844,0,0,1,66.184,8.8052,3.1208,3.1208,0,0,1,68.5879,9.94,3.7765,3.7765,0,0,1,69.3944,12.3434Zm-.0678,0a2.6956,2.6956,0,0,0-1.0543-2.0883,3.3563,3.3563,0,0,0-2.0883-.7265,3,3,0,0,0-2.0206.7943,3.1479,3.1479,0,0,0-.97,2.0205,2.6984,2.6984,0,0,0,.8225,2.1684,2.8792,2.8792,0,0,0,2.1683.7258A3.7314,3.7314,0,0,0,68.28,14.439,2.6987,2.6987,0,0,0,69.3266,12.3434Z"/><path class="cls-3" d="M76.5262,12.3434a3.7763,3.7763,0,0,1-.8138,2.3966,2.9231,2.9231,0,0,1-2.3966,1.0622,3.4852,3.4852,0,0,1-2.3238-1.1349,3.7744,3.7744,0,0,1-1.0384-2.3239,3.2428,3.2428,0,0,1,.8905-2.4717,3.385,3.385,0,0,1,2.4717-1.0665A3.1208,3.1208,0,0,1,75.72,9.94,3.7765,3.7765,0,0,1,76.5262,12.3434Zm-.0678,0a2.695,2.695,0,0,0-1.0543-2.0883,3.3559,3.3559,0,0,0-2.0883-.7265,3,3,0,0,0-2.02.7943,3.148,3.148,0,0,0-.97,2.0205,2.7,2.7,0,0,0,.8225,2.1684,2.8794,2.8794,0,0,0,2.1683.7258,3.7308,3.7308,0,0,0,2.0956-.7986A2.6987,2.6987,0,0,0,76.4584,12.3434Z"/><path class="cls-3" d="M69.3944,19.5726a3.7784,3.7784,0,0,1-.8138,2.3967,2.9235,2.9235,0,0,1-2.3966,1.0621A3.4847,3.4847,0,0,1,63.86,21.8965a3.7731,3.7731,0,0,1-1.0384-2.3239,3.2422,3.2422,0,0,1,.89-2.4716,3.3844,3.3844,0,0,1,2.4717-1.0665,3.12,3.12,0,0,1,2.4039,1.1342A3.7769,3.7769,0,0,1,69.3944,19.5726Zm-.0678,0a2.6959,2.6959,0,0,0-1.0543-2.0883,3.3568,3.3568,0,0,0-2.0883-.7264,3,3,0,0,0-2.0206.7942,3.1481,3.1481,0,0,0-.97,2.0205,2.6983,2.6983,0,0,0,.8225,2.1684,2.88,2.88,0,0,0,2.1683.7259,3.7322,3.7322,0,0,0,2.0956-.7987A2.6987,2.6987,0,0,0,69.3266,19.5726Z"/><path class="cls-3" d="M76.5262,19.5726a3.7766,3.7766,0,0,1-.8138,2.3967,2.923,2.923,0,0,1-2.3966,1.0621,3.4847,3.4847,0,0,1-2.3238-1.1349,3.7742,3.7742,0,0,1-1.0384-2.3239,3.2426,3.2426,0,0,1,.8905-2.4716,3.385,3.385,0,0,1,2.4717-1.0665A3.12,3.12,0,0,1,75.72,17.1687,3.7769,3.7769,0,0,1,76.5262,19.5726Zm-.0678,0a2.6953,2.6953,0,0,0-1.0543-2.0883,3.3563,3.3563,0,0,0-2.0883-.7264,3,3,0,0,0-2.02.7942,3.1482,3.1482,0,0,0-.97,2.0205,2.7,2.7,0,0,0,.8225,2.1684,2.88,2.88,0,0,0,2.1683.7259,3.7317,3.7317,0,0,0,2.0956-.7987A2.6987,2.6987,0,0,0,76.4584,19.5726Z"/><path class="cls-3" d="M69.3944,26.5828a3.7785,3.7785,0,0,1-.8138,2.3967,2.9232,2.9232,0,0,1-2.3966,1.062A3.4842,3.4842,0,0,1,63.86,28.9067a3.7731,3.7731,0,0,1-1.0384-2.3239,3.2422,3.2422,0,0,1,.89-2.4716,3.3841,3.3841,0,0,1,2.4717-1.0666,3.1205,3.1205,0,0,1,2.4039,1.1343A3.7765,3.7765,0,0,1,69.3944,26.5828Zm-.0678,0a2.6958,2.6958,0,0,0-1.0543-2.0883,3.3569,3.3569,0,0,0-2.0883-.7265,3,3,0,0,0-2.0206.7943,3.1481,3.1481,0,0,0-.97,2.02,2.6983,2.6983,0,0,0,.8225,2.1684,2.8792,2.8792,0,0,0,2.1683.7258,3.7321,3.7321,0,0,0,2.0956-.7986A2.6988,2.6988,0,0,0,69.3266,26.5828Z"/><path class="cls-3" d="M76.5262,26.5828a3.7768,3.7768,0,0,1-.8138,2.3967,2.9226,2.9226,0,0,1-2.3966,1.062,3.4842,3.4842,0,0,1-2.3238-1.1348,3.7742,3.7742,0,0,1-1.0384-2.3239,3.2426,3.2426,0,0,1,.8905-2.4716,3.3847,3.3847,0,0,1,2.4717-1.0666A3.1205,3.1205,0,0,1,75.72,24.1789,3.7765,3.7765,0,0,1,76.5262,26.5828Zm-.0678,0a2.6952,2.6952,0,0,0-1.0543-2.0883,3.3565,3.3565,0,0,0-2.0883-.7265,3,3,0,0,0-2.02.7943,3.1482,3.1482,0,0,0-.97,2.02,2.7,2.7,0,0,0,.8225,2.1684,2.8794,2.8794,0,0,0,2.1683.7258,3.7316,3.7316,0,0,0,2.0956-.7986A2.6988,2.6988,0,0,0,76.4584,26.5828Z"/><path class="cls-3" d="M69.3944,33.8121a3.7783,3.7783,0,0,1-.8138,2.3966,2.9232,2.9232,0,0,1-2.3966,1.0621A3.4847,3.4847,0,0,1,63.86,36.1359a3.7731,3.7731,0,0,1-1.0384-2.3238,3.2423,3.2423,0,0,1,.89-2.4717,3.3844,3.3844,0,0,1,2.4717-1.0665,3.12,3.12,0,0,1,2.4039,1.1342A3.7768,3.7768,0,0,1,69.3944,33.8121Zm-.0678,0a2.6955,2.6955,0,0,0-1.0543-2.0883,3.3557,3.3557,0,0,0-2.0883-.7265,3,3,0,0,0-2.0206.7942,3.1481,3.1481,0,0,0-.97,2.0206,2.6982,2.6982,0,0,0,.8225,2.1683,2.8793,2.8793,0,0,0,2.1683.7259,3.7321,3.7321,0,0,0,2.0956-.7986A2.699,2.699,0,0,0,69.3266,33.8121Z"/><path class="cls-3" d="M76.5262,33.8121a3.7765,3.7765,0,0,1-.8138,2.3966,2.9227,2.9227,0,0,1-2.3966,1.0621,3.4847,3.4847,0,0,1-2.3238-1.1349,3.7742,3.7742,0,0,1-1.0384-2.3238,3.2427,3.2427,0,0,1,.8905-2.4717,3.385,3.385,0,0,1,2.4717-1.0665A3.12,3.12,0,0,1,75.72,31.4081,3.7768,3.7768,0,0,1,76.5262,33.8121Zm-.0678,0a2.6949,2.6949,0,0,0-1.0543-2.0883,3.3553,3.3553,0,0,0-2.0883-.7265,3,3,0,0,0-2.02.7942,3.1482,3.1482,0,0,0-.97,2.0206,2.7,2.7,0,0,0,.8225,2.1683,2.88,2.88,0,0,0,2.1683.7259,3.7316,3.7316,0,0,0,2.0956-.7986A2.699,2.699,0,0,0,76.4584,33.8121Z"/><path class="cls-3" d="M69.3944,40.8222a3.7779,3.7779,0,0,1-.8138,2.3966A2.9233,2.9233,0,0,1,66.184,44.281,3.4847,3.4847,0,0,1,63.86,43.1461a3.7733,3.7733,0,0,1-1.0384-2.3239,3.2426,3.2426,0,0,1,.89-2.4717,3.3843,3.3843,0,0,1,2.4717-1.0664,3.12,3.12,0,0,1,2.4039,1.1342A3.7765,3.7765,0,0,1,69.3944,40.8222Zm-.0678,0a2.6958,2.6958,0,0,0-1.0543-2.0883,3.3569,3.3569,0,0,0-2.0883-.7265,3,3,0,0,0-2.0206.7943,3.1481,3.1481,0,0,0-.97,2.0205,2.6984,2.6984,0,0,0,.8225,2.1684,2.8793,2.8793,0,0,0,2.1683.7259,3.7321,3.7321,0,0,0,2.0956-.7986A2.699,2.699,0,0,0,69.3266,40.8222Z"/><path class="cls-3" d="M76.5262,40.8222a3.7761,3.7761,0,0,1-.8138,2.3966,2.9228,2.9228,0,0,1-2.3966,1.0622,3.4847,3.4847,0,0,1-2.3238-1.1349,3.7744,3.7744,0,0,1-1.0384-2.3239,3.243,3.243,0,0,1,.8905-2.4717,3.3849,3.3849,0,0,1,2.4717-1.0664A3.12,3.12,0,0,1,75.72,38.4183,3.7765,3.7765,0,0,1,76.5262,40.8222Zm-.0678,0a2.6952,2.6952,0,0,0-1.0543-2.0883,3.3565,3.3565,0,0,0-2.0883-.7265,3,3,0,0,0-2.02.7943,3.1482,3.1482,0,0,0-.97,2.0205,2.7,2.7,0,0,0,.8225,2.1684,2.88,2.88,0,0,0,2.1683.7259,3.7316,3.7316,0,0,0,2.0956-.7986A2.699,2.699,0,0,0,76.4584,40.8222Z"/><path class="cls-3" d="M41.0651,47.929a3.7787,3.7787,0,0,1-.8138,2.3966,2.923,2.923,0,0,1-2.3967,1.0621,3.4844,3.4844,0,0,1-2.3238-1.1348,3.7732,3.7732,0,0,1-1.0383-2.3239,3.2421,3.2421,0,0,1,.8905-2.4717,3.3843,3.3843,0,0,1,2.4716-1.0665,3.12,3.12,0,0,1,2.404,1.1343A3.7771,3.7771,0,0,1,41.0651,47.929Zm-.0679,0a2.6955,2.6955,0,0,0-1.0542-2.0883,3.3563,3.3563,0,0,0-2.0884-.7265,3,3,0,0,0-2.0206.7942,3.1485,3.1485,0,0,0-.97,2.0206,2.6987,2.6987,0,0,0,.8224,2.1684,2.88,2.88,0,0,0,2.1683.7258,3.7316,3.7316,0,0,0,2.0956-.7986A2.6985,2.6985,0,0,0,40.9972,47.929Z"/><path class="cls-3" d="M48.1969,47.929a3.7769,3.7769,0,0,1-.8138,2.3966,2.9225,2.9225,0,0,1-2.3967,1.0621,3.4844,3.4844,0,0,1-2.3238-1.1348,3.7731,3.7731,0,0,1-1.0382-2.3239,3.2424,3.2424,0,0,1,.89-2.4717,3.3846,3.3846,0,0,1,2.4716-1.0665,3.1207,3.1207,0,0,1,2.4041,1.1343A3.7776,3.7776,0,0,1,48.1969,47.929Zm-.0679,0a2.6949,2.6949,0,0,0-1.0542-2.0883,3.3559,3.3559,0,0,0-2.0884-.7265,3,3,0,0,0-2.02.7942,3.1487,3.1487,0,0,0-.97,2.0206,2.7,2.7,0,0,0,.8224,2.1684,2.88,2.88,0,0,0,2.1683.7258,3.731,3.731,0,0,0,2.0956-.7986A2.6985,2.6985,0,0,0,48.129,47.929Z"/><path class="cls-3" d="M55.3287,47.929a3.7774,3.7774,0,0,1-.8137,2.3966,2.9227,2.9227,0,0,1-2.3966,1.0621,3.4851,3.4851,0,0,1-2.324-1.1348,3.7731,3.7731,0,0,1-1.0382-2.3239,3.2428,3.2428,0,0,1,.8905-2.4717,3.3844,3.3844,0,0,1,2.4717-1.0665,3.12,3.12,0,0,1,2.4039,1.1343A3.7764,3.7764,0,0,1,55.3287,47.929Zm-.0677,0a2.6953,2.6953,0,0,0-1.0543-2.0883,3.3559,3.3559,0,0,0-2.0883-.7265,3,3,0,0,0-2.0206.7942,3.1486,3.1486,0,0,0-.97,2.0206,2.6991,2.6991,0,0,0,.8225,2.1684,2.88,2.88,0,0,0,2.1683.7258,3.7316,3.7316,0,0,0,2.0956-.7986A2.6991,2.6991,0,0,0,55.261,47.929Z"/><path class="cls-3" d="M62.4607,47.929a3.7764,3.7764,0,0,1-.8139,2.3966A2.9224,2.9224,0,0,1,59.25,51.3877a3.4842,3.4842,0,0,1-2.3238-1.1348A3.7733,3.7733,0,0,1,55.888,47.929a3.2436,3.2436,0,0,1,.8905-2.4717A3.3847,3.3847,0,0,1,59.25,44.3908a3.12,3.12,0,0,1,2.4039,1.1343A3.7766,3.7766,0,0,1,62.4607,47.929Zm-.0679,0a2.6953,2.6953,0,0,0-1.0543-2.0883,3.3556,3.3556,0,0,0-2.0883-.7265,3,3,0,0,0-2.02.7942,3.1478,3.1478,0,0,0-.97,2.0206,2.7,2.7,0,0,0,.8225,2.1684,2.88,2.88,0,0,0,2.1683.7258,3.7316,3.7316,0,0,0,2.0956-.7986A2.6985,2.6985,0,0,0,62.3928,47.929Z"/><path class="cls-3" d="M41.0651,54.9392a3.7789,3.7789,0,0,1-.8138,2.3966,2.9236,2.9236,0,0,1-2.3967,1.0621,3.485,3.485,0,0,1-2.3238-1.1349,3.7727,3.7727,0,0,1-1.0383-2.3238,3.2421,3.2421,0,0,1,.8905-2.4717,3.3843,3.3843,0,0,1,2.4716-1.0665,3.12,3.12,0,0,1,2.404,1.1343A3.7769,3.7769,0,0,1,41.0651,54.9392Zm-.0679,0a2.6955,2.6955,0,0,0-1.0542-2.0883,3.3563,3.3563,0,0,0-2.0884-.7265,3,3,0,0,0-2.0206.7942,3.148,3.148,0,0,0-.97,2.0206,2.6988,2.6988,0,0,0,.8224,2.1684,2.88,2.88,0,0,0,2.1683.7258,3.7316,3.7316,0,0,0,2.0956-.7986A2.6987,2.6987,0,0,0,40.9972,54.9392Z"/><path class="cls-3" d="M48.1969,54.9392a3.7771,3.7771,0,0,1-.8138,2.3966,2.9231,2.9231,0,0,1-2.3967,1.0621,3.485,3.485,0,0,1-2.3238-1.1349,3.7726,3.7726,0,0,1-1.0382-2.3238,3.2424,3.2424,0,0,1,.89-2.4717,3.3846,3.3846,0,0,1,2.4716-1.0665,3.1207,3.1207,0,0,1,2.4041,1.1343A3.7774,3.7774,0,0,1,48.1969,54.9392Zm-.0679,0a2.6949,2.6949,0,0,0-1.0542-2.0883,3.3559,3.3559,0,0,0-2.0884-.7265,3,3,0,0,0-2.02.7942,3.1482,3.1482,0,0,0-.97,2.0206,2.7,2.7,0,0,0,.8224,2.1684,2.88,2.88,0,0,0,2.1683.7258,3.731,3.731,0,0,0,2.0956-.7986A2.6987,2.6987,0,0,0,48.129,54.9392Z"/><path class="cls-3" d="M55.3287,54.9392a3.7776,3.7776,0,0,1-.8137,2.3966,2.9233,2.9233,0,0,1-2.3966,1.0621,3.4856,3.4856,0,0,1-2.324-1.1349,3.7726,3.7726,0,0,1-1.0382-2.3238,3.2428,3.2428,0,0,1,.8905-2.4717,3.3844,3.3844,0,0,1,2.4717-1.0665,3.12,3.12,0,0,1,2.4039,1.1343A3.7762,3.7762,0,0,1,55.3287,54.9392Zm-.0677,0a2.6953,2.6953,0,0,0-1.0543-2.0883,3.3559,3.3559,0,0,0-2.0883-.7265,3,3,0,0,0-2.0206.7942,3.1481,3.1481,0,0,0-.97,2.0206,2.6992,2.6992,0,0,0,.8225,2.1684,2.88,2.88,0,0,0,2.1683.7258,3.7316,3.7316,0,0,0,2.0956-.7986A2.6993,2.6993,0,0,0,55.261,54.9392Z"/><path class="cls-3" d="M62.4607,54.9392a3.7766,3.7766,0,0,1-.8139,2.3966A2.923,2.923,0,0,1,59.25,58.3979a3.4847,3.4847,0,0,1-2.3238-1.1349,3.7728,3.7728,0,0,1-1.0384-2.3238,3.2436,3.2436,0,0,1,.8905-2.4717A3.3847,3.3847,0,0,1,59.25,51.401a3.12,3.12,0,0,1,2.4039,1.1343A3.7764,3.7764,0,0,1,62.4607,54.9392Zm-.0679,0a2.6953,2.6953,0,0,0-1.0543-2.0883,3.3556,3.3556,0,0,0-2.0883-.7265,3,3,0,0,0-2.02.7942,3.1474,3.1474,0,0,0-.97,2.0206,2.7,2.7,0,0,0,.8225,2.1684,2.88,2.88,0,0,0,2.1683.7258,3.7316,3.7316,0,0,0,2.0956-.7986A2.6987,2.6987,0,0,0,62.3928,54.9392Z"/><path class="cls-3" d="M41.0651,62.1684a3.7791,3.7791,0,0,1-.8138,2.3967,2.9235,2.9235,0,0,1-2.3967,1.062,3.4849,3.4849,0,0,1-2.3238-1.1348,3.7732,3.7732,0,0,1-1.0383-2.3239,3.2417,3.2417,0,0,1,.8905-2.4716A3.3839,3.3839,0,0,1,37.8546,58.63a3.12,3.12,0,0,1,2.404,1.1342A3.7773,3.7773,0,0,1,41.0651,62.1684Zm-.0679,0A2.6955,2.6955,0,0,0,39.943,60.08a3.3563,3.3563,0,0,0-2.0884-.7265,3.0014,3.0014,0,0,0-2.0206.7942,3.1482,3.1482,0,0,0-.97,2.0206,2.6987,2.6987,0,0,0,.8224,2.1684,2.8794,2.8794,0,0,0,2.1683.7258A3.7308,3.7308,0,0,0,39.95,64.264,2.6985,2.6985,0,0,0,40.9972,62.1684Z"/><path class="cls-3" d="M48.1969,62.1684a3.7774,3.7774,0,0,1-.8138,2.3967,2.923,2.923,0,0,1-2.3967,1.062,3.4849,3.4849,0,0,1-2.3238-1.1348,3.7731,3.7731,0,0,1-1.0382-2.3239,3.242,3.242,0,0,1,.89-2.4716A3.3843,3.3843,0,0,1,44.9864,58.63a3.1207,3.1207,0,0,1,2.4041,1.1342A3.7777,3.7777,0,0,1,48.1969,62.1684Zm-.0679,0A2.6949,2.6949,0,0,0,47.0748,60.08a3.3559,3.3559,0,0,0-2.0884-.7265,3.0009,3.0009,0,0,0-2.02.7942,3.1485,3.1485,0,0,0-.97,2.0206,2.7,2.7,0,0,0,.8224,2.1684,2.88,2.88,0,0,0,2.1683.7258,3.73,3.73,0,0,0,2.0956-.7986A2.6985,2.6985,0,0,0,48.129,62.1684Z"/><path class="cls-3" d="M55.3287,62.1684a3.7779,3.7779,0,0,1-.8137,2.3967,2.9232,2.9232,0,0,1-2.3966,1.062,3.4855,3.4855,0,0,1-2.324-1.1348,3.7731,3.7731,0,0,1-1.0382-2.3239,3.2425,3.2425,0,0,1,.8905-2.4716A3.384,3.384,0,0,1,52.1184,58.63a3.12,3.12,0,0,1,2.4039,1.1342A3.7766,3.7766,0,0,1,55.3287,62.1684Zm-.0677,0A2.6953,2.6953,0,0,0,54.2067,60.08a3.3559,3.3559,0,0,0-2.0883-.7265,3.001,3.001,0,0,0-2.0206.7942,3.1484,3.1484,0,0,0-.97,2.0206,2.6991,2.6991,0,0,0,.8225,2.1684,2.8793,2.8793,0,0,0,2.1683.7258,3.7308,3.7308,0,0,0,2.0956-.7986A2.6991,2.6991,0,0,0,55.261,62.1684Z"/><path class="cls-3" d="M62.4607,62.1684a3.7769,3.7769,0,0,1-.8139,2.3967,2.9229,2.9229,0,0,1-2.3966,1.062,3.4846,3.4846,0,0,1-2.3238-1.1348,3.7733,3.7733,0,0,1-1.0384-2.3239,3.2432,3.2432,0,0,1,.8905-2.4716A3.3843,3.3843,0,0,1,59.25,58.63a3.12,3.12,0,0,1,2.4039,1.1342A3.7768,3.7768,0,0,1,62.4607,62.1684Zm-.0679,0A2.6953,2.6953,0,0,0,61.3385,60.08a3.3556,3.3556,0,0,0-2.0883-.7265,3,3,0,0,0-2.02.7942,3.1476,3.1476,0,0,0-.97,2.0206,2.7,2.7,0,0,0,.8225,2.1684,2.88,2.88,0,0,0,2.1683.7258,3.7308,3.7308,0,0,0,2.0956-.7986A2.6985,2.6985,0,0,0,62.3928,62.1684Z"/><path class="cls-3" d="M69.3944,47.929a3.7781,3.7781,0,0,1-.8138,2.3966,2.923,2.923,0,0,1-2.3966,1.0621A3.4842,3.4842,0,0,1,63.86,50.2529a3.7733,3.7733,0,0,1-1.0384-2.3239,3.2424,3.2424,0,0,1,.89-2.4717,3.3844,3.3844,0,0,1,2.4717-1.0665,3.12,3.12,0,0,1,2.4039,1.1343A3.7765,3.7765,0,0,1,69.3944,47.929Zm-.0678,0a2.6956,2.6956,0,0,0-1.0543-2.0883,3.3563,3.3563,0,0,0-2.0883-.7265,3,3,0,0,0-2.0206.7942,3.1486,3.1486,0,0,0-.97,2.0206,2.6984,2.6984,0,0,0,.8225,2.1684,2.88,2.88,0,0,0,2.1683.7258,3.7321,3.7321,0,0,0,2.0956-.7986A2.6988,2.6988,0,0,0,69.3266,47.929Z"/><path class="cls-3" d="M76.5262,47.929a3.7763,3.7763,0,0,1-.8138,2.3966,2.9224,2.9224,0,0,1-2.3966,1.0621,3.4842,3.4842,0,0,1-2.3238-1.1348,3.7744,3.7744,0,0,1-1.0384-2.3239,3.2428,3.2428,0,0,1,.8905-2.4717,3.385,3.385,0,0,1,2.4717-1.0665A3.12,3.12,0,0,1,75.72,45.5251,3.7765,3.7765,0,0,1,76.5262,47.929Zm-.0678,0a2.695,2.695,0,0,0-1.0543-2.0883,3.3559,3.3559,0,0,0-2.0883-.7265,3,3,0,0,0-2.02.7942,3.1487,3.1487,0,0,0-.97,2.0206,2.7,2.7,0,0,0,.8225,2.1684,2.88,2.88,0,0,0,2.1683.7258,3.7316,3.7316,0,0,0,2.0956-.7986A2.6988,2.6988,0,0,0,76.4584,47.929Z"/><path class="cls-3" d="M69.3944,54.9392a3.7783,3.7783,0,0,1-.8138,2.3966,2.9235,2.9235,0,0,1-2.3966,1.0621A3.4847,3.4847,0,0,1,63.86,57.263a3.7728,3.7728,0,0,1-1.0384-2.3238,3.2424,3.2424,0,0,1,.89-2.4717A3.3844,3.3844,0,0,1,66.184,51.401a3.12,3.12,0,0,1,2.4039,1.1343A3.7763,3.7763,0,0,1,69.3944,54.9392Zm-.0678,0a2.6956,2.6956,0,0,0-1.0543-2.0883,3.3563,3.3563,0,0,0-2.0883-.7265,3,3,0,0,0-2.0206.7942,3.1481,3.1481,0,0,0-.97,2.0206,2.6985,2.6985,0,0,0,.8225,2.1684,2.88,2.88,0,0,0,2.1683.7258,3.7321,3.7321,0,0,0,2.0956-.7986A2.699,2.699,0,0,0,69.3266,54.9392Z"/><path class="cls-3" d="M76.5262,54.9392a3.7765,3.7765,0,0,1-.8138,2.3966,2.923,2.923,0,0,1-2.3966,1.0621A3.4847,3.4847,0,0,1,70.992,57.263a3.7739,3.7739,0,0,1-1.0384-2.3238,3.2428,3.2428,0,0,1,.8905-2.4717,3.385,3.385,0,0,1,2.4717-1.0665A3.12,3.12,0,0,1,75.72,52.5353,3.7763,3.7763,0,0,1,76.5262,54.9392Zm-.0678,0a2.695,2.695,0,0,0-1.0543-2.0883,3.3559,3.3559,0,0,0-2.0883-.7265,3,3,0,0,0-2.02.7942,3.1482,3.1482,0,0,0-.97,2.0206,2.7,2.7,0,0,0,.8225,2.1684,2.88,2.88,0,0,0,2.1683.7258,3.7316,3.7316,0,0,0,2.0956-.7986A2.699,2.699,0,0,0,76.4584,54.9392Z"/><path class="cls-3" d="M69.3944,62.1684a3.7785,3.7785,0,0,1-.8138,2.3967,2.9234,2.9234,0,0,1-2.3966,1.062A3.4846,3.4846,0,0,1,63.86,64.4923a3.7733,3.7733,0,0,1-1.0384-2.3239,3.2421,3.2421,0,0,1,.89-2.4716A3.384,3.384,0,0,1,66.184,58.63a3.12,3.12,0,0,1,2.4039,1.1342A3.7767,3.7767,0,0,1,69.3944,62.1684Zm-.0678,0A2.6956,2.6956,0,0,0,68.2723,60.08a3.3563,3.3563,0,0,0-2.0883-.7265,3.001,3.001,0,0,0-2.0206.7942,3.1484,3.1484,0,0,0-.97,2.0206,2.6984,2.6984,0,0,0,.8225,2.1684,2.8792,2.8792,0,0,0,2.1683.7258A3.7314,3.7314,0,0,0,68.28,64.264,2.6988,2.6988,0,0,0,69.3266,62.1684Z"/><path class="cls-3" d="M76.5262,62.1684a3.7768,3.7768,0,0,1-.8138,2.3967,2.9229,2.9229,0,0,1-2.3966,1.062,3.4846,3.4846,0,0,1-2.3238-1.1348,3.7744,3.7744,0,0,1-1.0384-2.3239,3.2425,3.2425,0,0,1,.8905-2.4716A3.3846,3.3846,0,0,1,73.3158,58.63,3.12,3.12,0,0,1,75.72,59.7645,3.7767,3.7767,0,0,1,76.5262,62.1684Zm-.0678,0A2.695,2.695,0,0,0,75.4041,60.08a3.3559,3.3559,0,0,0-2.0883-.7265,3.0009,3.0009,0,0,0-2.02.7942,3.1485,3.1485,0,0,0-.97,2.0206,2.7,2.7,0,0,0,.8225,2.1684,2.8794,2.8794,0,0,0,2.1683.7258,3.7308,3.7308,0,0,0,2.0956-.7986A2.6988,2.6988,0,0,0,76.4584,62.1684Z"/></g></g></g></svg>