<svg xmlns="http://www.w3.org/2000/svg" viewBox="0 0 70.2351 63.4191"><defs><style>.cls-1{fill:#0087b9;}.cls-2{fill:#575756;}</style></defs><title>Element 17</title><g id="Ebene_2" data-name="Ebene 2"><g id="Ebene_1-2" data-name="Ebene 1"><g id="Illustrationen"><path class="cls-1" d="M43.4314,32.8679c-.0847-1.35-.1231-2.6994-.1841-4.049L43.1412,24.77c-.06-2.6993-.0807-5.3984-.0775-8.0976-.0018-2.6991.1084-5.398.1932-8.0969.1-2.6989.1606-5.3978.134-8.097l.1649.1655c-2.49.003-4.9794.0542-7.4691.1115Q32.3522.856,28.6176.8994l.4469-.445.0709,8.0976c.0139,2.6992-.0063,5.3983-.0426,8.0974l-.1771,8.0971c-.0827,2.6989-.1717,5.3979-.32,8.0967l-.1018,0c-.1363-2.6994-.2131-5.3988-.2833-8.0981l-.14-8.0977c-.024-2.6993-.0319-5.3984-.0056-8.0975L28.1722.4524,28.1782,0l.4409.0071q3.7342.0606,7.4686.17c2.4895.0658,4.9791.1255,7.4686.1369l.1674.0009-.0023.1649c-.0389,2.699.0093,5.3982.097,8.0975.0725,2.6993.1706,5.3986.1563,8.0977-.0091,2.6991-.0417,5.3981-.1144,8.0971L43.7356,28.82c-.0669,1.3494-.1114,2.6989-.2025,4.0482Z"/><path class="cls-2" d="M.6617,39.5609c.1152,1.9321.1689,3.8642.2553,5.7963l.1545,5.7964c.0614,1.9321.07,3.8643.1063,5.7965l.046,5.7965-.61-.61c5.7441-.0254,11.4885.2087,17.2328.3328q4.3081.0846,8.6163.0284c2.872-.0092,5.744-.0851,8.6161-.1516,5.744-.1688,11.4881-.258,17.2323-.3082q8.6162-.1168,17.2325-.0288l-.6786.68.0929-5.7967c.0376-1.9322.0485-3.8644.111-5.7967l.1578-5.7967c.0776-1.9323.1318-3.8645.23-5.7969h.1358c.1013,1.9321.1588,3.8643.24,5.7964L70,51.0952c.0657,1.9322.08,3.8643.1207,5.7965l.103,5.7966.0119.6717-.6906.0081q-8.6164.1011-17.2325,0c-5.7443-.04-11.4885-.12-17.2329-.279-2.8722-.0616-5.7442-.1327-8.6164-.137q-4.308-.046-8.6162.0429c-5.7441.1338-11.488.3777-17.2322.3619L0,63.3556l.0036-.608L.04,56.9511c.0326-1.9323.0383-3.8645.0962-5.7967l.1447-5.7967c.0832-1.9322.1333-3.8645.2453-5.7967Z"/><path class="cls-1" d="M43.7843,33.0211l7.7315-.0964.2544-.0032-.1505.21-4.0028,5.5823L43.595,44.282,35.48,55.3656l-.2893.3949-.2654-.4112L27.7183,44.1867c-2.3756-3.7383-4.7646-7.4678-7.1131-11.2236l-.126-.2017.2333.0049,7.5579.16-7.559.0949.1071-.1966c2.4836,3.668,4.9264,7.3624,7.383,11.0479l7.2893,11.109-.5544-.0163,8.1917-11.0272,4.1319-5.487,4.151-5.4732.1037.2066Z"/><path class="cls-2" d="M2.6745,39.5565c.1356,3.5258.206,7.0518.2649,10.5777.0414,1.763.0431,3.526.06,5.289l.0428,5.2889-.3945-.3939c5.4261-.0106,10.8524.1128,16.2785.2063q8.1393.0876,16.2784-.0809c5.426-.0791,10.8522-.1838,16.2783-.206,5.426-.0621,10.8523-.0251,16.2784-.017l-.4365.4372.13-10.5782q.0822-5.2891.245-10.5783h.0881q.1669,5.2888.2633,10.5779l.1477,10.578.0061.4359-.4427.0015c-5.4262.0172-10.8523.0634-16.2784.0105-5.4262-.013-10.8525-.1087-16.2786-.1786q-8.1393-.145-16.2784-.0533c-5.4262.1026-10.8521.2353-16.2783.2339H2.2516l.0025-.394.0339-5.2891c.0143-1.763.0129-3.526.0513-5.2891.053-3.526.1173-7.0521.2469-10.5781Z"/></g></g></g></svg>