<svg xmlns="http://www.w3.org/2000/svg" viewBox="0 0 58.6966 95.387"><defs><style>.cls-1{fill:#0087b9;}.cls-2{fill:#575756;}</style></defs><title>Element 6</title><g id="Ebene_2" data-name="Ebene 2"><g id="Ebene_1-2" data-name="Ebene 1"><g id="Illustrationen"><path class="cls-1" d="M15.9376,37.8546a3.1751,3.1751,0,0,0,1.1881,2.4365,4.1834,4.1834,0,0,0,2.4363.94,3.3632,3.3632,0,0,0,2.5093-.8671,3.1772,3.1772,0,0,0,.9637-2.5091,3.63,3.63,0,0,0-1.1114-2.3614,3.4826,3.4826,0,0,0-2.3614-.9354,3.83,3.83,0,0,0-2.4292.8676A3.1725,3.1725,0,0,0,15.9376,37.8546Zm-.0679,0a4.2543,4.2543,0,0,1,.9477-2.7447,3.599,3.599,0,0,1,2.7448-1.2754,3.8668,3.8668,0,0,1,2.8124,1.2077,3.7241,3.7241,0,0,1,1.0316,2.8125,4.2484,4.2484,0,0,1-1.1794,2.6646,3.9686,3.9686,0,0,1-2.6648,1.2761,3.3955,3.3955,0,0,1-2.7374-1.2033A4.2544,4.2544,0,0,1,15.87,37.8546Z"/><path class="cls-1" d="M20.3446,56.5758c-.537.0469-1.074.0718-1.611.1055l.14-.1393c.0763,1.5514.1289,3.1028.1424,4.6542.0339,1.5515.0324,3.1029-.0436,4.6543-.04.7852-.0391,1.53-.1164,2.3485a1.7006,1.7006,0,0,1-3.3762-.2371l-.0813-2.33c-.0626-1.5515-.0916-3.1029-.1121-4.6543-.025-1.5514-.0477-3.1028-.0308-4.6542.0387-3.1029.1124-6.2057.3239-9.3085h.0677c.2114,3.1028.2851,6.2056.3239,9.3085.0169,1.5514-.0058,3.1028-.0308,4.6542-.0206,1.5514-.05,3.1028-.1121,4.6543l-.0784,2.3245a1.4592,1.4592,0,0,0,1.3222,1.4492,1.4239,1.4239,0,0,0,1.4977-1.2522c.0076-.7282-.0526-1.5382-.0738-2.3033-.0762-1.5514-.0775-3.1028-.0436-4.6543.0133-1.5514.0661-3.1028.1424-4.6542l.0073-.1478.1321.0083c.537.0338,1.074.0587,1.611.1055Z"/><path class="cls-1" d="M15.6129,47.0492l-1.2121.0376.0714-.0714.0859,3.6345.0287,1.8173.0137.9087a6.6784,6.6784,0,0,1-.0169.95,1.4922,1.4922,0,0,1-2.9534-.2309l-.0255-3.646-.0224-3.6345c.01-.6167-.0192-1.1864.0326-1.8447a3.1475,3.1475,0,0,1,.7264-1.8269,2.88,2.88,0,0,1,1.7582-.89,13.5044,13.5044,0,0,1,1.8626-.0288l3.6306.0572,3.6324.0582a11.349,11.349,0,0,1,1.8373.0833,2.7086,2.7086,0,0,1,1.6331.8875,3.0459,3.0459,0,0,1,.6277,1.7429c.0379.6211.0156,1.2158.0262,1.825l.021,3.6345.04,3.6512A1.4759,1.4759,0,0,1,26.04,55.5071a1.5026,1.5026,0,0,1-1.56-1.1778,7.1041,7.1041,0,0,1-.0439-.9534l-.0112-.9087L24.407,50.65l-.033-3.6345.309.3089-1.1715.0066.3155-.3155.0417,9.3188-.0275,9.3189-.0263,2.34A1.88,1.88,0,0,1,22.05,69.79a1.8575,1.8575,0,0,1-1.9383-1.5588,3.7036,3.7036,0,0,1-.02-.6233l.01-.5824.019-1.1649q.0644-4.6594.19-9.3189h.0679q.119,4.6595.19,9.3189l.0192,1.1649.01.5824a3.4992,3.4992,0,0,0,.0258.5388,1.3133,1.3133,0,0,0,1.39,1.0789,1.2891,1.2891,0,0,0,1.1892-1.2532l-.021-2.32-.0275-9.3189.0418-9.3188.0014-.3175.3143.0018,1.1715.0066.3118.0017-.0026.3074-.033,3.6345-.018,1.8173-.0111.9087a7.6919,7.6919,0,0,0,.0074.8605,1.0613,1.0613,0,0,0,1.08.8588,1.0857,1.0857,0,0,0,1.0348-.9647l.0525-3.6178.021-3.6345c-.0047-.6019.0227-1.22-.0081-1.8087a2.7717,2.7717,0,0,0-.5936-1.6153,2.4746,2.4746,0,0,0-1.506-.7885,11.2145,11.2145,0,0,0-1.7891-.0561l-3.6367.0582-3.6387.0572a13.2358,13.2358,0,0,0-1.7659.0786,2.3167,2.3167,0,0,0-1.4151.7209,2.5706,2.5706,0,0,0-.5666,1.5019c-.0422.55-.0055,1.194-.0158,1.7882l-.0223,3.6345-.02,3.623a1.0175,1.0175,0,0,0,.9137.9671,1.036,1.036,0,0,0,1.1033-.8l.1637-7.2242.0017-.0737.07.0021,1.2121.0376Z"/><path class="cls-2" d="M35.5116,37.8546A3.1751,3.1751,0,0,0,36.7,40.2911a4.1834,4.1834,0,0,0,2.4363.94,3.3633,3.3633,0,0,0,2.5093-.8671,3.1764,3.1764,0,0,0,.9635-2.5091,3.6292,3.6292,0,0,0-1.1114-2.3614,3.482,3.482,0,0,0-2.3614-.9354,3.83,3.83,0,0,0-2.429.8676A3.1718,3.1718,0,0,0,35.5116,37.8546Zm-.0679,0a4.2532,4.2532,0,0,1,.9477-2.7447,3.5989,3.5989,0,0,1,2.7446-1.2754,3.8673,3.8673,0,0,1,2.8126,1.2077A3.7241,3.7241,0,0,1,42.98,37.8547a4.2484,4.2484,0,0,1-1.1794,2.6646,3.9688,3.9688,0,0,1-2.6648,1.2761,3.3953,3.3953,0,0,1-2.7374-1.2033A4.2544,4.2544,0,0,1,35.4437,37.8546Z"/><path class="cls-2" d="M39.9186,56.5758c-.537.0469-1.074.0718-1.611.1055l.1395-.1393c.0761,1.5514.1289,3.1028.1424,4.6542.0339,1.5515.0324,3.1029-.0438,4.6543-.04.7852-.0389,1.53-.1164,2.3485a1.7,1.7,0,0,1-3.376-.2371l-.0813-2.33c-.0628-1.5515-.0916-3.1029-.1121-4.6543-.025-1.5514-.0477-3.1028-.0308-4.6542.0387-3.1029.1124-6.2057.3237-9.3085h.0679c.2114,3.1028.2851,6.2056.3239,9.3085.0169,1.5514-.0058,3.1028-.031,4.6542-.02,1.5514-.0493,3.1028-.1119,4.6543l-.0784,2.3245a1.459,1.459,0,0,0,1.3222,1.4492,1.4242,1.4242,0,0,0,1.4977-1.2522c.0076-.7282-.0526-1.5382-.0738-2.3033-.0762-1.5514-.0775-3.1028-.0438-4.6543.0135-1.5514.0663-3.1028.1426-4.6542l.0071-.1478.1323.0083c.537.0338,1.074.0587,1.611.1055Z"/><path class="cls-2" d="M35.1867,47.0492l-1.212.0376.0713-.0714.086,3.6345.0288,1.8173.0137.9087a6.6784,6.6784,0,0,1-.0169.95,1.4923,1.4923,0,0,1-2.9536-.2309l-.0254-3.646-.0223-3.6345c.01-.6167-.0192-1.1864.0326-1.8447a3.1475,3.1475,0,0,1,.7264-1.8269,2.88,2.88,0,0,1,1.7582-.89,13.5039,13.5039,0,0,1,1.8626-.0288l3.63.0572,3.6324.0582a11.3469,11.3469,0,0,1,1.8373.0833A2.7086,2.7086,0,0,1,46.27,43.31a3.0459,3.0459,0,0,1,.6277,1.7429c.0378.6211.0154,1.2158.0262,1.825l.021,3.6345.04,3.6512a1.4762,1.4762,0,0,1-1.371,1.3432,1.5025,1.5025,0,0,1-1.56-1.1778,7.0888,7.0888,0,0,1-.044-.9534l-.0111-.9087L43.981,50.65l-.033-3.6345.309.3089-1.1716.0066.3156-.3155.0417,9.3188-.0275,9.3189-.0263,2.34a1.88,1.88,0,0,1-1.765,1.7973,1.8575,1.8575,0,0,1-1.9383-1.5588,3.7231,3.7231,0,0,1-.02-.6233l.0094-.5824.0192-1.1649q.0643-4.6594.19-9.3189h.0678q.1191,4.6595.19,9.3189l.0192,1.1649.0094.5824a3.51,3.51,0,0,0,.026.5388,1.3132,1.3132,0,0,0,1.39,1.0789,1.2891,1.2891,0,0,0,1.1892-1.2532l-.021-2.32-.0275-9.3189.0418-9.3188.0013-.3175.3143.0018,1.1716.0066.3118.0017-.0028.3074L44.533,50.65l-.0178,1.8173-.0111.9087a7.668,7.668,0,0,0,.0074.8605,1.0613,1.0613,0,0,0,1.08.8588,1.0857,1.0857,0,0,0,1.0348-.9647l.0525-3.6178.021-3.6345c-.0047-.6019.0225-1.22-.0081-1.8087a2.7724,2.7724,0,0,0-.5936-1.6153,2.4746,2.4746,0,0,0-1.5062-.7885,11.2112,11.2112,0,0,0-1.7889-.0561l-3.6367.0582-3.6387.0572a13.235,13.235,0,0,0-1.7659.0786,2.3167,2.3167,0,0,0-1.4151.7209,2.5692,2.5692,0,0,0-.5666,1.5019c-.0422.55-.0055,1.194-.0159,1.7882l-.0222,3.6345-.02,3.623a1.0175,1.0175,0,0,0,.9137.9671,1.0358,1.0358,0,0,0,1.1032-.8l.1636-7.2242.0017-.0737.07.0021,1.212.0376Z"/><path class="cls-2" d="M49.2624,72.3849l-11.7312.0393L25.8,72.5316l-11.7313.0915-2.9328.0125L9.67,72.6418l-.7365.0008a4.7057,4.7057,0,0,1-.7832-.0773,4.2138,4.2138,0,0,1-3.2627-3.0837,5.5015,5.5015,0,0,1-.1369-1.53c-.0026-7.8208.1133-15.6416.1629-23.4624.0035-3.91.05-7.8209.0182-11.7313-.0018-1.96-.0346-3.9-.011-5.8765a4.0979,4.0979,0,0,1,4.0619-3.78l23.4623-.1421,11.7314-.0362,2.9328-.009,1.4664-.0026.7371.0032a4.7667,4.7667,0,0,1,.7945.0825,4.2961,4.2961,0,0,1,3.3022,3.13A5.5734,5.5734,0,0,1,53.55,27.671c0,7.8208-.0265,15.6416-.1272,23.4625l-.1351,11.7312c-.03,1.957-.0056,3.9064-.0492,5.87a3.9869,3.9869,0,0,1-3.9756,3.6506Zm0-.0679a3.8968,3.8968,0,0,0,3.8645-3.5915c.02-1.9456-.0015-3.9077-.0174-5.8608l-.1352-11.7312c-.1-7.8209-.1275-15.6417-.127-23.4625a4.8626,4.8626,0,0,0-.1214-1.3662A3.5862,3.5862,0,0,0,49.9666,23.7a4.0552,4.0552,0,0,0-.6626-.0669l-.7289-.0015-1.4664-.0026-2.9328-.009-11.7314-.0361L8.9822,23.4412a3.7856,3.7856,0,0,0-3.7781,3.4625c-.04,1.9319-.027,3.9039-.0431,5.8539-.0319,3.91.0147,7.8208.0182,11.7313.05,7.8208.1658,15.6416.1631,23.4624a4.9326,4.9326,0,0,0,.1247,1.38,3.6173,3.6173,0,0,0,.5771,1.2146,3.6939,3.6939,0,0,0,2.2219,1.437,4.1154,4.1154,0,0,0,.6738.0722l.73.0054,1.4664.0062,2.9328.0125L25.8,72.17l11.7312.1074Z"/><path class="cls-1" d="M34.5742,14.2987c-.8852-1.0148-1.7449-1.9653-2.5729-2.8878-.8354-.9191-1.5989-1.8374-2.3839-2.7664l.46.0093c-1.688,1.98-3.5892,3.7733-5.3064,5.7279l-.0779-.1721c1.2793-.0046,2.5586-.0223,3.8379-.0727L28.7,14.13l.0078.183c.0975,2.2805.1392,4.561.1665,6.8415l-.3427-.3428c.88-.0164,1.76-.021,2.64-.02l-.3626.3626c.0071-1.14.0132-2.28.0473-3.4207s.0469-2.2805.1025-3.4208l.0108-.22.2022.007C32.2437,14.1376,33.3509,14.2564,34.5742,14.2987Zm.0613.0292c-1.0657.0423-2.2474.1611-3.4641.1982l.2127-.2128c.0557,1.14.07,2.2805.1027,3.4208s.04,2.2805.0472,3.4207l.0023.3623-.3651.0005c-.88.0012-1.76-.0035-2.64-.02l-.3471-.0065.004-.3365c.0273-2.28.0692-4.561.1666-6.8415l.1763.1764c-1.2793-.05-2.5586-.0682-3.8379-.0728l-.229-.0008.1512-.1714c1.7213-1.9511,3.2589-4.0641,5.01-5.9893l.2437-.2681.2166.2774c.7994,1.0238,1.62,2.0585,2.3695,3.0922Z"/><path class="cls-1" d="M24.7241,81.6624c.885,1.0147,1.7449,1.9653,2.5728,2.8877.8355.9192,1.599,1.8375,2.3841,2.7665l-.46-.0093c1.688-1.98,3.589-3.7733,5.3065-5.728l.0778.1721c-1.2793.0046-2.5586.0224-3.8379.0728l-.1686.0066-.0079-.1831c-.0974-2.2805-.1391-4.5609-.1664-6.8414l.3427.3428c-.88.0164-1.76.021-2.64.02l.3626-.3626c-.007,1.14-.0131,2.2805-.0472,3.4207s-.047,2.28-.1027,3.4207l-.0107.22-.202-.007C27.0547,81.8235,25.9474,81.7047,24.7241,81.6624Zm-.0613-.0292c1.0655-.0423,2.2475-.1611,3.4642-.1982l-.2128.2127c-.0558-1.14-.07-2.2805-.1027-3.4207s-.04-2.2805-.0473-3.4207l-.0022-.3623.365-.0005c.88-.0012,1.76.0035,2.64.02l.3471.0065-.0041.3365c-.0272,2.2805-.0691,4.5609-.1664,6.8414l-.1764-.1763c1.2793.05,2.5586.0681,3.8379.0727l.229.0009-.1512.1713c-1.7214,1.9512-3.2588,4.0641-5.0095,5.9894l-.2439.2681-.2166-.2774c-.7994-1.0239-1.62-2.0585-2.3693-3.0922Z"/><path class="cls-2" d="M.32,95.387Q-.0228,83.4637.0732,71.54c.0427-3.9745.1541-7.9489.1636-11.9234C.2715,55.6424.2233,51.668.1685,47.6935Q-.0165,35.77.0044,23.8468.02,11.9233.32,0H.3881Q.7028,11.9233.7039,23.8468.7373,35.77.54,47.6935C.485,51.668.4368,55.6424.4716,59.6169c.01,3.9745.121,7.9489.1635,11.9234Q.7116,83.4637.3881,95.387Z"/><path class="cls-2" d="M58.3085,95.387q-.3431-11.9233-.247-23.8467c.0427-3.9745.1541-7.9489.1636-11.9234.0347-3.9745-.0135-7.9489-.0683-11.9234q-.185-11.9233-.1641-23.8467Q58.0079,11.9233,58.3085,0h.0679q.3147,11.9233.3158,23.8468.0335,11.9233-.164,23.8467c-.0549,3.9745-.1031,7.9489-.0684,11.9234.01,3.9745.1211,7.9489.1636,11.9234q.0765,11.9233-.247,23.8467Z"/></g></g></g></svg>