<svg xmlns="http://www.w3.org/2000/svg" viewBox="0 0 87.8174 130.9874"><defs><style>.cls-1{fill:#575756;}.cls-2{fill:#0087b9;}</style></defs><title>Element 28</title><g id="Ebene_2" data-name="Ebene 2"><g id="Ebene_1-2" data-name="Ebene 1"><path class="cls-1" d="M70.5892,62.9084c1.486-2.3737,3.0249-4.71,4.5772-7.0371l2.3508-3.4754c.388-.5817.79-1.1537,1.1922-1.7262a17.5621,17.5621,0,0,0,1.1357-1.7147,4.8455,4.8455,0,0,0,.22-3.8807,4.817,4.817,0,0,0-4.7885-3.1231,4.4642,4.4642,0,0,0-1.9172.6624,6.352,6.352,0,0,0-2.57,3.1l-.1639.4259-.1825-.4259a6.5073,6.5073,0,0,0-2.6463-2.9718,4.2886,4.2886,0,0,0-1.8557-.5971,4.7832,4.7832,0,0,0-1.9227.3094,4.6977,4.6977,0,0,0-2.6977,2.681,4.7619,4.7619,0,0,0,.13,3.7894,17.4926,17.4926,0,0,0,1.1129,1.7186L63.7411,52.38l2.3307,3.4889,2.3046,3.5072L69.5139,61.14l.5655.8844.2828.4422.1414.2211.0707.1105.0353.0553.0177.0276.0088.0138.0045.007C70.6172,62.9038,70.6993,62.906,70.5892,62.9084Zm.0558.0385c-.1132-.0022-.0342-.0044-.0607-.0066l-.0048-.0066-.01-.0132-.0195-.0263-.0393-.0527-.0781-.1054-.1564-.2107-.3129-.4216-.6256-.8431L68.0932,59.57l-2.46-3.4028L63.2,52.7455l-1.205-1.7188a17.4217,17.4217,0,0,1-1.1726-1.796,5.3391,5.3391,0,0,1,2.9733-7.3737,5.2573,5.2573,0,0,1,2.1938-.3084,4.8532,4.8532,0,0,1,2.0847.7317,6.7771,6.7771,0,0,1,2.7165,3.3H70.444a6.935,6.935,0,0,1,2.7934-3.1711,4.6869,4.6869,0,0,1,2.0231-.6663,5.25,5.25,0,0,1,5.1557,3.1916,5.259,5.259,0,0,1-.0657,4.2665,17.5279,17.5279,0,0,1-1.15,1.8c-.3923.5792-.7841,1.1588-1.19,1.7288l-2.4138,3.4347C73.9727,58.4435,72.3355,60.7139,70.645,62.9469Z"/><path class="cls-1" d="M83.8713,119.0092a8,8,0,0,1-4.0856,1.363,8.445,8.445,0,0,1-4.26-.8061,8.1151,8.1151,0,0,1-3.2384-2.9306,10.42,10.42,0,0,1-1.3975-4.1484l.2738.2415-1.8522.01-.2843.0015-.0016-.2875-.0076-1.465-.0017-.2922.2952-.0016,1.7037-.009-.3025.3026c-.0189-.594.0432-1.2107.0621-1.8145l.2989.32-1.7622-.0076-.2932-.0012.0011-.2909.0065-1.4943.0012-.2875.2844.0017,1.9715.0125-.2693.2268a10.3756,10.3756,0,0,1,1.5471-3.8834,8.635,8.635,0,0,1,3.0846-2.7925,8.5165,8.5165,0,0,1,4.03-.9331,8.6974,8.6974,0,0,1,4.0036.9883l.0744.04-.0244.0812-.59,1.9762-.04.1341-.1242-.071a6.62,6.62,0,0,0-2.8483-.794,5.2225,5.2225,0,0,0-4.9892,2.56,8.2538,8.2538,0,0,0-.9781,2.7821l-.2149-.2594,8.3409-.0871.3043-.0031.0015.3091.0073,1.4943.0015.3117-.3146.0015-8.6087.0418.3539-.3283c-.0191.5881-.0664,1.1624-.0558,1.7671l-.359-.359,8.67.0162.3434.0007-.0005.3423-.0028,1.465-.0007.3437-.3394-.0036-8.46-.0881.2494-.2866a7.8957,7.8957,0,0,0,.93,2.9478,4.9515,4.9515,0,0,0,2.238,2.0469,6.1652,6.1652,0,0,0,3.0413.52,7.8068,7.8068,0,0,0,3.0117-.8811l.0856-.0447.0221.09Zm-.0636-.0236-.5483-1.85.1075.0452a8.0194,8.0194,0,0,1-3.058,1.0306,6.2718,6.2718,0,0,1-3.2174-.4682,5.3591,5.3591,0,0,1-2.46-2.1559,8.3543,8.3543,0,0,1-1.0566-3.1l-.0435-.2836.293-.0029,8.46-.0883-.34.34-.0026-1.465.3428.3427-8.67.0162-.3491.0006-.01-.36c-.0164-.5927.0387-1.2127.0659-1.82l.0147-.33.3393.0016,8.6087.0418-.3132.3131.0073-1.4943.3059.3058-8.3409-.087-.2676-.0028.0525-.2568a8.65,8.65,0,0,1,1.09-2.8972,5.8488,5.8488,0,0,1,1.0093-1.19,5.3085,5.3085,0,0,1,1.2842-.8879,5.9335,5.9335,0,0,1,3.029-.5324,6.8453,6.8453,0,0,1,2.9479.85l-.1641.0631.6068-1.9714.05.12a8.37,8.37,0,0,0-3.9071-.9239,7.8166,7.8166,0,0,0-3.8753.97,8.2724,8.2724,0,0,0-2.8737,2.7482,9.8841,9.8841,0,0,0-1.3731,3.7374l-.0363.2255-.2331.0015-1.9715.0125.2857-.2857.0064,1.4943-.2921-.292,1.7622-.0075.3074-.0013-.0086.3218c-.0157.592-.0614,1.17-.0546,1.7728l.0035.3043-.3062-.0016-1.7037-.009.2936-.2935-.0076,1.465-.286-.2858,1.8522.01.2448.0013.0291.24a9.911,9.911,0,0,0,1.281,3.9519,7.6681,7.6681,0,0,0,2.9852,2.8436,8.5147,8.5147,0,0,0,4.0709.9025A8.0873,8.0873,0,0,0,83.8077,118.9856Z"/><path class="cls-1" d="M8.2719,75.8038c-1.1943.13-2.387.2384-3.5484.464a7.1714,7.1714,0,0,0-3.1823,1.2469l-.359.28c-.14.1287-.04,0-.0652.0354a1.306,1.306,0,0,0,.5.4595,7.5191,7.5191,0,0,0,1.5773.7165,15.6343,15.6343,0,0,0,3.4862.7377,38.7365,38.7365,0,0,0,7.15-.1755,30.4119,30.4119,0,0,0,3.514-.5281c.5754-.1239,1.147-.2637,1.7013-.4385.2764-.0879.5481-.1838.81-.2928.1234-.0605.26-.1137.3693-.1814a1.7012,1.7012,0,0,0,.2508-.1654l-.0548.2456a2.3077,2.3077,0,0,0-.0237-.3736c-.0084-.0556-.0822-.1258-.1654-.1972a2.8536,2.8536,0,0,0-.711-.349,14.9587,14.9587,0,0,0-1.6734-.4587c-1.1446-.257-2.3115-.45-3.4764-.6692l.007-.0675a33.4353,33.4353,0,0,1,3.5526.2841,11.2573,11.2573,0,0,1,1.7737.3649,3.3787,3.3787,0,0,1,.8941.389,1.0838,1.0838,0,0,1,.4034.4664,1.7036,1.7036,0,0,1,.0841.5012l.0457.1163-.1005.1295a1.0816,1.0816,0,0,1-.24.2325,1.7042,1.7042,0,0,1-.2193.1446c-.1445.0919-.2876.1519-.4318.2262-.2883.1288-.5794.24-.8718.3407a16.8034,16.8034,0,0,1-1.78.4585,30.4317,30.4317,0,0,1-3.61.4323A48.6245,48.6245,0,0,1,6.66,79.947a28.2979,28.2979,0,0,1-3.5819-.5433,7.6294,7.6294,0,0,1-1.7482-.63,2.8155,2.8155,0,0,1-.4148-.2773A1.0861,1.0861,0,0,1,.5462,78.02a.5856.5856,0,0,1,.0286-.454A.8439.8439,0,0,1,.82,77.3086l.3475-.2764a6.8594,6.8594,0,0,1,3.4841-1.2257,19.741,19.741,0,0,1,3.6191-.0706Z"/><path class="cls-1" d="M.1814,78.1559A23.533,23.533,0,0,0,.523,81.7642a28.2842,28.2842,0,0,0,.8233,3.5138,34.7577,34.7577,0,0,0,1.2515,3.38,26.4777,26.4777,0,0,0,1.6233,3.2337l-.0392-.04A8.8177,8.8177,0,0,0,7.1738,93.073a14.4377,14.4377,0,0,0,3.2353.3788,13.0651,13.0651,0,0,0,3.2039-.3553,6.3587,6.3587,0,0,0,2.7755-1.3742l-.0383.0416a26.52,26.52,0,0,0,1.9562-3.0711,23.6182,23.6182,0,0,0,1.4657-3.3282,19.6456,19.6456,0,0,0,.8571-3.5442,14.5305,14.5305,0,0,0,.0914-3.661l.0664-.0136a12.0345,12.0345,0,0,1,.2616,3.719,16.8406,16.8406,0,0,1-.6789,3.6895,19.2975,19.2975,0,0,1-1.4231,3.4807,21.7225,21.7225,0,0,1-2.0683,3.1377l-.0191.0248-.02.017a6.6356,6.6356,0,0,1-3.1034,1.43,12.0289,12.0289,0,0,1-3.3409.1718,19.7438,19.7438,0,0,1-3.2744-.5275,11.9624,11.9624,0,0,1-3.0964-1.2037l-.0209-.0125-.0185-.0275A26.0815,26.0815,0,0,1,2.1,88.8866,18.51,18.51,0,0,1,.7931,85.439a20.2752,20.2752,0,0,1-.69-3.6187A15.6116,15.6116,0,0,1,.1139,78.15Z"/><path class="cls-1" d="M21.0514,79.67a5.4226,5.4226,0,0,1,2.3554-.4016,3.6733,3.6733,0,0,1,2.3.8831,3.2836,3.2836,0,0,1,.9644,2.2291,5.6076,5.6076,0,0,1-.4375,2.3432A8.32,8.32,0,0,1,23.1156,88.32a11.6591,11.6591,0,0,1-4.4062,1.7179l-.02-.0647A25.9774,25.9774,0,0,0,22.71,87.7214,10.82,10.82,0,0,0,25.9005,84.56a3.5231,3.5231,0,0,0,.5514-2.16,2.6774,2.6774,0,0,0-1.1111-1.8175,6.2938,6.2938,0,0,0-4.2713-.8463Z"/><path class="cls-1" d="M22.0136,81.3861a1.7611,1.7611,0,0,1,1.0647.0788,1.4066,1.4066,0,0,1,.8319.7838,1.9935,1.9935,0,0,1-.0152,1.1091c-.0739.3277-.1.6618-.1471,1.0083a2.8038,2.8038,0,0,1-1.0266,1.85,3.44,3.44,0,0,1-1.9558.6938l-.0234-.0636c.5388-.4374,1.0775-.7764,1.5164-1.1862a4.7314,4.7314,0,0,0,1.1359-1.4074,2.3,2.3,0,0,0,.2828-.926,1.2789,1.2789,0,0,0-.2718-.8254,3.4072,3.4072,0,0,0-1.3969-1.0475Z"/><path class="cls-1" d="M19.6706,62.5379c.0676.0141.0651.1685.0908.2484a2.242,2.242,0,0,1,.0253.2964,2.796,2.796,0,0,1-.0631.5931,3.6422,3.6422,0,0,1-.4586,1.1023,6.762,6.762,0,0,1-1.6426,1.7049,18.2556,18.2556,0,0,1-4.15,2.1139,5.7552,5.7552,0,0,0-3.2885,2.7994,4.5969,4.5969,0,0,0,.7042,4.2585l-.0074-.0093c.6144.6836,1.2612,1.3384,1.8919,2.0076l-.2851.248a7.89,7.89,0,0,1-1.778-3.2291,3.0474,3.0474,0,0,1,.14-1.9546,3.3162,3.3162,0,0,1,.5588-.8144,8.4231,8.4231,0,0,1,.6455-.6748,14.0217,14.0217,0,0,1,3.0449-2.0448c1.0574-.5709,2.11-1.1226,3.1449-1.7137l.022-.0125.0154-.0067a4.7924,4.7924,0,0,0,1.2785-.8159,2.83,2.83,0,0,0,.8519-1.2158,2.4176,2.4176,0,0,0-.03-1.4923,3.91,3.91,0,0,0-.3164-.7223l-.2072-.3427C19.7905,62.7718,19.7539,62.6613,19.6706,62.5379Zm-.0339-.0587c.0849.0878.2167.1887.3178.31l.2511.3258a4.1042,4.1042,0,0,1,.4113.7227,2.6048,2.6048,0,0,1,.1708,1.6866,3.2351,3.2351,0,0,1-.8753,1.4818,5.31,5.31,0,0,1-1.4.9858l.0371-.0191c-1.0131.6531-2.0614,1.2556-3.105,1.836a16.3856,16.3856,0,0,0-2.9231,1.9289,5.19,5.19,0,0,0-1.088,1.2524,2.5344,2.5344,0,0,0-.1485,1.564,8.1263,8.1263,0,0,0,1.4914,3.1027l-.2852.2481c-.5957-.7-1.1756-1.4153-1.7874-2.1012l-.0055-.006-.0023-.0035A6.5083,6.5083,0,0,1,9.79,73.6351a4.5378,4.5378,0,0,1,.0833-2.3526,4.6237,4.6237,0,0,1,1.3432-1.9745,7.44,7.44,0,0,1,2.015-1.2652c.7359-.32,1.434-.547,2.1263-.8734a11.2466,11.2466,0,0,0,1.014-.5049l.4937-.2757.4713-.3074a6.3641,6.3641,0,0,0,1.6532-1.49A2.8862,2.8862,0,0,0,19.6367,62.4792Z"/><path class="cls-1" d="M13.8383,62.8463c.0126-.0077.0591.0192.0591.0332L13.91,62.9a.39.39,0,0,1,.0238.0428l.0384.0892a.8062.8062,0,0,1,.0437.19A1.1529,1.1529,0,0,1,14,63.6109a2.0045,2.0045,0,0,1-.2909.716,4.5633,4.5633,0,0,1-1.0336,1.0968,11.016,11.016,0,0,1-2.5564,1.464l.0222-.0111a13.0951,13.0951,0,0,0-1.301.7328,4.587,4.587,0,0,0-1.1164.9736,2.1576,2.1576,0,0,0-.5058,1.3384,1.7449,1.7449,0,0,0,.5741,1.2361l-.2588.2751a.7016.7016,0,0,1-.18-.493,1.3461,1.3461,0,0,1,.06-.4281,3.2915,3.2915,0,0,1,.3285-.7245,5.0077,5.0077,0,0,1,1.0008-1.1679A13.1552,13.1552,0,0,1,11.22,66.9825a7.792,7.792,0,0,0,2.3382-1.4672,2.0607,2.0607,0,0,0,.44-1.2226A6.2863,6.2863,0,0,0,13.8383,62.8463Zm.0308.06a2.8068,2.8068,0,0,1,.1088,2.9019,3.4032,3.4032,0,0,1-1.1612,1.0484c-.4209.2567-.8384.4953-1.2551.7349a20.1591,20.1591,0,0,0-2.37,1.5559,5.3466,5.3466,0,0,0-.9387.9825,3.1155,3.1155,0,0,0-.3494.5565.9174.9174,0,0,0-.1088.4735l.2081.7936-.4671-.5185a2.1687,2.1687,0,0,1-.5489-1.5169,2.7535,2.7535,0,0,1,.5587-1.4669A6.5466,6.5466,0,0,1,8.6038,67.3a9.9563,9.9563,0,0,1,1.2574-.9247l.0224-.0113,1.2685-.6444a12.8783,12.8783,0,0,0,1.2132-.715,5.2991,5.2991,0,0,0,1.0556-.888,2.09,2.09,0,0,0,.36-.566A1.7282,1.7282,0,0,0,13.8691,62.9067Z"/><path class="cls-1" d="M53.0759,10.5272a10.7591,10.7591,0,0,1-2.8642,7.347,9.9266,9.9266,0,0,1-7.3471,3.1113,10.3257,10.3257,0,0,1-3.9669-.8818,11.01,11.01,0,0,1-3.3126-2.297,10.7807,10.7807,0,0,1-3.0835-7.2795,10.2554,10.2554,0,0,1,2.9409-7.4221A10.5492,10.5492,0,0,1,38.8347.7986,10.3041,10.3041,0,0,1,42.8646,0a10.0763,10.0763,0,0,1,7.3543,3.1728A10.7236,10.7236,0,0,1,53.0759,10.5272Zm-.0677,0A9.8634,9.8634,0,0,0,52.18,6.6688a9.9358,9.9358,0,0,0-2.2765-3.18A10.37,10.37,0,0,0,42.8646.7a10.0357,10.0357,0,0,0-9.9917,9.8277,9.6631,9.6631,0,0,0,2.8783,7.1135,9.8545,9.8545,0,0,0,7.1134,2.7829,10.5487,10.5487,0,0,0,7.046-2.85A9.6824,9.6824,0,0,0,53.0082,10.5272Z"/><path class="cls-1" d="M34.3133,10.6278c1.4167-.1534,2.8342-.2425,4.2521-.3154,1.4177-.0862,2.8363-.1189,4.2547-.15l-.33.3294c.0256-1.5626.07-3.1248.1543-4.6863l.1421-2.3419c.071-.78.1218-1.5608.2162-2.3406.0649.7828.0863,1.5647.1278,2.3471l.0535,2.3456c.025,1.5635.0109,3.1263-.0223,4.6887l-.0072.3267-.3237.0029c-1.4188.0122-2.8376.0226-4.2573-.0205C37.1537,10.784,35.734,10.738,34.3133,10.6278Z"/><path class="cls-2" d="M61.4852,93.4856l-2.713-.0007,0-.6783,2.7131.0008Zm-5.4261-.0021-2.713-.0007.0008-.6783,2.7117.0007ZM50.633,93.482,47.92,93.4813l.0009-.6783,2.713.0008ZM45.2069,93.48l-2.7124-.0007,0-.6783,2.713.0007Zm-5.4255-.0015-2.7131-.0014.0009-.6782,2.7131.0014Zm-5.4261-.0021-2.7117-.0007v-.6783l2.7118.0007ZM30.75,93.4521l-.6783.0006-.0011-2.713.6782-.0006Zm-.0023-5.426-.6783.0006-.0011-2.713.6782-.0006ZM30.7455,82.6l-.6783.0006-.0011-2.7123.6782-.0007Zm-.0024-5.4254-.6782.0007-.0012-2.713.6783-.0007Zm-.6873-3.2832.0006-.6783,2.713.0005-.0006.6783Zm5.4267.001v-.6783l2.713,0v.6783Zm5.4247,0,.0006-.6783,2.713.0005-.0006.6783Zm5.426,0,.0006-.6782,2.713,0-.0006.6783Zm5.4267.001-.0008-.6783h2.7131l.0007.6782Zm5.4246,0,.0007-.6782,2.713.0005-.0007.6782Z"/><path class="cls-2" d="M64.5234,122.6325h-.6782V119.92h.6782Zm0-5.4258h-.6782v-2.7129h.6782Zm0-5.4258h-.6782V109.068h.6782Zm0-5.4258h-.6782v-2.7129h.6782Zm0-5.4258h-.6782V98.2164h.6782Zm0-5.4258h-.6782V92.7906h.6782Z"/><path class="cls-2" d="M85.5306,73.9019H83.3561v-.6782h1.4962v-.5385h.6783Zm-4.8874,0H77.93v-.6782h2.7129Zm-5.4258,0H72.5045v-.6782h2.7129Zm-5.4258,0H67.0787v-.6782h2.7129Zm-5.4258,0H61.6529v-.6782h2.7129Zm21.1648-3.93h-.6783V67.2594h.6783Zm0-5.4258h-.6783V61.8336h.6783Zm0-5.4258h-.6783V56.4078h.6783Zm0-5.4258h-.6783V50.982h.6783Zm0-5.4258h-.6783v-2.713h.6783Zm0-5.4259h-.6783V40.13h.6783Zm0-5.4258h-.6783V34.7045h.6783Zm0-5.4258h-.6783V29.2787h.6783Zm0-5.4258h-.6783V23.8529h.6783Zm0-5.4258h-.6783V18.4271h.6783Z"/><polygon class="cls-2" points="82.664 16.769 85.207 10.19 87.817 16.742 82.664 16.769"/><path class="cls-2" d="M64.1843,130.9874a2.9073,2.9073,0,1,1,2.907-2.9076A2.91,2.91,0,0,1,64.1843,130.9874Zm0-5.1364a2.2291,2.2291,0,1,0,2.2288,2.2288A2.2317,2.2317,0,0,0,64.1843,125.851Z"/></g></g></svg>