<svg xmlns="http://www.w3.org/2000/svg" viewBox="0 0 76.6745 60.9465"><defs><style>.cls-1{fill:#0087b9;}.cls-2{fill:#575756;}.cls-3{fill:#fff;}</style></defs><title>Element 41</title><g id="Ebene_2" data-name="Ebene 2"><g id="Ebene_1-2" data-name="Ebene 1"><g id="Illustrationen"><path class="cls-1" d="M38.7891,48.0679c2.1817-3.1494,4.4447-6.2324,6.7572-9.2763q1.73-2.2866,3.4989-4.5421c.5829-.7572,1.18-1.5033,1.7764-2.25l.9-1.1158a6.5275,6.5275,0,0,0,.413-.5333,5.4579,5.4579,0,0,0,.3674-5.6119A6.7619,6.7619,0,0,0,48.2907,21.43a7.6891,7.6891,0,0,0-2.7639-.2588,7.3068,7.3068,0,0,0-2.6348.85,8.5312,8.5312,0,0,0-3.71,3.976l-.3141.7251-.3647-.7251A8.76,8.76,0,0,0,34.65,22.2942a7.212,7.212,0,0,0-2.5321-.733,7.76,7.76,0,0,0-2.6152.2729,6.5985,6.5985,0,0,0-4.0336,3.067,5.1315,5.1315,0,0,0-.1154,4.8218,5.1882,5.1882,0,0,0,.3125.551l.1745.2564.2166.2809.8782,1.1325,1.7491,2.2711,3.4608,4.5716,3.4079,4.6141,1.6818,2.3253.8357,1.1668.4136.5868.2058.2943.1029.1471.0514.0735.0257.0369.0129.0183.0065.0092C38.8437,48.0618,39,48.0649,38.7891,48.0679Zm.1064.0842c-.215-.0028-.0639-.0056-.1139-.0083l-.0074-.0084-.0149-.0168-.03-.0335-.06-.0669-.12-.134-.2391-.2679-.4762-.5377-.9439-1.0818-1.8775-2.1723-3.71-4.3809L27.645,35.02l-1.81-2.2265-.9012-1.1162-.2267-.2825c-.0821-.11-.1639-.2214-.2363-.3309a6.6039,6.6039,0,0,1-.408-.6877,6.4367,6.4367,0,0,1,.177-6.1734,7.9384,7.9384,0,0,1,4.932-3.6011,8.571,8.571,0,0,1,3.0691-.2309,8.3416,8.3416,0,0,1,2.9088.97,9.294,9.294,0,0,1,4.0321,4.3548h-.6786a9.4992,9.4992,0,0,1,4.1752-4.0823,8.2907,8.2907,0,0,1,2.8061-.8531,8.6311,8.6311,0,0,1,2.92.2449,7.784,7.784,0,0,1,4.7542,3.36,6.228,6.228,0,0,1,.3216,5.9391,6.4671,6.4671,0,0,1-.3822.6828,7.4784,7.4784,0,0,1-.4411.6175l-.88,1.133c-.59.7525-1.1793,1.5055-1.7828,2.2475q-1.7943,2.2387-3.62,4.4529C43.942,42.3912,41.4594,45.3048,38.8955,48.1521Z"/><path class="cls-2" d="M.8159,11.547,4.7226,8.34,4.768,8.303l.0669-.0015c5.4634-.1175,10.9268-.191,16.39-.25,5.4634-.0827,10.9266-.099,16.39-.1258,5.4634-.0237,10.9266-.0729,16.39-.03l8.195.0406L70.395,8.04l.1584.002.1148.0921,5.371,4.3089.1387.1113-.0023.1684c-.0492,3.5942-.0992,7.1884-.1065,10.7827-.01,3.5942-.0563,7.1885-.0367,10.7827l.0415,10.7826.1123,10.7828.0015.1408-.1009.11L72.68,59.8116l-.1214.1321-.1886.0019-16.1352.1561-16.1353.0858c-5.3783.0153-10.7568.0713-16.1352.0455L7.8286,60.2048l-.17,0-.1495-.0788Q4.0322,58.2941.5763,56.4232l-.3474-.1876.0038-.3823C.3049,48.43.3307,41.005.4521,33.617l.16-11.0653Zm.1219.0594L1.1414,22.74l.16,11.0731c.1212,7.3708.1472,14.705.2194,22.04l-.3435-.57q3.4935,1.7994,6.9706,3.6308l-.3194-.0791,16.1354-.0282c5.3784-.0258,10.7569.03,16.1352.0456l16.1353.0857,16.1352.1561-.31.1339,3.4945-3.6256-.0992.2505.1123-10.7828.0415-10.7826c.02-3.5942-.0266-7.1885-.0367-10.7827-.0073-3.5943-.0573-7.1885-.1065-10.7827l.1365.28L70.1219,8.8333l.2731.094L62.2,9.0305l-8.195.0406c-5.4634.0431-10.9266-.0061-16.39-.03-5.4634-.0268-10.9266-.043-16.39-.1257-5.4632-.0587-10.9266-.1323-16.39-.25l.1121-.0386Z"/><path class="cls-3" d="M.3947,17.3114V11.8721S-.4531,7.6467,4.6336,7.9858a39.0068,39.0068,0,0,0,7.46-.0194s-.5087,4.88-3.3911,7.3668S2.7685,18.6828.3947,17.3114Z"/><path class="cls-2" d="M2.8618,18.3A5.2031,5.2031,0,0,1,.2251,17.605l-.17-.0974V11.8718A3.8664,3.8664,0,0,1,.8179,8.8245a4.4539,4.4539,0,0,1,3.8382-1.177,39.35,39.35,0,0,0,7.3876-.0166l.4325-.0649-.045.4352c-.0212.2047-.5564,5.043-3.5071,7.589A9.6409,9.6409,0,0,1,2.8618,18.3ZM.7338,17.1109c2.1346,1.1147,4.9469.3815,7.7479-2.0347,2.2645-1.9539,3.0169-5.5059,3.2149-6.7226A45.2942,45.2942,0,0,1,4.611,8.3244a3.8488,3.8488,0,0,0-3.28.9432,3.2966,3.2966,0,0,0-.6041,2.538Z"/><path class="cls-3" d="M76.3314,50.6909l-.1143,5.631s.8356,4.3931-4.7041,3.9294a44.8081,44.8081,0,0,0-8.1357-.1451s.6572-5.0406,3.8527-7.5513S73.7717,49.2186,76.3314,50.6909Z"/><path class="cls-2" d="M72.3,60.6246q-.3914,0-.8153-.0358a45.2657,45.2657,0,0,0-8.0665-.1463l-.4339.053.0563-.4332c.0279-.2113.7134-5.2072,3.9806-7.7744,3.4283-2.6931,6.885-3.3832,9.4793-1.891l.1742.1-.1179,5.8a3.9188,3.9188,0,0,1-.8253,3.0944A4.407,4.407,0,0,1,72.3,60.6246Zm-6.255-.9657c1.322,0,3.1421.057,5.4966.2544,1.7274.1417,2.9686-.1822,3.6819-.9717a3.3033,3.3033,0,0,0,.66-2.5566l-.0066-.0344.1112-5.4616c-2.3267-1.2173-5.4271-.5206-8.5487,1.9327-2.5234,1.983-3.4176,5.6649-3.6547,6.9068C64.2174,59.6974,64.9645,59.6589,66.0448,59.6589Z"/><path class="cls-3" d="M.6125,50.4858a31.1472,31.1472,0,0,0-.2667,5.1965s.1425,3.277,4.8577,4.8281c4.8384.3505,5.7561-.3393,6.4231-.5087S10.5848,54.9851,8.72,53.3651,2.7419,49.8986.6125,50.4858Z"/><path class="cls-2" d="M7.6346,60.9465c-.6869,0-1.4956-.0285-2.4559-.098l-.0815-.0166C.2165,59.2271.0131,55.8406.0065,55.6969A25.6247,25.6247,0,0,1,.13,51.9382c.0364-.3584.0841-.8227.1451-1.4837l.0218-.2338.2259-.0622c2.332-.6445,6.5418,1.3193,8.42,2.95,1.7346,1.5075,3.4,5.7159,3.1414,6.8028a.5158.5158,0,0,1-.3742.4186c-.0921.0238-.1894.0583-.304.0987A10.0446,10.0446,0,0,1,7.6346,60.9465Zm-2.3652-.7716c4.0031.2881,5.243-.15,5.9113-.3861.0934-.0325.1768-.0623.2563-.0861a11.8153,11.8153,0,0,0-2.9394-6.0822c-1.68-1.4591-5.4921-3.2256-7.57-2.8586-.05.5364-.0908.9312-.1226,1.2451a24.9845,24.9845,0,0,0-.12,3.6667C.6907,55.79.8947,58.7191,5.2694,60.1749Z"/><path class="cls-3" d="M75.88,17.8162a23.7108,23.7108,0,0,1,.3152-5.2s-.112-3.2781-4.8125-4.8732c-4.8348-.3957-5.759.2855-6.4275.4487S65.95,13.2176,67.8,14.855,76.1074,19.8578,75.88,17.8162Z"/><path class="cls-2" d="M75.1882,18.7859c-1.9479,0-6.2543-2.4745-7.6128-3.6772-1.7207-1.5234-3.3467-5.7464-3.0778-6.8313a.5167.5167,0,0,1,.3782-.4153c.092-.0225.19-.057.3046-.096.7193-.2451,2.0566-.7028,6.2306-.361l.0814.0166c4.8662,1.6511,5.0371,5.04,5.0423,5.1833l.0007.0345-.0053.0344a23.504,23.504,0,0,0-.3126,5.1046h0a.8193.8193,0,0,1-.4265.8875A1.3149,1.3149,0,0,1,75.1882,18.7859ZM65.1427,8.492a11.8145,11.8145,0,0,0,2.8818,6.1093c1.7989,1.5916,6.5617,3.9263,7.4538,3.4627.0331-.0173.0835-.0431.0649-.21h0a23.4641,23.4641,0,0,1,.3113-5.2562c-.0251-.3365-.3623-3.0858-4.5409-4.52-3.9985-.3239-5.2443.102-5.9139.33C65.3063,8.44,65.2215,8.4681,65.1427,8.492Z"/><circle class="cls-3" cx="5.381" cy="55.4913" r="1.2424"/><path class="cls-2" d="M5.3807,57.0725a1.5813,1.5813,0,1,1,1.5816-1.5809A1.5829,1.5829,0,0,1,5.3807,57.0725Zm0-2.4844a.9031.9031,0,1,0,.9034.9035A.904.904,0,0,0,5.3807,54.5881Z"/><circle class="cls-3" cx="5.381" cy="12.0849" r="1.2424"/><path class="cls-2" d="M5.3807,13.6661a1.5813,1.5813,0,1,1,1.5816-1.581A1.5829,1.5829,0,0,1,5.3807,13.6661Zm0-2.4844a.9031.9031,0,1,0,.9034.9034A.904.904,0,0,0,5.3807,11.1817Z"/><circle class="cls-3" cx="70.4906" cy="55.4913" r="1.2424"/><path class="cls-2" d="M70.49,57.0725a1.5813,1.5813,0,1,1,1.5817-1.5809A1.5829,1.5829,0,0,1,70.49,57.0725Zm0-2.4844a.9031.9031,0,1,0,.9034.9035A.904.904,0,0,0,70.49,54.5881Z"/><circle class="cls-3" cx="71.1689" cy="12.0849" r="1.2424"/><path class="cls-2" d="M71.1686,13.6661a1.5813,1.5813,0,1,1,1.5816-1.581A1.5829,1.5829,0,0,1,71.1686,13.6661Zm0-2.4844a.9031.9031,0,1,0,.9034.9034A.904.904,0,0,0,71.1686,11.1817Z"/><path class="cls-2" d="M25.7452,7.621A10.54,10.54,0,0,1,26.6482,3.4a6.7582,6.7582,0,0,1,1.279-1.8572A5.0477,5.0477,0,0,1,31.0961.13c.4014-.05.7238-.0277,1.09-.0451L34.319.0374,38.5861,0l4.2662.0357,2.1319.048L46.05.109l.5494.0223a3.2925,3.2925,0,0,1,.6324.147A5.8779,5.8779,0,0,1,50.554,3.2966a10.2968,10.2968,0,0,1,1.02,4.1963,12.2991,12.2991,0,0,0-1.5952-3.86,5.3426,5.3426,0,0,0-3.037-2.3363,2.4583,2.4583,0,0,0-.4093-.0688l-.5156.0189-1.0649.0254L42.823,1.32l-4.2563.0357-4.2553-.0374L32.1837,1.27c-.3438-.0009-.7341-.0316-1.04-.008a3.6623,3.6623,0,0,0-.9347.1042,4.8,4.8,0,0,0-2.9775,2.3468A12.6657,12.6657,0,0,0,25.7452,7.621Z"/><path class="cls-2" d="M29.6819,7.2632a4.4187,4.4187,0,0,1,.8221-2.6853,3.5228,3.5228,0,0,1,2.6687-1.3551c1.8224-.1112,3.6353-.1379,5.4534-.1521,1.8168.0119,3.6337.0408,5.4507.1486l.3406.02a2.2317,2.2317,0,0,1,.4189.0565,2.9746,2.9746,0,0,1,.742.2622,3.5413,3.5413,0,0,1,1.1819.954,4.4349,4.4349,0,0,1,.8773,2.6708A5.0775,5.0775,0,0,0,46.2759,4.969,2.8232,2.8232,0,0,0,45.239,4.38a2.792,2.792,0,0,0-.563-.1182,1.2173,1.2173,0,0,0-.2586-.0034l-.3406.02c-1.817.1079-3.6339.1368-5.4507.1486-1.8156-.0128-3.6366-.0438-5.4478-.1491a2.9007,2.9007,0,0,0-2.1807.7425A5.0545,5.0545,0,0,0,29.6819,7.2632Z"/></g></g></g></svg>