<svg xmlns="http://www.w3.org/2000/svg" viewBox="0 0 83.5256 102.7128"><defs><style>.cls-1{fill:#0087b9;}.cls-2{fill:#575756;}</style></defs><title>Element 38</title><g id="Ebene_2" data-name="Ebene 2"><g id="Ebene_1-2" data-name="Ebene 1"><g id="Illustrationen"><path class="cls-1" d="M54.9869,37.8529a12.5588,12.5588,0,0,1-3.4023,8.6463,11.7648,11.7648,0,0,1-8.6464,3.65,12.1728,12.1728,0,0,1-4.67-1.0218,12.85,12.85,0,0,1-3.9088-2.6952,12.62,12.62,0,0,1-3.6217-8.5789,12.0956,12.0956,0,0,1,3.479-8.7213,12.3922,12.3922,0,0,1,3.9884-2.7048,12.1521,12.1521,0,0,1,4.733-.9385,11.9163,11.9163,0,0,1,8.6537,3.7109A12.5629,12.5629,0,0,1,54.9869,37.8529Zm-.0678,0a11.4917,11.4917,0,0,0-3.643-8.3381,12.21,12.21,0,0,0-8.3381-3.3271A11.8731,11.8731,0,0,0,31.1088,37.8529a11.5032,11.5032,0,0,0,3.4165,8.4129,11.6973,11.6973,0,0,0,8.4129,3.3211,12.3856,12.3856,0,0,0,8.3453-3.3887,11.8522,11.8522,0,0,0,2.6724-3.7816A11.6945,11.6945,0,0,0,54.9191,37.8529Z"/><path class="cls-1" d="M69.0692,92.4723c-.2288-5.6772-.298-11.3542-.247-17.0313.0425-2.8386.154-5.6771.1636-8.5157a37.0588,37.0588,0,0,0-.0966-4.2416,9.9611,9.9611,0,0,0-1.2463-3.9714,7.0949,7.0949,0,0,0-2.98-2.7689,10.6324,10.6324,0,0,0-3.98-1.0355c-1.3778-.1-2.8058-.0228-4.2212-.0231l-4.2591-.0036q-8.5182-.0151-17.0361-.3158v-.0678q8.5152-.3148,17.0263-.3157l4.2566-.0038c1.4219.024,2.8373-.0328,4.29.0943a10.7431,10.7431,0,0,1,4.175,1.1953,7.35,7.35,0,0,1,3.0516,3.0614,10.973,10.973,0,0,1,1.16,4.13c.133,1.4286.0577,2.8486.0941,4.2667.0094,2.8386.1209,5.6771.1634,8.5157.051,5.6771-.0182,11.3541-.247,17.0313Z"/><path class="cls-1" d="M56.8314,101.0816c-.1156-2.6365-.1641-5.273-.2159-7.9094-.0158-2.6365-.0706-5.2729-.0444-7.9094,0-2.6364.09-5.2729.14-7.9093s.06-5.2729.0313-7.9094l-.0013-.1218.1245-.0013c1.3268-.0142,2.6538-.0479,3.9806-.0746l.1923-.0039.0056.2016c.104,3.838.1233,7.6761.1566,11.5141l-.0109,5.757c.0017,1.919-.0508,3.838-.0735,5.757l-.27-.27c1.3761.015,2.7523.0641,4.1284.0945s2.7525.0954,4.1287.1415v.0678c-1.3762.0461-2.7525.1107-4.1287.1415s-2.7523.0794-4.1284.0945l-.2668.0029-.0031-.2729c-.0229-1.919-.0752-3.838-.0735-5.757l-.011-5.757c.0332-3.838.0525-7.6761.1567-11.5141l.1975.1976c-1.3268-.0267-2.6538-.06-3.9806-.0746l.123-.123q-.0425,3.9548.0313,7.9094c.05,2.6364.14,5.2729.14,7.9093.0262,2.6365-.0288,5.2729-.0444,7.9094-.0518,2.6364-.1,5.2729-.2159,7.9094Z"/><path class="cls-1" d="M17.4135,92.67c-.2287-5.2832-.298-10.5666-.247-15.85.0426-2.6416.1541-5.2832.1635-7.9249.0222-1.3208.01-2.6416-.0018-3.9624a19.3933,19.3933,0,0,1,.3033-3.9771,8.9361,8.9361,0,0,1,1.5833-3.7066,6.8,6.8,0,0,1,3.3209-2.3508,11.8414,11.8414,0,0,1,4.0153-.5294l3.9658.0106c5.2811.01,10.5606.1059,15.8436.3157v.0678c-5.2834.21-10.57.3057-15.856.3158-1.32-.0011-2.6458.0221-3.9589-.003a11.1747,11.1747,0,0,0-3.8077.4276,6.41,6.41,0,0,0-3.1012,2.08,8.85,8.85,0,0,0-1.6428,3.4542,16.6534,16.6534,0,0,0-.4271,3.8954c-.0113,1.3208-.0241,2.6416-.0019,3.9624.0095,2.6417.121,5.2833.1636,7.9249.051,5.2832-.0183,10.5666-.247,15.85Z"/><path class="cls-1" d="M29.2261,102.7128c-.1155-2.6364-.1641-5.2729-.2159-7.9093-.0156-2.6365-.0705-5.2729-.0444-7.9093,0-2.6365.09-5.273.14-7.9094s.06-5.2729.0313-7.9094l.123.123c-1.2622.0131-2.5246.0466-3.7869.0716l.1946-.1946c.1071,3.838.1262,7.6761.16,11.514l-.0121,5.7571c-.003,1.919-.053,3.838-.0772,5.757l-.0033.2708-.2624-.005q-3.9277-.0751-7.8553-.2318V94.07q3.9277-.16,7.8553-.2319l-.2658.2657c-.0242-1.919-.074-3.838-.077-5.757l-.0121-5.7571c.0341-3.8379.0532-7.676.16-11.514l.0057-.1985.1892.0037c1.2623.0252,2.5247.0585,3.7869.0717l.1245.0013-.0013.1218q-.0424,3.9547.0313,7.9094c.05,2.6364.14,5.2729.14,7.9094.0262,2.6364-.0286,5.2728-.0443,7.9093-.0519,2.6364-.1,5.2729-.2159,7.9093Z"/><path class="cls-2" d="M76.537,40.32c.9677-1.6218,1.9882-3.2064,3.0222-4.7816l3.1393-4.6512a3.1959,3.1959,0,0,0,.1737-2.551,3.1753,3.1753,0,0,0-3.1656-2.0926,2.9722,2.9722,0,0,0-1.2742.4455,4.1852,4.1852,0,0,0-1.6944,2.077l-.1578.421-.1884-.421c-.7234-1.616-2.5932-2.8658-4.2348-2.12a3.0545,3.0545,0,0,0-1.7465,1.7513,3.0968,3.0968,0,0,0,.0935,2.4546A11.6879,11.6879,0,0,0,71.2369,32l.7847,1.1749,1.5531,2.361,1.527,2.38.749,1.2.371.6025.1857.3012.0927.1506.0463.0753.0232.0377.0116.0188.0058.0094.003.0047C76.566,40.3169,76.6476,40.3185,76.537,40.32Zm.0558.0385c-.1126-.0015-.0331-.0029-.0591-.0043L76.53,40.35l-.0066-.0088-.0136-.0176-.0268-.0351-.054-.07-.1078-.14-.2156-.2807-.4313-.5612-.8557-1.1272-1.6825-2.2751L71.48,33.54l-.82-1.1525a11.6138,11.6138,0,0,1-.8068-1.22,3.711,3.711,0,0,1,2.08-5.1195,3.6189,3.6189,0,0,1,1.522-.2077,3.3584,3.3584,0,0,1,1.4415.5149A4.6077,4.6077,0,0,1,76.738,28.632h-.3462A4.7664,4.7664,0,0,1,78.31,26.4845a3.1937,3.1937,0,0,1,1.38-.45,3.6077,3.6077,0,0,1,3.5327,2.1609,3.6089,3.6089,0,0,1-.0188,2.937c-1.0121,1.6808-2.127,3.1379-3.2145,4.6981C78.8838,37.3588,77.7648,38.8773,76.5928,40.3585Z"/><path class="cls-2" d="M19.4294,8.3206a15.3977,15.3977,0,0,0,1.4672-1.47c.4483-.5149.8817-1.0432,1.3112-1.5819a14.4685,14.4685,0,0,1,1.387-1.5664,3.7166,3.7166,0,0,1,1.9291-1.0634l.0184-.0028.0268.001a3.38,3.38,0,0,1,1.7437.61c.2514.1631.4865.3418.7125.5156.113.0858.2249.174.3319.2466a1.0211,1.0211,0,0,0,.2475.1393l.0224.0027a.0372.0372,0,0,0-.0426.003c-.002-.0054-.0058-.0006,0-.0006a.6823.6823,0,0,0,.0876-.0857L28.9,3.7916a3.0245,3.0245,0,0,1,.5792-.55,2.7986,2.7986,0,0,1,1.4912-.4951,3.538,3.538,0,0,1,1.5192.1989,4.8378,4.8378,0,0,1,1.2944.7755,16.6183,16.6183,0,0,1,2.0678,2.1287l.94,1.1382c.1573.1875.3148.3748.4769.5524.0815.0875.1639.1743.2479.25a.86.86,0,0,0,.1836.1336l.1538.2975a34.3034,34.3034,0,0,1-2.1608,2.9337,20.8052,20.8052,0,0,1-2.5405,2.6548,4.9181,4.9181,0,0,1-.7943.5628,3.4454,3.4454,0,0,1-.9531.3128,11.6075,11.6075,0,0,1-1.8582.1839,11.5006,11.5006,0,0,1-3.6983-.4346l.0437.0111a4.2994,4.2994,0,0,1-2.02-1.1811,18.9177,18.9177,0,0,1-1.5046-1.642c-.4724-.5624-.9472-1.1177-1.43-1.6669C20.4662,9.407,19.946,8.8689,19.4294,8.3206Zm.0678.0037c.5665.4409,1.1025.9215,1.6473,1.4316.532.51,1.042,1.0418,1.553,1.5676.5138.5222,1.0137,1.0557,1.5506,1.5223a3.7155,3.7155,0,0,0,1.7616.9548l.0106.0018.0334.0094a12.1234,12.1234,0,0,0,3.4738.3319,11.7486,11.7486,0,0,0,1.7431-.1619,2.7739,2.7739,0,0,0,.7676-.2262,4.2915,4.2915,0,0,0,.69-.4686A23.0087,23.0087,0,0,0,35.26,10.7831c.7958-.8951,1.5563-1.8255,2.2867-2.78L37.7,8.3a.7232.7232,0,0,1-.429-.2524c-.0939-.0942-.1755-.1907-.2563-.2875-.159-.1944-.3072-.3917-.4552-.589-.2929-.3963-.5847-.79-.8931-1.17A11.9065,11.9065,0,0,0,33.64,3.9044,4.4233,4.4233,0,0,0,32.397,3.206a3.2149,3.2149,0,0,0-1.39-.0851,2.3876,2.3876,0,0,0-1.2412.4981,2.5342,2.5342,0,0,0-.4539.4937c-.07.0964-.1336.1937-.2214.3065a1.1743,1.1743,0,0,1-.1677.1789.9741.9741,0,0,1-.1614.0884.6873.6873,0,0,1-.2251.02l.0222.0027a1.1944,1.1944,0,0,1-.52-.2254c-.131-.0854-.2451-.1722-.3615-.2568-.23-.17-.4542-.332-.6851-.4751a3.2,3.2,0,0,0-1.4452-.533l.045-.0018a3.1943,3.1943,0,0,0-1.64.8754c-.4916.4464-.952.9523-1.4171,1.4572s-.925,1.0247-1.43,1.5017A9.2424,9.2424,0,0,1,19.4972,8.3243Z"/><path class="cls-2" d="M21.9854,8.71c.3094-.18.5492-.2752.8111-.4317l.7626-.4521a11.714,11.714,0,0,1,1.6091-.8288c.14-.0577.2893-.1089.438-.1613a1.8227,1.8227,0,0,1,.528-.0622,2.994,2.994,0,0,1,.9539.2213,4.8537,4.8537,0,0,0,1.5976.4538,6.8541,6.8541,0,0,0,1.6891-.2651,3.4044,3.4044,0,0,1,1.832.0426c.579.1818,1.1231.4256,1.6712.6523a8.068,8.068,0,0,0,.8236.3128,2.8386,2.8386,0,0,0,.41.1037,1.3252,1.3252,0,0,0,.1917.0188l.0774-.01.07-.01a.1977.1977,0,0,1,.0843.0039.3035.3035,0,0,1,.0618.0209.2161.2161,0,0,1,.0993.181.2451.2451,0,0,1-.049.1308l-.0326.0375a.6229.6229,0,0,1-.0558.0533l-.0987.08-.1912.1354c-.1275.0862-.2564.1658-.386.2444-.2586.1573-.5234.3019-.7935.4359a12.6386,12.6386,0,0,1-1.6717.7111,8.0526,8.0526,0,0,1-.8935.25c-.3172.07-.6227.0916-.9067.133-.5845.0762-1.1707.1537-1.7782.2065a6.0628,6.0628,0,0,1-1.8648-.114,16.5616,16.5616,0,0,1-1.7427-.489A15.7,15.7,0,0,1,21.9854,8.71Zm.0676.0049c1.0761.3534,2.2115.8184,3.3338,1.0939a15.9835,15.9835,0,0,0,1.7134.3547,6.0819,6.0819,0,0,0,1.679.0344l1.7595-.1881c.3045-.0317.5936-.0412.8582-.0908a7.4407,7.4407,0,0,0,.8279-.1982A17.25,17.25,0,0,0,33.8634,9.13l.8006-.3553.389-.1934.1839-.1036.08-.052.0278-.02.006-.0025c-.0163.0248-.02.0239-.026.082a.1675.1675,0,0,0,.0877.1561.1005.1005,0,0,0,.0343.0162c.0356.0057.0382.0013.0291.0033l-.0407.0014-.1445.0039a1.6228,1.6228,0,0,1-.2481-.0458,3.15,3.15,0,0,1-.4408-.1536l-.82-.369a10.3936,10.3936,0,0,0-1.6351-.659,2.6988,2.6988,0,0,0-1.6752.111,6.7527,6.7527,0,0,1-1.7827.4645,4.227,4.227,0,0,1-1.8161-.4577,2.4454,2.4454,0,0,0-.7648-.2064,1.4028,1.4028,0,0,0-.355.0188c-.1333.039-.2676.0757-.4049.1231a14.8277,14.8277,0,0,0-1.6255.6509c-.2686.1256-.5468.24-.8287.345A3.02,3.02,0,0,1,22.053,8.7153Z"/><path class="cls-2" d="M1.28,36.0642l1.066-3.1269c.1727-.5216.3331-1.0469.4863-1.5715a8.236,8.236,0,0,0,.3327-1.5685l.0028-.0386.0108-.0234a.8133.8133,0,0,1,.9943-.3982,1.1827,1.1827,0,0,1,.7345.7193A4.2473,4.2473,0,0,1,5.1384,31.89a5.4768,5.4768,0,0,1-.51,1.752c-.1269.273-.2683.5361-.4084.7926l-.2.3755c-.0238.0564-.0581.1215-.0726.1691l-.0221.0683c.0048.0046.0048.0019-.003.0047l-.0058-.0252a.1891.1891,0,0,1,.037.0765c.0256-.004.0145.0194.0421.0214a.4942.4942,0,0,0,.2231-.0119,2.54,2.54,0,0,0,.6307-.287,8.6413,8.6413,0,0,0,1.2013-.9116A7.3772,7.3772,0,0,0,6.587,33.39c.144-.17.3394-.4059.5082-.5893l1.0577-1.16c.7117-.7667,1.4237-1.5311,2.17-2.2724.19-.1835.3779-.3658.5824-.5444a2.9732,2.9732,0,0,1,.7023-.4776,1.4372,1.4372,0,0,1,.92-.1567.6621.6621,0,0,1,.4454.3717,1.112,1.112,0,0,1,.0727.492l-.0057-.0627a1.0227,1.0227,0,0,1-.1258.5618,4.162,4.162,0,0,1-.2418.3923,8.602,8.602,0,0,1-.5427.7018c-.3773.448-.7722.8749-1.1741,1.294l-1.218,1.24c-.2.2063-.4094.4148-.5926.62-.1718.1756-.1705.4806.0158.5134.1957.0442.4286-.16.6144-.3628.2079-.2107.4189-.4064.6324-.6043.4269-.3933.8657-.772,1.3021-1.154.4386-.3793.8845-.7506,1.3449-1.1059a7.9,7.9,0,0,1,1.4809-.9594l-.0082.0036a1.6242,1.6242,0,0,1,.5379-.1652.5923.5923,0,0,1,.57.25,1.0062,1.0062,0,0,1,.132.5767.91.91,0,0,1-.198.5543,12.6728,12.6728,0,0,1-1.4571,1.5248L12.567,34.27c-.5086.4609-1.0545.9219-1.5043,1.3932l-.006.0063-.0187.0173a.7683.7683,0,0,0-.1581.1809c-.0094.0231-.0124.04-.0089.0264-.0015-.0106-.0143-.0467-.021-.0459a.327.327,0,0,0,.1327,0,.7613.7613,0,0,0,.224-.0874l.004-.0022.0257-.0124a6.799,6.799,0,0,0,.9226-.59c.3068-.2228.61-.4543.91-.6912.5961-.4723,1.1995-.9643,1.7554-1.46l.0172-.0153.0143-.01a2.4911,2.4911,0,0,1,.9062-.4111,1.0983,1.0983,0,0,1,.6056.0275.6725.6725,0,0,1,.4235.6354l-.0008-.0226A2.6236,2.6236,0,0,1,15.9,35.0924a9.2305,9.2305,0,0,1-1.5126,1.22c-.534.3508-1.0776.6646-1.6126.9835l-.7882.4816c-.128.0817-.2508.166-.3673.25a1.7309,1.7309,0,0,0-.2416.206l.0288-.0644c-.01.0578.01-.0177-.0457-.07-.0452-.0309-.0013.0031.0671-.0006a1.5366,1.5366,0,0,0,.5058-.1067l.0123-.0045.0523-.0128c.7629-.1865,1.6343-.5057,2.4508-.7758.4261-.1406.8055-.282,1.282-.4173a.9529.9529,0,0,1,.9453.2536.8865.8865,0,0,1,.09,1.0041,1.6172,1.6172,0,0,1-.587.5736c-.1983.1306-.3955.2383-.5938.3465-.3959.2122-.7969.4013-1.2.5826-.8067.362-1.62.6985-2.44,1.0212l.0573-.0308c-1.0545.6734-2.12,1.2469-3.1993,1.8317a28.336,28.336,0,0,1-3.3146,1.57,5.4441,5.4441,0,0,0-1.383,1.0829,4.6775,4.6775,0,0,1-.3528.3291.26.26,0,0,1-.2655.011.7923.7923,0,0,1-.1232-.0691A2.2074,2.2074,0,0,1,3.169,45.14c-.2413-.2038-.4581-.42-.6745-.6379C1.6356,43.6273.8321,42.71,0,41.8192l.0481-.0478c.8785.8477,1.73,1.7234,2.6249,2.5446.2239.2035.451.4067.6854.5845.0583.0445.1172.0866.1741.1218a.5137.5137,0,0,0,.0771.04c.033.0178.0145-.0137-.0488.0242.09-.077.2006-.2.3031-.3074A5.7615,5.7615,0,0,1,5.31,43.571,31.1183,31.1183,0,0,0,8.551,41.9038c1.0523-.6,2.1224-1.209,3.11-1.87l.0271-.0182.03-.0127c.8043-.3374,1.6036-.6888,2.3881-1.0617.3913-.1877.78-.38,1.1565-.5817a2.6576,2.6576,0,0,0,.8947-.6393c.0846-.2134.0164-.3089-.2679-.2637-.3654.1063-.81.2673-1.2148.4043-.8463.2806-1.619.5837-2.5586.8158l.0645-.0172a2.1929,2.1929,0,0,1-.7693.1541.8.8,0,0,1-.5429-.1933.5788.5788,0,0,1-.18-.3651.7559.7559,0,0,1,.0367-.3131l.0111-.0382.0178-.0264a1.67,1.67,0,0,1,.4389-.4305c.1369-.0989.2737-.188.41-.273l.816-.4852c.5414-.3137,1.0834-.6183,1.5973-.9471a8.594,8.594,0,0,0,1.4129-1.1086,2.0445,2.0445,0,0,0,.7282-1.3771l-.0008-.0229c-.0165-.07.012-.0264-.0186-.0491a.5214.5214,0,0,0-.2552-.0008,1.894,1.894,0,0,0-.6752.3017l.0313-.025c-.6006.52-1.2039.9842-1.8231,1.4557-.309.2335-.6224.4622-.943.6848a6.9818,6.9818,0,0,1-1.0366.6246l.0295-.0145a1.2609,1.2609,0,0,1-.4.1426.68.68,0,0,1-.5114-.1.4317.4317,0,0,1-.1775-.3263.5484.5484,0,0,1,.0728-.2929,1.2048,1.2048,0,0,1,.2838-.3166l-.0246.0234c.5249-.5151,1.0576-.9292,1.59-1.3824.5318-.4442,1.0629-.8876,1.5809-1.3437A12.5672,12.5672,0,0,0,15.3335,31.18a.6009.6009,0,0,0,.1595-.3973.759.759,0,0,0-.0759-.4249c-.1244-.2286-.498-.1443-.7832-.0053l-.0084.0037a7.7859,7.7859,0,0,0-1.4326.9118c-.4592.3467-.9066.7113-1.3468,1.0842-.4422.3707-.8679.7612-1.2879,1.156-.2081.1981-.4183.3991-.614.6031-.1942.1932-.4262.4965-.8373.4413a.4459.4459,0,0,1-.34-.4345.7273.7273,0,0,1,.181-.4807c.1982-.2292.397-.431.5966-.6431l1.1723-1.2755c.384-.43.76-.8664,1.1124-1.3161a8.2047,8.2047,0,0,0,.495-.6881,3.7131,3.7131,0,0,0,.2021-.3524l.0616-.1666c.0245-.0611-.003-.0668.0176-.1032L12.6,29.03a.6909.6909,0,0,0-.0438-.2751.1871.1871,0,0,0-.1407-.1055,1.017,1.017,0,0,0-.586.1447,4.8061,4.8061,0,0,0-1.1148.9642c-.7213.7425-1.4279,1.5094-2.1264,2.2807L7.55,33.203a9.4657,9.4657,0,0,1-1.1052,1.1563,9.1982,9.1982,0,0,1-1.3029.96,3.0321,3.0321,0,0,1-.7961.342.98.98,0,0,1-.5471-.0152.8129.8129,0,0,1-.2771-.1956,1.8761,1.8761,0,0,1-.1355-.2741l-.005-.0122L3.38,35.1507a1.1012,1.1012,0,0,1,.007-.2136l.0435-.14c.0314-.09.0677-.1541.102-.2311l.2159-.3934c.1426-.253.28-.5019.4026-.7558a5.082,5.082,0,0,0,.4882-1.5814,3.823,3.823,0,0,0-.1443-1.6126.7569.7569,0,0,0-.4445-.4876.4294.4294,0,0,0-.5113.1443l.0136-.0618a8.4223,8.4223,0,0,1-.4008,1.6459c-.17.5281-.3674,1.0446-.5648,1.56-.3975,1.03-.826,2.0453-1.2427,3.0633Z"/><path class="cls-2" d="M56.1838,6.2736a1.14,1.14,0,0,1-.6251-.3907,2.3521,2.3521,0,0,1-.4078-.656,3.18,3.18,0,0,1-.2726-1.5216,2.4922,2.4922,0,0,1,.585-1.4792,2.3718,2.3718,0,0,1,1.4456-.7274,3.8759,3.8759,0,0,1,.7954-.02l.391.0369.0978.0094.0489.0048c.04.0091-.0091-.0153-.0646-.0045-.0556.0128-.0853.05-.0672.03l.0134-.0154a.5461.5461,0,0,0,.0455-.0534A3.3169,3.3169,0,0,1,59.3775.4316a2.7058,2.7058,0,0,1,1.64-.1592A5.3624,5.3624,0,0,1,62.4887.85L62.16.8841A3.5816,3.5816,0,0,1,65.5134.1522a2.757,2.757,0,0,1,1.3981,1.05,4.6855,4.6855,0,0,1,.6592,1.579l-.155-.0927a2.6212,2.6212,0,0,1,1.96.2721,3.3008,3.3008,0,0,1,1.3781,1.418A2.67,2.67,0,0,1,70.96,6.361a2.9313,2.9313,0,0,1-1.2983,1.5529l.1051-.1744a3.5511,3.5511,0,0,1-.8648,2.4064,2.7079,2.7079,0,0,1-1.1266.73,3.418,3.418,0,0,1-1.3194.1567l.2966-.1572c-.19.3012.1137.7626.5447,1.0142a1.8666,1.8666,0,0,0,.3342.1635,1.5572,1.5572,0,0,0,.1753.0551l.1044.0276a.5373.5373,0,0,1,.2409.118.4655.4655,0,0,1,.0627.0712.2915.2915,0,0,1,.0538.1235.3908.3908,0,0,1-.0112.2047.31.31,0,0,1-.0522.0952.4211.4211,0,0,1-.1748.1388.8845.8845,0,0,1-.1693.0567,2.0163,2.0163,0,0,1-.2612.0436,3.8176,3.8176,0,0,1-.4812.0174,4.1425,4.1425,0,0,1-1.836-.45,2.7875,2.7875,0,0,1-1.3247-1.4375l.5441.1434a2.6455,2.6455,0,0,1-1.4531.5446,3.3579,3.3579,0,0,1-1.4917-.2391,3.26,3.26,0,0,1-1.2229-.8793,2.81,2.81,0,0,1-.6419-1.37l.5113.1213a2.6,2.6,0,0,1-1.757,1.029,2.4853,2.4853,0,0,1-1.8845-.6632,2.6219,2.6219,0,0,1-.8749-1.7345A2.7848,2.7848,0,0,1,56.1838,6.2736Zm.0626-.0263a2.9166,2.9166,0,0,0-.3223,1.7917,2.4479,2.4479,0,0,0,.8819,1.4762,2.05,2.05,0,0,0,1.5838.46,2.0979,2.0979,0,0,0,1.3552-.88l.3854-.5254.126.6468a2.3811,2.3811,0,0,0,1.5516,1.72,2.3108,2.3108,0,0,0,2.2563-.2226l.3688-.299.1757.4425a2.0732,2.0732,0,0,0,1.0059,1.0642,3.819,3.819,0,0,0,1.527.3878,3.1756,3.1756,0,0,0,.3914-.0052,1.3849,1.3849,0,0,0,.17-.0237c.0245-.0038.0435-.0122.0386-.0086-.0146.0132-.0025-.014-.086.078a.3737.3737,0,0,0-.0369.0739.2952.2952,0,0,0-.0114.1774.42.42,0,0,0,.0429.1007.24.24,0,0,0,.0433.052c.0893.0669.0552.0314.0414.0348l-.1063-.0306a2.22,2.22,0,0,1-.2392-.0811,2.5244,2.5244,0,0,1-.4443-.2295,2.0974,2.0974,0,0,1-.7143-.735,1.1575,1.1575,0,0,1-.02-1.1411l.1056-.1752.1913.0178a2.4252,2.4252,0,0,0,2.0055-.6395,3.1959,3.1959,0,0,0,.839-2.0466l.0073-.12.098-.0543a2.53,2.53,0,0,0,1.2061-1.2917,2.2608,2.2608,0,0,0-.1247-1.7763,3.079,3.079,0,0,0-1.26-1.3441,2.3747,2.3747,0,0,0-1.7962-.2116l-.1217.0365-.0335-.1293a3.77,3.77,0,0,0-.6713-1.4415A2.3847,2.3847,0,0,0,65.3908.5562a3.2546,3.2546,0,0,0-2.8533.7655L62.387,1.45l-.1783-.0943A3.1462,3.1462,0,0,0,59.6143.9614a2.7787,2.7787,0,0,0-1.03.8775.9184.9184,0,0,1-.0785.0858l-.0533.05a.335.335,0,0,1-.1461.0758.4113.4113,0,0,1-.1541.0116l-.0439-.0051-.088-.01-.3516-.0417a3.37,3.37,0,0,0-.6942,0,1.95,1.95,0,0,0-1.2.5166A2.1063,2.1063,0,0,0,55.22,3.738a3.136,3.136,0,0,0,.1367,1.409A1.7023,1.7023,0,0,0,56.2464,6.2473Z"/></g></g></g></svg>