<svg xmlns="http://www.w3.org/2000/svg" viewBox="0 0 106.5179 60.2078"><defs><style>.cls-1{fill:#575756;}.cls-2{font-size:4.0693px;}.cls-2,.cls-3,.cls-5{fill:#0087b9;}.cls-2,.cls-3{font-family:DBOffice-Regular, DB Office;}.cls-3{font-size:2.0347px;letter-spacing:-0.0341em;}.cls-4{fill:#fff;}</style></defs><title>Element 24</title><g id="Ebene_2" data-name="Ebene 2"><g id="Ebene_1-2" data-name="Ebene 1"><g id="Illustrationen"><path class="cls-1" d="M64.4883,30.1038a13.5976,13.5976,0,0,1-.365,3.25l-.118-.0291a13.5135,13.5135,0,0,0,.4151-3.2212Z"/><path class="cls-1" d="M63.0116,36.439A13.7676,13.7676,0,0,1,61.2,39.1908l-.2891-.2565A13.3032,13.3032,0,0,0,62.8048,36.33Z"/><path class="cls-1" d="M58.769,41.438a13.7558,13.7558,0,0,1-2.9255,1.577l-.2114-.5576A13.1938,13.1938,0,0,0,58.47,41.0052Z"/><polygon class="cls-1" points="52.611 43.801 50.947 43.891 49.288 43.767 49.349 43.259 50.947 43.329 52.542 43.225 52.611 43.801"/><path class="cls-1" d="M46.0851,42.9185a13.64,13.64,0,0,1-2.89-1.5882l.1543-.223a13.3121,13.3121,0,0,0,2.8747,1.444Z"/><path class="cls-1" d="M40.7535,39.1324a14.7968,14.7968,0,0,1-1.8673-2.6993l.1992-.1047A12.4538,12.4538,0,0,0,40.92,38.9847Z"/><path class="cls-1" d="M37.6982,33.3691a13.7236,13.7236,0,0,1-.4421-3.2653h.3714a13.3958,13.3958,0,0,0,.3363,3.2Z"/><path class="cls-1" d="M37.5968,26.81a13.39,13.39,0,0,1,1.1406-3.1191l.5009.2636a13.4657,13.4657,0,0,0-1.1715,2.971Z"/><path class="cls-1" d="M40.6056,20.937a13.9161,13.9161,0,0,1,2.4806-2.2264l.3809.5509a13.2607,13.2607,0,0,0-2.3922,2.0918Z"/><path class="cls-1" d="M46.0319,17.1385a13.3545,13.3545,0,0,1,3.2455-.7951l.0844.7026a13.5592,13.5592,0,0,0-3.0772.7584Z"/><path class="cls-1" d="M52.619,16.3517a13.1568,13.1568,0,0,1,3.2391.8133l-.2336.6155a13.7869,13.7869,0,0,0-3.088-.7425Z"/><path class="cls-1" d="M58.7824,18.7592a13.3073,13.3073,0,0,1,2.4283,2.2558l-.3028.2683a13.8936,13.8936,0,0,0-2.4434-2.0647Z"/><path class="cls-1" d="M63.019,23.77a14.7486,14.7486,0,0,1,1.1088,3.0861l-.1255.0308a12.2939,12.2939,0,0,0-1.2008-3.0025Z"/><path class="cls-1" d="M74.631,30.1038a23.9028,23.9028,0,0,1-.2225,3.3746l-.0986-.0141a23.8373,23.8373,0,0,0,.2534-3.3605Z"/><path class="cls-1" d="M73.7079,36.7879a25.6878,25.6878,0,0,1-1.152,3.1842l-.1815-.083a21.6105,21.6105,0,0,0,1.2073-3.1381Z"/><path class="cls-1" d="M70.9672,42.9683a24.058,24.058,0,0,1-2.0011,2.745l-.2866-.2485a23.4652,23.4652,0,0,0,2.0453-2.6526Z"/><path class="cls-1" d="M66.5931,48.1523a22.1732,22.1732,0,0,1-2.7071,2.07l-.29-.45a25.6089,25.6089,0,0,0,2.6879-1.9765Z"/><path class="cls-1" d="M60.9036,51.88A22.4628,22.4628,0,0,1,57.71,53.0883l-.1707-.5815a24.7147,24.7147,0,0,0,3.1243-1.1521Z"/><path class="cls-1" d="M54.3688,53.8024a24.1657,24.1657,0,0,1-3.4066.2315l0-.5619a23.592,23.592,0,0,0,3.3243-.2477Z"/><path class="cls-1" d="M47.5593,53.7647a23.7584,23.7584,0,0,1-3.3239-.7534l.121-.4136a23.298,23.298,0,0,0,3.2732.6716Z"/><path class="cls-1" d="M41.0593,51.79a23.7715,23.7715,0,0,1-2.9637-1.66l.1556-.242a23.4642,23.4642,0,0,0,2.9575,1.575Z"/><path class="cls-1" d="M35.3919,48.0819a23.914,23.914,0,0,1-2.3882-2.4047l.1666-.1446a23.6846,23.6846,0,0,0,2.3846,2.361Z"/><path class="cls-1" d="M30.9729,42.966a23.719,23.719,0,0,1-1.6383-2.9655l.212-.0972a23.4887,23.4887,0,0,0,1.6044,2.9478Z"/><path class="cls-1" d="M28.1356,36.83a23.6873,23.6873,0,0,1-.75-3.31l.31-.0446a23.3936,23.3936,0,0,0,.6853,3.2824Z"/><path class="cls-1" d="M27.1133,30.1324a24.1108,24.1108,0,0,1,.2088-3.3978l.4214.06a23.7041,23.7041,0,0,0-.2589,3.3377Z"/><path class="cls-1" d="M28.0129,23.3982A23.7625,23.7625,0,0,1,29.176,20.192l.4861.2217a23.2454,23.2454,0,0,0-1.1884,3.119Z"/><path class="cls-1" d="M30.7873,17.1822a23.007,23.007,0,0,1,2.031-2.7468l.4729.4092A24.5489,24.5489,0,0,0,31.2825,17.5Z"/><path class="cls-1" d="M35.2229,12.0068A24.05,24.05,0,0,1,37.948,9.9419l.3666.5674a23.4035,23.4035,0,0,0-2.665,1.9883Z"/><path class="cls-1" d="M40.9408,8.2841a23.1,23.1,0,0,1,3.2023-1.2106l.2034.6893a23.948,23.948,0,0,0-3.1133,1.1579Z"/><path class="cls-1" d="M47.49,6.3475a24.2253,24.2253,0,0,1,3.4148-.2424l.0012.6994a23.5041,23.5041,0,0,0-3.3147.2448Z"/><path class="cls-1" d="M54.3212,6.3451a23.8822,23.8822,0,0,1,3.3464.7235l-.19.653a23.188,23.188,0,0,0-3.2524-.6934Z"/><path class="cls-1" d="M60.8666,8.2817a23.8976,23.8976,0,0,1,2.9863,1.66l-.309.4817a23.2923,23.2923,0,0,0-2.9387-1.5676Z"/><path class="cls-1" d="M66.563,12.0135A24.0285,24.0285,0,0,1,68.94,14.4508l-.2992.2606a23.598,23.598,0,0,0-2.4018-2.3227Z"/><path class="cls-1" d="M70.945,17.1931a23.7662,23.7662,0,0,1,1.5942,2.9924l-.1916.0882a23.4935,23.4935,0,0,0-1.6556-2.9169Z"/><path class="cls-1" d="M73.697,23.3668a23.6047,23.6047,0,0,1,.706,3.3078L74.3,26.69a23.4688,23.4688,0,0,0-.7375-3.2828Z"/><text class="cls-2" transform="translate(75.9153 31.1732)">WO?</text><text class="cls-2" transform="translate(14.6497 31.1732)">WER?</text><text class="cls-3" transform="translate(0.0002 34.1254)">UNTERSUCHUNGSGRUPPE</text><text class="cls-3" transform="translate(76.1106 34.1361)">UNTERSUCHUNGSRAUM</text><rect class="cls-1" x="50.7787" width="0.3391" height="24.54"/><path class="cls-4" d="M51.021,27.7926q-1.69,0-3.381.0009a.6226.6226,0,0,0-.17.0221.8213.8213,0,0,0-.63.8835c-.0063,1.2782-.0031,2.5565-.001,3.8347a2.8014,2.8014,0,0,0,.0293.3891.8107.8107,0,0,0,.7975.688q3.337,0,6.6741-.0008a.8108.8108,0,0,0,.831-.8325c.0081-1.3953.0037-2.7906.0024-4.1859a.8118.8118,0,0,0-.801-.799Q52.6968,27.7924,51.021,27.7926Z"/><path class="cls-5" d="M51.021,27.7926q1.6758,0,3.3517,0a.8118.8118,0,0,1,.801.799c.0013,1.3953.0057,2.7906-.0024,4.1859a.8108.8108,0,0,1-.831.8325q-3.337.0028-6.6741.0008a.8107.8107,0,0,1-.7975-.688,2.8014,2.8014,0,0,1-.0293-.3891c-.0021-1.2782-.0053-2.5565.001-3.8347a.8213.8213,0,0,1,.63-.8835.6226.6226,0,0,1,.17-.0221Q49.3305,27.7917,51.021,27.7926Zm.0057.5779h-3.278c-.23,0-.3033.0727-.3033.3023q0,2.0049,0,4.01c0,.262.087.35.3455.35h6.4244c.0341,0,.0684.002.1024-.0005a.2324.2324,0,0,0,.2491-.2691q.0008-2.0634,0-4.1268c0-.182-.0845-.266-.2619-.266Q52.6658,28.37,51.0267,28.3705Z"/><path class="cls-5" d="M51.3293,28.7882c.5914,0,1.1723-.021,1.7509.0068a.8923.8923,0,0,1,.9005.7048.95.95,0,0,1-.4721,1.0659c-.0244.0147-.05.0279-.0553.031a3.6084,3.6084,0,0,1,.4136.2681.9818.9818,0,0,1-.3874,1.631,2.8463,2.8463,0,0,1-.6911.1145c-.4818.0173-.9647.0053-1.4591.0053Zm.9173,3.2046c.2162-.0157.409-.0209.5992-.046a.4155.4155,0,0,0,.36-.4189.4042.4042,0,0,0-.1919-.405,1.342,1.342,0,0,0-.7617-.1144c-.0022.0486-.0054.0864-.0055.1242C52.2464,31.4089,52.2466,31.6851,52.2466,31.9928Zm.0005-1.7124c.1607,0,.3066.01.45-.0024a.4278.4278,0,0,0,.3778-.4066.3839.3839,0,0,0-.33-.4457c-.16-.02-.3224-.0276-.4872-.041-.0061.0455-.0108.0641-.0108.0826C52.2469,29.73,52.2471,29.9934,52.2471,30.28Z"/><path class="cls-5" d="M47.9873,32.5866V28.788c.2789,0,.5506-.0037.8222.001.3053.0053.6122.0016.9155.0314a1.21,1.21,0,0,1,1.0522.84,3.1744,3.1744,0,0,1,.1267,1.4981,1.9054,1.9054,0,0,1-.2837.879,1.1382,1.1382,0,0,1-.9423.5441C49.12,32.6016,48.5612,32.5866,47.9873,32.5866Zm.957-.6075h.2292a.6708.6708,0,0,0,.7185-.5218,2.8207,2.8207,0,0,0,.0516-1.356.807.807,0,0,0-.9993-.6867Z"/><path class="cls-4" d="M52.2466,31.9928c0-.3077,0-.5839,0-.86,0-.0378.0033-.0756.0055-.1242a1.342,1.342,0,0,1,.7617.1144.4042.4042,0,0,1,.1919.405.4155.4155,0,0,1-.36.4189C52.6556,31.9719,52.4628,31.9771,52.2466,31.9928Z"/><path class="cls-4" d="M52.2471,30.28c0-.287,0-.55,0-.8131,0-.0185.0047-.0371.0108-.0826.1648.0134.3269.0205.4872.041a.3839.3839,0,0,1,.33.4457.4278.4278,0,0,1-.3778.4066C52.5537,30.2905,52.4078,30.28,52.2471,30.28Z"/><path class="cls-4" d="M48.9443,31.9791V29.4146a.807.807,0,0,1,.9993.6867,2.8207,2.8207,0,0,1-.0516,1.356.6708.6708,0,0,1-.7185.5218Z"/><rect class="cls-1" x="50.7787" y="37.0454" width="0.3391" height="23.1623"/></g></g></g></svg>