<svg xmlns="http://www.w3.org/2000/svg" viewBox="0 0 89.1018 75.1668"><defs><style>.cls-1,.cls-5{fill:#575756;}.cls-2,.cls-5{font-size:2.7327px;font-family:DBOffice-Regular, DB Office;}.cls-2,.cls-4{fill:#0087b9;}.cls-3{letter-spacing:-0.042em;}</style></defs><title>Element 21</title><g id="Ebene_2" data-name="Ebene 2"><g id="Ebene_1-2" data-name="Ebene 1"><g id="Illustrationen"><path class="cls-1" d="M33.9874,60.591l-11.6523.2024c-3.9189.0563-7.8643.12-11.8144.1271l-.36.0006-.0016-.3624c-.02-5.01-.0674-10.02-.0285-15.0295,0-5.01.1012-10.02.1528-15.03.0754-5.01.09-10.02.0945-15.03Q10.3665,7.9554,10.2714.4407L10.2683.1933l.2524-.0021C18.3321.1257,26.1438.0163,33.9552.0009L34.3933,0l.0015.4407c.0192,5.0346.0552,10.0807.0274,15.1186-.0258,5.0343-.0058,10.088-.0774,15.1018Zm-.0645-.0644-.3574-30.1883c-.0713-5.0058-.0513-9.9719-.0771-14.9572-.028-4.9819.008-9.9554.0271-14.94l.44.44C26.1438.8649,18.3321.7555,10.5207.69L10.77.4407q-.091,7.5147-.1063,15.0294c.0043,5.01.0192,10.02.0943,15.03.0518,5.01.1532,10.02.153,15.03.0389,5.01-.0091,10.02-.0287,15.0295l-.3616-.3617c3.8616.0071,7.7276.0708,11.62.1272Z"/><path class="cls-1" d="M7.8412,60.591l-3.5351.1111-.14.0044-.0034-.1478c-.1176-5.01-.2017-10.02-.2228-15.0295-.0463-5.01-.0551-10.02.0118-15.03.0694-5.01.1932-10.02.2024-15.03.03-5.01-.0247-10.02-.0974-15.0294L4.053.1951,4.3061.1912,7.8089.137,8.1078.1324l.0047.3083q.115,7.542.1323,15.1126c.0374,5.0478.0258,10.0928-.0056,15.1247-.0057,5.0442-.0942,10.0444-.1432,15.0463Zm-.0645-.0644L7.522,45.3342c-.0489-5.0178-.1374-10.0373-.1434-15.0127-.0314-4.9879-.0429-9.9625-.0056-14.9344q.03-7.4647.1324-14.9464l.3035.3034L4.3061.69,4.5552.4407c-.0725,5.01-.1279,10.02-.0975,15.0294.0092,5.01.133,10.02.2026,15.03.0668,5.01.0579,10.02.0116,15.03-.0211,5.01-.1052,10.02-.2226,15.0295l-.1432-.1432Z"/><path class="cls-1" d="M60.4159,60.591l-11.6523.2024c-3.9189.0563-7.8643.12-11.8144.1271l-.36.0006-.0013-.3624c-.02-5.01-.0674-10.02-.0285-15.0295,0-5.01.1012-10.02.1528-15.03.0751-5.01.09-10.02.0945-15.03Q36.7945,7.9554,36.7.4407L36.6968.1933l.2524-.0021C44.7606.1257,52.572.0163,60.3836.0009L60.8217,0l.0016.4407c.0191,5.0346.0551,10.0807.0273,15.1186-.0257,5.0343-.006,10.088-.0773,15.1018Zm-.0645-.0644L59.994,30.3383c-.0714-5.0058-.0514-9.9719-.0772-14.9572-.028-4.9819.008-9.9554.0272-14.94l.44.44C52.572.8649,44.7606.7555,36.9492.69l.2493-.2492Q37.1072,7.9554,37.092,15.47c.0044,5.01.0193,10.02.0945,15.03.0518,5.01.1532,10.02.1528,15.03.0389,5.01-.0089,10.02-.0285,15.0295l-.3616-.3617c3.8616.0071,7.7276.0708,11.62.1272Z"/><path class="cls-1" d="M87.5039,60.591l-11.6522.2024c-3.919.0563-7.8644.12-11.8144.1271l-.3605.0006-.0014-.3624c-.02-5.01-.0674-10.02-.0284-15.0295,0-5.01.1009-10.02.1527-15.03.0752-5.01.09-10.02.0946-15.03Q63.8826,7.9554,63.7877.4407L63.7848.1933l.2525-.0021C71.8487.1257,79.66.0163,87.4717.0009L87.91,0l.0016.4407c.0191,5.0346.0551,10.0807.0273,15.1186-.0258,5.0343-.006,10.088-.0774,15.1018Zm-.0644-.0644-.3574-30.1883c-.0714-5.0058-.0516-9.9719-.0772-14.9572-.028-4.9819.008-9.9554.0271-14.94l.44.44C79.66.8649,71.8487.7555,64.0373.69l.2493-.2492Q64.1951,7.9554,64.18,15.47c.0045,5.01.0194,10.02.0945,15.03.0519,5.01.1533,10.02.1528,15.03.0389,5.01-.0089,10.02-.0284,15.0295l-.3616-.3617c3.8615.0071,7.7275.0708,11.62.1272Z"/><path class="cls-1" d="M33.9874,74.82c-1.8516.1068-3.7744.1711-5.7091.2349l-5.8842.1094c-1.9788.0164-3.9879-.0666-5.9683-.1332-1.9855-.081-3.9438-.1266-5.9051-.0939l-.1487.0024-.0007-.1519c-.0056-1.48-.0512-2.96-.1-4.44l-.008-.2387.2573-.0108c3.9058-.1634,7.8114-.1935,11.7173-.2354q2.9291-.0133,5.8586.0495c1.9528.05,3.9058.079,5.8586.1678l.2757.0126-.0082.255C34.1731,71.8945,34.0626,73.4054,33.9874,74.82Zm-.0645-.0645c-.0751-1.5453-.1854-2.9948-.235-4.4083l.2673.2673c-1.9528.0889-3.9058.1176-5.8586.1678q-2.9292.0617-5.8586.05c-3.9059-.0419-7.8115-.072-11.7173-.2354l.2493-.2493c-.0487,1.48-.0943,2.96-.1,4.4405l-.1495-.1494c1.9446.0326,3.8921-.0129,5.8124-.0939,1.9252-.0666,3.822-.15,5.749-.1332l5.833.1094C29.8859,74.5848,31.8689,74.6491,33.9229,74.7559Z"/><path class="cls-1" d="M60.4159,74.82c-1.8519.1068-3.7744.1711-5.7092.2349l-5.8844.1094c-1.9786.0164-3.9876-.0666-5.968-.1332-1.9855-.081-3.9439-.1266-5.9051-.0939L36.8,74.94l0-.1519c-.0055-1.48-.0511-2.96-.1-4.44l-.0078-.2387.2573-.0108c3.9058-.1634,7.8114-.1935,11.7172-.2354q2.9292-.0133,5.8586.0495c1.9528.05,3.9056.079,5.8586.1678l.2756.0126-.008.255C60.6014,71.8945,60.491,73.4054,60.4159,74.82Zm-.0645-.0645c-.0752-1.5453-.1855-2.9948-.2353-4.4083l.2675.2673c-1.953.0889-3.9058.1176-5.8586.1678q-2.9295.0617-5.8586.05c-3.9058-.0419-7.8114-.072-11.7172-.2354l.2493-.2493c-.0487,1.48-.0945,2.96-.1,4.4405l-.1492-.1494c1.9446.0326,3.8918-.0129,5.8121-.0939,1.9255-.0666,3.8222-.15,5.7492-.1332l5.8331.1094C56.3144,74.5848,58.2974,74.6491,60.3514,74.7559Z"/><path class="cls-1" d="M87.5039,74.82c-1.8518.1068-3.7743.1711-5.7091.2349l-5.8844.1094c-1.9786.0164-3.9877-.0666-5.9681-.1332-1.9854-.081-3.9438-.1266-5.905-.0939l-.149.0024-.0005-.1519c-.0055-1.48-.0511-2.96-.1-4.44l-.0077-.2387.2573-.0108c3.9058-.1634,7.8114-.1935,11.7172-.2354q2.9292-.0133,5.8586.0495c1.9528.05,3.9056.079,5.8586.1678l.2755.0126-.008.255C87.6894,71.8945,87.5791,73.4054,87.5039,74.82Zm-.0644-.0645c-.0752-1.5453-.1855-2.9948-.2353-4.4083l.2675.2673c-1.953.0889-3.9058.1176-5.8586.1678q-2.93.0617-5.8586.05c-3.9058-.0419-7.8114-.072-11.7172-.2354l.2493-.2493c-.0487,1.48-.0946,2.96-.1,4.4405l-.1492-.1494c1.9445.0326,3.8918-.0129,5.8121-.0939,1.9254-.0666,3.8222-.15,5.7492-.1332l5.8328.1094C83.4024,74.5848,85.3855,74.6491,87.44,74.7559Z"/><text class="cls-2" transform="translate(16.9988 4.7396)">Mindest-<tspan x="-3.6494" y="3.2793">anforderungen</tspan></text><text class="cls-2" transform="translate(4.3059 65.1625) scale(1.0496 1)">TIME<tspan class="cls-1"><tspan x="0" y="3.2793">MEILENSTEINE</tspan></tspan></text><text class="cls-2" transform="translate(39.6262 4.7396)">Anforderungen<tspan x="0.2319" y="3.2793">Pilot / Roll-Out</tspan></text><text class="cls-2" transform="translate(66.7146 4.7396)">Anforderungen<tspan class="cls-3"><tspan x="-1.7383" y="3.2793">Implementierungen</tspan></tspan></text><path class="cls-4" d="M12.1524,63.8877c5.9071-.3072,11.8144-.4,17.7215-.3318,2.9538.0572,5.9073.2069,8.8609.22,2.9535.0467,5.907-.018,8.8608-.0916,5.9071-.1657,11.8142-.25,17.7215-.22,5.9071.0137,11.8144.1423,17.7215.4242v.091c-5.9071.2819-11.8144.4106-17.7215.4242-5.9073.03-11.8144-.0547-17.7215-.22-2.9538-.0738-5.9073-.1384-8.8608-.0917-2.9536.0127-5.9071.1624-8.8609.22-5.9071.0684-11.8144-.0246-17.7215-.3319Z"/><path class="cls-4" d="M83.69,62.34a18.5114,18.5114,0,0,1,2.0619.3763,12.1889,12.1889,0,0,1,2.2962.8153l1.0539.4871L88.035,64.34c-.7045.2122-1.4609.2694-2.179.4414a5.0853,5.0853,0,0,0-1.0345.3836c-.3294.1742-.6514.3706-.985.532l-.4488.2172-.0509-.5765A8.9475,8.9475,0,0,1,83.69,62.34Zm.052.0748a11.5709,11.5709,0,0,1,.3529,2.9229l-.4995-.3591c.3636-.0726.7388-.11,1.1064-.17a5.0917,5.0917,0,0,0,1.0566-.3185c.6763-.296,1.3141-.7069,2.0037-.9629l-.0129.8084a8.47,8.47,0,0,1-1.8865-.7409Z"/><text class="cls-5" transform="translate(2.3599 51.3128) rotate(-90)">O<tspan x="2.1191" y="0">R</tspan><tspan x="4.1074" y="0">G</tspan><tspan x="6.2373" y="0">A</tspan><tspan x="8.0527" y="0">N</tspan><tspan x="10.0215" y="0">I</tspan><tspan x="10.7988" y="0">S</tspan><tspan x="12.6221" y="0">A</tspan><tspan x="14.2314" y="0">T</tspan><tspan x="15.8994" y="0">I</tspan><tspan x="16.6768" y="0">O</tspan><tspan x="18.7852" y="0">N</tspan><tspan x="20.7783" y="0">S</tspan><tspan x="22.5947" y="0">E</tspan><tspan x="24.4014" y="0">I</tspan><tspan x="25.166" y="0">N</tspan><tspan x="27.1426" y="0">H</tspan><tspan x="29.1152" y="0">E</tspan><tspan x="30.9492" y="0">I</tspan><tspan x="31.7148" y="0">T</tspan><tspan x="33.3916" y="0">E</tspan><tspan x="35.2148" y="0">N</tspan></text></g></g></g></svg>