<svg xmlns="http://www.w3.org/2000/svg" xmlns:xlink="http://www.w3.org/1999/xlink" viewBox="0 0 82.0819 84.1"><defs><style>.cls-1{fill:none;}.cls-2{clip-path:url(#clip-path);}.cls-3{fill:#0087b9;}.cls-4{clip-path:url(#clip-path-2);}.cls-5{clip-path:url(#clip-path-3);}.cls-6{fill:#575756;}.cls-7{clip-path:url(#clip-path-4);}.cls-8{clip-path:url(#clip-path-5);}</style><clipPath id="clip-path"><rect class="cls-1" x="10.0086" y="10.1463" width="16.063" height="15.8957"/></clipPath><clipPath id="clip-path-2"><rect class="cls-1" x="57.1518" y="17.5918" width="13.4822" height="3.0721"/></clipPath><clipPath id="clip-path-3"><rect class="cls-1" x="12.4316" y="56.8846" width="11.2169" height="17.5581"/></clipPath><clipPath id="clip-path-4"><rect class="cls-1" x="50.2811" y="60.4976" width="6.9438" height="14.9465"/></clipPath><clipPath id="clip-path-5"><rect class="cls-1" x="66.472" y="53.0463" width="10.7425" height="10.988"/></clipPath></defs><title>Element 7</title><g id="Ebene_2" data-name="Ebene 2"><g id="Ebene_1-2" data-name="Ebene 1"><g id="Illustrationen"><g class="cls-2"><path class="cls-3" d="M18.9493,10.4141c-.1324.0121-.2647.0217-.3971.0325-.154.0109-.308.0241-.462.0337l-.462.0313-.4608.0313L17.36,10.35l.0506.8482c.0168.2827.0337.5643.0481.847l.0433.8482.04.8482.0361.847.0337.8482.0313.847.0277.8482.0156.4873-.5186.0156-.8157.0253-.8157.0216c-.5438.0157-1.0864.0241-1.63.0373l-1.63.0277c-.2719.006-.5438.0072-.8157.01l-.8157.0073.6328-.6317c.0036.2888.0012.5775.0024.8663l.0012.4331v.4331l-.6364-.6364c.5438.0048,1.0876.0048,1.6314.012l.8145.01.8158.012,3.2616.0566.5559.01-.01.5366-.0325,1.71-.0229.8554-.0276.8554-.0313.8542-.0349.8554-.0734,1.7109-.3237-.3249.9228.0385c.308.0133.616.0241.924.0349l-.2514.2515.0265-.8554.0216-.8555.0145-.8554.0084-.8542.0024-.8554-.0048-.8554-.0133-.8555c-.0072-.2839-.012-.569-.02-.8542l-.0072-.2093.2237-.0073c.272-.01.5439-.0168.8158-.0276s.5426-.02.8145-.0337c.5438-.0229,1.0876-.0529,1.6314-.0794l1.63-.0782c.2719-.0108.5438-.0241.8157-.0337l.4078-.0144.4079-.0121-.4969.4957-.012-.4331-.0084-.4331c-.0024-.1444-.0061-.2888-.0073-.4332l-.0048-.4331.5294.5294c-.1359.0012-.2719.0036-.4079.0036H24.314l-.4078-.0036-.8158-.0072c-.2707-.0012-.5426-.0073-.8145-.0109l-.8157-.012-.8157-.0168q-.4079-.0091-.8145-.02l-.8158-.0229-.4535-.0132.0144-.4259.0289-.8482.0337-.847c.01-.2827.024-.5655.0373-.8482s.0276-.5655.0421-.847.0313-.5655.0481-.8482l.0541-.8482c.0193-.2827.04-.5643.0626-.847l.0349-.4247c.01-.1191.02-.2394.0325-.36m.1239-.0637c.0144.1407.0265.2827.0385.4235l.0349.4247c.0216.2827.0421.5643.0626.847l.0541.8482c.0156.2827.0337.5655.0469.8482q.0236.4222.0433.847c.0121.2827.0265.5655.0373.8482l.0337.847.0277.8482-.438-.4379L19.83,16.67c.2707-.0072.5426-.0144.8145-.0192l.8157-.0181.8157-.012c.2719-.0036.5438-.01.8145-.0108l.8158-.0073.4078-.0024H25.13c.136-.0012.272.0024.4079.0024l.5342.0048-.006.5246-.0036.4331c-.0024.1444-.006.2888-.0085.4332l-.0084.4331-.012.4331-.0144.51-.4813-.0144-.4079-.012-.4078-.0157c-.2719-.0084-.5438-.0216-.8157-.0337l-1.63-.0782c-.5438-.0264-1.0876-.0553-1.6314-.0794-.2719-.012-.5438-.0216-.8145-.0325s-.5438-.018-.8158-.0276l.2166-.2166c-.01.2852-.0144.57-.0216.8542l-.0133.8555-.0036.8554.0024.8554.0084.8542.0145.8554.02.8555.0277.8554.0072.2418-.2587.0084q-.462.0163-.924.0361l-.9228.0373-.31.0121-.0144-.3357-.0734-1.7109-.0349-.8554-.0313-.8542-.0276-.8554-.0229-.8554-.0325-1.71.5474.5462-3.2616.0566-.8158.012-.8145.01c-.5438.0073-1.0876.0073-1.6314.0109l-.6353.0048V17.9987c.0012-.2888,0-.5775.0036-.8663l.0073-.6376.6244.006.8157.0072c.2719.0024.5438.0048.8157.01l1.63.0277c.5438.0132,1.0864.0216,1.63.0373l.8157.0216.8157.0253-.5041.5029.0289-.8482.03-.847.0337-.8482.0361-.847.04-.8482.0433-.8482c.0156-.2827.0313-.5643.0481-.847l.05-.8482.0133-.2046.18.0121.4608.0313.462.0312c.154.01.308.0229.462.0337s.308.0241.462.0373l.0542.0048Z"/></g><g class="cls-4"><path class="cls-3" d="M70.2057,18.3054c-.1071.0182-.2153.0352-.3224.0534l-.3946.0559c-.2623.0364-.5258.0692-.7881.0995s-.5258.0583-.7892.0838l-.3935.0376-.3946.0328c-.2635.023-.5258.0412-.7892.0606-.2623.017-.5258.0352-.7881.0486l-.3946.0218-.3946.0183c-.2623.0133-.5258.023-.7881.0315s-.5258.0158-.7892.0206-.5258.0073-.7881.0061-.5258-.0048-.7892-.0073l-.7881-.0206-.7892-.0267-.7881-.0291-.7892-.0316c-.1312-.0049-.2623-.0109-.3947-.0182s-.2623-.0146-.3934-.0243l.48-.4843c-.01.1578-.0217.3156-.0337.4734s-.0265.3144-.04.4722c-.0253.3156-.0554.6311-.0831.9467L57.66,19.8c.2623.0219.5258.0461.7881.0656s.5257.0364.7892.05.5258.0219.7881.0267.5257.0061.7892.0037.5258-.011.7881-.0255.5257-.0328.7892-.0546.5258-.05.7881-.0777l.7892-.0813c.2623-.0268.5258-.0486.7881-.068s.5257-.034.7892-.0413.5258-.0109.7881-.0085c.2634.0049.5257.0073.7892.0146s.5258.0133.7881.0279l.3946.017.3946.0231c.1311.0072.2623.0169.3946.0254s.2623.0183.3935.03l.3946.034.3946.0376-.3236.3277.0252-.2367c.0085-.0789.0169-.1578.0265-.2367l.0289-.2366.0313-.2367c.02-.1578.0433-.3144.0685-.4722.0217-.1347.0458-.2683.071-.4018m.1312-.0716q.0468.2367.083.4734c.0252.1578.0481.3144.07.4722l.0312.2367.0289.2366c.01.0789.0181.1578.0265.2367l.0252.2367.0325.2913-.3561.0352-.3946.0389-.3946.034c-.1312.0109-.2623.0194-.3935.0291s-.2635.0194-.3946.0255l-.3946.0231-.3946.0182c-.2623.0133-.5258.0182-.7881.0267s-.5258.0109-.7892.0145-.5258,0-.7881-.0085-.5258-.023-.7892-.04c-.2623-.0194-.5258-.0413-.7881-.0692l-.7892-.0813c-.2623-.028-.5258-.0547-.7881-.0765s-.5258-.0425-.7892-.0546c-.2623-.0146-.5258-.0231-.7881-.0255s-.5258-.0012-.7892.0036-.5258.0134-.7881.0267-.5258.0292-.7892.0486-.5258.0449-.7881.0667l-.2936.0243-.0312-.3508c-.0277-.3156-.0578-.6311-.0831-.9467-.0132-.1578-.0276-.3144-.04-.4722s-.024-.3156-.0324-.4734l-.0277-.4491L57.66,17.75c.1311-.01.2623-.017.3934-.0243s.2635-.0133.3947-.0182l.7892-.0315.7881-.0292.7892-.0267.7881-.0206c.2634-.0024.5257-.0073.7892-.0073s.5258.0024.7881.0061.5257.0121.7892.0206.5258.0182.7881.0316l.3946.0182.3946.0218c.2623.0134.5258.0316.7881.0486.2634.0194.5257.0376.7892.0607l.3946.0327.3935.0377c.2634.0255.5257.0534.7892.0837s.5258.0631.7881.1l.3946.0558c.1311.0218.2635.0413.3946.0655l.0493.0085Z"/></g><g class="cls-5"><path class="cls-3" d="M20.3131,72.469l-.4775.0247c-.3216.0165-.6408.0462-.9566.0924s-.6285.1188-.9394.1946l-.4668.1147c-.0775.02-.155.04-.2317.0651s-.1542.0462-.23.0742l-.4594.1584c-.1534.0511-.3076.099-.4626.1361l-.1443.0354.0552.12a3.8307,3.8307,0,0,1,.2474.6887l.0182.0709.1039.0132c.2713.0338.5426.0973.814.1418a3.5541,3.5541,0,0,0,.4074.04q.0643.0025.1286.0025c.0924,0,.1856-.0033.2788-.0066a7.3523,7.3523,0,0,0,.814-.0791c.136-.0207.2713-.0454.4074-.0784a3.465,3.465,0,0,0,.4074-.1155l.0231-.009.0107-.02a6.0259,6.0259,0,0,0,.2928-.6359c.0429-.1072.0808-.2152.122-.3224.038-.1089.0726-.2169.1089-.3258Zm-3.2056,1.0581c.0775,0,.1534-.005.23-.0074.0808-.0033.1608-.0091.24-.0165l.4783-.0487c.3183-.0321.6367-.0684.95-.13q.2808-.0569.5591-.13c-.0024.0759-.0049.151-.0049.2268a6.1879,6.1879,0,0,0,.0288.6606,3.5661,3.5661,0,0,0-.3694-.1055c-.1361-.0322-.2714-.0578-.4074-.0784a7.5758,7.5758,0,0,0-.814-.0792c-.0932-.0024-.1864-.0066-.2788-.0066-.0429,0-.0857.0009-.1286.0033a3.5975,3.5975,0,0,0-.4074.04c-.2466.0413-.4932.0973-.74.132a3.7758,3.7758,0,0,1-.1806-.4412c.1146-.0083.2309-.0124.3472-.0149l.4857-.0041h.0116"/><path class="cls-3" d="M18.1023,68.0335c-.0347,0-.07,0-.1048.0017a8.6867,8.6867,0,0,0-.9443.0709c-.1575.0223-.315.0478-.4725.0808a4.1357,4.1357,0,0,0-.4718.127l-.028.01-.0074.0248a6.295,6.295,0,0,0-.1567.668c-.0223.1113-.0371.2227-.0553.334-.02.1113-.03.2227-.0445.334l-.04.3035.3818-.0165c.1608-.0066.3208-.0181.48-.033s.3192-.0313.4775-.0528a9.15,9.15,0,0,0,.9418-.1789l.4676-.1114c.1551-.0371.311-.075.4652-.1228.1542-.0446.3068-.099.46-.15s.3059-.1056.46-.15l.1312-.0372-.0132-.1022a4.8767,4.8767,0,0,1-.0355-.6845l.0017-.1048-.1081-.0016a5.295,5.295,0,0,1-.9443-.1188,4.4189,4.4189,0,0,0-.84-.09M16.35,69.3127c-.0156-.099-.03-.1971-.05-.2961a6.2053,6.2053,0,0,0-.1426-.6185,4.3816,4.3816,0,0,0,.4239.1121c.1575.0338.315.0594.4725.0808a8.6619,8.6619,0,0,0,.9443.071c.0355.0016.07.0024.1048.0024a4.341,4.341,0,0,0,.84-.0907,5.9634,5.9634,0,0,1,.8388-.1154c0,.1459-.0075.2927-.0215.44-.1262.005-.254.0058-.381.0083-.1616.0033-.3241.0025-.4841.0123-.1608.0066-.32.0231-.4792.04l-.4783.0511a9.4009,9.4009,0,0,0-.9468.1468q-.2349.0495-.4676.1105c-.0577.0148-.1154.03-.1732.0454"/><path class="cls-3" d="M20.2463,69.7474l-.4164.0461c-.3176.0347-.6359.0693-.9509.1221-.1584.0264-.3151.0569-.4709.09-.1567.0355-.3126.0709-.4676.1113q-.2326.0582-.4644.127c-.155.0437-.3084.0908-.4618.1419-.0767.0247-.1534.05-.23.0783s-.1526.0536-.2284.0842c-.1518.0593-.3035.12-.4536.1921l-.0215.0107-.0074.024a5.2374,5.2374,0,0,0-.1583.6836c-.038.2285-.066.4561-.0858.6845l-.0256.3052.3522-.0305c.16-.014.3183-.0322.4775-.0528.1583-.0223.3167-.0429.4725-.0784a7.09,7.09,0,0,0,.9237-.2845c.1534-.0528.306-.1039.4619-.1451a4.3131,4.3131,0,0,1,.4692-.0982c.1575-.0255.3167-.0445.4767-.0569q.24-.0161.4825-.0214l.1327-.0033.0264-.1856c.0314-.2284.07-.456.0932-.6845.0256-.2276.0347-.456.0495-.6837Zm-3.3417,1.0935c.0627,0,.1254-.0008.1872-.0033.1617-.0024.3225-.01.4833-.0206.1608-.0074.3208-.0206.48-.0355s.3183-.0329.4775-.0519c.1583-.0214.3167-.0454.4734-.0726.1921-.0346.3826-.075.5723-.1187.0066.09.014.18.0239.2688.019.1848.0479.3687.0743.5526-.0941.03-.1889.0577-.2837.0841-.1551.0421-.311.0767-.4685.1064a4.3582,4.3582,0,0,1-.475.0643c-.16.0132-.3216.0165-.4833.0182a7.0741,7.0741,0,0,0-.9657.04c-.1592.02-.3151.0527-.4718.0849-.0593.0124-.1187.0256-.1773.04q-.021-.1695-.0494-.339a5.5564,5.5564,0,0,0-.1485-.6474c.1518.0149.3027.0231.4528.0273.047.0016.094.0024.1418.0024h.1567"/><path class="cls-3" d="M17.9977,56.8841H17.996a7.134,7.134,0,0,0-.8643.0685l-.2169.0288-.2119.0479a3.5506,3.5506,0,0,0-.4247.1055c-.1386.0454-.2813.0808-.4182.1336l-.4082.1691a5.9959,5.9959,0,0,0-.7736.4363c-.0618.042-.1278.0791-.1864.1253l-.1756.1394-.1757.141c-.0594.047-.1088.1031-.1641.1551l-.1608.1583a1.4533,1.4533,0,0,0-.1542.1658c-.0965.1163-.1947.2325-.287.353l-.25.381c-.0784.13-.1411.27-.2128.4041a3.6437,3.6437,0,0,0-.1748.4222l-.0792.2153-.0577.221a5.1306,5.1306,0,0,0-.1551.9006l-.0115.456-.0017.057v.0379l.0017.0272.0074.1072.0165.2161c.0214.1509.0387.3093.0684.4569.0338.1476.0611.2961.1081.44l.0643.216.0783.212c.0479.1418.1155.2763.1749.4132.066.1336.1361.2655.2086.395.0784.1262.15.2565.2384.3761a5.9693,5.9693,0,0,0,.55.6927,6.4107,6.4107,0,0,0,.6441.6012,6.0584,6.0584,0,0,0,.7208.5056l.0239.0148h.0313c.2186,0,.4379.0058.6573.0107s.4379.0083.6573.0174c.4379.014.8767.033,1.3146.0536l1.3146.06.6581.0255c.2185.0083.4379.0165.6573.0207l.0767.0016.0717-.0412a5.63,5.63,0,0,0,.7612-.5039,5.7143,5.7143,0,0,0,.6722-.6227c.0989-.1171.2062-.2276.2952-.353l.1386-.183.127-.1922a5.5647,5.5647,0,0,0,.4354-.8115c.0569-.1435.1213-.2845.165-.4322l.0709-.22.0561-.2243c.0412-.1493.0627-.3018.09-.4536.0239-.1525.0346-.3068.05-.46l.0082-.2309.0033-.1154v-.0289l-.0016-.0462-.0033-.0536-.0264-.4313a5.6012,5.6012,0,0,0-.1823-.92l-.0619-.2227-.0824-.2144a3.6206,3.6206,0,0,0-.1823-.4222c-.0734-.1353-.1377-.2738-.2185-.4033l-.2565-.3794c-.0924-.12-.1914-.2367-.2887-.353a1.4664,1.4664,0,0,0-.155-.1649l-.1625-.1584c-.0561-.0511-.1055-.108-.1649-.1542l-.1773-.141-.1757-.1386c-.0594-.0461-.1254-.0833-.1872-.1253l-.188-.1212-.0932-.06-.099-.052c-.1328-.0676-.2623-.1394-.3959-.2021l-.4082-.169c-.1369-.0528-.28-.0883-.4189-.1336a3.5336,3.5336,0,0,0-.4248-.1056l-.2127-.047-.2161-.028a7.1089,7.1089,0,0,0-.8676-.0652m-4.987,5.31V62.19l.0008-.0066.0008-.0124.0041-.0511.0322-.4066a6.5022,6.5022,0,0,1,.16-.7958l.05-.1971.0685-.1905a3.44,3.44,0,0,1,.1459-.3794c.0578-.1221.1072-.2491.1707-.3695l.1988-.3571a6.261,6.261,0,0,1,.4775-.6688c.0437-.0528.0833-.1105.132-.1592l.1435-.1493.1443-.1517c.0478-.05.1039-.0916.155-.1386a5.49,5.49,0,0,1,.6705-.5072l.37-.2061c.1262-.0644.259-.1147.3893-.1724a3.1274,3.1274,0,0,1,.4041-.1344l.2053-.0594c.07-.0149.1394-.0272.21-.0388l.2111-.0363.1056-.0173.1072-.0066.43-.0239.4272.0256.1072.0066.1056.0189.2111.0363c.07.0124.14.0248.21.0388l.2054.06a3.0219,3.0219,0,0,1,.4041.1361c.13.0569.2622.1072.3876.1723l.37.2054a5.4813,5.4813,0,0,1,.668.508c.052.047.1072.0891.155.1394l.1435.1517.1427.1493c.0487.0495.0874.1072.1311.16a6.4192,6.4192,0,0,1,.4726.6705l.1922.3587c.0618.12.11.2475.1657.37a3.4124,3.4124,0,0,1,.1386.3786l.0651.1913.0462.1955a5.74,5.74,0,0,1,.132.776l.0181.4313.0017.0536.0008.0108-.0017.0222-.0033.1006-.0074.2a5.5749,5.5749,0,0,1-.1187.7925l-.0454.1955-.0586.1921c-.0338.1295-.0874.2524-.1319.3794a4.8221,4.8221,0,0,1-.3588.7191,5.0839,5.0839,0,0,1-.4684.6573,5.0058,5.0058,0,0,1-.5723.5724,5.1081,5.1081,0,0,1-.6.4437q-.282.0074-.5641.0181l-.6581.0256-1.3146.06c-.4379.0206-.8767.04-1.3146.0536-.2194.0091-.4379.0124-.6573.0173-.21.005-.4181.01-.6276.0107a4.8081,4.8081,0,0,1-.6713-.4643,4.59,4.59,0,0,1-.6-.5938c-.0849-.113-.179-.2177-.254-.3365l-.12-.174c-.0371-.0594-.07-.1212-.1056-.1822a4.8331,4.8331,0,0,1-.348-.76c-.0412-.1336-.0907-.2623-.12-.3983l-.0511-.2-.0371-.2037c-.03-.1345-.038-.273-.0569-.4083-.0149-.136-.0174-.2663-.0256-.4008l.0016-.2161.0009-.108v-.0206"/><path class="cls-3" d="M18.0053,60.8947c-.0239.0008-.0479.0008-.0726.0025a1.3141,1.3141,0,0,0-.155.0181,1.0658,1.0658,0,0,0-.3283.11,1.4958,1.4958,0,0,0-.2507.1732l-.0206.0181a1.5109,1.5109,0,0,0-.1724-.1278,1.0307,1.0307,0,0,0-.2664-.1212,1.1326,1.1326,0,0,0-.2721-.0454c-.0363-.0025-.0751-.0033-.1031-.0033h-.0148c-.0429.0008-.0809.0017-.1238.005a1.2609,1.2609,0,0,0-.268.047l-.0354.014-.02-.0709-.3134.0866-.772.2144-.3125.0866.0849.2961c.099.34.1905.68.2944,1.0193.1.339.2046.6771.31,1.0152l.3151,1.0136.1542.508.15.5089.0371.1261.12-.033c.2573-.0709.513-.1476.7719-.2144l.1072-.028-.028-.1064c-.0668-.26-.1386-.5179-.2021-.7777s-.127-.5212-.1839-.7827c-.0552-.2622-.1163-.5237-.1657-.7876q-.0632-.3141-.1221-.6284c.03-.0165.06-.033.0891-.0528l.0758-.0528.0066.0058.0116.0124.0247.0247c.0165.0165.0338.0314.0512.0479a1.1765,1.1765,0,0,0,.2334.1591,1.16,1.16,0,0,0,.5327.1336c.03.0025.061.0042.0916.0042a1.1818,1.1818,0,0,0,.4874-.1114,1.3639,1.3639,0,0,0,.2507-.1492l.028-.0223.0462.0363a1.3867,1.3867,0,0,0,.2507.1451,1.4956,1.4956,0,0,0,.27.0907c.0462.01.0924.019.14.0248l.0726.0074.04.0017.0363.0008a.7868.7868,0,0,0,.0866-.0041c.0255-.0025.0486-.0058.0725-.0091.047-.0066.0932-.0165.1394-.0272a1.5159,1.5159,0,0,0,.2672-.094,1.3315,1.3315,0,0,0,.127-.066,1.528,1.528,0,0,0,.127-.085l.0437-.0346.0017-.0017.0445.0355c.0157.0116.0322.0214.0479.0322l-.1254.5665-.16.7835c-.0536.2606-.1006.5229-.1509.7851s-.0924.5254-.1386.7885l-.0214.1228.1047.0165c.2648.0438.53.0842.7967.12l.0313.0041.0108-.03c.2441-.6672.4667-1.34.6828-2.0148l.3175-1.0136.3043-1.016.0833-.2788-.3035-.0915c-.2556-.0767-.5129-.1476-.7694-.2219l-.3076-.089-.0206.0725c-.02-.0074-.04-.0164-.06-.0222a1.0646,1.0646,0,0,0-.1427-.0314c-.047-.0066-.09-.0115-.1353-.014-.0552-.0025-.0659-.0041-.122-.0041h-.0116c-.0387,0-.0791.0016-.12.0049a1.1439,1.1439,0,0,0-.2911.0611,1.1716,1.1716,0,0,0-.2631.1352c-.0371.0248-.07.0495-.1014.0734l-.0338.0272a1.629,1.629,0,0,0-.1922-.1418,1.097,1.097,0,0,0-.3126-.1386,1.3734,1.3734,0,0,0-.1624-.0313c-.0264-.0025-.052-.0058-.0809-.0074s-.056-.0025-.0717-.0033Zm.8387.362h0Zm-2.522,1.0771-.01-.0091h.0009l.0049.005.0017.0024.0016.0009v.0008Zm3.8077,3.251c-.0577-.0223-.1163-.0421-.174-.0635l.1773.0454Z"/></g><path class="cls-6" d="M40.1928,84.1H39.1755V81.3871h1.0173Zm0-5.4258H39.1755V75.9613h1.0173Zm0-5.4258H39.1755V70.5355h1.0173Zm0-5.4258H39.1755V65.11h1.0173Zm0-5.4258H39.1755V59.6839h1.0173Zm0-5.4258H39.1755V54.2581h1.0173Zm0-5.4258H39.1755v-2.713h1.0173Zm0-5.4259H39.1755V43.4064h1.0173Zm0-5.4258H39.1755V37.9806h1.0173Zm0-5.4258H39.1755V32.5548h1.0173Zm0-5.4258H39.1755V27.129h1.0173Zm0-5.4258H39.1755V21.7032h1.0173Zm0-5.4258H39.1755V16.2774h1.0173Zm0-5.4258H39.1755V10.8516h1.0173Zm0-5.4258H39.1755V5.4258h1.0173Zm0-5.4258H39.1755V0h1.0173Z"/><path class="cls-6" d="M82.0739,42.7l-2.7129-.02.008-1.0174,2.7129.02Zm-5.4258-.04-2.7129-.02.008-1.0174,2.7129.02Zm-5.4258-.04-2.7122-.02.0079-1.0174,2.7123.02Zm-5.4251-.04-2.7129-.0206.0079-1.0173,2.7129.0205Zm-5.4258-.0408-2.7129-.02.0079-1.0173,2.7129.02Zm-5.4258-.04-2.713-.02.008-1.0173,2.7129.02Zm-5.4259-.04-2.7129-.02.008-1.0173,2.7129.02Zm-5.4251-.04-2.7129-.02.0079-1.0173,2.713.02Zm-5.4258-.04-2.7129-.02.0079-1.0173,2.7129.02Zm-5.4258-.04-2.7129-.02.0079-1.0174,2.7129.0206Zm-5.4258-.0407-2.7129-.02.0079-1.0174,2.7129.02Zm-5.4258-.04-2.7123-.02.008-1.0174,2.7122.02Zm-5.4252-.04-2.7129-.02.008-1.0174,2.7129.02Zm-5.4258-.04-2.7129-.02.008-1.0174,2.7129.02Zm-5.4258-.04-2.7129-.02.008-1.0174,2.7129.02Zm-5.4258-.04L0,42.0881l.0079-1.0174.6889.0053Z"/><g class="cls-7"><path class="cls-3" d="M52.3389,70.8335c.1181-.0136.2362-.0255.3544-.0374l.3969-.0374c.1326-.0127.2652-.0221.3977-.0331l.3978-.0323L53.7,70.887l-.0553-.5005-.0068-.0595-.0059-.0663c-.0043-.0442-.01-.0884-.0119-.1326-.0043-.0893-.01-.1777-.0077-.2677a3.62,3.62,0,0,1,.0425-.54c.0162-.0893.0306-.1794.0536-.2678.0119-.0442.02-.0892.034-.1325L53.78,68.79a4.5154,4.5154,0,0,1,.4539-.9783c.0917-.1538.1895-.2991.2974-.4462l.0391-.0544.0383-.05.0756-.1.0383-.0493.0416-.0535.0765-.0978c.2048-.2609.4028-.5218.5881-.7836a6.8785,6.8785,0,0,0,.493-.8l.0518-.1011c.0179-.034.0315-.0688.0468-.1028l.0459-.1037c.0144-.034.0263-.0689.0408-.1037l.0408-.1037.0331-.1054c.011-.0348.0229-.07.0331-.1045l.0264-.1071c.0085-.0349.0187-.0706.0255-.1063s.0127-.0714.02-.107l.01-.0544a.4128.4128,0,0,0,.0077-.0519l.0119-.1011.0068-.05.0034-.0255.0008-.0306.006-.1258.0025-.062.0009-.0314v-.0043c0,.006.0008-.0178,0,.0119v-.02l-.0009-.1088a2.8057,2.8057,0,0,0-.1547-.8456,2.3027,2.3027,0,0,0-.7326-1.0327c-.0552-.0459-.1147-.0867-.1742-.1292l-.0918-.0586c-.0306-.02-.0637-.0366-.0952-.0544a2.7763,2.7763,0,0,0-.4045-.1861c-.0689-.0289-.142-.0493-.2142-.0748-.0731-.0187-.1454-.0425-.221-.0587l-.1122-.0272-.1139-.0212-.0569-.0111-.0578-.0085-.1156-.0178c-.0382-.006-.0756-.0094-.1139-.0136l-.0561-.0068c-.0187-.0017-.0374-.0043-.0595-.0051l-.1249-.0094-.0629-.0051h-.0017l-.0076-.0008h-.0145l-.03-.0017-.119-.0043c-.04-.0017-.0791-.0008-.119-.0008-.08-.0017-.16.0017-.24.0042s-.16.0094-.24.0136c-.08.0077-.16.0136-.24.0238s-.16.02-.24.034l-.119.02-.1189.0238c-.0791.0145-.1573.0357-.2363.0536-.0391.01-.0774.0212-.1165.0323s-.0781.0212-.1164.034a4.2384,4.2384,0,0,0-.4513.17,3.093,3.093,0,0,0-.4173.23l.051-.1709c.0365.1088.0756.2159.1139.3247s.0765.215.1164.323.0774.215.1182.3221l.1206.3213-.1929-.0553a3.27,3.27,0,0,1,.7267-.4011q.1913-.0765.3892-.1369c.1318-.0374.2652-.0748.4-.1011s.27-.051.413-.0655c.0357-.0042.0714-.0076.1037-.0093l.0493-.0043.0255-.0017.0119-.0008.0059-.0009h.0034c.0043,0-.0051-.0008.01-.0008.07-.0017.14-.0034.2108-.0017a2.6658,2.6658,0,0,1,.8576.1436,1.9506,1.9506,0,0,1,.413.2057,1.7426,1.7426,0,0,1,.3578.3153,1.89,1.89,0,0,1,.4071.855c.0068.0383.0145.0765.02.1148s.0111.0756.0145.1164l.0059.0612.0026.0306.0008.0246.0026.05.0008.0119v.0493l-.0008.1139-.0017.0569-.0043.0578-.01.1139c-.0034.0382-.011.0756-.017.113s-.011.0757-.02.1131l-.0263.1105-.0128.0552c-.0051.0187-.011.0365-.0161.0544l-.0332.1079c-.0238.0714-.0527.1394-.0782.21-.03.0671-.0595.1342-.0909.2005a5.4163,5.4163,0,0,1-.4437.7293c-.164.226-.3348.4377-.5125.645-.0892.1054-.1785.2032-.2643.3009l-.1241.1445c-.02.0246-.0416.0476-.062.0722l-.0587.074c-.0391.05-.08.0986-.1181.15l-.1113.1521-.0289.0382-.0264.0391-.0535.0782-.0527.0782c-.0179.0255-.0332.0536-.05.08-.0331.0536-.0671.1071-.0986.1606l-.0926.1649c-.0306.0544-.0569.1114-.0858.1675s-.0544.113-.0808.1708a4.5364,4.5364,0,0,0-.2507.7122l-.0425.1853c-.0127.062-.0212.1249-.0331.1878s-.0162.1258-.0247.19c-.0025.0161-.0042.0322-.0059.0475l-.0034.0468-.0068.0952-.0034.0476c-.0017.0153-.0009.0331-.0017.0493l-.0017.1-.0043.2c-.0051.119-.0085.238-.0144.3578m-.085.0493c-.0281-.1309-.0519-.2618-.0774-.3927l-.0365-.1963-.0179-.0986-.0085-.0493-.0059-.0518a3.627,3.627,0,0,1-.03-.4165c0-.07,0-.1394.0026-.2091l.0144-.2082a4.1752,4.1752,0,0,1,.1692-.82,4.6965,4.6965,0,0,1,.3153-.7769c.0153-.0306.03-.0629.0467-.0934l.051-.091.051-.0918.0255-.0459.0272-.0442.11-.1776c.0373-.0586.0781-.1147.1172-.1725l.0587-.0859c.02-.0289.0408-.0561.0612-.0841l.1258-.1657c.0833-.1063.1665-.21.2439-.3111.1564-.2048.3128-.41.4513-.62a4.8678,4.8678,0,0,0,.37-.6375c.0255-.0535.0493-.1079.0731-.1615.02-.0544.0433-.1087.0612-.1631.0153-.0553.0382-.1088.05-.1641l.0221-.0816c.0077-.028.0111-.0552.017-.0833s.0111-.0552.0153-.0832l.0111-.0833.0059-.0417c.0017-.0144.0026-.028.0034-.0425l.0051-.0841.0017-.0213c0,.0026,0-.0093.0009.0043v-.0714l.0008-.0247-.0008-.0187v-.0382c0-.0255-.0034-.0552-.0043-.0824s-.0051-.0544-.0076-.0816a1.3555,1.3555,0,0,0-.2074-.595,1.2094,1.2094,0,0,0-.2082-.24,1.4631,1.4631,0,0,0-.278-.187,2.1413,2.1413,0,0,0-.6867-.2082c-.0612-.0093-.1241-.0153-.1861-.0212h-.006l-.0119-.0009-.0255-.0008-.0493-.0017c-.0348-.0017-.0645-.0017-.0951-.0009-.06-.0008-.1241.0017-.1879.0051-.0314.0009-.0629.0043-.0952.0068s-.0629.0051-.0943.01a3.4016,3.4016,0,0,0-.7454.1717c-.0306.01-.0595.0229-.0892.034s-.0595.0229-.0893.0365-.0586.0247-.0866.0383l-.0859.0425a2.553,2.553,0,0,0-.32.1988l-.1335.0995-.06-.1547-.1233-.32c-.0408-.1063-.0841-.2125-.1266-.3187s-.0841-.2134-.1283-.3187-.0859-.2125-.13-.3179l-.0425-.0995.0927-.0713a4.0064,4.0064,0,0,1,.4419-.2865c.0774-.0408.1539-.0833.2329-.12.0391-.0178.0782-.0382.1173-.0552l.12-.0527a6.2665,6.2665,0,0,1,.9893-.3247,6.0317,6.0317,0,0,1,1.0378-.1572l.0331-.0026.017-.0017h.0077l.0042-.0008h.01l.0629-.0017.1258-.0043c.02-.0017.0433-.0008.0663-.0008l.068.0008c.0459.0017.0918.0009.1368.0034.0892.006.1793.0077.2686.0187l.1343.0145.1342.02c.0451.0059.0893.0136.1343.0238l.1343.028.1334.034c.0442.01.0884.0238.1326.0382a3.4738,3.4738,0,0,1,.5185.2057c.0416.0213.085.0408.1258.0646l.1232.0706c.08.05.1606.1.2363.158a3.0858,3.0858,0,0,1,1.0513,1.3463,3.48,3.48,0,0,1,.2473,1.1125l.0051.142.0009.0178v.0323l-.0009.0315-.0017.062-.0034.1258-.0017.0323-.0034.0365-.0068.0748-.0144.1487c-.0026.0255-.006.0485-.01.0714l-.0119.07c-.0077.0468-.0162.0935-.0247.1394s-.0221.0918-.0331.1377l-.0348.1368c-.0136.0451-.0281.09-.0425.1343l-.0442.1335-.051.13c-.017.0433-.0332.0875-.0527.1292l-.0595.1249c-.02.0417-.0383.0842-.06.1241l-.0646.12a6.7505,6.7505,0,0,1-.5923.8882c-.2125.2762-.4386.5329-.6621.787l-.085.0944-.0383.0424-.0416.0476-.0833.0944-.0416.0467-.0366.0442c-.0493.06-.0994.1173-.147.1811-.0485.062-.0986.124-.1428.1878l-.0688.0952c-.0221.0323-.0425.0646-.0646.0977-.0434.0646-.0833.1309-.1233.1972l-.03.0493-.0272.051-.0553.102c-.017.034-.0331.0688-.0493.1037s-.034.0688-.0484.1045a3.2242,3.2242,0,0,0-.2448.8865c-.0119.0773-.017.1555-.0238.2337-.0042.0391-.0034.079-.0051.1181l-.0017.0595-.0017.03V70.37l-.017.5031-.0076.2074-.1785-.0145-.3978-.0323c-.1325-.01-.2651-.02-.3977-.0331l-.3969-.0366c-.1326-.0144-.2652-.0263-.3978-.0425l-.034-.0034Z"/><path class="cls-3" d="M51.8884,73.7349l.0017.0221c.0009.0145.0026.0357.006.0638a.3274.3274,0,0,0,.0059.0467c.0034.017.0077.0349.0128.0544s.01.0408.017.0629c.0093.0221.0187.045.0289.068l.017.0365c.0059.0119.0144.0238.0212.0357.0161.0247.0314.0493.05.074.0213.0238.0425.0476.0646.0714.0238.0221.05.0442.0765.0654a1.0037,1.0037,0,0,0,.0876.0569.2759.2759,0,0,0,.0467.0247l.0485.0229c.0314.0145.0671.0238.0977.0374l.051.0128a.49.49,0,0,0,.0493.0136c.017.0025.0331.0068.0493.01a.2928.2928,0,0,0,.0493.0093.4308.4308,0,0,1,.0476.0094c.017.0017.0331.0034.0493.0059a.9184.9184,0,0,0,.0986.0119l.0127.0017h.0094l.02-.0008.02.0008.0094.0009H52.95c.0264,0,.0536,0,.08-.0009l.0408.0009c.0051,0-.04-.0017-.02-.0009h.0026l.0034-.0008.0068-.0009.0144-.0017.057-.0042c.0187-.0009.0365-.0051.0552-.0077a1.2479,1.2479,0,0,0,.2133-.045.79.79,0,0,0,.2006-.0927.7609.7609,0,0,0,.1743-.1623c.0127-.017.0255-.034.04-.051.0119-.0178.0238-.0365.0374-.0552a.387.387,0,0,0,.0365-.0595.4.4,0,0,0,.0357-.0621l.0349-.0671.03-.0629L54,73.8633l.0042-.0085.0026-.0111.0136-.0459.0127-.0459.006-.0229.0008-.0026c.0009-.0034,0,.0162.0009.0068l.0008-.0051.0026-.0093a1.1911,1.1911,0,0,0,.0289-.1641l.0034-.0416a.2329.2329,0,0,0,.0017-.0417l-.0026-.0832a.8012.8012,0,0,0-.0943-.3128.6639.6639,0,0,0-.2167-.23.6812.6812,0,0,0-.2865-.0935c-.0246-.0017-.0493-.0009-.0731-.0017L53.37,72.749l-.0357.0034c-.0238.0026-.0467.0034-.068.0068-.02.0051-.0391.0094-.0569.0128l-.0289.0051-.0417.0068c-.028.0042-.0552.0085-.0824.0119.0059,0-.0179,0,.0136.0008h-.0017l-.0043.0017-.0076.0017-.0145.0043-.03.0068c-.02.0051-.04.0076-.0578.0136-.0374.0119-.0739.017-.1079.0289-.017.0051-.0349.0085-.0519.0127-.0161.0068-.0331.01-.0493.0153l-.0255.006-.0238.0085a.4521.4521,0,0,1-.0484.0127L52.6,72.925c-.0162.0051-.034.0085-.0493.0144a1.6006,1.6006,0,0,0-.1929.0765l-.0485.0229a.34.34,0,0,0-.045.0272l-.0451.0281a.3664.3664,0,0,0-.0408.0323.7991.7991,0,0,0-.1394.1394c-.017.0255-.034.051-.0493.0748a.6641.6641,0,0,0-.0365.0739c-.0093.0238-.02.0467-.0272.0688l-.0161.0621-.0119.0544c-.0017.0178-.0034.034-.0043.0484-.0025.0289-.0034.051-.0042.0663l-.0009.0221Zm-.0833-.0017.0009-.0229c.0008-.0145.0017-.0366.0017-.0655,0-.0144,0-.0306-.0009-.0484.0009-.0187.0026-.0391.0034-.06s.0009-.0459.0009-.0722.0034-.0518.0042-.0807a2.3145,2.3145,0,0,1,.0527-.4343c.0051-.0221.0094-.0451.0162-.0672l.0229-.0688c.0085-.023.0153-.0476.0264-.0706l.0331-.0714a1.0289,1.0289,0,0,1,.2-.2779,1.1513,1.1513,0,0,1,.1437-.1181c.0272-.017.0544-.0332.0824-.0493.0145-.0085.0289-.0162.0434-.0238l.0441-.0187c.0306-.0119.0612-.0247.0927-.0357s.0646-.0179.0969-.0255a.99.99,0,0,1,.2006-.0264.5794.5794,0,0,1,.1011.0009l.051.0034.0255.0017.0127.0017.006.0008H53.07c.034.0009.011.0009.0187.0009.0272.0059.0544.0119.0816.02.0136.0034.0272.0068.0408.0111l.0535.0153c.0366.011.0731.0238.1088.0365.034.0145.0654.0306.0969.0459l.0476.0238.0459.0281c.03.02.0595.0374.0884.0578a1.9811,1.9811,0,0,1,.3068.2813,2.2784,2.2784,0,0,1,.4181.6876c.0238.0646.05.1292.0689.1963a2.072,2.072,0,0,1,.0552.2048l.0034.0136.0017.0068v.0128l.0009.0025.0042.0238.0094.0459.0093.0468.0017.0119.0017.0144.0017.03c.0026.0391.0051.0791.006.12-.0009.0382-.0026.0756-.0043.1139a1.2456,1.2456,0,0,1-.1164.4513.8011.8011,0,0,1-.0561.1062.9847.9847,0,0,1-.0646.102c-.0238.0331-.0467.0663-.0722.0977-.0272.0306-.0544.0612-.0825.091a1.1559,1.1559,0,0,1-.0884.0841l-.0459.04c-.0161.0127-.0331.0238-.0493.0357-.0331.0238-.0654.0484-.1.0688s-.07.04-.1045.0587a1.4338,1.4338,0,0,1-.4394.1376c-.0365.0043-.0731.0119-.1088.0128s-.0722.0025-.1071.0034h-.05l-.0247-.0009-.04-.0034c-.0272-.0025-.0536-.0059-.08-.0085l-.01-.0008-.0144-.0026-.03-.0051-.0586-.011L52.7358,75.4l-.0281-.006-.0255-.0085a1.349,1.349,0,0,1-.1929-.0722c-.0306-.0153-.06-.03-.0892-.0459-.0281-.0178-.0561-.0365-.0825-.0552a.9789.9789,0,0,1-.1453-.1233,1.2226,1.2226,0,0,1-.1156-.1385,1.5284,1.5284,0,0,1-.0858-.1445c-.0111-.0246-.0221-.0493-.0323-.0731a.6084.6084,0,0,1-.0281-.07c-.0076-.0238-.0153-.0468-.0221-.07a.5107.5107,0,0,1-.0187-.0672,2.2665,2.2665,0,0,1-.0578-.4368c-.0008-.0289-.0025-.0561-.0042-.0808,0-.0255,0-.0493-.0009-.0714s-.0008-.0416-.0017-.06,0-.0348.0009-.05c0-.03,0-.0519-.0009-.068v-.0247Z"/></g><g class="cls-8"><path class="cls-3" d="M73.5667,58.7451c-.1558,2.3947-4.1566,2.4338-4.1566,0s4.0008-2.3947,4.1566,0c.006.0957.1468.0962.14,0-.1678-2.5817-4.4377-2.6227-4.4377,0s4.27,2.5816,4.4377,0c.0065-.0962-.1343-.0957-.14,0"/><path class="cls-3" d="M71.4124,60.8661c-.0318,0-.0629-.0006-.0941-.0016a2.1217,2.1217,0,1,1,0-4.2389A2.3375,2.3375,0,0,1,73.8736,58.7a.2585.2585,0,0,1,.0027.0451.273.273,0,0,1-.0027.0463A2.3206,2.3206,0,0,1,71.4124,60.8661Zm.0046-3.7623c-.0258,0-.0516.0006-.0781.0013a1.6439,1.6439,0,1,0,0,3.28c.0265.0007.0523.0014.0781.0014a1.67,1.67,0,1,0,0-3.2825Z"/><path class="cls-3" d="M70.0786,57.2143a5.7916,5.7916,0,0,1-.6179-1.51c-.2716-1.1014.0857-2.6047,1.4492-2.502,1.4456.1093,1.0017,2.6348.7616,3.6194a.0707.0707,0,1,0,.1358.04c.2867-1.0808,1.0122-2.8412,2.27-2.7931,2.045.0792.8789,2.3527.0581,3.0883-.0942.0841-.918.5341-.8644.6905a.0729.0729,0,0,0,.0677.0546,3.3294,3.3294,0,0,0,.9415-.45c.6279-.2951,1.6982-.8168,2.3487-.3518a1.4031,1.4031,0,0,1,.27,1.7,1.7718,1.7718,0,0,1-1.4512.642,6.0647,6.0647,0,0,1-1.9192-.1519c-.0892-.024-.12.11-.0371.1443.9025.3693,2.2484,1.0548,2.1617,2.279-.1318,1.8641-1.7859.929-2.4228.1293-.2154-.2706-.6068-1.2633-.9-1.4021a.0692.0692,0,0,0-.0852.0121c-.1017.1122.0416.4048.0706.52a4.754,4.754,0,0,1,.2486,1.9593c-.2415,1.379-2.2113,1.1435-2.4093-.1494a3.9287,3.9287,0,0,1,.5046-2.2148.0713.0713,0,0,0-.1212-.0752c-.54.8339-1.4738,1.8766-2.502,1.8366-1.4141-.0547-1.4908-1.7243-.6494-2.507a2.9792,2.9792,0,0,1,1.8921-.76.0762.0762,0,0,0,.0186-.1473,7.3711,7.3711,0,0,1-1.8927-.686,1.4827,1.4827,0,0,1-.8-1.1645,1.2519,1.2519,0,0,1,1.0823-1.3635c.877-.0231,1.7549.9365,2.28,1.6045.0581.0736.1569-.0326.0992-.1057a3.9228,3.9228,0,0,0-2.2313-1.6366c-1.0939-.1253-1.7293,1.31-1.1385,2.2248a2.7584,2.7584,0,0,0,1.4692.9456,4.3242,4.3242,0,0,1,.927.2786c-.0777-.232-.8418.1062-1.0353.1969-1.0327.4861-2.09,1.9839-.8623,2.966,1.1109.8885,2.4653-.2956,3.1654-1.1886.13-.1663.32-.5817.0551-.235a2.24,2.24,0,0,0-.24.6419,2.8252,2.8252,0,0,0-.0842,1.7523,1.44,1.44,0,0,0,2.4118.3844c.5847-.87-.0046-2.0134-.1368-2.9189.1142.7817,1.3935,2.5521,2.4448,2.3692,1.0944-.19,1.1931-1.6231.6239-2.3993a3.7236,3.7236,0,0,0-1.3625-1.0513A1.4653,1.4653,0,0,0,73.68,59.35c-.34-.0366-.0531.0721.1473.1388.82.2731,2.4754.2921,3.0978-.4786a1.419,1.419,0,0,0-.5983-2.19,2.5746,2.5746,0,0,0-1.3705.1889,4.1761,4.1761,0,0,0-1.4862.687c-.21.24.4159-.1463.5231-.23a4.7144,4.7144,0,0,0,.6865-.6594,2.3575,2.3575,0,0,0,.6925-1.7323,1.3856,1.3856,0,0,0-2.3406-.7486,4.2775,4.2775,0,0,0-1.0809,1.6806,2.3867,2.3867,0,0,0-.236.665c-.0045.1163-.0075.2861.1108.11a4.1011,4.1011,0,0,0,.2169-1.6125,2.8645,2.8645,0,0,0-.3041-1.6486c-.658-.9776-2.1191-.2866-2.4413.674a4.1191,4.1191,0,0,0,.66,3.0963.0715.0715,0,0,0,.1213-.0757"/><path class="cls-3" d="M71.4925,64.2039a1.72,1.72,0,0,1-.196-.0112,1.6392,1.6392,0,0,1-1.3624-.9872,2.5759,2.5759,0,0,1-.0252-1.4684,3.0979,3.0979,0,0,1-1.6591.9107,1.5256,1.5256,0,0,1-1.16-.3408,1.4764,1.4764,0,0,1-.6053-1.3637,2.68,2.68,0,0,1,1.5015-1.888c.0881-.0414.1834-.0838.28-.1225-.0788-.0186-.1371-.0331-.1563-.04a2.8872,2.8872,0,0,1-1.5545-1.013,1.7352,1.7352,0,0,1,.0133-1.8247,1.3355,1.3355,0,0,1,1.2869-.6607,2.6565,2.6565,0,0,1,1.3571.658,3.1276,3.1276,0,0,1-.0762-1.9125,1.96,1.96,0,0,1,1.5274-1.25,1.2024,1.2024,0,0,1,1.2153.5348,2.8623,2.8623,0,0,1,.3358,1.643,3.3669,3.3669,0,0,1,.7074-.8727,1.7776,1.7776,0,0,1,1.7353-.3106,1.3842,1.3842,0,0,1,.8829,1.1667,2.4156,2.4156,0,0,1-.6888,1.8138l.049-.0166a2.7084,2.7084,0,0,1,1.4644-.1937,1.3064,1.3064,0,0,1,.9213.8941,1.6749,1.6749,0,0,1-.2292,1.5678,2.7539,2.7539,0,0,1-2.1486.7153,2.991,2.991,0,0,1,.6637.6484,2.0283,2.0283,0,0,1,.2517,1.8648,1.263,1.263,0,0,1-.9829.8017,1.53,1.53,0,0,1-1.1584-.355,4.0511,4.0511,0,0,1-.8293-.8332,2.1306,2.1306,0,0,1-.2079,1.6655A1.3554,1.3554,0,0,1,71.4925,64.2039Zm-.8934-3.9157a.24.24,0,0,1,.1178.0315.2437.2437,0,0,1,.0961.3232,3.6649,3.6649,0,0,0-.49,2.1138,1.1306,1.1306,0,0,0,1.1253.9379h.0119a.9078.9078,0,0,0,.9372-.7918,4.1571,4.1571,0,0,0-.2026-1.7208l-.0431-.1675c-.0053-.0222-.0165-.0514-.0278-.0848-.06-.17-.151-.4285-.0046-.5908a.2364.2364,0,0,1,.2841-.0517c.22.104.4126.4491.6815.9637a4.0618,4.0618,0,0,0,.2782.4858c.4173.5243,1.2028,1.0061,1.6585.8667.2709-.0841.4265-.3875.463-.9021.0582-.8292-.614-1.52-2.0572-2.11a.2478.2478,0,0,1-.1411-.3116.2342.2342,0,0,1,.2861-.1537,5.89,5.89,0,0,0,1.8625.1468,1.616,1.616,0,0,0,1.3187-.5614,1.23,1.23,0,0,0-.2232-1.4733c-.5557-.3968-1.5433.0685-2.134.347l-.0438.02a3.1323,3.1323,0,0,0-.2781.1577,1.781,1.781,0,0,1-.7226.308.2346.2346,0,0,1-.2411-.1689c-.0749-.2176.1788-.4064.7352-.7564.0841-.0533.1516-.0947.1775-.1159.5431-.4875,1.2114-1.6562.9776-2.3049-.1093-.3034-.4226-.4673-.9306-.4868l-.0417-.001c-.8511,0-1.5009,1.0037-1.8864,2.1062a1.4772,1.4772,0,0,1-.1543.497l-.0179.065a.2392.2392,0,0,1-.2881.1715.2425.2425,0,0,1-.1762-.2944c.014-.0573.0312-.1292.0491-.2126.0046-.0249.01-.05.0165-.0755.1537-.7266.3749-2.16-.096-2.809a.7417.7417,0,0,0-.5789-.3132,1.0823,1.0823,0,0,0-.967.3722,2.2978,2.2978,0,0,0-.3047,1.92,5.6039,5.6039,0,0,0,.5994,1.4645h0a.24.24,0,0,1,.0033.2414.2475.2475,0,0,1-.0675.0765.2372.2372,0,0,1-.1146.051.2218.2218,0,0,1-.2073-.0831l-.0146-.0186C69.0247,56.3828,68.3173,55.87,67.72,55.87l-.0272,0a.8532.8532,0,0,0-.602.2944,1.2317,1.2317,0,0,0-.3153.8895,1.3069,1.3069,0,0,0,.7187,1.03,6.0706,6.0706,0,0,0,1.5816.5937l.2682.0739a.2377.2377,0,0,1,.1729.261.2437.2437,0,0,1-.2292.2189,2.8166,2.8166,0,0,0-1.7849.7149,1.55,1.55,0,0,0-.4133,1.5807.9634.9634,0,0,0,.9544.6325l.0516.001c1.0479,0,1.9559-1.226,2.301-1.76A.2416.2416,0,0,1,70.5991,60.2882Z"/></g></g></g></g></svg>