<svg xmlns="http://www.w3.org/2000/svg" viewBox="0 0 91.4839 57.2941"><defs><style>.cls-1,.cls-3,.cls-4{fill:#575756;}.cls-2{fill:#0087b9;}.cls-3,.cls-4{font-size:5.4258px;font-family:DBOffice-Regular, DB Office;}.cls-3,.cls-5{letter-spacing:-0.034em;}.cls-4{letter-spacing:-0.0521em;}</style></defs><title>Element 43</title><g id="Ebene_2" data-name="Ebene 2"><g id="Ebene_1-2" data-name="Ebene 1"><g id="Illustrationen"><path class="cls-1" d="M.2519,0,.3511,7.1285.392,14.257c.0149,4.7523.0825,9.5046.054,14.257L.3521,42.7709l-.045,7.1284.0278,7.1285L.2266,56.92l21.7264-.11,21.7262-.0478q10.8635-.0007,21.7264.0707c7.2423.0429,14.4844.0746,21.7264.17v.0508c-7.242.0957-14.4841.1273-21.7264.17q-10.863.0837-21.7264.0706L21.953,57.2464l-21.7264-.11-.109-.0005,0-.1081.028-7.1285L.1008,42.7709.0069,28.514c-.0283-4.7524.039-9.5047.054-14.257L.1017,7.1285.2011,0Z"/><path class="cls-2" d="M5.01,52.3835a2.1554,2.1554,0,0,0,1.3544-.6363,6.4089,6.4089,0,0,0,.9872-1.1816A17.2358,17.2358,0,0,0,8.7933,47.824a48.8335,48.8335,0,0,0,2.0235-5.8754c.5608-1.997,1.0305-4.02,1.4264-6.0546a57.533,57.533,0,0,0,.9084-6.1411L13.3,28.0335l.4,1.6828c.4771,2.0042,1.043,3.9994,1.6933,5.9567a34.6917,34.6917,0,0,0,2.3481,5.6927,7.8332,7.8332,0,0,0,1.82,2.3527,1.8607,1.8607,0,0,0,1.2781.439,3.9184,3.9184,0,0,0,1.4335-.2545,5.3821,5.3821,0,0,0,2.3142-1.82,9.6393,9.6393,0,0,0,1.4279-2.67l.1587-.4544.1962.44a4.8641,4.8641,0,0,0,2.6859,2.5126,5.3776,5.3776,0,0,0,1.8684.3549,4.7952,4.7952,0,0,0,1.8734-.29A5.9471,5.9471,0,0,0,35.62,39.473c.7117-1.0857,1.171-2.3043,1.7953-3.4707l.0808-.1511L37.5956,36A11.34,11.34,0,0,0,40.41,39.0048a4.5358,4.5358,0,0,0,1.856.8,3.9123,3.9123,0,0,0,1.989-.2476,7.4217,7.4217,0,0,0,3.0805-2.6347,16.4616,16.4616,0,0,0,1.9682-3.63l.16-.4054.1658.4039a12.7655,12.7655,0,0,0,1.1021,2.1128,5.6545,5.6545,0,0,0,1.584,1.6993,1.978,1.978,0,0,0,1.0443.3279,3.6309,3.6309,0,0,0,1.14-.1159,4.6843,4.6843,0,0,0,1.9914-1.1343,12.3041,12.3041,0,0,0,2.6149-3.9294,33.2248,33.2248,0,0,0,1.62-4.522,82.0937,82.0937,0,0,0,2.023-9.4378c.5326-3.1861.872-6.38,1.3762-9.6037L64.5,6.2858l.3347,2.419a128.34,128.34,0,0,0,2.3734,12.8885,32.5143,32.5143,0,0,0,2.0536,6.1525,5.6719,5.6719,0,0,0,.8526,1.289,1.536,1.536,0,0,0,.5509.3933c.2525.08.5018.1847.757.2462a4.2532,4.2532,0,0,0,1.5143.2022,1.409,1.409,0,0,0,.6381-.2037.7377.7377,0,0,0,.32-.46l.2426-1.5188.3015,1.4856a49.1721,49.1721,0,0,0,1.399,5.2867,37.5083,37.5083,0,0,0,2.0306,5.078,18.2006,18.2006,0,0,0,3.0324,4.51A7.8867,7.8867,0,0,0,83.07,45.6705a5.4065,5.4065,0,0,0,2.6377.5547l.0043.0677a5.5189,5.5189,0,0,1-2.7073-.4823,8.0768,8.0768,0,0,1-2.2732-1.5852,17.3024,17.3024,0,0,1-3.1878-4.516,37.9391,37.9391,0,0,1-2.1392-5.0981,49.5387,49.5387,0,0,1-1.5048-5.3246l.5441-.0332a1.2609,1.2609,0,0,1-.5459.8808,1.9651,1.9651,0,0,1-.9018.3151,4.8018,4.8018,0,0,1-1.7308-.1943c-.2789-.0638-.5392-.1674-.81-.25a2.1451,2.1451,0,0,1-.7892-.5343,6.26,6.26,0,0,1-.98-1.4276A30.7625,30.7625,0,0,1,66.54,21.76,129.0455,129.0455,0,0,1,64.122,8.7981l.71.017c-.5032,3.1609-.8784,6.3962-1.4293,9.5843a79.38,79.38,0,0,1-2.11,9.4971,33.7425,33.7425,0,0,1-1.7109,4.5753,12.7668,12.7668,0,0,1-2.7841,4.0487,5.1239,5.1239,0,0,1-2.1958,1.2064,4.0525,4.0525,0,0,1-1.2634.1112,2.3978,2.3978,0,0,1-1.2341-.4006,6.01,6.01,0,0,1-1.6856-1.8314,13.1044,13.1044,0,0,1-1.1146-2.1909l.3256-.0014a16.7751,16.7751,0,0,1-2.05,3.6888,7.6911,7.6911,0,0,1-3.2314,2.6956,4.2061,4.2061,0,0,1-2.12.25,4.7725,4.7725,0,0,1-1.9522-.851,11.5545,11.5545,0,0,1-2.8589-3.0866l.18-.0026c-.6183,1.127-1.0748,2.3749-1.7915,3.483a6.1773,6.1773,0,0,1-2.92,2.615,5.0607,5.0607,0,0,1-1.9666.3194,5.9457,5.9457,0,0,1-1.962-.3459A5.18,5.18,0,0,1,26.02,39.5372l.3547-.0141a9.9905,9.9905,0,0,1-1.4417,2.8222,5.839,5.839,0,0,1-2.4838,2.0152,4.4206,4.4206,0,0,1-1.6066.3155,2.3815,2.3815,0,0,1-.8554-.112,2.82,2.82,0,0,1-.7548-.4057,8.1421,8.1421,0,0,1-1.9932-2.5118,33.8962,33.8962,0,0,1-2.4208-5.7841q-.9627-2.9774-1.6612-6.0244l.5484-.0367a58.0882,58.0882,0,0,1-.9628,6.1936Q12.1,39.0592,11.2006,42.06a43.5412,43.5412,0,0,1-2.17,5.8706,17.44,17.44,0,0,1-1.5447,2.7284A6.5493,6.5493,0,0,1,6.44,51.8347a2.2453,2.2453,0,0,1-1.4306.6166Z"/><text class="cls-3" transform="translate(6.3662 25.312)">Boom!</text><text class="cls-4" transform="translate(18.066 37.9575)">W<tspan class="cls-5" x="4.8384" y="0">ow</tspan></text><text class="cls-4" transform="translate(29.5962 34.2847)">W<tspan class="cls-5" x="4.8384" y="0">ow!</tspan></text><text class="cls-3" transform="translate(42.6509 30.4321)">WOW!</text><text class="cls-3" transform="translate(55.6226 4.9077)">BOOM!!!</text><text class="cls-3" transform="translate(71.4761 25.312)">ahhh...</text></g></g></g></svg>