<svg xmlns="http://www.w3.org/2000/svg" viewBox="0 0 69.9774 96.719"><defs><style>.cls-1{fill:#575756;}.cls-2{fill:#0087b9;}</style></defs><title>Element 20</title><g id="Ebene_2" data-name="Ebene 2"><g id="Ebene_1-2" data-name="Ebene 1"><g id="Illustrationen"><path class="cls-1" d="M6.9392,53.4426a3.7693,3.7693,0,0,1-1.7575-.941l.0036.0029-.1965-.1861.0042.0047L4.66,51.9974l.0065.0057a.6289.6289,0,0,1-.2-.2155l-.165-.3213.2669.246.0014.0012.2536.2338-.324-.1284a.4426.4426,0,0,1-.2406-.2715l.0117.0211L3.94,51.1756l.0057.0061-.0684-.0546a.1834.1834,0,0,1-.06-.1369l.0175.0518a5.7321,5.7321,0,0,1-.6093-.8284l.0407.0377a.28.28,0,0,1-.1645-.2044l.0148.034L3.0356,49.97l.0314.0271c-.1556-.0882-.1584-.25-.2048-.281l.1151-.1382.0019.0012-.099.1521a.4952.4952,0,0,1-.1676-.22l.0067.0122-.1283-.1956.0323.03c-.1253-.0729-.1272-.213-.1483-.2482l-.1219-.1844c-.087-.1365-.1643-.2773-.2384-.4182l-.2167-.4209a1.8465,1.8465,0,0,1-.2153-.46l.009.0323A11.0077,11.0077,0,0,1,.9565,45.861l.031.0536c-.127-.1326-.1123-.2881-.1474-.343l.0053.01a1.5362,1.5362,0,0,1-.1461-.491l.007.0227a2.459,2.459,0,0,1-.197-.6828l.0022.0136L.369,43.8187l.0369.0657A.2665.2665,0,0,1,.3366,43.66c.0034-.051-.0039-.03.01-.016l-.0077-.008A.4041.4041,0,0,1,.2578,43.31c.0106-.0857.0083-.1311-.0053-.1463l.0076.0109a.315.315,0,0,1-.0527-.2229c.0029-.05-.0037-.0418.0033-.0329l-.0334-.0812L.164,42.6494l.01.0433a3.23,3.23,0,0,1-.1152-.8588,1.8755,1.8755,0,0,1-.0446-.4368c.0023-.1467.0145-.2842.012-.4126l.0049.0359a.8668.8668,0,0,1-.002-.4527l-.0052.0358.0135-.6927.0009-.05.0208-.0247c.0045-.0053.01-.0241.0081-.0792a.4854.4854,0,0,1,.0342-.2327l-.0138.053A8.15,8.15,0,0,1,.836,36.7332l-.0042.01c.0071-.0152.0105-.0561.03-.1166a.2653.2653,0,0,1,.1593-.1656l-.0753.074L1.3,35.8793l-.0214.0883a.2789.2789,0,0,1,.0512-.202.5746.5746,0,0,1,.1079-.1046l-.024.0265a4.02,4.02,0,0,1,.7368-.9281l-.0158.0158.1891-.19-.013.0131a4.9721,4.9721,0,0,1,.87-.7808l-.02.019c.0925-.0989.1819-.1063.19-.129l.003-.009.0262-.0135.1332-.0689-.0478.0515a.4679.4679,0,0,1,.3321-.2348l-.0082.0031c.0978-.0348.203-.1729.3978-.2056l-.0637.0365a.5378.5378,0,0,1,.1016-.1066.2324.2324,0,0,1,.1984-.0333l-.0693.0068a7.0722,7.0722,0,0,1,1.9377-.5879l-.0459.024a.2848.2848,0,0,1,.2658-.0634c.0727.0136.115.0164.1366-.0021l.0181-.0154.0286,0,.5059-.01-.0165.0022a.8.8,0,0,1,.4153.0053l-.0177-.0029.3106.0151.0267.0012.0159.0144c.0126.0114.0364.0151.0846.0122a.2632.2632,0,0,1,.1816.0411l-.0151-.0087a.9259.9259,0,0,0,.4216.0754,1.0678,1.0678,0,0,1,.4683.1359l-.0691.1122-.0027-.0021-.463-.3537.5274.2394c.0844.0383.2267.03.34.133l-.0207-.0127,1.1549.4591c.1927.0739.3865.1443.5824.2076a2.2682,2.2682,0,0,0,.594.1149l.0062.0006a1.05,1.05,0,0,0,.5-.0033l.0049-.0017.0062-.0008a7.451,7.451,0,0,0,1.6737-.5382c.2782-.1082.562-.2.8407-.2987l.42-.146.2055-.0711a.44.44,0,0,1,.2545-.0529l-.0269-.0005a10.6368,10.6368,0,0,1,1.1459-.1629c.39-.0265.7775.026,1.1542.0289h.0245l.02.0139a.19.19,0,0,0,.1126.0134.3559.3559,0,0,1,.216.04l-.0321-.0123a10.1722,10.1722,0,0,1,2.1176.6409l-.0274-.0072a.6146.6146,0,0,1,.3971.2269l-.0237-.0208.5813.3693-.0168-.0089a1.1334,1.1334,0,0,1,.1665.0764.3569.3569,0,0,1,.1522.1837l-.0332-.0487.4418.3793-.0275-.018a.5041.5041,0,0,1,.2573.26l-.0178-.03.1453.1757-.0536-.0382a.4837.4837,0,0,1,.2433.2554l-.0125-.0181.0528.0625-.0443-.0341a.4325.4325,0,0,1,.2044.2545l.01.0239,0,.0377a.3632.3632,0,0,1-.1906.2938l.0248-.0177a.6035.6035,0,0,1-.3482.214l.0682-.0272-.4933.3882.05-.0792a.4719.4719,0,0,1-.1968.2883c-.0876.061-.1694.094-.2289.1314l.0384-.0339-.086.1112.0246-.0477a1.08,1.08,0,0,1-.4735.5453l.0337-.0345-.208.3027.0129-.0224c-.0185.0389-.0349.0968-.0729.1666a.3846.3846,0,0,1-.2052.1789l.0767-.0609a4.97,4.97,0,0,0-.7146,1.7244,7.4427,7.4427,0,0,0-.1013.9383,6.9534,6.9534,0,0,0,.0272.9447l.0008.0077v.0074a1.1511,1.1511,0,0,0,.0616.5011L19.8487,41.6a.4681.4681,0,0,1,.0741.3l-.0035-.0575.0763.316-.0249-.0565a1.4935,1.4935,0,0,1,.1362.3669l.0147.0308-.0028.039a.5174.5174,0,0,0,.1135.27l-.0637-.0616a.3475.3475,0,0,1,.1634.2274c.0135.064.0232.0949.0207.0856l-.2932.1873-.0007-.0012.27-.2159a.95.95,0,0,1,.1584.2914l.0027.0028.0069.0158a1.1409,1.1409,0,0,0,.2315.3821L20.68,43.69a.4716.4716,0,0,1,.2245.207.5387.5387,0,0,1,.0458.1312.2041.2041,0,0,0,.02.0458,1.2994,1.2994,0,0,0,.2393.236l-.0846-.0455a.31.31,0,0,1,.2079.1743c.0223.0541.0362.0678.0152.0443l-.0087-.01.0192.02a5.3652,5.3652,0,0,0,1.8371,1.31l-.0237-.0074a1.38,1.38,0,0,1,.1682.0394.37.37,0,0,1,.2122.1879l.0281.0674-.018.06-.188.625-.0116.0387-.0017-.0063a1.02,1.02,0,0,0-.0191.1239.357.357,0,0,1-.1981.2687l.0856-.0866a1.378,1.378,0,0,0-.1771.436l-.0009.0222-.0084.0235c-.0239.0667-.0394.1566-.0773.2611a.5762.5762,0,0,1-.2295.2962l.0412-.0365a3.2161,3.2161,0,0,0-.2542.5282l.019-.0617a.5763.5763,0,0,1-.2816.4571l.0613-.0591L21.6906,50l.0222-.0566a.6269.6269,0,0,1-.08.22.3938.3938,0,0,1-.24.1692l.0858-.0517a.6051.6051,0,0,0-.16.2312l.0049-.03a.3186.3186,0,0,1-.0817.1943.3761.3761,0,0,1-.15.096l.0778-.0593-.1885.2569.017-.03a.7182.7182,0,0,1-.1536.2579.3635.3635,0,0,1-.0851.0592c-.0322.0161-.07.0295-.0429.0173.037-.0249.0338-.0627.03-.0278l-.0022.0234-.0034.0116a.5827.5827,0,0,1-.2325.2879l.0328-.0386-.0014.0023.0171-.0395a.51.51,0,0,1-.3.3495l.06-.043a6.4023,6.4023,0,0,0-.5566.5567l-.0082.0128-.0092.0092c-.0474.0474-.0934.1236-.1617.2067a.5442.5442,0,0,1-.3084.1965l.0513-.0217a5.1311,5.1311,0,0,1-1.39.7109,4.191,4.191,0,0,1-1.566.0782l.01.0008a2.5591,2.5591,0,0,1-.719-.1457c-.1146-.039-.2255-.084-.3352-.1314-.0663-.0392-.2185-.0222-.3569-.1438l.04.024a2.8508,2.8508,0,0,1-.652-.2847l.0407.0156a.8351.8351,0,0,1-.37-.1349l.0343.0162a9.2933,9.2933,0,0,0-1.0653-.252,3.48,3.48,0,0,0-1.076-.0305l-.0142.0023-.0138-.0026-.026-.0048.0307,0-.026.0047.0343-.0148a.541.541,0,0,1-.3687.0741,2.0218,2.0218,0,0,0-.3156.0141l.035-.0117a1.3774,1.3774,0,0,1-.4159.1182l-.0068.0019-.0059,0a4.8372,4.8372,0,0,0-.8031.2543l.0365-.0265a.42.42,0,0,1-.2355.1716.5891.5891,0,0,1-.14.02.2949.2949,0,0,0-.0992.0075l.0145-.0119c-.0919.1-.219.0974-.2944.1293l-.0028.0012-.0029.0008-.945.2527.013-.0067c-.1316.0882-.26-.0106-.3275.0527l-.0074.007-.0128,0L7.2,53.5032H7.1948l-.0038-.002C7.1229,53.4643,7.021,53.49,6.9392,53.4426Zm.012-.0317c.0751.0431.1654.0114.258.0526L7.2,53.4615l.8211-.0112-.02.0067c.1262-.0859.26.0058.32-.06l.0036-.0039.01-.0029.9371-.2806-.0055.0018c.1071-.0412.2034-.0476.2485-.1071l.0071-.0093.0078-.0028c.1387-.0492.18-.0112.2605-.0453a.2928.2928,0,0,0,.1628-.1263l.0124-.02.0243-.007a4.5722,4.5722,0,0,1,.8232-.2833l-.0125.0022a1.336,1.336,0,0,0,.3709-.1058l.0154-.01.02-.0016a2.1929,2.1929,0,0,1,.3377-.02.3826.3826,0,0,0,.26-.0468l.014-.0109.0206-.0041.026-.0051.0147-.0029.0161.0027.0261.0044-.0276,0a3.6719,3.6719,0,0,1,1.128.0127,9.4858,9.4858,0,0,1,1.0916.2394l.0184.0047.0162.0117a.6367.6367,0,0,0,.2821.0927l.0212.0031.02.0126a2.6714,2.6714,0,0,0,.6082.2516l.0276.009.0129.0151c.04.0464.1486.042.2946.0968.1056.0436.2123.0849.32.12a2.3226,2.3226,0,0,0,.6537.1225h.0024l.0079.0008a3.9568,3.9568,0,0,0,1.46-.0933,4.8724,4.8724,0,0,0,1.302-.6962l.0277-.0189.0238-.0029c.1043-.0126.1616-.1462.3123-.3248l-.0172.0218a5.5763,5.5763,0,0,1,.5718-.5981l.0219-.0264.0388-.0167a.1871.1871,0,0,0,.1087-.1434l.0061-.0209.0112-.0189.0014-.0023.014-.0236.0189-.0153c.0893-.0719.1264-.1078.1275-.13l-.0055.0347a.278.278,0,0,1,.1223-.2342.5907.5907,0,0,1,.0649-.0307l.0111-.0084a.5544.5544,0,0,0,.0736-.152l.0053-.0132.012-.0168.1843-.26.0148-.0207.0632-.0387c.0406-.0248.0051.0041.0115.0031l.0049-.0305a.9008.9008,0,0,1,.2346-.3742l.03-.0345.0556-.0173c.0353-.011.0393-.0117.0665-.1248l.0082-.0338L21.4,49.82l.6283-1.0211.0226-.0365L22.09,48.74a.2257.2257,0,0,0,.1085-.1955l.0044-.0356.0146-.0263a2.9528,2.9528,0,0,1,.2909-.5867l.0209-.0263.0205-.01c.0813-.0412.1011-.1662.1634-.3782l-.0091.0454a1.565,1.565,0,0,1,.206-.5572l.0857-.0867c.0064-.0111-.0122.0259.0007-.013a.6718.6718,0,0,1,.0544-.2274l-.0131.0321.1862-.6255.01.1271c-.0077-.0087.0064.0011-.0127-.0083-.0193-.0079-.0657-.0136-.1311-.0281L23.08,46.137l-.0133-.0051a5.7156,5.7156,0,0,1-1.9645-1.3863l.01.01a.42.42,0,0,1-.104-.1608c-.0166-.023.0179.0221.0371.02l-.0848-.0457a1.4189,1.4189,0,0,1-.3012-.3207.5489.5489,0,0,1-.054-.1342.1892.1892,0,0,0-.0155-.0531.1162.1162,0,0,0-.0588-.05l-.0285-.014-.02-.0191a1.467,1.467,0,0,1-.3071-.497l.0093.0184a1.9015,1.9015,0,0,0-.1-.22l.27-.2159.0007.0012-.2932.1873a.551.551,0,0,1-.0668-.1934c-.0116-.0357-.0022-.0086.0043-.0091l-.0638-.0619a.82.82,0,0,1-.16-.4615l.0119.07a1.8635,1.8635,0,0,0-.0986-.3009l-.0167-.0208-.0083-.0359-.0741-.3166-.0067-.0285.0031-.0293a.1273.1273,0,0,0-.0241-.0856l-.0062-.01-.0034-.0073a1.4407,1.4407,0,0,1-.0892-.6453l0,.0149a7.2952,7.2952,0,0,1-.0212-.99,7.7292,7.7292,0,0,1,.1139-.9844,5.2851,5.2851,0,0,1,.7707-1.8274l.0363-.0557.0406-.0054c.0309-.0041.0515-.0477.1086-.1852l.0042-.01.0089-.0124.2126-.2995.0156-.0219.0184-.0128c.1823-.1269.3315-.2339.374-.3876l.0071-.026.0177-.022.0875-.11.0187-.0234.02-.0107c.18-.0965.2877-.1382.3024-.2361l.0069-.0463L21.65,35.83,22.15,35.45l.0359-.0274.0325,0c.05,0,.1049-.0523.1989-.1425l.0084-.008.0166-.01a.0977.0977,0,0,0,.06-.0863l.01.0613c-.0335-.0857-.0523-.1173-.0739-.1252l-.0236-.0086-.021-.0256-.0517-.0632-.0086-.0105-.0041-.0078c-.0494-.0943-.0761-.1378-.109-.1471l-.03-.0084-.024-.03-.1428-.1778-.0118-.0147-.0062-.0152a.2569.2569,0,0,0-.1343-.1374l-.016-.0078-.0118-.01-.436-.386-.0269-.0237-.0064-.0252c-.0133-.0529-.0728-.0819-.1891-.1287l-.0084-.0034-.0087-.0057-.5756-.3781-.0144-.0094-.0095-.0116a.3993.3993,0,0,0-.2575-.1579l-.0147-.0018-.0129-.0055a9.75,9.75,0,0,0-2.0679-.6584l-.02-.0035-.0125-.0089a.1932.1932,0,0,0-.1131-.0141.3514.3514,0,0,1-.2158-.0432l.0445.014c-.3889-.0077-.7644-.0631-1.1409-.0411a10.5758,10.5758,0,0,0-1.1287.1488l-.0144.0018-.0127-.0023a2.0319,2.0319,0,0,0-.3868.1156l-.4205.1412c-.28.0962-.5616.1836-.8366.2872a7.5379,7.5379,0,0,1-1.7065.527l.0108-.0025a1.15,1.15,0,0,1-.5522.0024l.0059.0005a2.4379,2.4379,0,0,1-.6208-.1253c-.1991-.0614-.3957-.13-.5907-.2016l-1.1607-.4432L9.3305,33l-.008-.008c-.0625-.0616-.1752-.0581-.3034-.104l.0644-.1142.0028.0021-.0691.1122a.9406.9406,0,0,0-.41-.1161,1.0694,1.0694,0,0,1-.4785-.0807L8.12,32.687l-.0059-.0048c-.0135-.011-.0385-.0137-.0869-.01a.2588.2588,0,0,1-.1832-.0415l.0424.0156-.3108-.0109-.0088,0-.0092-.0026a.6443.6443,0,0,0-.3356.0013l-.0076.0019-.0092,0-.5057.0172.0464-.016a.327.327,0,0,1-.26.0348c-.0692-.0106-.0947-.0067-.1183.0176l-.0187.0192-.0275.005a6.89,6.89,0,0,0-1.88.5972l-.0326.0164-.0369-.01c-.0283-.0073-.0288-.003-.0917.0746l-.0269.0333-.0369.0034c-.0965.0089-.1836.1175-.3445.1963l-.0034.0017-.0051.0016c-.1166.037-.1838.0639-.2044.1226l-.0111.0321-.0367.02-.1324.07.029-.0223c-.0951.09-.1748.0991-.1786.12l-.0008.0049-.0192.0142a4.7526,4.7526,0,0,0-.8222.7553l-.0132.0134-.1592.1639-.0136.014-.0024.002a3.8385,3.8385,0,0,0-.68.8858l-.01.0144-.0147.0123c-.0717.06-.0719.0668-.0684.0823l.0076.033-.029.0555-.3182.6071-.0042.008-.0714.0661c-.008.0075.006-.01-.0028.0067-.0069.0172-.0094.0593-.03.1214l-.0012.0037-.003.0066a7.87,7.87,0,0,0-.69,2.7551l-.0021.0354-.0117.0179a.2511.2511,0,0,0-.004.096.4245.4245,0,0,1-.0494.2452l.0217-.0749L.3242,40.61l0,.0191-.0048.0169a.5669.5669,0,0,0-.0022.2987l.0048.0188v.0174c.0008.15-.0138.2907-.0171.4225a1.5913,1.5913,0,0,0,.037.3927,3.2883,3.2883,0,0,0,.0868.7926l.0088.0209.0013.0226L.45,42.82l-.0334-.081a.3.3,0,0,1,.0619.2287c-.0047.052.0023.0532-.0047.042l.0078.0112a.4689.4689,0,0,1,.0418.3163c-.0088.0792-.0036.1027.0142.1239L.53,43.4537a.2662.2662,0,0,1,.0683.2258c-.004.0508.0025.03-.0115.0171l.037.0659L.758,44.39l.0017.0077.0006.0061a2.22,2.22,0,0,0,.1714.6159l.005.0122.002.0108a1.3584,1.3584,0,0,0,.1128.42l.0042.0071.0013.0035c.0556.1471.0526.2437.0948.2748l.0215.0158.01.038a10.8222,10.8222,0,0,0,.7,1.7686l.0082.018.0009.0145a2.0417,2.0417,0,0,0,.1881.39l.2113.4234c.0711.1392.1443.2761.2253.4067.0432.0754.0763.1069.1336.2134.0357.1059.0407.1509.0657.1592l.0163.0055.0161.0251.1258.1973.0043.0067.0025.0058a.32.32,0,0,0,.1011.1451l-.099.1521-.0019-.0012.115-.1381c.0971.1283.0986.23.152.2455l.0155.0046.0162.0228.0793.112.0109.0154.004.0189a.1005.1005,0,0,0,.0629.08l.0279.0136.013.0244a5.6823,5.6823,0,0,0,.5822.8109l.0281.0356-.0105.0164c-.0061.01.0075.0186.0764.0775l.0024.002.0034.0044.318.403.0086.0109.0033.01a.308.308,0,0,0,.1616.1993l-.07.1053L4.48,51.8054l.1017-.0753a.5064.5064,0,0,0,.1568.1769l.0042.0032.0025.0027.3229.336.0044.0049.1707.1722.0038.0032A3.7048,3.7048,0,0,0,6.9512,53.4109Z"/><path class="cls-1" d="M17.4279,27.34a.81.81,0,0,0-.0678.3729l0,.0015v.0031a.5382.5382,0,0,1-.1242.4088l.0068-.0087a.9253.9253,0,0,1-.1441.4021l-.185.3891-.3685.7786.0061-.0135a.4842.4842,0,0,1-.2331.3324l.0484-.0378c.0039.0037.005.0021.0006.0013a.6574.6574,0,0,1-.0174.0741.5139.5139,0,0,1-.0735.1467.7127.7127,0,0,1-.2278.1941l.0358-.0281-.172.1962.0243-.0359a.7389.7389,0,0,1-.4764.4581l.0477-.0235-.1193.0859.0484-.062a.3639.3639,0,0,1-.2163.1939l.0318-.0175a6.0167,6.0167,0,0,1-2.82,1.0945l.004-.0006a1.9971,1.9971,0,0,1-.7215-.0065l-.0178-.007c-.0345-.0043-.0735-.0956-.0465-.1286.0162-.0309.0147-.0487.0166-.0252l-.0039-.0176c-.01-.1217-.0472-.2462-.0661-.3818a.6744.6744,0,0,1,.0563-.4235l-.0093.0315.0059-.19.0005-.0157.0065-.0123c.0238-.0458-.0037-.1376.0439-.2594l-.0083.0327a2.5424,2.5424,0,0,1,.1874-.8637l-.0036.0093.0224-.1388a.2986.2986,0,0,1,.14-.1972l-.0638.0995a.817.817,0,0,1,.17-.4509l-.03.079c.0179-.1651.1192-.23.1013-.236l-.001,0,.01-.0209a5.0842,5.0842,0,0,1,.7124-1.1368l-.0317.0527a.4887.4887,0,0,1,.2749-.2888l-.0723.0557a1.2744,1.2744,0,0,1,.3789-.4329l-.0749.081a.4066.4066,0,0,1,.0905-.1351.2994.2994,0,0,1,.2131-.0786l-.1315.0523a2.0823,2.0823,0,0,1,.48-.378l-.0729.0735a.7428.7428,0,0,1,.4218-.3143l-.0321.0179.1134-.0794-.0427.0433a.6389.6389,0,0,1,.3114-.2237,1.1757,1.1757,0,0,0,.2412-.1078,3.4432,3.4432,0,0,1,.5464-.2367c.3711-.1318.7458-.2192,1.1144-.3118l-.0285.0142a.3784.3784,0,0,1,.2634-.044.28.28,0,0,0,.1514-.0043l.0243-.0125.0174.0007.3648.0149.0632.0025.0012.056A4.3912,4.3912,0,0,1,17.4279,27.34Zm-.0322-.0108a3.5285,3.5285,0,0,0,.0011-1.5158l.0643.0584-.3644.0226.0415-.0118a.4269.4269,0,0,1-.2475.05.18.18,0,0,0-.13.0287l-.005.005-.0238.0093c-.36.1414-.7236.2567-1.0664.4014a5.2536,5.2536,0,0,0-.4942.2446c-.19.1174-.4044.1517-.4311.23l-.0058.0169-.0371.0266-.1125.0806-.0159.0115-.0164.0066c-.1411.0574-.22.0988-.2461.158l-.0195.0447-.0536.029a1.7554,1.7554,0,0,0-.3933.3211l-.1317.0525s.033-.0058.0414-.017c.0082-.01-.0014-.0006-.0111.021l-.0261.0583-.0491.023c-.0923.0431-.1639.17-.2791.327l-.0275.0375-.045.0183a.1434.1434,0,0,0-.09.0885l-.0149.0346-.017.0183a5.412,5.412,0,0,0-.7058,1.0475l.0089-.021a.5732.5732,0,0,1-.1007.1577l.0793-.0477-.1089.1269a.5508.5508,0,0,0-.137.2991l-.0073.0646-.0566.035c-.0146.0092-.0168.0053-.0283.0374s-.0129.0841-.0361.1532l-.0022.0064-.0014.0032a2.3483,2.3483,0,0,0-.2218.7827l-.0024.0246-.0062.0083c-.0284.0385-.0095.1334-.0579.2488l.0069-.0277-.0184.1891-.0021.0208-.0073.011c-.132.1961-.028.4534-.0045.7247l-.0039-.0173a.1354.1354,0,0,1-.018.109c.0023.012-.0113-.0261-.0021-.0092l-.0176-.0069a1.5508,1.5508,0,0,0,.6775.0094l.0012,0,.003-.0005a4.4339,4.4339,0,0,0,1.4128-.4332,8.0815,8.0815,0,0,0,1.2495-.7865l.0127-.0092.0193-.0084c.0447-.02.0483-.0288.0512-.0371l.0119-.0344.0367-.0278.1172-.0888.02-.0152.0278-.0084a.5224.5224,0,0,0,.2939-.2974l.0121-.0232.0123-.0128.1812-.1879.0185-.0192.0175-.009a.4485.4485,0,0,0,.1471-.1094.2407.2407,0,0,0,.0387-.0676l.0123-.0435a.5265.5265,0,0,1,.0522-.1088l.0193-.03.0292-.0076c.048-.0123.0847-.0688.1282-.1769l.004-.01.0022-.0036.4476-.7367.2231-.3685a.733.733,0,0,0,.1686-.3873l0-.0036.0065-.0053a.4872.4872,0,0,0,.1186-.3652v.0043A.8468.8468,0,0,1,17.3957,27.33Z"/><path class="cls-1" d="M30.5469,73.9179l.92.6453-.0451.0078a4.3727,4.3727,0,0,1,1.0755-1.2186,2.1964,2.1964,0,0,1,1.552-.4914,1.2521,1.2521,0,0,1,.7716.3461,1.5463,1.5463,0,0,1,.3832.7534,2.5758,2.5758,0,0,1,.055.8329,2.2433,2.2433,0,0,1-.3569.7656A6.3282,6.3282,0,0,1,32.5806,77.84a1.2828,1.2828,0,0,1-.8226.25,1.1532,1.1532,0,0,1-.7682-.4241,2.1876,2.1876,0,0,1-.4214-.74,2.9005,2.9005,0,0,1-.1063-.4093L30.43,76.309l-.0113-.1032c0-.0224-.0106-.1-.0051-.0489l.182.048c-.7274.609-1.4885,1.2855-2.2311,1.9249l-.28.2431c-.1183.1094-.0675.0276-.08.21l.0036.7417L28,80.8079l-.0163,2.9668a1.3442,1.3442,0,0,1-.0336.411,1.863,1.863,0,0,1-.2159.3426c-.1478.2039-.3071.3983-.472.5866-.331.3756-.6867.7249-1.0445,1.0663l-1.0754,1.0222-.5474.5173a.2852.2852,0,0,1-.2678.0415.2915.2915,0,0,1-.2-.1792.5205.5205,0,0,1,.0814-.4437l.9578-1.1406.117-.1392a.1889.1889,0,0,0,.0389-.12l.0023-.3708.0046-.7416.0295-5.9332.0539.0538-4.9554.0212-2.4777.0106a3.7526,3.7526,0,0,1-2.4-.6556A9.2432,9.2432,0,0,1,13.82,76.3458c-.2593-.3255-.5-.6625-.7349-1.0032l-.3576-.512a1.0961,1.0961,0,0,1-.1338-.6693l-.0134-2.4775-.0044-1.2387c0-.129.0036-.149-.0336-.1913l-.2015-.2328-.4065-.47-.0941-.1087.1007-.1046,1.0521-1.0911.0472-.0489.0688-.0006.0353,0,.1321-.0012.0292.1351.0624.2886a1.6129,1.6129,0,0,1,.02.3219l.0025.5894.0052,1.1788.01,2.3577A6.0356,6.0356,0,0,0,13.47,74.215a1.2655,1.2655,0,0,0,.4667.9138,5.7462,5.7462,0,0,0,.964.6087l.2527.1435c.0348.0114.04,0,.06.0136l.1439.0013.59.0007,9.4311.033-.14.1113a2.7641,2.7641,0,0,1,.32-.9058,3.7985,3.7985,0,0,1,.597-.7362l1.3062-1.3129,1.3057-1.3121a.2462.2462,0,0,1,.3439-.0616c.1038.1562.06.2027.0707.3053a.6768.6768,0,0,1-.2489.46,4.301,4.301,0,0,0-.5857.685,1.7317,1.7317,0,0,0-.3525.7982,8.4579,8.4579,0,0,0-.03.9107l-.0089.9229-.0032.2282c.0052.04.002.028.002.028a.4828.4828,0,0,0,.0942.0066l.4585.0042a3.0845,3.0845,0,0,0,1.7365-.4364c.1152-.1008.2825-.1535.2621-.3084l.0058-.4615A8.04,8.04,0,0,1,30.5469,73.9179Zm.0116.0319.01.906.0058.4618a.2519.2519,0,0,1-.101.2283c-.0593.05-.12.0991-.1833.1451a3.1828,3.1828,0,0,1-1.7792.4976l-.4647.0074a.5044.5044,0,0,1-.1352-.0106.1585.1585,0,0,1-.1026-.1579l-.0028-.2335L27.8,74.87a8.4575,8.4575,0,0,1,.02-.9339,1.9192,1.9192,0,0,1,.3709-.8794,4.4922,4.4922,0,0,1,.6027-.7241.4722.4722,0,0,0,.1811-.3283c.0084-.0462-.019-.17-.0088-.14.034.02.0038-.01-.0515.0636l-1.2818,1.3235-1.2813,1.3226a2.5852,2.5852,0,0,0-.8325,1.5317l-.0142.111-.1262,0-9.4313.0308-.59.0006-.15-.001a.92.92,0,0,1-.2245-.0572l-.26-.1469a5.9212,5.9212,0,0,1-1.0237-.6488,1.6326,1.6326,0,0,1-.5843-1.1246,6.294,6.294,0,0,1-.062-1.2019l.0037-2.3579.0018-1.179.001-.5895a1.84,1.84,0,0,0-.0736-.5534l.1612.1339h-.0352l.1159-.0494-1.0585,1.0849.0066-.2131.4014.47.2024.2368a.5374.5374,0,0,1,.1066.3939l-.0068,1.2389L12.86,74.1622a.8522.8522,0,0,0,.0838.5272l.3453.5081c.2294.3425.4646.6806.716,1.0045a9.0519,9.0519,0,0,0,1.6907,1.7564,3.5275,3.5275,0,0,0,2.2834.6461l2.4776.0118,4.9552.0236.0537,0,0,.0538.0249,5.9333.004.7417.0019.3708a.3648.3648,0,0,1-.0727.2266l-.12.1462-.9372,1.1419a.3366.3366,0,0,0-.0513.2618c.0032.0408.1306.0832.1534.0421l.5244-.508,1.0642-1.0328c.354-.3447.7008-.693,1.02-1.0628.1588-.1853.3113-.3754.4516-.5734a1.8852,1.8852,0,0,0,.18-.2823,1.293,1.293,0,0,0,.0147-.3249L27.71,80.8078l-.0068-1.4832.0041-.7416a.7289.7289,0,0,1,.0224-.2339.477.477,0,0,1,.1645-.1989l.2827-.24c.7632-.6418,1.4854-1.277,2.2824-1.9242l.1167-.0949.0653.143a.2866.2866,0,0,1,.0339.146l.01.0981.0277.1931a2.6376,2.6376,0,0,0,.093.3745,1.9434,1.9434,0,0,0,.3671.662.9165.9165,0,0,0,.606.35,1.0709,1.0709,0,0,0,.695-.2148,6.1229,6.1229,0,0,0,2.267-2.1847,2.1835,2.1835,0,0,0,.3374-.6827A2.3941,2.3941,0,0,0,35.0345,74a1.376,1.376,0,0,0-.3311-.6759,1.1408,1.1408,0,0,0-.6726-.3135,2.0682,2.0682,0,0,0-1.4709.4291,4.2911,4.2911,0,0,0-1.0854,1.1674l-.0187.0282-.0265-.02Z"/><path class="cls-1" d="M31.72,75.1417a4.436,4.436,0,0,1,1.094.8022c.1607.1663.2735.3866.481.386.219.001.3078-.24.248-.45a3.3835,3.3835,0,0,0-.1447-.6025.56.56,0,0,0-.4429-.23,5.9324,5.9324,0,0,0-.6524-.0644A.841.841,0,0,0,31.72,75.1417Zm-.0338-.003a.9869.9869,0,0,1,.2417-.2866.7126.7126,0,0,1,.3666-.1348,2.8086,2.8086,0,0,1,.7137-.0282.807.807,0,0,1,.6771.4485,1.75,1.75,0,0,1,.0433.7449.7556.7556,0,0,1-.0993.3594.4326.4326,0,0,1-.3277.1978.6531.6531,0,0,1-.3765-.0879l-.2933-.1924A3.947,3.947,0,0,1,31.6858,75.1387Z"/><path class="cls-1" d="M22.08,66.12c-.0224-.5645-.0026-1.1362.0043-1.71-.0112-.133.0373-.3183-.0341-.3719-.1018-.083-.2223-.1805-.3245-.2816a1.8544,1.8544,0,0,1-.4908-.7372,3.0629,3.0629,0,0,1-.1019-.8742,1.8589,1.8589,0,0,1,.0007-.2363.4051.4051,0,0,1,.1561-.2134l.32-.2869c.4327-.3826.8376-.7648,1.2934-1.1478l.1936-.1626-.0242.2506a2.3321,2.3321,0,0,0,.4895,1.6211,9.125,9.125,0,0,0,1.2389,1.2627l.1631.1528a.68.68,0,0,1,.1692.2173.3159.3159,0,0,1,.0279.1928.4141.4141,0,0,1-.0711.1532l-.1456.1864a6.0667,6.0667,0,0,1-.6388.6631c-.1139.1024-.2312.2006-.3506.2955l-.1814.1394-.0923.0672a.3282.3282,0,0,1-.18.08.29.29,0,0,1-.201-.0862l-.087-.07-.1738-.141-.348-.2795.239-.1169a5.22,5.22,0,0,1-.1106,1.3388,3.1972,3.1972,0,0,1-.2318.6449l-.0346.07c-.0031.0123.0051-.0167-.005-.0356-.0141-.017.05.0544.08.087l.2215.2449a7.1487,7.1487,0,0,1,.8446,1.0156l.183.2787.0914.1394.0457.07a.3115.3115,0,0,1,.0455.1149c.0142.2617-.0008.45,0,.678l-.023,2.6263a1.5287,1.5287,0,0,1-.0221.3542c-.0734.1514-.164.18-.239.2689l-.4762.4521-.9524.9041-.4762.4521-.2381.226c-.0738.0651-.1557.1815-.3049.1858l-1.3132.0082-2.6264.0166a6.7072,6.7072,0,0,1-1.3234-.0684,2.4792,2.4792,0,0,1-1.2482-.5064,1.2138,1.2138,0,0,1-.3809-.6061l-.008-.6662c-.0014-.442-.0142-.8662-.0062-1.323l.0034-.1945.18.1032a4.117,4.117,0,0,0,.8733.4731.9636.9636,0,0,0,.863-.1805,5.2862,5.2862,0,0,0,.72-.6954l.7116-.7487,1.4283-1.4928.3574-.3729c.0557-.0605.1249-.1269.1972-.193.0756-.0684.08-.0726.1-.1241.0189-.101.0025-.129-.1516-.2727l-.3669-.3632-1.4688-1.4477a3.4734,3.4734,0,0,0-.7537-.6207.3145.3145,0,0,0-.3272.0159.7412.7412,0,0,0-.0864.0549l-.0406.0326c-.0193.0187.0233-.0237.022-.0311l.0051-.0134-.0036.2258-.0269,2.0641-.0134,1.0321c.014.34.0662.6719.0941,1.0088l.0124.1477-.1473.036a.381.381,0,0,1-.314-.0262c-.0914-.07-.1111-.0961-.17-.1467l-.2954-.2721c-.1948-.1846-.3858-.3749-.5665-.5765a6.38,6.38,0,0,1-.5071-.6369,1.7149,1.7149,0,0,1-.3323-.786,1.5046,1.5046,0,0,1,.0069-.4354.6877.6877,0,0,1,.2243-.4077l.543-.5822L16.28,65.066a2.8149,2.8149,0,0,1,.3034-.3.323.323,0,0,1,.1395-.0425l.1046.0006.199.0019.7958.0078,1.5917.0166.7958.0145c.177-.0121.2771.1365.3688.2108l.2933.2692.5865.5383.2932.269A.2554.2554,0,0,0,22.08,66.12Zm.0291.0173a.2879.2879,0,0,1-.3892-.05L21.417,65.83l-.6053-.5164-.3026-.2581c-.1064-.0839-.1895-.1933-.2993-.17l-.7957.0144-1.5912.0162-.7955.0076c-.1144.0087-.31-.0139-.3416.0207-.058.0478-.1688.1817-.2506.2683l-1.0625,1.1821-.5311.5921a.4176.4176,0,0,0-.1524.2735,1.2264,1.2264,0,0,0,.0011.3574,2.7478,2.7478,0,0,0,.7927,1.2545c.1771.19.3657.371.5594.5476l.295.2614.1315.1128c-.0078-.0079-.04.0046.07-.024l-.1349.1837c-.0349-.3484-.0858-.7-.1018-1.0464l.01-1.0334.02-2.0669c.0039-.1-.0053-.1406.0095-.29a.298.298,0,0,1,.0246-.0746.26.26,0,0,1,.0637-.08l.06-.0484a1.1008,1.1008,0,0,1,.131-.0837.6757.6757,0,0,1,.6583-.0194,3.7464,3.7464,0,0,1,.8388.6777c.5017.479.9751.975,1.464,1.4616l.3639.3666a1.0685,1.0685,0,0,1,.2.2354.5027.5027,0,0,1,.032.3786.6068.6068,0,0,1-.2071.2812c-.0544.05-.1109.1016-.1725.1673l-.3605.37-1.44,1.48-.7208.7395a5.4716,5.4716,0,0,1-.7788.72,1.24,1.24,0,0,1-1.091.1986,4.2182,4.2182,0,0,1-.93-.5194l.1836-.0912-.0173,1.3026-.0052.6466a1.0923,1.0923,0,0,0,.31.4872,2.2919,2.2919,0,0,0,1.1481.476,6.563,6.563,0,0,0,1.2936.0828l2.6256.0177,1.3127.0089c.0856.0048.1515-.078.2328-.1576l.2343-.23.4685-.46.937-.9195.4685-.46c.0671-.0747.184-.16.1971-.2145a1.95,1.95,0,0,0,.0065-.2988l-.0206-2.6256c-.0042-.2089-.0008-.46-.0115-.6342a.0809.0809,0,0,0-.0155-.0361l-.0459-.0665-.0919-.1331-.1833-.266a6.9814,6.9814,0,0,0-.8544-.9786l-.2245-.2367a.7775.7775,0,0,1-.1323-.1621.2355.2355,0,0,1,.0041-.194l.0375-.0776a2.9112,2.9112,0,0,0,.2069-.59,4.9448,4.9448,0,0,0,.0926-1.2716l-.0031-.3084.2422.1916.3555.2811.1765.141c.0363.0389.18.1219.0816.0862-.0449.01-.0159.005.016-.0232l.089-.0659.1763-.1333q.1749-.1349.3413-.2791a5.7685,5.7685,0,0,0,.6178-.6221l.134-.1657c.0367-.068.0318-.0279.02-.0727-.0367-.0883-.1606-.1777-.2689-.2908a9.221,9.221,0,0,1-1.252-1.3206,3.3069,3.3069,0,0,1-.4167-.8307,2.6468,2.6468,0,0,1-.0864-.9248l.1693.0879c-.4244.3473-.8614.7438-1.2915,1.1133l-.3237.2819c-.0627.054-.0956.078-.103.1181-.0034.0241.0014.1315.0009.1924a2.9234,2.9234,0,0,0,.0812.8271,1.7721,1.7721,0,0,0,.43.6932c.0978.1042.1974.1905.3129.2935a.2834.2834,0,0,1,.0626.2434l-.0116.2143C22.1541,64.9842,22.1166,65.5566,22.1089,66.1375Z"/><path class="cls-1" d="M23.2873,72.1963l-.05-.612c-.0085-.1037-.0056-.1892-.0544-.2393-.0487-.0521-.1454-.1318-.2158-.1963q-.4632-.4049-.9072-.83c-.2985-.281-.6-.5572-.8853-.8514-.1438-.1455-.2912-.2876-.4291-.4394l-.21-.2245-.0524-.0561c0-.0036-.0082-.009-.0186-.0136-.0034-.002-.0089-.0022.0007-.003l.025-.0082-.0145.0092-.0583.0368a5.7326,5.7326,0,0,0-.8864.8174c-.2911.2883-.5584.599-.8365.9L17.09,72.3315l-.0981-.25c.4878.0126,1.0416-.0043,1.5607-.0055l1.5823.01,1.5828.0424Zm.0275.02c-.552.0865-1.0619.1061-1.5953.14-.5278.0315-1.0557.0433-1.5837.0641l-1.5843.0145c-.5362-.009-1.0387-.0122-1.6052-.0472l-.3152-.0194.217-.2308c.5772-.6138,1.1679-1.1592,1.7524-1.7409.2834-.2956.5777-.581.848-.8889l.4111-.4567a2.25,2.25,0,0,1,.4437-.4488l.0674-.0514.017-.0128a.149.149,0,0,1,.0612-.02.2228.2228,0,0,1,.0762.0072.261.261,0,0,1,.1141.0607l.0575.051.23.2038c.1555.1338.3017.2773.4512.4173.3018.2772.5874.5716.875.8626q.4355.4329.8518.8856c.0727.0815.1339.1344.2162.2395a.5092.5092,0,0,1,.0464.3537Z"/><path class="cls-1" d="M21.9181,78.8224a3.2956,3.2956,0,0,1,.8217.4153,3.8474,3.8474,0,0,1,.6451.64l.5917.695c.1006.1881.0434.3352.0613.4837l.0039.4513.0153,1.8051.0077.9027a4.7392,4.7392,0,0,1-.0068.4755.7339.7339,0,0,1-.1312.2336l-.1315.1855A8.3627,8.3627,0,0,1,22.59,86.4821a12.3737,12.3737,0,0,1-1.411,1.1558,3.0273,3.0273,0,0,1-.3959.2353,2.5075,2.5075,0,0,1-.4368.21.912.912,0,0,1-.2672.0231l-.2257-.001-.4513-.002-1.8051-.0078-1.8052-.0221-.9025-.0121a.5462.5462,0,0,1-.2642-.0456,1.3452,1.3452,0,0,1-.2029-.1393L14.0631,87.6a13.3451,13.3451,0,0,1-2.5714-2.5472l-.2682-.3653c-.0448-.0656-.0849-.114-.1321-.1947a.5008.5008,0,0,1-.0344-.2465l.0029-.9026-.0121-1.8051-.0241-3.61a1.94,1.94,0,0,1,.1249-.9263,2.035,2.035,0,0,1,.58-.73l.3389-.3053a.7479.7479,0,0,1,.217-.1611.6885.6885,0,0,1,.2681-.0161c.4166.1651.096.5263-.0226.5532a.8514.8514,0,0,0-.2808.27,6.6318,6.6318,0,0,0-.2967.8153.4347.4347,0,0,0-.03.1743l.0044.2256.0088.4511.0269,1.8044q.0036.9036.0526,1.8l.0205.4192a1.7525,1.7525,0,0,0,.2145.31q.27.3521.57.6808a13.0947,13.0947,0,0,0,1.2862,1.2269c.22.1892.4766.3693.7.5666a.5317.5317,0,0,0,.3095.1481,4.2615,4.2615,0,0,0,.4309-.0084l3.6129.0167,1.8053.0214.9025.0107a1.6259,1.6259,0,0,0,.8248-.1062c.221-.1216.4846-.3455.5136-.5649a6.5916,6.5916,0,0,0-.0794-.867,1.9745,1.9745,0,0,0-.8128-1.4647c-.1266-.0918-.2313-.126-.3989-.2307a.3242.3242,0,0,1-.0723-.2715l.0047-.2255.0189-.9024C21.8845,80.0336,21.8753,79.4527,21.9181,78.8224Zm.0174.029.0364,1.79.0175.9027.0044.2257c.0008.083-.0012.1419.0245.1527a4.22,4.22,0,0,1,.3872.2093,2.1652,2.1652,0,0,1,.9236,1.5694,6.2112,6.2112,0,0,1,.1.9267.7743.7743,0,0,1-.241.4556,1.4538,1.4538,0,0,1-.3844.3025,1.8638,1.8638,0,0,1-.9393.1532l-.9025.0087-1.8048.0176-3.6071.0094a4.0945,4.0945,0,0,1-.4706.0084.893.893,0,0,1-.4964-.2232c-.2288-.2007-.4676-.3653-.705-.5668A11.7891,11.7891,0,0,1,12.557,83.529q-.3052-.342-.5817-.7085a1.5052,1.5052,0,0,1-.2721-.4432c-.0221-.208-.0154-.3179-.0245-.4816q-.0418-.9074-.0355-1.8089l-.0057-1.8055.0006-.4513,0-.2257a.7617.7617,0,0,1,.05-.2662,6.1248,6.1248,0,0,1,.3431-.8684,1.1108,1.1108,0,0,1,.3707-.3432c.0949-.0506.0838-.0467.102-.0791a.0982.0982,0,0,0,.001-.0494c-.005-.0182,0-.0016.0069.0046a.0839.0839,0,0,0,.0365.0229c.0807.0128.0154.0034.0274.0063l-.0339-.001c-.1936-.0184-.1753-.0194-.3193.1087l-.338.2916a1.8511,1.8511,0,0,0-.55.656,1.7524,1.7524,0,0,0-.1249.842l-.0284,3.61-.0141,1.8049.0018.9025c-.0249.1618.0534.2379.152.3708l.2726.3573a13.1817,13.1817,0,0,0,2.5887,2.4709l.3614.2677c.1432.1024.1881.1546.346.1349l.9025-.0118,1.8049-.0216,1.8048-.0074.4512-.0018.2257-.0009a.6558.6558,0,0,0,.1807-.0123,5.1758,5.1758,0,0,0,.7561-.3974,12.0828,12.0828,0,0,0,1.3975-1.1069,8.0969,8.0969,0,0,0,1.1949-1.3149l.1326-.1805c.042-.0632.0986-.125.0982-.1509.0112-.1.0053-.2867.0087-.4258l.0074-.9024.0149-1.8049.0038-.4512c-.0091-.146.0275-.32-.0236-.4033L23.3,79.95a3.7728,3.7728,0,0,0-.6051-.6555A3.9544,3.9544,0,0,0,21.9355,78.8514Z"/><path class="cls-1" d="M29.09,77.4834a10.7925,10.7925,0,0,1,2.018,1.9758,1.0347,1.0347,0,0,1,.2567.7078l.0122.7016.0141,1.4029.0152,2.8058L31.397,86.48a.5858.5858,0,0,1-.0293.2237.6187.6187,0,0,1-.1234.1833l-.2331.2654-.481.5165c-.6524.6775-1.3422,1.3134-2.0387,1.9387l-.5233.4738a1.0484,1.0484,0,0,1-.6863.2372c-.47-.0005-.9358.0011-1.4039.0137a13.5266,13.5266,0,0,1-1.405-.0091c-.2387-.0192-.4618-.0136-.7136-.0533a1.2837,1.2837,0,0,1-.6162-.4019l-1.0114-.9717-.5067-.4847-.2534-.2423a.8241.8241,0,0,0-.2472-.1962l-.1374-.0427.0972-.1391.0346-.0495.039-.0559.07.0039a34.0457,34.0457,0,0,0,4.4934.0014l.5622-.0374.2664-.018a.1472.1472,0,0,0,.0345-.016l.1009-.098.813-.7774,1.63-1.5515A7.2982,7.2982,0,0,0,30.55,83.5a.7009.7009,0,0,0,.1518-.4511,1.9205,1.9205,0,0,0-.0684-.5175,2.7467,2.7467,0,0,0-.5752-.9021,6.3545,6.3545,0,0,0-.8-.7675c-.07-.0706-.1453-.0846-.2327-.22A.8538.8538,0,0,1,29,80.32l.0089-.5643C29.0338,78.9968,29.0343,78.2665,29.09,77.4834Zm.0136.031.0643,2.242.0083.5644a1.0163,1.0163,0,0,0,.014.2377,1.3116,1.3116,0,0,0,.1873.1511,6.5616,6.5616,0,0,1,.8509.7675,1.85,1.85,0,0,1,.5774,2.1744,6.7806,6.7806,0,0,1-1.4311,1.7814l-1.6321,1.57-.8178.7836-.1029.0972a.4277.4277,0,0,1-.2183.1008l-.2968.0175-.5647.03a29.1937,29.1937,0,0,1-4.5284-.0916l.109-.0519-.036.0485-.04-.1817a1.0707,1.0707,0,0,1,.2928.2431l.2464.25.4927.5.9874.9979a1.1233,1.1233,0,0,0,.5307.37c.209.0372.4567.0412.6834.0635a13.4565,13.4565,0,0,0,1.3988.0379c.4672.0035.9365-.0039,1.4022-.0133.4751.0286.7726-.389,1.1178-.6965.671-.651,1.3322-1.3111,1.9526-2.0052l.4558-.5279.2222-.2681c.0886-.1095.0833-.09.083-.2266l-.0076-1.4032.0182-2.8064.0156-1.4032.013-.7015a.8256.8256,0,0,0-.1885-.588A13.9616,13.9616,0,0,0,29.1035,77.5144Z"/><path class="cls-1" d="M29.0183,60.4265a.57.57,0,0,1-.1257.5494l-.34.4375-.3391.4367a.579.579,0,0,0-.1547.4567l.0435,2.2163c.0156,1.4775.0328,2.955.0151,4.4326L28.097,70.064a2.8143,2.8143,0,0,1-.1676,1.1261,2.9338,2.9338,0,0,1-.6532.9213c-.2433.2828-.4863.5639-.7517.82-.5213.5238-1.03,1.0594-1.5393,1.5949l-.76.8064-.3779.4055a.4631.4631,0,0,1-.2824.168l-.2868.0031-.09.001-.0023-.0922a1.7022,1.7022,0,0,1-.0007-.2936.5246.5246,0,0,1,.15-.2969l.3745-.41.7488-.8192.7455-.8159a.2273.2273,0,0,0,.0587-.1589l-.0018-.2715-.0042-.555c-.0124-1.48-.0261-2.96-.0152-4.44l.0133-2.22.02-1.11.005-.2775a.5315.5315,0,0,1,.0954-.3463l.3919-.4082c.5181-.53,1.02-1.0759,1.556-1.5867l.8012-.77.4026-.3826.2026-.1918A.281.281,0,0,1,29.0183,60.4265Zm-.0239.024c-.1826-.063-.2916.1244-.4188.2553l-.3766.4079-.7573.8115c-.5177.5294-.9988,1.091-1.4964,1.6373l-.3635.405c-.0544.057-.0183.28-.0241.46l.0194,1.11.0129,2.22c.0107,1.48-.0032,2.96-.0158,4.44l-.0044.555-.0028.2836a.53.53,0,0,1-.1425.345l-.7794.7976-.7765.794-.3882.397c-.1224.1044-.1161.2441-.11.4459l-.0925-.0911c.2255.001.33.0476.45-.1007l.3921-.3917.7793-.788c.5175-.5274,1.0351-1.0547,1.54-1.5938a10.6887,10.6887,0,0,0,.7288-.8279,2.7926,2.7926,0,0,0,.5843-.9,2.6176,2.6176,0,0,0,.1068-1.0571l-.0229-1.1082c-.0207-1.4778-.0066-2.9557.0059-4.4336l.0388-2.2167a.7251.7251,0,0,1,.2167-.5528l.371-.4142C28.6839,61.0537,29.0719,60.8223,28.9944,60.4505Z"/><path class="cls-1" d="M13.4784,96.3973c-.0087-.07-.0561-.13.0189-.1948.0629-.0288.1191-.0316.1712-.0534a.361.361,0,0,0,.2236-.2209,3.625,3.625,0,0,0,.0265-.6888l-.0336-1.4125c-.0435-.4353.0747-1.0638-.3208-1.1252a.6453.6453,0,0,0-.528.2172,1.997,1.997,0,0,0-.2163.2509l-.0514.07s.0035-.013,0,.0122l.0007.17.01,1.4125c.0043.2334-.0026.4757.0109.7015a2.24,2.24,0,0,0,.0339.32c.0269.0942.049.1226.127.1552a.8628.8628,0,0,0,.1436.0376.2567.2567,0,0,1,.1734.1113.2833.2833,0,0,1,.0332.1812.2476.2476,0,0,1-.0324.104.2077.2077,0,0,1-.1269.0934.5155.5155,0,0,1-.1262.0079l-.1766-.0012-.7064-.0046c-.485-.01-.91.0088-1.4444-.0257l-.0769-.005-.0189-.0912a.7637.7637,0,0,1-.0218-.1235.1974.1974,0,0,1,.0394-.1363.2124.2124,0,0,1,.1007-.0672c.0921-.0277.14-.0312.1939-.0516a.2181.2181,0,0,0,.1624-.2035c.02-.25.0384-.5248.04-.7932l.029-1.6224c-.0285-.2494.0427-.59-.2148-.6369-.0621-.0243-.1147-.0211-.2047-.0606a.146.146,0,0,1-.0792-.1414.2218.2218,0,0,1,.0511-.1284,2.0124,2.0124,0,0,1,.4-.1676c.5156-.1789,1.0036-.3772,1.538-.5506l.0644-.0209.0007.0772.0086.8734-.11-.048a3.4,3.4,0,0,1,.6379-.5252,1.6824,1.6824,0,0,1,.81-.2292,1.5772,1.5772,0,0,1,.8276.1929,1.4463,1.4463,0,0,1,.5416.6565l-.156-.0294a4.1008,4.1008,0,0,1,.7145-.6,1.8062,1.8062,0,0,1,.9264-.261,1.4385,1.4385,0,0,1,.9359.297,1.26,1.26,0,0,1,.4446.8836,16.061,16.061,0,0,1,.0717,1.839c.0028.304.0009.6131.0259.8961a.6027.6027,0,0,0,.03.1794c.0178.039.0212.0419.0656.0654a1.3114,1.3114,0,0,0,.1939.0563.3134.3134,0,0,1,.11.0519.2426.2426,0,0,1,.09.1751.8893.8893,0,0,1-.0088.1457l-.0126.15-.1526.0039c-.5889.0149-1.15.0088-1.7266.0077l-.43-.0012c-.0657.0016-.1567-.0044-.2014.0034a.2315.2315,0,0,1-.26-.212.3139.3139,0,0,1,.0479-.23.306.306,0,0,1,.204-.1136.4736.4736,0,0,0,.0747-.02.2207.2207,0,0,0,.0983-.0664.542.542,0,0,0,.07-.3134c.0289-.5438.0058-1.1368.0113-1.7029-.0187-.5331.1248-1.314-.3967-1.1675a.7948.7948,0,0,0-.323.1655,1.3331,1.3331,0,0,0-.27.2663c-.1055.1688-.0464.5011-.0676.7787-.0006.5706-.0272,1.1531-.0063,1.7135a.4825.4825,0,0,0,.0921.3416.3407.3407,0,0,0,.1488.08c.06.0355.1176-.0213.2472.1035a.22.22,0,0,1,.0134.1689.141.141,0,0,1-.074.0929.19.19,0,0,1-.0874.0152l-.2147-.004-.43-.0121C14.63,96.437,14.0739,96.44,13.4784,96.3973Zm.0245-.0234,1.7053-.042.43-.0112.2147-.0035c.0433-.01-.0017.0109.0053.0082a.1992.1992,0,0,0,.0028-.04.6761.6761,0,0,1-.1523-.0256.5119.5119,0,0,1-.2269-.1179.643.643,0,0,1-.1582-.4567c-.0383-.5836-.0278-1.1475-.0441-1.7221l-.0074-.429a.87.87,0,0,1,.0853-.4851,1.5145,1.5145,0,0,1,.324-.3491,1.08,1.08,0,0,1,.43-.232.6107.6107,0,0,1,.5371.0906.659.659,0,0,1,.2274.4773,7.7105,7.7105,0,0,1,.0389.8787c-.0031.579.0244,1.1328-.004,1.7326a.826.826,0,0,1-.1422.5033.5727.5727,0,0,1-.2488.1773c-.0863.0229-.219.0744-.1176.0123.0272-.0523.0117-.0369.017-.0226,0,0,.0021-.0261-.0415-.0655a.1126.1126,0,0,0-.0735-.0288c.0975-.01.15-.003.2277-.0054l.4295-.0009,1.71,0-.1651.1538.0085-.0813a.1225.1225,0,0,0,.0437.0753c.0256.017.017.0088.0061.0067a1.4435,1.4435,0,0,1-.2412-.0773.4528.4528,0,0,1-.2391-.2559.8871.8871,0,0,1-.0481-.2675c-.0237-.3234-.0164-.6223-.0156-.9261a17.15,17.15,0,0,0-.0428-1.8027,1.0057,1.0057,0,0,0-1.0858-.971,1.5676,1.5676,0,0,0-.8127.2059,3.9451,3.9451,0,0,0-.6918.5523l-.1048.0915-.0514-.1209a1.2316,1.2316,0,0,0-.4576-.5915,1.4119,1.4119,0,0,0-.7314-.1819,1.526,1.526,0,0,0-.74.1944,3.2778,3.2778,0,0,0-.621.4934l-.1114.1.0015-.1479.0086-.8734.065.0562c-.4952.1447-1.0113.3634-1.5137.5472-.112.0448-.2854.1025-.347.1368-.0254.038-.03.081-.0069.081.0336.0167.12.0262.1852.049a.41.41,0,0,1,.2019.1251.4682.4682,0,0,1,.0839.2186l.0368.4147.0307,1.6235c.007.2724.0007.5388-.0141.8282a.4714.4714,0,0,1-.306.4017c-.0721.03-.1593.0462-.1959.06-.008.002-.0047.0071.0156-.0148a.0856.0856,0,0,0,.0173-.04l.0179.0753-.0956-.096,1.3795-.0082.7065-.0034.1767-.0008c.0252.0005.0757-.0016.05.0007a.102.102,0,0,0-.0569.044c-.0118.0221-.0087.0245-.009.02.0034-.0152-.0067-.0249.0094.0092.025.0351.0423.03.0237.0276a.9819.9819,0,0,1-.1968-.0546.4968.4968,0,0,1-.3027-.3653,2.39,2.39,0,0,1-.0374-.3815c-.0105-.2443,0-.4735-.0012-.711l.01-1.4133.0021-.1834a.2689.2689,0,0,1,.0517-.1534l.0545-.0717a2.237,2.237,0,0,1,.249-.28.8733.8733,0,0,1,.747-.258.61.61,0,0,1,.4513.6406c.0036.2374.0147.4758.0066.7106L14.0343,95.24a3.502,3.502,0,0,1-.0724.7155.4273.4273,0,0,1-.2756.2453c-.0583.0195-.1231.0227-.1684.041C13.4793,96.2479,13.5069,96.3384,13.5029,96.3739Z"/><path class="cls-1" d="M4.7832,96.3891a.1412.1412,0,0,1,.087-.2166.69.69,0,0,0,.21-.0752.44.44,0,0,0,.206-.3557c.0151-.3.0082-.6083-.0038-.9172l-.0337-1.8489-.0209-1.8491a.8608.8608,0,0,0-.2712-.7312,1.1841,1.1841,0,0,0-.3471-.2109,1.0274,1.0274,0,0,0-.0973-.0442.3065.3065,0,0,1-.1733-.1214.3113.3113,0,0,1-.0423-.2057l.0048-.107.0064-.1392.1406-.0011c1.802-.0142,3.6039.0155,5.4058.054l.09.0019.0029.0842c.01.2979-.0073.5731-.01.8608l-.0088.4271a.62.62,0,0,1-.0268.2356l-.017.0336c-.0123.0069.01.0134-.0552.04a.1067.1067,0,0,1-.0291-.0006l-.0565-.0069a.25.25,0,0,1-.1332-.0539,4.4855,4.4855,0,0,0-.5249-.6686,1.3552,1.3552,0,0,0-.7428-.3194c-.28-.0168-.5669-.0138-.85-.0217l-.3771-.0052.0043.3754c.01.5626.0046,1.1531.0275,1.693l-.084-.0712a7.6231,7.6231,0,0,0,1.2938-.11.4709.4709,0,0,0,.4329-.2933.6867.6867,0,0,0,.0441-.2717.2145.2145,0,0,1,.04-.1626.2173.2173,0,0,1,.156-.072.6384.6384,0,0,1,.1014-.0033c.0361-.0179.17.0694.1667.1359.0267.4975.0185.8956.0295,1.3483l.01.66.0038.33a.3456.3456,0,0,1-.0817.2682.2506.2506,0,0,1-.1957.0649.3409.3409,0,0,1-.1537-.0453A.2631.2631,0,0,1,8.8,93.9015l-.0112-.0879a.8964.8964,0,0,0-.0294-.1388.6216.6216,0,0,0-.12-.2339.7348.7348,0,0,0-.4763-.2311,3.5565,3.5565,0,0,0-.6315.011l-.3225.0181c-.0239.0011-.0663.004-.0512.0028.0055.0068.0636-.0374.0643-.06.0045-.0387.0018.0648.0034.1071l.01,1.3193.0014.6587.0361.2995c-.0045-.0123-.0453-.0455-.0232-.0351l.1389.0264a3.48,3.48,0,0,0,1.2428-.0658,1.9028,1.9028,0,0,0,.9948-.6545,3.2413,3.2413,0,0,0,.3284-.5278c0-.0454.1469-.2087.2654-.1816a.3844.3844,0,0,1,.0686.0083l.0278.0067a.1965.1965,0,0,1,.082.045.2958.2958,0,0,1,.0838.1475.3818.3818,0,0,1,.0033.1249l-.0059.0842-.0118.1683a5.8837,5.8837,0,0,1-.0653.679,1.2969,1.2969,0,0,1-.3825.6127,2.5694,2.5694,0,0,1-.5766.3936,1.4794,1.4794,0,0,1-.7.0792l-1.3172-.0539A19.4128,19.4128,0,0,0,4.7832,96.3891Zm.0195-.0278A15.21,15.21,0,0,1,7.43,96.253l1.3208.0136a1.2753,1.2753,0,0,0,.5966-.0788,2.3906,2.3906,0,0,0,.4983-.3645,1.0336,1.0336,0,0,0,.2938-.5,6.3345,6.3345,0,0,0,.0373-.6343l.0125-.2808c.0029.0034-.0115-.0144.0049.0049a.1114.1114,0,0,0,.0466.0247l-.0124-.0025-.0132-.0012c.0006.016.06-.05.0222.0057a3.5576,3.5576,0,0,1-.35.6013,2.1829,2.1829,0,0,1-1.1638.7823,3.8,3.8,0,0,1-1.3756.083l-.1855-.034a.2938.2938,0,0,1-.2384-.2465l-.043-.3555L6.8763,94.61l.0017-1.32a.7806.7806,0,0,1,.0176-.2212.2544.2544,0,0,1,.1832-.1624.6318.6318,0,0,1,.113-.01l.3364-.014a3.63,3.63,0,0,1,.6849.0018,1.0557,1.0557,0,0,1,.6733.353.9388.9388,0,0,1,.1762.35,1.2189,1.2189,0,0,1,.0367.1839l.0082.0759c-.0117-.0312.0037-.0089-.024-.0348-.053-.025.016.0021.0049-.0047a.0791.0791,0,0,0-.042.0213c-.0313.0458-.0042.0119-.0113-.0451l.0038-.33.01-.66.0165-1.29c-.012.0085.0664.061.0469.0435a.46.46,0,0,0-.0632.0012c-.0194-.0005-.0163.0083.0064-.0144.0178-.028.0071-.0291.0105-.0049a.8865.8865,0,0,1-.0691.3727.6824.6824,0,0,1-.5986.4089,8.4691,8.4691,0,0,1-1.3341.0821L6.9815,92.39,6.98,92.3227c-.0158-.5955.0047-1.1456.0053-1.7207l.002-.2134c.0172-.081-.0366-.1152.0427-.2548.14-.0681.1728-.016.2546-.0282l.2138.0084.8564.0369a1.4642,1.4642,0,0,1,.8068.3335,4.11,4.11,0,0,1,.5375.6622.1525.1525,0,0,0,.0643.019l.05.0052s.0246.0007-.0026.0013c-.0571.0229-.03.021-.0373.0206l.0065-.0141a.4988.4988,0,0,0,.0127-.1858l-.0077-.4267c-.0086-.2813-.0027-.5761-.0231-.8462l.0928.0859c-1.8019.0385-3.6038.0681-5.4058.054l.1468-.14c-.0073.093-.0077.1815-.0123.1412-.0347-.0208.0412.0146.1283.0548a1.46,1.46,0,0,1,.4346.2726,1.14,1.14,0,0,1,.3488.9408l-.0264,1.8478L5.429,94.8247c-.007.3071-.0182.6159-.0536.93a.5174.5174,0,0,1-.2653.3974C4.9747,96.2309,4.7425,96.1879,4.8027,96.3613Z"/><path class="cls-1" d="M28.6642,95.9916a1.9793,1.9793,0,0,1-1.5064.5574,1.0318,1.0318,0,0,1-.8267-.2775,1.1181,1.1181,0,0,1-.29-.8358,1.733,1.733,0,0,1,1.6447-1.7222,8.1635,8.1635,0,0,1,.8328-.05l-.1061.0983c-.0031-.4843.2509-1.1942-.385-1.2164-.1254-.0056-.2686-.0294-.31.059a1.2612,1.2612,0,0,0-.0477.3634.7056.7056,0,0,1-.1012.41.7745.7745,0,0,1-.3438.2456,1.8945,1.8945,0,0,1-.8067.176.2969.2969,0,0,1-.2251-.1327.5436.5436,0,0,1-.071-.2253,1.1305,1.1305,0,0,1,.0241-.43,1.3781,1.3781,0,0,1,.482-.6975,2.3564,2.3564,0,0,1,.7163-.4322,2.1079,2.1079,0,0,1,.8374-.1243,5.9152,5.9152,0,0,1,.82.1377,1.2407,1.2407,0,0,1,.7608.4493,1.3565,1.3565,0,0,1,.2489.8526l.0093,1.5886-.0042.3972c-.0031.0947-.0187.156-.0142.1771a.232.232,0,0,0,.0367.1062c.0274.0422.1.0545.2494.0395l.3929-.0227.182-.01-.0457.1778a1.1861,1.1861,0,0,1-.1555.3235,1.7116,1.7116,0,0,1-.1934.2931.8125.8125,0,0,1-.6708.2574,3.3256,3.3256,0,0,1-.6774-.0531A.8952.8952,0,0,1,28.6642,95.9916Zm.0042-.0336c.146.1845.28.3684.4825.4128a4.4532,4.4532,0,0,0,.6419-.0153.6163.6163,0,0,0,.51-.23,2.3887,2.3887,0,0,0,.2633-.5494l.1363.1672-.3981.041a.5258.5258,0,0,1-.4915-.1249.52.52,0,0,1-.1142-.2552,1.4913,1.4913,0,0,1,.0021-.2185l-.0137-.3962-.0291-1.5848a.9051.9051,0,0,0-.7539-.9856,5.7948,5.7948,0,0,0-.74-.1439,2.0079,2.0079,0,0,0-.7261.0815,2.0822,2.0822,0,0,0-.6549.3494,1.1582,1.1582,0,0,0-.441.56c-.0578.2005-.0852.5633.098.5748a1.6083,1.6083,0,0,0,.7359-.13.51.51,0,0,0,.3891-.5468,1.4418,1.4418,0,0,1,.0586-.4167.2493.2493,0,0,1,.2086-.1226,1.379,1.379,0,0,1,.2073,0,.7069.7069,0,0,1,.4.1527.5655.5655,0,0,1,.1456.1739.5321.5321,0,0,1,.03.2242c.0027.2675.0187.5259.01.8018l-.003.0967-.1032.0018c-.2484.0042-.5222.07-.78.1018a1.5539,1.5539,0,0,0-.7132.2378,1.4667,1.4667,0,0,0-.71,1.2206.7912.7912,0,0,0,.8472.9174A2.1168,2.1168,0,0,0,28.6684,95.958Z"/><path class="cls-1" d="M28.5177,94.1513c-.22.1274-.3274.1973-.4794.2886a1.8214,1.8214,0,0,0-.352.36.9685.9685,0,0,0-.2068.4924c-.041.2074-.01.3829.1776.3707a1.0785,1.0785,0,0,0,.4948-.091.7586.7586,0,0,0,.1971-.1349l-.0045.0028,0-.14c.0058-.1884.0282-.3961.0507-.5692C28.4235,94.5712,28.481,94.3908,28.5177,94.1513Zm.02-.0273a4.773,4.773,0,0,1,.1221.5861c.0219.2156.0423.3965.0467.5968l-.0011.1519a.3322.3322,0,0,1-.1346.2532,1.0919,1.0919,0,0,1-.3043.1575.95.95,0,0,1-.6522-.026.3608.3608,0,0,1-.2491-.25,1.606,1.606,0,0,1,.0046-.31,1.4438,1.4438,0,0,1,.0735-.6277.9621.9621,0,0,1,.4708-.4477A1.7263,1.7263,0,0,1,28.5378,94.124Z"/><path class="cls-1" d="M38.1054,94.1428c-.8911.05-1.8643.1177-2.8435.1253l.1364-.1326a1.6047,1.6047,0,0,0,.2524.81c.1564.24.35.4909.5934.5292a8.4716,8.4716,0,0,0,.891.0624,1.3532,1.3532,0,0,0,.719-.479l.0412-.0448.0483.03.17.1065.0541.034-.0281.05a2.5261,2.5261,0,0,1-1.1248,1.0979,2.7115,2.7115,0,0,1-1.5774.1425,1.8979,1.8979,0,0,1-1.3076-.9425,2.6466,2.6466,0,0,1-.2838-1.61,2.3557,2.3557,0,0,1,.7943-1.4421,2.4041,2.4041,0,0,1,1.55-.53,1.87,1.87,0,0,1,1.4623.6784A2.1227,2.1227,0,0,1,38.1054,94.1428ZM38.08,94.12a2.2384,2.2384,0,0,0-.5758-1.3544,1.7042,1.7042,0,0,0-1.3091-.5135,2.3051,2.3051,0,0,0-1.3305.4945,2.1656,2.1656,0,0,0-.6762,1.233,1.9517,1.9517,0,0,0,1.2983,2.2984,2.38,2.38,0,0,0,1.4818-.0536,2.126,2.126,0,0,0,1.0518-1.0454l.026.0842-.1749-.0979.0893-.0146a1.5153,1.5153,0,0,1-.7809.6,5.4224,5.4224,0,0,1-.9859.0031.905.905,0,0,1-.4855-.2571,1.9133,1.9133,0,0,1-.3169-.3941,1.8791,1.8791,0,0,1-.2666-.9753l.0033-.1338.1335.0012C36.17,94.0023,37.0841,94.07,38.08,94.12Z"/><path class="cls-1" d="M36.7829,93.4985a2.7016,2.7016,0,0,0-.2345-.6425c-.1147-.1835-.2078-.3388-.4338-.3933a.3252.3252,0,0,0-.2977.1,1.2574,1.2574,0,0,0-.1619.3176c-.1005.2319-.182.4084-.11.59l-.1687-.1332A5.7608,5.7608,0,0,1,36.7829,93.4985Zm.0227.0252a4.77,4.77,0,0,1-1.4295.1608l-.1457-.0088-.023-.1246a.7954.7954,0,0,1,.0437-.4511,1.2929,1.2929,0,0,1,.24-.3263c.09-.0963.1538-.1963.249-.2928a.8011.8011,0,0,1,.3721-.1671.6621.6621,0,0,1,.4287.0762.6953.6953,0,0,1,.27.3376A.9772.9772,0,0,1,36.8056,93.5237Z"/><path class="cls-1" d="M21.9239,92.7653a.4036.4036,0,0,1-.02-.1628c.0286-.0776.0979-.0784.1372-.097l.2719-.0936.5339-.2081q.2647-.108.5229-.2305c.176-.0794.3329-.1729.5185-.2524l.1771-.0759.0031.1942.0133.8507-.2392-.1041a4.2927,4.2927,0,0,1,.5047-.4476l.2822-.1925a.5951.5951,0,0,1,.418-.0807.7132.7132,0,0,1,.3384.1868l.2573.2174a3.1179,3.1179,0,0,1,.4706.4841l.0776.0905-.0928.06a5.6418,5.6418,0,0,0-1.03.9667l-.0535.0585-.039-.0684c-.1037-.1816-.1824-.3669-.2832-.5459a.5077.5077,0,0,0-.1592-.2195.3072.3072,0,0,0-.2489.0117.3.3,0,0,0-.199.148,1.0851,1.0851,0,0,0-.0348.2789,3.1268,3.1268,0,0,0-.0085.6008l.0514,1.2237a2.02,2.02,0,0,0,.059.5478c.0406.1111.1729.1229.4021.1465l.1232.0127.0171.1265.0127.0936a.2312.2312,0,0,1-.0839.2281.3012.3012,0,0,1-.1771.0474l-.0894.0016-.3441.005-.6883.0067-1.3766-.0077-.1419-.0008-.0236-.125a.5939.5939,0,0,1-.03-.1865.2368.2368,0,0,1,.135-.1909.48.48,0,0,1,.0961-.03.4536.4536,0,0,0,.1719-.0583c.0628-.0233.0784-.2016.0928-.3705.0379-.3305.0222-.6917.039-1.0362l.04-1.0456a1.9371,1.9371,0,0,0-.0042-.5017C22.281,92.867,22.1048,92.82,21.9239,92.7653Zm.0251-.0228c.1417.0165.3781.0422.4652.2426a1.8049,1.8049,0,0,1,.0723.5359l.0482,1.0462c.0062.3523.0368.69.0171,1.0544-.0061.0935-.0048.1759-.0176.2791a.5226.5226,0,0,1-.1655.3277.6648.6648,0,0,1-.3075.1361.2882.2882,0,0,0-.0287.0079c.0019.0117.07-.064.0608-.0924-.0019-.0262.0082.0355.02.0692l-.1652-.1257,1.3766-.0076.6884.0069.3441.0049.0828.001c.02.0061.0567-.0162-.01.0177-.0816.0927-.0364.09-.0491.0669l-.0084-.0771.14.1391a2.0224,2.0224,0,0,1-.33-.0622.5.5,0,0,1-.3131-.2863,1.9379,1.9379,0,0,1-.0478-.6653l.0255-1.2263a3.2308,3.2308,0,0,1,.05-.6207,1.0576,1.0576,0,0,1,.069-.3207.4507.4507,0,0,1,.2817-.2031.4162.4162,0,0,1,.3438.0065.5948.5948,0,0,1,.1956.2688c.0907.1816.1836.3676.2878.5377l-.0923-.01A8.23,8.23,0,0,1,25.98,92.74l-.0152.1506a2.9018,2.9018,0,0,0-.48-.4211l-.26-.1892a.4894.4894,0,0,0-.2277-.1314.3023.3023,0,0,0-.212.05l-.2567.1855a4.0743,4.0743,0,0,0-.4912.41l-.2441.2.0048-.3045.0134-.8507.18.1183c-.347.1475-.7164.2947-1.0842.4108-.1841.0612-.3731.1076-.5616.152l-.2838.0607c-.0458.01-.0971.0167-.1028.0378C21.9446,92.6466,21.9565,92.715,21.949,92.7425Z"/><path class="cls-1" d="M38.6556,94.8764c.07-.0482.1073-.0294.1666-.0427a.1548.1548,0,0,1,.1572.0859l.1389.2808a1.9412,1.9412,0,0,0,.3578.482.9368.9368,0,0,0,.4888.2766,1.1437,1.1437,0,0,0,.2836.0185c.0482-.0031.0964-.0072.1449-.0146.0366-.0044.0444-.0135.0858-.0411.1287-.1133.2889-.27.2282-.3787a.51.51,0,0,0-.1169-.211.49.49,0,0,0-.2193-.1222,6.3209,6.3209,0,0,1-1.1565-.5355,1.5231,1.5231,0,0,1-.6788-1.1344,1.3769,1.3769,0,0,1,.5375-1.18,1.9554,1.9554,0,0,1,1.2175-.37,9.5988,9.5988,0,0,1,1.2368.2272l.0462.0084v.0494c.001.4151.0166.83.0274,1.2453l.0014.0616-.0614.0208a.6334.6334,0,0,1-.102.0291.18.18,0,0,1-.1631-.0488.92.92,0,0,1-.1061-.181,2.3864,2.3864,0,0,0-.184-.2982,1.5731,1.5731,0,0,0-.4876-.4583.8133.8133,0,0,0-.6133-.0273c-.1825.0511-.2107.1845-.1234.3707a.7256.7256,0,0,0,.4666.3623l.6986.1864a1.6843,1.6843,0,0,1,.718,2.6807,2.105,2.105,0,0,1-1.4586.5007,4.0992,4.0992,0,0,1-1.48-.3221.265.265,0,0,1-.0971-.2326l.0046-.1846.0127-.3646Zm.03.0163.0493.7219.0245.3657c.01.1165.0045.2729.0442.2728a4.47,4.47,0,0,0,1.3777.1983,1.8255,1.8255,0,0,0,1.2263-.4626,1.3594,1.3594,0,0,0-.5941-2.12c-.3845-.1437-1.0624-.1634-1.3364-.746a.6282.6282,0,0,1-.0426-.4708.505.505,0,0,1,.3764-.3118,1.0836,1.0836,0,0,1,.8064.0854,1.7771,1.7771,0,0,1,.5441.5587,2.6358,2.6358,0,0,1,.1823.3329,1.4508,1.4508,0,0,0,.0657.14c-.0283-.0023.0187.0028.0788-.0186l-.06.0821c.0106-.4151.0264-.83.0272-1.2453l.0462.0577a6.39,6.39,0,0,0-1.2129-.2292,1.6768,1.6768,0,0,0-1.11.3847,1.1722,1.1722,0,0,0-.3936,1.0283,1.34,1.34,0,0,0,.6.9154,9.3723,9.3723,0,0,0,1.1006.519.75.75,0,0,1,.3087.1967.7732.7732,0,0,1,.1727.3346.45.45,0,0,1-.0934.3979,1.0532,1.0532,0,0,1-.2548.2444.4124.4124,0,0,1-.2.0732c-.0548.0048-.11.006-.1663.0059a1.3637,1.3637,0,0,1-.3356-.0442,1.1281,1.1281,0,0,1-.5612-.3626,1.9642,1.9642,0,0,1-.3331-.5509l-.1095-.2916C38.901,94.8621,38.753,94.89,38.6853,94.8927Z"/><path class="cls-1" d="M33.6537,95.4194c.0659.0561.1505.0992.1285.2144a1.0341,1.0341,0,0,1-.1071.21,1.3653,1.3653,0,0,1-.3159.3437,2.1093,2.1093,0,0,1-.8592.3569,1.4568,1.4568,0,0,1-.9516-.1114,1.2258,1.2258,0,0,1-.6134-.7681,4.9691,4.9691,0,0,1-.0316-.9276c-.0016-.2976.0184-.5951.0265-.8928l.0384-.8953c-.0078-.1406.0512-.3513-.0435-.2992l-.4491-.0051-.0421,0-.0109-.0392a.2725.2725,0,0,1,.0091-.2067.425.425,0,0,1,.1446-.13l.283-.1927a4.06,4.06,0,0,0,.5308-.4172,3.8,3.8,0,0,0,.4242-.5221l.2025-.2724a.667.667,0,0,1,.1372-.155.3.3,0,0,1,.2579-.0319l.0775.0263.0025.0823.0406,1.3115-.1462-.154c.2038.0086.4371-.0019.6543-.0019.1.0016.27-.0074.2145-.0018-.0091.0176-.0143.0035.0523-.108a.3256.3256,0,0,1,.3048-.1253l.1658.0391-.0138.1513a2.106,2.106,0,0,1-.0826.46,1.19,1.19,0,0,1-.1043.229l-.0343.0541a.2317.2317,0,0,1-.049.058.2517.2517,0,0,1-.075.0436.4531.4531,0,0,1-.1682.0247l-.8607-.0035.1723-.1624-.051,2.1151c.0045.3458-.1121.7708.1492.8689A1.1929,1.1929,0,0,0,33.6537,95.4194Zm-.0033.0337a1.2161,1.2161,0,0,1-1.01.2928.504.504,0,0,1-.36-.4982l-.0232-.5327-.0288-1.0629c-.009-.3587-.0245-.6985-.01-1.0729l.0063-.1613.1663-.0012.8574-.0064a.2224.2224,0,0,0,.0437-.0022.0939.0939,0,0,0-.0285.0176c-.0278.0277-.0232.0268-.0167.0155l.0227-.037a.8391.8391,0,0,0,.0713-.162,1.7962,1.7962,0,0,0,.0783-.3817l.152.19c-.04.0175.1052-.1037-.1066.1539a.3908.3908,0,0,1-.2669.067l-.1636-.003c-.2217-.0066-.4282-.0022-.6628-.0181l-.1509-.01.0045-.1438.0406-1.3115.08.1085c-.0721-.09-.2385.2114-.3873.3567a3.9288,3.9288,0,0,1-.4757.5081,5.4144,5.4144,0,0,1-.5594.41l-.2881.1857c-.1126.0611-.1436.1132-.1056.2194l-.0527-.04.4446-.01a.1731.1731,0,0,1,.157.0565.2483.2483,0,0,1,.0321.1478l.0068.2229.0376.892c.0107.298.0336.5962.0346.8944a6.5,6.5,0,0,0,.0391.8542.9381.9381,0,0,0,.4527.6022,1.3473,1.3473,0,0,0,.7883.1236,1.9814,1.9814,0,0,0,.8032-.2584,1.2324,1.2324,0,0,0,.3232-.2744,1.0725,1.0725,0,0,0,.12-.1736C33.7509,95.5686,33.6754,95.5,33.65,95.4531Z"/><path class="cls-1" d="M17.2154,81.4366c-.168.1885-.3171.3278-.4762.4909-.159.1545-.3083.3179-.459.4773a9.55,9.55,0,0,0-.8275,1.0114l-.1169.1606-.1116-.15a13.1839,13.1839,0,0,0-.81-1.0659,4.2321,4.2321,0,0,0-1.0216-.847l-.0977-.0584.0939-.0829q.5282-.4657,1.0017-.9742a9.8422,9.8422,0,0,0,.8557-1.0836l.1538-.2215.1411.2257a10.4646,10.4646,0,0,0,.7686,1.0907c.1422.1726.2838.3478.4369.5137Zm-.034,0a4.5782,4.5782,0,0,1-.553-.3883,6.7475,6.7475,0,0,1-.5159-.4607,6.0251,6.0251,0,0,1-.8692-1.0843l.2946.0041a6.8817,6.8817,0,0,1-2.0433,2.0041l-.0038-.1412a13.2139,13.2139,0,0,1,1.0109.9068c.3191.3186.6477.6329.9431.9722l-.2284.0107a4.9553,4.9553,0,0,1,.8821-1.039c.1665-.1537.3472-.29.5259-.4265A4.19,4.19,0,0,1,17.1814,81.4363Z"/><path class="cls-1" d="M19.1564,83.3279c-.1877-.1662-.3255-.314-.4869-.4728l-.47-.46a10.01,10.01,0,0,0-.99-.8376l-.1588-.12.1529-.1089a8.3909,8.3909,0,0,0,1.1057-.8614,4.761,4.761,0,0,0,.8494-1.11l.0719-.1263.091.1288a10.65,10.65,0,0,0,1.8215,1.9315l.1527.13-.148.1344c-.326.2958-.6709.5713-1.0135.852C19.7978,82.7453,19.4525,83.0506,19.1564,83.3279Zm.0008-.0339c.2934-.3863.5351-.7471.79-1.0715.3179-.3123.6334-.63.968-.927l.0048.2645a6.7287,6.7287,0,0,1-1.7636-2.0992l.1628.0025c-.2875.3838-.6081.734-.9266,1.0859a12.14,12.14,0,0,1-1.0169,1.0042l-.006-.2291a5.0432,5.0432,0,0,1,1.0154.8917c.15.167.2839.3472.4179.5251A4.4343,4.4343,0,0,1,19.1572,83.294Z"/><path class="cls-1" d="M20.94,91.8355c.0784.63.1019,1.2136.1229,1.8227.02.6018.0252,1.2087.0035,1.8062a3.2614,3.2614,0,0,0,.0107.4248.258.258,0,0,0,.2358.2195c.0322.0087.0654.0088.1212.0268a.1784.1784,0,0,1,.0219.3126.3855.3855,0,0,1-.1371.01l-.4523-.0107c-.6088-.0018-1.1931.0355-1.822.0539l-.0954.0028-.0063-.1172-.0092-.1712-.0056-.1033.11-.0195c.1708-.03.3052-.0687.3431-.1528a1.0979,1.0979,0,0,0,.0452-.4178c.0048-.325-.0145-.6674-.0207-1l-.0031-1.0053a1.0755,1.0755,0,0,0-.0446-.4105.1489.1489,0,0,0-.0922-.0794l-.2329-.0609-.11-.0288-.0053-.0884a.515.515,0,0,1-.0082-.2021.2169.2169,0,0,1,.1266-.1421.5867.5867,0,0,1,.0848-.0281l.2661-.07c.1752-.049.3513-.0947.5237-.1519.1734-.0549.3411-.1235.5108-.1907C20.6014,92.0006,20.728,91.9005,20.94,91.8355Zm-.02.0275a4.8536,4.8536,0,0,1-.44.3147,4.1919,4.1919,0,0,1-.4961.264c-.17.0775-.3427.1521-.5188.2142l-.2627.09c-.0485.0062-.0621.0535-.0106-.0283.0032-.034.0088.0345.0209.0708l-.1155-.1171.258.0486a.4842.4842,0,0,1,.2962.219,1.25,1.25,0,0,1,.0977.5748l.0115,1.0061c-.0075.3376-.0015.666-.02,1.0111a1.1277,1.1277,0,0,1-.1182.5625.6874.6874,0,0,1-.5439.2448l.104-.1225-.0092.1712-.1016-.1143c.5754.05,1.1984.0658,1.7953.0717l.4523-.01a.414.414,0,0,0,.0872-.0053c-.01.0112,0-.003-.0024-.0361-.0071-.0305,0-.0124-.0146-.019l-.1019-.0086a.45.45,0,0,1-.4139-.3206,3.13,3.13,0,0,1-.0687-.4746c-.04-.608-.0226-1.2075-.0066-1.8117C20.819,93.0615,20.8421,92.4386,20.92,91.863Z"/><path class="cls-1" d="M21.0137,90.66a1.0943,1.0943,0,0,1-.1556.6061.6494.6494,0,0,1-.6051.2856.8653.8653,0,0,1-.5644-.33,1.0961,1.0961,0,0,1-.26-.5729.8317.8317,0,0,1,.8377-.9308.7207.7207,0,0,1,.6047.33A1.12,1.12,0,0,1,21.0137,90.66Zm-.0339,0a.5471.5471,0,0,0-.2711-.4582.8417.8417,0,0,0-.4458-.1219.6664.6664,0,0,0-.649.57.555.555,0,0,0,.1545.4965.5743.5743,0,0,0,.4856.1231,1.2236,1.2236,0,0,0,.4523-.1524A.54.54,0,0,0,20.98,90.66Z"/><path class="cls-2" d="M41.3472,50.596l-2.7376.018-1.3689.0225c-.1222-.0016-.096.0323-.0967.1741l.0105.3422.0208.6848-.0813-.0806,1.5423-.0274.7711-.0137.3856-.0047a1.7275,1.7275,0,0,0,.1813-.0056.3315.3315,0,0,1,.2867.088l-.0969.2242.1326-.143a2.169,2.169,0,0,1-.4359,1.4334,2.9674,2.9674,0,0,1-1.129.9744,3.6506,3.6506,0,0,1-2.902.1008,3.52,3.52,0,0,1-2.0216-2.0447,3.7753,3.7753,0,0,1,.1255-2.8507,3.5557,3.5557,0,0,1,2.1316-1.8641,3.4634,3.4634,0,0,1,2.8218.3141c.236.0924.3885.3823.5436.3693.17-.011.2931-.2523.4613-.4339.1474-.175.3825-.3692.2264-.4512a4.6987,4.6987,0,0,0-.5684-.394,4.5065,4.5065,0,0,0-2.66-.6879,5.25,5.25,0,0,0-2.5824.942,4.5528,4.5528,0,0,0-1.6358,2.1758,4.64,4.64,0,0,0-.107,2.7161,4.6967,4.6967,0,0,0,1.4507,2.31,4.4578,4.4578,0,0,0,2.47,1.1574,5.2017,5.2017,0,0,0,2.7423-.3991,3.9912,3.9912,0,0,0,1.9393-1.9692,4.5984,4.5984,0,0,0,.3489-1.3741,5.245,5.245,0,0,0,.022-.7125l-.0276-.3561C41.5086,50.7116,41.4845,50.5775,41.3472,50.596Zm0-.0339a.1665.1665,0,0,1,.1679.083.5954.5954,0,0,1,.0343.1811l.0331.3584a5.3211,5.3211,0,0,1-.0116.72,4.6662,4.6662,0,0,1-.3338,1.3991,4.1179,4.1179,0,0,1-1.931,2.0989,5.4171,5.4171,0,0,1-2.85.5054,4.59,4.59,0,0,1-2.6682-1.169,5.0451,5.0451,0,0,1-1.5633-2.4727A4.8376,4.8376,0,0,1,34.1205,47.02a5.3784,5.3784,0,0,1,2.7536-.9584,4.7563,4.7563,0,0,1,2.79.783,4.6351,4.6351,0,0,1,.5978.4374.316.316,0,0,1,.1046.2282.4026.4026,0,0,1-.0917.2157A3.601,3.601,0,0,1,40.0272,48c-.16.14-.2514.4314-.5912.4812a.5311.5311,0,0,1-.3646-.1982.8765.8765,0,0,0-.2674-.2049,3.3216,3.3216,0,0,0-2.7031-.3409,3.2883,3.2883,0,0,0-2.0564,1.8015,3.512,3.512,0,0,0-.0641,2.7338,3.2983,3.2983,0,0,0,1.9448,1.8626,3.4294,3.4294,0,0,0,2.6723-.1216,2.8776,2.8776,0,0,0,1.0265-.8733,1.8894,1.8894,0,0,0,.4073-1.2456l.1328-.1432-.097.2242c-.008-.0071-.0045-.0121-.0709-.0083a2.03,2.03,0,0,1-.204.0033l-.3855-.0054-.7708-.0152-1.542-.03-.082-.0015.0005-.0791.0036-.6839.0019-.3421a.5289.5289,0,0,1,.02-.1953.2.2,0,0,1,.2027-.0955l1.3687.0223Z"/><path class="cls-2" d="M61.1687,49.8277l-.732.0109c-.1154.0057-.261-.0026-.2923.1072-.0529.108.0067.23-.0907.357l-.018.0236-.0232-.0216a2.4752,2.4752,0,0,0-2.97-.1952,3.2264,3.2264,0,0,0-1.4518,2.6359,3.1177,3.1177,0,0,0,1.5015,2.6205,2.35,2.35,0,0,0,1.5207.3676,2.7262,2.7262,0,0,0,.7731-.2024,2.3107,2.3107,0,0,0,.6378-.4809l.0812-.0774.0106.1122a2.96,2.96,0,0,1-.1116,1.2928,1.4529,1.4529,0,0,1-.8894.95,2.0952,2.0952,0,0,1-1.3263.0059,1.972,1.972,0,0,1-.9667-.89c.048-.0658-.2558.0916-.4335.1616l-.3008.13a1.4618,1.4618,0,0,0-.1967.0889c.0019-.0587.0182.0573.0832.1386a2.8707,2.8707,0,0,0,.1673.2569,2.8322,2.8322,0,0,0,.4.4571,2.7961,2.7961,0,0,0,2.238.7,2.5012,2.5012,0,0,0,1.9914-1.1724,2.8481,2.8481,0,0,0,.3845-1.1352c.0436-.3993.03-.8466.0482-1.2675l.0929-2.5633c.0165-.4272.0291-.8546.0339-1.282l.0113-.6411.0055-.32A.1448.1448,0,0,0,61.1687,49.8277Zm-.0018-.0339a.23.23,0,0,1,.1654.0394.2153.2153,0,0,1,.0565.1616l.0018.3211.0033.6413c0,.4275.0068.8551.0182,1.2828l.0611,2.5665c-.0028.4335.0285.843-.0024,1.296a2.8261,2.8261,0,0,1-2.6586,2.6318,3.1079,3.1079,0,0,1-2.4926-.8209,3.5192,3.5192,0,0,1-.6129-.7953,1.11,1.11,0,0,1-.084-.1615.3167.3167,0,0,1,.01-.29c.1547-.1821.2741-.1508.3612-.207l.2916-.1151.2921-.115a.792.792,0,0,1,.19-.0613.2808.2808,0,0,1,.2555.1125,1.7762,1.7762,0,0,0,.8442.8528,1.9212,1.9212,0,0,0,1.1933.0327,1.2954,1.2954,0,0,0,.8255-.831,2.851,2.851,0,0,0,.1215-1.24l.0916.0347a2.5315,2.5315,0,0,1-3.0946.3864A3.2506,3.2506,0,0,1,55.3,52.7473a3.2888,3.2888,0,0,1,1.6252-2.8391,2.6645,2.6645,0,0,1,3.1265.3469l-.0411.0019c.0619-.0488.03-.222.0823-.3317.0591-.1529.2365-.13.3434-.1352Z"/><path class="cls-2" d="M59.3594,54.357a1.76,1.76,0,0,1-1.3861.2451,1.6605,1.6605,0,0,1-1.1044-.9524,2.1289,2.1289,0,0,1-.058-1.44,2.2755,2.2755,0,0,1,.7958-1.18,1.6831,1.6831,0,0,1,2.5467.7509A2.066,2.066,0,0,1,59.3594,54.357Zm-.0184-.0285a1.4983,1.4983,0,0,0,.6688-1.1342,2.4572,2.4572,0,0,0-.1795-1.28,1.5074,1.5074,0,0,0-2.1214-.73,1.64,1.64,0,0,0-.7844,1.0551,1.7523,1.7523,0,0,0,.1964,1.2862,2.049,2.049,0,0,0,.9218.8753A1.3389,1.3389,0,0,0,59.341,54.3285Z"/><path class="cls-2" d="M54.7428,51.754a.4.4,0,0,1-.1053-.1791.43.43,0,0,1-.0176-.1091c-.0043-.0013-.0263-.0528-.0394-.0762a2.6577,2.6577,0,0,0-.2106-.3421,3.1489,3.1489,0,0,0-.5449-.5788l.0213.0147c-.0445-.0213-.1126-.0325-.1942-.0732a.3176.3176,0,0,1-.1707-.2485l.0255.0627.0641.0412a.2768.2768,0,0,1-.0618-.01.1882.1882,0,0,1-.1187-.1034l.1192.0748a.5485.5485,0,0,1-.3773-.152.9477.9477,0,0,0-.2585-.13,2.6785,2.6785,0,0,0-.6026-.1517,4.2776,4.2776,0,0,0-.6272-.0269c-.1951-.0017-.3974.0655-.6405.0867l.0966-.0506a.5095.5095,0,0,1-.311.1651,1.1238,1.1238,0,0,0-.228.0452l-.1767-.1577.2194.1233.0131.0073-.0527.0255-.3864.1873.05-.0535a.4359.4359,0,0,1-.2042.2212.35.35,0,0,1-.1585.028l-.037-.0035L49.823,50.39h-.0005c-.0172.0057.1476-.05.0778-.0266v0l-.0008.0006-.0014.0012-.0053.0049-.0107.01-.0432.0388-.3451.3109.0208-.0394a.287.287,0,0,1-.26.2441l.0517-.0346a3.2838,3.2838,0,0,0-.531,2.0191,3.2177,3.2177,0,0,0,.8666,1.8586,3.1468,3.1468,0,0,0,3.7708.3975l-.0572.061a.4857.4857,0,0,1,.2641-.2168l.124-.0383.0068-.0019.0018,0,.0008,0h0l-.0441.021,0,0,.003-.002.0122-.0078.0245-.0156.0491-.0313-.0716.1368a.3618.3618,0,0,1,.1726-.3032l.0894-.0552c-.0247.0258.0319-.0351.044-.0484a3.1777,3.1777,0,0,0,.25-.3112,3.1106,3.1106,0,0,0,.3676-.7076,3.0369,3.0369,0,0,0,.174-.7866c.0186-.2663-.0159-.548-.0017-.8314l.0128.0269A.3685.3685,0,0,1,54.7428,51.754Zm.033-.0078a.3246.3246,0,0,0,.1053.2613l.0116.008.0011.0192c.0159.274.0906.5439.0954.8356a3.2348,3.2348,0,0,1-.1169.8534,2.9267,2.9267,0,0,1-.3537.7932,3.4637,3.4637,0,0,1-.2555.3531.6071.6071,0,0,1-.0978.1039l-.0857.059c-.0425.038-.0245.0213-.0278.0409l-.0167.0979-.055.0392-.0473.0337-.0237.0168-.0118.0084-.0029.0021-.0476.0223-.0069.0023-.0965.0349a.1617.1617,0,0,0-.09.0694l-.0207.0369-.0368.0242a3.14,3.14,0,0,1-2.1728.4938,3.0844,3.0844,0,0,1-1.9812-.994,3.3929,3.3929,0,0,1-.8052-2.0337,4.0084,4.0084,0,0,1,.5534-2.09l.0517-.0348c.08-.0079.116-.0553.127-.14l.0026-.02.0186-.02.319-.3375.04-.0422.01-.0105.005-.0053.0012-.0013.0006-.0007.0787-.0269h.0235a.1475.1475,0,0,0,.0669-.0173.2379.2379,0,0,0,.0886-.126l.0121-.0318.0375-.022.3708-.2166-.0394.0328.2194.1233-.1767-.1577c.2239-.0982.388-.0818.4338-.1642l.0244-.0437.0723-.007c.1924-.0187.411-.0962.6554-.1038a3.1838,3.1838,0,0,1,.6807.04,2.9539,2.9539,0,0,1,.6607.1881,1.2242,1.2242,0,0,1,.3177.1759c.0891.0747.1449.11.2057.111l.12.0749c-.001-.01-.0326-.0346-.0372-.0318-.004.0007.0139.0026.0487.011l.0789.0191.0108.085c.0053.0419.0058.0512.0421.0768s.1043.0426.1806.0832l.0141.0074.0076.0074a2.8375,2.8375,0,0,1,.5237.66,2.7751,2.7751,0,0,1,.1769.38.6111.6111,0,0,1,.0351.1139.4973.4973,0,0,0,.0023.0945A.4117.4117,0,0,0,54.7758,51.7462Z"/><path class="cls-2" d="M53.519,53.1867a.5844.5844,0,0,1,.0149.1722.23.23,0,0,1-.1111.1624l.0247-.0263-.0673.211a.801.801,0,0,1-.0892.2367.5791.5791,0,0,1-.1891.1986.4629.4629,0,0,0-.15.128.7.7,0,0,1-.2038.1761.4559.4559,0,0,1-.0755.0308l-.0024.0008-.0013.0005,0,0c-.0136-.0049.0926-.04.0477-.0244l-.003.0025-.0061.005-.0123.01-.0248.02a1.1314,1.1314,0,0,1-.106.0736.8525.8525,0,0,1-.5227.1309h.0313a1.5952,1.5952,0,0,1-1.1962-.2618,2.0067,2.0067,0,0,1-.4277-.4346,1.3905,1.3905,0,0,1-.0776-.135c.0218.0085-.0681-.0468-.0938-.0767a.3362.3362,0,0,1-.1091-.3144l.0865.0529-.0055.0037c.0349-.03-.0992-.0294-.0638,0l0,0-.0008-.0005-.0015-.0012-.003-.0024-.0116-.0094-.0225-.02a.4138.4138,0,0,1-.04-.0443.5843.5843,0,0,1-.0619-.1.6843.6843,0,0,1-.058-.2188l-.0334-.4207a2.0253,2.0253,0,0,1,.0008-.4354A1.4077,1.4077,0,0,1,50,52.0544a.9986.9986,0,0,1,.0422-.1127.2173.2173,0,0,1,.1619-.1213l.0441-.0013.0339.0192.0053.003.0025.0014h0l-.1794.0846v-.0012l0-.0017.0008-.0131.002-.0266.007-.0557a.4769.4769,0,0,1,.0347-.1211.3862.3862,0,0,1,.2031-.1959l-.0661.0559a1.6267,1.6267,0,0,1,.9683-.8064,1.7631,1.7631,0,0,1,.6309-.07c.0874.0022.2252.0146.271.0085a.5108.5108,0,0,1,.4049.1395l-.1126-.0453a.4.4,0,0,1,.3216.1759l-.0726-.0592a1.3992,1.3992,0,0,1,.42.3532c.01.0177.0877.067.0422.0511a.4282.4282,0,0,1,.159.1031.4807.4807,0,0,1,.1179.3186l-.0161-.0536A2.3243,2.3243,0,0,1,53.519,53.1867Zm-.034.0014a2.6534,2.6534,0,0,0-.2927-1.3758l-.0118-.0182-.0044-.0357a.2056.2056,0,0,0-.0553-.1362.1466.1466,0,0,0-.052-.0242.7346.7346,0,0,1-.1522-.1037,1.5948,1.5948,0,0,0-.3482-.27l-.0318-.013-.0409-.0463c-.0219-.0247-.02-.0224-.0492-.0254l-.0671-.007-.0457-.0384a.1556.1556,0,0,0-.1331-.0455,2.9028,2.9028,0,0,1-.3154-.001,1.9157,1.9157,0,0,0-.5335.043,1.4035,1.4035,0,0,0-.8273.6173l-.0286.0426-.0376.0135a.1186.1186,0,0,0-.0737.0561.2843.2843,0,0,0-.0255.06l-.01.0387-.0043.0209-.002.0107,0,.0013,0,.0007v0l-.18.0848h0l-.0025-.0018-.0048-.0036.0779.0178c-.0057.0033.0182-.0212.0005-.0032a.8767.8767,0,0,0-.0414.0791,1.0879,1.0879,0,0,0-.0623.1818,1.8621,1.8621,0,0,0-.044.3988c-.0022.1359.0086.28.0117.4151a.573.573,0,0,0,.0408.1859.2564.2564,0,0,0,.0475.0772l.0319.0313.0174.0138.0091.0065.0022.0016.0011.0008,0,0,0,0c.0356.03-.0984.0309-.0633,0l.0053-.004.1035-.0789-.0171.1319a.2149.2149,0,0,0,.0847.2044c.039.0416.0534.0178.1266.106a.6538.6538,0,0,0,.08.1081,1.8752,1.8752,0,0,0,.435.3351,1.7314,1.7314,0,0,0,1.037.1568l.0187-.0018.0128.0018a.5642.5642,0,0,0,.3546-.0715.8806.8806,0,0,0,.085-.0527l.0208-.0148.01-.0077.0053-.0038.0025-.0019.05-.0253.0313-.0105a.69.69,0,0,0,.1475-.1143.705.705,0,0,1,.2164-.1425.3788.3788,0,0,0,.14-.1138.7883.7883,0,0,0,.0972-.18l.1151-.2091.0129-.0233.0119-.0032C53.46,53.4025,53.48,53.3013,53.485,53.1881Z"/><path class="cls-2" d="M45.0824,49.6429a2.899,2.899,0,0,0-2.1269.9478,3.1472,3.1472,0,0,0-.8178,2.1189,2.9513,2.9513,0,0,0,.787,2.1624,2.8416,2.8416,0,0,0,2.16.835,2.99,2.99,0,0,0,2.92-2.9955,3.2054,3.2054,0,0,0-.8008-2.1187A2.8677,2.8677,0,0,0,45.0824,49.6429Zm0-.0339a3.3742,3.3742,0,0,1,2.2794.8257,3.0543,3.0543,0,0,1,.993,2.2754,3.1378,3.1378,0,0,1-3.2711,3.1826,3.4007,3.4007,0,0,1-2.2421-.9378,3.3032,3.3032,0,0,1-.9849-2.2414,2.88,2.88,0,0,1,.9494-2.2744A3.409,3.409,0,0,1,45.0824,49.609Z"/><path class="cls-2" d="M46.1938,54.1773a1.9293,1.9293,0,0,1-1.346.4946,1.6089,1.6089,0,0,1-1.2833-.742,2.1567,2.1567,0,0,1-.2613-1.4417,2.0458,2.0458,0,0,1,.6094-1.31,1.8373,1.8373,0,0,1,1.4067-.4813,1.7642,1.7642,0,0,1,1.3043.7769,2.0122,2.0122,0,0,1,.3031,1.4649A2.1109,2.1109,0,0,1,46.1938,54.1773Zm-.0224-.0255a1.5692,1.5692,0,0,0,.5329-1.2312,2.3614,2.3614,0,0,0-.3683-1.2477,1.6106,1.6106,0,0,0-1.0546-.6589,1.7917,1.7917,0,0,0-1.2514.3083,1.5128,1.5128,0,0,0-.61,1.1771,1.78,1.78,0,0,0,.3749,1.27,1.9122,1.9122,0,0,0,1.08.6916A1.4575,1.4575,0,0,0,46.1714,54.1518Z"/><path class="cls-2" d="M65.9731,53.5333c.6665-.2852,1.3356-.5642,1.9926-.8723l.99-.4528.495-.2256c.0776-.035.18-.0744.2315-.1039.0452-.0453.0207.0172.0081-.0654a3.5094,3.5094,0,0,0-1.2253-1.6462,2.48,2.48,0,0,0-1.9867-.3866l.03-.0167a1.0879,1.0879,0,0,1-.62.2019l.02-.0084a3.1041,3.1041,0,0,0-.8412.6031,2.86,2.86,0,0,0-.5355.8771,3.225,3.225,0,0,0-.0952,2.0168l-.01-.0242a1.6832,1.6832,0,0,1,.3258.83l-.0044-.0341-.009-.0239a2.8908,2.8908,0,0,0,3.7154,1.156l-.0635.0552a.6468.6468,0,0,1,.469-.2622l.1515.2892-.2085-.272.2237.06,0,0-.3148.0533a.3789.3789,0,0,1,.2032-.2453c.0793-.0376.1364-.0515.1593-.0659l-.0447.036-.0241.0194.0388-.0341.103-.09-.04.0529a.7267.7267,0,0,1,.3937-.3736l-.0533.0324a1.3453,1.3453,0,0,0,.1591-.1536c.028.0666-.0182-.0159-.1263-.0734l-.5678-.3965a.807.807,0,0,0-.1081-.0709c-.0132-.0006.0176-.0137-.0159.0063a2.9608,2.9608,0,0,1-.23.2478,1.7858,1.7858,0,0,1-.6093.3752,1.83,1.83,0,0,1-1.3707-.0646,1.6284,1.6284,0,0,1-.559-.398,1.3846,1.3846,0,0,1-.2009-.28.1582.1582,0,0,1,.0028-.1809A.3921.3921,0,0,1,65.9731,53.5333Zm.0128.0315c-.1063.0369-.2034.1184-.1277.2207a1.3433,1.3433,0,0,0,.2015.2629,1.565,1.565,0,0,0,.5481.3652,1.6867,1.6867,0,0,0,1.2735-.0329,1.5775,1.5775,0,0,0,.5085-.376c.08-.085.1146-.1465.2093-.2677a.28.28,0,0,1,.2909-.081.8442.8442,0,0,1,.184.0988l.5621.3527c.0417.03.1019.0558.1671.1056a.3218.3218,0,0,1,.1366.2945c-.0671.2439-.1917.2728-.2644.36L69.622,54.9a.3806.3806,0,0,0-.2054.2067l-.0144.03-.026.0232-.1022.0911.0146-.0145-.0449.036c-.0825.0442-.1441.0581-.1722.0744-.0283.0185-.0129.0056-.021.0207l-.1569.29-.1581-.2369v0l.2237.06-.2087-.2721.1515.2893a.2909.2909,0,0,0-.2227.1185l-.0245.0352-.0391.02a3.11,3.11,0,0,1-4.1074-1.3551l-.0149-.0312.0015-.0271a1.482,1.482,0,0,0-.2593-.7225l-.0073-.0135-.0027-.011a3.448,3.448,0,0,1,.192-2.12,2.97,2.97,0,0,1,.5734-.9017,3.4219,3.4219,0,0,1,.85-.6375l.02-.0086a.91.91,0,0,0,.5466-.188l.01-.0105.02-.0064a2.6828,2.6828,0,0,1,2.1782.2943,3.0151,3.0151,0,0,1,.8239.7821,4.6872,4.6872,0,0,1,.5087.9981.3548.3548,0,0,1,.0195.2171.2988.2988,0,0,1-.1526.18c-.1091.0548-.1792.0738-.2676.1109l-.5105.1878-1.0218.3741C67.3319,53.0265,66.66,53.2988,65.9859,53.5648Z"/><path class="cls-2" d="M65.7509,52.5486a.3144.3144,0,0,1-.1661.0411c-.081-.0114-.0909-.11-.0805-.1591l-.0005.003a2.0189,2.0189,0,0,1,.1405-.8509,1.2614,1.2614,0,0,1,.6318-.6133,1.976,1.976,0,0,1,1.6769-.0344,1.2043,1.2043,0,0,1,.3681.2815.3273.3273,0,0,1,.0746.1649.2679.2679,0,0,1-.0779.2131.78.78,0,0,1-.2193.1472c-.2573.1224-.5014.2333-.7607.3309C66.8351,52.2946,66.2622,52.351,65.7509,52.5486Zm-.0141-.0308c.5123-.2022.95-.5808,1.4644-.7744.2482-.1133.5132-.21.7622-.3013a.6235.6235,0,0,0,.131-.0658c.0109-.0108-.0065.0132-.0008.03.0038.0124.0053-.0021-.0072-.0213a1.41,1.41,0,0,0-.2468-.2614,1.1283,1.1283,0,0,0-.7255-.2547,1.2121,1.2121,0,0,0-.7174.2981,2.3784,2.3784,0,0,0-.8294,1.2731l-.0005.0032c-.0129.0465-.0184.0991.0255.1058A.2866.2866,0,0,0,65.7368,52.5178Z"/><path class="cls-2" d="M63.4152,46.5421l-.7067.0145a2.8865,2.8865,0,0,0-.3448.0162c-.09.0108-.0513.1662-.0541.2744L62.378,48.26c.0384.9418.0427,1.8837.0061,2.8255l-.1245-.1246h.001l.13.0048-.0049.12c-.0525,1.2521-.0957,2.5038-.0639,3.7558l.014.4695a.4249.4249,0,0,0,.0277.188c.0112.0252.0568.0341.129.03l.9411-.0292c.0739-.0068.0721-.0133.0737-.0264a.8419.8419,0,0,0,.0035-.1881l-.0136-.47-.015-.9389q-.0333-1.8777.0054-3.7556c.0139-.6259.0508-1.2518.0828-1.8777.0128-.313.0351-.6259.04-.9388l.0092-.47a.5672.5672,0,0,0-.0174-.2214C63.5746,46.55,63.49,46.541,63.4152,46.5421Zm-.001-.0339c.0732-.0036.1795-.0026.226.0862a.5885.5885,0,0,1,.0313.2411l.009.4695c.0051.3129.0271.6259.04.9389.0316.6259.0684,1.2518.0822,1.8777q.0364,1.8777.0044,3.7553l-.0155.9388-.0136.47a.8817.8817,0,0,1-.0331.2774.3041.3041,0,0,1-.3117.1778l-.9365-.0251a.2983.2983,0,0,1-.2838-.133.5477.5477,0,0,1-.0349-.2722l.0149-.4693c.0341-1.2516-.0067-2.5036-.0568-3.7552l.1245.1245H62.26l-.12.0044-.005-.1291c-.0366-.9418-.0321-1.8837.0065-2.8255l.0682-1.4128c.0031-.0591.0046-.1178.0124-.18-.0036-.0548.047-.1586.1258-.1621a2.7381,2.7381,0,0,1,.36-.006Z"/><path class="cls-2" d="M52.595.4641c-.0092-.11.0295-.2844-.1018-.2916C52.3756.16,52.2491.1686,52.1268.1667l-.74.0027L49.908.1749,46.95.1913,41.0329.2534Q35.1162.3217,29.2.2754c-.0608,0-.1241-.001-.1709.0031-.0591.0259.0064-.0322-.0156.0037-.0111.087-.0056.23-.0079.348l-.0038.74L28.9939,2.849l-.0157,2.9584-.0335,5.9167c-.03,3.9444.0217,7.889.0287,11.8333a1.6182,1.6182,0,0,0,.0064.1727c.0182.057-.0064.0291.0353.0453.095.0121.2322.0048.3517.0057l.74-.0047,1.4791-.0093,2.9583-.0186,5.9168-.0294,11.8333-.0154c.06,0,.1244,0,.1628-.0043.02-.001.02-.0091-.0052.01-.0253.024-.0226.0383-.02.0217.01-.0743.0048-.2231.0063-.3395l.0008-.7395.0017-1.4792.0126-2.9584.0533-5.9167C52.5442,8.353,52.5894,4.4086,52.595.4641Zm.0338,0c.0056,3.9445.0509,7.8889.0888,11.8334l.0533,5.9167.0126,2.9584.0016,1.4792.0009.7395a3.5311,3.5311,0,0,1-.0108.3994.3016.3016,0,0,1-.0977.1846.3305.3305,0,0,1-.1767.0706,1.861,1.861,0,0,1-.2066.0076l-11.8335-.0154-5.9168-.0293L31.5856,23.99l-1.4791-.0093-.74-.0047a3.2682,3.2682,0,0,1-.387-.0136.2263.2263,0,0,1-.1359-.0745.26.26,0,0,1-.0505-.1337,1.7026,1.7026,0,0,1-.0056-.1967c.0067-3.9447.0587-7.889.0284-11.8335L28.783,5.8074,28.7672,2.849,28.76,1.37,28.7558.63A3.7351,3.7351,0,0,1,28.7638.24.2458.2458,0,0,1,28.8494.08.2948.2948,0,0,1,29.0009.025c.0758-.0072.1361-.0056.1987-.0065q5.9165-.0457,11.8333.022L46.95.1027,49.908.1191l1.4791.0055.74.0027c.1238.003.2447-.0053.3724.0091a.138.138,0,0,1,.1251.1409C52.63.3408,52.6287.4023,52.6288.4641Z"/><path class="cls-2" d="M51.6039,22.9712c.0043.1038-.01.2686-.1507.3a1.6848,1.6848,0,0,1-.3474.0185l-.6875.0027-1.3748.0055-2.75.0165-5.4992.0622-5.499.0406-2.7495-.0033-1.3748-.0075-.6873-.0038c-.1191-.002-.2191.0018-.3539-.005a.4.4,0,0,1-.2348-.0832.3487.3487,0,0,1-.1089-.2381l.0644-11.0124c.0283-3.6664-.0259-7.3312-.0341-10.9989a.6421.6421,0,0,1,.025-.2.2651.2651,0,0,1,.1826-.1719,1.6134,1.6134,0,0,1,.3692-.0238l.6874-.0046L32.4559.6554,35.2054.6367l5.499-.0292L46.2036.59,48.9531.589l1.3746.0017.6875.0008.3559.003a.4362.4362,0,0,1,.2636.093.3936.3936,0,0,1,.1225.27C51.7852,8.3243,51.6088,15.6313,51.6039,22.9712Zm-.034,0c-.0083-7.3243-.1733-14.682-.1608-21.9791-.0033-.0444-.0164-.0564-.0038-.04.0146.0077-.0135-.0071-.0584-.008L51.0155.9429,50.328.9437,48.9532.9453l-2.75-.0015L40.7044.9265,35.2052.8971,32.4557.8784,31.0809.869,30.3936.8643a1.6319,1.6319,0,0,0-.3153.0114c-.0627.0076-.0714.0718-.0758.1905-.06,7.3241-.0071,14.6789.0394,21.9813.0233.0968-.0015.0665.1086.09l.3333,0,.6875-.0038,1.3749-.0076,2.7494-.0034,5.4992.04,5.4992.062,2.75.0163,1.3747.0055.6875.0027a1.6869,1.6869,0,0,0,.3371-.0143C51.558,23.2134,51.5712,23.08,51.57,22.9713Z"/><path class="cls-2" d="M47.2512,27.2051a5.9453,5.9453,0,0,0-1.14-.14c-.3823-.0125-.7695.0231-1.1538.0324-.7691.0351-1.5414.0618-2.3065.0813l-.01,0-.014-.0018-.0046-.0006.1661-.1431c.02,1.2447-.0237,2.4895-.0649,3.7343-.0214.6224-.022,1.2448-.0282,1.8671.0108.6209-.0016,1.2483.036,1.8637l-.0789-.0757,3.2983-.0658a4.1923,4.1923,0,0,0,1.5425-.2592,1.8465,1.8465,0,0,0,.9636-1.1008,11.9324,11.9324,0,0,0,.3-3.2015,4.82,4.82,0,0,0-.304-1.5853A1.7765,1.7765,0,0,0,47.2512,27.2051Zm.0083-.0329a1.9167,1.9167,0,0,1,1.2819.994,5.1459,5.1459,0,0,1,.4486,1.6071,9.2,9.2,0,0,1-.201,3.34,2.1034,2.1034,0,0,1-1.1528,1.3,4.4783,4.4783,0,0,1-1.69.2543l-3.2946-.086-.08-.0021.0008-.0737.0182-1.87c-.0061-.6223-.0066-1.2447-.028-1.8671-.0412-1.2448-.0852-2.49-.0647-3.7343l.0026-.1706.1635.0272.0046.0008-.0238-.0015c.7747-.0059,1.5427.0353,2.3135.063A10.6913,10.6913,0,0,1,47.26,27.1722Z"/><path class="cls-2" d="M46.308,31.19c-.0564.4013.0573.7993-.0372,1.2346a.7542.7542,0,0,1-.432.5433.9428.9428,0,0,1-.3436.0747.7464.7464,0,0,1-.1871-.0095c-.0828.0057-.2212-.1388-.21-.22.0112-.4545.0712-.821.0811-1.2362a11.7763,11.7763,0,0,0-.0378-1.2112c-.0336-.4034-.0589-.8063-.07-1.2093l-.0093-.3071a.4047.4047,0,0,1,.0608-.2448.329.329,0,0,1,.2772-.1275,1.0857,1.0857,0,0,1,.678.2306.9808.9808,0,0,1,.314.6406,4.6483,4.6483,0,0,1-.0065.6222C46.3711,30.3755,46.3562,30.7876,46.308,31.19Zm-.0336-.0041a3.97,3.97,0,0,0-.1109-1.2c-.0807-.4081-.0686-.8214-.3169-1.0014a.8339.8339,0,0,0-.4486-.1546c-.04-.0015-.0179.0058.0056-.0252.01-.0235-.0061.0086-.0049.0461l-.008.2988c-.0086.405-.0318.81-.0631,1.2146-.0273.4046-.0475.8084-.0381,1.2126.0131.3925.0582.8346.087,1.1871.02.0223-.034-.0368-.0129-.0212l.1149-.002a.9742.9742,0,0,0,.2469-.049.63.63,0,0,0,.3439-.3363A3.9221,3.9221,0,0,0,46.2744,31.1858Z"/><path class="cls-2" d="M34.4123,27.166a.1826.1826,0,0,0-.2126-.1473l-.31.0037-.6211.0077c-.4143.0036-.8285.026-1.2429.0381l-.6214.0224c-.1191.0043-.1517.0084-.1708.0646-.0241.0648-.05.1891-.0755.2824-.0983.4027-.2167.8-.3242,1.2-.4394,1.5976-.98,3.1653-1.4763,4.7461l-.1818.5941-.0908.297c-.0309.1-.0677.2092-.0041.1953l1.2329-.0094c.21-.0005.4065-.0164.6283-.0086.2043.0148.4331.0526.5255-.0524.0922-.1095.0869-.3388.13-.55l.0072-.0344c0,.0081.0024-.0038.002-.0258a.2768.2768,0,0,1,.0325-.1209.2606.2606,0,0,1,.2222-.12l.3183-.0062.6214-.0112a2.8649,2.8649,0,0,1,.6524-.0244.4485.4485,0,0,1,.3192.293,1.6637,1.6637,0,0,1,.0752.3329,1.0679,1.0679,0,0,0,.0508.2353s-.0175-.0071.0149-.0015l.1378-.0009c.83-.007,1.66-.0284,2.4874-.0194l-.1741.2147c-.1518-.5935-.342-1.2225-.5113-1.832l-.4876-1.8523-.4595-1.86C34.7565,28.3953,34.5759,27.7831,34.4123,27.166Zm.0326-.0093c.1894.61.3618,1.2243.5653,1.83l.5994,1.82.5714,1.828c.1767.6191.3626,1.2111.5317,1.8524l.0568.2161-.2308-.0012-2.4821-.0137-.1729-.0036a.3292.3292,0,0,1-.2492-.1422.9787.9787,0,0,1-.0935-.3648c-.0313-.213-.0519-.3794-.16-.3911a3.4086,3.4086,0,0,0-.5847.0068l-.6211-.0158-.3028-.0074c-.083.0258-.0245-.054-.0717.1256a1.4084,1.4084,0,0,1-.2035.63c-.2358.192-.4782.0849-.6681.0777-.1918-.0153-.41-.0128-.6138-.0175-.4181-.005-.82.0006-1.2513-.013a.1391.1391,0,0,1-.1014-.0606.17.17,0,0,1-.0165-.1082,1.1289,1.1289,0,0,1,.0384-.16l.0839-.2991.1681-.598c.4368-1.5982.8284-3.2094,1.3217-4.7908.1258-.3947.24-.7926.3753-1.1846.0378-.1037.0544-.1836.1107-.31a.2824.2824,0,0,1,.1781-.1493.6.6,0,0,1,.1835-.0106l.6208.0228c.4139.0124.828.0351,1.242.0392l.6211.0081.311.0042A.222.222,0,0,1,34.4449,27.1567Z"/><path class="cls-2" d="M33.1219,32.0854c-.3479-.0074-.6423.0695-1.0329.0985a.1812.1812,0,0,1-.1439-.1211.2907.2907,0,0,1-.0086-.1244l.0155-.1277c.0131-.0828.0249-.1659.0439-.2476a4.2068,4.2068,0,0,1,.1325-.4864,5.6926,5.6926,0,0,0,.2537-.9751c.0309-.1647.0465-.3325.064-.5L32.47,29.35l.0128-.1256a.6614.6614,0,0,1,.013-.08c.07-.1156.0712-.072.0828-.0926l.0159-.0123.1592-.1222.0541.2085c.128.4929.255.986.3335,1.4888a5.3337,5.3337,0,0,1,.0707.7637l.0214.3846.0218.1914a.1188.1188,0,0,1-.0288.1076A.1555.1555,0,0,1,33.1219,32.0854Zm.0005-.0339c.1631.0157.0568-.1643.0351-.2737l-.1278-.3633a5.3177,5.3177,0,0,1-.2281-.7323c-.1207-.4944-.1927-.9986-.2637-1.5029l.2129.0862-.0374.0207c-.0056-.0094-.0267.0418.0339-.0546.0038-.0152-.0082.0307-.0117.043l-.0361.121-.0742.2417c-.0475.1615-.0972.3225-.1313.4866a5.6771,5.6771,0,0,0-.1378.9983,4.1714,4.1714,0,0,1-.0632.5c-.0134.0828-.0343.1641-.0538.2457l-.0332.119c-.0049.0106-.0031.0191-.01,0-.0054-.0286-.0558-.0548-.052-.045A5.9156,5.9156,0,0,0,33.1224,32.0515Z"/><path class="cls-2" d="M41.6191,32.626c.0038-.1518-.1517-.1182-.2721-.1174l-.3727.007c-.2484.0064-.4969.0053-.745.02a1.288,1.288,0,0,1-.3957-.0109c-.1811-.0928-.1419-.2836-.1553-.39l-.03-.7463c-.0427-.9949-.0463-1.99-.0278-2.9842l.0235-.7459.0126-.373a.7182.7182,0,0,0-.0028-.1562c-.0081-.0262,0-.0226-.0548-.0367-.4736-.0235-.9894-.0339-1.4816-.0378l-.7442-.0059c-.1309-.0038-.1525.0585-.1488.191l.0041.3731c.0015.4974.024.9948.0353,1.4922.0232.9949.0608,1.99.0677,2.9851l.0156,1.4926.0008.7428c-.005.0547.0227.0794-.0161.0334-.0385-.0181.0029,0,.0615-.0068l.379-.0006c1.0052-.0045,1.9921.0134,2.9893.0592l.7461.0328c.1033-.0062.3239.0372.2848.0162a2.7525,2.7525,0,0,0-.02-.3484Zm.0338-.0037.2132,1.4767a2.0009,2.0009,0,0,1,.0472.3924.14.14,0,0,1-.118.1063.456.456,0,0,1-.1108-.0026c-.0421-.0044-.1187.0033-.1764.0044l-.7461.0341c-.9923.0487-1.9951.0638-2.9793.0671l-.3671.0034a.4421.4421,0,0,1-.3-.0639.3762.3762,0,0,1-.1244-.31l.002-.7494.0187-1.4916.0658-2.9836c.01-.4974.0311-.9948.0311-1.4921l.0032-.3731a.3751.3751,0,0,1,.0468-.2118.25.25,0,0,1,.21-.0847l.7481-.0069,1.5023-.0323a.2436.2436,0,0,1,.2263.1667.806.806,0,0,1,.0236.2146l.0111.3731.02.7462c.0144.995.0066,1.99-.04,2.9844l-.0331.7459c-.0062.1226-.0151.2515.0536.28a1.3424,1.3424,0,0,0,.3446.0314c.25.0122.4982.0089.7473.0132l.3734.0038c.063.0022.122-.0022.1894.0054C41.6154,32.4741,41.6532,32.5629,41.6529,32.6223Z"/><path class="cls-2" d="M52.4069,30.7684c-.0044-.8325-.0415-1.665-.0876-2.4978-.01-.2081-.0238-.4164-.0256-.6245l-.0106-.5036c.0439.009-.108.0028-.2042.0052l-.3128-.0037-.6254-.0075-.6252-.0218-.3125-.0118a1.3094,1.3094,0,0,0-.2571,0c-.0157-.0188-.03.1136-.0293.2129l-.0124.3122-.0111.6244c-.0176.8326.0063,1.665.0336,2.4976.0212.8325.0574,1.6652.066,2.4977l.0116,1.109c-.0622-.0221.0813-.0013.1785-.0084l.313.0019.6261.0039,1.1494.01c-.0255.06.0126-.0556.0047-.16l.01-.3123.029-.6246C52.3637,32.4334,52.4,31.6009,52.4069,30.7684Zm.0338,0c.0091.8324.0465,1.6648.0972,2.4969l.03.6241.01.3121c.001.0514.0055.1013.002.17a.3241.3241,0,0,1-.1243.2568.74.74,0,0,1-.4017.0709l-.3115.0014-.6227.0027-.6226.0028-.3115.0013-.1639-.0017a.3871.3871,0,0,1-.2623-.0941c-.1649-.2281-.0783-.329-.0993-.4287l.0043-.3121.0087-.6243c.009-.8323.0457-1.6647.0673-2.4971.0276-.8324.0518-1.6649.0346-2.4973l-.0108-.6244-.0124-.3121c.0172-.0958-.0684-.2157.0939-.3736a.8746.8746,0,0,1,.3588-.0525l.3118-.012.6236-.022.6232-.0077.3116-.0039.157.0014a.3629.3629,0,0,1,.2472.0787.329.329,0,0,1,.09.25l-.0033.1606-.0073.3121c-.0023.208-.0168.4161-.0268.6242C52.4849,29.1035,52.4465,29.9359,52.4407,30.7684Z"/><path class="cls-2" d="M42.6372,34.5239l-.117-1.8807a17.6966,17.6966,0,0,1-.0353-1.8707c.02-.6236.0748-1.2472.0813-1.8708.0306-.6392-.03-1.2122-.0055-1.9058l.1524.0957c-.04.0406.0068.2594.0023.4031l.02.4713.0259.9425c.0114.6284.0276,1.2568.0165,1.8851.0007.6284-.0142,1.2567-.06,1.8851l-.0648.9426-.0231.4713-.0067.2369c-.0081.0782-.0135.1567.0447.2038l-.0283.0176-.0038-.0405.0143.017Zm.0194-.0279-.0018-.0022.0142.0171.0038.0315.0052.043-.0336-.0253a.2516.2516,0,0,1-.0643-.233l-.0046-.2345-.0232-.4712-.0649-.9426c-.0462-.6284-.0611-1.2568-.06-1.8851-.0111-.6285.0049-1.2569.0165-1.8852l.0255-.9427.02-.4712.0108-.231a.4015.4015,0,0,1,.0738-.2879l.1524.0957a.546.546,0,0,0-.0191.1934l-.01.2339-.0121.4676c-.0068.3118-.01.6236.0007.9354.0064.6236.0614,1.2472.0813,1.8707a17.698,17.698,0,0,1-.0353,1.8708A17.3952,17.3952,0,0,0,42.6566,34.496Z"/><path class="cls-2" d="M42.6427,27.2259c-.0058.6074.0467,1.2147.0861,1.822a16.8409,16.8409,0,0,1,.0389,1.822c-.0157.6073-.0684,1.2146-.08,1.822-.008.3036-.0138.6073-.0048.9109l.0083.4555.01.2278c.0043.0834-.0037.1591.02.1817l-.06-.0413.0046,0-.098.0824,0-.0132v.01c-.0484-.6291-.0641-1.2466-.08-1.8706-.0083-.6223-.032-1.2447-.02-1.8671-.0015-.6224.0086-1.2448.0507-1.8672s.0988-1.2448.1056-1.8671l.038.0082A.428.428,0,0,0,42.6427,27.2259Zm-.0339,0a.45.45,0,0,1,.0164-.2l.0369-.0842.001.0925c.0068.6223.0631,1.2447.1056,1.8671s.052,1.2448.0507,1.8672c.0117.6224-.0119,1.2448-.02,1.8671l-.0621,1.8634,0,.01v.0033l-.0027.0993-.0955-.0167-.0052-.0009-.0583-.01-.0016-.0313c-.0361-.6833.0238-1.2357-.0094-1.86-.012-.6074-.0646-1.2147-.08-1.822a16.8665,16.8665,0,0,1,.039-1.822C42.5621,28.4406,42.6144,27.8333,42.6088,27.2259Z"/><path class="cls-2" d="M43.3719,34.5427a4.4506,4.4506,0,0,0-.7171.0537l.0733-.1426a.1174.1174,0,0,1,.0181.1218.1351.1351,0,0,1-.09.062v-.1818a3.6411,3.6411,0,0,1,.8461-.0561c.282.0164.564.064.8459.0866a5.1131,5.1131,0,0,0,.8462-.02,6.1409,6.1409,0,0,0,.8-.1015l.0484.3033a12.2527,12.2527,0,0,1-1.3348.0189C44.2621,34.67,43.8159,34.5348,43.3719,34.5427Zm0-.034c.4444.0039.8867-.1353,1.3293-.1566a12.2049,12.2049,0,0,1,1.3306.0069l1.3707.054-1.3222.2494a3.2094,3.2094,0,0,1-.8859-.0315,5.1127,5.1127,0,0,0-.8461-.0211c-.2821.0221-.5641.0694-.8463.0853a3.6362,3.6362,0,0,1-.8461-.0575l0-.1818a.0584.0584,0,0,0-.0619.0325c-.0142.012-.0141.0724.0124.0832l.0735-.1427A4.0194,4.0194,0,0,0,43.3718,34.5087Z"/><path class="cls-2" d="M45.6237,34.5244c-.4953-.0119-.9909.16-1.4861.1314a11.9879,11.9879,0,0,0-1.4856-.0937l.0258-.1139a.2149.2149,0,0,1,.0326.0221l-.0344-.0176c.6236-.0407,1.248-.1067,1.88-.1132a6.2277,6.2277,0,0,1,.9455.0491l.4748.071.0595.0084c0-.02.0015.1728.0005.0912h-.001l-.0018,0-.0037-.0006-.0074-.0012-.0146-.0024L45.978,34.55l-.118-.0121C45.7813,34.53,45.7025,34.5293,45.6237,34.5244Zm0-.0339c.0788-.0025.1576,0,.2366-.0068l.1185-.0085.03-.0033.0147-.002.0075-.001.0038,0,.0018,0h.0008c-.0007-.0816.0022.111.0015.0912l-.0589.009-.4711.0753a6.2382,6.2382,0,0,1-.9463.0576c-.3161-.0032-.6324-.0161-.9483-.0331-.3133-.01-.6428-.0776-.9559-.0956l-.0346-.0177.0024.0015.026-.114a11.988,11.988,0,0,0,1.4861-.0884C44.6335,34.3266,45.1284,34.5007,45.6239,34.4905Z"/><path class="cls-2" d="M42.656,34.5234c-.0474-.0288-.1047.0321-.0982.095l.0869.0447-.0007-.1018.0595-.05c.0978.0091.1364-.0078.1169-.0054l-.1651-.1284C42.602,34.4205,42.5988,34.5067,42.656,34.5234Zm.0309.0141c.0467.0275.0331.1246-.0306.1783l-.0189.0158-.1464-.1442c-.0218-.0217.0143-.0625.11-.0774l.0467-.0073L42.66,34.46l.0291-.0978.0577-.1924.03.2373C42.7859,34.4817,42.7315,34.5544,42.6869,34.5375Z"/><path class="cls-2" d="M42.652,34.5049c-.0517-.032-.1067.06-.0813.1265a.2917.2917,0,0,0,.0591-.0826l.0745-.0427.1.0069h.0167l-.1434-.1693C42.6131,34.3811,42.5932,34.48,42.652,34.5049Zm.03.0154c.0489.0234.0189.1212-.0558.1572l-.1435-.1694L42.5,34.5l.1-.0013.0442-.0006.03-.0423a.3086.3086,0,0,1,.0741-.0722C42.7788,34.4534,42.7288,34.5488,42.6821,34.52Z"/><path class="cls-2" d="M45.909,27.0219a6.9863,6.9863,0,0,1-.8052.1051,5.8535,5.8535,0,0,1-.8238.0068c-.2746-.0253-.5491-.0762-.8236-.0886-.1373-.0073-.2747-.001-.412.0037a2.0638,2.0638,0,0,0-.206.0131c-.0766.0034-.1391.0179-.1114.0226l-.1169-.136a.3082.3082,0,0,1,.1349-.0379l.0986-.011c.0652-.0082.13-.0133.1944-.0171.1286-.0093.2546-.0173.3805-.018a6.5465,6.5465,0,0,1,.7476.019C44.68,26.9352,45.2539,27.0085,45.909,27.0219Zm.0336.0036c-.4388.0106-.9587.0813-1.5386.13-.2918.0219-.5979.0216-.8931.0149-.1476-.0014-.2951-.01-.44-.02l-.216-.0182-.1066-.0116-.0528-.0057c-.0075.0027-.0041.0061-.01.0049l-.1772-.0384.06-.0976a.1911.1911,0,0,1,.1613-.0785l.1085.0094c.0687.0081.1372.0132.2059.0144.1373.0056.2746.0127.412.0063.2745-.0108.5494-.06.8241-.0835a5.842,5.842,0,0,1,.824.0119c.1372.0086.2745.03.4118.0438.0687.0061.1372.02.2058.032A.5254.5254,0,0,1,45.9426,27.0255Z"/><path class="cls-2" d="M45.9088,27.0235c-.2677,0-.5971.004-.9046.0314-.3146.0279-.577.0643-.8179.0654-.2368,0-.4734-.04-.7382-.05-.1313-.0058-.2669,0-.401.0057-.0671.0012-.1343.0054-.2014.0133l-.1.01c-.04-.0014-.0653.0114-.06.02l-.04-.178a6.96,6.96,0,0,1,1.53-.0582l.8266.1A8.5487,8.5487,0,0,0,45.9088,27.0235Zm.034,0a5.0287,5.0287,0,0,0-.7331.0426c-.2313.0369-.5174.0773-.8122.1026a10.3007,10.3007,0,0,1-1.7478-.0418l-.0393-.1781c.3472-.0234.5734.0347.8708.0159.2822-.0094.5925-.0479.9026-.0462a6.8838,6.8838,0,0,1,.8228.0695A6.0965,6.0965,0,0,0,45.9428,27.0239Z"/><path class="cls-2" d="M51.2934.7842c-3.666.005-7.332.0426-10.9982.0892l-5.4991.04L32.0464.91,30.6716.9028,30.328.9009A.7332.7332,0,0,0,30.0674.92c-.0114-.0129-.0338.0972-.0275.2108l-.0018.3438-.059,10.9985c-.02,1.833-.01,3.6661,0,5.4992l.0116,2.75.006,1.3748.0028.6874a1.6562,1.6562,0,0,0,.0149.3172c.0094.0656.0752.0723.1927.076l10.9975-.0667,5.4992-.0173,2.75-.0015,1.3749.0016.3436,0a.9891.9891,0,0,0,.2353-.0112c-.02.044.0152-.06.0049-.1768l.0005-.3437c-.0081-3.6661.0316-7.3322.0692-10.9984L51.54,6.0646l.0178-2.75L51.5638,1.94l.0031-.6874a1.8451,1.8451,0,0,0-.0127-.3378C51.535.7989,51.4025.7825,51.2934.7842Zm0-.0339c.104-.0055.27.0139.2966.1553a1.8484,1.8484,0,0,1,.0172.3473l.003.6874.0062,1.3748.0178,2.75.0584,5.499c.0376,3.6661.0772,7.3321.0692,10.9982l0,.3436c-.0188.1.0581.2689-.154.4648a.781.781,0,0,1-.4372.0757l-.3436,0-1.3748.0017-2.7495-.0014-5.499-.0171-10.999-.0667a.6353.6353,0,0,1-.2-.0281.2623.2623,0,0,1-.1667-.1836,1.6436,1.6436,0,0,1-.0184-.3675l.0036-.6874.0073-1.3747.0144-2.7495c.0111-1.833.0235-3.666.0053-5.4991L29.7813,1.4751l-.0022-.3437c.0132-.1032-.0455-.2663.1376-.4287a.7587.7587,0,0,1,.4115-.07l.3437-.0018L32.0466.6233,34.7963.62l5.4989.0406C43.9612.7073,47.6274.7451,51.2934.75Z"/><path class="cls-2" d="M32.8218,22.6579l-.7274.0088c-.0559.0006-.1437.0089-.1829-.0718a.34.34,0,0,1,.015-.1941l.0962-.351.38-1.4055.7311-2.819c.4828-1.8808,1.0032-3.7509,1.545-5.615.5466-1.8628,1.1261-3.7163,1.6567-5.5836.2752-.9309.5278-1.8681.7814-2.8051l.38-1.4048.19-.7023c.0412-.1011.025-.2654.2031-.3728a1.2287,1.2287,0,0,1,.4012-.0354l.7284-.01a.24.24,0,0,1,.25.1447.4511.4511,0,0,1-.0172.2384l-.0941.3516-.3762,1.4065-.76,2.8108-1.5648,5.61c-.5261,1.8686-1.0683,3.7326-1.64,5.5882l-.8517,2.7852-.412,1.3965-.2023.6987-.0449.1764c-.0116.0523-.0387.1409-.1179.1507C33.0609,22.6681,32.9437,22.6537,32.8218,22.6579Zm-.0006-.0339c.12-.0059.2469.0052.36-.0094.0993-.026.0866-.1946.1258-.2994l.1908-.7031.3778-1.4061.7278-2.82c.4808-1.8812.9915-3.7541,1.5185-5.6224l1.5941-5.6012.8168-2.7953L38.9448,1.97c.047-.2053.2084-.57.0716-.4693l-.7277-.0091a1.4285,1.4285,0,0,0-.32.011c-.0533.0134-.0794.1384-.1144.2565l-.203.6995-.406,1.3988c-.2724.9316-.5457,1.8631-.7964,2.8008-.5215,1.87-.9939,3.7535-1.4992,5.6279-.51,1.8731-1.0415,3.74-1.6108,5.5965l-.8508,2.7857-.4116,1.3966-.1015.3495a.3114.3114,0,0,0-.0192.1626c.0137.0414.08.0471.1369.0446Z"/><path class="cls-2" d="M35.1365,22.6606l-.7249.0024a.5254.5254,0,0,1-.1893-.0243c-.0826-.0406-.0584-.1379-.0488-.189l.0931-.3532.3776-1.4049.7274-2.8175c.4816-1.8793,1.0008-3.748,1.5413-5.6107.5453-1.8614,1.1236-3.7135,1.653-5.5794.2745-.93.5264-1.8667.7794-2.8029l.381-1.4039.19-.7018A2,2,0,0,1,40.0293,1.4a.2717.2717,0,0,1,.24-.089h.1823l.7224-.0128a.5636.5636,0,0,1,.2247.02.1966.1966,0,0,1,.1194.1382.3456.3456,0,0,1,.0015.1324c-.03.1417-.0623.241-.0932.3636L41.05,3.3572l-.76,2.8083-1.5582,5.6058c-.5235,1.8674-1.0635,3.73-1.6331,5.5848L36.2512,20.14l-.41,1.3957-.2025.6985a.87.87,0,0,1-.1481.339A.3644.3644,0,0,1,35.1365,22.6606Zm.0055-.0335a.3274.3274,0,0,0,.3184-.0807.8368.8368,0,0,0,.1335-.3248l.1905-.7019.3761-1.4053.7241-2.8184c.4785-1.88.9868-3.7519,1.5114-5.6192l1.5878-5.5979L40.8,3.2861l.4119-1.3953c.0317-.1115.0746-.2432.0971-.3381.0051-.06.0039-.0476.01-.0419a.4467.4467,0,0,0-.1352-.0089l-.7322-.0056a1.2349,1.2349,0,0,0-.2751.0059,3.2059,3.2059,0,0,0-.0932.32L39.88,2.52l-.4061,1.3969c-.2718.9309-.5445,1.8615-.7947,2.7986-.52,1.8684-.9911,3.7507-1.4953,5.6236-.5089,1.8716-1.0391,3.7372-1.607,5.5923L34.73,20.7156l-.41,1.3959-.0975.3486c-.0119.0566-.0232.12.0207.1359a.502.502,0,0,0,.1689.0221Z"/><path class="cls-2" d="M37.8229,22.4217a.2744.2744,0,0,1-.3457.2426l-.4486.0006h-.0011l-.0025,0a2.555,2.555,0,0,0-.3509.0257.3535.3535,0,0,1-.1882-.0344.1784.1784,0,0,1-.0863-.1775c.0415-.252.1556-.4518.2022-.689l.3591-1.3813.712-2.7644q.7265-2.76,1.5353-5.4974c.5416-1.8241,1.0983-3.644,1.6164-5.4748.2671-.9131.5027-1.835.7557-2.7521l.3729-1.3768.1861-.688c.035-.12.0535-.2165.1017-.3567a.3031.3031,0,0,1,.1767-.1753A.6277.6277,0,0,1,42.63,1.3l.7051-.01L43.52,1.287a.2488.2488,0,0,1,.2553.1418.8869.8869,0,0,1-.0578.4167l-.37,1.3781-.7492,2.7535c-.5019,1.8352-1.0094,3.6689-1.535,5.4976C40.0563,15.1443,38.8505,18.758,37.8229,22.4217Zm-.0326-.0089c1.0159-3.6673,1.8843-7.376,2.9373-11.0326.5062-1.8342,1.03-3.6632,1.56-5.4907l.8-2.74.4053-1.3686a1.52,1.52,0,0,0,.0709-.2768c.0593.0221-.1091-.0075-.22.0017l-.7219-.0089c-.1285-.0033-.1739-.0036-.2088.0764-.0321.0835-.0661.22-.099.3276l-.1989.686-.398,1.371c-.2613.9147-.54,1.8246-.787,2.7433-.5105,1.8328-.9823,3.6766-1.4691,5.5161s-1.0061,3.67-1.55,5.4933l-.8307,2.731L36.668,21.808c-.0489.23-.1725.4565-.21.6744-.0222.1159.1022.165.2146.1551a2.43,2.43,0,0,1,.36-.02l-.0033,0,.4526.0064a.31.31,0,0,0,.2048-.03A.3179.3179,0,0,0,37.79,22.4128Z"/><path class="cls-2" d="M50.3418,15.518a.3518.3518,0,0,1-.0215.1743.1881.1881,0,0,1-.1542.0923c-.1174.0111-.225.006-.3379.01-.2236.0051-.447.0027-.6705.0157l-1.3407.0606c-.8937.0442-1.7871.0479-2.681.0324-.8934-.02-1.7873-.0752-2.6811-.0791-.4469-.0107-.8936-.0038-1.34.0022l-.3375.0034a.2915.2915,0,0,1-.205-.06.2352.2352,0,0,1-.03-.2264l.1659-.6488a1.67,1.67,0,0,1,.1083-.3493.4236.4236,0,0,1,.3891-.1539l.67-.018,1.34-.0279c.8935-.0118,1.787-.0236,2.6807-.0145.8936-.0014,1.7871.0141,2.6811.06l1.3407.0631a.8264.8264,0,0,1,.348.0552c.1289.09.0842.2405.088.3411Zm-.034.002-.0117-.6732c-.0022-.1081.0146-.2338-.0667-.2767a.6591.6591,0,0,0-.31-.0216l-1.34.0658c-.8936.0482-1.7876.0656-2.6816.0661-.8938.0124-1.788-.0028-2.6818-.0162l-1.3409-.0307-.67-.0194c-.12-.0059-.1893-.0023-.2175.0433a1.8589,1.8589,0,0,0-.1.2856l-.2045.64c-.1214.1792.2361.1042.431.1243.4469.0052.8938.0111,1.3407,0,.8938-.0057,1.7875-.0622,2.6814-.0844.8937-.0175,1.7878-.01,2.6817.0357l1.34.0636c.2234.0136.4467.0116.67.0172.11,0,.2265.0082.3318.0015C50.28,15.7426,50.3208,15.6317,50.3078,15.52Z"/><path class="cls-2" d="M50.3421,17.5964a.3621.3621,0,0,1-.0223.1836.1991.1991,0,0,1-.1625.096c-.1233.0115-.2372.0061-.3565.01-.2358.005-.4715.0026-.7075.0157l-1.4151.0609c-.9435.0441-1.8864.0485-2.83.0317-.9433-.0213-1.8866-.077-2.83-.0818-.4718-.0111-.9435-.0047-1.4151.0009l-.3542.0035a.727.727,0,0,1-.1965-.0135.1436.1436,0,0,1-.1037-.1156.3472.3472,0,0,1,.0051-.1121l.1623-.692a1.4942,1.4942,0,0,1,.1144-.3732c.13-.1688.3175-.122.4127-.134l.7072-.0175,1.414-.0268c.9432-.0128,1.8865-.0273,2.83-.017.9434-.001,1.8865.0148,2.83.0614L49.84,16.54a2.5969,2.5969,0,0,1,.3618.0268.1922.1922,0,0,1,.1464.1379.5885.5885,0,0,1,.0074.1873Zm-.0339.0023-.0116-.711c.0073-.115-.0012-.2375-.1131-.2515a1.6451,1.6451,0,0,0-.3436-.0017L48.425,16.7c-.9431.0479-1.8866.065-2.83.0651-.9433.0113-1.8867-.0013-2.83-.0137L41.3487,16.72l-.7077-.02c-.1279-.0047-.2236-.01-.2444.0306a1.7026,1.7026,0,0,0-.1.2978l-.1994.6759a.2535.2535,0,0,0-.0088.0632c.0035.01-.01-.0031.0068.0072a.63.63,0,0,0,.1548.0162l.3534.0038c.4716.0056.9433.012,1.4151.0009.9433-.0047,1.8866-.06,2.83-.0817.9434-.0162,1.887-.0093,2.83.0363l1.4149.0634c.2358.0135.4718.0115.7076.017.1164,0,.2389.0085.35.0013C50.2784,17.8345,50.3234,17.7165,50.3082,17.5987Z"/><path class="cls-2" d="M50.3426,12.7405l.01.6293c.0006.0923.0313.2457-.101.3146a1.0559,1.0559,0,0,1-.3274.0409l-1.265.0608c-.8433.0441-1.6865.0489-2.53.0316-.8432-.0219-1.6863-.0757-2.53-.08-.4218-.0107-.8433-.0039-1.2649.0022l-.6324.014-.32.0093a.3533.3533,0,0,1-.2007-.049.2269.2269,0,0,1-.0719-.2332l.15-.622.0771-.3151a.3394.3394,0,0,1,.1434-.1927.4309.4309,0,0,1,.2165-.0538l1.2652-.0263c.842-.0109,1.6861-.027,2.5289-.0164.8433-.0012,1.6865.0144,2.53.0609l1.2652.0634c.2108.0131.4217.0116.6325.0171a.81.81,0,0,1,.3222.042C50.361,12.4992,50.3532,12.6435,50.3426,12.7405Zm-.0338-.0031c.0075-.0994.0029-.22-.088-.2577a.7847.7847,0,0,0-.3012-.0247c-.211.0059-.4218.0048-.6326.0183l-1.2647.0656c-.8433.0481-1.6866.0653-2.53.0656-.8436.011-1.6861,0-2.5307-.0144l-1.2646-.0322c-.0949.0048-.0982-.0026-.131.0655l-.09.2947-.183.5982c-.1.1061.2209.0794.4095.0918l.6327.0127c.4216.0052.8433.0111,1.265,0,.8433-.0053,1.6867-.063,2.53-.0836.8435-.0156,1.687-.0092,2.53.0365l1.2647.0634a.7926.7926,0,0,0,.2982-.0125c.0832-.0326.0745-.1485.0741-.2511Z"/><path class="cls-2" d="M45.4665,28.6747c-.0978-.0145-.2092.0016-.2081.11a2.359,2.359,0,0,0,.0171.2981l.0637.6055a7.1859,7.1859,0,0,1,.0376,1.2134c-.0248.4043-.075.8082-.0881,1.2122-.0069.2019-.0013.4042.0038.606.0042.1095.0156.1055.1247.101a.94.94,0,0,0,.2724-.0563c.3482-.1336.3982-.5264.4065-.9112.0053-.1949-.0025-.3993.0119-.6132a4.8128,4.8128,0,0,0,.0252-.5841c-.0037-.3846-.0356-.81-.0037-1.2a.8341.8341,0,0,0-.15-.53A.7533.7533,0,0,0,45.4665,28.6747Zm.0039-.0337a.9.9,0,0,1,.8807.7887,9.314,9.314,0,0,1,.1437,1.2187,3.4859,3.4859,0,0,1-.0351.6253c-.0238.1885-.028.3888-.0452.5972a1.8321,1.8321,0,0,1-.145.6363.7641.7641,0,0,1-.5258.4347,1.1056,1.1056,0,0,1-.326.0247.2927.2927,0,0,1-.1866-.0586.238.238,0,0,1-.0578-.1892c.0056-.2022.0119-.4039.0055-.6059-.0118-.404-.0606-.808-.0843-1.2117a7.3435,7.3435,0,0,1,.0319-1.21l.0605-.6064c.0142-.1023.0083-.1994.0256-.3073a.1581.1581,0,0,1,.0992-.1317A.3881.3881,0,0,1,45.47,28.641Z"/><path class="cls-2" d="M32.6664,29.168a9.2942,9.2942,0,0,1-.2383,1.7205c-.0811.2844-.187.5639-.2565.8506-.0149.0722-.0344.1434-.0457.2163-.0053.0839-.0245.0416.0676.0525.1475-.0006.295-.0222.4429-.0328.1477-.0135.2957-.0339.4436-.0412.04-.0016.0745-.0066.0614-.0077a.08.08,0,0,0-.0475.0421c-.0093.0212-.0065.0228-.0091.0162l-.047-.1905c-.0658-.2724-.1292-.5371-.1721-.8112C32.7844,30.4307,32.7384,29.8464,32.6664,29.168Zm.0125-.0314c.1588.4778.3436,1.05.4932,1.6539.0726.304.1245.6174.1743.9232.0123.0831.0258.1379.0364.2436a.2683.2683,0,0,1-.0205.125.2081.2081,0,0,1-.1282.1124.4173.4173,0,0,1-.1579.0082c-.1469-.0076-.2936-.0283-.4406-.0421-.1471-.0108-.2943-.0327-.4415-.0336a.23.23,0,0,1-.143-.0345.1516.1516,0,0,1-.0277-.1578c.0174-.0716.0267-.1449.04-.2173.0452-.2916.054-.59.0876-.8843a6.7892,6.7892,0,0,1,.1815-.8655c.0368-.1429.0855-.2835.1277-.4254.02-.0711.0477-.1407.0737-.2107l.039-.1049a.2183.2183,0,0,1,.0335-.0664A.2138.2138,0,0,1,32.6789,29.1366Z"/><path class="cls-2" d="M41.38,1.6406a.32.32,0,0,0,.0137-.1676c-.0163-.0478-.0817-.0547-.1389-.0546l-.3626.0052c-.2386.0065-.4941-.0014-.7206.0134-.0876.0237-.0856.19-.1225.2951l-.0951.3516-.1863.7032-.7272,2.8176c-.4815,1.8792-1.001,3.748-1.5414,5.6106-.5453,1.8614-1.1237,3.7135-1.6529,5.5794-.5427,1.8615-1.0264,3.7423-1.54,5.61a.5238.5238,0,0,0-.0232.139c.0052.0037-.0165-.02-.0053-.011a.3168.3168,0,0,0,.0645.0083l.3566-.0014.3767-.0018c.134,0,.2242.0219.2827-.0216.1139-.077.15-.3763.2192-.5964l.1876-.7028.758-2.8089L38.08,12.8012C39.1007,9.0586,40.3219,5.3723,41.38,1.6406Zm.0326.0093c-1.0438,3.736-1.9211,7.5185-2.9957,11.2457L36.83,18.4933l-.8143,2.7931-.2057.6977-.1028.349a.6235.6235,0,0,1-.23.371.7233.7233,0,0,1-.4279.0451l-.3507-.0059c-.1225-.0026-.2386,0-.37-.0084a.4619.4619,0,0,1-.1146-.021.1775.1775,0,0,1-.1185-.1393.5809.5809,0,0,1,.0314-.2181c.5334-1.8676,1.1007-3.7207,1.6068-5.5938.52-1.8684.9912-3.7507,1.4954-5.6236.509-1.8716,1.0391-3.7372,1.607-5.5923l.847-2.7839.2073-.6972.1-.3491.046-.1762c.0139-.051.0389-.1435.122-.1575.2559-.0145.4872,0,.7329-.0042l.3646,0c.0562.0016.1426.0046.1729.0813A.3426.3426,0,0,1,41.4129,1.65Z"/><path class="cls-2" d="M39.1367,1.6374a.313.313,0,0,0,.0145-.1671c-.0185-.0458-.0851-.0518-.1417-.0519l-.3636.0032a4.3825,4.3825,0,0,0-.71.0294c-.0923.0512-.1005.19-.1373.3024l-.0957.3513-.186.7039-.7284,2.82c-.4826,1.8807-1.0032,3.7509-1.545,5.615-.5464,1.8628-1.1261,3.7163-1.6567,5.5836-.5434,1.8636-1.03,3.7435-1.5488,5.6145a.2915.2915,0,0,0-.0159.1077c-.025-.0174.022.0059.0757-.0031l.3674-.007.3639-.0054c.1141-.0057.2706.003.3353-.01-.022.0572.0355-.1386.0553-.2412l.0941-.354.1884-.7032.7615-2.8106,1.5646-5.6094C36.8538,9.0615,38.0788,5.3729,39.1367,1.6374Zm.0326.0093c-1.0432,3.74-1.9244,7.5247-3.0048,11.254L34.57,18.5019l-.8179,2.7948-.2064.6981-.1018.3471-.0455.1752a.6259.6259,0,0,1-.0365.1075.2113.2113,0,0,1-.139.1148,2.74,2.74,0,0,1-.3912.0083l-.3639-.0039-.3606-.0026a.2546.2546,0,0,1-.2542-.1028.3431.3431,0,0,1,.0058-.2478c.5365-1.8653,1.1076-3.7209,1.6144-5.595.5214-1.87.9937-3.7535,1.4992-5.6279.51-1.8731,1.0415-3.74,1.6106-5.5966l.8478-2.786.2071-.6979.1009-.35c.0412-.1073.0387-.2548.1695-.3355a3.8366,3.8366,0,0,1,.7369-.0252l.3643.0023c.0569.0026.1407.0022.1755.0775A.3354.3354,0,0,1,39.1693,1.6467Z"/><path class="cls-2" d="M43.6367,1.6381A.3.3,0,0,0,43.65,1.466c-.0215-.0461-.0914-.05-.15-.0494l-.3762.0042-.3773.003c-.1227.009-.263-.0244-.3436.0492a12.4515,12.4515,0,0,0-.4138,1.4251l-.7516,2.9157c-.5,1.9439-1.0392,3.877-1.603,5.803-.5708,1.9241-1.1591,3.8433-1.7053,5.7743-.28.9637-.53,1.9356-.7962,2.903l-.3937,1.4528c-.05.2374-.1619.5042-.2138.71-.0581.1779.2229.0773.5185.082l-.0153-.0012.36-.0019c.1288-.0028.2308.012.2525-.026a.7869.7869,0,0,0,.0947-.2708l.09-.34.3611-1.3584.7365-2.7126q.7395-2.7116,1.5133-5.4132C41.433,8.8032,42.6134,5.2428,43.6367,1.6381Zm.0326.0094c-1.0138,3.6072-1.862,7.2611-2.898,10.8622q-.7479,2.709-1.5341,5.4072l-.7822,2.6989-.3958,1.348-.099.3371a.8365.8365,0,0,1-.1659.3725c-.1631.1358-.3264.0626-.4226.0773l-.3431-.0065H37.02l-.0066-.001c-.0881-.0134-.2181.0186-.3588.0192a.3561.3561,0,0,1-.2406-.0752.267.267,0,0,1-.0726-.2611c.0767-.2783.1721-.4722.2317-.7259l.42-1.4454c.2762-.9646.5685-1.9248.8313-2.8932.5384-1.9331,1.0348-3.8781,1.549-5.8181.5209-1.9381,1.0667-3.8693,1.6513-5.7895L41.9,2.8733l.2151-.721.1041-.3614a.9029.9029,0,0,1,.1457-.36c.1232-.0973.2643-.0471.3834-.0584l.3752.0027.3763.0015c.0593.0022.1439-.0014.1838.0737A.3222.3222,0,0,1,43.6693,1.6475Z"/><path class="cls-2" d="M50.04,16.6043c-1.8867.0033-3.7732.1909-5.66.1271-.9434-.02-1.8869-.0758-2.8305-.083l-.7077-.0077c-.2318.0206-.5186-.0713-.5256.1853l-.1708.689-.0391.169c-.0164.0567,0,.1056-.0121.0741a1.85,1.85,0,0,0,.3086.003c1.8868-.0517,3.7733-.1,5.66-.0812.9435,0,1.887.0177,2.83.0659l.7074.034.3537.0159c.115.0029.2467.0236.2977-.0338.0515-.0637.0291-.2019.0372-.3165l.0067-.3561c-.0024-.1175.013-.2407.0031-.3478C50.29,16.6223,50.1519,16.6039,50.04,16.6043Zm0-.034c.1043-.0071.2833.009.3047.1623.0159.1273.0031.2408.01.3589l.006.3514c-.0136.1155.0426.2321-.0339.3763-.1194.1286-.2638.0853-.3729.1017l-.3539.0152-.7075.0328c-.9435.0465-1.8867.062-2.83.0608-1.8865.0152-3.7733-.03-5.66-.083a1.1589,1.1589,0,0,1-.3924-.0455c-.1237-.101-.0583-.2029-.0561-.2514l.05-.1732.1956-.6778a.4065.4065,0,0,1,.0859-.1859.2825.2825,0,0,1,.199-.08l.3577.0029.7074-.0051c.9431-.0023,1.8863-.0581,2.83-.08C46.2665,16.3843,48.1533,16.5694,50.04,16.57Z"/><path class="cls-2" d="M50.0431,14.5182c-1.7875.0038-3.5748.1927-5.3627.1285-.894-.0223-1.7877-.0789-2.6815-.0846l-.67-.007a1.1729,1.1729,0,0,0-.3118.0215c-.0813.0285-.0959.1234-.1273.2378l-.1723.6535c-.0339.1068-.0546.2311-.0276.2022a1.4813,1.4813,0,0,0,.3.0038c1.7873-.0533,3.5754-.1038,5.363-.086.8942.0005,1.7881.0179,2.6818.0662l.67.0342.3351.0158c.1119.0058.2141.0117.2318-.073.025-.1953.0154-.4421.024-.66a2.5967,2.5967,0,0,0-.001-.3271C50.2777,14.5365,50.1491,14.5182,50.0431,14.5182Zm0-.0339c.1009-.0053.2638.0072.2969.148a2.55,2.55,0,0,1,.0149.3414l.0088.68a.1957.1957,0,0,1-.1429.1542.7391.7391,0,0,1-.1813.022l-.3353.0151-.67.0327c-.8938.0464-1.7873.0618-2.681.06-1.7873.0161-3.5742-.0272-5.3618-.0781a1.2909,1.2909,0,0,1-.3655-.0365.1737.1737,0,0,1-.1008-.112.258.258,0,0,1,.001-.12c.0154-.0653.0389-.1179.0535-.17l.1947-.6359c.0291-.0894.0518-.2593.2018-.3125a1.181,1.181,0,0,1,.3535-.0219l.67-.0057c.8937-.0038,1.7875-.0586,2.6811-.079C46.4675,14.3,48.2553,14.4837,50.0429,14.4843Z"/><path class="cls-2" d="M50.02,12.4425c-1.6864.0036-3.3727.1915-5.06.1281-.8434-.0207-1.6866-.0745-2.5307-.0825l-.6327-.0079c-.108.0009-.2095-.0061-.2547.0532a.9583.9583,0,0,0-.09.2735l-.1545.6191a.42.42,0,0,0-.024.1289c.0076.0325-.0025.0181.0356.0327a1.8381,1.8381,0,0,0,.2928.0007c1.6864-.053,3.3735-.1043,5.06-.0854.8435,0,1.6869.0177,2.53.0658l.6323.034c.2029-.0067.4695.0871.4547-.1314l.0168-.634a.8093.8093,0,0,0-.0144-.2992C50.24,12.4531,50.1194,12.4449,50.02,12.4425Zm0-.0339c.0993.0008.2346-.006.3031.1077a.824.824,0,0,1,.0323.325c.0065.2114.0024.4147.0187.6308a.2645.2645,0,0,1-.0491.1845.2728.2728,0,0,1-.1779.0838c-.1182.0119-.2144.012-.3225.0186l-.6327.0329c-.8433.0464-1.6865.062-2.53.0607-1.6861.0151-3.3723-.0275-5.0591-.0786a1.7383,1.7383,0,0,1-.3376-.0266.1921.1921,0,0,1-.1475-.19.55.55,0,0,1,.0419-.1788l.1772-.6016a.95.95,0,0,1,.121-.3173c.104-.1116.2469-.0806.3406-.084l.6322-.0048c.8425-.0015,1.6858-.0591,2.5291-.0811C46.646,12.2232,48.3328,12.408,50.02,12.4086Z"/></g></g></g></svg>