<svg xmlns="http://www.w3.org/2000/svg" viewBox="0 0 78.3497 95.5442"><defs><style>.cls-1{fill:#6d757b;}.cls-2{fill:#0087b9;}</style></defs><title>Element 2</title><g id="Ebene_2" data-name="Ebene 2"><g id="Ebene_1-2" data-name="Ebene 1"><g id="Illustrationen"><path class="cls-1" d="M59.8384,43.9514a5.4363,5.4363,0,0,0,1.8539,4.0437,6.393,6.393,0,0,0,4.0435,1.6055,5.6417,5.6417,0,0,0,4.1164-1.5327,5.4672,5.4672,0,0,0,1.63-4.1164,5.9052,5.9052,0,0,0-1.7772-3.9686,5.7578,5.7578,0,0,0-3.9685-1.6012A6.0862,6.0862,0,0,0,61.7,39.9151,5.4333,5.4333,0,0,0,59.8384,43.9514Zm-.0679,0a6.5151,6.5151,0,0,1,1.6135-4.352,5.8633,5.8633,0,0,1,4.352-1.941,6.1434,6.1434,0,0,1,4.42,1.8734,5.9994,5.9994,0,0,1,1.6972,4.42,6.4892,6.4892,0,0,1-6.1171,6.2137,5.6432,5.6432,0,0,1-4.3445-1.8691A6.5148,6.5148,0,0,1,59.7705,43.9514Z"/><path class="cls-1" d="M67.0045,74.283c-.8706.0468-1.7413.0717-2.6119.1055l.1394-.1394c.0764,2.5153.129,5.0306.1424,7.5459.031,2.5153.0259,5.0306-.0435,7.546l-.0462,1.8864-.0235.9433a6.6009,6.6009,0,0,1-.06.9638,2.7768,2.7768,0,0,1-.9852,1.67,2.5774,2.5774,0,0,1-1.8371.5675A2.6985,2.6985,0,0,1,59.2,92.7626l-.0822-3.7754c-.0627-2.5153-.0917-5.0306-.1121-7.5459l-.0329-3.773.0119-3.7729c.0191-5.0306.107-10.0613.314-15.0919h.0679c.2069,5.0306.2949,10.0613.3139,15.0919l.0119,3.7729-.0329,3.773c-.0206,2.5153-.0494,5.0306-.1121,7.5459l-.0774,3.77a2.4445,2.4445,0,0,0,2.2231,2.411,2.42,2.42,0,0,0,2.5217-2.0792c.0339-1.2087-.0454-2.5017-.0608-3.7484-.0692-2.5154-.0745-5.0307-.0435-7.546.0134-2.5153.0661-5.0306.1424-7.5459l.0045-.1447.1349.0052c.8706.0338,1.7413.0587,2.6119.1055Z"/><path class="cls-1" d="M59.3329,58.8375l-1.9651.0307.0646-.0646.0923,5.8927.0292,2.9464.0136,1.4732.0068.7366a3.756,3.756,0,0,1-.04.777,2.2729,2.2729,0,0,1-4.4976-.3546L53.01,64.3708l-.0223-5.8927.0025-1.4732c.002-.4851-.0065-.9867.045-1.5a4.9229,4.9229,0,0,1,1.1281-2.861,4.4956,4.4956,0,0,1,2.7439-1.3905,21.9272,21.9272,0,0,1,2.99-.0622l5.8886.0572,5.8906.0582a18.3546,18.3546,0,0,1,2.9638.1266,4.3184,4.3184,0,0,1,2.6084,1.4081,4.8541,4.8541,0,0,1,1.0072,2.7863c.059.9968.0214,1.9683.0368,2.9537l.021,5.8927.0366,5.9091A2.2677,2.2677,0,0,1,76.2313,72.44,2.2927,2.2927,0,0,1,73.86,70.6311a3.867,3.867,0,0,1-.0517-.7786l-.0056-.7366-.0111-1.4732-.0222-2.9464-.04-5.8927.3089.309-1.8995.0066.3156-.3156.0415,15.1087-.03,15.1086-.0343,3.7869a2.8434,2.8434,0,0,1-2.6747,2.73,2.8145,2.8145,0,0,1-2.95-2.3667,6.09,6.09,0,0,1-.0331-.9809l.0074-.9443.0149-1.8886q.0408-7.5543.1746-15.1087h.0677q.1231,7.5545.1745,15.1087l.0149,1.8886.0075.9443a5.7291,5.7291,0,0,0,.0415.9033,2.3163,2.3163,0,0,0,2.4457,1.91,2.2857,2.2857,0,0,0,2.1146-2.2154l-.0255-3.7673-.03-15.1086.0415-15.1087.001-.3168.3148.0011,1.8995.0066.3112.0011-.0022.308-.04,5.8927-.0222,2.9464-.0111,1.4732a11.92,11.92,0,0,0,.026,1.4258A1.8643,1.8643,0,0,0,76.21,72.0352,1.8855,1.8855,0,0,0,77.9916,70.35l.0563-5.8757.021-5.8927c-.0094-.9782.0331-1.9732-.0189-2.9375a4.5783,4.5783,0,0,0-.9729-2.6585,4.0836,4.0836,0,0,0-2.4813-1.3091,18.1982,18.1982,0,0,0-2.9156-.0995l-5.8949.0582-5.8967.0572a21.6844,21.6844,0,0,0-2.8932.1119,3.9322,3.9322,0,0,0-2.4006,1.2214,4.344,4.344,0,0,0-.9685,2.536c-.0714.9252-.0143,1.9464-.0308,2.9167l-.0224,5.8927-.0179,5.8811a1.8,1.8,0,0,0,1.6307,1.71,1.8212,1.8212,0,0,0,1.93-1.4187,11.5245,11.5245,0,0,0,.0516-1.4272l.0136-1.4732.0291-2.9464.0924-5.8927.001-.0658.0638.001,1.9651.0308Z"/><path class="cls-1" d="M27.7293,11.3069a6.5147,6.5147,0,0,1-1.6207,4.3447,5.6438,5.6438,0,0,1-4.3447,1.869,6.4892,6.4892,0,0,1-6.1171-6.2136,6,6,0,0,1,1.6974-4.42,6.1436,6.1436,0,0,1,4.42-1.8734,5.864,5.864,0,0,1,4.352,1.9411A6.5156,6.5156,0,0,1,27.7293,11.3069Zm-.0679,0A5.434,5.434,0,0,0,25.8,7.2705a6.0858,6.0858,0,0,0-4.0363-1.5333,5.7586,5.7586,0,0,0-3.9687,1.6011,5.9053,5.9053,0,0,0-1.7771,3.9686,5.4672,5.4672,0,0,0,1.6294,4.1165,5.6424,5.6424,0,0,0,4.1164,1.5327,6.3941,6.3941,0,0,0,4.0437-1.6055A5.4371,5.4371,0,0,0,27.6614,11.3069Z"/><path class="cls-1" d="M20.4954,46.6205c.87-.0484,1.7412-.0735,2.6117-.1086l.1389-.0056.0038.1482.1109,4.3528.0426,4.3527c.02,1.4509-.0118,2.9018-.02,4.3527a3.252,3.252,0,0,0,.0681,1.008,2.3076,2.3076,0,0,0,.445.8755,2.2972,2.2972,0,0,0,3.5549.0627,2.6365,2.6365,0,0,0,.6129-1.9462c-.0134-1.4509-.0086-2.9018-.044-4.3527-.0606-2.9018-.1394-5.8037-.1646-8.7055l-.0027-.3085.3141-.0029,2.8072-.0255-.3327.3894q-.4395-2.5565-.8247-5.1216c-.262-1.7092-.538-3.4163-.7707-5.13-.4922-3.4236-.9543-6.8519-1.3479-10.291l.067-.0106c.6872,3.3927,1.306,6.7962,1.8948,10.2044.3076,1.7021.572,3.4109.8505,5.1176q.4248,2.5588.7965,5.126l.0568.3932-.39-.0036-2.8072-.0255.3112-.3113c-.0252,2.9018-.104,5.8037-.1646,8.7055-.0354,1.4509-.0306,2.9018-.044,4.3527a2.8707,2.8707,0,0,1-.6279,2.1084,2.6715,2.6715,0,0,1-4.0829.0627,2.778,2.778,0,0,1-.585-1.0227,3.7559,3.7559,0,0,1-.1427-1.1484c-.0083-1.4509-.04-2.9018-.02-4.3527l.0425-4.3527.111-4.3528.1425.1425c-.87-.0351-1.7412-.06-2.6117-.1086Z"/><path class="cls-1" d="M27.7317,26.1251l1.9652-.0313.055-.0009.01.0563.9785,5.7746.9427,5.7628a2.1182,2.1182,0,0,0,1.843,1.6308,1.6254,1.6254,0,0,0,1.73-1.4884,3.3628,3.3628,0,0,0-.0539-.6805l-.0939-.7254L34.92,34.9724l-.3753-2.9013-.75-5.8021c-.27-1.9163-.3048-3.952-1.2576-5.5466a3.2713,3.2713,0,0,0-2.153-1.5076,13.9694,13.9694,0,0,0-2.8548-.1762l-5.8535-.0558L15.821,18.93l-1.4628-.0028a7.8251,7.8251,0,0,0-1.4232.179,3.31,3.31,0,0,0-2.2159,1.6223c-.91,1.7068-.9074,3.7411-1.1927,5.6551l-.704,5.8123-.3407,2.9076-.17,1.4537a9.1646,9.1646,0,0,0-.1171,1.41,1.7153,1.7153,0,0,0,1.9049,1.4148A2.066,2.066,0,0,0,11.89,37.68l1.6976-11.568.0388-.2643.27-.0009,1.8995-.0067.3725-.0014-.0572.37L14.5263,36.4623,12.8972,46.7088l-.3437-.4023,2.8074.0038.3438.0005,0,.3437c.0034,2.9075-.02,5.8149-.0453,8.7223l-.035,4.3612a3.0905,3.0905,0,0,0,.0922,1.005,2.2881,2.2881,0,0,0,.47.8551,2.33,2.33,0,0,0,3.5083.023,2.498,2.498,0,0,0,.6057-1.8832l.0349-4.3611.1253-8.7223h.0678l.1255,8.7223.0348,4.3611a3.5248,3.5248,0,0,1-.112,1.1387,2.7516,2.7516,0,0,1-.5643,1.0241,2.8053,2.8053,0,0,1-4.7844-1.0088,3.6049,3.6049,0,0,1-.1317-1.1539l-.035-4.3612c-.0257-2.9074-.0487-5.8148-.0453-8.7223l.3441.3441-2.8074.0038-.4071.0006L12.21,46.6l1.6135-10.2489L15.481,26.1092l.3151.369-1.8995-.0068.3087-.265L12.34,37.7842a2.8041,2.8041,0,0,1-.7656,1.372,2.3334,2.3334,0,0,1-1.4426.642,2.2688,2.2688,0,0,1-1.5144-.428,1.9432,1.9432,0,0,1-.7937-1.36,3.1514,3.1514,0,0,1,.0446-.7735l.097-.7254L8.16,35.06l.3881-2.9016.7536-5.8062.3811-2.9038a9.1319,9.1319,0,0,1,.8461-2.8275,3.5087,3.5087,0,0,1,.983-1.1321,3.9755,3.9755,0,0,1,1.3655-.6181,8.0476,8.0476,0,0,1,1.4751-.1978l1.4644-.009,5.8552-.0577,5.856-.06a14.32,14.32,0,0,1,2.9781.1327,3.81,3.81,0,0,1,2.5171,1.7392,8.2158,8.2158,0,0,1,.983,2.8566c.1624.98.26,1.94.3927,2.9112l.7072,5.8162.3534,2.9079.1767,1.4539.0884.727a3.7281,3.7281,0,0,1,.05.7759,2.0871,2.0871,0,0,1-.74,1.4453,2.1564,2.1564,0,0,1-1.5361.4895,2.5689,2.5689,0,0,1-2.2347-2.0223c-.5764-3.8948-1.1057-7.7344-1.6305-11.61l.0644.0553-1.9652-.0313Z"/><path class="cls-2" d="M57.6115,75.1723a7.8711,7.8711,0,0,0-3.285,3.7318,7.2521,7.2521,0,0,0-.559,2.4476,6.9477,6.9477,0,0,0,.4037,2.5351,16.5476,16.5476,0,0,1,1.4426,5.1073,2.396,2.396,0,0,1-.4047,1.4381,2.4574,2.4574,0,0,1-1.2248.8114A12.6469,12.6469,0,0,1,51.37,91.71l-.016-.0659c.8123-.3294,1.67-.5737,2.4211-.9177A1.6508,1.6508,0,0,0,54.89,88.9907a11.8594,11.8594,0,0,0-.359-2.4918c-.1915-.8419-.3659-1.6947-.5926-2.5412a15.4087,15.4087,0,0,1-.4785-2.5994,6.2009,6.2009,0,0,1,.3047-2.6723,6.0512,6.0512,0,0,1,3.8218-3.5768Z"/><path class="cls-2" d="M50.54,93.2244c-.216-.5645-.423-1.0474-.5873-1.4954a5.8592,5.8592,0,0,1-.3614-1.3276l.4224.1592-.9718.507a6.472,6.472,0,0,0-.8962.6149c-.5585.4654-1.0776.9873-1.6639,1.4131l-.1538-.585c.3363.02.6636.0221.99.0658.3256.0312.6541.0958.9922.16C48.99,92.8738,49.7079,93.045,50.54,93.2244Zm.0512.0445c-.5906.0411-1.2953.0739-2.0391.073-.3733-.0051-.7562-.01-1.1422-.0476-.385-.0255-.769-.093-1.1444-.1418l-.8547-.1112.7009-.4738c.6-.4059,1.268-.7156,1.8961-1.0818a6.4723,6.4723,0,0,0,.8839-.6325l.8082-.74.2755-.2524.147.4116a8.0558,8.0558,0,0,1,.3473,1.5823C50.542,92.3763,50.5713,92.8634,50.5913,93.2689Z"/><path class="cls-2" d="M70.1009,38.0584a7.7351,7.7351,0,0,0,.8819-1.008,5.8391,5.8391,0,0,0,.6345-1.0918,7.9843,7.9843,0,0,0,.4044-1.186,5.6679,5.6679,0,0,0,.2026-1.2739l.0825-1.1894.1831,1.1474c.0931.5827.21,1.1507.3453,1.7221.1331.5708.2806,1.1445.3613,1.7336a9.4055,9.4055,0,0,1,.0481,1.8024,2.7035,2.7035,0,0,1-.7681,1.805h0l-.3326.3449-.1845-.4492a5.0043,5.0043,0,0,0-.3326-.6454,6.1008,6.1008,0,0,0-.4246-.6181,5.4021,5.4021,0,0,0-.5024-.5664c-.0892-.0906-.1838-.1755-.2809-.2583Zm.0679.0008a2.5041,2.5041,0,0,1,.3318.15c.1148.064.2282.1312.3375.2052a5.7016,5.7016,0,0,1,.6338.48,6.5324,6.5324,0,0,1,.5751.56,5.5168,5.5168,0,0,1,.5136.6473l-.5169-.1044h0a2.3961,2.3961,0,0,0,.519-1.36,12.1352,12.1352,0,0,0,.0669-1.6841,10.767,10.767,0,0,0-.4016-3.4308l.2656-.042a5.8641,5.8641,0,0,1,.0588,1.3859,3.5442,3.5442,0,0,1-.4042,1.3484,4.0457,4.0457,0,0,1-.8378,1.1254A2.9632,2.9632,0,0,1,70.1688,38.0592Z"/><path class="cls-2" d="M61.3492,38.0592a2.9632,2.9632,0,0,1-1.1417-.719,4.0457,4.0457,0,0,1-.8378-1.1254,3.5445,3.5445,0,0,1-.4044-1.3484,5.8747,5.8747,0,0,1,.059-1.3859l.2656.042a10.7643,10.7643,0,0,0-.4017,3.4308,12.1664,12.1664,0,0,0,.0668,1.6841,2.3983,2.3983,0,0,0,.5191,1.36h0l-.5169.1044a5.5366,5.5366,0,0,1,.5134-.6473,6.5624,6.5624,0,0,1,.5753-.56,5.6739,5.6739,0,0,1,.6338-.48c.1093-.074.2227-.1412.3373-.2052A2.5068,2.5068,0,0,1,61.3492,38.0592Zm.0679-.0008-.3178.269c-.0972.0828-.1917.1677-.2811.2583a5.423,5.423,0,0,0-.5022.5664,6.1182,6.1182,0,0,0-.4247.6181,4.9927,4.9927,0,0,0-.3327.6454l-.1843.4492-.3328-.3449h0a2.7043,2.7043,0,0,1-.7683-1.805,9.4135,9.4135,0,0,1,.0483-1.8024c.0807-.5891.2282-1.1628.3612-1.7336.1351-.5714.2523-1.1394.3454-1.7221l.1831-1.1474.0825,1.1894a5.6735,5.6735,0,0,0,.2025,1.2739,7.9962,7.9962,0,0,0,.4045,1.186,5.8391,5.8391,0,0,0,.6345,1.0918A7.72,7.72,0,0,0,61.4171,38.0584Z"/><path class="cls-2" d="M6.9083,32.6463l.5042-4.3016.45-4.3079a11.7883,11.7883,0,0,1,1.0512-4.2529,6.2356,6.2356,0,0,1,1.3206-1.8234,4.0214,4.0214,0,0,1,2.0625-1.0186l-.2547.3049a45.6168,45.6168,0,0,0-.5948-5.8637,12.8669,12.8669,0,0,0-.7831-2.809A3.2791,3.2791,0,0,0,9.8834,7.412a1.1371,1.1371,0,0,0-1.2447-.1985,3.4545,3.4545,0,0,0-1.14.8492,8.069,8.069,0,0,0-.9073,1.1509,13.72,13.72,0,0,0-1.3276,2.6289,36.1627,36.1627,0,0,0-1.66,5.6806c-.8286,3.8657-1.39,7.785-1.85,11.7135C1.3223,33.1674.935,37.1113.7031,41.0557l-.3873-.3534a6.736,6.736,0,0,0,2.4666-1.0292,8.4069,8.4069,0,0,0,2.02-1.8661,10.0041,10.0041,0,0,0,1.3763-2.4344A14.1219,14.1219,0,0,0,6.9083,32.6463Zm.0673.0094a14.2412,14.2412,0,0,1-.6566,2.7682,10.7188,10.7188,0,0,1-1.2364,2.5842A8.4163,8.4163,0,0,1,3.1,40.1281,7.0879,7.0879,0,0,1,.4117,41.3752L0,41.4612l.0243-.4395c.2194-3.9707.5493-7.9263,1.07-11.8658A96.4,96.4,0,0,1,3.2347,17.4352a43.6585,43.6585,0,0,1,1.8152-5.68,15.7143,15.7143,0,0,1,1.3647-2.66,8.3686,8.3686,0,0,1,.9116-1.1952A3.6854,3.6854,0,0,1,8.54,6.9711a1.4655,1.4655,0,0,1,1.54.2,3.5931,3.5931,0,0,1,.923,1.2443,13.1464,13.1464,0,0,1,.9319,2.87,34.2771,34.2771,0,0,1,.7073,5.9448l.0119.2659-.2666.0392a3.44,3.44,0,0,0-1.7816.839,5.7557,5.7557,0,0,0-1.2372,1.6412,11.3637,11.3637,0,0,0-1.1956,4.0605l-.6255,4.2869Z"/><path class="cls-2" d="M36.3011,32.6557,35.73,28.3625l-.6255-4.2869a11.3678,11.3678,0,0,0-1.1956-4.0605,5.756,5.756,0,0,0-1.2373-1.6412,3.44,3.44,0,0,0-1.7815-.839l-.2666-.0392.0117-.2659a34.2869,34.2869,0,0,1,.7074-5.9448,13.1464,13.1464,0,0,1,.9319-2.87,3.5931,3.5931,0,0,1,.923-1.2443,1.4655,1.4655,0,0,1,1.54-.2,3.6854,3.6854,0,0,1,1.2137.93,8.3613,8.3613,0,0,1,.9116,1.1952,15.7216,15.7216,0,0,1,1.3647,2.66,43.659,43.659,0,0,1,1.8153,5.68,96.4193,96.4193,0,0,1,2.1408,11.7207c.52,3.9395.85,7.8951,1.07,11.8658l.0243.4395-.4116-.086a7.0865,7.0865,0,0,1-2.6887-1.2471,8.4163,8.4163,0,0,1-1.9822-2.12,10.7151,10.7151,0,0,1-1.2364-2.5842A14.2192,14.2192,0,0,1,36.3011,32.6557Zm.067-.0094a14.13,14.13,0,0,0,.7294,2.7263,10.0071,10.0071,0,0,0,1.3762,2.4344,8.4106,8.4106,0,0,0,2.02,1.8661,6.7372,6.7372,0,0,0,2.4667,1.0292l-.3873.3534c-.232-3.9444-.6193-7.8883-1.0513-11.8191-.46-3.9285-1.0213-7.8478-1.85-11.7135a36.1841,36.1841,0,0,0-1.66-5.6806A13.72,13.72,0,0,0,36.685,9.2136a8.0832,8.0832,0,0,0-.9073-1.1509,3.4542,3.4542,0,0,0-1.14-.8492,1.137,1.137,0,0,0-1.2447.1985,3.2765,3.2765,0,0,0-.7808,1.1621,12.8671,12.8671,0,0,0-.7832,2.809,45.6524,45.6524,0,0,0-.5948,5.8637l-.2547-.3049a4.0211,4.0211,0,0,1,2.0624,1.0186,6.2323,6.2323,0,0,1,1.3207,1.8234,11.7862,11.7862,0,0,1,1.0512,4.2529l.45,4.3079Z"/><path class="cls-2" d="M14.82,1.4228c.0185-.1895.18-.2715.3012-.3547a3.0445,3.0445,0,0,1,.4162-.182c.2813-.1119.5743-.1793.8633-.2663.5821-.1569,1.1739-.272,1.7678-.3749A17.3009,17.3009,0,0,1,21.7639.01c1.2016.0536,2.3961.1922,3.585.3372.5946.0732,1.1905.1358,1.7839.2425.2957.0609.5921.1165.89.2021a2.6658,2.6658,0,0,1,.4461.1656.9647.9647,0,0,1,.2239.15.7623.7623,0,0,1,.1055.1189.8753.8753,0,0,1,.0615.196.8724.8724,0,0,1-.0522.2012.8037.8037,0,0,1-.1.1287,1.0488,1.0488,0,0,1-.218.1726,2.8291,2.8291,0,0,1-.44.2093,6.2458,6.2458,0,0,1-.8877.268,15.5985,15.5985,0,0,1-1.7925.3036,29.2681,29.2681,0,0,1-3.6057.2086,21.2732,21.2732,0,0,1-3.5963-.3039c-.5936-.1068-1.1855-.2222-1.7677-.38-.2891-.0873-.5821-.1556-.8635-.2681a2.9891,2.9891,0,0,1-.416-.1839C14.9992,1.6954,14.8379,1.6124,14.82,1.4228Zm.0679,0c.0737.2534.4183.3581.6806.4452a5.6856,5.6856,0,0,0,.8681.1784,16.7918,16.7918,0,0,0,1.775.12c1.1865.0157,2.3689.0347,3.5521.0248,1.1823-.0142,2.3669-.025,3.5426-.12.5868-.0507,1.1744-.1032,1.75-.1964.2852-.0524.5734-.1027.8439-.1785a2.4481,2.4481,0,0,0,.3847-.1349.8093.8093,0,0,0,.2027-.1388c.02-.0005-.0754-.1143-.1818-.1761a2.3748,2.3748,0,0,0-.378-.1786,5.206,5.206,0,0,0-.8421-.2444A12.9851,12.9851,0,0,0,25.3272.5661a30.6724,30.6724,0,0,0-3.5633.0085c-1.1852.0461-2.3666.0688-3.5531.0939a17.7923,17.7923,0,0,0-1.7751.1251,5.6411,5.6411,0,0,0-.8682.18C15.3054,1.0618,14.9605,1.1687,14.8881,1.4228Z"/></g></g></g></svg>