<svg xmlns="http://www.w3.org/2000/svg" viewBox="0 0 62.9738 93.4169"><defs><style>.cls-1{fill:#0087b9;}.cls-2{fill:#575756;}</style></defs><title>Element 3</title><g id="Ebene_2" data-name="Ebene 2"><g id="Ebene_1-2" data-name="Ebene 1"><g id="Illustrationen"><path class="cls-1" d="M38.0747,52.0213l-2.43-.53-.1025-.0223.0242-.1092c.3549-1.5974.7314-3.1892,1.1086-4.7809q.5572-2.39,1.1495-4.7706l.1458.31a3.32,3.32,0,0,1-.6389-.39c-.0977-.0758-.1951-.1621-.28-.2435l-.2334-.2105.1481.0574c-.1019-.0021-.2032-.0042-.2948.0013l.1352-.0484a5.0912,5.0912,0,0,1-1.1816.8076,3.85,3.85,0,0,1-1.4582.3469,3.6869,3.6869,0,0,1-1.4622-.3376,5.1472,5.1472,0,0,1-1.18-.8023l.1322.0468q-.1224-.0067-.2527-.0019l.1437-.0529-.5255.43a3.6733,3.6733,0,0,1-.6355.3917,2.9425,2.9425,0,0,1-1.4747.3036l.0353,0a3.0137,3.0137,0,0,1-1.4681-.3129,3.2811,3.2811,0,0,1-.6269-.4037c-.0955-.0773-.1879-.1655-.273-.2475l-.2327-.2212.1184.0457c-.104-.005-.208-.01-.3045-.007l.1047-.0375-.524.402a3.5278,3.5278,0,0,1-.6149.3488l.1063-.2235c.3777,1.6036.7458,3.21,1.1471,4.8072.3928,1.6.7832,3.2,1.2051,4.7925l.0287.1079-.11.0285-2.3827.6183-.12.0311-.0328-.1218L21.5862,39.43l-.0785-.2925.299-.078,2.3821-.6207.3082-.08.0813.3122.14.5362-.5173-.1726A3.2326,3.2326,0,0,1,25.35,38.37a3.9651,3.9651,0,0,1,1.3126-.11,2.6372,2.6372,0,0,1,1.2992.4074,4.1722,4.1722,0,0,1,.5214.401l.2323.2146a.32.32,0,0,0,.07.052l-.0435-.0046.1788.0067-.053.0017.2188-.0246-.084.0193a.69.69,0,0,0,.1823-.1249l.2762-.2346a3.7734,3.7734,0,0,1,.641-.4385,3.081,3.081,0,0,1,1.544-.3018,2.8183,2.8183,0,0,1,1.5189.4307,6.0362,6.0362,0,0,1,.5991.4476.789.789,0,0,0,.2113.1488.9232.9232,0,0,0,.2409.0677l-.09,0a.9439.9439,0,0,0,.2161-.0588.5541.5541,0,0,0,.1788-.114c.1639-.1333.3312-.2719.52-.4027a2.6612,2.6612,0,0,1,1.3315-.4894,4.1106,4.1106,0,0,1,1.3731.0913,2.9509,2.9509,0,0,1,1.2043.7163l-.528.1619.1493-.5617.0823-.3095.3027.08,2.3789.6325.2817.0748-.0725.2764C40.4233,43.701,39.2106,47.9178,38.0747,52.0213ZM38.04,51.963c1.0023-4.3211,1.9278-8.5289,2.9446-12.6788l.209.351-2.3927-.5786.3848-.229-.1368.5649-.124.5127-.4043-.3508a2.293,2.293,0,0,0-.95-.5473,3.6029,3.6029,0,0,0-1.1317-.0628,1.954,1.954,0,0,0-1.004.3752c-.1563.1087-.3129.2388-.4742.3716a1.2921,1.2921,0,0,1-.3522.22,1.6213,1.6213,0,0,1-.39.1074l-.0442.0066-.0458-.0063a1.6014,1.6014,0,0,1-.4364-.12,1.4792,1.4792,0,0,1-.37-.2446,5.3839,5.3839,0,0,0-.5312-.3946,2.0967,2.0967,0,0,0-1.1616-.3163,2.3766,2.3766,0,0,0-1.1943.2268,3.0856,3.0856,0,0,0-.518.3611l-.2622.221a1.341,1.341,0,0,1-.4089.2527l-.04.015-.0444.0044-.2189.0219-.0289.0028-.0244-.0012-.1786-.009-.0277-.0014-.0162-.0033a.8532.8532,0,0,1-.4439-.2462l-.208-.1972a3.4977,3.4977,0,0,0-.4285-.34,1.9324,1.9324,0,0,0-.973-.3141,3.3289,3.3289,0,0,0-1.0808.0706,2.593,2.593,0,0,0-.9249.5317l-.3964.318-.121-.4906-.133-.5378.3894.2318-2.39.59.22-.37,3.0334,12.681-.1522-.0906,2.389-.5928-.081.1362c-.3886-1.6008-.8087-3.1937-1.2264-4.7871-.409-1.5956-.8515-3.1828-1.2843-4.7724l-.0412-.1515.1477-.0721a3.1251,3.1251,0,0,0,.5335-.3286l.5214-.4291.04-.0328.0651-.0048c.1308-.01.2543-.0076.378-.0051l.0681.0014.05.0445.2785.2447c.0838.0749.1606.1435.2467.2084a2.79,2.79,0,0,0,.5453.3251,2.5,2.5,0,0,0,1.217.2189l.01-.0009.0251.0006a2.5483,2.5483,0,0,0,1.1947-.272,3.0976,3.0976,0,0,0,.5335-.3375l.5383-.449.0571-.0477.0866-.0053a2.997,2.997,0,0,1,.3623-.0008l.0777.0047.0546.0422a4.872,4.872,0,0,0,1.1041.743,3.4886,3.4886,0,0,0,1.2159.2875,3.2878,3.2878,0,0,0,1.22-.2772,4.73,4.73,0,0,0,1.1006-.74l.0568-.0442.0786-.0042c.1358-.0073.262-.0023.3878.0032l.09.0038.0583.0536.2759.2534a3.1656,3.1656,0,0,0,.2363.2112,2.7738,2.7738,0,0,0,.53.3334l.2008.0968-.0548.2132q-.6116,2.376-1.2649,4.7413c-.4275,1.5789-.8557,3.1576-1.3056,4.7308l-.0783-.1313Z"/><path class="cls-2" d="M37.5962,74.4868c-.97.0708-1.9733.1221-2.9908.1613-1.0123.0483-2.0461.0766-3.0849.0914-2.0748.0629-4.1964-.0743-6.2546-.1515l-.0924-.0035-.0266-.0786c-.2971-.8735-.6329-1.7322-.9756-2.5882l-.0529-.1318.1429-.0263c1.1876-.2181,2.3665-.4869,3.5483-.7381q1.7739-.3707,3.5549-.7008c1.1859-.2273,2.373-.4487,3.5637-.6488q1.787-.2934,3.5822-.5416l.4181-.0577-.0865.3967C38.4633,71.2062,38.0091,72.9024,37.5962,74.4868Zm-.0431-.0524c.2434-1.78.4458-3.448.7236-5.0754l.3315.3389q-1.7743.3676-3.5569.6891c-1.1888.21-2.3815.3991-3.575.5821q-1.7889.2852-3.5842.53c-1.1979.159-2.3987.3-3.5907.4926l.09-.1579c.3136.8671.6342,1.7316.9937,2.5813l-.1191-.082c2.0448-.0772,4.0262-.2144,6.0544-.1515,1.0125.0148,2.03.0431,3.0694.0914C35.4236,74.3124,36.4717,74.3636,37.5531,74.4344Z"/><path class="cls-2" d="M24.2574,56.0146c1.12-.0738,2.2857-.1226,3.4639-.1664,1.175-.05,2.3785-.0717,3.5828-.09s2.431.0153,3.6449.067c1.2144.0469,2.4155.1113,3.61.1093l.1042,0v.1045c.0023.8616.0111,1.7232.0348,2.5848l.0031.1122-.1185.0248-3.5473.7439-3.5577.6847c-2.3715.4574-4.7563.8373-7.1492,1.1708l-.334.0466.008-.3212C24.0457,59.3342,24.1661,57.6116,24.2574,56.0146Zm.0478.0479c.0912,1.7674.2116,3.4093.2547,5.0227l-.3259-.2745c2.3664-.4871,4.7408-.9278,7.1287-1.291l3.5813-.5462,3.5917-.487-.1154.1369c.0237-.8616.0326-1.7232.0348-2.5848l.1041.1042c-1.1847-.0019-2.3635.0625-3.5287.1093-1.1659.0517-2.32.0854-3.494.067-1.1753-.0185-2.3516-.04-3.5564-.09C26.7787,56.1852,25.565,56.1363,24.3052,56.0625Z"/><path class="cls-2" d="M24.3072,63.9791c.0523.3871.0647.8495.0931,1.2706.0268.4308.0508.8616.0635,1.2924.0269.8616.0777,1.7232.0815,2.5848l-.3088-.26c1.1879-.2159,2.3705-.4635,3.5632-.6519,1.1915-.1951,2.392-.3384,3.5895-.5,1.1991-.1507,2.3943-.3252,3.5827-.5383q1.7832-.3165,3.5559-.6945l-.1542.1829c-.0677-1.7232-.1192-3.4465-.1368-5.17l.3772.3178c-1.1715.2144-2.3325.4459-3.5035.6387-1.1677.2036-2.3434.3816-3.5293.555-1.1917.1645-2.3726.35-3.589.5022Zm-.0518-.0437c1.1266-.2612,2.2837-.5128,3.4539-.7611,1.1633-.2578,2.362-.4828,3.55-.7287,1.1937-.2369,2.3978-.4691,3.61-.6759,1.2088-.2175,2.4273-.3963,3.6354-.5921l.3813-.0619-.0038.38c-.0177,1.7232-.069,3.4465-.1369,5.17l-.0065.1635-.1477.02q-1.7967.2379-3.5832.5363c-1.1912.1972-2.3756.433-3.556.6925-1.1824.249-2.3616.516-3.55.7312-1.1869.2219-2.3841.3845-3.5758.5789l-.31.0506.0015-.3109c.0038-.8616.0546-1.7232.0813-2.5848.0127-.4308.0369-.8616.0637-1.2924C24.1906,64.8091,24.203,64.41,24.2554,63.9354Z"/><path class="cls-2" d="M31.42,23.7415a17.0771,17.0771,0,0,0-5.191.9051,15.2437,15.2437,0,0,0-4.5741,2.5668,17.1789,17.1789,0,0,0-3.5045,3.8616,16.66,16.66,0,0,0-2.0961,4.75,16.2506,16.2506,0,0,0,.5605,10.258,15.7294,15.7294,0,0,0,6.7779,7.8076l-.0553-.0148c5.3884-.0027,10.7768-.1391,16.1652-.1748l-.1426.0381a16.847,16.847,0,0,0,3.9912-3.3159,16.2042,16.2042,0,0,0,2.72-4.4046,15.8876,15.8876,0,0,0,.6754-10.183,16.4867,16.4867,0,0,0-2.0713-4.751,17.0371,17.0371,0,0,0-3.4944-3.8655A15.222,15.222,0,0,0,36.61,24.6515,17.0742,17.0742,0,0,0,31.42,23.7415Zm0-.0679a17.1839,17.1839,0,0,1,5.238.8343A15.6625,15.6625,0,0,1,41.4,26.9345a16.5775,16.5775,0,0,1,3.7477,3.8346,16.17,16.17,0,0,1,2.2585,4.891,16.3463,16.3463,0,0,1-.6852,10.63,16.5366,16.5366,0,0,1-7.0751,7.9451l-.0678.0387-.0751-.0005c-5.3884-.0357-10.7768-.172-16.1652-.1747h-.0308l-.0248-.0149a17.8075,17.8075,0,0,1-4.1268-3.3656,17.4294,17.4294,0,0,1-2.8812-4.4924,16.7433,16.7433,0,0,1-1.3018-5.2c-.0124-.4489-.0669-.8988-.04-1.3484l.0619-1.3492a17.65,17.65,0,0,1,.48-2.6565,16.0138,16.0138,0,0,1,2.2337-4.8918,16.4482,16.4482,0,0,1,3.7376-3.8384,15.6388,15.6388,0,0,1,4.7386-2.4278A17.185,17.185,0,0,1,31.42,23.6736Z"/><path class="cls-2" d="M.6319.6408l.282,23.2778.1179,11.5689.0654,11.521c.0477,7.68.0952,15.3452.0563,22.9976.0076,7.66-.1115,15.3127-.18,22.9929l-.39-.39c5.1394.0451,10.2787.1308,15.4182.1364,5.1394.01,10.2787.0685,15.4181.0391l15.4182-.0633,15.4182-.1366-.4141.4141c-.1429-12.9076-.1987-25.8152-.2446-38.7228L61.54,34.9147l.0273-19.3614.202.4874-7.46-7.5L46.8782,1.0111l.4181.1732c-7.7154-.043-15.4351-.1183-23.2058-.2284ZM.536.5449,23.79.23C31.59.12,39.4411.0444,47.2963.0013L47.5378,0l.177.1746,7.5293,7.4309,7.5,7.46.2017.2,0,.2872.0274,19.3614-.0581,19.3615c-.046,12.9076-.1016,25.8152-.2447,38.7228l-.0046.4179-.41-.0036-15.4182-.1366L31.42,93.2135c-5.1394-.0294-10.2787.0289-15.4181.0391-5.1395.0056-10.2788.0912-15.4182.1363l-.3864.0034L.1941,92.999c-.0682-7.7207-.1874-15.47-.18-23.21C-.0245,62.04.0229,54.3048.0706,46.5833l.0654-11.58L.254,23.47Z"/><path class="cls-2" d="M45.4945,2.4626a27.434,27.434,0,0,1,.4578,3.74,30.3509,30.3509,0,0,1,.0389,3.74c-.0851,1.2467-.3065,2.4934-.3447,3.74a26.9735,26.9735,0,0,0,.1515,3.74l-.3713-.3713c1.2467-.133,2.4934-.2329,3.74-.27,1.2466-.056,2.4933-.0949,3.74-.0823a50.5129,50.5129,0,0,1,7.48.6555v.1356a50.513,50.513,0,0,1-7.48.6556c-1.2468.0126-2.4935-.0264-3.74-.0823-1.2467-.0368-2.4934-.1367-3.74-.27l-.405-.0432.0336-.3282a26.9889,26.9889,0,0,0,.1514-3.74c-.0381-1.2467-.2595-2.4934-.3446-3.74a30.3116,30.3116,0,0,1,.0389-3.74,27.4028,27.4028,0,0,1,.4579-3.74Z"/></g></g></g></svg>