<svg xmlns="http://www.w3.org/2000/svg" viewBox="0 0 193.65 194.86"><defs><style>.cls-1{fill:#999;}.cls-2{fill:red;}</style></defs><title>Element 3</title><g id="Ebene_2" data-name="Ebene 2"><g id="Startseite"><path class="cls-1" d="M193.65,97.53a98,98,0,0,1-27.92,68.68A95.46,95.46,0,0,1,97,194.86a96.91,96.91,0,0,1-37.15-7.65A98.14,98.14,0,0,1,0,97.53a97,97,0,0,1,134.34-90,96.18,96.18,0,0,1,31.4,21.34,98,98,0,0,1,27.9,68.7Zm-.2,0a94.78,94.78,0,0,0-28.63-67.77A96.34,96.34,0,0,0,60.52,9.33,95.77,95.77,0,0,0,29.48,30,97,97,0,0,0,8.59,60.89a95.94,95.94,0,0,0-.38,73.44,94.56,94.56,0,0,0,20.85,31.19A95.41,95.41,0,0,0,97,193.2a96.66,96.66,0,0,0,18.66-1.88,100.18,100.18,0,0,0,17.94-5.43,97.84,97.84,0,0,0,31.19-20.57,94.78,94.78,0,0,0,28.61-67.79Z"/><path d="M70.72,103.27l-.26-15.32-.17-15.32L70.18,57.3l0-15.32v-.63h.63l16.42,0,16.42.1,16.42.16c5.47.05,10.94.13,16.42.13h.21V42c0,6.57,0,13.13.05,19.7l.24,19.7c0,6.57.06,13.13,0,19.7s-.06,13.13-.15,19.7v.35h-.34q-8.34-.08-16.69-.29v-.12q8.34-.19,16.69-.29l-.35.35c-.09-6.57-.13-13.13-.15-19.7s0-13.13,0-19.7l.24-19.7c0-6.57.1-13.13.05-19.7l.21.21c-5.47,0-10.94.08-16.42.13l-16.42.16-16.42.1-16.42,0,.63-.63,0,15.32-.11,15.32-.17,15.32-.26,15.32Z"/><path class="cls-2" d="M79.54,59.49c2-.14,4-.19,6-.29l6-.17c4-.11,8-.13,12-.14s8,0,12,.14l6,.17c2,.1,4,.16,6,.3-2,.14-4,.2-6,.3l-6,.17c-4,.11-8,.13-12,.14s-8,0-12-.14l-6-.17C83.55,59.69,81.55,59.63,79.54,59.49Z"/><path class="cls-2" d="M79.54,72.63c2-.14,4-.19,6-.29l6-.17c4-.11,8-.13,12-.14s8,0,12,.14l6,.17c2,.1,4,.16,6,.3-2,.14-4,.2-6,.3l-6,.17c-4,.11-8,.13-12,.14s-8,0-12-.14l-6-.17C83.55,72.82,81.55,72.76,79.54,72.63Z"/><path d="M110.15,103.32l-19.76.29q-9.83.13-19.6.15h-.2l-.15-.15L61.65,94.9l.38.16L48.9,95l-13.13-.14.32-.52c2.15,4.4,4.26,8.81,6.45,13.19s4.33,8.78,6.54,13.14c4.38,8.75,8.88,17.45,13.32,26.17l-.36-.22,17.51-.14L97,146.43h17.51l17.51,0-.52.84-10.7-21.9-5.36-11Zm.06-.1,5.6,10.8,5.58,10.89,11.19,21.88.43.84h-1l-17.51,0H97l-17.51-.07L62,147.45h-.25l-.11-.22c-4.32-8.78-8.58-17.6-12.95-26.36-2.16-4.39-4.38-8.75-6.59-13.12S37.67,99,35.44,94.67l-.26-.51h.58L48.9,94,62,94h.22l.16.16,8.72,8.79-.35-.14q9.91,0,19.8.15C97.17,103,103.7,103.12,110.21,103.22Z"/><polygon points="138.64 98.89 155.32 98.75 155.55 98.75 155.45 98.95 132.92 147.53 131.83 147.01 155.19 98.83 155.32 99.03 138.64 98.89"/></g></g></svg>