<svg xmlns="http://www.w3.org/2000/svg" viewBox="0 0 193.65 194.86"><defs><style>.cls-1{fill:#e20613;}.cls-2{fill:#999;}</style></defs><title>Element 4</title><g id="Ebene_2" data-name="Ebene 2"><g id="Startseite"><path d="M46,38.81,98.8,91q13.27,13.2,26.41,26.6c8.75,8.9,17.49,17.74,26.31,26.51l.39.39h-.55l-52.67.29-26.34.13L46,144.95h-.73v-.73l.06-26.52c0-8.85.14-17.66.21-26.46Zm.05.13.43,52.91c.07,8.76.21,17.51.21,26.21l.06,26.15L46,143.5l26.34.07,26.34.13,52.67.29-.16.39c-8.74-8.79-17.56-17.51-26.37-26.16S107.27,100.9,98.56,92.15Z"/><path d="M58.19,75.4,58.64,102c.07,4.36.18,8.71.19,13l.06,13-.72-.72,26.34.18,13.17.2c4.39.08,8.78.11,13.17.12l-.15.37c-4.37-4.39-8.79-8.73-13.21-13s-8.77-8.54-13.1-12.91Zm-.05-.13,26.48,25.8c4.46,4.41,8.88,8.91,13.24,13.43s8.72,9,13.13,13.35l.37.37h-.53c-4.39,0-8.78,0-13.17.12l-13.17.2-26.34.18h-.73V128l.06-13.35c0-4.46.12-8.89.19-13.31Z"/><path d="M78.48,55l8.3,8,8.21,8,16.39,16,16.22,16.14,16.1,16.24h-.88l12.27-12v.65L139,91.72q-8-8.16-16.25-16.17l-16.4-16c-5.44-5.36-10.82-10.79-16.19-16.23l.25.14C85,42.1,79.66,40.67,74.27,39.25l.47-.47C76,44.16,77.22,49.6,78.48,55Zm-.12.07C76.91,49.77,75.4,44.4,74,39l-.16-.61.63.15c5.42,1.28,10.84,2.56,16.25,3.9l.14,0,.11.11c5.44,5.37,10.87,10.74,16.23,16.19l16,16.4q8,8.18,16.17,16.25l16.36,16.05.32.32-.32.33-12,12.27-.44.44-.45-.44-16.31-16.17L110.3,87.9l-16-16.38-8-8.18Z"/><path d="M147.3,99.65a48.25,48.25,0,0,1-5.59,6.56,47.73,47.73,0,0,1-6.56,5.59,47.71,47.71,0,0,1,5.59-6.56A48.24,48.24,0,0,1,147.3,99.65Z"/><path class="cls-1" d="M56.13,61.16a5.85,5.85,0,0,1,1.54-2.51,5.79,5.79,0,0,1,2.51-1.54,5.78,5.78,0,0,1-1.54,2.51A5.85,5.85,0,0,1,56.13,61.16Z"/><path class="cls-1" d="M64.24,69.26a5.85,5.85,0,0,1,1.54-2.51,5.78,5.78,0,0,1,2.51-1.54,5.79,5.79,0,0,1-1.54,2.51A5.85,5.85,0,0,1,64.24,69.26Z"/><path class="cls-1" d="M72.34,77.37a5.84,5.84,0,0,1,1.54-2.51,5.78,5.78,0,0,1,2.51-1.54,5.78,5.78,0,0,1-1.54,2.51A5.84,5.84,0,0,1,72.34,77.37Z"/><path class="cls-1" d="M80.44,85.47A5.85,5.85,0,0,1,82,83a5.79,5.79,0,0,1,2.51-1.54A5.78,5.78,0,0,1,83,83.93,5.85,5.85,0,0,1,80.44,85.47Z"/><path class="cls-1" d="M88.55,93.57a5.85,5.85,0,0,1,1.54-2.51,5.78,5.78,0,0,1,2.51-1.54A5.79,5.79,0,0,1,91.06,92,5.85,5.85,0,0,1,88.55,93.57Z"/><path class="cls-1" d="M96.65,101.68a5.84,5.84,0,0,1,1.54-2.51,5.78,5.78,0,0,1,2.51-1.54,5.78,5.78,0,0,1-1.54,2.51A5.84,5.84,0,0,1,96.65,101.68Z"/><path class="cls-1" d="M104.75,109.78a5.85,5.85,0,0,1,1.54-2.51,5.79,5.79,0,0,1,2.51-1.54,5.78,5.78,0,0,1-1.54,2.51A5.85,5.85,0,0,1,104.75,109.78Z"/><path class="cls-1" d="M112.86,117.89a5.85,5.85,0,0,1,1.54-2.51,5.78,5.78,0,0,1,2.51-1.54,5.79,5.79,0,0,1-1.54,2.51A5.85,5.85,0,0,1,112.86,117.89Z"/><path class="cls-1" d="M121,126a5.85,5.85,0,0,1,1.54-2.51,5.78,5.78,0,0,1,2.51-1.54,5.79,5.79,0,0,1-1.54,2.51A5.85,5.85,0,0,1,121,126Z"/><path class="cls-1" d="M129.07,134.09a5.85,5.85,0,0,1,1.54-2.51,5.79,5.79,0,0,1,2.51-1.54,5.78,5.78,0,0,1-1.54,2.51A5.85,5.85,0,0,1,129.07,134.09Z"/><path class="cls-2" d="M193.65,97.53a98,98,0,0,1-27.92,68.68A95.46,95.46,0,0,1,97,194.86a96.91,96.91,0,0,1-37.15-7.65A98.14,98.14,0,0,1,0,97.53a97,97,0,0,1,134.34-90,96.18,96.18,0,0,1,31.4,21.34,98,98,0,0,1,27.9,68.7Zm-.2,0a94.78,94.78,0,0,0-28.63-67.77A96.34,96.34,0,0,0,60.52,9.33,95.77,95.77,0,0,0,29.48,30,97,97,0,0,0,8.59,60.89a95.94,95.94,0,0,0-.38,73.44,94.56,94.56,0,0,0,20.85,31.19A95.41,95.41,0,0,0,97,193.2a96.66,96.66,0,0,0,18.66-1.88,100.18,100.18,0,0,0,17.94-5.43,97.84,97.84,0,0,0,31.19-20.57,94.78,94.78,0,0,0,28.61-67.79Z"/></g></g></svg>