<svg xmlns="http://www.w3.org/2000/svg" viewBox="0 0 107.728 88.3374"><title>Element 6</title><g id="Ebene_2" data-name="Ebene 2"><g id="Ebene_1-2" data-name="Ebene 1"><path d="M76.7,53.2124c-2.8637,5.1723-5.7458,10.465-8.6189,15.8313l-8.8845,16.2-1.0882-.8763c3.3086-3.0759,6.6718-6.0913,10.005-9.14l10.0208-9.1221q4.995-4.5783,10.0672-9.0709L98.32,48.0209l.1038-.0924.1547-.0632a7.5536,7.5536,0,0,0,1.8345-1.1914,11.857,11.857,0,0,0,1.6261-1.6792,18.5351,18.5351,0,0,0,2.45-4.0871,28.2026,28.2026,0,0,0,1.5593-4.5815,24.9622,24.9622,0,0,0,.6334-4.8023,26.2474,26.2474,0,0,0-1.3758-9.6017,23.4055,23.4055,0,0,0-5.0614-8.2726A26.2368,26.2368,0,0,0,92.315,7.9743,52.6306,52.6306,0,0,0,83.0323,4.695,107.0045,107.0045,0,0,0,63.5134,1.736a154.5277,154.5277,0,0,0-19.7453-.0506A104.7824,104.7824,0,0,0,24.3306,4.5172a38.7921,38.7921,0,0,0-9.0388,3.4136,25.3208,25.3208,0,0,0-7.3754,5.9713A24.7174,24.7174,0,0,0,3.4,22.2115a26.5511,26.5511,0,0,0-1.2852,9.3564l.0047.0822a20.72,20.72,0,0,0,1.006,5.0988,23.7869,23.7869,0,0,0,2.1853,4.8088,24.4189,24.4189,0,0,0,7.2367,7.6369,27.88,27.88,0,0,0,4.6483,2.6224,34.4167,34.4167,0,0,0,5.0553,1.837,82.677,82.677,0,0,0,10.7145,2.0495,118.1527,118.1527,0,0,0,21.91.8469c3.6582-.2117,7.3121-.5666,10.9435-1.1022q2.7231-.4041,5.4236-.9555,1.3492-.2766,2.6888-.6l1.3355-.3377.6645-.1809.3308-.0945.1648-.0486.0823-.0246A.2627.2627,0,0,1,76.7,53.2124Zm-.1543.1272c-.0143.0533.0745.0555.0268.06l-.082.0282-.1641.0558-.3288.1088-.66.209-1.3265.3942q-1.33.3818-2.674.7135-2.6861.6685-5.409,1.1842a102.0327,102.0327,0,0,1-10.98,1.5,111.532,111.532,0,0,1-22.18-.2966,84.122,84.122,0,0,1-10.9956-1.91,36.25,36.25,0,0,1-5.345-1.8388,29.8244,29.8244,0,0,1-5.0023-2.71A25.5858,25.5858,0,0,1,.0391,31.6849l.0046.0818a28.4548,28.4548,0,0,1,1.34-10.2035,26.0043,26.0043,0,0,1,4.9662-8.98,27.3236,27.3236,0,0,1,8.0133-6.3685A40.6691,40.6691,0,0,1,23.8712,2.72,101.6232,101.6232,0,0,1,43.6877.1291,147.4981,147.4981,0,0,1,63.6.6587,118.4506,118.4506,0,0,1,83.2141,4.012a53.2768,53.2768,0,0,1,9.3728,3.4,28.7242,28.7242,0,0,1,8.146,5.77,25.7745,25.7745,0,0,1,6.992,18.3673,26.0571,26.0571,0,0,1-.5235,5.0365,29.2054,29.2054,0,0,1-1.5025,4.8428,19.9125,19.9125,0,0,1-2.5207,4.4651,13.33,13.33,0,0,1-1.77,1.9259,8.7072,8.7072,0,0,1-2.2861,1.5341l.2582-.1554L89.3651,58.3262q-5.007,4.565-10.0669,9.0711L69.185,76.417c-3.3782,2.9988-6.7263,6.0307-10.1291,9.0021l-3.342,2.9183,2.2538-3.7946L67.124,69.1257C70.2644,63.9529,73.3959,58.7065,76.5459,53.34Z"/></g></g></svg>