<svg xmlns="http://www.w3.org/2000/svg" viewBox="0 0 84.9594 131.0858"><defs><style>.cls-1{fill:#575756;}.cls-2{font-size:3.3911px;font-family:DBOffice-Regular, DB Office;}.cls-2,.cls-7{fill:#0087b9;}.cls-3,.cls-5{fill:#e20918;}.cls-4{letter-spacing:-0.018em;}.cls-5{font-family:DBOffice-Bold, DB Office;font-weight:700;}.cls-6{fill:#fff;}</style></defs><title>Element 18</title><g id="Ebene_2" data-name="Ebene 2"><g id="Ebene_1-2" data-name="Ebene 1"><g id="Illustrationen"><path class="cls-1" d="M50.3362,67.22,28.1229,69.2476,5.747,71.1867l-.3051.0265-.0242-.3055L4.0958,54.2008,2.8288,37.49c-.4486-5.5684-.8728-11.1386-1.37-16.7029L.0159,4.09,0,3.9058l.1856-.0164L22.47,1.9279,44.76.0306,45.1192,0l.0293.36,1.3636,16.7681,1.3012,16.75Zm-.0516-.0438L47.2865,33.7094,45.8273,17.0553,44.43.4194l.3886.3294L22.52,2.5362.2163,4.2594l.17-.2L1.7035,20.7664c.4229,5.57.9188,11.1348,1.39,16.7012L4.5873,54.16,6.0259,70.8574l-.329-.2789L27.9094,68.833Z"/><text class="cls-2" transform="translate(3.3346 11.1476) rotate(-4.7242)">WENN ICH,<tspan class="cls-3" x="18.0845" y="0"> </tspan><tspan class="cls-1" x="19.0269" y="0">morgens </tspan><tspan class="cls-1"><tspan x="0" y="4.0693">meine </tspan><tspan class="cls-4" x="10.1777" y="4.0693">W</tspan><tspan x="13.3174" y="4.0693">ohnung verlasse, </tspan><tspan x="0" y="8.1387">um mit dem Rad ins Büro </tspan><tspan x="0" y="12.208">zu fahren und es plötzlich </tspan><tspan x="0" y="16.2773">aus Eimern schüttet.</tspan></tspan><tspan x="0" y="29.2998">MÖCHTE ICH,</tspan><tspan class="cls-5" x="22.4175" y="29.2998"> </tspan><tspan class="cls-1" x="23.3599" y="29.2998">etwas zur </tspan><tspan class="cls-1"><tspan x="0" y="33.3691">Hand haben, dass mich </tspan><tspan x="0" y="37.4385">vor dem Regen schützt.</tspan></tspan><tspan x="0" y="50.46">DAMI</tspan><tspan class="cls-4" x="8.4775" y="50.46">T</tspan><tspan x="10.4878" y="50.46" xml:space="preserve"> ICH,</tspan><tspan class="cls-5" x="18.2124" y="50.46"> </tspan><tspan class="cls-1" x="19.1548" y="50.46">trocken und </tspan><tspan class="cls-1"><tspan x="0" y="54.5293">pünktlich ankomme.</tspan></tspan></text><path class="cls-6" d="M61.852,107.5351A42.9382,42.9382,0,0,0,33.8752,92.1624a7.1757,7.1757,0,0,0-.3665-.8339c-1.2137-2.4167-5.7819-9.2564-18.6238-9.2939,0,0,20.6786-29.585,49.4418-15.6876q.7093.3428,1.4251.7211c29.5028,15.5991,14.921,50.5278,14.921,50.5278S74.23,107.139,61.852,107.5351Z"/><path class="cls-7" d="M61.8224,107.596a40.946,40.946,0,0,0-5.9075-5.6307c-.5423-.4066-1.0743-.8257-1.6232-1.2212l-1.6653-1.16c-1.1465-.7182-2.2867-1.4441-3.49-2.0605l-.89-.4826-.917-.4283c-.6148-.2771-1.2172-.5817-1.8409-.8359-1.2634-.47-2.499-1.01-3.7978-1.3724a42.289,42.289,0,0,0-7.88-1.6728l-.3379-.046-.1411-.3406a11.3035,11.3035,0,0,0-1.3111-2.3334A15.2037,15.2037,0,0,0,30.2226,87.95a16.9532,16.9532,0,0,0-4.5045-3.1265,21.8692,21.8692,0,0,0-5.2687-1.7157,31.4022,31.4022,0,0,0-5.5659-.6144l-.8953-.0413.52-.6811A57.4893,57.4893,0,0,1,24.8741,71.4967,49.5489,49.5489,0,0,1,30.9454,67.46,39.9339,39.9339,0,0,1,37.56,64.3878a39.3141,39.3141,0,0,1,7.0876-1.7759,34.2823,34.2823,0,0,1,7.3241-.2211,36.8782,36.8782,0,0,1,7.2215,1.358,46.8159,46.8159,0,0,1,6.804,2.79l1.6059.9005a18.3375,18.3375,0,0,1,1.583.9421,34.9515,34.9515,0,0,1,3.009,2.1367,32.575,32.575,0,0,1,5.3009,5.1491,31.6279,31.6279,0,0,1,6.4246,13.23,43.4217,43.4217,0,0,1,.7347,14.6669,56.35,56.35,0,0,1-3.5115,14.228l-.3623.9159-.5428-.8449a23.5074,23.5074,0,0,0-7.8641-7.4269,27.02,27.02,0,0,0-2.4465-1.2414,21.5749,21.5749,0,0,0-8.1054-1.5991Zm.0592-.122,1.3838-.0083a8.7637,8.7637,0,0,1,1.3788.0507l1.3952.1454c.465.0541.9175.18,1.378.2672a22.2966,22.2966,0,0,1,2.7078.7664,22.6278,22.6278,0,0,1,2.566,1.17,24.2865,24.2865,0,0,1,8.4159,7.4629l-.9051.0711a55.2837,55.2837,0,0,0,3.1443-13.97,51.6879,51.6879,0,0,0,.19-7.1541,39.68,39.68,0,0,0-.99-7.0562,31.2963,31.2963,0,0,0-2.3523-6.692,16.08,16.08,0,0,0-.8067-1.5794c-.2914-.5143-.5484-1.05-.89-1.5342l-.97-1.487L76.4435,76.52a36.1339,36.1339,0,0,0-10.9909-8.95,45.7391,45.7391,0,0,0-6.5673-2.8471,36.4524,36.4524,0,0,0-6.99-1.5294,32.8206,32.8206,0,0,0-7.17.0208A33.8721,33.8721,0,0,0,37.717,64.835a38.6293,38.6293,0,0,0-6.5688,2.9824,49.1162,49.1162,0,0,0-5.9626,4.0763,51.41,51.41,0,0,0-5.323,4.88,50.8736,50.8736,0,0,0-4.6012,5.5242l-.375-.7223a32.39,32.39,0,0,1,5.7707.4549,22.1165,22.1165,0,0,1,5.5637,1.74,17.7714,17.7714,0,0,1,4.8484,3.3075A14.211,14.211,0,0,1,34.418,91.98l-.4789-.3864a43.3659,43.3659,0,0,1,8.0728,1.8173A37.2471,37.2471,0,0,1,45.874,94.893c.63.2795,1.2369.6091,1.8556.911l.9218.4656.8927.52a41.2086,41.2086,0,0,1,6.7281,4.7432A36.5183,36.5183,0,0,1,61.8816,107.474Z"/><path class="cls-7" d="M64.2937,66.4063a6.661,6.661,0,0,0-2.5134-.1381,7.5964,7.5964,0,0,0-1.2351.2051c-.2038.0457-.4083.0793-.6093.1336l-.5976.1981a19.2638,19.2638,0,0,0-2.3359.9269c-.7557.3693-1.4869.8023-2.256,1.165-.7251.4477-1.4744.8675-2.222,1.3019-.717.4782-1.4161.9912-2.1,1.5232A17.117,17.117,0,0,0,48.53,73.5a22.0032,22.0032,0,0,0-1.7245,1.9454c-2.1455,2.73-4.26,5.4534-6.2552,8.2824-.5183.693-1.022,1.3966-1.5532,2.0817l-.793,1.0312-.7592,1.0573c-1.0176,1.4072-2.0747,2.7921-3.2,4.1444l-.1158-.0706A60.43,60.43,0,0,1,39.3773,82.88,47.6012,47.6012,0,0,1,42.63,78.7459a38.7189,38.7189,0,0,1,3.6335-3.8088c.5968-.6405,1.3161-1.1631,1.946-1.7683.3273-.2907.6386-.5974.957-.8968l.4716-.4557.4987-.4268c.6622-.5721,1.2865-1.1933,1.9344-1.7945.687-.5525,1.3725-1.12,2.0822-1.6588.3815-.23.7612-.468,1.1546-.6813a9.1144,9.1144,0,0,1,1.1938-.6148l1.2591-.4926a8.9142,8.9142,0,0,1,1.3081-.3586l.6609-.1512c.2248-.0321.4548-.0434.6808-.0654l.6779-.0558c.2259-.0122.4572.0209.6834.03a5.2353,5.2353,0,0,1,2.588.7416Z"/><path class="cls-7" d="M65.7773,67.0052a5.7684,5.7684,0,0,1,2.3481,1.54l.4928.5182a5.6943,5.6943,0,0,1,.4209.5736,6.7209,6.7209,0,0,1,.7446,1.215c.1976.43.4264.8531.5973,1.2949l.405,1.3594a5.2518,5.2518,0,0,1,.181.6848l.0957.698c.07.4645.1093.933.16,1.3981.0312.9335-.06,1.8658-.092,2.788a13.4432,13.4432,0,0,1-.1789,1.3726l-.1692,1.3667c-.055.9171-.2686,1.8088-.3838,2.7172-.1591.8994-.1745,1.8332-.3948,2.7224a37.8255,37.8255,0,0,1-1.2435,5.3651l-.8135,2.6329a26.8668,26.8668,0,0,1-.9748,2.5721c-.3664.8408-.7159,1.6882-1.0958,2.5223l-.5674,1.2511-.6478,1.2125c-.8685,1.6133-1.777,3.2047-2.7488,4.7553l-.1214-.0606c.5765-1.7456,1.2165-3.4505,1.8964-5.1335l.5135-1.26.4649-1.2776c.3054-.8531.641-1.6927.96-2.539,1.3676-3.35,2.5377-6.7568,3.6546-10.208a10.5892,10.5892,0,0,0,.37-1.3071c.1078-.4394.2046-.8819.2944-1.326a15.6351,15.6351,0,0,0,.4-2.684,25.8985,25.8985,0,0,0,.0306-2.7075c-.0992-.8964-.1647-1.79-.2768-2.669a21.2916,21.2916,0,0,0-1.2656-5.0912,7.9932,7.9932,0,0,0-.5631-1.176,9.0549,9.0549,0,0,0-2.544-2.9951Z"/><path class="cls-1" d="M50.8633,100.281c-1.9014,4.2454-3.926,8.4251-5.9747,12.5922l-3.13,6.2207-1.6033,3.0907L39.33,123.72c-.305.5126-.5719,1.0452-.9215,1.5314a17.6322,17.6322,0,0,1-2.2683,2.77,12.3878,12.3878,0,0,1-2.9184,2.0848,9.18,9.18,0,0,1-3.4416.9617,8.0694,8.0694,0,0,1-6.4539-2.5237,7.73,7.73,0,0,1-1.7294-3.1153,8.1525,8.1525,0,0,1-.2094-3.5781,10.895,10.895,0,0,1,1.1794-3.4015l.0772-.1445.1824-.0566c1.2633-.3921,2.5252-.7894,3.7932-1.1649l1.2533-.3713L27.22,117.87a9.6862,9.6862,0,0,0-1.4591,5.24,3.9433,3.9433,0,0,0,.863,2.3261,2.8447,2.8447,0,0,0,2.089.9881,5.1209,5.1209,0,0,0,2.4577-.6489,10.4533,10.4533,0,0,0,2.2087-1.5938,21.4552,21.4552,0,0,0,3.4635-4.4588c1.869-3.3688,3.7145-6.8661,5.5838-10.2889,1.8954-3.4244,3.789-6.8511,5.7669-10.2381l.1215.06c-1.6129,3.5693-3.31,7.099-5.0055,10.6308L40.7149,115.16l-1.3,2.6356c-.4206.88-.88,1.7505-1.3708,2.6311a20.733,20.733,0,0,1-3.6775,4.8134,11.5278,11.5278,0,0,1-2.5468,1.8152,6.4927,6.4927,0,0,1-3.177.7421,4.202,4.202,0,0,1-3.0275-1.518,5.2138,5.2138,0,0,1-1.1061-3.0941,10.492,10.492,0,0,1,1.7972-5.8636l.6.7869c-1.2779.34-2.562.6577-3.8448.981l.2595-.201a8.4489,8.4489,0,0,0-1.219,6.404,7.053,7.053,0,0,0,4.3147,4.8516,7.4763,7.4763,0,0,0,6.4905-.6263,11.7038,11.7038,0,0,0,2.6089-2.1064,16.6686,16.6686,0,0,0,1.9837-2.7292c.2986-.4777.5335-.9973.8105-1.4882l.7758-1.5572,1.5916-3.0982,3.26-6.1571c2.2111-4.0848,4.4462-8.1569,6.805-12.1634Z"/><path class="cls-1" d="M64.6634,66.2129a3.5715,3.5715,0,0,1,.94-1.4691,2.77,2.77,0,0,1,.787-.5376,1.7321,1.7321,0,0,1,.589-.1462,1.2354,1.2354,0,0,1,.79.218,1.501,1.501,0,0,1,.5769,1.1855,3.0888,3.0888,0,0,1-.1139.9262,3.9009,3.9009,0,0,1-.8138,1.5337,11.48,11.48,0,0,1-.2486-1.6292,6.3493,6.3493,0,0,0-.1013-.6788c-.0391-.1879-.138-.3108-.0812-.2294.108.0364.0229-.0168-.1634.0284a4.22,4.22,0,0,0-.63.2137C65.7279,65.811,65.2405,66.04,64.6634,66.2129Z"/><path class="cls-1" d="M59.3156,42.2473a15.0793,15.0793,0,0,1,1.6254,2.4242,11.9051,11.9051,0,0,1,1.13,2.6845,4.8265,4.8265,0,0,1,.1419,1.4969,3.6086,3.6086,0,0,1-.483,1.4111,3.0281,3.0281,0,0,1-2.4046,1.59,2.8831,2.8831,0,0,1-2.6-1.4731,3.3436,3.3436,0,0,1-.48-1.5042,2.5792,2.5792,0,0,1,.07-.8085,6.74,6.74,0,0,1,.2184-.7225,21.1005,21.1005,0,0,1,1.2384-2.6276A23.0837,23.0837,0,0,1,59.3156,42.2473Zm.0018.0678c-.6446,1.7484-1.5,3.5165-2.1011,5.27a3.4748,3.4748,0,0,0-.2654,1.262,2.6761,2.6761,0,0,0,.3277,1.2179,2.5955,2.5955,0,0,0,2.0453,1.4186,2.2776,2.2776,0,0,0,1.2919-.3178,2.6045,2.6045,0,0,0,.9213-1.0075,2.6576,2.6576,0,0,0,.2982-1.3205,4.7335,4.7335,0,0,0-.3062-1.3223C60.9328,45.7666,60.0329,44.0381,59.3174,42.3151Z"/><path class="cls-1" d="M73.4953,34.2752a15.08,15.08,0,0,1,1.6255,2.4242,11.9068,11.9068,0,0,1,1.13,2.6845,4.8265,4.8265,0,0,1,.1419,1.4969,3.6127,3.6127,0,0,1-.4829,1.4112,3.0284,3.0284,0,0,1-2.4047,1.59,2.883,2.883,0,0,1-2.6-1.4731,3.3447,3.3447,0,0,1-.48-1.5042,2.5855,2.5855,0,0,1,.07-.8085,6.7858,6.7858,0,0,1,.2185-.7225,21.1,21.1,0,0,1,1.2384-2.6276A23.1144,23.1144,0,0,1,73.4953,34.2752Zm.0019.0678c-.6447,1.7483-1.5,3.5165-2.1012,5.2695a3.47,3.47,0,0,0-.2653,1.2619,2.675,2.675,0,0,0,.3277,1.2181,2.5954,2.5954,0,0,0,2.0451,1.4186,2.2789,2.2789,0,0,0,1.2919-.3179,2.607,2.607,0,0,0,.9215-1.0074,2.6606,2.6606,0,0,0,.2982-1.3206,4.7287,4.7287,0,0,0-.3063-1.3222C75.1127,37.7945,74.2127,36.066,73.4972,34.343Z"/><path class="cls-1" d="M77.6514,56.1288a15.0711,15.0711,0,0,1,1.6255,2.4242,11.9074,11.9074,0,0,1,1.13,2.6845,4.8235,4.8235,0,0,1,.1417,1.4969,3.6077,3.6077,0,0,1-.4828,1.4112,3.0288,3.0288,0,0,1-2.4046,1.59,2.8835,2.8835,0,0,1-2.6-1.4731,3.3492,3.3492,0,0,1-.48-1.5043,2.5826,2.5826,0,0,1,.07-.8085,6.7237,6.7237,0,0,1,.2184-.7225A21.1067,21.1067,0,0,1,76.1076,58.6,23.14,23.14,0,0,1,77.6514,56.1288Zm.002.0678c-.6447,1.7484-1.5,3.5166-2.1011,5.27a3.4686,3.4686,0,0,0-.2654,1.262,2.6767,2.6767,0,0,0,.3276,1.218A2.5958,2.5958,0,0,0,77.66,65.3647a2.2781,2.2781,0,0,0,1.2919-.3179,2.6053,2.6053,0,0,0,.9213-1.0075,2.6573,2.6573,0,0,0,.2982-1.32,4.7328,4.7328,0,0,0-.3062-1.3222C79.2688,59.6482,78.3688,57.92,77.6534,56.1966Z"/></g></g></g></svg>