<svg xmlns="http://www.w3.org/2000/svg" viewBox="0 0 89.4308 105.1204"><defs><style>.cls-1{fill:#0087b9;}.cls-2{fill:#fff;fill-rule:evenodd;}.cls-3{fill:#575756;}</style></defs><title>Element 45</title><g id="Ebene_2" data-name="Ebene 2"><g id="Ebene_1-2" data-name="Ebene 1"><g id="Illustrationen"><path class="cls-1" d="M66.6386,34.4976a54.5043,54.5043,0,0,1-.0261,8.4615l-.4777,4.2075q-.1767,2.1066-.2488,4.2227a70.65,70.65,0,0,1-.83,8.4359,40.7531,40.7531,0,0,1-.9779,4.1441,15.4,15.4,0,0,1-1.7044,3.9053l-.0719-.0415A23.5424,23.5424,0,0,0,63.45,63.808c.3026-1.3625.4955-2.75.7334-4.1281.452-2.7647.8236-5.5474,1.2508-8.3326.1911-1.3949.3633-2.7936.4326-4.2.0771-1.4058.034-2.8187.0568-4.2258.0863-2.8128.2911-5.6169.6324-8.4254Z"/><path class="cls-1" d="M54.552,19.8339c.1182,2.8147.112,5.6139-.0127,8.4128-.0863,1.3988-.2243,2.7987-.2549,4.2005-.0229,1.4015.0338,2.8035.1389,4.2017.2257,2.7959.4166,5.5849.7111,8.3559.1405,1.385.2769,2.7708.5057,4.14a17.6017,17.6017,0,0,0,1.0376,4.0238l-.0718.0414a12.6712,12.6712,0,0,1-1.6006-3.9333,34.9671,34.9671,0,0,1-.75-4.1772,62.1224,62.1224,0,0,1-.2857-8.44c.0371-1.406.0719-2.8092.0462-4.2127-.03-1.4032-.134-2.8083-.1664-4.2139a52.7143,52.7143,0,0,1,.62-8.4044Z"/><path class="cls-2" d="M43.5374,14.318S34.3358,16.2865,31.89,21.3229c-1.9951,4.11-.5255,9.8761,10.4194,13.204,10.9481,3.3279,33.44,2.1554,39.87-1.1968,7.9028-4.1182,8.6461-9.9044,3.9174-14.2833-4.7288-4.3773-6.1295-4.7288-6.1295-4.7288Z"/><path class="cls-3" d="M43.5417,14.3592a29.2233,29.2233,0,0,0-5.8374,2.0831A13.7208,13.7208,0,0,0,32.8416,20.15a6.89,6.89,0,0,0-1.2676,5.6913,8.7029,8.7029,0,0,0,3.4119,4.792A28.3958,28.3958,0,0,0,46.3023,35.16,71.4884,71.4884,0,0,0,58.649,36.3564,89.4887,89.4887,0,0,0,71.0617,35.73c2.0546-.2609,4.1022-.5859,6.1145-1.0456a18.8029,18.8029,0,0,0,5.73-2.12,13.9427,13.9427,0,0,0,4.5174-3.98,6.1756,6.1756,0,0,0,.8975-5.578,7.95,7.95,0,0,0-1.4688-2.5508,20.0607,20.0607,0,0,0-2.1866-2.12c-.7747-.6812-1.5573-1.3516-2.3622-1.986-.4048-.3119-.8107-.6247-1.2289-.9078q-.313-.2139-.6312-.4067a4.5943,4.5943,0,0,0-.5813-.2988l.1048.013-9.0965-.02-9.103-.12-9.1129-.1681C49.6152,14.3843,46.58,14.3887,43.5417,14.3592Zm-.0087-.0825c3.0332-.0293,6.07-.025,9.102-.0822l9.1018-.1681,9.1119-.12,9.1184-.02h.0662l.0391.0131a4.2192,4.2192,0,0,1,.8117.39q.3492.2091.6792.4338c.4427.2974.8607.6172,1.2791.9372.8294.6463,1.6265,1.3245,2.4,2.026A20.931,20.931,0,0,1,87.5,19.9218a8.7729,8.7729,0,0,1,1.5915,2.8308,6.6162,6.6162,0,0,1,.2334,3.2667,7.6117,7.6117,0,0,1-1.2784,2.99,14.4089,14.4089,0,0,1-4.82,4.1083,19.2579,19.2579,0,0,1-5.9427,2.0578,62.422,62.422,0,0,1-6.1817.91,121.3055,121.3055,0,0,1-12.4563.56,81.7426,81.7426,0,0,1-12.4489-.9041c-1.0314-.1653-2.0565-.3814-3.0755-.6321-1.018-.2662-2.0123-.591-3-.9486a20.3383,20.3383,0,0,1-5.571-2.9662,9.1271,9.1271,0,0,1-3.546-5.23,7.3749,7.3749,0,0,1,1.5591-6.0336,14.5487,14.5487,0,0,1,5.0713-3.6337A29.26,29.26,0,0,1,43.533,14.2767Z"/><path class="cls-2" d="M41.4362,21.7625s2.8785-10.9262,8.0549-14.8c5.975-4.4712,11.0348-5.2551,17.8648-4.204s13.6615,11.472,14.187,16.8136,0,3.941,0,3.941-4.9458,4.2582-19.353,4.2023C43.2183,27.6427,41.4362,21.7625,41.4362,21.7625Z"/><path class="cls-3" d="M41.3948,21.7633a43.255,43.255,0,0,1,2.5763-7.54A21.8009,21.8009,0,0,1,48.33,7.5075,22.77,22.77,0,0,1,55.18,3.3088a18.9582,18.9582,0,0,1,7.9129-1.202,31.9729,31.9729,0,0,1,3.97.43A10.2972,10.2972,0,0,1,70.83,3.8894a22.1825,22.1825,0,0,1,5.9048,5.3188,28.74,28.74,0,0,1,4.1462,6.8144,12.9865,12.9865,0,0,1,1.0311,3.9068c.07.66.1338,1.3216.1822,1.9883.0233.3339.0433.6681.0486,1.0114a4.8039,4.8039,0,0,1-.0152.5378c-.0042.0477-.0119.1017-.0226.1592a.5843.5843,0,0,1-.1347.29.4108.4108,0,0,1-.2633.1339.4223.4223,0,0,1-.27-.0671.5109.5109,0,0,1-.1492-.1511.9743.9743,0,0,1-.0957-.1867l.5964.1524a16.9915,16.9915,0,0,1-4.8826,2.3845,34.77,34.77,0,0,1-5.2117,1.2749,58.6609,58.6609,0,0,1-10.6555.6421,53.5139,53.5139,0,0,1-10.5959-1.172,24.71,24.71,0,0,1-5.0684-1.6964,11.0934,11.0934,0,0,1-1.1777-.6416,9.2431,9.2431,0,0,1-1.1047-.7609A5.29,5.29,0,0,1,41.3948,21.7633Zm.0828-.0016a5.3209,5.3209,0,0,0,1.7484,1.8888,8.9988,8.9988,0,0,0,1.1168.6847,10.7659,10.7659,0,0,0,1.1825.5654,24.6357,24.6357,0,0,0,5.0334,1.4783,55.7373,55.7373,0,0,0,10.4939.8991A58.6632,58.6632,0,0,0,71.55,26.59a35.2223,35.2223,0,0,0,5.1006-1.1852,16.49,16.49,0,0,0,4.6474-2.176l.3951-.29.2014.4423.0156.0345c-.0056-.0035.0027-.0094-.066-.06a.3419.3419,0,0,0-.2129-.0495.3263.3263,0,0,0-.2112.1038c-.084.1191-.0372.0647-.0453.0613l.0138-.086a4.2086,4.2086,0,0,0,.0218-.4533c.0025-.3182-.01-.6453-.0251-.9717-.0328-.6538-.0811-1.311-.136-1.9679a13.17,13.17,0,0,0-.884-3.7655A27.5478,27.5478,0,0,0,76.492,9.4a20.1014,20.1014,0,0,0-5.8028-5.2631c-2.2664-1.38-5.0077-1.4387-7.6089-1.5276a19.88,19.88,0,0,0-7.642,1.3653,24.6179,24.6179,0,0,0-6.64,4.0228,16.7107,16.7107,0,0,0-2.4455,3.0156A30.9871,30.9871,0,0,0,44.4094,14.43,55.4709,55.4709,0,0,0,41.4776,21.7617Z"/><path class="cls-3" d="M43.2968,17.2609a79.206,79.206,0,0,0,8.7443,3.4482c.74.2544,1.48.514,2.2362.722a21.5032,21.5032,0,0,0,2.2846.57c.7693.1625,1.5561.213,2.3342.3094.7836.0392,1.5693.0654,2.3506.0426a76.7552,76.7552,0,0,0,9.3075-1.2642,82.36,82.36,0,0,0,9.22-1.9043l.0354.0749a24.1445,24.1445,0,0,1-4.469,1.6361c-1.531.4144-3.0757.7739-4.6326,1.0642-1.5587.2771-3.1267.4967-4.6971.6776a25.3086,25.3086,0,0,1-4.7706.17c-.7946-.03-1.5814-.1628-2.3717-.2063-.7828-.1235-1.571-.2037-2.3512-.3346a44.12,44.12,0,0,1-4.6767-.8963,28.2,28.2,0,0,1-8.587-4.038Z"/><path class="cls-3" d="M60.24,3.6534c-1.299.8188-2.581,1.6386-3.8312,2.5057a10.6854,10.6854,0,0,0-3.3382,3.0676c-.8031,1.289-1.5361,2.6382-2.2836,3.9644-.36.6718-.7334,1.3371-1.0782,2.0163a10.76,10.76,0,0,0-.8969,2.09l-.0413-.0035a7.7111,7.7111,0,0,1,.6441-2.2232c.3006-.71.6281-1.4082.9964-2.0839a28.8426,28.8426,0,0,1,2.4757-3.8938,16.6952,16.6952,0,0,1,1.5876-1.6816c.56-.5269,1.1219-1.0585,1.733-1.5311a17.3273,17.3273,0,0,1,4.0145-2.2647Z"/><path class="cls-3" d="M62.734,4.6058c-.4162,1.2369-.7569,2.48-1.085,3.7313a13.028,13.028,0,0,0-.6423,3.8314,51.811,51.811,0,0,1-.7547,7.7777l-.0415-.0028a51.89,51.89,0,0,1,.57-7.7981c.1879-1.29.3164-2.5907.5339-3.887a11.9371,11.9371,0,0,1,1.3823-3.671Z"/><path class="cls-3" d="M65.2609,4.5769A12.8305,12.8305,0,0,1,69.534,6.4893a11.9852,11.9852,0,0,1,1.7406,1.5876A17.0222,17.0222,0,0,1,72.6734,9.96a11.4149,11.4149,0,0,1,1.86,4.3145,17.0247,17.0247,0,0,1,.2006,4.6845h-.0415a38.8349,38.8349,0,0,0-.5777-4.5973,15.2868,15.2868,0,0,0-1.635-4.2839,8.3227,8.3227,0,0,0-1.31-1.9035,9.2863,9.2863,0,0,0-1.8273-1.4,31.4331,31.4331,0,0,0-4.0938-2.1578Z"/><path class="cls-1" d="M45.0425,20.7862a14.6865,14.6865,0,0,0,2.93,2.0432,10.0084,10.0084,0,0,0,3.3227,1.3633c1.1734.2748,2.3613.4427,3.5445.6437.5965.0668,1.19.1609,1.7866.2485.5984.0656,1.197.1465,1.798.2464l-.0014.0414c-.6061.03-1.2146.04-1.8233.0353-.6063-.0353-1.2148-.0752-1.8188-.1481a17.4708,17.4708,0,0,1-3.5486-.8492c-1.14-.4231-2.297-.7794-3.42-1.2774-.2713-.1409-.5431-.2843-.8043-.4445-.2494-.18-.5109-.34-.7485-.5364A5.2754,5.2754,0,0,1,45.0087,20.81Z"/><path class="cls-1" d="M80.1246,21.5766a7.1771,7.1771,0,0,1-2.0593,1.436c-.3874.1649-.7887.295-1.1783.4448q-.5773.2414-1.149.5029a9.3044,9.3044,0,0,1-2.4152.7313A7.2254,7.2254,0,0,1,70.8,24.6107l.0033-.0413c.8374-.09,1.6457-.1564,2.45-.3145.804-.1378,1.6071-.2995,2.4093-.5088a6.3478,6.3478,0,0,0,1.17-.4119,11.8984,11.8984,0,0,0,1.0729-.6276c.7142-.4126,1.4415-.79,2.1935-1.163Z"/><path class="cls-1" d="M62.6176,18.8335a1.01,1.01,0,0,0-.1478.6858.73.73,0,0,0,.27.4716.7152.7152,0,0,0,.5972.202.8116.8116,0,0,0,.51-.434c.1944-.4143.2847-.9059-.0658-1.03a1.3747,1.3747,0,0,0-.5783-.1815A.5689.5689,0,0,0,62.6176,18.8335Zm-.036-.02a1.0219,1.0219,0,0,1,1.4234-.466.8683.8683,0,0,1,.3472.3427.9022.9022,0,0,1,.0548.4775,1.2943,1.2943,0,0,1-.3771.7267,1.6808,1.6808,0,0,1-.6573.4286,1.0658,1.0658,0,0,1-.818-.0406.67.67,0,0,1-.3441-.7843A2.8544,2.8544,0,0,1,62.5816,18.8131Z"/><path class="cls-1" d="M67.4856,14.4308a1.0938,1.0938,0,0,0,.1976.865,1.0493,1.0493,0,0,0,.6872.3494,1.3587,1.3587,0,0,0,.8759-.0471.8339.8339,0,0,0,.4421-.7192c-.0227-.5684-.3162-1.2088-.8338-1.181a1.9749,1.9749,0,0,0-.8356.0528A.8861.8861,0,0,0,67.4856,14.4308Zm-.0407-.0085a1.4833,1.4833,0,0,1,.43-.9033,1.3922,1.3922,0,0,1,1.0137-.262.9919.9919,0,0,1,.5545.1779,1.1935,1.1935,0,0,1,.3583.4454,1.456,1.456,0,0,1-1.4624,2.1086.9064.9064,0,0,1-.8852-.57A2.0039,2.0039,0,0,1,67.4449,14.4223Z"/><path class="cls-3" d="M65.4467,34.76c-.0672.0927.0156.1972.1152.2221a1.0693,1.0693,0,0,0,.31.0447l.6373.0168a1.7062,1.7062,0,0,0,1.21-.1826c.032-.0338-.0417-.11-.1286-.1456a1.2138,1.2138,0,0,0-.2856-.0791,5.1861,5.1861,0,0,0-.6275-.0329l-.6393-.01A.7811.7811,0,0,0,65.4467,34.76Zm-.0164-.0128a1.8482,1.8482,0,0,1,1.2486-.3576,2.6225,2.6225,0,0,1,.6652.0557.98.98,0,0,1,.3253.1317c.081.0528.2548.1845.1382.3555a1.4263,1.4263,0,0,1-.6463.1991c-.2162.0294-.433.0712-.6522.0837a2.1348,2.1348,0,0,1-.6571-.06,1.2035,1.2035,0,0,1-.3138-.1245C65.44,34.9894,65.3382,34.8489,65.43,34.7472Z"/><path class="cls-1" d="M71.8844,18.0223a.9284.9284,0,0,0-.498.2936.3806.3806,0,0,0-.0182.4614.9823.9823,0,0,0,.9342.57.5314.5314,0,0,0,.4641-.7476A.9.9,0,0,0,71.8844,18.0223Zm-.0027-.0207a1.5083,1.5083,0,0,1,.6219.0589.7927.7927,0,0,1,.4637.466.733.733,0,0,1-.0649.6723.638.638,0,0,1-.6.262,1.6635,1.6635,0,0,1-1.0826-.5974.5868.5868,0,0,1-.1-.3344.4285.4285,0,0,1,.1773-.3069A1.5869,1.5869,0,0,1,71.8817,18.0016Z"/><path class="cls-3" d="M60.2135,2.0224A2.8513,2.8513,0,0,1,61.339.5982,4.0667,4.0667,0,0,1,62.1955.249a4.5411,4.5411,0,0,1,.89-.2213,1.8142,1.8142,0,0,1,1.7376.676A2.5137,2.5137,0,0,1,65.2755,2.49l-.0415.0021A4.4646,4.4646,0,0,0,64.4773.979,1.9242,1.9242,0,0,0,63.0909.2546a1.6552,1.6552,0,0,0-.8478.12,2.67,2.67,0,0,0-.7016.5027c-.4375.3632-.8553.7482-1.2925,1.1662Z"/><path class="cls-3" d="M61.1241,2.3374a1.513,1.513,0,0,1,.6186-1.135A2.1862,2.1862,0,0,1,62.3678.965c.21-.0515.414-.1116.6326-.1434a1.5437,1.5437,0,0,1,1.3064.3092,1.2831,1.2831,0,0,1,.36,1.2752l-.0415-.0011a2.0642,2.0642,0,0,0-.6112-.94,2.109,2.109,0,0,0-1.0107-.4326,1.0088,1.0088,0,0,0-.5874.0659,1.7084,1.7084,0,0,0-.4513.3759,11.74,11.74,0,0,0-.8012.8768Z"/><path class="cls-1" d="M63.2782,19.7181a.3752.3752,0,0,0,0-.75.3752.3752,0,0,0,0,.75Z"/><path class="cls-1" d="M68.6239,15.3171a.6254.6254,0,0,0,0-1.25.6254.6254,0,0,0,0,1.25Z"/><path class="cls-1" d="M72.06,18.9567a.25.25,0,0,0,0-.5.25.25,0,0,0,0,.5Z"/><path class="cls-3" d="M66.3376,34.146a.7873.7873,0,0,1,.6233.1212c.081.0733.1461.1755.2277.2458.0405.0416.09.0565.1407.1265.0571.1427-.0824.2111-.12.236a1.1744,1.1744,0,0,1-1.2519-.0267v-.0414a1.48,1.48,0,0,1,1.1859-.149c.0467-.0018.0516.0151.0546.044a.1649.1649,0,0,0-.0836-.0773,1.3649,1.3649,0,0,0-.3073-.049.8482.8482,0,0,1-.4862-.3921Z"/><path class="cls-3" d="M.3654,40.4589a11.2138,11.2138,0,0,0,1.1967,4.894,10.4569,10.4569,0,0,0,3.317,3.7289A14.2722,14.2722,0,0,0,9.43,51.13a16.9251,16.9251,0,0,0,4.9654.5707,19.4061,19.4061,0,0,0,4.94-.9689,13.76,13.76,0,0,0,4.4644-2.3225,4.8563,4.8563,0,0,0,1.5-1.9678,16.0114,16.0114,0,0,0,.4729-2.48,25.8216,25.8216,0,0,0,.14-5.0657,17.098,17.098,0,0,0-1.0493-4.911,10.9565,10.9565,0,0,0-2.7241-4.1125,10.27,10.27,0,0,0-4.3324-2.2984,13.8967,13.8967,0,0,0-4.9441-.383,14.733,14.733,0,0,0-8.9295,4.0826,11.8246,11.8246,0,0,0-2.7273,4.2008A13.6915,13.6915,0,0,0,.3654,40.4589ZM.3032,40.46a13.3453,13.3453,0,0,1,3.3409-9.4612,14.262,14.262,0,0,1,9.1544-4.4442,14.2739,14.2739,0,0,1,5.1786.3868,10.8914,10.8914,0,0,1,4.5659,2.4968A10.994,10.994,0,0,1,25.33,33.81a17.5282,17.5282,0,0,1,.9471,5.0633A26.4472,26.4472,0,0,1,26,43.9925a15.9562,15.9562,0,0,1-.5105,2.521,5.4376,5.4376,0,0,1-1.56,2.05,15.35,15.35,0,0,1-4.4879,2.4734A19.6875,19.6875,0,0,1,14.4291,52.21a15.07,15.07,0,0,1-9.7848-2.8082,10.7978,10.7978,0,0,1-3.2307-3.9753A11.84,11.84,0,0,1,.3032,40.46Z"/><path class="cls-2" d="M2.7925,40.7778C4.1545,55.6912,23.05,54.1284,26.186,45.2766c1.4648-4.1335,1.0518-11.3051-3.14-15.1748C16.9237,24.4492,1.5982,27.6694,2.7925,40.7778Z"/><path class="cls-3" d="M2.8235,40.775a13.8437,13.8437,0,0,0,1.2449,4.65A10.6089,10.6089,0,0,0,7.0358,49.138a13.0232,13.0232,0,0,0,8.9528,2.5383,12.5138,12.5138,0,0,0,8.5492-3.8093,8.67,8.67,0,0,0,1.9937-4.3032,17.023,17.023,0,0,0,.1639-4.7958,13.2383,13.2383,0,0,0-3.8817-8.4725,9.8782,9.8782,0,0,0-4.1478-2.1247,13.6151,13.6151,0,0,0-4.7052-.3407,13.0782,13.0782,0,0,0-8.3885,4.0055,10.4355,10.4355,0,0,0-2.32,4.1478A13.179,13.179,0,0,0,2.8235,40.775Zm-.062.0057a12.3453,12.3453,0,0,1,2.512-9.2032,12.7369,12.7369,0,0,1,8.623-4.3827,14.0793,14.0793,0,0,1,4.9346.34,10.5008,10.5008,0,0,1,4.3846,2.3209A11.3013,11.3013,0,0,1,25.9766,33.95a16.1727,16.1727,0,0,1,1.0887,4.7842,17.2421,17.2421,0,0,1-.3061,4.875,10.9725,10.9725,0,0,1-.7358,2.3352,9.0431,9.0431,0,0,1-1.336,2.0527,13.3284,13.3284,0,0,1-8.6587,4.1721,13.7,13.7,0,0,1-4.9065-.41,11.25,11.25,0,0,1-4.3473-2.3073A12.668,12.668,0,0,1,2.7615,40.7807Z"/><path class="cls-3" d="M10.688,29.7a10.1336,10.1336,0,0,0-4.7409,6.4437,13.7221,13.7221,0,0,0,.35,7.9995,8.7414,8.7414,0,0,0,5.6848,5.399,10.9494,10.9494,0,0,0,4.0713.3515A12.5661,12.5661,0,0,0,20.039,48.98a8.7438,8.7438,0,0,0,3.304-2.2845,7.1131,7.1131,0,0,0,1.6409-3.5922,13.793,13.793,0,0,0,.1277-4.041,14.2676,14.2676,0,0,0-.9621-3.9218,10.3573,10.3573,0,0,0-5.4757-5.6428A10.1167,10.1167,0,0,0,10.688,29.7Zm-.0273-.0559a11.5637,11.5637,0,0,1,4.0133-1.0433,9.9059,9.9059,0,0,1,4.1482.5127,10.1454,10.1454,0,0,1,5.92,5.7808,14.5965,14.5965,0,0,1,.8158,8.321,7.3288,7.3288,0,0,1-1.8632,3.7984,9.134,9.134,0,0,1-3.5341,2.2759,14.1368,14.1368,0,0,1-4.0925.8177,12.8581,12.8581,0,0,1-4.1474-.352,9.1993,9.1993,0,0,1-3.6755-1.9817A9.4965,9.4965,0,0,1,5.816,44.3363a11.0155,11.0155,0,0,1-.8189-4.138,13.2166,13.2166,0,0,1,.582-4.16,11.3743,11.3743,0,0,1,1.9423-3.6955A9.93,9.93,0,0,1,10.6607,29.6439Z"/><path class="cls-3" d="M12.58,33.52a7.6745,7.6745,0,0,0-2.7585,4.2262,9.3532,9.3532,0,0,0,.2433,4.9761,5.9,5.9,0,0,0,1.2262,2.1665A4.5066,4.5066,0,0,0,13.43,46.1806a7.38,7.38,0,0,0,2.5512.1691,8.2906,8.2906,0,0,0,2.4931-.5366,4.5014,4.5014,0,0,0,1.953-1.4812,5.1285,5.1285,0,0,0,.8758-2.2841,10.1079,10.1079,0,0,0-.5223-4.9511,6.6628,6.6628,0,0,0-3.2462-3.6224A5.8418,5.8418,0,0,0,12.58,33.52Zm-.0324-.0531a6.68,6.68,0,0,1,5.1447-.371,6.4227,6.4227,0,0,1,3.6844,3.766,9.7975,9.7975,0,0,1,.5033,5.2853A5.3732,5.3732,0,0,1,20.82,44.6344a4.7137,4.7137,0,0,1-2.2259,1.5,9.868,9.868,0,0,1-2.6006.4342,9.4606,9.4606,0,0,1-2.6185-.18,5.4,5.4,0,0,1-2.3279-1.2553A6.1362,6.1362,0,0,1,9.58,42.8964a8.01,8.01,0,0,1-.1332-5.2607A9.134,9.134,0,0,1,12.5479,33.4672Z"/><path class="cls-3" d="M11.1908,26.6631a3.2215,3.2215,0,0,1-.2439-1.48l.0184-.2284.1691-.0252c.2382-.0355.4892-.03.7281-.063a2.0531,2.0531,0,0,0,.6735-.2423l.1433-.0815.0453.2209a5.6528,5.6528,0,0,1,.147.8842,4.7383,4.7383,0,0,1,.03.8841l-.0312.3128-.2658.0086A4.4407,4.4407,0,0,1,11.1908,26.6631Zm.0422-.0456a10.6252,10.6252,0,0,1,1.32-.407l-.2968.3212a4.7212,4.7212,0,0,1,.03-.8841,5.6294,5.6294,0,0,1,.147-.8842l.1884.1394a2.0507,2.0507,0,0,0-.6933.177c-.2166.1066-.4211.2521-.6383.3563l.1871-.2533A4.369,4.369,0,0,1,11.233,26.6175Z"/><path class="cls-3" d="M9.3538,22.8294a.513.513,0,0,0,.4972.5463c.2528.0183.5006-.0019.7809,0a3.0993,3.0993,0,0,0,.8814-.0767,1.09,1.09,0,0,0,.6711-.4663c.0208-.1107-.0178-.0445-.0893-.1033a1.674,1.674,0,0,0-.3381-.108,5.0048,5.0048,0,0,0-.818-.0555c-.2834-.011-.5643-.0031-.8587-.03C9.8125,22.5216,9.4176,22.5321,9.3538,22.8294Zm-.0619-.0043a.62.62,0,0,1,.271-.4086,2.4308,2.4308,0,0,1,.42-.2791,2.1088,2.1088,0,0,1,.9524-.2353,2.7272,2.7272,0,0,1,.99.1586,1.3432,1.3432,0,0,1,.4826.2794.573.573,0,0,1,.18.333.4468.4468,0,0,1-.1261.3561,3.2374,3.2374,0,0,1-.8783.4581,6.4639,6.4639,0,0,1-.8784.4,1.1846,1.1846,0,0,1-1.0145-.1559A1,1,0,0,1,9.2919,22.8251Z"/><path class="cls-3" d="M9.354,23.2444a1.7579,1.7579,0,0,0,.435,1.2027,1.7267,1.7267,0,0,0,.9887.4979,2.931,2.931,0,0,0,1.2771-.01,1.3086,1.3086,0,0,0,.8618-.8583.9875.9875,0,0,0-.2173-.9913,2.5248,2.5248,0,0,0-1.089-.3283,11.7056,11.7056,0,0,0-1.2711-.0961,1.7216,1.7216,0,0,0-.6275.1035A.531.531,0,0,0,9.354,23.2444Zm-.0621,0a.7871.7871,0,0,1,.3285-.6224,2.4034,2.4034,0,0,1,.6389-.3619,3.1115,3.1115,0,0,1,1.432-.1608,2.3847,2.3847,0,0,1,1.4238.5752,1.29,1.29,0,0,1,.1126,1.541,2.2992,2.2992,0,0,1-1.103.9092,4.0831,4.0831,0,0,1-1.397.3355,1.357,1.357,0,0,1-1.27-.8072A3.7761,3.7761,0,0,1,9.2919,23.2443Z"/><path class="cls-3" d="M7.3639,35.2575c.6253.2972,1.2142.6471,1.8037.9959.5805.3619,1.1569.73,1.7073,1.1354.5459.412,1.0643.8641,1.6016,1.2888a16.7014,16.7014,0,0,0,1.6975,1.15l-.1939.1813c-.4419-.6428-.8978-1.2772-1.3184-1.9326-.4122-.66-.8458-1.3081-1.2377-1.9806-.3973-.6692-.7625-1.3576-1.1222-2.0492s-.6994-1.3952-1.0057-2.1186l.0535-.0318c.4894.6146.9441,1.25,1.3815,1.8951.4359.6464.8664,1.2959,1.2646,1.9645.4036.6655.766,1.3557,1.15,2.0331.3747.6826.7148,1.3859,1.0684,2.0812l.2873.5644-.4812-.3831a16.7145,16.7145,0,0,0-1.6777-1.1784c-.5879-.3512-1.1946-.6752-1.7737-1.0391-.5747-.37-1.1235-.7785-1.668-1.1925-.5355-.4271-1.0719-.8532-1.5717-1.332Z"/><path class="cls-3" d="M6.3674,38.5264a4.9869,4.9869,0,0,1,1.9565.1753c.3093.11.6091.2649.9228.3537a4.1226,4.1226,0,0,0,.9693.1311,10.788,10.788,0,0,1,1.9431.24,7.769,7.769,0,0,1,1.8487.6924l-.0127.0609a7.7645,7.7645,0,0,1-1.9715-.1041,10.7878,10.7878,0,0,1-1.8771-.5561,4.1225,4.1225,0,0,0-.9409-.267c-.323-.044-.66-.0217-.9872-.0445a4.9894,4.9894,0,0,1-1.8638-.621Z"/><path class="cls-3" d="M8.27,46.4568a4.4024,4.4024,0,0,1,1.3136-1.2929c.269-.15.5662-.2635.822-.4307a3.6275,3.6275,0,0,0,.6838-.6111,9.4874,9.4874,0,0,1,1.3539-1.24,6.8574,6.8574,0,0,1,1.6348-.8736l.0378.0494a6.8642,6.8642,0,0,1-1.2694,1.3507,9.486,9.486,0,0,1-1.55.984,3.6288,3.6288,0,0,0-.7682.501c-.2281.2035-.415.4608-.63.6815a4.4032,4.4032,0,0,1-1.59.9314Z"/><path class="cls-3" d="M10.8789,48.5059a4.3878,4.3878,0,0,1,.8034-1.655c.2031-.231.4448-.4367.63-.6794a3.621,3.621,0,0,0,.4389-.8034,9.4637,9.4637,0,0,1,.8589-1.6189,6.8424,6.8424,0,0,1,1.2463-1.3672l.0522.0338a6.8258,6.8258,0,0,1-.7423,1.6947,9.4713,9.4713,0,0,1-1.13,1.4431,3.616,3.616,0,0,0-.5555.7277c-.1465.2676-.2362.572-.3647.8515a4.3842,4.3842,0,0,1-1.1853,1.407Z"/><path class="cls-3" d="M15.4653,42.4032a4.133,4.133,0,0,1-.017,1.7847c-.0846.2861-.2148.5659-.2779.855a3.405,3.405,0,0,0-.0526.8863,8.8994,8.8994,0,0,1-.0828,1.7755,6.4432,6.4432,0,0,1-.54,1.7122l-.0616-.0085a6.4493,6.4493,0,0,1-.055-1.7946,8.9156,8.9156,0,0,1,.4026-1.7314,3.4,3.4,0,0,0,.19-.8672c.0178-.2953-.0314-.6-.035-.8984a4.13,4.13,0,0,1,.4682-1.7221Z"/><path class="cls-3" d="M17.0556,42.0183A4.4445,4.4445,0,0,1,18.12,43.5338c.1046.2913.1684.6043.2921.8854a3.6665,3.6665,0,0,0,.4931.7787,9.5754,9.5754,0,0,1,1.0057,1.5466,6.9176,6.9176,0,0,1,.5981,1.7637l-.0548.0292a6.9168,6.9168,0,0,1-1.1288-1.4813,9.5718,9.5718,0,0,1-.7208-1.6983,3.6679,3.6679,0,0,0-.37-.8438c-.1639-.26-.3878-.4876-.571-.7371a4.4392,4.4392,0,0,1-.6624-1.7294Z"/><path class="cls-3" d="M17.7244,41.4839a4.2352,4.2352,0,0,1,1.5682.9113c.2156.22.4043.4783.6314.68a3.5348,3.5348,0,0,0,.7605.4934,9.2807,9.2807,0,0,1,1.5377.971,6.7523,6.7523,0,0,1,1.2613,1.3411l-.0378.0494a6.7088,6.7088,0,0,1-1.6172-.8568,9.3682,9.3682,0,0,1-1.3411-1.227,3.5771,3.5771,0,0,0-.6786-.6056c-.2528-.1643-.5437-.2726-.8081-.4185a4.4225,4.4225,0,0,1-1.31-1.2867Z"/><path class="cls-3" d="M17.7159,40.7479a4.4309,4.4309,0,0,1,1.828.2777c.2823.1257.5522.2958.84.4006a3.6487,3.6487,0,0,0,.9021.1817,9.57,9.57,0,0,1,1.81.3416,6.9065,6.9065,0,0,1,1.685.7863l-.0168.06a6.906,6.906,0,0,1-1.8478-.2077,9.5692,9.5692,0,0,1-1.7228-.6523A3.6409,3.6409,0,0,0,20.33,41.62c-.3006-.0609-.6194-.0565-.9259-.0965a4.428,4.428,0,0,1-1.7047-.7162Z"/><path class="cls-1" d="M16.99,39.0337c-.8008-1.3279-1.46-2.4951-2.0344-3.671a15.6506,15.6506,0,0,1-.7028-1.7946,14.5071,14.5071,0,0,0-.7441-1.8428l.2467-.0616c.05.6884.1569,1.3735.2573,2.059.1093.685.1828,1.3721.2413,2.06a36.2824,36.2824,0,0,1,.2128,4.1352l-.4778-.3338C14.8908,39.3727,15.8562,39.2537,16.99,39.0337Zm.0755.034c-.82.3722-1.8087.8454-2.8613,1.2263l-.4182.1513-.06-.4853a36.2792,36.2792,0,0,1-.2577-4.1326c-.02-.69-.0247-1.3811.0063-2.0741.022-.6924.0508-1.3853.022-2.0749l-.0293-.7006.2763.6391a16.2015,16.2015,0,0,0,.9565,1.847,19.4215,19.4215,0,0,1,.9979,1.8953A32.5314,32.5314,0,0,1,17.0659,39.0677Z"/><path class="cls-3" d="M21.3827,31.9276c-.266.6524-.5864,1.2716-.9069,1.8911-.333.6115-.6736,1.2186-1.054,1.8017-.3873.5787-.8154,1.1328-1.2126,1.7056a17.2124,17.2124,0,0,0-1.0613,1.7972l-.2625.5124.0032-.5962c.0038-.7064-.004-1.4138.0277-2.1179.0393-.7035.0567-1.4089.12-2.1105.0585-.7019.1532-1.401.2532-2.1.1028-.6984.2247-1.3953.3871-2.089l.0619.0051c.0492.7106.0577,1.418.0474,2.1239-.013.7056-.0318,1.4109-.0865,2.1132-.05.7027-.1457,1.4016-.22,2.1024-.0816.7-.2026,1.3971-.3119,2.095l-.2594-.0838a17.1524,17.1524,0,0,0,1.1025-1.7724c.3243-.617.6174-1.2528.9514-1.864.3411-.6067.7218-1.19,1.11-1.7678.401-.57.8018-1.141,1.2573-1.6785Z"/><path class="cls-3" d="M23.0906,34.8626a4.7116,4.7116,0,0,1-1.3735,1.326c-.2785.1553-.5852.2739-.8508.4464a3.9,3.9,0,0,0-.7135.6276,10.1957,10.1957,0,0,1-1.4134,1.2732,7.3468,7.3468,0,0,1-1.6925.9049l-.0374-.05a7.3438,7.3438,0,0,1,1.3293-1.3841,10.1964,10.1964,0,0,1,1.6085-1.0159,3.8983,3.8983,0,0,0,.7974-.517c.2378-.209.435-.4719.66-.6981a4.7162,4.7162,0,0,1,1.6486-.9631Z"/><path class="cls-1" d="M12.4664,31.34a2.1934,2.1934,0,0,1-.2219-.9559,1.29,1.29,0,0,1,.0629-.4855c.03-.081.0612-.1618.1027-.2477a.7816.7816,0,0,1,.0915-.15.248.248,0,0,1,.0726-.061.167.167,0,0,1,.1519-.005.5048.5048,0,0,1,.07.0581,2.5831,2.5831,0,0,0,.7735.5763,5.2837,5.2837,0,0,1,.7731.5639l-.56.2363a3.8435,3.8435,0,0,1,.299-1.6219h.0622a3.8466,3.8466,0,0,1,.299,1.6219l-.0241.8919-.5367-.6556a6.4284,6.4284,0,0,1-.59-.74,1.7084,1.7084,0,0,0-.6369-.6758c-.0079-.0026-.0393-.0139-.0293-.0041a.1318.1318,0,0,0,.1283-.0194c.01.001.0069.041.0111.07l.0272.2176a1.6057,1.6057,0,0,1-.0067.4553,2.7629,2.7629,0,0,1-.2571.93Z"/><path class="cls-1" d="M6.565,41.5535a2.7853,2.7853,0,0,1,.4153.7017,2.3752,2.3752,0,0,1,.2114.7581l-.4577-.0467c.1241-.1519.2591-.2984.3781-.4529a1.97,1.97,0,0,0,.2638-.5117l.0565-.1624.14.1513c.1413.1523.2946.2967.444.4436a5.78,5.78,0,0,1,.3969.4747l-.5629.17a4.0934,4.0934,0,0,1,.017-1.0466,4.4433,4.4433,0,0,1,.2591-1.0464h.0621a4.4384,4.4384,0,0,1,.2591,1.0464,4.0934,4.0934,0,0,1,.017,1.0466l-.1238.9783-.4393-.8085a5.8211,5.8211,0,0,1-.283-.55c-.0773-.1947-.151-.392-.2364-.5813l.1967-.0112a1.9684,1.9684,0,0,0-.26.5134c-.0555.187-.0951.3822-.1455.5719l-.1454.5468-.3123-.5934a2.3752,2.3752,0,0,1-.2075-.7593A2.795,2.795,0,0,1,6.505,41.57Z"/><path class="cls-1" d="M23.78,37.983a1.6189,1.6189,0,0,1-.9423.245l.2759-.2759a2.6264,2.6264,0,0,1-.1464.4968.9329.9329,0,0,0-.0052.497c.0388.1656.11.3313.14.4969.0292.1656.0423.3313.0644.4969l-.2747-.3244a2.4082,2.4082,0,0,1,1.2059.5036l-.01.0613a2.4089,2.4089,0,0,1-1.3041.0841l-.3093-.0652.0344-.2594c.0221-.1656.0352-.3313.0644-.4969.0308-.1656.1014-.3313.14-.4969a.9339.9339,0,0,0-.0053-.497,2.6187,2.6187,0,0,1-.1463-.4968L22.54,37.68l.2974-.0042a1.6181,1.6181,0,0,1,.9423.2449Z"/><path class="cls-1" d="M23.9285,39.2389c-.0909.2142-.1818.2758-.2729.2277-.0454-.0445-.0909-.1351-.1365-.158s-.0908.0153-.1362.07a.3407.3407,0,0,1-.2729.1614c-.0911-.0263-.1819-.1043-.2728-.3006v-.0621c.0909-.1962.1817-.2743.2728-.3a.34.34,0,0,1,.2729.1613c.0454.0541.0909.0931.1362.0694s.0911-.1134.1365-.158c.0911-.048.182.0137.2729.2278Z"/><path class="cls-1" d="M17.68,47.4379c-.1672-.0907-.3524-.1684-.3875-.1263-.0083.021.0083.0235-.0206.0477a.9355.9355,0,0,1-.1354.1342c-.12.0893-.279.1865-.3189.3292-.0425.1524.0828.24.22.2113a.8485.8485,0,0,1,.61.1732.6855.6855,0,0,1,.2939.79.7129.7129,0,0,1-1.2457.074l.0328-.0529a.9646.9646,0,0,0,.4548-.1056c.09-.0509.1816-.1708.1357-.1447-.0083.0594.02-.03-.0618-.1255a1.2959,1.2959,0,0,0-.3152-.282.5877.5877,0,0,1-.3255-.5585,1.5761,1.5761,0,0,1,.1008-.613.6727.6727,0,0,1,.2069-.2575.5209.5209,0,0,1,.4634-.0925.5393.5393,0,0,1,.3476.5709Z"/><path class="cls-2" d="M17.7075,40.7778a1.933,1.933,0,0,1-1.8048,2.0406,2.0567,2.0567,0,0,1,0-4.0827A1.9339,1.9339,0,0,1,17.7075,40.7778Z"/><path class="cls-3" d="M17.7386,40.7779A2.9646,2.9646,0,0,1,17.3657,42.3a1.5977,1.5977,0,0,1-1.4639.7769,1.9657,1.9657,0,0,1-1.3909-.8385,2.9283,2.9283,0,0,1-.5842-1.4621,2.1789,2.1789,0,0,1,.438-1.5844,1.9294,1.9294,0,0,1,1.5385-.788,1.7359,1.7359,0,0,1,1.47.8451A2.963,2.963,0,0,1,17.7386,40.7779Zm-.0621,0a1.6726,1.6726,0,0,0-.6175-1.2669,1.7885,1.7885,0,0,0-1.156-.4437,1.5161,1.5161,0,0,0-1.0889.4993,2.2776,2.2776,0,0,0-.5469,1.21,1.69,1.69,0,0,0,.3987,1.3329,1.4548,1.4548,0,0,0,1.2361.45,2.1281,2.1281,0,0,0,1.1637-.5092A1.6739,1.6739,0,0,0,17.6765,40.7779Z"/><path class="cls-3" d="M.4625,91.8565A10.6344,10.6344,0,0,0,1.18,95.9059a3.2548,3.2548,0,0,0,1.4443,1.4,2.14,2.14,0,0,0,1.0142.1646c.1749-.008.3184-.0655.5382-.0981a2.2825,2.2825,0,0,1,.5986.0136,5.07,5.07,0,0,1,2.0876.8636,2.8541,2.8541,0,0,0,1.8182.3268,3.417,3.417,0,0,0,.4766-.091,3.8527,3.8527,0,0,1,.5836-.1116,4.12,4.12,0,0,1,1.1789.0316,7.75,7.75,0,0,1,1.0909.2854,4.8108,4.8108,0,0,0,1.04.2023l.0069.0827a3.1871,3.1871,0,0,1-1.13.1261c-.36-.0335-.7186-.0461-1.0615-.0457a4.6,4.6,0,0,0-.9927.11c-.16.0405-.3185.0814-.477.1345a4.3167,4.3167,0,0,1-.585.15,3.2531,3.2531,0,0,1-2.3581-.5372,7.4062,7.4062,0,0,0-1.78-1.0851A2.226,2.226,0,0,0,3.65,97.7514a3.5425,3.5425,0,0,1-1.12-.1941A4.1921,4.1921,0,0,1,.6077,96.2909,3.7639,3.7639,0,0,1,0,94.0427a6.4746,6.4746,0,0,1,.3808-2.2Z"/><path class="cls-3" d="M12.8378,96.4022a20.17,20.17,0,0,1-7.71-.886A15.8391,15.8391,0,0,1,3.2965,94.83a7.7542,7.7542,0,0,1-1.7212-.9915,3.0073,3.0073,0,0,1-1.0919-1.66A6.5731,6.5731,0,0,1,.2848,90.21a6.74,6.74,0,0,1,1.38-3.7241A4.0521,4.0521,0,0,1,3.3231,85.187a2.7164,2.7164,0,0,1,.5483-.1508l.463-.0759c.3055-.0568.6117-.1223.9182-.2,1.2259-.306,2.4492-.7064,3.6791-1.0868l1.8537-.5592c.6152-.1894,1.2629-.3438,1.8154-.5536a15.64,15.64,0,0,0,5.9-4.5253,16.5739,16.5739,0,0,0,3.5077-6.6192c.6563-2.4353.3128-5.0362.33-7.6148-.0079-.6458-.0144-1.2922.0168-1.9471a6.58,6.58,0,0,1,.1144-.9961,1.4177,1.4177,0,0,1,.571-.9568,1.9384,1.9384,0,0,1,1.06-.1947,7.2033,7.2033,0,0,1,.9927.1,3.3894,3.3894,0,0,1,.9739.3242,1.2354,1.2354,0,0,1,.7012.8763l-.2326-.1794a21.7856,21.7856,0,0,1,3.5221-.3637,14.153,14.153,0,0,1,3.5237.3155A5.7957,5.7957,0,0,1,36.67,62.4557a4.59,4.59,0,0,1,1.185,3.2618l-.083.0007a4.4652,4.4652,0,0,0-1.2184-3.1535A5.5979,5.5979,0,0,0,33.53,61.01a13.8842,13.8842,0,0,0-3.4617-.2334,22.2706,22.2706,0,0,0-3.4514.4275l-.198.04-.0348-.22a.923.923,0,0,0-.5069-.5422,3.0054,3.0054,0,0,0-.856-.2679,3.3494,3.3494,0,0,0-1.745.063c-.3915.2588-.4154.9988-.4488,1.5981-.02.6321-.0048,1.2741.0128,1.9158l.13,3.861a14.0155,14.0155,0,0,1-.3179,3.9172,17.3149,17.3149,0,0,1-3.5149,6.995A16.4034,16.4034,0,0,1,12.91,83.368c-.6523.2477-1.262.39-1.8759.5828l-1.8431.564c-1.233.3719-2.4646.7583-3.7413,1.0641-.3186.0771-.6431.1433-.9713.2006l-.4911.0744a1.896,1.896,0,0,0-.3852.09A3.5613,3.5613,0,0,0,2.21,86.9452a6.5738,6.5738,0,0,0-1.57,3.3c-.15,1.2038.0382,2.661,1.1287,3.3342a13.3764,13.3764,0,0,0,3.5553,1.2593,50.931,50.931,0,0,0,7.5141,1.4808Z"/><path class="cls-3" d="M5.9115,85.6461a5.3825,5.3825,0,0,0,2.7067,3.4547,10.5348,10.5348,0,0,0,4.3694,1.0006,15.6089,15.6089,0,0,0,4.5917-.2721,10.7061,10.7061,0,0,0,4.168-1.9512,13.0617,13.0617,0,0,0,3.0427-3.41,29.849,29.849,0,0,0,2.24-4.0327,28.938,28.938,0,0,0,1.6429-4.3017,10.0074,10.0074,0,0,0,.3929-2.2292,1.8419,1.8419,0,0,0-.0571-.5171.5078.5078,0,0,0-.0893-.1817.1775.1775,0,0,0-.0554-.0469l-.1282-.0514a4.044,4.044,0,0,0-1.1131-.2546l-.0083-.0825a3.5429,3.5429,0,0,1,1.2044.0317l.1529.0309a.5257.5257,0,0,1,.1937.103.7952.7952,0,0,1,.2174.3111,2.2258,2.2258,0,0,1,.1453.6332,8.3993,8.3993,0,0,1-.1935,2.41,20.3141,20.3141,0,0,1-1.501,4.5193,24.7044,24.7044,0,0,1-2.4281,4.09,15.5189,15.5189,0,0,1-1.5518,1.8216,12.2086,12.2086,0,0,1-1.8814,1.4778,16.1828,16.1828,0,0,1-4.3158,1.9244,15.2326,15.2326,0,0,1-4.7.6963,11.9849,11.9849,0,0,1-2.3828-.2827A6.9647,6.9647,0,0,1,8.3008,89.64a5.169,5.169,0,0,1-2.4719-3.9869Z"/><path class="cls-3" d="M11.5682,83.8151c.3186,1.4814,1.266,2.9593,2.717,3.15a6.13,6.13,0,0,0,4.2791-.5977,10.308,10.308,0,0,0,3.2868-3.0854,10.2037,10.2037,0,0,0,.6284-.9747,9.8544,9.8544,0,0,0,.5522-1.0218,21.1253,21.1253,0,0,0,.9466-2.123,29.5444,29.5444,0,0,0,1.3338-4.4154,26.3923,26.3923,0,0,0,.5356-4.5574,15.3735,15.3735,0,0,1,.254-2.3851c.19-.7673.38-1.4963.5061-2.2569a15.53,15.53,0,0,0,.27-2.2761,4.9176,4.9176,0,0,0-.333-2.2289l.0628-.0541a4.4637,4.4637,0,0,1,.6953,2.2712,12.5159,12.5159,0,0,1-.0461,2.379c-.0767.7843-.2273,1.5766-.3626,2.3316a17.9822,17.9822,0,0,0-.16,2.263A21.1575,21.1575,0,0,1,24.36,79.3315c-.7032,1.4009-1.4364,2.78-2.2619,4.1146a10.4163,10.4163,0,0,1-3.1717,3.5469,5.2358,5.2358,0,0,1-2.3423.7769,7.3412,7.3412,0,0,1-2.4186-.2211,3.3014,3.3014,0,0,1-1.9965-1.4452,4.879,4.879,0,0,1-.6832-2.2807Z"/><path class="cls-1" d="M15.9955,86.1661a.539.539,0,0,0-.4314.0657.2754.2754,0,0,0-.115.304c.0154.116.0551.1815.0747.3626a2.08,2.08,0,0,1-.0089.4745,4.128,4.128,0,0,0-.1249.9277c.0152.2952.233.6014.4253.5462a.9208.9208,0,0,0,.2937-.1426.2651.2651,0,0,0,.1266-.1666,3.0467,3.0467,0,0,0-.0211-.7025,3.1982,3.1982,0,0,1,.047-.9225C16.3145,86.6391,16.2989,86.2422,15.9955,86.1661Zm.0119-.0821a1.3877,1.3877,0,0,1,.7859.7057,2.6238,2.6238,0,0,1,.301.9554,1.8284,1.8284,0,0,1-.1672,1.161.9167.9167,0,0,1-.5853.4215,1.0809,1.0809,0,0,1-.6338-.04.7894.7894,0,0,1-.4216-.4452,4.5017,4.5017,0,0,1-.16-.4888c-.0873-.3173-.2385-.6361-.3013-.958a2.1346,2.1346,0,0,1-.036-.4732,1.1668,1.1668,0,0,1,.1656-.5733.6941.6941,0,0,1,.5468-.3208A1.9066,1.9066,0,0,1,16.0074,86.084Z"/><path class="cls-1" d="M19.1475,85.4263a.5384.5384,0,0,0-.3057.3111.2749.2749,0,0,0,.09.312c.0822.0835.1531.1119.2777.2454a2.092,2.092,0,0,1,.2774.3851,4.13,4.13,0,0,0,.4554.8176c.1891.2273.547.3416.6674.182a.922.922,0,0,0,.15-.2905.263.263,0,0,0,.0015-.209,3.0559,3.0559,0,0,0-.4381-.5494,3.1979,3.1979,0,0,1-.5154-.7667C19.6864,85.6133,19.436,85.3047,19.1475,85.4263Zm-.04-.0729a1.3837,1.3837,0,0,1,1.0518.0936,2.6236,2.6236,0,0,1,.8134.5841,1.8287,1.8287,0,0,1,.5625,1.0291.9154.9154,0,0,1-.2157.6881,1.0825,1.0825,0,0,1-.5306.3483.79.79,0,0,1-.6047-.103,4.4853,4.4853,0,0,1-.4208-.2956c-.26-.2016-.5719-.3664-.815-.5863a2.1242,2.1242,0,0,1-.3123-.3572,1.1685,1.1685,0,0,1-.2114-.5576.6933.6933,0,0,1,.245-.5847A1.8994,1.8994,0,0,1,19.1078,85.3534Z"/><path class="cls-1" d="M22.0477,82.38a.6017.6017,0,0,0-.2883.3787.3158.3158,0,0,0,.1332.3358c.1.0846.1834.1131.3359.2385a2.4751,2.4751,0,0,1,.3564.3726,4.6013,4.6013,0,0,0,.6249.8022c.2393.2141.6395.2962.7622.1077a.9312.9312,0,0,0,.1334-.3384.3248.3248,0,0,0-.0249-.246,2.965,2.965,0,0,0-.5636-.5493,3.8806,3.8806,0,0,1-.6793-.741C22.6613,82.4942,22.3422,82.2064,22.0477,82.38Zm-.049-.0669a1.4549,1.4549,0,0,1,1.132-.0327,2.9994,2.9994,0,0,1,.95.52,1.9937,1.9937,0,0,1,.75,1.002.97.97,0,0,1-.12.7529,1.142,1.142,0,0,1-.5046.45.8389.8389,0,0,1-.6531-.0193,4.4058,4.4058,0,0,1-.4929-.2554c-.3073-.18-.6591-.32-.95-.5243a2.5054,2.5054,0,0,1-.3874-.34,1.2664,1.2664,0,0,1-.3109-.5537.738.738,0,0,1,.16-.6529A1.8893,1.8893,0,0,1,21.9987,82.3126Z"/><path class="cls-1" d="M24.9021,71.9261c-.1662.28-.0686.73.148.7636a2.94,2.94,0,0,0,.3136.0371,2.2663,2.2663,0,0,1,.4854.1371,3.6913,3.6913,0,0,0,.9127.3533c.3142.0456.6381-.1173.6454-.3669a1.0789,1.0789,0,0,0-.1425-.654,1.6069,1.6069,0,0,0-.6239-.1714,3.7919,3.7919,0,0,1-.9269-.2658C25.45,71.6456,25.0428,71.6155,24.9021,71.9261Zm-.0767-.0311a1.3512,1.3512,0,0,1,.879-.6815A2.7467,2.7467,0,0,1,26.77,71.15a2.3768,2.3768,0,0,1,.5679.1382,1.1433,1.1433,0,0,1,.5838.48,1.0675,1.0675,0,0,1,.1186.6978,1.4186,1.4186,0,0,1-.2243.5824.9.9,0,0,1-.5124.3617,2.8089,2.8089,0,0,1-.5453.0758,8.7907,8.7907,0,0,1-1.0648.05,2.4361,2.4361,0,0,1-.49-.092.9308.9308,0,0,1-.5578-.4148.7926.7926,0,0,1-.0274-.65A4.8316,4.8316,0,0,1,24.8254,71.895Z"/><path class="cls-1" d="M23.3864,79.2724a.76.76,0,0,0-.12.4909.3589.3589,0,0,0,.2265.3092c.1067.0447.2085.0349.3786.0808a2.6016,2.6016,0,0,1,.5016.1907,4.3493,4.3493,0,0,0,.9431.458,1.0077,1.0077,0,0,0,.484-.0135.4031.4031,0,0,0,.2654-.2772c.0453-.22-.0079-.6334-.1075-.68a2.0925,2.0925,0,0,0-.7144-.2633,4.3536,4.3536,0,0,1-.9664-.3725C24.0021,79.0522,23.5738,78.9637,23.3864,79.2724Zm-.0735-.0386A1.4287,1.4287,0,0,1,24.33,78.652a3.0989,3.0989,0,0,1,1.1259.057,1.75,1.75,0,0,1,1.1514.6819,1.0352,1.0352,0,0,1,.1225.7509,1.3462,1.3462,0,0,1-.2788.61.9134.9134,0,0,1-.5882.3111,3.6245,3.6245,0,0,1-.58.0055A10.783,10.783,0,0,1,24.1574,81a2.75,2.75,0,0,1-.5123-.1471,1.0932,1.0932,0,0,1-.546-.4281.8086.8086,0,0,1-.0435-.69A3.2249,3.2249,0,0,1,23.3129,79.2338Z"/><path class="cls-1" d="M24.0161,75.3628a.6314.6314,0,0,0-.0378.4518.2933.2933,0,0,0,.2546.2183c.1047.0165.1838-.0092.35.0091a2.1451,2.1451,0,0,1,.4727.11,3.9666,3.9666,0,0,0,.8978.3147c.3016.0406.6331-.1182.6234-.3385a1.0781,1.0781,0,0,0-.0664-.3478.31.31,0,0,0-.1293-.1965,2.3775,2.3775,0,0,0-.6656-.1313,3.3887,3.3887,0,0,1-.9087-.2328C24.5465,75.1138,24.1489,75.067,24.0161,75.3628Zm-.0779-.0283a1.36,1.36,0,0,1,.8506-.66,2.6683,2.6683,0,0,1,1.02-.1013,1.6661,1.6661,0,0,1,1.1352.4653.951.951,0,0,1,.2292.6792,1.2024,1.2024,0,0,1-.1836.6.8374.8374,0,0,1-.5118.3467,3.8753,3.8753,0,0,1-.523.071c-.3363.0236-.6873.1032-1.0221.0956a2.2489,2.2489,0,0,1-.4785-.0658,1.0442,1.0442,0,0,1-.5486-.318.7318.7318,0,0,1-.14-.6286A2.8517,2.8517,0,0,1,23.9382,75.3345Z"/><path class="cls-1" d="M25.6145,67.9885a.7271.7271,0,0,0-.047.485.3378.3378,0,0,0,.2585.26c.1067.0255.1984,0,.367.0213a2.4289,2.4289,0,0,1,.5049.1162,4.1388,4.1388,0,0,0,.96.3186.9538.9538,0,0,0,.4587-.0782.3827.3827,0,0,0,.2107-.3c.01-.2135-.0982-.6021-.1949-.6264a2.0907,2.0907,0,0,0-.7067-.15,4.0037,4.0037,0,0,1-.971-.2321C26.174,67.7,25.7523,67.6689,25.6145,67.9885Zm-.078-.0279a1.4,1.4,0,0,1,.8938-.7025,2.9227,2.9227,0,0,1,1.0858-.1025,1.6867,1.6867,0,0,1,1.2008.5075,1.01,1.01,0,0,1,.2148.71,1.3138,1.3138,0,0,1-.19.6237.8934.8934,0,0,1-.5253.378,3.5921,3.5921,0,0,1-.5551.0839,10.5765,10.5765,0,0,1-1.0868.0917,2.57,2.57,0,0,1-.5093-.0715,1.0559,1.0559,0,0,1-.583-.3441.7857.7857,0,0,1-.1273-.6607A3.298,3.298,0,0,1,25.5365,67.9606Z"/><path class="cls-1" d="M26.2546,64.8391c.0536.34.1745.6652.2846.6662a2.8073,2.8073,0,0,1,.7625.1078,3.0226,3.0226,0,0,0,.89.2676.4181.4181,0,0,0,.46-.4878c-.0228-.2458-.1334-.7146-.1469-.61.0145.0273-.0923-.01-.2338-.0125-.1391-.007-.2954-.025-.4555-.04-.3368-.0514-.6-.1167-.8656-.1427C26.6975,64.5795,26.4351,64.5535,26.2546,64.8391Zm-.082-.0124a.6065.6065,0,0,1,.1554-.5653,1.1888,1.1888,0,0,1,.5191-.3185,2.9947,2.9947,0,0,1,1.0522-.0931,3.9371,3.9371,0,0,1,.501.064,1.2239,1.2239,0,0,1,.6559.3116.8668.8668,0,0,1,.1868.7253,2.5654,2.5654,0,0,1-.1441.5243.9112.9112,0,0,1-.3587.48,1.4326,1.4326,0,0,1-.516.1926,6.4014,6.4014,0,0,1-1.0249.148,2.3179,2.3179,0,0,1-.47-.0466,1.025,1.025,0,0,1-.62-.2665.7574.7574,0,0,1-.1769-.6645A.9755.9755,0,0,1,26.1726,64.8267Z"/><path class="cls-3" d="M22.7965,62.2826c1.0617.729,2.0876,1.5036,3.1036,2.2913l.3781.2987.0237.0187.012.0093.0058.0047a.1862.1862,0,0,1,.0316.2315c-.1364.1205-.1326.0666-.1652.0884l-.1326.018-.2459.0213-.9658.0549c-.64.0327-1.287.0568-1.9133.1065-.0745.0059-.16.0138-.21.0237l.0057-.0018a.2234.2234,0,0,0,.1032-.085.253.253,0,0,0,.0355-.1419.2047.2047,0,0,0-.03-.0888l.002.0012.0047.0053.0723.0716.352.3113.732.6264a16.4843,16.4843,0,0,1,1.4263,1.3437,2.4551,2.4551,0,0,1,.322.4391.5131.5131,0,0,1,.0383.4759.3493.3493,0,0,1-.1275.1419.5663.5663,0,0,1-.111.0576l-.1119.044-.8954.3508-1.8.6777.1127-.4124q1.0378,1.329,2.0421,2.6845l.2565.3443-.4192.0086-2.744.0565.13-.2424c.6251,1.0978,1.2682,2.1845,1.9148,3.2691l.0985.1654-.19-.0047c-1.18-.029-2.361-.0322-3.5415-.0348l.0868-.17c.9668,1.3144,1.9656,2.6052,2.9506,3.9061l.299.3949-.4852-.1224-2.24-.5647-1.1194-.2889-.562-.1518-.1487-.045-.03-.0112-.0162-.0066-.0081-.0034c.0043-.0149-.0036.0426-.12-.1216a.2561.2561,0,0,1,.0872-.3082.226.226,0,0,1,.0782-.0348.2842.2842,0,0,1,.0643-.0036.2768.2768,0,0,1,.1389.0471c.0478.0357.0494.043.0494.043l.01.011.06.0762.1707.2486c.849,1.2991,1.6279,2.6212,2.4214,3.9437l.47.7828-.8478-.3519c-1.6429-.6819-3.2927-1.3478-4.9263-2.0519l.43-.4184L19.18,85.4175l.4524,1.1719-.935-.8309-3.8494-3.4207.3838-.2149.56,3.9509.0419.2958-.2447-.1391a3.9552,3.9552,0,0,1-.74-.5856c-.2208-.2106-.4311-.43-.6346-.654-.4069-.4488-.7872-.918-1.1569-1.3942l.048-.04c.3988.4505.8073.8923,1.2377,1.3093.2149.2084.4356.41.6635.6011a4.39,4.39,0,0,0,.7006.4968l-.2028.1566-.734-3.9222L14.65,81.56l.5034.4234,3.9413,3.3141-.4824.341-2.0109-5.09-.2812-.7118.7111.2932c1.6445.6785,3.2729,1.395,4.9081,2.0955l-.3779.4308c-.77-1.329-1.5413-2.6668-2.3239-3.978l-.1482-.2324-.0273-.0387-.0018-.003c-.0037-.0062-.0061-.002.0366.0305a.2182.2182,0,0,0,.1241.0367.2137.2137,0,0,0,.0573-.009.2427.2427,0,0,0,.08-.0324.2516.2516,0,0,0,.09-.305c-.1144-.1617-.12-.102-.1129-.1162h.001s-.0023,0,.0034.0016l.1261.0424.5474.1675,1.1061.3249,2.218.6381-.1863.2725c-.9451-1.33-1.8767-2.67-2.84-3.9869l-.1272-.1735.2142.0038c1.18.0212,2.3609.0417,3.5415.0364l-.0915.1606c-.6607-1.0763-1.3249-2.15-2.0073-3.2132l-.1447-.2252.2749-.0174,2.739-.1735-.1627.3529Q23.4752,70.918,22.43,69.5948l-.2215-.2817.3342-.1309,1.7954-.7032.9024-.34.1127-.0423c.033-.0107.0116-.009-.004.0032a.2441.2441,0,0,0-.0472.0566c-.0318.12-.0044.06-.0358.0194a2.0136,2.0136,0,0,0-.2439-.3374,16.1215,16.1215,0,0,0-1.3551-1.3169l-.7206-.6378-.3636-.3326-.0967-.1L22.453,65.41l-.0164-.0225a.2974.2974,0,0,1-.0419-.1163.2153.2153,0,0,1,.0386-.166.2665.2665,0,0,1,.129-.1l.0639-.0172a2.4217,2.4217,0,0,1,.2687-.0278c.6552-.0294,1.2925-.0239,1.9356-.0318l.9583-.0157.2344-.0108.1065-.01c.0054.0135.054-.0441-.0535.0535-.0692.0654.0039.2256.0306.2167l-.0057-.0049-.0113-.01-.0229-.0195-.3652-.3133c-.973-.8353-1.933-1.6906-2.9409-2.4819Z"/><path class="cls-3" d="M39.17,66.2438a1.39,1.39,0,0,1,.2793-1.4891.8881.8881,0,0,0-.0427-.75,4.1576,4.1576,0,0,1-.1649-.7028.687.687,0,0,0-.1365-.3539.4328.4328,0,0,0-.3769-.0487,1.5358,1.5358,0,0,0-1.07.7209l-.083.0008a1.04,1.04,0,0,1,.2182-.8362,1.8305,1.8305,0,0,1,.6917-.5792,1.1469,1.1469,0,0,1,1.0988.0238,1.2186,1.2186,0,0,1,.5236.974,1.8766,1.8766,0,0,1-.1423.8284,1.3452,1.3452,0,0,0-.2046.7735,1.158,1.158,0,0,1-.513,1.4673Z"/><path class="cls-3" d="M38.4859,65.9032c-.2233-.4594-.1962-.73.1678-.9915a.4125.4125,0,0,0-.0213-.4933,1.6189,1.6189,0,0,1-.1674-.4719c-.0072-.1288-.0666-.238-.0265-.2039.0217.0193.1008.0414.1067.0219.0095-.0154-.0322-.0223-.08-.0089a1.2865,1.2865,0,0,0-.6977.4859l-.0828.0005a1.06,1.06,0,0,1,.4231-1.1293.8673.8673,0,0,1,.402-.1619.6843.6843,0,0,1,.5631.2053,1.0219,1.0219,0,0,1,.26.7549,1.11,1.11,0,0,1-.1874.5478.5781.5781,0,0,0-.16.5173c.2344.4061.0593.789-.4227.9587Z"/><path class="cls-3" d="M13.2147,97.5651a9.56,9.56,0,0,0,.1221,3.089,2.7415,2.7415,0,0,0,.6638,1.3107,3.7731,3.7731,0,0,0,1.1894.8768,2.5017,2.5017,0,0,0,1.3984.2073,2.74,2.74,0,0,1,1.684.2095,5.9977,5.9977,0,0,1,.7379.3775c.2423.1418.4583.3079.6546.4136a2.659,2.659,0,0,0,1.3318.3476,7.4289,7.4289,0,0,0,1.4724-.2779,4.7821,4.7821,0,0,1,1.6782.034c.2611.0437.5441.1211.769.1663a3.5919,3.5919,0,0,0,.72.0532,7.67,7.67,0,0,0,1.5057-.1895,4.7078,4.7078,0,0,0,1.4142-.5171,1.5786,1.5786,0,0,1,.8287-.2094,6.3658,6.3658,0,0,1,.802.0259,18.2931,18.2931,0,0,0,3.095.2053,2.0829,2.0829,0,0,0,1.1708-.7962,7.5853,7.5853,0,0,1,.5348-.6144,1.2315,1.2315,0,0,1,.4193-.2593,1.6013,1.6013,0,0,1,.4722-.0583,3.6746,3.6746,0,0,0,1.4239-.09.7884.7884,0,0,0,.3949-.3818,6.3005,6.3005,0,0,1,.4312-.7093,4.5785,4.5785,0,0,1,2.7741-1.8725,2.5072,2.5072,0,0,1,1.8328.1719,5.81,5.81,0,0,1,.6583.51.6727.6727,0,0,0,.4627.1635,1.16,1.16,0,0,0,.9579-.512.8065.8065,0,0,0,.0962-.1845.0244.0244,0,0,0,0,.0151.996.996,0,0,1,.02-.1477.6607.6607,0,0,1,.1265-.25.867.867,0,0,1,.3053-.2336,1.1534,1.1534,0,0,1,.62-.1084.59.59,0,0,1,.2982.12.5074.5074,0,0,1,.1755.2668l.0128.058a.5266.5266,0,0,0,.0257.0954c.0176.0233-.0008.02.0429.0407a.5222.5222,0,0,0,.2255.0208,1.7839,1.7839,0,0,0,.597-.1475.8255.8255,0,0,0,.3639-.4031c.0537-.103.0782-.2053.1854-.3947a.5449.5449,0,0,1,.1689-.1786.4707.4707,0,0,1,.3245-.0753.6071.6071,0,0,1,.367.2005c.2232.2825.3283.43.3672.4157a1.01,1.01,0,0,0,.2579-.052,1.9315,1.9315,0,0,0,.3206-.118,1.0163,1.0163,0,0,0,.632-1.0186,22.8121,22.8121,0,0,0-.1273-3.1219l.0787-.0261a6.218,6.218,0,0,1,.319,1.5566l.17,1.56a1.5834,1.5834,0,0,1-.1486.8989,1.6511,1.6511,0,0,1-.6514.6574,2.4989,2.4989,0,0,1-.401.1889,1.2458,1.2458,0,0,1-.5059.1062c-.5206-.0731-.67-.4919-.7925-.5742-.0285-.031-.0271-.0045.0352.0071a.2358.2358,0,0,0,.18-.0653l-.1259.3254a1.577,1.577,0,0,1-.64.7673,2.46,2.46,0,0,1-.9022.2859,1.3124,1.3124,0,0,1-.5517-.0376.88.88,0,0,1-.5378-.4533,1.26,1.26,0,0,1-.0945-.2774l-.0094-.0376a.3512.3512,0,0,0,.1183.19c.0957.0647.1038.05.1153.0562a.4982.4982,0,0,0-.1412.0393c-.0221.01-.0268.0237-.0061,0a.1989.1989,0,0,0,.037-.0772.163.163,0,0,0,.0063-.05l-.01.1127a1.4288,1.4288,0,0,1-.22.5285,1.9818,1.9818,0,0,1-1.6919.9174,1.5778,1.5778,0,0,1-.989-.3457c-.2557-.2007-.4081-.3625-.5721-.4636a1.687,1.687,0,0,0-1.22-.1111,3.8572,3.8572,0,0,0-2.3559,1.496,5.5808,5.5808,0,0,0-.4158.6117,1.4629,1.4629,0,0,1-.75.645,3.7105,3.7105,0,0,1-1.686.03.657.657,0,0,0-.56.1411,6.512,6.512,0,0,0-.5338.5352,2.4355,2.4355,0,0,1-1.44.8264,23.4392,23.4392,0,0,1-3.1585-.2608,2.4413,2.4413,0,0,0-1.4346.1848,5.5924,5.5924,0,0,1-1.4773.6765,7.9828,7.9828,0,0,1-1.5863.3331,4.1833,4.1833,0,0,1-.8463.0043l-.7775-.1069a4.7,4.7,0,0,0-1.4486.0147c-.2439.04-.4411.1118-.7417.1874a3.6093,3.6093,0,0,1-.8668.0849,3.3621,3.3621,0,0,1-1.6595-.4874c-.2585-.1543-.4529-.3175-.66-.4456a5.3494,5.3494,0,0,0-.6482-.3584,2.1585,2.1585,0,0,0-1.3634-.2755,2.975,2.975,0,0,1-1.6564-.31,3.9166,3.9166,0,0,1-1.2755-1.0336,3.0868,3.0868,0,0,1-.6618-1.4949,9.0043,9.0043,0,0,1,.069-3.1623Z"/><path class="cls-3" d="M39.3539,66.6923a19.9922,19.9922,0,0,1,3.837-.4861,12.4242,12.4242,0,0,1,3.9027.4152,5.234,5.234,0,0,1,3.1451,2.3964,6.22,6.22,0,0,1,.5008,3.9553c-.1794,1.3128-.5324,2.5676-.7816,3.8272a26.1586,26.1586,0,0,0-.4761,3.8079,37.626,37.626,0,0,0-.002,3.85,22.4209,22.4209,0,0,0,.4224,3.8034,12.4029,12.4029,0,0,1,.3656,3.9617,3.9311,3.9311,0,0,1-.73,1.9508,3.181,3.181,0,0,1-1.7612,1.1216c-1.29.2922-2.5487.5464-3.8388.76-.6417.11-1.2881.1983-1.9362.2738l-.9713.0931a1.1574,1.1574,0,0,0-.8075.2686c-.4465.4362-.905.9238-1.3892,1.3581A11.23,11.23,0,0,1,37.2359,99.2a21,21,0,0,1-3.5411,1.6606,25.0774,25.0774,0,0,1-7.6732,1.3952,27.6823,27.6823,0,0,1-7.76-.9862,15.9855,15.9855,0,0,1-3.7282-1.37,3.25,3.25,0,0,1-1.4076-1.6008,5.6207,5.6207,0,0,1-.3087-2.0568,6.9912,6.9912,0,0,1,1.373-3.8272,4.6365,4.6365,0,0,1,1.5879-1.396,3.1767,3.1767,0,0,1,1.05-.3054c.3062-.0454.6152-.1129.9233-.182,1.2346-.293,2.4665-.693,3.7038-1.0781l3.7091-1.1119a15.3037,15.3037,0,0,0,5.9882-4.4772,16.6642,16.6642,0,0,0,3.6053-6.6322,13.6034,13.6034,0,0,0,.43-3.7781l-.0516-3.89c-.0026-.65-.0129-1.3.0281-1.9566a6.8889,6.8889,0,0,1,.1237-.99,1.3938,1.3938,0,0,1,.5278-.9133,1.7583,1.7583,0,0,1,1.0157-.184,6.5814,6.5814,0,0,1,.9808.1111,3.1723,3.1723,0,0,1,.9381.3239A1.0794,1.0794,0,0,1,39.3539,66.6923Zm-.0508.0656a1.0561,1.0561,0,0,0-.6136-.69,3.03,3.03,0,0,0-.907-.2652,6.3959,6.3959,0,0,0-.9547-.0626,1.5444,1.5444,0,0,0-.8628.1845,1.1244,1.1244,0,0,0-.37.7534,6.5755,6.5755,0,0,0-.0719.9434c-.0089.64.0065,1.2866.0288,1.933l.15,3.8874A14.23,14.23,0,0,1,35.359,77.38a17.3621,17.3621,0,0,1-3.5733,7.02,16.0952,16.0952,0,0,1-6.333,4.7571c-2.538.736-4.93,1.5733-7.5153,2.1925-.3251.0694-.651.1371-.9867.1835a2.3063,2.3063,0,0,0-.8115.22,3.845,3.845,0,0,0-1.3135,1.1429,6.2263,6.2263,0,0,0-1.2543,3.3753,5.2489,5.2489,0,0,0,.2275,1.7742,2.5437,2.5437,0,0,0,1.0917,1.283,15.5626,15.5626,0,0,0,3.5257,1.38,27.3783,27.3783,0,0,0,7.599,1.1518,22.9522,22.9522,0,0,0,7.5892-1.2539,17.6944,17.6944,0,0,0,3.4913-1.6348,10.9637,10.9637,0,0,0,1.5409-1.1383c.4759-.4378.9-.9026,1.3753-1.3773a1.1308,1.1308,0,0,1,.4791-.2794,3.6379,3.6379,0,0,1,.5049-.08l.9623-.1162c.6375-.0941,1.2735-.2007,1.9065-.3291,1.262-.2474,2.5381-.5478,3.7684-.8645a2.619,2.619,0,0,0,1.4344-.9643,3.3227,3.3227,0,0,0,.5587-1.6694,12.9027,12.9027,0,0,0-.4168-3.7461,29.5975,29.5975,0,0,1-.4281-7.8418,26.8614,26.8614,0,0,1,.5346-3.8994c.2763-1.2795.6207-2.529.8348-3.7817a5.6988,5.6988,0,0,0-.3364-3.6371A4.7945,4.7945,0,0,0,46.9786,66.98a12.1308,12.1308,0,0,0-3.7846-.5438A23.8663,23.8663,0,0,0,39.3031,66.7579Z"/><path class="cls-3" d="M18.6653,91.3553A5.38,5.38,0,0,0,21.3718,94.81a10.5285,10.5285,0,0,0,4.3688,1.0009,15.6112,15.6112,0,0,0,4.5915-.2719A10.7055,10.7055,0,0,0,34.5,93.5876a13.0624,13.0624,0,0,0,3.0421-3.41,29.8508,29.8508,0,0,0,2.2394-4.0326,28.9343,28.9343,0,0,0,1.6431-4.3013,10.0021,10.0021,0,0,0,.3934-2.229,1.8428,1.8428,0,0,0-.0565-.5172.5094.5094,0,0,0-.0893-.1817.1763.1763,0,0,0-.0555-.0468l-.1281-.0516a4.0761,4.0761,0,0,0-1.1129-.2562l-.0081-.0825a3.5624,3.5624,0,0,1,1.2042.0333l.153.031a.5265.5265,0,0,1,.1936.1031.7952.7952,0,0,1,.2172.3113,2.2315,2.2315,0,0,1,.1449.6332A8.4035,8.4035,0,0,1,42.0861,82a20.3216,20.3216,0,0,1-1.5012,4.5189,24.6941,24.6941,0,0,1-2.4276,4.0893A15.4654,15.4654,0,0,1,36.6055,92.43a12.1686,12.1686,0,0,1-1.8809,1.4778,16.1831,16.1831,0,0,1-4.3154,1.9244,15.2321,15.2321,0,0,1-4.7.6961,11.9684,11.9684,0,0,1-2.3826-.2828,6.9621,6.9621,0,0,1-2.272-.8965,5.1675,5.1675,0,0,1-2.4717-3.9865Z"/><path class="cls-3" d="M24.322,89.5236c.3174,1.4819,1.265,2.9594,2.7166,3.15a6.1261,6.1261,0,0,0,4.2787-.5969,10.307,10.307,0,0,0,3.287-3.0852,10.19,10.19,0,0,0,.6284-.9747,9.8677,9.8677,0,0,0,.5524-1.0219,21.1807,21.1807,0,0,0,.9465-2.1229,29.5874,29.5874,0,0,0,1.3334-4.4155,26.411,26.411,0,0,0,.5359-4.5574,15.3506,15.3506,0,0,1,.2546-2.385c.19-.7672.3794-1.4962.5053-2.2568a15.5158,15.5158,0,0,0,.27-2.2762,4.92,4.92,0,0,0-.3334-2.2289l.063-.0541a4.4694,4.4694,0,0,1,.6955,2.2712,12.5315,12.5315,0,0,1-.0455,2.3789c-.0765.7843-.2269,1.5766-.362,2.3318a17.9433,17.9433,0,0,0-.16,2.2629,21.173,21.173,0,0,1-2.3747,9.098c-.7034,1.4008-1.4366,2.78-2.2621,4.1144a10.4184,10.4184,0,0,1-3.1719,3.5468,5.234,5.234,0,0,1-2.3421.7768,7.335,7.335,0,0,1-2.4186-.2218,3.3007,3.3007,0,0,1-1.9967-1.4448,4.8655,4.8655,0,0,1-.6822-2.2809Z"/><path class="cls-1" d="M28.7493,91.8745a.54.54,0,0,0-.4316.0661.2765.2765,0,0,0-.116.3043c.0154.1163.0545.181.0745.3618a2.0878,2.0878,0,0,1-.0085.4746,4.157,4.157,0,0,0-.1249.9282c.0152.2954.233.6015.4255.5466a.9142.9142,0,0,0,.2937-.1425.2642.2642,0,0,0,.127-.1669,3.02,3.02,0,0,0-.0211-.7021,3.1909,3.1909,0,0,1,.0468-.9233C29.0679,92.3478,29.0529,91.95,28.7493,91.8745Zm.0119-.0819a1.3825,1.3825,0,0,1,.7852.7064,2.6291,2.6291,0,0,1,.3013.9552,1.8255,1.8255,0,0,1-.1674,1.1617.9174.9174,0,0,1-.5853.4211,1.0806,1.0806,0,0,1-.6342-.04.7909.7909,0,0,1-.4216-.4453,4.4516,4.4516,0,0,1-.16-.489c-.0873-.3174-.2385-.6363-.3015-.9581a2.146,2.146,0,0,1-.0364-.4732,1.1614,1.1614,0,0,1,.1664-.5744.6957.6957,0,0,1,.5472-.32A1.9094,1.9094,0,0,1,28.7612,91.7926Z"/><path class="cls-1" d="M31.9005,91.1348a.5387.5387,0,0,0-.3057.3113.2754.2754,0,0,0,.09.3124c.0818.0836.1526.1121.2771.2454a2.0926,2.0926,0,0,1,.2774.385,4.1309,4.1309,0,0,0,.456.8174c.1893.2272.5472.3415.668.1822a.9252.9252,0,0,0,.15-.29.2644.2644,0,0,0,.0015-.2092,3.0412,3.0412,0,0,0-.4381-.55,3.2075,3.2075,0,0,1-.5156-.7665C32.4394,91.3221,32.189,91.0133,31.9005,91.1348Zm-.04-.0729a1.3843,1.3843,0,0,1,1.0518.0939,2.6214,2.6214,0,0,1,.8138.5841,1.8294,1.8294,0,0,1,.5623,1.0295.9171.9171,0,0,1-.2159.6882,1.0823,1.0823,0,0,1-.531.3482.79.79,0,0,1-.6045-.1035,4.4724,4.4724,0,0,1-.4212-.2953c-.26-.2016-.5721-.3662-.8154-.5862a2.1229,2.1229,0,0,1-.3126-.3572,1.1641,1.1641,0,0,1-.2111-.5584.6942.6942,0,0,1,.2458-.5843A1.9088,1.9088,0,0,1,31.861,91.0619Z"/><path class="cls-1" d="M34.8009,88.088a.6022.6022,0,0,0-.2885.3789.3159.3159,0,0,0,.1332.3357c.0994.0845.1834.1129.3358.2383a2.471,2.471,0,0,1,.3565.3727,4.6064,4.6064,0,0,0,.6249.8021c.2393.2142.64.2967.7622.1084a.9276.9276,0,0,0,.1332-.3384.3275.3275,0,0,0-.0249-.2461,2.9671,2.9671,0,0,0-.5638-.55,3.8885,3.8885,0,0,1-.6789-.7412C35.4142,88.2029,35.0952,87.9148,34.8009,88.088Zm-.0492-.0668a1.4541,1.4541,0,0,1,1.1318-.0327,2.9988,2.9988,0,0,1,.95.52,1.9937,1.9937,0,0,1,.7494,1.0021.9712.9712,0,0,1-.12.7528,1.2424,1.2424,0,0,1-.2044.25.9965.9965,0,0,1-.3.2007.8378.8378,0,0,1-.6529-.02,4.44,4.44,0,0,1-.4929-.2555c-.3071-.1807-.6589-.32-.95-.5244a2.4955,2.4955,0,0,1-.3874-.34,1.2678,1.2678,0,0,1-.311-.5536.7377.7377,0,0,1,.16-.6529A1.8983,1.8983,0,0,1,34.7517,88.0212Z"/><path class="cls-1" d="M37.6551,77.6354c-.166.28-.068.7293.1486.7629a2.9793,2.9793,0,0,0,.314.037,2.26,2.26,0,0,1,.4854.1373,3.6811,3.6811,0,0,0,.9123.3534c.314.0455.6375-.1176.6444-.3673a1.0819,1.0819,0,0,0-.1429-.6541,1.6172,1.6172,0,0,0-.6241-.1709,3.7791,3.7791,0,0,1-.9263-.2661C38.2021,77.3541,37.7956,77.3247,37.6551,77.6354Zm-.0769-.0312a1.3511,1.3511,0,0,1,.8783-.6821,2.7428,2.7428,0,0,1,1.0652-.0633,2.3768,2.3768,0,0,1,.5676.1379,1.1412,1.1412,0,0,1,.5838.48,1.0637,1.0637,0,0,1,.1191.6978,1.4246,1.4246,0,0,1-.2237.5821.897.897,0,0,1-.5116.3624,2.78,2.78,0,0,1-.5453.0762,8.7688,8.7688,0,0,1-1.0646.05,2.4359,2.4359,0,0,1-.49-.0922.932.932,0,0,1-.5576-.4141.7927.7927,0,0,1-.0284-.65A4.8733,4.8733,0,0,1,37.5782,77.6042Z"/><path class="cls-1" d="M36.14,84.9807a.7617.7617,0,0,0-.12.4909.358.358,0,0,0,.2261.3091c.1065.0447.2081.0343.379.0807a2.6007,2.6007,0,0,1,.5012.1912,4.3417,4.3417,0,0,0,.9429.4581,1.0068,1.0068,0,0,0,.4838-.0135.405.405,0,0,0,.2664-.2769c.0457-.22-.0081-.6323-.1075-.68a2.0946,2.0946,0,0,0-.7144-.2631,4.3305,4.3305,0,0,1-.9668-.3731C36.7557,84.7608,36.3274,84.6716,36.14,84.9807Zm-.0735-.0384a1.4235,1.4235,0,0,1,1.017-.5809,3.11,3.11,0,0,1,1.1253.0575,1.75,1.75,0,0,1,1.1512.6818,1.0353,1.0353,0,0,1,.1224.7507,1.3361,1.3361,0,0,1-.2793.6106.9152.9152,0,0,1-.5887.31,3.6229,3.6229,0,0,1-.58.0055A10.7591,10.7591,0,0,1,36.91,86.708a2.7533,2.7533,0,0,1-.5122-.1475,1.0947,1.0947,0,0,1-.5457-.4278.8074.8074,0,0,1-.0429-.69A3.2382,3.2382,0,0,1,36.0667,84.9423Z"/><path class="cls-1" d="M36.7691,81.072a.6317.6317,0,0,0-.0379.4517.2931.2931,0,0,0,.2549.2179c.1047.0164.1838-.0094.3514.0092a2.1536,2.1536,0,0,1,.4723.1108,3.9369,3.9369,0,0,0,.8973.3147.8858.8858,0,0,0,.43-.0678.3331.3331,0,0,0,.1931-.2713,1.0742,1.0742,0,0,0-.0666-.3477.3089.3089,0,0,0-.13-.1964,2.3764,2.3764,0,0,0-.6658-.1314,3.3908,3.3908,0,0,1-.9087-.2332C37.2991,80.822,36.9017,80.776,36.7691,81.072Zm-.0779-.0283a1.357,1.357,0,0,1,.85-.66,2.6707,2.6707,0,0,1,1.02-.1009,1.6672,1.6672,0,0,1,1.135.4649.9514.9514,0,0,1,.23.679,1.2019,1.2019,0,0,1-.1832.6.8387.8387,0,0,1-.5114.3472,3.8419,3.8419,0,0,1-.523.0714c-.3363.0238-.6875.1034-1.0223.0956a2.2427,2.2427,0,0,1-.4787-.0665,1.0473,1.0473,0,0,1-.548-.3175.7309.7309,0,0,1-.1409-.6283A2.8338,2.8338,0,0,1,36.6912,81.0437Z"/><path class="cls-1" d="M38.3675,73.6978a.7249.7249,0,0,0-.0468.4851.3384.3384,0,0,0,.2589.26c.1069.0257.199.0011.3666.0218a2.412,2.412,0,0,1,.5047.1159,4.1429,4.1429,0,0,0,.96.318A.9547.9547,0,0,0,40.87,74.82a.3828.3828,0,0,0,.21-.3c.01-.2135-.0986-.6018-.1955-.6261a2.0918,2.0918,0,0,0-.7071-.15,3.9894,3.9894,0,0,1-.9711-.2322C38.9264,73.4077,38.5047,73.3775,38.3675,73.6978Zm-.0782-.028a1.3958,1.3958,0,0,1,.8931-.7033,2.9262,2.9262,0,0,1,1.0861-.1023,1.6875,1.6875,0,0,1,1.2006.5073,1.01,1.01,0,0,1,.2156.71,1.3172,1.3172,0,0,1-.19.6239.8931.8931,0,0,1-.5251.3784,3.5846,3.5846,0,0,1-.5551.0841,10.5271,10.5271,0,0,1-1.0868.0923,2.5688,2.5688,0,0,1-.51-.0711,1.0542,1.0542,0,0,1-.583-.3449.7871.7871,0,0,1-.1275-.66A3.3191,3.3191,0,0,1,38.2893,73.67Z"/><path class="cls-1" d="M39.0075,70.5476c.0539.34.1741.6647.2853.667a2.7979,2.7979,0,0,1,.7611.1081,3.0273,3.0273,0,0,0,.8905.2676.418.418,0,0,0,.46-.488c-.0229-.2455-.1328-.7154-.1461-.6106.0147.028-.0915-.0092-.233-.012-.1391-.0069-.2956-.0248-.4555-.04-.3371-.0514-.6006-.1166-.866-.1427C39.4509,70.2887,39.1883,70.2623,39.0075,70.5476Zm-.0819-.0126a.6063.6063,0,0,1,.1562-.565,1.1916,1.1916,0,0,1,.5191-.318,3,3,0,0,1,1.052-.093,3.9559,3.9559,0,0,1,.5008.0639,1.2219,1.2219,0,0,1,.6567.3124.8676.8676,0,0,1,.185.7254,2.5969,2.5969,0,0,1-.1443.5239.9107.9107,0,0,1-.3587.48,1.4333,1.4333,0,0,1-.516.1927,6.4376,6.4376,0,0,1-1.0247.1479,2.3359,2.3359,0,0,1-.47-.0463,1.0189,1.0189,0,0,1-.6208-.2684.7593.7593,0,0,1-.1759-.6641A.9762.9762,0,0,1,38.9256,70.535Z"/><path class="cls-3" d="M35.55,67.9911c1.0613.73,2.0876,1.5045,3.1038,2.2922l.3779.2986.0237.0186.0118.0094.0058.0047c.0373,0,.0978.1761.0276.2376-.131.11-.13.0625-.1616.0822l-.1324.0177-.2459.0213-.966.0547c-.64.0324-1.2872.0564-1.9136.1059-.0745.006-.16.0138-.21.0237l.0061-.002c-.029.0126.0862-.03.11-.0964a.25.25,0,0,0,.0284-.1372c-.029-.1078-.0347-.0794-.0276-.0808l.0049.0057.0725.0716.352.3114.732.6267a16.4445,16.4445,0,0,1,1.4263,1.3441,2.4481,2.4481,0,0,1,.322.4395.5142.5142,0,0,1,.0373.4764.35.35,0,0,1-.1276.1413.574.574,0,0,1-.1105.0574l-.1119.044-.8958.3508-1.8.6776.1128-.4124q1.0378,1.3292,2.0421,2.6846l.2565.3444-.4193.0085-2.7439.0558.13-.2425c.6253,1.0981,1.2686,2.185,1.9156,3.27l.0985.1654-.19-.0047c-1.18-.0293-2.361-.0327-3.5415-.0356l.087-.17c.9668,1.3148,1.9656,2.6062,2.9506,3.9076l.299.395-.4852-.1225-2.2395-.5653-1.1192-.2891-.562-.1517-.1485-.0448-.03-.0109-.016-.0065-.0081-.0034c-.0069-.009.0192.0242-.0759-.0546a.258.258,0,0,1-.01-.33.219.219,0,0,1,.1854-.085.2785.2785,0,0,1,.14.0427.2339.2339,0,0,1,.0563.0473l.01.0111.06.0762.17.2486c.8488,1.2991,1.6278,2.6209,2.4213,3.9432l.47.783-.8479-.3521c-1.6432-.6822-3.2933-1.3483-4.9271-2.0526l.43-.4185,1.9729,5.108.4524,1.1717-.935-.8307L27.6,88.0478l.3838-.2148.56,3.9493.0419.2961L28.34,91.939a3.9694,3.9694,0,0,1-.74-.5861c-.2206-.2107-.4308-.43-.6342-.6544-.4067-.4488-.787-.9179-1.1567-1.3941l.048-.04c.3988.4505.8073.8923,1.2374,1.3094.215.2084.4357.4106.6634.6015a4.387,4.387,0,0,0,.7.4972l-.203.1567-.734-3.9207-.1195-.6383.5035.4233,3.9421,3.3141-.4824.341-2.0126-5.0924-.2811-.712.7111.2935c1.6447.6786,3.2735,1.3955,4.9089,2.0961l-.378.4308c-.77-1.3288-1.5412-2.6664-2.3236-3.9775l-.1482-.2324-.0271-.0387-.0019-.003a.3963.3963,0,0,0,.0434.0352.2178.2178,0,0,0,.1255.032.2458.2458,0,0,0,.0587-.0109.2243.2243,0,0,0,.123-.0753.2534.2534,0,0,0-.0068-.3264c-.0934-.076-.0646-.0418-.0685-.05H32.09s-.0027,0,.004.0018l.1265.0425.5474.1674,1.1059.3251,2.2176.6387-.1863.2725c-.9453-1.3307-1.8769-2.6713-2.84-3.9885l-.1272-.1737.2142.004c1.18.0214,2.3609.0422,3.5415.0372l-.0915.16c-.6609-1.0764-1.3255-2.1506-2.0081-3.2138l-.1447-.2253.2749-.0173,2.739-.1726-.1627.3527q-1.0725-1.302-2.1178-2.6252l-.2215-.2817.3342-.1309,1.7955-.7031.9025-.34.1129-.0422c.0328-.0107.0126-.0093-.0036.0029a.2435.2435,0,0,0-.047.0561c-.0324.1192-.0044.06-.0358.02a2.0054,2.0054,0,0,0-.2435-.3374,16.11,16.11,0,0,0-1.3551-1.3173L35.7,71.5929l-.3636-.3329-.0966-.1-.0329-.0412c-.0055-.0171-.0245-.0037-.0579-.1316a.2152.2152,0,0,1,.03-.1621.2761.2761,0,0,1,.1358-.1113l.0642-.0174a2.4526,2.4526,0,0,1,.2688-.0277c.6553-.0291,1.2927-.0235,1.9359-.0312l.9585-.0155.2346-.0107.1067-.01c.006.0116.0518-.0393-.0492.048-.0707.0566-.01.2271.0265.2228l-.0057-.0049-.0113-.01-.0229-.02-.3656-.3134c-.9733-.8355-1.9334-1.6908-2.9409-2.483Z"/><path class="cls-3" d="M50.24,74.8228A10.458,10.458,0,0,1,51.2634,72.72a4.6592,4.6592,0,0,0,.64-.9837,2.8781,2.8781,0,0,0,.1815-1.1476c-.02-.3908-.0186-.7659-.0475-1.1361a1.5452,1.5452,0,0,0-.1672-.7814c-.0219-.0859-.3442-.1206-.6567.012a1.3908,1.3908,0,0,0-.8026.6452l-.083.0008a1.2871,1.2871,0,0,1,.5548-1.19,1.5789,1.5789,0,0,1,.6628-.3253,1.0423,1.0423,0,0,1,.8959.1991,1.2213,1.2213,0,0,1,.4051.7745,3.307,3.307,0,0,1-.0041.67,3.7616,3.7616,0,0,1-.2706,1.2211,12.1646,12.1646,0,0,0-.4209,1.1438c-.1214.3808-.1536.8047-.2828,1.1993a3.5908,3.5908,0,0,1-1.5676,1.8568Z"/><path class="cls-3" d="M50.049,73.46a3.6087,3.6087,0,0,1,.65-1.41,2.54,2.54,0,0,0,.5077-.5986,1.4577,1.4577,0,0,0,.105-.76c-.036-.262-.0461-.5047-.0631-.7438-.0213-.2336-.0674-.5138-.0666-.5023.0121.0287.1642.0489.1087.0149a.44.44,0,0,0-.2261.0554,1.2813,1.2813,0,0,0-.5429.4337l-.083.0006a.9856.9856,0,0,1,.2026-.91.9993.9993,0,0,1,.448-.34.6857.6857,0,0,1,.4162-.0239.7271.7271,0,0,1,.3888.2663,1.3517,1.3517,0,0,1,.1577,1.0334,2.2309,2.2309,0,0,1-.2583.8185,3.7441,3.7441,0,0,0-.3421.75c-.0874.2524-.0769.5557-.1585.8291a1.8824,1.8824,0,0,1-1.1852,1.1441Z"/></g></g></g></svg>