<svg xmlns="http://www.w3.org/2000/svg" viewBox="0 0 72.5764 74.8234"><defs><style>.cls-1{fill:#575756;}.cls-2{font-size:2.7426px;font-family:DBOffice-Regular, DB Office;}.cls-2,.cls-4{fill:#0087b9;}.cls-3{fill:#6d757b;}</style></defs><title>Element 13</title><g id="Ebene_2" data-name="Ebene 2"><g id="Ebene_1-2" data-name="Ebene 1"><g id="Illustrationen"><path class="cls-1" d="M16.5188,57.8176l-7.9743.2045c-2.6931.0584-5.4138.12-8.1382.1274l-.3621.001-.0024-.3653c-.0212-3.3865-.065-6.773-.0266-10.16C.0146,44.2392.119,40.8527.17,37.4663c.0752-3.3865.089-6.773.093-10.1595q-.0114-5.08-.1067-10.1595l-.0042-.2455.2547-.0048q8.04-.1528,16.08-.1921l.44-.0022.0026.4446c.02,3.4116.0534,6.8343.0259,10.2488-.0234,3.4122-.0116,6.8392-.0716,10.2345l-.1569,10.1581Zm-.0645-.0647-.2075-10.29L16.09,37.302c-.06-3.3777-.0483-6.7237-.0717-10.0845-.0274-3.3584.0058-6.7087.0259-10.07l.4424.4423q-8.04-.04-16.08-.1921l.25-.25Q.5653,22.227.55,27.3068c.004,3.3865.0178,6.773.093,10.1595.05,3.3864.1549,6.7729.1543,10.1594.0384,3.3865-.0054,6.773-.0266,10.16L.4063,57.421c2.6354.0075,5.2751.069,7.942.1274Z"/><path class="cls-1" d="M70.328,11.0446a11.34,11.34,0,0,1-2.9349,7.6676,10.017,10.017,0,0,1-3.474,2.4562,10.4993,10.4993,0,0,1-4.1935.8116,11.0566,11.0566,0,0,1-7.5767-3.3588,11.37,11.37,0,0,1-3.23-7.5766,10.6545,10.6545,0,0,1,3.0383-7.7688A10.8488,10.8488,0,0,1,59.7256,0a10.5075,10.5075,0,0,1,7.6773,3.3668A11.3414,11.3414,0,0,1,70.328,11.0446Zm-.0915,0a9.8847,9.8847,0,0,0-3.259-7.2521A10.7072,10.7072,0,0,0,59.7256.9754a10.3276,10.3276,0,0,0-7.1608,2.9085,10.5262,10.5262,0,0,0-3.1457,7.1607,9.8626,9.8626,0,0,0,2.9535,7.3528,10.1149,10.1149,0,0,0,7.353,2.8252,11.1348,11.1348,0,0,0,7.2617-2.9162A9.8866,9.8866,0,0,0,70.2365,11.0446Z"/><path class="cls-1" d="M70.328,37.567a11.34,11.34,0,0,1-2.9349,7.6675,10.0159,10.0159,0,0,1-3.474,2.4563,10.4993,10.4993,0,0,1-4.1935.8116,11.057,11.057,0,0,1-7.5767-3.3588,11.37,11.37,0,0,1-3.23-7.5766,10.6543,10.6543,0,0,1,3.0383-7.7688,10.8488,10.8488,0,0,1,7.7688-3.2755A10.5075,10.5075,0,0,1,67.4029,29.89,11.3414,11.3414,0,0,1,70.328,37.567Zm-.0915,0a9.8847,9.8847,0,0,0-3.259-7.2521,10.7073,10.7073,0,0,0-7.2519-2.8172,10.3285,10.3285,0,0,0-7.1608,2.9085,10.5267,10.5267,0,0,0-3.1457,7.1608A9.8626,9.8626,0,0,0,52.3726,44.92a10.1153,10.1153,0,0,0,7.353,2.8252,11.1348,11.1348,0,0,0,7.2617-2.9162A9.8866,9.8866,0,0,0,70.2365,37.567Z"/><path class="cls-1" d="M50.4444,24.7764A11.34,11.34,0,0,1,47.51,32.444,10.0163,10.0163,0,0,1,44.0355,34.9a10.4975,10.4975,0,0,1-4.1935.8115,11.0561,11.0561,0,0,1-7.5766-3.3587,11.37,11.37,0,0,1-3.23-7.5767,10.6543,10.6543,0,0,1,3.0383-7.7687,10.8484,10.8484,0,0,1,7.7688-3.2755,10.5072,10.5072,0,0,1,7.6773,3.3668A11.3413,11.3413,0,0,1,50.4444,24.7764Zm-.0915,0a9.8847,9.8847,0,0,0-3.259-7.252,10.7073,10.7073,0,0,0-7.2519-2.8172,10.3285,10.3285,0,0,0-7.1608,2.9085,10.5266,10.5266,0,0,0-3.1457,7.1607,9.8626,9.8626,0,0,0,2.9535,7.3529,10.1153,10.1153,0,0,0,7.353,2.8252,11.1348,11.1348,0,0,0,7.2617-2.9162A9.8868,9.8868,0,0,0,50.3529,24.7764Z"/><path class="cls-1" d="M50.4444,51.2988A11.34,11.34,0,0,1,47.51,58.9664a10.0163,10.0163,0,0,1-3.474,2.4563,10.4975,10.4975,0,0,1-4.1935.8115,11.0562,11.0562,0,0,1-7.5766-3.3588,11.37,11.37,0,0,1-3.23-7.5766A10.6543,10.6543,0,0,1,32.0732,43.53a10.8484,10.8484,0,0,1,7.7688-3.2755,10.5068,10.5068,0,0,1,7.6773,3.3668A11.3412,11.3412,0,0,1,50.4444,51.2988Zm-.0915,0a9.8845,9.8845,0,0,0-3.259-7.252A10.7073,10.7073,0,0,0,39.842,41.23a10.3285,10.3285,0,0,0-7.1608,2.9085,10.5266,10.5266,0,0,0-3.1457,7.1607,9.8623,9.8623,0,0,0,2.9535,7.3528,10.1145,10.1145,0,0,0,7.353,2.8252,11.1342,11.1342,0,0,0,7.2617-2.9161A9.8868,9.8868,0,0,0,50.3529,51.2988Z"/><path class="cls-1" d="M70.328,63.8879a11.34,11.34,0,0,1-2.9349,7.6676,10.0159,10.0159,0,0,1-3.474,2.4563,10.4993,10.4993,0,0,1-4.1935.8116,11.0566,11.0566,0,0,1-7.5767-3.3588,11.37,11.37,0,0,1-3.23-7.5767,10.6543,10.6543,0,0,1,3.0383-7.7687,10.8488,10.8488,0,0,1,7.7688-3.2755,10.5075,10.5075,0,0,1,7.6773,3.3668A11.3413,11.3413,0,0,1,70.328,63.8879Zm-.0915,0a9.8847,9.8847,0,0,0-3.259-7.252,10.7077,10.7077,0,0,0-7.2519-2.8171,10.3279,10.3279,0,0,0-7.1608,2.9084,10.5266,10.5266,0,0,0-3.1457,7.1607,9.8626,9.8626,0,0,0,2.9535,7.3529,10.1149,10.1149,0,0,0,7.353,2.8252A11.1348,11.1348,0,0,0,66.9873,71.15,9.8867,9.8867,0,0,0,70.2365,63.8879Z"/><text class="cls-2" transform="translate(4.1439 38.7572)">IDEEN</text><text class="cls-2" transform="translate(50.7768 11.3539)">HANDLUNGS<tspan x="5.1045" y="3.291">FELD</tspan></text><text class="cls-2" transform="translate(50.7768 37.2631)">HANDLUNGS<tspan x="5.1045" y="3.291">FELD</tspan></text><text class="cls-2" transform="translate(50.7768 63.391)">HANDLUNGS<tspan x="5.1045" y="3.291">FELD</tspan></text><text class="cls-2" transform="translate(31.2318 50.8539)">HANDLUNGS<tspan x="5.1045" y="3.291">FELD</tspan></text><text class="cls-2" transform="translate(31.2318 24.557)">HANDLUNGS<tspan x="5.1045" y="3.291">FELD</tspan></text><line class="cls-3" x1="47.9118" y1="37.567" x2="18.3149" y2="37.567"/><path class="cls-4" d="M47.9117,37.567c-2.4663.1413-4.9328.2076-7.3992.2625s-4.9328.0512-7.3992.08c-2.4663-.0269-4.9328-.0241-7.3993-.0787s-4.9327-.1213-7.3992-.2637c2.4665-.1425,4.933-.2085,7.3992-.2637s4.933-.0519,7.3993-.0788c2.4664.0287,4.9329.0235,7.3992.08C42.9789,37.3593,45.4454,37.4256,47.9117,37.567Z"/><path class="cls-4" d="M18.3148,35.2989a47.552,47.552,0,0,1,6.3181-.2511l1.5795.0945a2.9909,2.9909,0,0,0,1.4865-.21,1.2088,1.2088,0,0,0,.7709-1.1371,1.9471,1.9471,0,0,0-.1612-.7245,3.2239,3.2239,0,0,0-.3412-.6777,14.738,14.738,0,0,0-1.9846-2.3666,8.8286,8.8286,0,0,1-2.0534-2.5407,1.8993,1.8993,0,0,1,.1013-1.83,2.8244,2.8244,0,0,1,1.4436-.9764,8.444,8.444,0,0,1,3.1966-.3149l0,.0685a11.5167,11.5167,0,0,0-3.0024.7461,2.2555,2.2555,0,0,0-1.0811.8323,1.259,1.259,0,0,0,.017,1.1935,10.12,10.12,0,0,0,1.8493,2.3812,10.8428,10.8428,0,0,1,1.8454,2.6317,3.6442,3.6442,0,0,1,.4115,1.5844,1.5393,1.5393,0,0,1-.9137,1.33,3.9546,3.9546,0,0,1-1.5847.392l-1.5795.0945a47.5689,47.5689,0,0,1-6.3181-.2511Z"/><path class="cls-4" d="M18.3148,39.8915a47.5689,47.5689,0,0,1,6.3181-.2511l1.5795.0945a3.9546,3.9546,0,0,1,1.5847.392,1.5393,1.5393,0,0,1,.9137,1.33,3.6442,3.6442,0,0,1-.4115,1.5844,10.8428,10.8428,0,0,1-1.8454,2.6317,10.12,10.12,0,0,0-1.8493,2.3812,1.2592,1.2592,0,0,0-.017,1.1936,2.2561,2.2561,0,0,0,1.0811.8323,11.5206,11.5206,0,0,0,3.0024.746l0,.0686a8.4461,8.4461,0,0,1-3.1966-.315,2.8244,2.8244,0,0,1-1.4436-.9764,1.8993,1.8993,0,0,1-.1013-1.83,8.83,8.83,0,0,1,2.0534-2.5407,14.738,14.738,0,0,0,1.9846-2.3666,3.2239,3.2239,0,0,0,.3412-.6777,1.9471,1.9471,0,0,0,.1612-.7245,1.2088,1.2088,0,0,0-.7709-1.1371,2.992,2.992,0,0,0-1.4865-.21l-1.5795.0945a47.5688,47.5688,0,0,1-6.3181-.251Z"/><path class="cls-4" d="M18.3148,32.5508l1.65-.0822a5.1547,5.1547,0,0,0,1.5842-.2086,2.39,2.39,0,0,0,1.2316-.84,2.0974,2.0974,0,0,0,.3587-1.406,7.4139,7.4139,0,0,0-1.0167-2.97l-.8354-1.3929-.8753-1.4073A18.8965,18.8965,0,0,1,17.874,18.12a4.5229,4.5229,0,0,1,.6212-3.2423A6.5869,6.5869,0,0,1,21.08,12.7634a23.0136,23.0136,0,0,1,6.3841-1.852A61.1305,61.1305,0,0,1,34.05,10.19a121.2489,121.2489,0,0,1,13.2138-.0444v.0686c-4.3984.2181-8.79.3881-13.1667.6813-2.1863.1642-4.37.3475-6.5343.6536A26.348,26.348,0,0,0,21.24,13.1028a5.8758,5.8758,0,0,0-2.5451,1.91,3.9684,3.9684,0,0,0-.5863,3.0711A10.4051,10.4051,0,0,0,19.22,21.1314a31.861,31.861,0,0,0,1.6748,2.814c1.1434,1.8092,2.6172,3.68,2.77,6.0569a2.4462,2.4462,0,0,1-.5249,1.6922,2.7972,2.7972,0,0,1-1.4905.9107,4.7954,4.7954,0,0,1-1.6844.0965l-1.65-.0823Z"/><path class="cls-4" d="M18.3151,42.0941l1.65-.0823a4.7967,4.7967,0,0,1,1.6846.0965,2.7961,2.7961,0,0,1,1.49.9107,2.446,2.446,0,0,1,.5249,1.6922c-.1526,2.3771-1.6264,4.2477-2.77,6.0569a31.861,31.861,0,0,0-1.6748,2.814A10.404,10.404,0,0,0,18.1086,56.63a3.9681,3.9681,0,0,0,.5863,3.071,5.876,5.876,0,0,0,2.5451,1.91,26.348,26.348,0,0,0,6.3232,1.5542c2.164.3061,4.348.4894,6.5343.6536,4.3766.2931,8.7683.4631,13.1667.6813v.0686A121.2489,121.2489,0,0,1,34.05,64.524a61.1305,61.1305,0,0,1-6.5868-.7219A23.017,23.017,0,0,1,21.08,61.95a6.5886,6.5886,0,0,1-2.5843-2.1139,4.5229,4.5229,0,0,1-.6212-3.2423A18.8965,18.8965,0,0,1,20.4115,50.47l.8753-1.4073.8354-1.3929a7.4143,7.4143,0,0,0,1.0167-2.97,2.0977,2.0977,0,0,0-.3587-1.406,2.39,2.39,0,0,0-1.2316-.84,5.1539,5.1539,0,0,0-1.5842-.2086l-1.6493-.0823Z"/></g></g></g></svg>