<svg xmlns="http://www.w3.org/2000/svg" viewBox="0 0 71.443 74.1159"><defs><style>.cls-1{fill:#575756;}.cls-2{fill:#fff;}.cls-3{fill:#0087b9;}</style></defs><title>Element 36</title><g id="Ebene_2" data-name="Ebene 2"><g id="Ebene_1-2" data-name="Ebene 1"><g id="Illustrationen"><path class="cls-1" d="M71.4428,61.4545a6.7081,6.7081,0,0,1-.5245,2.6348,7.9081,7.9081,0,0,1-1.4841,2.2453,15.0434,15.0434,0,0,1-4.3866,3.0975,41.8961,41.8961,0,0,1-10.267,3.1919A101.1237,101.1237,0,0,1,33.3672,74.08,112.2554,112.2554,0,0,1,12.0385,71.876a33.9523,33.9523,0,0,1-5.1269-1.6426,13.7892,13.7892,0,0,1-4.5342-2.9485A8.7343,8.7343,0,0,1,.7926,65.0381,8.1516,8.1516,0,0,1,.052,62.3757a11.0284,11.0284,0,0,1,.9069-5.3946A22.9753,22.9753,0,0,1,7.6858,48.5a39.0925,39.0925,0,0,1,9.2634-5.6149,46.54,46.54,0,0,1,21.1753-3.8629,44.7689,44.7689,0,0,1,20.6091,6.0445,34.3434,34.3434,0,0,1,8.3516,6.778,21.0766,21.0766,0,0,1,3.03,4.4371A11.6893,11.6893,0,0,1,71.4428,61.4545Zm-.1356,0a11.3788,11.3788,0,0,0-1.369-5.0836,19.2076,19.2076,0,0,0-3.1249-4.2794,33.0785,33.0785,0,0,0-8.5058-6.264,48.9333,48.9333,0,0,0-20.2486-5.4124,47.9585,47.9585,0,0,0-10.4982.7014,45.9272,45.9272,0,0,0-10.1,2.9538,40.1393,40.1393,0,0,0-9.0787,5.2906A22.8632,22.8632,0,0,0,1.6889,57.3a10.219,10.219,0,0,0-1.0067,5.02,7.3552,7.3552,0,0,0,2.0524,4.6245,13.3365,13.3365,0,0,0,4.35,2.8909A26.5,26.5,0,0,0,12.14,71.4389a63.3,63.3,0,0,0,10.5647,1.34c3.5521.1925,7.1124.2319,10.6721.2009,3.5623.0107,7.1133-.0659,10.66-.2572,3.5456-.1826,7.0848-.4693,10.5963-.9655A40.8082,40.8082,0,0,0,64.8919,69.099a13.7642,13.7642,0,0,0,4.4043-2.8942A6.78,6.78,0,0,0,71.3072,61.4545Z"/><circle class="cls-2" cx="35.8527" cy="17.4842" r="16.9177"/><path class="cls-3" d="M52.7026,17.4842a15.5512,15.5512,0,0,0-1.3848-6.4059,16.5649,16.5649,0,0,0-3.8036-5.2557A17.8018,17.8018,0,0,0,35.8527,1.131,16.3533,16.3533,0,0,0,24.0455,5.6771a15.99,15.99,0,0,0-4.7393,11.8071,16.8761,16.8761,0,0,0,5.0349,11.5115,16.5814,16.5814,0,0,0,11.5116,4.6828A17.22,17.22,0,0,0,47.5,29.1312a16.4227,16.4227,0,0,0,3.8079-5.2454A15.6309,15.6309,0,0,0,52.7026,17.4842Zm.1356,0a18.0815,18.0815,0,0,1-4.7074,12.2782,16.4137,16.4137,0,0,1-5.5541,3.954,17.0764,17.0764,0,0,1-13.4686.05,17.646,17.646,0,0,1-5.6691-3.8682,17.0653,17.0653,0,0,1-4.8754-12.4137A18.2149,18.2149,0,0,1,29.2342,1.5065,17.275,17.275,0,0,1,35.8527.002,16.4026,16.4026,0,0,1,42.555,1.3043a16.1156,16.1156,0,0,1,5.5613,3.9163A18.08,18.08,0,0,1,52.8382,17.4842Z"/></g></g></g></svg>