<svg xmlns="http://www.w3.org/2000/svg" viewBox="0 0 77.914 92.193"><defs><style>.cls-1{fill:#575756;}.cls-2{fill:#0087b9;}</style></defs><title>Element 35</title><g id="Ebene_2" data-name="Ebene 2"><g id="Ebene_1-2" data-name="Ebene 1"><g id="Illustrationen"><path class="cls-1" d="M19.338,35.2666a5.2384,5.2384,0,0,1-1.2458,3.44,4.375,4.375,0,0,1-3.44,1.4943,4.966,4.966,0,0,1-3.3673-1.567,5.1974,5.1974,0,0,1-1.47-3.3672,4.7187,4.7187,0,0,1,1.3226-3.5151,4.8619,4.8619,0,0,1,3.515-1.4987A4.5876,4.5876,0,0,1,18.1,31.8193,5.24,5.24,0,0,1,19.338,35.2666Zm-.0677,0a4.1591,4.1591,0,0,0-1.4864-3.1317,4.8131,4.8131,0,0,0-3.1317-1.1586,4.4765,4.4765,0,0,0-3.0639,1.2264,4.6244,4.6244,0,0,0-1.4025,3.0639,4.19,4.19,0,0,0,1.2548,3.2117,4.3585,4.3585,0,0,0,3.2116,1.1581,5.14,5.14,0,0,0,3.139-1.2308A4.1617,4.1617,0,0,0,19.27,35.2666Z"/><path class="cls-1" d="M69.1866,35.2666a5.24,5.24,0,0,1-1.246,3.44,4.375,4.375,0,0,1-3.44,1.4943,4.9654,4.9654,0,0,1-3.3672-1.567,5.1966,5.1966,0,0,1-1.4705-3.3672,4.7188,4.7188,0,0,1,1.3227-3.5151,4.8619,4.8619,0,0,1,3.515-1.4987,4.5871,4.5871,0,0,1,3.4472,1.5664A5.2409,5.2409,0,0,1,69.1866,35.2666Zm-.0679,0a4.1591,4.1591,0,0,0-1.4864-3.1317,4.813,4.813,0,0,0-3.1316-1.1586,4.4773,4.4773,0,0,0-3.064,1.2264,4.6233,4.6233,0,0,0-1.4023,3.0639,4.1894,4.1894,0,0,0,1.2546,3.2117,4.3589,4.3589,0,0,0,3.2117,1.1581A5.14,5.14,0,0,0,67.64,38.4056,4.1617,4.1617,0,0,0,69.1187,35.2666Z"/><path class="cls-1" d="M61.6535,53.5508c.2617.1327.5182.2432.7724.3607.2611.1013.5131.23.7627.331l-.1739-.0217a32.9971,32.9971,0,0,1,3.7958-.4941,12.0753,12.0753,0,0,1,1.9413.0118c.68.0665,1.2776.2674,1.8835.38.6.1167,1.2025.1869,1.56-.1686a2.8089,2.8089,0,0,0,.7169-1.5371,29.36,29.36,0,0,0,.4474-3.7306c.088-1.252.1246-2.5266.09-3.7716a3.8313,3.8313,0,0,0-.51-1.7474,2.7271,2.7271,0,0,0-1.3974-1.1233,11.5961,11.5961,0,0,0-3.7191-.2728l-3.7928.0525V41.464l.4714-.007v.369l-3.725.0629-1.8611.0194-.923.0185a5.5788,5.5788,0,0,0-.8718.1183,3.0623,3.0623,0,0,0-1.4977.7476,2.8183,2.8183,0,0,0-.7742,1.4583,7.9634,7.9634,0,0,0-.106,1.7851c.0093.6206.004,1.2536-.0069,1.8635a28.0113,28.0113,0,0,0,.1972,3.6632,5.7446,5.7446,0,0,0,.4323,1.68,1.11,1.11,0,0,0,.1959.2819,1.2952,1.2952,0,0,0,.3009.1732,2.4536,2.4536,0,0,0,.7855.2028,6.0883,6.0883,0,0,0,3.311-1.0187,9.2094,9.2094,0,0,1,.87-.4575.8083.8083,0,0,1,.2012-.05l.1292-.0067a2.4978,2.4978,0,0,1,.2563-.0032,4.2465,4.2465,0,0,1,.5005.0388,7.3992,7.3992,0,0,1,1.8751.5371l-.3265.0441a3.1689,3.1689,0,0,0,1.0984-1.4033c.1448-.3714-.6543-.6457-1.2344-.7382a4.4765,4.4765,0,0,0-1.8908.1154,1.3168,1.3168,0,0,0-.1917.0787l-.0735.0507a.745.745,0,0,1-.1567.0968,1.9988,1.9988,0,0,1-.559.1467,7.9355,7.9355,0,0,1-1.0464.0577c-.6884,0-1.3694-.042-2.046-.08l-.502-.022-.1194,0-.0507.0026-.0164.0015a.2263.2263,0,0,1-.1478-.0219.3135.3135,0,0,1-.1391-.22,1.0986,1.0986,0,0,1-.0229-.1471,5.8461,5.8461,0,0,1,.0341-1.047,15.12,15.12,0,0,1,.3552-2.0207,8.3407,8.3407,0,0,1,.3033-.9812,1.928,1.928,0,0,1,.5548-.8689l.0379.0562a1.8583,1.8583,0,0,0-.4767.8543,8.197,8.197,0,0,0-.2451.9783,14.9318,14.9318,0,0,0-.2411,2.0044,6.4321,6.4321,0,0,0,.0081.9863.805.805,0,0,0,.02.1037c-.0037.0252.0468.0626-.0248.0007a.1321.1321,0,0,0-.0865-.0136l.0467-.0075.0762-.0066.1351-.0038.5155.0065c.6795.0171,1.3552.0379,2.0245.0169a7.5227,7.5227,0,0,0,.9831-.0838,1.5875,1.5875,0,0,0,.42-.119.2727.2727,0,0,0,.0585-.0378l.1324-.0986a1.7459,1.7459,0,0,1,.2724-.1285,4.8359,4.8359,0,0,1,2.1352-.1958,3.5541,3.5541,0,0,1,1.062.2933,1.3478,1.3478,0,0,1,.5178.3771.9208.9208,0,0,1,.1691.7041,2.3071,2.3071,0,0,1-.5312,1.0391,5.9361,5.9361,0,0,1-.7585.7689l-.139.1183-.1877-.0742a7.1748,7.1748,0,0,0-1.7069-.4457,3.5955,3.5955,0,0,0-.4273-.031,1.9321,1.9321,0,0,0-.209.0039l-.1032.0055c.0045.0011.0062-.0011-.0231.01-.2138.09-.5075.27-.7733.4162a6.7087,6.7087,0,0,1-3.71,1.1157,3.1585,3.1585,0,0,1-1.0092-.258,1.8609,1.8609,0,0,1-.4954-.3,1.7723,1.7723,0,0,1-.3426-.472,6.3276,6.3276,0,0,1-.5132-1.9061,24.9306,24.9306,0,0,1-.1766-3.77c.0185-.6315.0311-1.24.03-1.8608a8.5242,8.5242,0,0,1,.1457-1.922,3.4472,3.4472,0,0,1,.9757-1.7652,3.5859,3.5859,0,0,1,1.8022-.868,6.14,6.14,0,0,1,.9741-.11l.9388.0021,1.8635.0262,3.7243.0628v.369l-.4714-.0069V41.464l3.7911.0525,1.8981.0105a5.4683,5.4683,0,0,1,1.8973.317,3.0771,3.0771,0,0,1,1.5119,1.1994,4.0672,4.0672,0,0,1,.5708,1.847c.0432,1.28.0619,2.5368.0192,3.8091a29.29,29.29,0,0,1-.3206,3.8086,3.2662,3.2662,0,0,1-.8254,1.8549,1.5934,1.5934,0,0,1-1.0356.4183,4.4476,4.4476,0,0,1-1.01-.0919c-.6371-.1128-1.2521-.3035-1.834-.3527a13.3253,13.3253,0,0,0-1.8462-.0062,32.4355,32.4355,0,0,0-3.7248.4506l-.1023.0179-.0717-.04a4.0255,4.0255,0,0,1-.7418-.4937,2.5254,2.5254,0,0,1-.5993-.666Z"/><path class="cls-1" d="M70.3727,46.013a2.56,2.56,0,0,1,.6618,1.2275,11.89,11.89,0,0,1,.3281,1.376c.0818.4647.1452.9327.1826,1.4045a6.8116,6.8116,0,0,1,.0238.7133,1.1335,1.1335,0,0,1-.06.381.1531.1531,0,0,1-.1639.0965l-.0748.0132-.1663.0361a19.7184,19.7184,0,0,1-2.7813.4292,12.628,12.628,0,0,1-2.8389-.0391,13.9826,13.9826,0,0,1,5.6118-.6724l.1861.0319.101.0245c-.03-.0031-.049.025-.0323.0028a1.06,1.06,0,0,0,.0523-.3116,6.6846,6.6846,0,0,0-.0036-.6961c-.0239-.4666-.0737-.9332-.1418-1.3966a11.9112,11.9112,0,0,0-.274-1.3782A2.5387,2.5387,0,0,0,70.3727,46.013Z"/><path class="cls-1" d="M54.39,76.6444c1.9322-.087,3.8644-.1418,5.7965-.1789,1.9324-.0536,3.8646-.055,5.7967-.0758,1.9322-.0292,3.8644-.0025,5.7966.017l5.7965.1342-.1374.1374c.0123-1.7371.05-3.4741.0252-5.2111-.0038-1.7371-.0389-3.474-.0734-5.2111-.0866-3.4741-.1253-6.9482-.15-10.4222l.3354.3355q-2.8981.033-5.7967.016c-1.9322-.0094-3.8643-.0012-5.7965-.04-3.8644-.05-7.7289-.1278-11.5933-.278V55.8c3.8644-.15,7.7289-.2284,11.5933-.278,1.9322-.0384,3.8643-.03,5.7965-.04q2.8983-.0206,5.7967.016l.338.0039-.0025.3317c-.0245,3.474-.0632,6.9481-.15,10.4222-.0345,1.7371-.07,3.474-.0734,5.2111-.0248,1.737.0129,3.474.0252,5.2111l.001.1344-.1385.0031L71.78,76.95c-1.9322.02-3.8644.0462-5.7966.0171-1.9321-.0209-3.8643-.0222-5.7967-.0759-1.9321-.037-3.8643-.0919-5.7965-.1789Z"/><path class="cls-1" d="M47.5687,55.8678l-5.9083.1279-5.9083.0759-11.8165.0644c-3.9389-.004-7.8777-.0473-11.8166-.1089s-7.8778-.09-11.8165-.0854L.41,55.8339c.005,3.474.04,6.9481.0827,10.4222L.6016,76.6783l-.2991-.2992,11.5908-.059,11.5908.0186,11.5906.1238,5.7954.0639,5.7953.118v.0678L40.87,76.83l-5.7954.0639-11.5906.1238-11.5908.0185L.3025,76.9776,0,76.976l.0031-.2977L.1119,66.2561C.1548,62.782.19,59.3079.1946,55.8339V55.726H.3025q5.908.0074,11.8165-.0855c3.9389-.0616,7.8777-.1049,11.8166-.1088l11.8165.0643,5.9083.0759,5.9083.1279Z"/><path class="cls-1" d="M36.8283,53.5508c.2618.1327.5183.2432.7725.3607.2611.1013.5131.23.7627.331l-.1739-.0217a32.9914,32.9914,0,0,1,3.7958-.4941,12.0753,12.0753,0,0,1,1.9413.0118c.68.0665,1.2775.2674,1.8835.38.6.1167,1.2025.1869,1.56-.1686a2.8089,2.8089,0,0,0,.7169-1.5371,29.3963,29.3963,0,0,0,.4476-3.7306c.0878-1.252.1243-2.5266.0892-3.7716a3.8311,3.8311,0,0,0-.5095-1.7474,2.7272,2.7272,0,0,0-1.3976-1.1233,11.5981,11.5981,0,0,0-3.719-.2728l-3.7928.0527v-.3555l.4714-.0069v.3693l-3.725.0629-1.8611.0194-.923.0184a5.5671,5.5671,0,0,0-.8718.1184,3.06,3.06,0,0,0-1.4975.7474,2.819,2.819,0,0,0-.7744,1.4583,7.9634,7.9634,0,0,0-.106,1.7851c.0091.6206.004,1.2536-.007,1.8635a28.0287,28.0287,0,0,0,.1973,3.6632,5.7415,5.7415,0,0,0,.4323,1.68,1.11,1.11,0,0,0,.1959.2819,1.2941,1.2941,0,0,0,.3008.1732,2.4548,2.4548,0,0,0,.7856.2028,6.0879,6.0879,0,0,0,3.3109-1.0187,9.2243,9.2243,0,0,1,.87-.4575.8087.8087,0,0,1,.201-.05l.1294-.0067a2.4978,2.4978,0,0,1,.2563-.0032,4.2481,4.2481,0,0,1,.5005.0388,7.3992,7.3992,0,0,1,1.8751.5371l-.3265.0441a3.17,3.17,0,0,0,1.0984-1.4033c.1448-.3714-.6543-.6457-1.2344-.7382a4.4765,4.4765,0,0,0-1.8908.1154,1.3168,1.3168,0,0,0-.1917.0787l-.0735.0507a.75.75,0,0,1-.1567.0968,1.9988,1.9988,0,0,1-.559.1467,7.9366,7.9366,0,0,1-1.0466.0577c-.6882,0-1.3692-.042-2.046-.08l-.502-.022-.1194,0-.05.0026-.0164.0015a.2266.2266,0,0,1-.1479-.0219.3141.3141,0,0,1-.1392-.22,1.13,1.13,0,0,1-.0227-.1471,5.8368,5.8368,0,0,1,.0341-1.047A15.12,15.12,0,0,1,31.93,47.835a8.3407,8.3407,0,0,1,.3033-.9812,1.9269,1.9269,0,0,1,.5547-.8689l.038.0562a1.8593,1.8593,0,0,0-.4768.8543,8.2159,8.2159,0,0,0-.245.9783,14.8833,14.8833,0,0,0-.2411,2.0044,6.4321,6.4321,0,0,0,.0081.9863.805.805,0,0,0,.02.1037c-.0038.0252.0468.0626-.025.0007a.1315.1315,0,0,0-.0863-.0136l.0465-.0075.0764-.0066.1351-.0038.5154.0065c.68.0171,1.3553.0379,2.0246.0169a7.5167,7.5167,0,0,0,.9829-.0838,1.5842,1.5842,0,0,0,.42-.119.2663.2663,0,0,0,.0586-.0378l.1325-.0986a1.7375,1.7375,0,0,1,.2724-.1285,4.8359,4.8359,0,0,1,2.1352-.1958,3.5549,3.5549,0,0,1,1.062.2933,1.35,1.35,0,0,1,.5178.3771.9208.9208,0,0,1,.1691.7041,2.3071,2.3071,0,0,1-.5312,1.0391,5.9305,5.9305,0,0,1-.7586.7689L38.9,53.598l-.1878-.0742a7.1728,7.1728,0,0,0-1.7068-.4457,3.5955,3.5955,0,0,0-.4273-.031,1.9321,1.9321,0,0,0-.209.0039l-.1032.0055c.0045.0011.0062-.0011-.0231.01-.2138.09-.5076.27-.7733.4162a6.7087,6.7087,0,0,1-3.71,1.1157A3.161,3.161,0,0,1,30.75,54.34a1.8633,1.8633,0,0,1-.4952-.3,1.7777,1.7777,0,0,1-.3428-.472,6.33,6.33,0,0,1-.513-1.9061,24.9046,24.9046,0,0,1-.1766-3.77c.0185-.6315.0311-1.24.03-1.8608a8.5126,8.5126,0,0,1,.1457-1.922,3.4479,3.4479,0,0,1,.9755-1.7652,3.5868,3.5868,0,0,1,1.8023-.8681,6.1175,6.1175,0,0,1,.9742-.11l.9388.002,1.8635.0262,3.7243.0629v.3693l-.4714-.0069v-.3555l3.791.0527,1.8982.01a5.4665,5.4665,0,0,1,1.8971.3171,3.0739,3.0739,0,0,1,1.5119,1.1994,4.0624,4.0624,0,0,1,.5708,1.847c.0434,1.28.0619,2.5368.0193,3.8091a29.3072,29.3072,0,0,1-.3205,3.8086,3.2662,3.2662,0,0,1-.8254,1.8549,1.5934,1.5934,0,0,1-1.0356.4183,4.4476,4.4476,0,0,1-1.01-.0919c-.6373-.1128-1.2523-.3035-1.834-.3527a13.3254,13.3254,0,0,0-1.8462-.0062,32.4355,32.4355,0,0,0-3.7248.4506l-.1023.0179-.0717-.04a4.0221,4.0221,0,0,1-.7418-.4937,2.522,2.522,0,0,1-.5993-.666Z"/><path class="cls-1" d="M45.5476,46.013a2.56,2.56,0,0,1,.6618,1.2275,11.8688,11.8688,0,0,1,.328,1.376c.0818.4647.1453.9327.1827,1.4045a6.8116,6.8116,0,0,1,.0238.7133,1.1385,1.1385,0,0,1-.06.381.1531.1531,0,0,1-.1639.0965l-.0749.0132-.1662.0361a19.7184,19.7184,0,0,1-2.7813.4292,12.63,12.63,0,0,1-2.8391-.0391,13.9836,13.9836,0,0,1,5.612-.6724l.1861.0319.101.0245c-.03-.0031-.0492.025-.0325.0028a1.0534,1.0534,0,0,0,.0525-.3116,6.63,6.63,0,0,0-.0038-.6961c-.0238-.4666-.0735-.9332-.1417-1.3966a11.8486,11.8486,0,0,0-.2741-1.3782A2.5367,2.5367,0,0,0,45.5476,46.013Z"/><path class="cls-1" d="M11.6744,53.5508c.2618.1327.5183.2432.7724.3607.2612.1013.5132.23.7627.331l-.1739-.0217a32.9988,32.9988,0,0,1,3.7959-.4941,12.0741,12.0741,0,0,1,1.9412.0118c.68.0665,1.2775.2674,1.8835.38.6.1167,1.2025.1869,1.56-.1686a2.81,2.81,0,0,0,.717-1.5371,29.4144,29.4144,0,0,0,.4475-3.7306c.0878-1.252.1246-2.5266.0893-3.7716a3.8311,3.8311,0,0,0-.5095-1.7474,2.7277,2.7277,0,0,0-1.3975-1.1233,11.6,11.6,0,0,0-3.7192-.2728l-3.7928.0527v-.3555l.4714-.0069v.3693l-3.7249.0629-1.8612.0194-.9229.0184a5.5639,5.5639,0,0,0-.8718.1184,3.0612,3.0612,0,0,0-1.4976.7474A2.819,2.819,0,0,0,4.87,44.251a7.9634,7.9634,0,0,0-.106,1.7851c.0093.6206.004,1.2536-.0069,1.8635a28.0113,28.0113,0,0,0,.1972,3.6632,5.7446,5.7446,0,0,0,.4323,1.68,1.11,1.11,0,0,0,.1959.2819,1.2952,1.2952,0,0,0,.3009.1732,2.4536,2.4536,0,0,0,.7855.2028A6.088,6.088,0,0,0,9.98,52.8821a9.212,9.212,0,0,1,.87-.4575.8062.8062,0,0,1,.2011-.05l.1292-.0067a2.4982,2.4982,0,0,1,.2563-.0032,4.25,4.25,0,0,1,.5006.0388,7.3984,7.3984,0,0,1,1.875.5371l-.3265.0441a3.17,3.17,0,0,0,1.0985-1.4033c.1447-.3714-.6544-.6457-1.2344-.7382a4.4763,4.4763,0,0,0-1.8908.1154,1.3136,1.3136,0,0,0-.1918.0787l-.0735.0507a.7445.7445,0,0,1-.1566.0968,2.0005,2.0005,0,0,1-.559.1467,7.937,7.937,0,0,1-1.0465.0577c-.6883,0-1.3694-.042-2.0461-.08l-.5021-.022-.1194,0-.05.0026-.0163.0015a.2265.2265,0,0,1-.1479-.0219.3135.3135,0,0,1-.1391-.22,1.0986,1.0986,0,0,1-.0229-.1471,5.8367,5.8367,0,0,1,.0342-1.047,15.1192,15.1192,0,0,1,.3551-2.0207,8.3412,8.3412,0,0,1,.3034-.9812,1.9252,1.9252,0,0,1,.5547-.8689l.0379.0562a1.8592,1.8592,0,0,0-.4767.8543,8.2162,8.2162,0,0,0-.2451.9783,14.9156,14.9156,0,0,0-.2411,2.0044,6.4321,6.4321,0,0,0,.0081.9863.805.805,0,0,0,.02.1037c-.0038.0252.0469.0626-.025.0007a.1315.1315,0,0,0-.0863-.0136l.0466-.0075.0763-.0066.1351-.0038.5155.0065c.68.0171,1.3553.0379,2.0246.0169a7.52,7.52,0,0,0,.983-.0838,1.5856,1.5856,0,0,0,.42-.119.2713.2713,0,0,0,.0586-.0378l.1325-.0986a1.7408,1.7408,0,0,1,.2723-.1285,4.8361,4.8361,0,0,1,2.1352-.1958,3.5547,3.5547,0,0,1,1.0621.2933,1.3483,1.3483,0,0,1,.5177.3771.92.92,0,0,1,.1691.7041,2.3071,2.3071,0,0,1-.5312,1.0391,5.9234,5.9234,0,0,1-.7585.7689l-.1389.1183-.1878-.0742a7.1753,7.1753,0,0,0-1.7068-.4457,3.5987,3.5987,0,0,0-.4274-.031,1.9331,1.9331,0,0,0-.209.0039l-.1031.0055c.0044.0011.0061-.0011-.0232.01-.2138.09-.5075.27-.7733.4162a6.7087,6.7087,0,0,1-3.71,1.1157A3.1591,3.1591,0,0,1,5.596,54.34a1.8609,1.8609,0,0,1-.4954-.3,1.7745,1.7745,0,0,1-.3426-.472,6.3244,6.3244,0,0,1-.5131-1.9061,24.9047,24.9047,0,0,1-.1767-3.77c.0185-.6315.0311-1.24.03-1.8608a8.5068,8.5068,0,0,1,.1457-1.922,3.4477,3.4477,0,0,1,.9754-1.7652,3.5871,3.5871,0,0,1,1.8024-.8681,6.1176,6.1176,0,0,1,.9741-.11l.9389.002,1.8634.0262,3.7243.0629v.3693l-.4714-.0069v-.3555l3.7912.0527,1.898.01a5.468,5.468,0,0,1,1.8973.3171,3.0749,3.0749,0,0,1,1.5118,1.1994A4.0634,4.0634,0,0,1,23.72,44.89c.0434,1.28.0619,2.5368.0194,3.8091a29.2725,29.2725,0,0,1-.3206,3.8086,3.2655,3.2655,0,0,1-.8254,1.8549,1.593,1.593,0,0,1-1.0356.4183,4.4462,4.4462,0,0,1-1.01-.0919c-.6374-.1128-1.2523-.3035-1.834-.3527a13.3268,13.3268,0,0,0-1.8463-.0062,32.4382,32.4382,0,0,0-3.7248.4506l-.1023.0179-.0717-.04a4.0288,4.0288,0,0,1-.7418-.4937,2.5216,2.5216,0,0,1-.5992-.666Z"/><path class="cls-1" d="M20.3936,46.013a2.56,2.56,0,0,1,.6619,1.2275,11.8893,11.8893,0,0,1,.328,1.376c.0818.4647.1452.9327.1826,1.4045a6.7844,6.7844,0,0,1,.0239.7133,1.136,1.136,0,0,1-.06.381.1534.1534,0,0,1-.164.0965l-.0748.0132-.1663.0361a19.717,19.717,0,0,1-2.7812.4292,12.63,12.63,0,0,1-2.8391-.0391,12.2343,12.2343,0,0,1,2.7725-.6228,12.2914,12.2914,0,0,1,2.8394-.05l.1861.0319.101.0245c-.03-.0031-.0492.025-.0324.0028a1.0567,1.0567,0,0,0,.0525-.3116A6.6576,6.6576,0,0,0,21.42,50.03c-.0238-.4666-.0735-.9332-.1417-1.3966a11.89,11.89,0,0,0-.2739-1.3782A2.5387,2.5387,0,0,0,20.3936,46.013Z"/><path class="cls-2" d="M50.0506,87.8679c-.2288-5.808-.298-11.6161-.247-17.424.0425-2.904.1539-5.808.1634-8.712.0348-2.9041-.0133-5.808-.0682-8.712q-.1851-8.712-.1641-17.424.0153-8.712.3159-17.424h.0677q.315,8.712.3158,17.424.0335,8.712-.1639,17.424c-.055,2.904-.103,5.8079-.0683,8.712.0095,2.904.1209,5.808.1635,8.712.051,5.8079-.0182,11.616-.2471,17.424Z"/><path class="cls-2" d="M52.2621,87.8679c-.2288-6.1732-.298-12.3463-.247-18.52.0425-3.0865.154-6.1731.1634-9.26.0348-3.0865-.0134-6.1731-.0682-9.26q-.1851-9.26-.1641-18.5194.0151-9.26.3159-18.5194H52.33q.3147,9.26.3158,18.5194.0336,9.26-.1639,18.5194c-.055,3.0866-.1032,6.1732-.0684,9.26.01,3.0866.121,6.1732.1636,9.26.051,6.1732-.0182,12.3463-.2471,18.52Z"/><path class="cls-2" d="M57.8136,4.231a4.7151,4.7151,0,0,1-.8829,2.8248,3.2679,3.2679,0,0,1-2.7434,1.3263,3.7513,3.7513,0,0,1-2.6668-1.3949A4.7058,4.7058,0,0,1,50.4091,4.231a4.0632,4.0632,0,0,1,.9557-2.8957A3.6877,3.6877,0,0,1,54.1873.0005a3.449,3.449,0,0,1,2.751,1.3988A4.7126,4.7126,0,0,1,57.8136,4.231Zm-.0677,0a3.4819,3.4819,0,0,0-1.14-2.534A3.5528,3.5528,0,0,0,54.1873.7238,3.257,3.257,0,0,0,51.84,1.7609a4.0435,4.0435,0,0,0-1.06,2.47,3.4922,3.4922,0,0,0,.9039,2.6095,3.1774,3.1774,0,0,0,2.5029.9771,3.8532,3.8532,0,0,0,2.4263-1.0457A3.4854,3.4854,0,0,0,57.7459,4.231Z"/><path class="cls-2" d="M50.9007,7.011a41.3755,41.3755,0,0,1-2,4.1354c-.7125,1.353-1.6464,2.5824-2.4061,3.9091l.0076-.0169a4.503,4.503,0,0,0-.2235,1.0265,1.6939,1.6939,0,0,0,.1435.9769.7.7,0,0,0,.7877.2624,3.4169,3.4169,0,0,0,.9415-.3628l-.11.1044c.306-.6721.6313-1.3338.9651-1.9909.3286-.66.6625-1.3171,1.0313-1.9555.3557-.6454.7557-1.2669,1.1331-1.9007.4008-.6211.8-1.2431,1.2427-1.8417l.06.0321c-.2555.6993-.5546,1.3751-.8519,2.0519-.3209.6641-.619,1.3405-.9616,1.993-.3293.6595-.6938,1.3-1.0634,1.9381-.3642.6408-.7371,1.277-1.1292,1.9027l-.0509.0813-.06.0233a3.8083,3.8083,0,0,1-1.1008.2939,1.3256,1.3256,0,0,1-.6083-.0719.8653.8653,0,0,1-.4658-.428,2.099,2.099,0,0,1-.1163-1.1308,6.1788,6.1788,0,0,1,.2365-1.0739l.002-.0067.0056-.01c.73-1.343,1.2863-2.7834,2.0637-4.1a41.3359,41.3359,0,0,1,2.4693-3.8738Z"/><path class="cls-2" d="M46.3474,18.1719a4.3526,4.3526,0,0,1-.7679,1.63,4.3014,4.3014,0,0,1-1.3158,1.2312,4.3019,4.3019,0,0,1,.7679-1.63A4.3485,4.3485,0,0,1,46.3474,18.1719Z"/><path class="cls-2" d="M51.3686,92.193c-3.1626,0-10.5178-.1318-10.5178-1.3558s7.3552-1.3557,10.5178-1.3557,10.5172.1318,10.5172,1.3557S54.5306,92.193,51.3686,92.193ZM41.792,90.8372a46.1077,46.1077,0,0,0,9.5766.6776,46.1,46.1,0,0,0,9.576-.6776,46.1106,46.1106,0,0,0-9.576-.6775A46.1183,46.1183,0,0,0,41.792,90.8372Z"/><path class="cls-1" d="M44.205,35.2666a5.24,5.24,0,0,1-1.2458,3.44,4.375,4.375,0,0,1-3.44,1.4943,4.9658,4.9658,0,0,1-3.3673-1.567,5.1976,5.1976,0,0,1-1.4705-3.3672,4.7188,4.7188,0,0,1,1.3227-3.5151,4.8623,4.8623,0,0,1,3.515-1.4987,4.5876,4.5876,0,0,1,3.4474,1.5664A5.24,5.24,0,0,1,44.205,35.2666Zm-.0678,0a4.1586,4.1586,0,0,0-1.4865-3.1317,4.8127,4.8127,0,0,0-3.1316-1.1586,4.4773,4.4773,0,0,0-3.064,1.2264,4.6251,4.6251,0,0,0-1.4023,3.0639,4.19,4.19,0,0,0,1.2546,3.2117,4.3591,4.3591,0,0,0,3.2118,1.1581,5.14,5.14,0,0,0,3.139-1.2308A4.162,4.162,0,0,0,44.1372,35.2666Z"/></g></g></g></svg>