<svg xmlns="http://www.w3.org/2000/svg" viewBox="0 0 75.2721 73.172"><defs><style>.cls-1{fill:#575756;}.cls-2{fill:#fff;}.cls-3{fill:#0087b9;}.cls-4{fill:none;}</style></defs><title>Element 7</title><g id="Ebene_2" data-name="Ebene 2"><g id="Ebene_1-2" data-name="Ebene 1"><g id="Illustrationen"><path class="cls-1" d="M7.5751,36.6128c.273-.41.5073-.6717.7694-1.01.2625-.3138.5166-.6362.7907-.94.5375-.6182,1.0928-1.2207,1.6573-1.8151,1.1266-1.1919,2.3208-2.32,3.5557-3.4026a53.4222,53.4222,0,0,1,8.001-5.7647A37.4942,37.4942,0,0,1,41.233,18.2671c.8294.0283,1.6606.0261,2.4854.1037l2.4677.2957a36.6938,36.6938,0,0,1,4.8166,1.156l1.1828.3606c.3926.1246.7676.3,1.1518.447.761.3146,1.5337.6,2.282.9381a48.2117,48.2117,0,0,1,4.349,2.3058A67.2375,67.2375,0,0,1,75.0627,36.37l.2094.2272-.197.2493a56.8115,56.8115,0,0,1-6.7288,7.261,43.2044,43.2044,0,0,1-8.095,5.7619,41.1,41.1,0,0,1-9.2378,3.7379,38.4917,38.4917,0,0,1-9.8961,1.2942,40.4159,40.4159,0,0,1-19.1433-4.9245A38.847,38.847,0,0,1,7.5751,36.6128Zm.1356.005A41.6572,41.6572,0,0,0,22.4662,49.0361a40.8008,40.8008,0,0,0,18.6486,4.4176,39.5576,39.5576,0,0,0,18.5278-4.7043,45.0212,45.0212,0,0,0,8.0006-5.4529,60.9292,60.9292,0,0,0,6.8561-6.9121l.0125.4764a57.3209,57.3209,0,0,0-14.764-12.6053,42.07,42.07,0,0,0-4.3525-2.1724c-.7509-.3039-1.5234-.5532-2.2822-.8322-.3832-.13-.7569-.2867-1.1469-.3931l-1.1731-.3061a36.3966,36.3966,0,0,0-4.7387-.9426L43.65,19.4155c-.8014-.0482-1.6066,0-2.4078-.0178A37.4152,37.4152,0,0,0,31.7587,20.87a43.9793,43.9793,0,0,0-8.8928,3.725A59.9674,59.9674,0,0,0,7.7107,36.6178Z"/><circle class="cls-2" cx="41.215" cy="37.033" r="14.3014"/><path class="cls-3" d="M55.5842,37.033a15.4632,15.4632,0,0,1-3.9556,10.4137A13.7137,13.7137,0,0,1,41.215,51.8989a14.6449,14.6449,0,0,1-5.6173-1.3052,15.6218,15.6218,0,0,1-4.6508-3.2926A15.4518,15.4518,0,0,1,26.5424,37.033a14.4424,14.4424,0,0,1,4.1089-10.5637,15.0235,15.0235,0,0,1,4.82-3.3011,14.4643,14.4643,0,0,1,11.4662.05,13.8027,13.8027,0,0,1,4.7054,3.387A15.4652,15.4652,0,0,1,55.5842,37.033Zm-.1356,0a13.0182,13.0182,0,0,0-1.1957-5.4005,13.7951,13.7951,0,0,0-3.2409-4.3964,14.6047,14.6047,0,0,0-9.797-3.781,13.9589,13.9589,0,0,0-9.6614,3.9164A14.2536,14.2536,0,0,0,27.285,37.033a13.5639,13.5639,0,0,0,.9309,5.3844A13.25,13.25,0,0,0,31.258,46.99a13.7294,13.7294,0,0,0,9.957,3.78,15.2013,15.2013,0,0,0,9.8115-3.9253,13.9371,13.9371,0,0,0,3.2367-4.4068A12.9415,12.9415,0,0,0,55.4486,37.033Z"/><circle class="cls-2" cx="41.215" cy="37.35" r="7.4431"/><path class="cls-3" d="M48.692,37.35a8.0239,8.0239,0,0,1-2.0633,5.4137,7.0457,7.0457,0,0,1-2.4513,1.7379,7.3974,7.3974,0,0,1-2.9624.5725,7.8128,7.8128,0,0,1-5.346-2.378A8.0463,8.0463,0,0,1,33.5862,37.35a7.5152,7.5152,0,0,1,2.14-5.4886,7.6588,7.6588,0,0,1,5.4886-2.3162,7.4069,7.4069,0,0,1,5.421,2.384A8.0251,8.0251,0,0,1,48.692,37.35Zm-.0677,0A6.9448,6.9448,0,0,0,46.32,32.2448a7.5556,7.5556,0,0,0-5.1054-1.9762,7.2734,7.2734,0,0,0-5.0376,2.0439,7.4194,7.4194,0,0,0-2.22,5.0375,6.9278,6.9278,0,0,0,2.0774,5.18,7.1137,7.1137,0,0,0,5.18,1.9821,7.8744,7.8744,0,0,0,5.1126-2.05A6.9475,6.9475,0,0,0,48.6243,37.35Z"/><line class="cls-4" y1="23.3232" y2="24.1796"/><path class="cls-1" d="M41.8165,0A21.678,21.678,0,0,1,42.31,3.3717c.0879,1.1231.1293,2.2458.1169,3.3679-.0078,1.1222-.0732,2.2437-.1828,3.3648a21.4428,21.4428,0,0,1-.5632,3.361,21.4567,21.4567,0,0,1-.4952-3.3717c-.0871-1.123-.13-2.2458-.1148-3.3678.01-1.1221.0742-2.2437.1847-3.3648A21.7012,21.7012,0,0,1,41.8165,0Z"/><path class="cls-1" d="M8.8035,11.1853a21.6948,21.6948,0,0,1,2.733,2.0354q1.2846,1.098,2.464,2.2988c.788.799,1.5349,1.6382,2.25,2.5085a21.4636,21.4636,0,0,1,1.9784,2.7749,21.4362,21.4362,0,0,1-2.7343-2.034c-.8557-.7326-1.68-1.4963-2.4627-2.3q-1.1793-1.201-2.2486-2.51A21.692,21.692,0,0,1,8.8035,11.1853Z"/><path class="cls-1" d="M64.4367,22.5978a21.6912,21.6912,0,0,1,2.0354-2.7329q1.098-1.2844,2.2988-2.464c.7991-.7881,1.6382-1.535,2.5085-2.25a21.44,21.44,0,0,1,2.7749-1.9784A21.4556,21.4556,0,0,1,72.02,15.9068c-.7327.8556-1.4964,1.68-2.3,2.4626q-1.2011,1.1793-2.51,2.2486A21.6762,21.6762,0,0,1,64.4367,22.5978Z"/><path class="cls-1" d="M40.9374,73.172A21.7006,21.7006,0,0,1,40.448,69.8c-.0866-1.1232-.1267-2.2459-.1131-3.368.0091-1.1222.0757-2.2437.1866-3.3647a21.4316,21.4316,0,0,1,.5668-3.36A21.4328,21.4328,0,0,1,41.58,63.079c.0858,1.1232.1272,2.2459.1109,3.368-.0114,1.1221-.0766,2.2436-.1884,3.3646A21.6766,21.6766,0,0,1,40.9374,73.172Z"/><path class="cls-1" d="M74.6427,62.0243a21.682,21.682,0,0,1-2.7306-2.0384q-1.2832-1.1-2.4615-2.3016c-.7872-.8-1.5332-1.64-2.2473-2.5111a21.4435,21.4435,0,0,1-1.9752-2.777,21.4592,21.4592,0,0,1,2.7319,2.037c.8549.7336,1.6782,1.4981,2.46,2.303q1.1779,1.2023,2.2459,2.5124A21.7021,21.7021,0,0,1,74.6427,62.0243Z"/><path class="cls-1" d="M16.9876,52.5837a21.6814,21.6814,0,0,1-2.0383,2.7306q-1.1,1.2832-2.3016,2.4616c-.8.787-1.64,1.533-2.5111,2.2472A21.448,21.448,0,0,1,7.36,61.9984a21.4472,21.4472,0,0,1,2.037-2.7321c.7337-.8549,1.4982-1.6781,2.3031-2.46q1.2022-1.1781,2.5123-2.2459A21.6992,21.6992,0,0,1,16.9876,52.5837Z"/></g></g></g></svg>