<svg xmlns="http://www.w3.org/2000/svg" viewBox="0 0 62.5064 74.4207"><defs><style>.cls-1{fill:#0087b9;}.cls-2{fill:#575756;}</style></defs><title>Element 8</title><g id="Ebene_2" data-name="Ebene 2"><g id="Ebene_1-2" data-name="Ebene 1"><g id="Illustrationen"><path class="cls-1" d="M41.6337,60.5686l-4.2765.1231-4.3528.0933-4.3962.0521c-1.4681.02-2.9421-.0074-4.4083-.0115l-.2852-.0008.0042-.28c.0425-2.9017.154-5.8033.1634-8.705.0222-1.4508.0094-2.9017-.0018-4.3524-.0015-1.4508-.0451-2.9017-.0664-4.3525l-.0027-.1815.1885-.0043q4.3524-.0978,8.7048-.1333l4.3525-.0344,4.3525.0037.3519,0-.002.3495c-.0088,1.4706-.0013,2.9455-.0288,4.4137l-.076,4.3927Zm-.0478-.0479-.2211-8.7825-.076-4.3123c-.0275-1.4333-.02-2.86-.0286-4.2912l.3495.35-4.3525.0037-4.3525-.0344q-4.3525-.03-8.7048-.1333l.1856-.1856c-.0214,1.4508-.0651,2.9017-.0664,4.3525-.0114,1.4507-.0242,2.9016-.002,4.3524.01,2.9017.121,5.8033.1636,8.705L24.2,60.2637c1.4354-.0041,2.8629-.032,4.2967-.0115l4.3086.0521,4.3522.0933Z"/><path class="cls-1" d="M34.923,42.8756,36.06,40.1a17.7418,17.7418,0,0,0,.93-2.7664,1.7366,1.7366,0,0,0,.0282-.6219c-.0371-.15-.1335-.2182-.3676-.1971a3.2545,3.2545,0,0,0-1.3177.5305,14.4788,14.4788,0,0,0-2.3063,1.8916l-.1068.103-.1371-.103c-.7981-.5991-1.5962-1.2-2.4193-1.7158a3.5422,3.5422,0,0,0-1.2256-.543L29.02,36.67a.083.083,0,0,1-.0607.0162c-.0081.0121-.0063.0182-.0232.0155a.09.09,0,0,1-.028.0536,1.5866,1.5866,0,0,0-.01.5674,13.7917,13.7917,0,0,0,.8538,2.7765c.3583.9269.7507,1.8471,1.1347,2.7765l-.0591.0331a21.919,21.919,0,0,1-1.5593-2.5922,10.98,10.98,0,0,1-1.0862-2.8926,2.0342,2.0342,0,0,1,.0482-.9209,2.0722,2.0722,0,0,1,.1583-.2723,1.3357,1.3357,0,0,1,.2793-.2041,1.99,1.99,0,0,1,.3047-.0705c.0863.0035.1709.0118.2558.0209a4.0226,4.0226,0,0,1,1.4806.7076,17.4731,17.4731,0,0,1,2.318,1.9722h-.2439c.8023-.6113,1.5964-1.2249,2.4311-1.7964a4.3509,4.3509,0,0,1,1.3884-.72l.2246-.0279a2.5938,2.5938,0,0,1,.2556.0489,1.2841,1.2841,0,0,1,.2358.1581,2.283,2.283,0,0,1,.1446.2271,1.9758,1.9758,0,0,1,.0862.8664,9.5536,9.5536,0,0,1-1.01,2.9027,19.3086,19.3086,0,0,1-1.5571,2.5932Z"/><path class="cls-1" d="M32.3988,60.1463a20.2872,20.2872,0,0,1-.2483-4.1533c.0485-.6922.1473-1.3844.1723-2.0767A17.0014,17.0014,0,0,0,32.247,51.84c-.1356-1.3844-.17-2.7689-.176-4.1533a31.3582,31.3582,0,0,1,.3278-4.1534h.0679a31.3412,31.3412,0,0,1,.3277,4.1534c-.0058,1.3844-.04,2.7689-.176,4.1533a16.9813,16.9813,0,0,0-.0757,2.0767c.0249.6923.1237,1.3845.1722,2.0767a20.2659,20.2659,0,0,1-.2482,4.1533Z"/><path class="cls-1" d="M24.3022,51.8057a19.3314,19.3314,0,0,1,4.0549-.2483c.676.0486,1.3517.1473,2.0276.1723a16.2067,16.2067,0,0,0,2.0274-.0757c1.3516-.1356,2.7033-.17,4.0549-.176a29.8877,29.8877,0,0,1,4.055.3277v.0679a29.9037,29.9037,0,0,1-4.055.3277c-1.3516-.0058-2.7033-.04-4.0549-.176a16.1877,16.1877,0,0,0-2.0274-.0757c-.6759.025-1.3516.1237-2.0276.1722a19.338,19.338,0,0,1-4.0549-.2482Z"/><path class="cls-2" d="M47.3172,14.2279a14.4255,14.4255,0,0,1-3.9482,9.9639A13.593,13.593,0,0,1,38.8284,27.32a13.7328,13.7328,0,0,1-5.4231,1.0668,14.0476,14.0476,0,0,1-5.3831-1.1637,14.7122,14.7122,0,0,1-4.5133-3.0991,14.4866,14.4866,0,0,1-4.1676-9.8962,13.9647,13.9647,0,0,1,4.0249-10.039,14.26,14.26,0,0,1,4.5929-3.1085A14.02,14.02,0,0,1,33.4051,0a13.7825,13.7825,0,0,1,9.9712,4.2566A14.43,14.43,0,0,1,47.3172,14.2279Zm-.0679,0a13.3545,13.3545,0,0,0-4.1886-9.6555A14.0744,14.0744,0,0,0,33.4051.7,13.7356,13.7356,0,0,0,19.7126,14.228a13.37,13.37,0,0,0,3.9622,9.73,13.5658,13.5658,0,0,0,9.73,3.8669,14.2484,14.2484,0,0,0,9.6627-3.9344,13.72,13.72,0,0,0,3.0762-4.3861A13.5637,13.5637,0,0,0,47.2493,14.2279Z"/><path class="cls-2" d="M24.2891,73.4a3.38,3.38,0,0,1,1.0463-.3272,3.7449,3.7449,0,0,1,1.1065.0515,6.4377,6.4377,0,0,1,1.0623.3028,6.5467,6.5467,0,0,1,1.0076.4789l-.203-.0414A106.575,106.575,0,0,1,40.48,72.304a39.5773,39.5773,0,0,1,6.16.0278,19.7082,19.7082,0,0,1,3.0456.5533c.993.2319,1.9835.4691,2.9761.663a13.048,13.048,0,0,0,2.9726.3083,3.961,3.961,0,0,0,2.6266-1.0187,7.2474,7.2474,0,0,0,1.6264-2.4341,17.4129,17.4129,0,0,0,.8017-2.9017,94.2922,94.2922,0,0,0,1.2793-12.1326c.2282-4.0638.2649-8.1586.1631-12.2149a12.4985,12.4985,0,0,0-1.6994-5.7517,9.08,9.08,0,0,0-4.6369-3.7093,16.6865,16.6865,0,0,0-5.9718-.9407l-6.1173.0179-12.2415.0367v-.3608l1.5219-.0046v.37l-10.8216.0461-5.4144.0231-2.7007.0118c-.8966.0146-1.8086-.0207-2.6846.0578a14.5341,14.5341,0,0,0-5.1221,1.2569A8.82,8.82,0,0,0,2.4,37.6409,12.125,12.125,0,0,0,.85,42.635a22.9958,22.9958,0,0,0-.1055,2.6672l.0053,2.709c-.0049.9043.0191,1.8032-.01,2.712q-.04,1.3461-.0447,2.696C.6872,55.2175.718,57.016.8,58.8108c.0851,1.7942.2146,3.5861.4336,5.3629a25.5289,25.5289,0,0,0,1.1093,5.205,5.731,5.731,0,0,0,1.2523,2.1828,4.7067,4.7067,0,0,0,1.0592.6481l.5963.2668.6135.2244a11.9211,11.9211,0,0,0,5.1953.4354A21.6125,21.6125,0,0,0,16.1941,71.78c.8329-.3206,1.6527-.6794,2.4712-1.05l1.2352-.56a5.7356,5.7356,0,0,1,1.38-.4763l.1959-.0326.12.1834a2.5786,2.5786,0,0,0,1.782.9949,8.2739,8.2739,0,0,0,2.27.02A20.36,20.36,0,0,0,30.17,69.7469l-.13.0947a33.3339,33.3339,0,0,0,2.5645-3.6534,9.9723,9.9723,0,0,0,.9392-1.9715,1.8116,1.8116,0,0,0,.0945-.9442c-.0607-.2392-.2864-.3447-.625-.3576l-.0385-.0015-.0361-.011a19.3416,19.3416,0,0,0-4.6641-.7237,26.3578,26.3578,0,0,0-4.7462.19c-.3916.0548-.78.1242-1.1646.2058-.372.0914-.7719.1917-1.1807.2678a16.074,16.074,0,0,1-2.4242.1839c-1.6121.0246-3.2144-.0764-4.8116-.16a17.3716,17.3716,0,0,0-2.36-.0325l-.0692.008a.315.315,0,0,1-.1638-.0131.39.39,0,0,1-.1929-.1629,1.2065,1.2065,0,0,1-.1347-.3234,4.0305,4.0305,0,0,1-.1108-.6154c-.0456-.4066-.0633-.8106-.07-1.2139a37.1,37.1,0,0,1,.308-4.8076,37.6732,37.6732,0,0,1,.8672-4.7323,17.2047,17.2047,0,0,1,.7474-2.2892,4.5677,4.5677,0,0,1,1.3528-1.9754l.0379.0562a4.4947,4.4947,0,0,0-1.2892,1.9608,17.0788,17.0788,0,0,0-.7019,2.2845,37.5165,37.5165,0,0,0-.78,4.7221,38.5044,38.5044,0,0,0-.2283,4.7743c.01.3966.0311.7931.0785,1.1815a3.739,3.739,0,0,0,.1059.5639.9268.9268,0,0,0,.0941.2288.2731.2731,0,0,0,.0268.0323c-.0041.0037-.0112-.0066-.0167.0009l.0795-.0109a17.08,17.08,0,0,1,2.4362.0031c1.6.0677,3.1964.1514,4.786.1106a15.6817,15.6817,0,0,0,2.3574-.202c.3767-.0741.7532-.1719,1.1571-.2755q.5961-.1329,1.197-.2243a26.833,26.833,0,0,1,4.8338-.2434,19.8376,19.8376,0,0,1,4.808.7l-.0743-.0124a1.49,1.49,0,0,1,.67.1583.9733.9733,0,0,1,.48.5922,2.302,2.302,0,0,1-.0867,1.274,10.4978,10.4978,0,0,1-.9781,2.103,33.9041,33.9041,0,0,1-2.5884,3.7478l-.0515.0658-.0783.0291a20.96,20.96,0,0,1-4.6719,1.1956A8.59,8.59,0,0,1,23.26,71.51a3.25,3.25,0,0,1-2.2335-1.2852l.3154.1508a5.67,5.67,0,0,0-1.1639.4219l-1.2283.5583c-.8237.3743-1.6564.74-2.5067,1.0684a22.295,22.295,0,0,1-5.3,1.4036,12.62,12.62,0,0,1-5.4995-.46l-.657-.24-.6388-.2849c-.209-.103-.4118-.2181-.618-.3269a2.74,2.74,0,0,1-.6161-.4393A6.3653,6.3653,0,0,1,1.6762,69.62,26.1679,26.1679,0,0,1,.5227,64.2632C.2947,62.46.1659,60.651.09,58.842s-.1-3.6184-.0861-5.4272q.0114-1.3567.055-2.7137c.0321-.8938.0119-1.7993.02-2.6984l.0053-2.7019a23.6019,23.6019,0,0,1,.12-2.7356,12.7545,12.7545,0,0,1,1.6586-5.25A9.3774,9.3774,0,0,1,5.9863,33.664a15.1053,15.1053,0,0,1,5.338-1.2667c.9233-.0732,1.8175-.0288,2.7237-.0361l2.71.0115,5.4073.0231,10.8216.0461v.37l-1.5219-.0046v-.3608l12.2394.0368,6.1226.0189a16.9138,16.9138,0,0,1,6.0447.9916,9.5314,9.5314,0,0,1,4.7617,3.7823,12.7539,12.7539,0,0,1,1.7818,5.8561c.135,4.0962.128,8.1711-.069,12.2558a93.8582,93.8582,0,0,1-1.199,12.204,17.8273,17.8273,0,0,1-.8074,2.9944,7.7193,7.7193,0,0,1-1.7343,2.627,4.4918,4.4918,0,0,1-2.9437,1.1737,13.5394,13.5394,0,0,1-3.1032-.2955c-1.0112-.19-2.007-.4213-3.002-.6462a19.5468,19.5468,0,0,0-2.9727-.5246,42.2693,42.2693,0,0,0-6.0681-.0165A106.0637,106.0637,0,0,0,28.411,74.4006l-.1135.02-.09-.0616A6.233,6.233,0,0,0,26.3587,73.5a6.0844,6.0844,0,0,0-1.0122-.1523,3.2068,3.2068,0,0,0-1.0312.1151Z"/><path class="cls-2" d="M49.1646,46.7366a3.366,3.366,0,0,1,1.0615,1.6017,11.8716,11.8716,0,0,1,.5105,1.8805,28.626,28.626,0,0,1,.4436,3.8723,37.676,37.676,0,0,1-.3343,7.7866,6.1878,6.1878,0,0,1-.2436.9571.9345.9345,0,0,1-.29.4528.2725.2725,0,0,1-.182.0316l-.1183-.0054c-.0793-.0025-.1544-.01-.2354-.0084l-1.94.04c-1.2963.0617-2.5928.038-3.89.0776-2.5954.0017-5.1866-.0145-7.79-.151a50.62,50.62,0,0,1,7.7874-.516c1.3.03,2.6013.0079,3.9019.1177.6508.0526,1.3007.0789,1.9521.1934.0811.0116.1661.0334.2479.05l.1232.0265a.0743.0743,0,0,0,.0526-.008.8322.8322,0,0,0,.2186-.3613,6.04,6.04,0,0,0,.2439-.9268,37.9331,37.9331,0,0,0,.404-7.7511,28.5565,28.5565,0,0,0-.3967-3.8682,11.8333,11.8333,0,0,0-.4867-1.8811A3.3564,3.3564,0,0,0,49.1646,46.7366Z"/></g></g></g></svg>