<svg xmlns="http://www.w3.org/2000/svg" viewBox="0 0 63.8084 95.1396"><defs><style>.cls-1{fill:#575756;}.cls-2{font-size:2.8592px;fill:#0087b9;font-family:DBOffice-Regular, DB Office;}</style></defs><title>Element 34</title><g id="Ebene_2" data-name="Ebene 2"><g id="Ebene_1-2" data-name="Ebene 1"><g id="Illustrationen"><path class="cls-1" d="M63.3351,94.7428l-31.3438.2689L.4305,95.1379,0,95.14l.0016-.4307.0824-23.55.1594-23.55c.0165-7.85.0668-15.7.0144-23.55L.1694.5077.1685.248.4305.2466,31.8659.0786,63.3014.0013,63.8084,0l-.0007.5077L63.777,24.1486l-.1164,23.6085Zm-.0672-.0674L62.9423,47.46l-.1161-23.4923L62.7953.5077l.5061.5061L31.8659.9365.4305.7684.6913.5077.6029,24.058c-.0524,7.85-.0019,15.7.0144,23.55l.16,23.55.0824,23.55L.4305,94.28l31.31.1261Z"/><path class="cls-1" d="M60.6853,15.309,46.3542,15.42c-4.8.0132-9.5819.0861-14.4124.0551L17.487,15.4094c-4.8151-.0335-9.6184-.0584-14.4235-.0173l-.1.0009-.0005-.1009-.03-6.6485-.0007-.13.1312-.0009q14.4011-.1044,28.8024-.1191c9.6007-.0129,19.2017.0811,28.8024.1413l.11.0007-.0014.1076Zm-.0337-.0337L60.56,8.6436l.1082.1082c-9.6007.06-19.2017.1541-28.8024.1413q-14.4011.0051-28.8024-.1192l.13-.13-.03,6.6485-.1-.1c4.7956.0412,9.5931.0162,14.3789-.0174L31.79,15.1092c4.77-.0309,9.5893.0418,14.39.0551Z"/><text class="cls-2" transform="translate(3.0637 7.559)">Problemdefinition:</text><path class="cls-1" d="M60.6853,41.5979l-14.3311.111c-4.8.0133-9.5819.0861-14.4124.0551L17.487,41.6983c-4.8151-.0336-9.6184-.0585-14.4235-.0174l-.1.0009-.0005-.1009-.03-6.6485-.0007-.13.1312-.0009q14.4011-.1044,28.8024-.1191c9.6007-.0129,19.2017.0811,28.8024.1413l.11.0007-.0014.1076Zm-.0337-.0338L60.56,34.9324l.1082.1082c-9.6007.06-19.2017.1542-28.8024.1413q-14.4011.0051-28.8024-.1191l.13-.13-.03,6.6485-.1-.1c4.7956.0412,9.5931.0162,14.3789-.0174L31.79,41.3981c4.77-.031,9.5893.0418,14.39.055Z"/><text class="cls-2" transform="translate(3.0637 33.8471)">Stakeholder:</text><path class="cls-1" d="M60.6853,55.12l-14.3311.1111c-4.8.0133-9.5819.086-14.4124.0551L17.487,55.22c-4.8151-.0336-9.6184-.0586-14.4235-.0174l-.1.0009-.0005-.1009-.03-6.6485-.0007-.13.1312-.0009q14.4011-.1044,28.8024-.1192c9.6007-.0128,19.2017.0811,28.8024.1413l.11.0007-.0014.1077Zm-.0337-.0337L60.56,48.4541l.1082.1082c-9.6007.06-19.2017.1542-28.8024.1413q-14.4011.0051-28.8024-.1191l.13-.13-.03,6.6485-.1-.1c4.7956.0412,9.5931.0163,14.3789-.0173L31.79,54.92c4.77-.031,9.5893.0419,14.39.0551Z"/><text class="cls-2" transform="translate(3.0637 47.3686)">Rahmenbedingungen:</text><text class="cls-2" transform="translate(3.0637 61.3266)">Ziel und Bedürfnis:</text><path class="cls-1" d="M60.6853,90.6054l-14.3342.1066-14.4051.07L3.0635,90.6693l-.08,0,0-.08L2.933,78.88l0-.13.131-.0006,28.8024-.1214q14.4011-.0127,28.8024.115l.1385.0009-.0014.1362Zm-.0337-.0336-.12-11.692.1368.137q-14.4011.105-28.8024.115L3.0635,79.01l.13-.13-.05,11.7088-.0805-.0807,28.7224-.1125,14.3975.07Z"/><text class="cls-2" transform="translate(3.0637 77.5532)">Meilensteine:</text><path class="cls-1" d="M60.6853,28.652l-14.3311.1111c-4.8.0132-9.5819.086-14.4124.055L17.487,28.7524c-4.8151-.0335-9.6184-.0585-14.4235-.0173l-.1.0009-.0005-.1009-.03-6.6485-.0007-.13.1312-.001q14.4011-.1043,28.8024-.1191c9.6007-.0129,19.2017.0811,28.8024.1413l.11.0007-.0014.1077Zm-.0337-.0337L60.56,21.9866l.1082.1082c-9.6007.06-19.2017.1541-28.8024.1412q-14.4011.0051-28.8024-.1191l.13-.13-.03,6.6485-.1-.1c4.7956.0412,9.5931.0163,14.3789-.0173L31.79,28.4522c4.77-.031,9.5893.0418,14.39.0551Z"/><text class="cls-2" transform="translate(3.0637 20.9008)">Insights:</text><path class="cls-1" d="M3.0633,65.7533c4.8-.18,9.6-.2473,14.4005-.23,2.4.02,4.8009.0893,7.2013.0865,2.4.0174,4.8-.0539,7.2-.0765,4.8-.0921,9.6-.177,14.4007-.172,2.4-.0155,4.8007.0156,7.2011.0447,2.4.0241,4.8007.0489,7.201.12l0,.0476c-2.4.09-4.8.1341-7.2.1771-2.4.048-4.8.0981-7.2.1017-4.8005.0427-9.6012-.0043-14.4019-.0584-2.4-.0036-4.8007-.0559-7.2009-.02-2.4.0161-4.8.1039-7.2.1434-4.8.0548-9.601.025-14.4019-.1167Z"/><path class="cls-1" d="M3.0633,71.2319c4.8-.18,9.6-.2472,14.4005-.23,2.4.02,4.8009.0892,7.2013.0864,2.4.0174,4.8-.0539,7.2-.0763,4.8-.0922,9.6-.1771,14.4007-.1722,2.4-.0155,4.8007.0157,7.2011.0448,2.4.0241,4.8007.049,7.201.12l0,.0476c-2.4.09-4.8.1341-7.2.177-2.4.0482-4.8.0982-7.2.1017-4.8005.0428-9.6012-.0042-14.4019-.0584-2.4-.0036-4.8007-.0558-7.2009-.0195-2.4.0161-4.8.1039-7.2.1433-4.8.0548-9.601.0251-14.4019-.1167Z"/></g></g></g></svg>