<svg xmlns="http://www.w3.org/2000/svg" viewBox="0 0 72.0224 53.0777"><defs><style>.cls-1{fill:#0087b9;}.cls-2{fill:none;}.cls-3{fill:#575756;}</style></defs><title>Element 32</title><g id="Ebene_2" data-name="Ebene 2"><g id="Ebene_1-2" data-name="Ebene 1"><g id="Illustrationen"><path class="cls-1" d="M43.3852,30c1.5723-2.5625,3.1958-5.09,4.844-7.6019l2.4846-3.7587c.8477-1.24,1.6864-2.4856,2.5506-3.7143,1.7328-2.4543,3.481-4.8983,5.1672-7.3841C60.11,5.05,61.7464,2.5305,63.3662,0l.3908.223C62.6514,2.679,61.5193,5.1224,60.38,7.5619q-1.692,3.6679-3.4572,7.3011c-1.1523,2.4337-2.3644,4.839-3.5519,7.2559q-1.8087,3.6124-3.6748,7.1974l-.0613-.0291q1.5985-3.7123,3.2695-7.39c1.1271-2.4456,2.23-4.903,3.3922-7.3319q1.7154-3.6567,3.487-7.2867C60.9577,4.855,62.14,2.4358,63.35.0291l.391.223c-1.7368,2.4517-3.4574,4.9144-5.1354,7.4056-1.6706,2.4963-3.279,5.0345-4.9027,7.5623-.8142,1.2623-1.654,2.5075-2.4846,3.7588l-2.55,3.7145c-1.7085,2.4707-3.4416,4.9248-5.226,7.3444Z"/><polygon class="cls-2" points="32.843 26.087 33.958 39.091 26.671 45.188 28.295 39.612 24.589 37.232 32.843 26.087"/><polygon class="cls-2" points="26.671 45.188 31.207 46.824 32.843 46.506 28.084 52.029 26.671 45.188"/><path class="cls-3" d="M33.9368,39.0643a26.2789,26.2789,0,0,1,2.4749-2.3413,29.1331,29.1331,0,0,1,2.7437-2.01,24.0041,24.0041,0,0,0,2.5805-2.2111c.8266-.7784,1.6942-1.506,2.5544-2.2431l.0732.6061c-.8733-.397-1.7278-.8333-2.572-1.2919q-1.2744-.67-2.494-1.4573l.029-.0614q1.3816.4428,2.7112.9966c.8909.3593,1.7713.741,2.6331,1.1619l.5286.258-.4554.3483c-.9.6881-1.7918,1.3857-2.725,2.0325A23.9956,23.9956,0,0,0,39.32,34.9164a29.1036,29.1036,0,0,1-2.5359,2.2661A26.2784,26.2784,0,0,1,33.98,39.1169Z"/><polygon class="cls-2" points="13.955 29.944 3.221 39.563 9.064 30.539 13.955 29.944"/><path class="cls-3" d="M44.5387,30.5654a39.024,39.024,0,0,1-4.304,3.8542c-.7744.5728-1.5806,1.1068-2.34,1.6979s-1.4765,1.2336-2.1827,1.89c-1.4054,1.32-2.8637,2.5763-4.35,3.7982C29.8532,43,28.3161,44.16,26.6924,45.2143l-.0431-.0525c1.3507-1.387,2.7881-2.6684,4.2537-3.9155,1.4882-1.2195,3.0045-2.4049,4.5732-3.5262.7811-.5647,1.5517-1.1422,2.2789-1.7726s1.4086-1.3164,2.1215-1.9642a39.0006,39.0006,0,0,1,4.619-3.47Z"/><path class="cls-3" d="M24.57,37.26q-2.7279-1.72-5.4144-3.501c-1.8007-1.1732-3.5792-2.3786-5.36-3.58l.19.048c-1.6342.1907-3.269.3734-4.9069.528l.2065-.1208c-1.2518,1.76-2.5563,3.482-3.8392,5.22-1.2969,1.7277-2.5593,3.48-3.8242,5.23l-.1443-.144c1.7414-1.26,3.4866-2.5149,5.2082-3.8027l5.1783-3.8444.1993-.1479.1666.1934,4.098,4.7579c1.3612,1.59,2.7306,3.173,4.07,4.7813q4.0557,4.7935,8.0213,9.6633l-.3736,0q2.7244-3.1173,5.4934-6.1971l.0518.0437q-2.5594,3.2562-5.1713,6.4683l-.18.2219-.1936-.2216q-4.1307-4.73-8.1891-9.5215c-1.362-1.5892-2.6945-3.2035-4.0349-4.8111l-4.0072-4.8346.3656.0456L6.8738,37.4C5.1006,38.616,3.3509,39.8644,1.5975,41.108l-.4871.3454.3426-.4895c1.2385-1.7692,2.48-3.5366,3.6862-5.3285C6.36,33.8534,7.5587,32.056,8.81,30.296l.0751-.1054.1318-.0155c1.6338-.1924,3.2707-.3567,4.9083-.513l.1068-.01.0838.0583c1.7633,1.2276,3.5292,2.4512,5.2731,3.7071q2.6286,1.8653,5.219,3.7863Z"/><path class="cls-1" d="M26.6386,45.1777a30.02,30.02,0,0,1,1.3064-4.8964c.3034-.7887.6547-1.562.9356-2.3578A25.2014,25.2014,0,0,0,29.58,35.49c.3917-1.6462.8625-3.267,1.3753-4.8744a47.485,47.485,0,0,1,1.8552-4.7209l.0646.0207a47.5346,47.5346,0,0,1-1.2308,4.9207c-.516,1.6064-1.0738,3.1994-1.7106,4.7671A25.2208,25.2208,0,0,0,29.09,37.99c-.2333.8112-.3964,1.6447-.6073,2.463a30.0434,30.0434,0,0,1-1.78,4.745Z"/><path class="cls-3" d="M11.7633,30.1855l-2.92-7.3385L5.9678,15.4918.2876.7542,0,.008l.71.37L9.36,4.8824l8.62,4.563q8.612,4.5786,17.2971,9.0157l.0376.0192.0174.04,4.153,9.4908-.0926-.0959L44.6157,30.33l-.1523-.0157,7.7194-1.9163.1083-.0268.1.0553L71.1622,38.7793l.86.4745-.9652.1862L61.109,41.36c-3.3139.65-6.6382,1.2488-9.9571,1.8735-6.6425,1.2268-13.2761,2.4994-19.9259,3.6886l-.0286.0051-.0247-.0093L26.6594,45.22l.0231-.0637L31.2408,46.73l-.053-.0041c6.6109-1.3887,13.2381-2.6939,19.8565-4.0449,3.3113-.6642,6.6176-1.3547,9.9339-1.9931l9.9431-1.9464-.105.6607L52.11,28.9336l.2084.0285-7.7471,1.8016-.081.0188-.0717-.0345-5.1868-2.4924-.0656-.0315-.0271-.0645-4.0265-9.5451.0548.0588q-8.6447-4.5156-17.3545-8.9049L9.1072,5.371.4315.9155.8536.539,6.3978,15.3283l2.7366,7.4081,2.6923,7.425Z"/><path class="cls-3" d="M70.9882,39.1244c-2.93.1253-5.8542.1-8.7739-.0585-1.4591-.1-2.9166-.2495-4.3765-.3255-1.46-.0711-2.9224-.0848-4.3853-.0778-2.9262.0264-5.8495-.03-8.7712-.1308-2.9206-.1363-5.84-.317-8.7539-.6342L35.93,37.83c2.9292-.1129,5.8537-.0891,8.7765-.0209,2.9217.1038,5.8419.2518,8.759.4827,1.459.1092,2.9184.1977,4.38.229,1.4618.0261,2.926-.0215,4.3886-.0188,2.9237.0462,5.8427.2252,8.7565.5548Z"/><path class="cls-1" d="M28.41,39.7262a1.6767,1.6767,0,0,1-1.094-.4076,5.914,5.914,0,0,0-.3868-.4532,1.3289,1.3289,0,0,0-.5209-.2446,3.4091,3.4091,0,0,1-1.0549-.4684A2.6442,2.6442,0,0,1,24.57,37.26l.0366-.0571a2.6444,2.6444,0,0,1,1.1371.3408,3.4113,3.4113,0,0,1,.8647.7646,1.326,1.326,0,0,0,.4391.3719,5.883,5.883,0,0,0,.5729.1633,1.6771,1.6771,0,0,1,.8258.8255Z"/><path class="cls-3" d="M1.5151,40.9983a16.286,16.286,0,0,1,2.6468-2.6254c.5-.37,1.0331-.7014,1.5177-1.0888A13.6389,13.6389,0,0,0,7.0348,36.008a35.6981,35.6981,0,0,1,2.6943-2.5708,25.2225,25.2225,0,0,1,3.0244-2.19l.0445.0512a25.206,25.206,0,0,1-2.5948,2.6854,35.6766,35.6766,0,0,1-2.925,2.3049A13.64,13.64,0,0,0,5.8237,37.45c-.4519.4252-.8554.9061-1.2919,1.349A16.2855,16.2855,0,0,1,1.56,41.05Z"/><path class="cls-3" d="M12.8028,31.2521c1.4318,1.5749,2.7509,3.2347,4.0434,4.9146,1.2983,1.6754,2.3824,3.5124,3.6653,5.1993,1.2654,1.7,2.68,3.2879,3.9861,4.9577s2.6283,3.3271,3.8586,5.0538l-.6057.279c-.2045-1.0726-.4137-2.1442-.6034-3.22-.1855-1.0769-.367-2.1547-.5094-3.241l.0663-.0146c.3285,1.0452.6181,2.0991.9034,3.1538.2813,1.0558.5431,2.1158.8095,3.1747l.3824,1.5195-.9882-1.24C26.49,50.13,25.2618,48.4019,24.0157,46.687s-2.3819-3.5128-3.6678-5.1975c-1.2683-1.6982-2.7356-3.2463-3.9885-4.9559-1.2589-1.7052-2.491-3.4305-3.6107-5.2407Z"/><path class="cls-1" d="M33.9244,39.0934a12.9153,12.9153,0,0,1-.5264-3.2754c.002-.5535.054-1.1112.0323-1.6627a10.79,10.79,0,0,0-.2148-1.6418,28.2159,28.2159,0,0,1-.4544-3.2816,19.9945,19.9945,0,0,1,.0479-3.324l.0676-.0057a19.996,19.996,0,0,1,.6053,3.2687,28.2147,28.2147,0,0,1,.1035,3.3113,10.792,10.792,0,0,0,.0641,1.6546c.0712.5472.2162,1.0883.311,1.6336a12.9153,12.9153,0,0,1,.0314,3.3173Z"/><path class="cls-3" d="M39.5047,28.1116A4.241,4.241,0,0,1,38.21,29.4839c-.2684.164-.5794.2756-.8346.4559a3.485,3.485,0,0,0-.6782.6485,8.92,8.92,0,0,1-1.3409,1.3161,6.5639,6.5639,0,0,1-1.6584.9251l-.0428-.0527A6.561,6.561,0,0,1,34.9,31.343,8.9389,8.9389,0,0,1,36.4626,30.3a3.49,3.49,0,0,0,.7736-.5309c.2288-.2129.4017-.4944.6173-.7235a4.24,4.24,0,0,1,1.6084-.9867Z"/><path class="cls-3" d="M1.2758,1.3758C3.5837,3.9133,5.8416,6.4931,8.0894,9.0816c2.2332,2.6007,4.4745,5.1945,6.659,7.8364s4.3161,5.3287,6.5177,7.9561c2.1827,2.6435,4.4316,5.231,6.6857,7.8139l-.2719.23q-3.4735-3.9578-6.9061-7.95c-2.2844-2.6649-4.5765-5.3231-6.8261-8.0173-2.27-2.6773-4.5044-5.3842-6.7364-8.0932Q3.868,4.79.5885.6684L.64.6246q3.5228,3.9161,6.978,7.8889c2.3016,2.65,4.6,5.3029,6.8644,7.9851,2.2838,2.6652,4.5252,5.3664,6.7744,8.0609q3.3762,4.04,6.6947,8.1285l-.2719.23c-2.1736-2.6513-4.3523-5.2981-6.5973-7.8888-2.2261-2.6068-4.5227-5.1538-6.7653-7.7466S9.8878,12.05,7.6935,9.4165c-2.18-2.6458-4.35-5.3-6.4695-7.9969Z"/><path class="cls-1" d="M32.87,25.925a14.4725,14.4725,0,0,1-1.8628,2.978c-.3832.4433-.8069.857-1.171,1.3143a12.1164,12.1164,0,0,0-.9705,1.46,31.6549,31.6549,0,0,1-1.9212,2.9353,22.3976,22.3976,0,0,1-2.3285,2.6385l-.0548-.04A22.41,22.41,0,0,1,26.36,34.1869a31.6774,31.6774,0,0,1,2.2059-2.7279,12.1005,12.1005,0,0,0,1.0928-1.3713c.3237-.4866.5878-1.0167.8925-1.5172a14.48,14.48,0,0,1,2.2642-2.6854Z"/></g></g></g></svg>