<svg xmlns="http://www.w3.org/2000/svg" viewBox="0 0 99.0693 71.5206"><defs><style>.cls-1{fill:#0087b9;}.cls-2{fill:#575756;}</style></defs><title>Element 6</title><g id="Ebene_2" data-name="Ebene 2"><g id="Ebene_1-2" data-name="Ebene 1"><g id="Illustrationen"><path class="cls-1" d="M60.3886,10.0761l8.8575-4.4172.0149.2964L64.7873,4.3718l.1525-.0077L57.136,8.1813l-.1266.062-.1219-.0759L47.0012,2.0183l.2012.0416-5.1373.7881.1142-.5512c3.791,2.3872,7.5835,4.7717,11.3553,7.19l.3617.2318-.3849.181-10.47,4.9277-.0741.0348-.0664-.0446-5.3779-3.6078L32.1353,7.616l.1131.0048L28.9006,9.476l.0092-.2154,10.6154,6.9955.2649.1745-.2868.14L23.4018,24.43l-.0193-.5321,4.3088,1.675-.2491.009,14.595-7.0654,14.6213-7.01.1709-.0819.16.1c5.5132,3.4544,10.9882,6.97,16.4842,10.4515l-.2474-.0033,3.3-1.9211-.0048.3643Zm.0677.0038,16.2918,9.9743.2984.1826-.3032.1817-3.2745,1.9639-.1232.0738-.1244-.0771C67.69,18.9528,62.1386,15.56,56.6251,12.1063l.331.0185L42.3473,19.1616l-14.6351,6.982-.1239.0591-.1255-.05L23.17,24.4383l-.6206-.2478.6012-.2845,16.1961-7.6624-.0219.3144L28.77,9.4705l-.1734-.1165.1826-.099,3.3638-1.8259.0584-.0317.0549.0365,5.3961,3.5805,5.4057,3.566-.14-.01L53.3069,9.4738l-.023.4127c-3.8211-2.3389-7.6214-4.7112-11.4234-7.0809l-.6893-.43.8035-.1217,5.1386-.778.1092-.0166.0922.0583L57.161,7.7308l-.2482-.0139,7.8561-3.7086.0763-.036.0765.0284,4.4491,1.6519.3639.1351-.349.1615Z"/><path class="cls-1" d="M43.7258,20.7666a28.6135,28.6135,0,0,0-5.33,3.0373q-1.2439.8987-2.3988,1.9075c-.7729.6672-1.4972,1.3866-2.2114,2.1107l-.2512-.4411c1.31-.3431,2.6176-.6994,3.9308-1.0317l3.9469-.9673-.0769.0323a26.9176,26.9176,0,0,1,6.2952-2.69,25.1714,25.1714,0,0,1,6.7564-.9392,26.0806,26.0806,0,0,1,6.7728.8856,32.9182,32.9182,0,0,1,6.3764,2.5058l-.297.006,3.3451-2.0093-.0024.5677a44.3239,44.3239,0,0,0-6.3063-3.0257,31.7383,31.7383,0,0,0-6.7687-1.6824,28.3806,28.3806,0,0,0-6.99-.0767A25.9373,25.9373,0,0,0,43.7258,20.7666Zm-.0267-.0624a31.01,31.01,0,0,1,6.7749-2.0364,26.0194,26.0194,0,0,1,7.1048-.2492,28.3536,28.3536,0,0,1,6.94,1.6343,38.38,38.38,0,0,1,6.4034,3.122l.4813.2867-.4836.2811-3.3736,1.9607-.1479.0861-.1491-.08a35.5907,35.5907,0,0,0-6.2006-2.6477,23.17,23.17,0,0,0-6.6629-1.0479A21.6048,21.6048,0,0,0,47.7119,23a26.73,26.73,0,0,0-6.0878,2.8845l-.0335.0213-.0436.0112-3.9337,1.02c-1.3137.33-2.6335.6361-3.95.9554l-.9417.2284.6905-.67a32.5125,32.5125,0,0,1,4.8513-3.84A35.3057,35.3057,0,0,1,43.6991,20.7042Z"/><path class="cls-1" d="M79.1428,3.9674c-.724.2419-1.39.4833-2.0491.6763l.1123-.2943a58.9168,58.9168,0,0,1,3.7822,5.497c.5784.9516,1.1476,1.91,1.7823,2.8226q.9494,1.3718,1.963,2.6995l-.2762-.0583q.8641-.6021,1.7431-1.18l-.0843.405c-.6214-.838-1.2165-1.69-1.8211-2.5313-.6012-.8436-1.18-1.7048-1.7538-2.5791l-1.7044-2.67C80.2734,5.8441,79.7059,4.9277,79.1428,3.9674Zm.024-.0635c.6363.7793,1.2682,1.6022,1.9042,2.4316l1.8941,2.5482c.6257.8652,1.2462,1.7435,1.8444,2.6394.5948.8981,1.1992,1.7857,1.7774,2.6873l.1655.2584-.25.1467q-.9074.5326-1.83,1.0412l-.1805.0995-.0958-.1578q-.8668-1.428-1.7958-2.8135c-.6181-.9246-1.3018-1.8043-1.9764-2.69a59.0091,59.0091,0,0,1-3.7353-5.5291l-.1471-.24.26-.0539C77.7474,4.1163,78.4859,4.01,79.1668,3.9039Z"/><path class="cls-2" d="M41.6208,2.28l6.3047-1.1488C50.0332.7536,52.1444.3687,54.264.0143L54.35,0,54.44.0314l8.1276,2.8157c2.7119.9307,5.4048,1.9144,8.1081,2.8691l-.3173-.0168c4.5468-1.139,9.0787-2.3382,13.6377-3.4279l.175-.0418.1627.0568,6.9084,2.4191L98.1286,7.189l.9407.3392-.8569.4889-9.4811,5.4087L79.2946,18.91l-9.3787,5.582L60.5821,30.15l-.1453.0881-.1694-.059c-4.77-1.6621-9.5432-3.315-14.3012-5.0091l.3278.0168L33.103,28.6113l-.2.0519-.2-.0775-8.5844-3.3292c-2.865-1.1-5.7139-2.2422-8.5677-3.3712l.37.0406L3.851,23.8035,0,24.4025,3.4163,22.53c3.1675-1.736,6.3617-3.42,9.5393-5.1318L22.5,12.2961,32.055,7.25Zm.0437.1284L32.2812,7.8305l-9.3937,5.3462-9.4048,5.29c-3.1387,1.7528-6.2609,3.5326-9.41,5.2608l-.4347-1.2731L15.7,20.5271l.1893-.03.1806.0709c2.857,1.1211,5.719,2.23,8.5646,3.3792l8.548,3.4213-.4-.0257,13.2376-3.2394.1708-.0418.1573.0586c4.7329,1.7637,9.4507,3.5688,14.1717,5.3645l-.3146.0291,9.4589-5.4463,9.4139-5.5228,9.3559-5.6206,9.3114-5.696.0837.828L90.8764,5.7666,83.9455,3.4131l.3373.015C79.7419,4.5915,75.1741,5.6456,70.6211,6.76l-.1644.04-.1532-.057c-2.6869-1-5.3843-1.9707-8.0626-2.9945L54.1976.7006l.176.017c-2.1058.305-4.22.5793-6.3376.8613Z"/><path class="cls-2" d="M44.487,31.2348a29.8438,29.8438,0,0,0-10.27,1.7955,16.6744,16.6744,0,0,0-4.4529,2.3974,6.8975,6.8975,0,0,0-1.5854,1.79,4.7288,4.7288,0,0,0-.6354,2.2165,4.6791,4.6791,0,0,0,.5224,2.2808,6.5807,6.5807,0,0,0,1.5619,1.8977,13.6827,13.6827,0,0,0,4.526,2.4221,30.138,30.138,0,0,0,10.3327,1.2962,38.0717,38.0717,0,0,0,10.2057-1.6949,14.31,14.31,0,0,0,4.448-2.2833,6.607,6.607,0,0,0,1.5545-1.7607,4.4193,4.4193,0,0,0,.0217-4.329,6.6817,6.6817,0,0,0-1.5414-1.7912A16.1182,16.1182,0,0,0,54.7508,33.05,29.8606,29.8606,0,0,0,44.487,31.2348Zm0-.1357A42.7115,42.7115,0,0,1,55.0227,32.2a14.197,14.197,0,0,1,4.9635,2.249,7.3152,7.3152,0,0,1,1.9372,2.1251,5.833,5.833,0,0,1,.7951,2.8609,5.7678,5.7678,0,0,1-.7691,2.8764,7.4072,7.4072,0,0,1-1.9314,2.15A15.6032,15.6032,0,0,1,55.08,46.8518a32.9741,32.9741,0,0,1-10.594,1.2222,46.1364,46.1364,0,0,1-5.286-.485A35.4774,35.4774,0,0,1,34.02,46.4541a16.5558,16.5558,0,0,1-4.8612-2.2494,7.3558,7.3558,0,0,1-1.9165-2.0188,5.4055,5.4055,0,0,1-.1121-5.5672,7.15,7.15,0,0,1,1.8933-2.1258,13.8629,13.8629,0,0,1,4.9345-2.2735A42.7727,42.7727,0,0,1,44.487,31.0991Z"/><path class="cls-2" d="M44.487,33.0489a22.4313,22.4313,0,0,0-7.9858,1.4778,13.6775,13.6775,0,0,0-3.4231,1.883,4.2288,4.2288,0,0,0-1.6932,3.0261,4.1148,4.1148,0,0,0,1.559,3.1969A10.53,10.53,0,0,0,36.4406,44.54a22.7172,22.7172,0,0,0,8.0486.9777,30.4151,30.4151,0,0,0,7.9216-1.3751,11.0156,11.0156,0,0,0,3.4173-1.77A5.0743,5.0743,0,0,0,57,41.0408a3.32,3.32,0,0,0,.43-1.6049,3.9456,3.9456,0,0,0-1.57-2.9817,13.0542,13.0542,0,0,0-3.3941-1.9078A22.45,22.45,0,0,0,44.487,33.0489Zm0-.1357a35.6925,35.6925,0,0,1,8.2517.7829,11.037,11.037,0,0,1,3.9335,1.7347,5.1893,5.1893,0,0,1,2.2046,4.0056A4.6447,4.6447,0,0,1,58.255,41.76a5.8707,5.8707,0,0,1-1.5488,1.72,12.3125,12.3125,0,0,1-3.9069,1.8775,25.2868,25.2868,0,0,1-8.31.9024,39.0062,39.0062,0,0,1-4.1315-.4138,28.2229,28.2229,0,0,1-4.0511-.8876,13.4689,13.4689,0,0,1-3.8318-1.7339,9.7007,9.7007,0,0,1-.8316-.7119,4.9606,4.9606,0,0,1-.6933-.8838,4.4875,4.4875,0,0,1-.694-2.1928,4.9492,4.9492,0,0,1,2.081-3.9611,10.7219,10.7219,0,0,1,3.9048-1.7593,23.2759,23.2759,0,0,1,4.1208-.6393C41.74,32.98,43.1125,32.9112,44.487,32.9132Z"/><path class="cls-2" d="M26.9787,44.7946A5.3585,5.3585,0,0,0,28.33,47.73a8.93,8.93,0,0,0,2.5609,1.9186A18.1358,18.1358,0,0,0,33.91,50.8722a27.0333,27.0333,0,0,0,3.1921.8077,49.7086,49.7086,0,0,0,6.5881.8453c2.2227.1413,4.4579.1555,6.7263.0994a27.3835,27.3835,0,0,1-6.747.959,31.3881,31.3881,0,0,1-6.8358-.5749,19.1365,19.1365,0,0,1-6.4768-2.4513,8.4964,8.4964,0,0,1-2.555-2.4284A4.9553,4.9553,0,0,1,26.9787,44.7946Z"/><path class="cls-2" d="M86.9942,64.9211a.2436.2436,0,0,1,.0308-.0917l.0227.0979c-2.9649-1.5858-5.8794-3.25-8.7631-4.9624-2.8794-1.72-5.7482-3.4558-8.5655-5.2767-2.8076-1.8362-5.5622-3.7616-8.3566-5.6228a5.6234,5.6234,0,0,0-2.285-.7119,6.751,6.751,0,0,0-2.4235.1684,4.8549,4.8549,0,0,0-2.1062,1.1213A4.0946,4.0946,0,0,0,53.3859,51.68l-.1159-.293,7.7349,4.5187c2.5723,1.5159,5.1155,3.0782,7.6669,4.6274C71.2245,62.08,73.763,63.65,76.27,65.27c2.518,1.6025,5.01,3.2464,7.4962,4.9l-.7255.1669.02-.03.2936-.4419.4179.2674a2.8623,2.8623,0,0,0,2.1228.4017,2.9711,2.9711,0,0,0,1.86-1.2356,3.1621,3.1621,0,0,0,.5133-2.26,3.1184,3.1184,0,0,0-.4182-1.1424,3.4407,3.4407,0,0,0-.367-.5024C87.3429,65.2293,87.1987,65.1186,86.9942,64.9211Zm.1326-.0284a1.8662,1.8662,0,0,1,.51.3461,3.1863,3.1863,0,0,1,.458.4906,3.4832,3.4832,0,0,1,.5936,1.2191,3.5692,3.5692,0,0,1-.362,2.7074A3.7582,3.7582,0,0,1,83.24,71.0385l.7114-.1744-.0184.0313-.26.4411-.4661-.2741c-2.5735-1.5138-5.1412-3.0372-7.6827-4.6022-2.5526-1.5473-5.0738-3.145-7.5807-4.765C65.4359,60.077,62.9193,58.472,60.432,56.82l-7.4441-4.9833-.1686-.113.0527-.18a4.7281,4.7281,0,0,1,1.374-2.229A5.4326,5.4326,0,0,1,56.55,48.1221a7.3538,7.3538,0,0,1,5.0746.5055c2.8927,1.6989,5.8252,3.3336,8.7044,5.0575,2.87,1.7392,5.688,3.5637,8.4958,5.4037,2.8033,1.8474,5.576,3.7436,8.2982,5.7178l.0225.0982A.0259.0259,0,0,0,87.1268,64.8927Z"/><path class="cls-2" d="M83.4045,69.0637a2.9169,2.9169,0,0,1,.204-1.4171,3.0076,3.0076,0,0,1,.8624-1.21,2.4853,2.4853,0,0,1,1.3881-.5789,2.6606,2.6606,0,0,1,1.4188.2405,8.128,8.128,0,0,0-1.311.2777,2.9467,2.9467,0,0,0-1.0642.5833A6.3443,6.3443,0,0,0,83.4045,69.0637Z"/></g></g></g></svg>