<svg xmlns="http://www.w3.org/2000/svg" viewBox="0 0 75.1701 73.6286"><defs><style>.cls-1{fill:#575756;}.cls-2{fill:#fff;}.cls-3{fill:#0087b9;}</style></defs><title>Element 29</title><g id="Ebene_2" data-name="Ebene 2"><g id="Ebene_1-2" data-name="Ebene 1"><g id="Illustrationen"><path class="cls-1" d="M30.8688,22.4252c-1.9545.0582-3.9082.0774-5.8616.0823l-.4035.0009.2272-.3459c1.2226-1.8623,2.5021-3.6851,3.75-5.53q1.9083-2.7417,3.8917-5.431,1.9895-2.685,3.9079-5.42,1.9-2.7477,3.7437-5.5341L40.2883,0,40.45.2614c2.2711,3.681,4.4636,7.4077,6.6622,11.1309l3.2366,5.62c1.053,1.8886,2.1269,3.7648,3.1625,5.6635l.1891.3469-.384-.0151c-1.8991-.0752-3.7978-.177-5.6964-.2874l.0012-.0678c1.9012-.0434,3.8024-.0781,5.703-.0862l-.1947.3315c-1.1373-1.8394-2.2361-3.7013-3.3561-5.551l-3.282-5.594C44.3439,8,42.1907,4.25,40.1161.4552l.3249.0132q-1.9768,2.6939-3.8922,5.4308-1.8961,2.75-3.7281,5.5449T29.0766,16.978c-1.297,1.81-2.5628,3.6427-3.8854,5.4353l-.1764-.3448c1.9522.0738,3.904.1619,5.8552.2889Z"/><path class="cls-2" d="M9.3288,16.2215c2.3787,1.83,4.4433,2.9657,7.9136,2.7416s6.3543-1.9948,9.39-2.1345,6.3751,1.91,9.1072,3.0984c3.6429.25,4.133-4.0064,10.4148-3.5524s6.5715,3.7548,9.9177,3.5524,6.8716-2.8759,10.4214-3.7055,7.91,1.024,8.4014,4.3127-2.8765,5.2267-2.9533,8.5836c-.6839,7.1516,3.6268,11.633,2.8375,17.5888s-3.6714,7.86-2.8375,11.9926,1.6234,5.294,2.0635,8.4923-.3188,6.0888-5.6273,5.4057c-7.138-.0508-6.2365-2.2389-10.7855-2.2074s-6.866,1.0451-10.2611,2.208-4.07-1.3288-8.4381-2.208-6.6923,1.9558-9.9318,2.5115-4.4124-1.3287-9.8974-2.5115-8.8244.74-10.3423,2.2074S.3365,73.3458.3365,68.6961s3.2244-6.1676,3.2244-8.9S.3365,52.9884.3365,45.0084s2.769-10.78,2.9208-14.0637S.3365,24.683.3365,19.927,6.95,14.391,9.3288,16.2215Z"/><path class="cls-1" d="M9.3494,16.1946A16.11,16.11,0,0,0,12.2875,18.06a9.1164,9.1164,0,0,0,3.3509.85,12.7659,12.7659,0,0,0,3.4588-.27c1.1359-.2441,2.2435-.6045,3.3531-.961a20.0548,20.0548,0,0,1,3.3964-.8717,8.332,8.332,0,0,1,3.5021.2619,49.7547,49.7547,0,0,1,6.46,2.7l-.057-.014a3.9408,3.9408,0,0,0,1.55-.2271,5.7662,5.7662,0,0,0,1.3924-.7774,17.9306,17.9306,0,0,1,2.7783-1.8432,8.2214,8.2214,0,0,1,3.2767-.7946,14.1986,14.1986,0,0,1,3.3471.2585,11.1508,11.1508,0,0,1,3.1783,1.1242c.996.5324,1.8628,1.2643,2.7911,1.7388a3.9947,3.9947,0,0,0,1.4713.4,6.6049,6.6049,0,0,0,1.5636-.15,16.2112,16.2112,0,0,0,3.0625-1.0385,40.5612,40.5612,0,0,1,6.1689-2.4669,8.3438,8.3438,0,0,1,3.3877-.086,7.91,7.91,0,0,1,3.1474,1.249,5.24,5.24,0,0,1,2.1025,2.6731,4.8575,4.8575,0,0,1-.2364,3.3844,29.8776,29.8776,0,0,1-1.6178,2.9058,6.5932,6.5932,0,0,0-.97,3.0176l0,.0094-.0005.0055a18.1869,18.1869,0,0,0,.4873,5.9946c.48,1.9663,1.1971,3.8742,1.7366,5.8494a13.9238,13.9238,0,0,1,.4832,6.0963,22.9524,22.9524,0,0,1-1.7945,5.85,16.0482,16.0482,0,0,0-.9931,2.862,6.9273,6.9273,0,0,0,.0137,2.9841q.3078,1.4919.7215,2.9579c.2737.9775.59,1.9455.8492,2.9363a20.9666,20.9666,0,0,1,.561,3.022,8.4077,8.4077,0,0,1,.0212,1.5517,4.4569,4.4569,0,0,1-.3674,1.526,3.3551,3.3551,0,0,1-2.4094,1.9149,9.0084,9.0084,0,0,1-3.0985.09l.021.0015a20.6682,20.6682,0,0,1-4.2575-.4,10.9555,10.9555,0,0,1-2.048-.6687,17.7427,17.7427,0,0,0-1.942-.79,12.289,12.289,0,0,0-4.1377-.2391,21.0709,21.0709,0,0,0-4.1323.6972c-1.3518.3646-2.6725.86-4.01,1.3291a6.3007,6.3007,0,0,1-2.15.4745,4.7786,4.7786,0,0,1-2.1554-.5654c-.6529-.32-1.2561-.6768-1.8842-.972a11.6737,11.6737,0,0,0-1.9333-.7308,8.09,8.09,0,0,0-4.0439-.1958,17.8387,17.8387,0,0,0-3.8661,1.5411,8.9828,8.9828,0,0,1-4.2216,1.0692A12.9306,12.9306,0,0,1,23.44,72.0939a26.5546,26.5546,0,0,0-3.9955-1.2561,15.8171,15.8171,0,0,0-4.1134-.4484,10.9715,10.9715,0,0,0-3.9838.8859,8.9064,8.9064,0,0,0-1.75,1.037c-.13.1078-.2649.2105-.39.323a3.7444,3.7444,0,0,1-.4257.3569,1.8915,1.8915,0,0,1-.54.2992,2.7186,2.7186,0,0,1-.556.1775,7.7137,7.7137,0,0,1-4.3787-.3906,5.83,5.83,0,0,1-1.9093-1.1691l-.2119-.1906-.1817-.2232a5.2831,5.2831,0,0,1-.3482-.4579,4.158,4.158,0,0,1-.4663-1.0541,5.807,5.807,0,0,1-.1505-2.2341A9.5177,9.5177,0,0,1,.5212,65.6a23.2318,23.2318,0,0,1,2.065-3.7614,4.3458,4.3458,0,0,0,.6211-1.85,5.74,5.74,0,0,0-.31-1.9656c-.4108-1.3242-.9506-2.648-1.3783-4.0066A29.6365,29.6365,0,0,1,.49,49.8609,26.2241,26.2241,0,0,1,.1078,45.599a28.9828,28.9828,0,0,1,.2334-4.2666,25.3647,25.3647,0,0,1,.9026-4.1764c.406-1.3662.9649-2.6772,1.4048-4.0081a8.4827,8.4827,0,0,0,.4473-2.0331A6.2062,6.2062,0,0,0,2.8933,29.06a39.3986,39.3986,0,0,0-1.5081-3.9478A14.9223,14.9223,0,0,1,.3214,20.9953c-.0424-.3535-.0343-.711-.0539-1.066a6.14,6.14,0,0,1,.1371-1.0651A4.0951,4.0951,0,0,1,1.418,16.9936a5.6361,5.6361,0,0,1,1.7731-1.1821,7.7235,7.7235,0,0,1,2.07-.5,7.398,7.398,0,0,1,2.1246.0855A4.772,4.772,0,0,1,9.3494,16.1946Zm-.0412.0538a4.7036,4.7036,0,0,0-1.9377-.7725,7.3106,7.3106,0,0,0-2.1-.0718,7.6254,7.6254,0,0,0-2.0381.5053,5.523,5.523,0,0,0-1.7279,1.1662,3.9679,3.9679,0,0,0-.9713,1.8191,6.0143,6.0143,0,0,0-.1272,1.0346c.0216.3507.0154.7033.06,1.0521a14.14,14.14,0,0,0,1.1,4.0585,39.4149,39.4149,0,0,1,1.5768,3.9533,6.4869,6.4869,0,0,1,.2424,2.143,8.7858,8.7858,0,0,1-.43,2.1084c-.4268,1.3624-.967,2.6664-1.349,4.02A24.9453,24.9453,0,0,0,.77,41.3854a28.53,28.53,0,0,0-.1758,4.2038,25.7236,25.7236,0,0,0,.4285,4.1778A29.0266,29.0266,0,0,0,2.085,53.83c.4388,1.3355.9875,2.6287,1.4337,4.0016a6.3543,6.3543,0,0,1,.365,2.1981,5.0031,5.0031,0,0,1-.7019,2.14,22.9875,22.9875,0,0,0-2.0133,3.6644,8.8213,8.8213,0,0,0-.4413,1.9823,5.1146,5.1146,0,0,0,.1282,1.9682,3.3744,3.3744,0,0,0,1.018,1.6134,5.134,5.134,0,0,0,1.6882,1.0264,7.0406,7.0406,0,0,0,3.9541.3564,2.0858,2.0858,0,0,0,.4519-.1439,1.2357,1.2357,0,0,0,.3837-.21,2.9563,2.9563,0,0,0,.3853-.3248c.1377-.1237.2841-.2361.4264-.3539a9.6153,9.6153,0,0,1,1.8916-1.1255,11.4974,11.4974,0,0,1,4.251-.9492,16.5156,16.5156,0,0,1,4.2975.4838,27.2681,27.2681,0,0,1,4.0884,1.3036,12.4211,12.4211,0,0,0,3.93,1.1987,8.3452,8.3452,0,0,0,3.922-.9919,18.3527,18.3527,0,0,1,4.0071-1.57,8.7208,8.7208,0,0,1,4.3417.2227,12.2,12.2,0,0,1,2.0244.7852c.65.3132,1.2633.683,1.8784.99a4.2188,4.2188,0,0,0,1.904.5262,5.7747,5.7747,0,0,0,1.9748-.426c1.3359-.4545,2.6725-.943,4.0574-1.3036a21.5642,21.5642,0,0,1,4.23-.6748,12.6842,12.6842,0,0,1,4.2891.2943,17.94,17.94,0,0,1,1.98.8245,10.5753,10.5753,0,0,0,1.9741.6643,20.0091,20.0091,0,0,0,4.1747.42l.0111,0,.01.0012a8.6894,8.6894,0,0,0,2.9739-.0636,3.0264,3.0264,0,0,0,2.2034-1.7206,5.8744,5.8744,0,0,0,.34-2.9213,20.7238,20.7238,0,0,0-.5344-2.9813c-.25-.9808-.56-1.9514-.8294-2.9362s-.507-1.9787-.7067-2.9794a7.157,7.157,0,0,1,.0056-3.0764,17.9615,17.9615,0,0,1,1.01-2.8979,22.7133,22.7133,0,0,0,1.7319-5.8072,13.6318,13.6318,0,0,0-.5242-5.9755c-.5486-1.949-1.2832-3.857-1.7863-5.8454a18.5715,18.5715,0,0,1-.5451-6.1194l-.0008.0146a6.9921,6.9921,0,0,1,.9986-3.2178,29.9429,29.9429,0,0,0,1.5744-2.871,4.386,4.386,0,0,0,.2007-3.0627,4.7508,4.7508,0,0,0-1.9289-2.4028A7.3983,7.3983,0,0,0,69.63,16.4137a7.8018,7.8018,0,0,0-3.168.1021,40.3387,40.3387,0,0,0-6.06,2.4811,15.2392,15.2392,0,0,1-3.1837,1.0719,7.1568,7.1568,0,0,1-1.7169.1488,4.5806,4.5806,0,0,1-1.6908-.47c-1.03-.5415-1.8542-1.2588-2.8015-1.77a10.6085,10.6085,0,0,0-3.0169-1.089,10.3979,10.3979,0,0,0-6.33.4225,17.6353,17.6353,0,0,0-2.7416,1.7638,6.1441,6.1441,0,0,1-1.4945.8017,4.3054,4.3054,0,0,1-1.6983.2226l-.0273-.0006-.03-.0134a49.5141,49.5141,0,0,0-6.3865-2.7834,8.1086,8.1086,0,0,0-3.413-.3061,19.4993,19.4993,0,0,0-3.3782.8179c-1.11.35-2.2249.7067-3.3706.9465a12.8825,12.8825,0,0,1-3.4911.2544,9.2149,9.2149,0,0,1-3.38-.8764A16.1837,16.1837,0,0,1,9.3082,16.2484Z"/><path class="cls-1" d="M66.1614,62.6259l-13.9255.14-14.0184.0918c-4.6818.0217-9.3689.05-14.0642.03-4.6911.0033-9.3857-.05-14.0674-.086L9.8839,62.8l.0022-.1984q.0921-8.92.0957-17.8395L9.9,26.9227l-.0008-.1845.1866-.0012c9.3418-.0583,18.6838-.1349,28.0257-.1486l14.0129-.02,14.0129.022.3348.0005-.0027.3317-.1374,17.92Zm-.048-.048-.3082-35.6552.3322.3322-14.0129.0219-14.0129-.02c-9.3419-.0137-18.6839-.09-28.0257-.1486l.1856-.1856-.0816,17.84q.0129,8.92.0957,17.8395l-.2-.2c4.66-.0358,9.3074-.0894,13.9583-.0861,4.6467-.02,9.3016.0084,13.9616.03l14.0072.0917Z"/><path class="cls-3" d="M63.6386,59.9466c-8.4315.1015-16.9469.2048-25.5078.2338-4.275.0264-8.5591.0448-12.8481.0257-4.2851.0041-8.5748-.0623-12.8495-.0946l-.19-.0014.0015-.1876.0617-7.68.0226-7.68q-.01-7.68-.081-15.36l-.0018-.1843.1874-.0014,12.7954-.0934,12.7954-.0571,12.7952-.0168,12.7954.0294.3263.0007-.0028.3229-.1326,15.4395Zm-.0479-.0479-.3-30.697.3236.3236-12.7954.0294L38.024,29.5378l-12.7954-.0571-12.7954-.0934.1856-.1856q-.0723,7.68-.0809,15.36l.0225,7.68.0617,7.68-.1889-.1887c4.2558-.0322,8.4962-.0987,12.7414-.0946,4.2412-.0192,8.4873-.0006,12.7426.0258C46.4165,59.6939,54.9616,59.7972,63.5907,59.8987Z"/></g></g></g></svg>