<svg xmlns="http://www.w3.org/2000/svg" viewBox="0 0 77.7694 90.586"><defs><style>.cls-1{fill:#0087b9;}.cls-2{fill:#575756;}</style></defs><title>Element 22</title><g id="Ebene_2" data-name="Ebene 2"><g id="Ebene_1-2" data-name="Ebene 1"><g id="Illustrationen"><path class="cls-1" d="M17.514,29.9091c.32.0306.6381.0827.959.134.3111.085.63.1569.9362.2688a6.8791,6.8791,0,0,1,1.7491.8984,5.1911,5.1911,0,0,1,1.3582,1.4376,5.97,5.97,0,0,1,.7791,1.806l-.0118-.031a12.9728,12.9728,0,0,1,.96,2.3244,17.5792,17.5792,0,0,1,.5954,2.4479,19.3032,19.3032,0,0,1,.1379,5.0422,16.2961,16.2961,0,0,1-1.2589,4.897,11.1057,11.1057,0,0,1-2.9055,4.0928l-.048-.0479a14.0872,14.0872,0,0,0,2.4058-4.2641,22.7236,22.7236,0,0,0,1.1022-4.7576,23.2169,23.2169,0,0,0,.0991-4.9036,11.302,11.302,0,0,0-1.2773-4.724l-.0057-.01-.0063-.0211a4.32,4.32,0,0,0-.939-1.5718A11.0167,11.0167,0,0,0,20.8,31.694a11.23,11.23,0,0,0-1.5666-.9674c-.5542-.2832-1.14-.5066-1.734-.7513Z"/><path class="cls-1" d="M5.1824,53.8342a12.2262,12.2262,0,0,1-2.5356-2.4414,13.1872,13.1872,0,0,1-1.8159-3.047,10.8,10.8,0,0,1-.8-3.4578A24.4317,24.4317,0,0,1,.1343,41.37a18.8725,18.8725,0,0,1,.5778-3.4813A12.26,12.26,0,0,1,2.17,34.6321,8.5666,8.5666,0,0,1,8.0016,30.82l.0172.0656a11.51,11.51,0,0,0-2.9906,1.66,10.869,10.869,0,0,0-2.255,2.4855A14.8275,14.8275,0,0,0,1.92,36.4937c-.25.51-.4628,1.037-.668,1.5705A16.9759,16.9759,0,0,0,.371,41.3975,10.76,10.76,0,0,0,.41,44.8436a14.9958,14.9958,0,0,0,.982,3.2672,18.4326,18.4326,0,0,0,3.8328,5.67Z"/><path class="cls-1" d="M15.3124,21.393a6.2923,6.2923,0,0,0-1.995-1.4165,3.7646,3.7646,0,0,0-2.3006-.3254A3.5773,3.5773,0,0,0,9.0943,20.8c-.27.2778-.485.6187-.7342.9263L7.7477,22.77l.0161-.0519a9.7418,9.7418,0,0,0,.2317,5.1372,5.7679,5.7679,0,0,0,1.3569,2.141,5.4258,5.4258,0,0,0,2.1724,1.1779l-.043-.0089a4.9716,4.9716,0,0,0,1.9711-.265,3.5465,3.5465,0,0,0,1.5737-1.1111,4.5489,4.5489,0,0,0,.7971-1.7931c.0679-.33.098-.6745.1464-1.0141l.0308-1.0447.0016-.0574.0015-.0071A8.3794,8.3794,0,0,0,16.2,23.528,3.0048,3.0048,0,0,0,15.3124,21.393Zm.0468-.0491A3.6478,3.6478,0,0,1,16.4213,23.5a9.2678,9.2678,0,0,1,.0969,2.4634l.0031-.0642.0743,1.1068c-.0313.3719-.0336.7491-.1011,1.1212a4.8931,4.8931,0,0,1-.9015,2.1147,3.9606,3.9606,0,0,1-1.9177,1.3062,5.5766,5.5766,0,0,1-2.2736.227l-.026-.0027-.0174-.0062A5.5085,5.5085,0,0,1,9.0315,30.308,6.549,6.549,0,0,1,7.76,27.9337a11.0914,11.0914,0,0,1-.45-2.6207,14.7828,14.7828,0,0,1,.022-2.6723l.0027-.0235.0135-.0287.543-1.1507a8.6161,8.6161,0,0,1,.76-1.0473,3.59,3.59,0,0,1,2.2934-1.2466,4.1712,4.1712,0,0,1,2.4738.6378A9.4222,9.4222,0,0,1,15.3592,21.3439Z"/><path class="cls-1" d="M6.5181,82.1755A10.31,10.31,0,0,1,6.149,80.43c-.0773-.5871-.1549-1.1757-.1852-1.7651a27.88,27.88,0,0,1-.0888-3.5382c.0484-1.1805.104-2.3595.0548-3.537-.0215-1.1778-.144-2.3547-.1959-3.5327-.0614-1.1779-.0768-2.3563-.1054-3.5345-.0211-1.1778.0278-2.3579.0548-3.5334.0054-1.1755-.0025-2.3507-.037-3.5232-.0188-.5861-.042-1.1718-.08-1.7548a12.5921,12.5921,0,0,0-.1954-1.6845l-.0179-.08.0081-.0562a12.9091,12.9091,0,0,0-.232-4.2569,16.3,16.3,0,0,1-.3907-2.1756,12.3517,12.3517,0,0,1,.016-2.218,21.31,21.31,0,0,1,.91-4.3068,42.7745,42.7745,0,0,1,1.5472-4.106l.0626.0261a28.9579,28.9579,0,0,0-2.2,8.412,12.02,12.02,0,0,0,.0276,2.1576,15.1105,15.1105,0,0,0,.4318,2.1233A12.9584,12.9584,0,0,1,5.8714,53.99l-.01-.1359a11.8154,11.8154,0,0,1,.2452,1.8172c.0459.5919.0765,1.1829.1029,1.7738.0493,1.1815.0718,2.362.0809,3.5421.0974,2.3576.0565,4.71-.0139,7.0653-.0338,1.1774-.1321,2.356-.1212,3.5335a34.3581,34.3581,0,0,0,.19,3.5284c.2257,2.3475.1164,4.7014.2388,7.0452Z"/><path class="cls-1" d="M17.9289,37.2084c.0051-.0152-.0091-.02.0209-.0532a.0525.0525,0,0,1,.0662.0136.336.336,0,0,1,.0361.0476l.0546.0938.0941.1908.1684.3882c.1068.2608.2058.5244.3009.7894.1892.53.3613,1.0664.5206,1.6064.3184,1.08.5861,2.1754.81,3.28a39.3155,39.3155,0,0,1,.747,6.72c-.0272,2.2768-.1966,4.4979-.3323,6.7476-.1522,2.2435-.3017,4.4837-.5638,6.73a48.39,48.39,0,0,0-.6506,6.67,39.0223,39.0223,0,0,0,.31,6.67,10.7716,10.7716,0,0,0,.902,3.1553,7.7713,7.7713,0,0,0,.4343.7124.9965.9965,0,0,1,.1419.5013.8.8,0,0,1-.1954.5087,2.8155,2.8155,0,0,1-1.6462.6948,8.4044,8.4044,0,0,1-1.7151.0775,5.2532,5.2532,0,0,1-1.6979-.3311,1.31,1.31,0,0,1-.3961-.2534,1.4693,1.4693,0,0,1-.2371-.4008,5.361,5.361,0,0,1-.3015-.806,12.5368,12.5368,0,0,1-.3688-1.66,47.9814,47.9814,0,0,1-.4474-6.7347c-.0341-2.2481.0056-4.496.0744-6.7418l.1124-3.3675a9.9193,9.9193,0,0,0-.2651-3.2933,3.2811,3.2811,0,0,0-.3087-.735c-.1215-.2217-.3328-.41-.457-.3677-.1415.0278-.2917.2775-.3738.5141a4.3233,4.3233,0,0,0-.187.78c-.1672,1.0761-.0573,2.21-.155,3.3457-.3414,4.5062-1.2789,8.9208-1.5058,13.3764a20.4643,20.4643,0,0,0,.0737,3.3111A5.9824,5.9824,0,0,0,12.015,82.363a2.919,2.919,0,0,0,.253.2777l.1747.1614a.4075.4075,0,0,1,.0849.1492.38.38,0,0,1-.0156.2557.407.407,0,0,1-.1718.1918.7715.7715,0,0,1-.1744.0746,4.5292,4.5292,0,0,1-.9138.1239,15.3373,15.3373,0,0,1-1.7237-.0082,11.4869,11.4869,0,0,1-1.7236-.2185,4.2231,4.2231,0,0,1-.8759-.2791,1.613,1.613,0,0,1-.4489-.2973,1.0415,1.0415,0,0,1-.107-.1233.3967.3967,0,0,1-.0781-.1749.4112.4112,0,0,1,.0708-.1642l.048-.0736.1045-.0827.0661-.0157.13.0195.0761.0278c.0459.0183.1123.0254.1386.0351.0126.02.03.0121.02.01a.3167.3167,0,0,0,.0308.0356.9436.9436,0,0,0,.2519.1626,3.5592,3.5592,0,0,0,.7252.2329,10.8356,10.8356,0,0,0,1.6141.2136,14.6885,14.6885,0,0,0,1.6434.0183,4.1626,4.1626,0,0,0,.7537-.09c.02-.005.0361-.0145.02-.0048-.0128.0138-.0384.0078-.098.12a.3075.3075,0,0,0-.0108.205.286.286,0,0,0,.0568.1052c.0518.05-.0025-.0021-.0058-.0041l-.0434-.04-.0866-.0793a3.5833,3.5833,0,0,1-.3116-.3462,6.5934,6.5934,0,0,1-1.1429-3.317,21.0937,21.0937,0,0,1-.0548-3.4179C10.55,71.52,11.5806,67.12,11.9719,62.6691c.1115-1.1016.0181-2.2289.2161-3.3769a4.6877,4.6877,0,0,1,.2225-.8508c.12-.2617.2324-.6071.6549-.735a.6253.6253,0,0,1,.5359.1723,1.4281,1.4281,0,0,1,.2929.3746,3.6135,3.6135,0,0,1,.3267.82,10.4551,10.4551,0,0,1,.2174,3.3947l-.14,3.3656a74.6335,74.6335,0,0,0,.38,13.4272,12.2813,12.2813,0,0,0,.3727,1.6236,5.1213,5.1213,0,0,0,.2929.7676,1.2374,1.2374,0,0,0,.1868.3207,1.05,1.05,0,0,0,.3153.1884,4.99,4.99,0,0,0,1.6.2723,8.0754,8.0754,0,0,0,1.6426-.1093A2.5434,2.5434,0,0,0,20.49,81.732a.4467.4467,0,0,0,.0006-.5576,7.7646,7.7646,0,0,1-.456-.7156,11.1939,11.1939,0,0,1-1.0147-3.2745,35.1475,35.1475,0,0,1-.4013-6.7672c.0273-1.1288.0879-2.2565.1881-3.3827.0493-.5635.1127-1.1258.2-1.689.09-.5763.1979-1.1.2615-1.6577.2766-2.2137.4452-4.4563.6149-6.6924l.2327-3.3586c.0642-1.1134.1891-2.2534.1924-3.3455a40.8,40.8,0,0,0-.5963-6.6725c-.1853-1.1035-.4146-2.2007-.6949-3.2853-.14-.5422-.2934-1.0813-.4638-1.6149-.0858-.2665-.1754-.5319-.2726-.7943l-.1536-.39-.086-.19-.0482-.09a.2777.2777,0,0,0-.0258-.0374c-.0053-.0069-.006.0046.0227-.0054.0167-.02.0079-.0034.0079-.0034Z"/><path class="cls-2" d="M46.3692,32.2556c-.2767.4678-.49.89-.71,1.3409a4.5722,4.5722,0,0,1-.3762.6553,3.401,3.401,0,0,0-.3638.6815l-.0046.0139-.0013.0031a11.2472,11.2472,0,0,0-.7518,4.4242,33.3319,33.3319,0,0,0,.2308,4.5059,35.8724,35.8724,0,0,0,.7975,4.4278,16.6967,16.6967,0,0,0,1.654,4.1865l-.055.04a11.9641,11.9641,0,0,1-2.1648-4.0584,20.0778,20.0778,0,0,1-.9366-4.5212,24.2126,24.2126,0,0,1,.0039-4.6089,17.672,17.672,0,0,1,1.0234-4.4846l-.0058.0168a4.7217,4.7217,0,0,1,.4186-1.5643,2.4008,2.4008,0,0,1,1.2-1.1116Z"/><path class="cls-2" d="M52.6163,21.0305a9.4572,9.4572,0,0,1,1.9544-1.5717,4.1953,4.1953,0,0,1,2.489-.641,3.6123,3.6123,0,0,1,2.3067,1.2543,8.6639,8.6639,0,0,1,.7647,1.0536l.5466,1.1577.0135.0287.0027.0235a14.8672,14.8672,0,0,1,.0228,2.689,11.146,11.146,0,0,1-.4532,2.6372,6.5858,6.5858,0,0,1-1.28,2.3888,5.5411,5.5411,0,0,1-2.341,1.4661l-.0174.0062-.026.0027a5.611,5.611,0,0,1-2.2872-.2285,3.9855,3.9855,0,0,1-1.9289-1.314,4.9238,4.9238,0,0,1-.9069-2.1271c-.0678-.3744-.07-.7539-.1019-1.128l.0745-1.1137.0031.0642A9.329,9.329,0,0,1,51.5479,23.2,3.6688,3.6688,0,0,1,52.6163,21.0305Zm.0468.049a3.0264,3.0264,0,0,0-.8941,2.1487,8.44,8.44,0,0,0,.1965,2.36l.0017.0072.0017.0573L52,26.7044c.0485.3419.0786.6884.147,1.0209a4.5813,4.5813,0,0,0,.8026,1.8057A3.57,3.57,0,0,0,54.5339,30.65a5.0059,5.0059,0,0,0,1.9847.2665l-.0431.0089a5.4611,5.4611,0,0,0,2.1869-1.1863,5.8133,5.8133,0,0,0,1.3654-2.1554,9.8139,9.8139,0,0,0,.2336-5.1705l.0161.0519-.616-1.0509c-.2509-.31-.4673-.6529-.739-.9326a3.6,3.6,0,0,0-1.9362-1.1564,3.7894,3.7894,0,0,0-2.3156.3285A6.3373,6.3373,0,0,0,52.6631,21.08Z"/><path class="cls-2" d="M61.4475,82.2344c.1251-2.3587.0026-4.7281.2414-7.09a33.0778,33.0778,0,0,0,.19-3.5509c.0111-1.185-.0873-2.3711-.1209-3.556-.07-2.3708-.1113-4.7379-.0137-7.1105.0091-1.1876.0316-2.3756.0811-3.5647.0265-.5946.0575-1.1893.1035-1.7849a11.91,11.91,0,0,1,.2466-1.8284l-.01.1359a2.6913,2.6913,0,0,1,.0414-.4041,2.21,2.21,0,0,1,.1074-.3854l.0679-.0031c.0606.1211.11.24.158.3578.0412.1153.0932.2383.1356.3348l.0136.0311-.0234.105a12.6588,12.6588,0,0,0-.1968,1.6957c-.0383.5867-.0616,1.1762-.0807,1.7659-.0346,1.18-.0425,2.3629-.0371,3.5458.027,1.1831.0757,2.3707.0547,3.556-.0287,1.1858-.0441,2.3716-.1057,3.557-.0518,1.1856-.1745,2.37-.196,3.5553-.0585,1.1848.0093,2.3716.0545,3.56a27.9969,27.9969,0,0,1-.0832,3.5611,17.3529,17.3529,0,0,1-.5629,3.5331Z"/><path class="cls-2" d="M49.962,36.996s-.0078-.0185.0065.0025c.0243.0111.0334-.0015.0246.0059a.239.239,0,0,0-.0248.0352l-.0472.0868-.0838.1842-.15.3784c-.0951.2547-.183.5123-.2666.7712-.1674.5179-.3171,1.0414-.4555,1.5677q-.4136,1.58-.69,3.1894a41.6716,41.6716,0,0,0-.6349,6.48c-.0424,1.08.0863,2.1546.1477,3.249l.2242,3.2638c.1577,2.1744.3241,4.35.5587,6.5115.06.5394.1244,1.0795.2088,1.6083.0828.5178.1956,1.0835.2626,1.6233.1409,1.093.2249,2.1889.2732,3.2868a27.33,27.33,0,0,1-.4121,6.5836A9.3058,9.3058,0,0,1,47.7314,78.95a2.0378,2.0378,0,0,0-.37.6308.4938.4938,0,0,0,.2608.4958,3.5736,3.5736,0,0,0,1.4591.4732,8.36,8.36,0,0,0,1.6.068,4.4,4.4,0,0,0,1.5379-.3089.7592.7592,0,0,0,.2737-.2016c.0561-.0894.1179-.2278.1768-.3393a6.3252,6.3252,0,0,0,.283-.7489,11.9847,11.9847,0,0,0,.3724-1.5751,67.0339,67.0339,0,0,0,.3183-13.0425c-.0416-1.0915-.1178-2.1748-.1429-3.2765a8.9293,8.9293,0,0,1,.1528-1.6574A3.4958,3.4958,0,0,1,54.3,57.884a.7656.7656,0,0,1,.4505-.264.6114.6114,0,0,1,.5157.2061,1.98,1.98,0,0,1,.407.8036,7.8678,7.8678,0,0,1,.2507,1.6594c.0349.5584.0212,1.1.0541,1.6366.0282.54.0762,1.08.1325,1.6193.4656,4.3206,1.4329,8.6009,1.626,13.0089a18.8475,18.8475,0,0,1-.1222,3.3249,5.9485,5.9485,0,0,1-1.2717,3.1763c-.0528.0541-.1012.1123-.1583.1626l-.0843.077-.0422.0383-.021.0192a.1645.1645,0,0,0,.0334-.0357.2794.2794,0,0,0,.057-.141.3013.3013,0,0,0-.0394-.189c-.05-.0749-.073-.0792-.0836-.0871-.01-.0063.0044.0017.0241.0069a1.3744,1.3744,0,0,0,.1575.0336,6.5951,6.5951,0,0,0,.7713.0645,15.2385,15.2385,0,0,0,1.5985-.0334,10.3679,10.3679,0,0,0,1.5645-.22,3.414,3.414,0,0,0,.6985-.2323.8752.8752,0,0,0,.237-.159.2.2,0,0,0,.0276-.0335c-.0106.0134.0113.0043.0224-.0114a.8183.8183,0,0,0,.1411-.0343l.0738-.0274.1274-.0189.0659.0158.1025.08.0466.0711a.6433.6433,0,0,1,.0764.16.46.46,0,0,1-.0689.1711,1.2738,1.2738,0,0,1-.1042.1228,1.56,1.56,0,0,1-.4354.3,4.07,4.07,0,0,1-.8518.2815,11.0275,11.0275,0,0,1-1.6752.2261,15.9205,15.9205,0,0,1-1.6729.0247,7.232,7.232,0,0,1-.858-.0786,2.0216,2.0216,0,0,1-.2419-.0548.82.82,0,0,1-.1654-.0689.4388.4388,0,0,1-.16-.1539.371.371,0,0,1-.05-.2376.3839.3839,0,0,1,.0765-.1872.6109.6109,0,0,1,.0693-.0721l.0168-.0152.0336-.03.0674-.0606c.046-.039.0846-.0868.1276-.1295a5.33,5.33,0,0,0,1.1222-2.8144,18.2445,18.2445,0,0,0,.1374-3.2081c-.1719-4.3271-1.041-8.6244-1.46-12.9861-.0492-.5463-.09-1.0941-.1109-1.6446-.0262-.5536-.0042-1.1041-.027-1.6355a7.4924,7.4924,0,0,0-.2055-1.5755,1.6547,1.6547,0,0,0-.304-.654c-.14-.156-.2654-.1314-.441.0431a3.2309,3.2309,0,0,0-.5919,1.4083,8.5451,8.5451,0,0,0-.1787,1.5941c.0076,1.0805.0626,2.1764.1025,3.2655.0838,2.1815.1413,4.3657.1174,6.5507a43.7819,43.7819,0,0,1-.437,6.5445,12.2514,12.2514,0,0,1-.3677,1.6107,6.631,6.631,0,0,1-.2891.7829c-.0676.13-.1131.2439-.2.3867a1.0146,1.0146,0,0,1-.3682.2933,4.6509,4.6509,0,0,1-1.6441.3733,8.6871,8.6871,0,0,1-1.6666-.0352,3.8835,3.8835,0,0,1-1.6353-.5056,1.1406,1.1406,0,0,1-.3419-.3534.7865.7865,0,0,1-.0949-.5263,2.2506,2.2506,0,0,1,.413-.7905,8.8759,8.8759,0,0,0,1.039-2.9963,29.6624,29.6624,0,0,0,.314-6.46c-.0547-1.0817-.1484-2.1627-.2906-3.2338-.0636-.544-.16-1.05-.2461-1.61-.0831-.5494-.1435-1.0937-.2-1.6392-.2189-2.18-.3677-4.3582-.5081-6.5379l-.1915-3.27c-.0394-1.0843-.1483-2.1862-.0837-3.29a39.4416,39.4416,0,0,1,.784-6.5223q.3351-1.6081.8011-3.1835c.1568-.5241.3248-1.0448.5105-1.5595.0925-.2573.19-.5131.2939-.7663l.1644-.3769.0921-.1853.0536-.0911a.2922.2922,0,0,1,.0363-.0465.05.05,0,0,1,.0667-.0094c.0272.0339.0131.0349.0184.051Z"/><path class="cls-2" d="M60.6447,38.2927a3.5462,3.5462,0,0,1,.9726,1.4754,14.7766,14.7766,0,0,1,.58,1.6723,18.2552,18.2552,0,0,1,.6324,3.486,6.9246,6.9246,0,0,1-.062,1.8159,1.3366,1.3366,0,0,1-.5353.9132.7319.7319,0,0,1-.3206.0965.55.55,0,0,1-.1955-.0184.6664.6664,0,0,1-.1691-.079,2.1733,2.1733,0,0,1-.3757-.3336,22.5257,22.5257,0,0,1-2.0769-2.8928c-.3121-.5034-.6184-.9982-.8969-1.5439-.25-.5755-.4433-1.0763-.718-1.59a7.1449,7.1449,0,0,0-.9244-1.4028,1.64,1.64,0,0,0-1.2588-.696,1.0908,1.0908,0,0,0-.6226.2724,1.1572,1.1572,0,0,0-.33.6268,4.0985,4.0985,0,0,0,.0962,1.6439,13.7314,13.7314,0,0,0,1.2409,3.2293l.0035.0065.0019.0044a29.5452,29.5452,0,0,0,2.7482,4.7579A5.29,5.29,0,0,0,63.0814,51.95a2.6156,2.6156,0,0,0,2.1591-1.1826,12.4323,12.4323,0,0,0,.7543-2.5721c.1925-.8895.3257-1.7945.4711-2.6971.1525-.901.2741-1.8123.3925-2.7153l-.0019.0342.05-1.8847c.0054-.3135.0228-.63.0187-.9413-.0258-.3069-.032-.6129-.071-.922a11.608,11.608,0,0,0-.8864-3.5883A7.4742,7.4742,0,0,0,63.73,32.577a9.1444,9.1444,0,0,0-1.5879-.983l-.8506-.41a2.4867,2.4867,0,0,1-.8-.5241l.0528-.0425a2.4392,2.4392,0,0,0,.7933.4666l.87.3728a9.3414,9.3414,0,0,1,1.6643.9307,7.4865,7.4865,0,0,1,2.4366,2.9354,12.0357,12.0357,0,0,1,1.0345,3.69,14.5888,14.5888,0,0,1,.1274,1.9088l.05,1.8957,0,.0124-.0021.0222a35.6964,35.6964,0,0,1-.91,5.4863,10.513,10.513,0,0,1-.9837,2.6542,3.021,3.021,0,0,1-2.519,1.3122,5.7017,5.7017,0,0,1-4.8607-2.4354,38.7477,38.7477,0,0,1-2.7907-4.7867l.0053.0107a15.973,15.973,0,0,1-1.4108-3.2559,4.4964,4.4964,0,0,1-.1841-1.8311,1.6692,1.6692,0,0,1,.44-.9181,1.553,1.553,0,0,1,.9405-.45,1.6385,1.6385,0,0,1,1.0065.2474,3.1474,3.1474,0,0,1,.7342.62,7.705,7.705,0,0,1,1.0212,1.51,16.5431,16.5431,0,0,1,.7357,1.6046c.2464.5009.548,1.0082.8461,1.5033A22.2117,22.2117,0,0,0,61.5592,46.96a1.7614,1.7614,0,0,0,.2727.2552c.0115.0059.0409.0239.0275.0164-.0256-.0012.0022.0014.0214.0009a.209.209,0,0,0,.0962-.0267.9444.9444,0,0,0,.3042-.5746,6.5045,6.5045,0,0,0,.1154-1.6808,19.4134,19.4134,0,0,0-.4817-3.4378,14.5873,14.5873,0,0,0-.4736-1.6755,3.6607,3.6607,0,0,0-.8347-1.4883Z"/><rect class="cls-1" x="52.4792" y="34.0788" width="0.6788" height="4.6542" transform="translate(-11.3086 38.1074) rotate(-36.0969)"/><path class="cls-1" d="M47.872,33.23a5.9708,5.9708,0,0,1-.919-1.9677,2.28,2.28,0,0,1,.0322-1.1612,1.7278,1.7278,0,0,1,.7373-.9841,1.8211,1.8211,0,0,1,1.1824-.2,3.1932,3.1932,0,0,1,1.0472.3922,5.917,5.917,0,0,1,1.6463,1.42,4.1185,4.1185,0,0,1,.8987,2.0426,2.8989,2.8989,0,0,1-.0855,1.1882A1.7807,1.7807,0,0,1,50.43,35.2638a2.3831,2.3831,0,0,1-1.09-.4291A5.9547,5.9547,0,0,1,47.872,33.23Zm.0563-.0378a3.36,3.36,0,0,0,1.6178,1.2468,1.94,1.94,0,0,0,1.717-.0473,1.7517,1.7517,0,0,0,.5986-1.5625,4.7544,4.7544,0,0,0-.5716-1.8935,3.3987,3.3987,0,0,0-1.44-1.4318,1.7428,1.7428,0,0,0-1.8135.0818C47.1916,30.3024,47.15,32.032,47.9283,33.1918Z"/><path class="cls-1" d="M35.5514,79.8165l-.1241-9.959-.0746-9.959L35.28,39.9805q.0114-9.9591.0955-19.918.0957-9.9591.1073-19.918l0-.1445L35.62.0481,77.5547,14.8393l.2147.0757-.0045.23-.3594,18.8626-.4306,18.8612L76.458,71.7279q-.24,9.43-.5726,18.8581l-.0679-.0014q.078-9.4335.2257-18.8655l.281-18.8643.3678-18.8624.4386-18.861.21.3054L35.5509.2407l.1367-.0962q.0192,9.959.1073,19.918.0947,9.9589.0954,19.918l-.0722,19.918-.0748,9.959-.1241,9.959Z"/></g></g></g></svg>