<svg xmlns="http://www.w3.org/2000/svg" viewBox="0 0 83.4218 97.994"><defs><style>.cls-1{fill:#575756;}.cls-2{fill:#0087b9;}</style></defs><title>Element 11</title><g id="Ebene_2" data-name="Ebene 2"><g id="Ebene_1-2" data-name="Ebene 1"><g id="Illustrationen"><path class="cls-1" d="M33.5213,63.3053c-.3724.1861-.7328.3566-1.0762.5461a8.1063,8.1063,0,0,0-.9687.6266c-.2947.2383-.58.48-.8554.75a2.5447,2.5447,0,0,0-.6286.9611l-.0069.0229-.0048.0082a6.58,6.58,0,0,0-.7652,3.0072,15.7972,15.7972,0,0,0,.1062,3.1054,16.5328,16.5328,0,0,0,.6754,3.0121,9.7605,9.7605,0,0,0,1.4455,2.7532l-.048.0479a6.7212,6.7212,0,0,1-1.9454-2.5819,9.7061,9.7061,0,0,1-.8319-3.1515,11.2518,11.2518,0,0,1,1.1741-6.2995l-.0116.0309a4.2147,4.2147,0,0,1,.4685-1.1953,2.9684,2.9684,0,0,1,.87-.9547,4.18,4.18,0,0,1,2.3889-.7552Z"/><path class="cls-2" d="M65.3085,42.7483a6.9282,6.9282,0,0,1-1.1625,1.4306,5.8266,5.8266,0,0,1-1.5149,1.085,3.4688,3.4688,0,0,1-1.8693.3162,2.2629,2.2629,0,0,1-1.5724-1.0091,4.2442,4.2442,0,0,1-.7181-1.7555,6.3506,6.3506,0,0,1-.0921-1.8891,3.5412,3.5412,0,0,1,.687-1.8224A2.3034,2.3034,0,0,1,60.761,38.26l.0149.0662a2.5239,2.5239,0,0,0-1.27,1.081,3.8475,3.8475,0,0,0-.4068,1.5887,7.26,7.26,0,0,0,.4095,3.3855,1.4946,1.4946,0,0,0,1.2756.98,2.713,2.713,0,0,0,1.578-.5938c.98-.6095,1.9069-1.3456,2.8956-2.0642Z"/><path class="cls-2" d="M64.3068,37.2474a3.1452,3.1452,0,0,1,2.0487-.2321,1.9769,1.9769,0,0,1,.9791.5648,5.1483,5.1483,0,0,1,.615.8066,9.3873,9.3873,0,0,1,.8527,1.8465,9.596,9.596,0,0,1,.48,1.9736l-.0046-.0417a2.1494,2.1494,0,0,1-.434,1.7744,2.7888,2.7888,0,0,1-1.5323.9319,5.5241,5.5241,0,0,1-1.69.1248,8.2642,8.2642,0,0,1-1.6232-.2975l.0078-.0674c.5469-.0586,1.08-.0637,1.6043-.1384a8.3242,8.3242,0,0,0,1.5065-.2946,2.9733,2.9733,0,0,0,1.2063-.6964,1.7815,1.7815,0,0,0,.4467-1.2387l-.0045-.0419A5.2023,5.2023,0,0,0,68.6035,40.3a3.9,3.9,0,0,0-1.0422-1.61c-.2279-.2268-.4557-.4592-.6739-.6973a1.7454,1.7454,0,0,0-.6935-.4546,5.1568,5.1568,0,0,0-1.8691-.225Z"/><path class="cls-2" d="M65.4766,41.5047a2.7489,2.7489,0,0,1,1.1172-.1191,3.0243,3.0243,0,0,1,.5232.1,1.9576,1.9576,0,0,1,.5526.245,1.52,1.52,0,0,1-1.14.33A1.4532,1.4532,0,0,1,65.4766,41.5047Z"/><path class="cls-2" d="M66.4941,41.1363a2.2084,2.2084,0,0,0-1.5239-.6988,1.253,1.253,0,0,0-.6717.3382l-.7266.5984a8.0962,8.0962,0,0,0-1.3775,1.33,1.7429,1.7429,0,0,1-.3643.3848.4746.4746,0,0,1-.3712.0967.4655.4655,0,0,1-.3133-.3077c-.06-.2264-.1212-.2413-.0889-.2023.0379.0026-.101.0427-.1646.1067l-.1791.18-.2006-.1826a.7835.7835,0,0,1-.3325-.5216.5417.5417,0,0,1,.1678-.4365,1.2369,1.2369,0,0,1,.23-.1535l.0119-.0068a.0646.0646,0,0,0-.028.02.2415.2415,0,0,0-.0621.1122.3.3,0,0,0,.0146.2c.0937.1386.0535.0637.0238.0692a2.059,2.059,0,0,0-.2849-.0805l-.1477-.0289-.0817-.1244a2.316,2.316,0,0,1-.2346-.4349,1.5166,1.5166,0,0,1-.0856-.273.5745.5745,0,0,1,.1056-.505.4841.4841,0,0,1,.3137-.1568,1.04,1.04,0,0,1,.1864.0113l.21.0374a4.2027,4.2027,0,0,1,.4433.0949,3.0705,3.0705,0,0,1,1.5359.9426l-.0407.0542a4.3886,4.3886,0,0,0-1.5937-.4438l-.4127-.0216-.22-.01c-.0515-.0042-.0172.0082-.0292.0031.0295.0017.0651-.0066.1241-.0645.0836-.1265.041-.1237.06-.0923a.9525.9525,0,0,0,.0563.1343c.0518.1.1207.2218.183.32l-.2292-.1532a2.1884,2.1884,0,0,1,.4264.1322.6322.6322,0,0,1,.3212.2809.4325.4325,0,0,1,.029.2889.4823.4823,0,0,1-.1131.1888.8487.8487,0,0,1-.1.0789l-.0708.0358c-.0994.0459-.0721.0326-.0886.0356a.1443.1443,0,0,0,.03-.1061c-.0281-.0611.02.0514.0653.0851l-.3794-.0025a1.05,1.05,0,0,1,.3015-.1464.6547.6547,0,0,1,.4257.0013.6365.6365,0,0,1,.3489.6c.0067.0492.0091.0507-.0241.0453-.0267.009.0289.0176.0827-.0095a1.4166,1.4166,0,0,0,.35-.25,8.1861,8.1861,0,0,0,1.2812-1.4384,6.9205,6.9205,0,0,1,.62-.768,1.4509,1.4509,0,0,1,2.0635-.0517,2.2087,2.2087,0,0,1,.5853.8262Z"/><path class="cls-1" d="M34.8765,57.7741a6.9386,6.9386,0,0,1,1.23-1.0237,2.7212,2.7212,0,0,1,1.6106-.4637,2.312,2.312,0,0,1,1.531.8136,5.09,5.09,0,0,1,.49.69l.334.754.0144.0325.0018.02a10.1424,10.1424,0,0,1-.0236,1.7221,8.1408,8.1408,0,0,1-.2867,1.6847,4.2774,4.2774,0,0,1-.7954,1.5585,3.54,3.54,0,0,1-1.5133.9811l-.0157.0059-.0277.003a3.6706,3.6706,0,0,1-1.5061-.138,2.606,2.606,0,0,1-1.2864-.8692,3.1888,3.1888,0,0,1-.5945-1.4081,7.0082,7.0082,0,0,1-.0564-.7351l.0664-.7178.0033.0641a6.0552,6.0552,0,0,1,.1147-1.5941A2.4685,2.4685,0,0,1,34.8765,57.7741Zm.0468.049a1.8228,1.8228,0,0,0-.5353,1.3593,5.1846,5.1846,0,0,0,.1783,1.4756l.0032.0644.0387.6557c.034.211.0581.4247.1015.6281a2.85,2.85,0,0,0,.49,1.0866,2.1939,2.1939,0,0,0,.9425.674,3.0688,3.0688,0,0,0,1.2038.1761l-.0433.0088a3.4584,3.4584,0,0,0,1.3591-.7014,3.57,3.57,0,0,0,.8831-1.3241,5.66,5.66,0,0,0,.1109-3.252l.0161.052-.4035-.6472c-.159-.1889-.2981-.3987-.464-.5695a2.1752,2.1752,0,0,0-2.5978-.5643A3.6575,3.6575,0,0,0,34.9233,57.8231Z"/><path class="cls-2" d="M61.9321,34.0537a5.1572,5.1572,0,0,1,.8217.1773,2.576,2.576,0,0,1,.7946.3788,1.6054,1.6054,0,0,1,.5789.7265,2.0318,2.0318,0,0,1,.1495.9118l-.0013-.0263a3.53,3.53,0,0,1-.0971.7638,3.4175,3.4175,0,0,1-.25.7151,2.2529,2.2529,0,0,1-.4262.6287,1.73,1.73,0,0,1-.6766.3785l.0207-.0055a1.7576,1.7576,0,0,1-.8837.0752,1.9915,1.9915,0,0,1-.8231-.3345,3.1361,3.1361,0,0,1-.6374-.597,5.5252,5.5252,0,0,1-.474-.7064l-.02-.0348-.01-.0478A4.1341,4.1341,0,0,1,59.8966,36a2.4948,2.4948,0,0,1,.2357-1.0591,1.5817,1.5817,0,0,1,.7886-.7663A2.3047,2.3047,0,0,1,61.9321,34.0537Zm-.0056.0676a1.34,1.34,0,0,0-.8913.25,1.2,1.2,0,0,0-.3878.751,4.2182,4.2182,0,0,0-.0522.8763,6.7968,6.7968,0,0,0,.1052.8955l-.03-.0823a5.609,5.609,0,0,0,.3574.6378,3.0508,3.0508,0,0,0,.4669.529,2.0734,2.0734,0,0,0,.5794.3718,1.3129,1.3129,0,0,0,.68.0876l.0209-.0056a1.0542,1.0542,0,0,0,.5848-.2542,1.26,1.26,0,0,0,.3346-.5676,3.1914,3.1914,0,0,0,.0171-1.3356l-.0013-.0266a3.4263,3.4263,0,0,0-.1385-.6992,2.1907,2.1907,0,0,0-.3171-.6358A1.9788,1.9788,0,0,0,61.9265,34.1213Z"/><path class="cls-1" d="M40.4751,96.6058a30.9507,30.9507,0,0,1,.0794-4.497,14.8527,14.8527,0,0,0,.1708-2.251c-.0056-.7518-.1006-1.5044-.14-2.256a38.9341,38.9341,0,0,1-.02-4.51c.0085-.7542.0254-1.5088.06-2.2647.0182-.3781.0391-.7563.07-1.1358A7.5032,7.5032,0,0,1,40.86,78.507l-.01.1358a1.36,1.36,0,0,1,.0587-.2689,1.1743,1.1743,0,0,1,.1167-.25l.0677-.0031a2.2377,2.2377,0,0,1,.1487.2218c.0371.07.0841.1479.1186.2l.0145.022-.0243.114a8.3677,8.3677,0,0,0-.1159,1.0515c-.0227.3706-.0361.7435-.0469,1.1168-.0193.7469-.0217,1.4963-.0155,2.2458.0278.75.0751,1.5039.0556,2.2558-.028.7524-.0411,1.5049-.1,2.2569-.051.7522-.1614,1.5034-.1877,2.2552a17.1794,17.1794,0,0,0,.0846,2.26,12.0879,12.0879,0,0,1-.0378,2.2618,8.7827,8.7827,0,0,1-.4459,2.2393Z"/><path class="cls-1" d="M33.1888,67.911c-.0076.0094.0322.0278.04.0155l-.0152.0236-.03.0586-.0535.125-.096.2566q-.09.2593-.1694.5229-.16.5261-.2926,1.06-.2625,1.0682-.43,2.1552a25.8342,25.8342,0,0,0-.3348,4.3625c.2168,2.91.3615,5.8865.7541,8.7622a27.4818,27.4818,0,0,1,.3527,4.441,26.1006,26.1006,0,0,1-.2661,4.4484,8.5512,8.5512,0,0,1-.6,2.1851,3.1325,3.1325,0,0,1-.2964.5123c-.1076.1452-.151.2441-.1222.3208.0632.1862.4545.3417.7794.4044a4.4609,4.4609,0,0,0,2.0982-.049.7689.7689,0,0,0,.2065-.1041.2988.2988,0,0,0,.0618-.0615l.0576-.1159a2.9607,2.9607,0,0,0,.1916-.4938,8.28,8.28,0,0,0,.24-1.0591,50.4612,50.4612,0,0,0,.27-8.7969l-.0829-2.2061a14.0067,14.0067,0,0,1-.0123-2.232,3.2535,3.2535,0,0,1,.3181-1.1166,1.02,1.02,0,0,1,.199-.2638.4661.4661,0,0,1,.4035-.1339c.33.1022.3918.3471.4779.5228A7.773,7.773,0,0,1,37.106,83.7c.2141,2.9033.9084,5.7894,1.1127,8.7626a15.2793,15.2793,0,0,1,.0017,2.2563,4.7174,4.7174,0,0,1-.691,2.2518,2.4266,2.4266,0,0,1-.2.2491l-.1153.1143-.0583.0567-.0145.0141c-.0047.0032-.02.0207.0213-.019a.2575.2575,0,0,0,.0578-.1017.3229.3229,0,0,0,.001-.2047.3482.3482,0,0,0-.0649-.1088.2161.2161,0,0,0-.053-.0432c-.0174-.0106-.0116-.0085-.02-.0117-.0108-.0029.0139.0028.0189.0049l.1038.0183c.0776.0108.1627.0185.2487.0238a8.9,8.9,0,0,0,1.0605-.0051,7.0154,7.0154,0,0,0,1.04-.1334,2.2883,2.2883,0,0,0,.452-.1412.6149.6149,0,0,0,.1341-.0828l.006-.0077c-.0119-.0011-.0081.0347.0023.0231.0475.0043.1229-.0135.3242-.01l.0661.0158c.18.0927.231.1641.2441.2538a.2674.2674,0,0,1-.0654.1425l-.085.0962a1.26,1.26,0,0,1-.33.2127,2.9368,2.9368,0,0,1-.6007.1853,7.6882,7.6882,0,0,1-1.15.1373,9.57,9.57,0,0,1-1.1469-.0062c-.0976-.0071-.1959-.0166-.3-.0322-.0515-.0073-.1076-.018-.1676-.0321a.91.91,0,0,1-.1127-.0364.6251.6251,0,0,1-.082-.0406.4958.4958,0,0,1-.0795-.0652.3088.3088,0,0,1-.0836-.1356.3544.3544,0,0,1,.0775-.3669l.0545-.0545.04-.04.0819-.0788a1.7912,1.7912,0,0,0,.1467-.18,4.1127,4.1127,0,0,0,.5922-1.9236,14.6843,14.6843,0,0,0,.02-2.1569c-.1588-2.9116-.8081-5.8-.947-8.7809a7.8466,7.8466,0,0,0-.1684-2.1322c-.045-.1509-.15-.3-.1914-.2994-.0187-.0273-.1578.0712-.2313.2144a2.9531,2.9531,0,0,0-.31.9878,12.7608,12.7608,0,0,0-.0391,2.1789l.0641,2.2089c.0361,1.4731.05,2.9474.0248,4.4219a33.1843,33.1843,0,0,1-.283,4.4221,8.4934,8.4934,0,0,1-.2368,1.0956,3.2137,3.2137,0,0,1-.202.5362l-.064.1319a.55.55,0,0,1-.1236.141,1.0365,1.0365,0,0,1-.2777.1557,4.7373,4.7373,0,0,1-2.2706.1359,2.6487,2.6487,0,0,1-.57-.1615.8993.8993,0,0,1-.5128-.46.7554.7554,0,0,1,.1567-.6979,2.7263,2.7263,0,0,0,.2416-.45,8.1338,8.1338,0,0,0,.5015-2.0785,31.5671,31.5671,0,0,0,.1782-4.3663,32.2449,32.2449,0,0,0-.36-4.3567c-.202-1.4877-.2886-2.9509-.3911-4.4248-.0942-1.4753-.1844-2.9341-.2232-4.4247a25.068,25.068,0,0,1,.485-4.4233q.2226-1.0886.54-2.1529c.107-.3541.22-.7061.3489-1.0531.0639-.1735.1325-.3455.2045-.5161l.1143-.2539.0634-.1251.0369-.0622.0249-.0326a.0441.0441,0,0,1,.0789.032Z"/><path class="cls-2" d="M61.36,60.32a6.1312,6.1312,0,0,1-.46-2.8644,6.6926,6.6926,0,0,0,.0429-1.45c-.0489-.4793-.1669-.9558-.2386-1.4349-.06-.48-.1015-.96-.1358-1.4413-.0361-.48.0089-.9668.0189-1.4535.0033-.4782.0049-.9563-.0065-1.4317l-.03-.7094a5.372,5.372,0,0,0-.0717-.6409l-.0219-.1013.01-.05a3.3474,3.3474,0,0,0,.0471-.6278,5.1509,5.1509,0,0,0-.0524-.6648,6.7434,6.7434,0,0,0-.1285-.6628,1.92,1.92,0,0,1,.0249-.7326l.0675-.0068c.0957.2247.2045.4219.2908.6326a7.1346,7.1346,0,0,1,.18.6948,5.59,5.59,0,0,1,.1016.7185,3.2629,3.2629,0,0,1-.0207.7606l-.012-.1508a4.3378,4.3378,0,0,1,.1308.7857l.056.7308c.0288.4856.0442.97.0512,1.4532.0092.4753.092.95.0867,1.4313-.0013.48-.0063.9608-.0253,1.4423-.031.4819-.1058.9664-.1058,1.4476a5.9742,5.9742,0,0,0,.2028,1.4319,5.918,5.918,0,0,1,.1471,1.4305,10.569,10.569,0,0,1-.0828,1.4506Z"/><path class="cls-2" d="M67.5729,45.4033a9.0168,9.0168,0,0,1,.2778,1.3712c.0272.2346.0484.46.0643.705l-.0252.7c-.0373.9224-.1052,1.8428-.1714,2.7647a26.4352,26.4352,0,0,1-.3133,2.7638,22.6806,22.6806,0,0,0-.1927,2.7131,17.36,17.36,0,0,0,.156,2.7064,4.0518,4.0518,0,0,0,.3762,1.243,2.8075,2.8075,0,0,0,.1863.2837.4605.4605,0,0,1-.0348.5561,1.3127,1.3127,0,0,1-.7453.3093,4.274,4.274,0,0,1-1.4356-.0325,1.5638,1.5638,0,0,1-.363-.1185.5054.5054,0,0,1-.1862-.1489c-.0418-.0648-.063-.114-.0949-.1719a3.4782,3.4782,0,0,1-.2183-.6856,16.0415,16.0415,0,0,1-.2611-2.7718c-.049-1.8477-.0109-3.6936.05-5.5361a6.333,6.333,0,0,0-.0451-1.3479,1.6737,1.6737,0,0,0-.2132-.5839c-.0474-.08-.1264-.1308-.13-.1191a.2826.2826,0,0,0-.0764.1064,3.4121,3.4121,0,0,0-.1291,1.2775c-.0047.4747-.048.9389-.0956,1.4015-.2121,1.8419-.5487,3.66-.6434,5.466a7.8494,7.8494,0,0,0,.0364,1.3232,1.4382,1.4382,0,0,0,.4174.9839.7237.7237,0,0,1,.1481.1313.38.38,0,0,1-.1148.5637.81.81,0,0,1-.2864.0926,2.8691,2.8691,0,0,1-.3926.0321,5.5289,5.5289,0,0,1-.7379-.0356,3.1977,3.1977,0,0,1-.7608-.1706.8454.8454,0,0,1-.4711-.3779.2746.2746,0,0,1,.01-.2522.592.592,0,0,1,.2021-.226l.0667-.0118a.9462.9462,0,0,1,.3807.1905c-.0764-.0845.0043.0034.0748.0206a2.5624,2.5624,0,0,0,.5833.1358,4.8523,4.8523,0,0,0,.6415.041,2.2552,2.2552,0,0,0,.2961-.0183c.0377-.0011.0914-.0259.0442-.0015-.0311.0286-.054.0141-.1172.1513a.32.32,0,0,0,.04.2732c.06.0678.0565.0484.0153.022a2.0088,2.0088,0,0,1-.6894-1.462,8.4534,8.4534,0,0,1-.02-1.4373c.1183-1.8784.5229-3.6837.7741-5.4972.0648-.4516.1249-.9046.1469-1.3513a3.5513,3.5513,0,0,1,.2449-1.44.4811.4811,0,0,1,.4386-.2914.5447.5447,0,0,1,.3936.2941,1.9771,1.9771,0,0,1,.2295.7163,7.3252,7.3252,0,0,1-.001,1.41c-.0811,1.84-.1651,3.6814-.0947,5.5188a15.86,15.86,0,0,0,.2967,2.7215,3.2458,3.2458,0,0,0,.2083.6262c.0247.0421.0517.0986.0736.1293a.278.278,0,0,0,.0874.0561,1.3067,1.3067,0,0,0,.2972.08,3.9615,3.9615,0,0,0,1.3157-.0324,1.0516,1.0516,0,0,0,.5112-.2114c.0164-.04.02-.01-.0156-.08a2.8293,2.8293,0,0,1-.2055-.2848,4.4669,4.4669,0,0,1-.4891-1.3688,13.7286,13.7286,0,0,1-.2512-2.8,19.9581,19.9581,0,0,1,.1715-2.8,26.13,26.13,0,0,0,.3615-2.7212l.2383-2.7492a23.709,23.709,0,0,0,.0978-2.7354Z"/><path class="cls-1" d="M39.985,68.7234a2.24,2.24,0,0,1,.6423.9336,9.473,9.473,0,0,1,.3873,1.06,11.3894,11.3894,0,0,1,.4285,2.22,4.44,4.44,0,0,1-.0294,1.1766.9227.9227,0,0,1-.3819.6412.5582.5582,0,0,1-.2444.074.4365.4365,0,0,1-.156-.0149.5088.5088,0,0,1-.1329-.0615,1.4714,1.4714,0,0,1-.2573-.2259,14.3853,14.3853,0,0,1-1.3368-1.8454c-.2007-.3209-.3957-.6325-.5784-.9869-.1665-.3787-.2821-.6795-.4563-1.0039a4.7178,4.7178,0,0,0-.57-.8678.9486.9486,0,0,0-.7052-.4143.5744.5744,0,0,0-.5257.4842,2.51,2.51,0,0,0,.045,1.0086,8.6283,8.6283,0,0,0,.7526,2.0457l.0045.0087.0008.0019a17.3732,17.3732,0,0,0,1.7393,3.0112A3.28,3.28,0,0,0,41.52,77.3323a1.5821,1.5821,0,0,0,1.3038-.7265,8.5309,8.5309,0,0,0,.4366-1.6166c.2154-1.1263.3529-2.2822.5391-3.42l-.0016.0343.05-1.1935c.0063-.1984.0211-.4.0206-.596-.0156-.1921-.0174-.3827-.04-.5777a7.2862,7.2862,0,0,0-.5352-2.2578,4.7109,4.7109,0,0,0-1.3844-1.8344,5.7485,5.7485,0,0,0-.9942-.6308,4.2078,4.2078,0,0,1-1.043-.6142l.0528-.0424a4.6225,4.6225,0,0,0,1.0593.511,5.9673,5.9673,0,0,1,1.069.5833,4.78,4.78,0,0,1,1.5808,1.87,7.7193,7.7193,0,0,1,.6834,2.3593c.1174.8311.0942,1.6144.1443,2.4237l0,.0037-.002.0308a18.416,18.416,0,0,1-.586,3.4938,6.4888,6.4888,0,0,1-.6661,1.6989,1.9887,1.9887,0,0,1-1.6638.856A3.6925,3.6925,0,0,1,38.42,76.1012a27.2615,27.2615,0,0,1-1.7744-3.0435l.0051.01A10.19,10.19,0,0,1,35.7214,71a2.909,2.909,0,0,1-.1328-1.1958,1.1463,1.1463,0,0,1,.3-.6356,1.0753,1.0753,0,0,1,.6547-.3182,1.4846,1.4846,0,0,1,1.1976.5774,4.743,4.743,0,0,1,.6644.98,10.3553,10.3553,0,0,1,.4659,1.0227c.15.31.3409.6337.5274.9463a14.0674,14.0674,0,0,0,1.2309,1.789,1.0692,1.0692,0,0,0,.1542.1476s.0179.01-.0085-.0011c-.0385-.0058-.0241-.0022-.0183-.0025.0091-.0021.0134.0009.02-.0042a.5464.5464,0,0,0,.1507-.3027,4.0253,4.0253,0,0,0,.0829-1.0415,12.5216,12.5216,0,0,0-.278-2.172,9.2056,9.2056,0,0,0-.281-1.0634,2.3556,2.3556,0,0,0-.5043-.9465Z"/><path class="cls-2" d="M58.7044,37.5748c-.293.3454-.5845.6925-.8848,1.0309L57.71,38.5C58.0358,38.1865,58.3711,37.8815,58.7044,37.5748Z"/><path class="cls-2" d="M56.9249,39.6272q-.4443.5136-.9037,1.0128l-.2727-.2621q.4811-.4783.9761-.9433Z"/><polygon class="cls-2" points="55.109 41.645 54.197 42.649 53.813 42.281 54.781 41.329 55.109 41.645"/><polygon class="cls-2" points="53.278 43.648 52.352 44.639 51.898 44.203 52.852 43.238 53.278 43.648"/><polygon class="cls-2" points="51.422 45.626 50.487 46.609 50.004 46.145 50.949 45.172 51.422 45.626"/><polygon class="cls-2" points="49.549 47.589 48.604 48.562 48.127 48.104 49.062 47.121 49.549 47.589"/><polygon class="cls-2" points="47.659 49.535 46.705 50.499 46.267 50.079 47.193 49.087 47.659 49.535"/><polygon class="cls-2" points="45.748 51.462 44.781 52.413 44.431 52.077 45.343 51.073 45.748 51.462"/><polygon class="cls-2" points="43.813 53.365 42.843 54.314 42.609 54.089 43.519 53.082 43.813 53.365"/><polygon class="cls-2" points="41.858 55.248 40.868 56.179 40.824 56.136 41.715 55.111 41.858 55.248"/><path class="cls-2" d="M35.71,71.977a14.5271,14.5271,0,0,1-1.1764-2.3407,21.9013,21.9013,0,0,1-.7571-2.5008l-.0366-.1181.1053-.0311A11.1738,11.1738,0,0,0,35.5,66.3269c.5378-.2583,1.0758-.5163,1.6292-.7311l.2543-.0988.1379.2618a25.2773,25.2773,0,0,1,1.1624,2.4387,21.3608,21.3608,0,0,1,.8791,2.5719l-.0614.0288a21.3777,21.3777,0,0,1-1.4174-2.3191,25.3251,25.3251,0,0,1-1.1341-2.452l.3921.1628c-.5638.1857-1.143.3283-1.7225.4705a11.1858,11.1858,0,0,0-1.6968.5422l.0686-.149a21.8987,21.8987,0,0,1,1.1008,2.37,14.5349,14.5349,0,0,1,.6814,2.53Z"/><path class="cls-1" d="M55.379,32.1724c-.0642-.9866-.12-1.9733-.15-2.96-.0283-.9867-.0772-1.9733-.0813-2.96l-.001-.2616.2661-.0035,2.9974-.04c.9991.0175,1.9982.0071,2.9973.0475,1.9983.0713,3.9964.15,5.9946.1544,1.9983-.0082,3.9965-.0674,5.9948-.1377,1.998-.0586,3.9963-.082,5.9945-.1044l.3393-.0037.006.3489c.0293,1.7559.0184,3.5117-.002,5.2675-.0356,1.7559-.0606,3.5117-.1263,5.2676l-.2168-.2168c1.3434.04,2.6866.1089,4.03.1829v.0678c-1.3434.074-2.6866.1426-4.03.1829l-.2085.0063-.0084-.2231c-.0657-1.7559-.0907-3.5117-.1263-5.2676-.02-1.7558-.0315-3.5116-.002-5.2675l.345.3451c-1.9982-.0223-3.9965-.0458-5.9945-.1044-1.9983-.07-3.9965-.13-5.9948-.1377-1.9982.0046-3.9963.0831-5.9946.1544-.9991.0405-1.9982.03-2.9973.0475l-2.9974-.04.2651-.265c-.0042.9867-.053,1.9733-.0813,2.96-.03.9866-.0856,1.9733-.15,2.96Z"/><path class="cls-1" d="M0,36.7537c3.6831-.0488,7.3661-.13,11.049-.1521l-.186.186c-.068-6.0945-.0877-12.189-.1074-18.2834l.0063-9.1417L10.83.2208,10.8319,0l.2173.0019,10.31.09.1292.0011,0,.1278-.021,9.1417.0387,9.1417.137,18.2834-.2835-.2836,7.795-.0381-.3218.3217-.0336-9.9089.0062-9.9089v-.35l.3492.0009,9.603.024,9.6029.0739.2534.0019-.0018.2495-.0762,9.9089c-.0149,3.3029-.0813,6.6059-.1235,9.9089l-.0517-.0518,1.2455.0179v.0678l-1.2455.0179-.0512.0008-.0006-.0526c-.0422-3.303-.1086-6.606-.1235-9.9089L48.109,16.97l.2513.2513-9.6029.0739-9.603.024.3492-.3492.006,9.9089-.0336,9.9089-.0012.3233-.32-.0016-7.795-.0381-.2858-.0014.002-.2822.1369-18.2834.0389-9.1417L21.23.2208,21.3591.35l-10.31.09.2189-.2188.0683,9.1417.0063,9.1417c-.02,6.0944-.0394,12.1889-.1076,18.2834l-.002.1871-.1841-.0011C7.3661,36.9513,3.6831,36.87,0,36.8215Z"/></g></g></g></svg>