<svg xmlns="http://www.w3.org/2000/svg" viewBox="0 0 43.1098 77.9528"><defs><style>.cls-1{fill:#e20613;}.cls-2,.cls-5{fill:#0087b9;}.cls-3{fill:#575756;}.cls-4{fill:#fff;}.cls-5{font-size:3.3911px;font-family:DBOffice-Regular, DB Office;}</style></defs><title>Element 9</title><g id="Ebene_2" data-name="Ebene 2"><g id="Ebene_1-2" data-name="Ebene 1"><g id="Illustrationen"><path class="cls-1" d="M38.2654,24.5619l-8.2624.1526c-2.7683.0532-5.5725.0638-8.3678.0906-2.7943.0348-5.612.0157-8.4187-.0024l-8.409-.13-.1358-.002.0006-.1331c.0109-2.4625.0474-4.9249.0225-7.3873-.0037-2.4624-.0394-4.9249-.073-7.3873L4.6193,9.581l.1882-.0034c5.5724-.1018,11.1446-.129,16.7169-.16,2.7862-.0261,5.5723-.0041,8.3585-.0019,2.7861-.002,5.5723.0209,8.3584.0545l.2954.0036-.0023.2895c-.02,2.4974-.06,4.9918-.1136,7.4617Zm-.048-.0479-.1555-7.4377c-.0538-2.4551-.0934-4.8855-.1135-7.313l.2929.293c-2.7861.0336-5.5723.0565-8.3584.0545-2.7862.0021-5.5723.0242-8.3585-.0019-5.5723-.031-11.1445-.0582-16.7169-.16l.1856-.1856c-.0337,2.4624-.0693,4.9249-.073,7.3873-.0248,2.4624.0117,4.9248.0225,7.3873l-.1351-.1351,8.308-.13c2.7657-.0181,5.52-.0372,8.2983-.0025l8.3491.0907Z"/><path class="cls-2" d="M38.2654,24.5619l-8.2624.1526c-2.7683.0532-5.5725.0638-8.3678.0906-2.7943.0348-5.612.0157-8.4187-.0024l-8.409-.13-.1358-.002.0006-.1331c.0109-2.4625.0474-4.9249.0225-7.3873-.0037-2.4624-.0394-4.9249-.073-7.3873L4.6193,9.581l.1882-.0034c5.5724-.1018,11.1446-.129,16.7169-.16,2.7862-.0261,5.5723-.0041,8.3585-.0019,2.7861-.002,5.5723.0209,8.3584.0545l.2954.0036-.0023.2895c-.02,2.4974-.06,4.9918-.1136,7.4617Zm-.048-.0479-.1555-7.4377c-.0538-2.4551-.0934-4.8855-.1135-7.313l.2929.293c-2.7861.0336-5.5723.0565-8.3584.0545-2.7862.0021-5.5723.0242-8.3585-.0019-5.5723-.031-11.1445-.0582-16.7169-.16l.1856-.1856c-.0337,2.4624-.0693,4.9249-.073,7.3873-.0248,2.4624.0117,4.9248.0225,7.3873l-.1351-.1351,8.308-.13c2.7657-.0181,5.52-.0372,8.2983-.0025l8.3491.0907Z"/><path class="cls-3" d="M38.2654,33.9762c-2.7087.0817-5.4731.1291-8.2446.1788-2.7852.028-5.5721.0747-8.3826.0718-2.807.0068-5.6343-.0561-8.4405-.1082-2.8081-.0532-5.5969-.0754-8.39-.0493l-.117.0011,0-.1183c-.0022-1.7246-.0432-3.4492-.0685-5.1738l-.0026-.1818.1883-.004q4.1793-.0873,8.3585-.124l8.3584-.0471c2.7862.0162,5.5723-.0038,8.3585.0421,2.7861.0321,5.5723.0694,8.3584.1359l.1817.0043-.0028.1746C38.3917,30.55,38.3021,32.2856,38.2654,33.9762Zm-.048-.048-.1548-5.15.1787.1787c-2.7861.0666-5.5723.1039-8.3584.1359-2.7862.0459-5.5723.0259-8.3585.0421l-8.3584-.0471q-4.1792-.0381-8.3585-.124l.1856-.1856c-.0252,1.7246-.0663,3.4492-.0685,5.1738l-.1171-.1171c2.7791.0262,5.5626.004,8.3267-.0493,2.7662-.052,5.5112-.115,8.2765-.1081,2.7619-.0029,5.5473.0438,8.3344.0718C32.546,33.799,35.3538,33.8465,38.2174,33.9282Z"/><path class="cls-3" d="M38.2654,43.1308c-2.7087.0817-5.4731.1292-8.2446.1788-2.7852.028-5.5721.0747-8.3826.0718-2.807.0069-5.6343-.0561-8.4405-.1081-2.8081-.0532-5.5969-.0755-8.39-.0493l-.117.0011,0-.1183c-.0022-1.7246-.0432-3.4492-.0685-5.1739l-.0026-.1818.1883-.0039q4.1793-.0873,8.3585-.1241l8.3584-.047c2.7862.0161,5.5723-.0039,8.3585.0421,2.7861.032,5.5723.0693,8.3584.1359l.1817.0043-.0028.1745C38.3917,39.7051,38.3021,41.44,38.2654,43.1308Zm-.048-.0479-.1548-5.15.1787.1788c-2.7861.0665-5.5723.1038-8.3584.1359-2.7862.0459-5.5723.0259-8.3585.0421l-8.3584-.0471q-4.1792-.0381-8.3585-.1241l.1856-.1856c-.0252,1.7247-.0663,3.4493-.0685,5.1739L4.8075,42.99c2.7791.0262,5.5626.004,8.3267-.0493,2.7662-.052,5.5112-.115,8.2765-.1081,2.7619-.0029,5.5473.0438,8.3344.0718C32.546,42.9537,35.3538,43.0012,38.2174,43.0829Z"/><path class="cls-2" d="M20.2959,61.44l-3.7873.1271c-1.2825.0284-2.5628.082-3.8678.0929l-3.91.0543c-1.31-.0055-2.6184-.0046-3.923-.0336l-.2705-.006.0058-.2588c.0515-2.3191.1446-4.6383.1514-6.9574.0223-1.16-.002-2.3192-.0076-3.4788s-.0443-2.3191-.0648-3.4787L4.6186,47.32l.1889-.005c2.5774-.0678,5.1549-.1193,7.7322-.1369l3.8661-.0363,3.8661.012.3461.0011.0009.3459c.006,2.3623-.0633,4.72-.108,7.0565Zm-.0479-.048L20.033,54.36c-.0446-2.3019-.1139-4.5825-.108-6.8585l.3469.3468-3.8661.012L12.54,47.8237c-2.5773-.0176-5.1548-.069-7.7322-.1369l.1856-.1856c-.02,1.16-.0606,2.3191-.0649,3.4787s-.03,2.3192-.0075,3.4788c.0068,2.3191.1,4.6383.1515,6.9574l-.2647-.2647c1.2728-.029,2.5414-.028,3.8092-.0335l3.8219.0543c1.2725.0109,2.57.0644,3.8646.0929Z"/><path class="cls-2" d="M38.2654,61.44l-3.7874.1271c-1.2825.0284-2.5627.082-3.8678.0929l-3.91.0543c-1.31-.0055-2.6184-.0046-3.9231-.0336l-.2705-.006.0058-.2588c.0515-2.3191.1446-4.6383.1514-6.9574.0224-1.16-.002-2.3192-.0075-3.4788s-.0444-2.3191-.0649-3.4787L22.588,47.32l.1889-.005c2.5775-.0678,5.1549-.1193,7.7322-.1369l3.8661-.0363,3.8661.012.3461.0011.0009.3459c.006,2.3623-.0633,4.72-.1079,7.0565Zm-.048-.048-.215-7.0325c-.0446-2.3019-.1139-4.5825-.1079-6.8585l.3468.3468-3.8661.012-3.8661-.0363c-2.5773-.0176-5.1547-.069-7.7322-.1369l.1857-.1856c-.02,1.16-.0606,2.3191-.0649,3.4787s-.03,2.3192-.0075,3.4788c.0068,2.3191.1,4.6383.1514,6.9574l-.2647-.2647c1.2729-.029,2.5415-.028,3.8093-.0335l3.8219.0543c1.2725.0109,2.57.0644,3.8645.0929Z"/><path class="cls-2" d="M20.2959,61.44l-3.7873.1271c-1.2825.0284-2.5628.082-3.8678.0929l-3.91.0543c-1.31-.0055-2.6184-.0046-3.923-.0336l-.2705-.006.0058-.2588c.0515-2.3191.1446-4.6383.1514-6.9574.0223-1.16-.002-2.3192-.0076-3.4788s-.0443-2.3191-.0648-3.4787L4.6186,47.32l.1889-.005c2.5774-.0678,5.1549-.1193,7.7322-.1369l3.8661-.0363,3.8661.012.3461.0011.0009.3459c.006,2.3623-.0633,4.72-.108,7.0565Zm-.0479-.048L20.033,54.36c-.0446-2.3019-.1139-4.5825-.108-6.8585l.3469.3468-3.8661.012L12.54,47.8237c-2.5773-.0176-5.1548-.069-7.7322-.1369l.1856-.1856c-.02,1.16-.0606,2.3191-.0649,3.4787s-.03,2.3192-.0075,3.4788c.0068,2.3191.1,4.6383.1515,6.9574l-.2647-.2647c1.2728-.029,2.5414-.028,3.8092-.0335l3.8219.0543c1.2725.0109,2.57.0644,3.8646.0929Z"/><path class="cls-2" d="M38.2654,61.44l-3.7874.1271c-1.2825.0284-2.5627.082-3.8678.0929l-3.91.0543c-1.31-.0055-2.6184-.0046-3.9231-.0336l-.2705-.006.0058-.2588c.0515-2.3191.1446-4.6383.1514-6.9574.0224-1.16-.002-2.3192-.0075-3.4788s-.0444-2.3191-.0649-3.4787L22.588,47.32l.1889-.005c2.5775-.0678,5.1549-.1193,7.7322-.1369l3.8661-.0363,3.8661.012.3461.0011.0009.3459c.006,2.3623-.0633,4.72-.1079,7.0565Zm-.048-.048-.215-7.0325c-.0446-2.3019-.1139-4.5825-.1079-6.8585l.3468.3468-3.8661.012-3.8661-.0363c-2.5773-.0176-5.1547-.069-7.7322-.1369l.1857-.1856c-.02,1.16-.0606,2.3191-.0649,3.4787s-.03,2.3192-.0075,3.4788c.0068,2.3191.1,4.6383.1514,6.9574l-.2647-.2647c1.2729-.029,2.5415-.028,3.8093-.0335l3.8219.0543c1.2725.0109,2.57.0644,3.8645.0929Z"/><path class="cls-4" d="M12.2187,16.5049V14.4925a.515.515,0,0,0,.3017-.0993h.06v.3289a1.1018,1.1018,0,0,1,.5664-.325v.3581a1.9356,1.9356,0,0,0-.5664.1752v1.5745Z"/><path class="cls-4" d="M15.249,15.5571H13.8458v.0486a.8346.8346,0,0,0,.0993.4418.58.58,0,0,0,.5391.2316,1.1921,1.1921,0,0,0,.4028-.0681,2.7986,2.7986,0,0,0,.2608-.1168v.3036a1.4818,1.4818,0,0,1-.6831.1674.984.984,0,0,1-.7707-.2939,1.1183,1.1183,0,0,1-.2355-.7707,1.2,1.2,0,0,1,.28-.868.8341.8341,0,0,1,.6286-.23.7733.7733,0,0,1,.796.4866,1.3822,1.3822,0,0,1,.0856.5157Zm-.3873-.2647a1.1255,1.1255,0,0,0-.0739-.3757.4234.4234,0,0,0-.4282-.2491.44.44,0,0,0-.4321.2511,1.0576,1.0576,0,0,0-.0817.3737Z"/><path class="cls-4" d="M15.5488,16.2713l.1206-.2763a1.3987,1.3987,0,0,0,.2783.2,1.0965,1.0965,0,0,0,.4808.1071.6983.6983,0,0,0,.3522-.0759.2708.2708,0,0,0,.146-.2433.2473.2473,0,0,0-.1577-.2258,2.2161,2.2161,0,0,0-.3775-.1323,1.9592,1.9592,0,0,1-.5158-.21.47.47,0,0,1-.2024-.4165.5378.5378,0,0,1,.218-.4554.83.83,0,0,1,.5119-.14,1.1218,1.1218,0,0,1,.7493.2492l-.1266.2627a.8472.8472,0,0,0-.5955-.2472.5667.5667,0,0,0-.2744.06.25.25,0,0,0-.1363.2335.2386.2386,0,0,0,.1324.216,1.8086,1.8086,0,0,0,.3717.1363,2.2557,2.2557,0,0,1,.5333.2043.4614.4614,0,0,1,.216.42.5632.5632,0,0,1-.29.506,1.0519,1.0519,0,0,1-.5546.1207A1.3669,1.3669,0,0,1,15.5488,16.2713Z"/><path class="cls-4" d="M17.7558,17.3106V14.4925a.5027.5027,0,0,0,.2978-.0993h.0642v.3289a2.1788,2.1788,0,0,1,.2316-.1829.7765.7765,0,0,1,.43-.1343.6051.6051,0,0,1,.5625.3289,1.4911,1.4911,0,0,1,.1479.7279,1.2871,1.2871,0,0,1-.2452.8641.6777.6777,0,0,1-.5353.2394.9683.9683,0,0,1-.5916-.2277v.9731Zm.362-1.2008a1.429,1.429,0,0,0,.1693.0992.7352.7352,0,0,0,.325.074.41.41,0,0,0,.4185-.2627,1.5211,1.5211,0,0,0,.072-.543,1.2015,1.2015,0,0,0-.1032-.5975.3611.3611,0,0,0-.3308-.1674.72.72,0,0,0-.3659.1051c-.0389.0233-.1.0623-.1849.1168Z"/><path class="cls-4" d="M20.7744,14.4049a.8547.8547,0,0,1,.7162.3114.8819.8819,0,0,1,.1654.3542,1.8249,1.8249,0,0,1,.039.4145,1.55,1.55,0,0,1-.0779.5411.8169.8169,0,0,1-.8427.5391.8573.8573,0,0,1-.7162-.3114.8819.8819,0,0,1-.1654-.3542,1.92,1.92,0,0,1-.039-.4282,1.1531,1.1531,0,0,1,.2453-.8038A.8754.8754,0,0,1,20.7744,14.4049Zm0,.2627a.488.488,0,0,0-.4009.1693,1.0723,1.0723,0,0,0-.1324.6345,1.7273,1.7273,0,0,0,.0506.4963.4566.4566,0,0,0,.4827.3348.4877.4877,0,0,0,.4009-.1694.5851.5851,0,0,0,.109-.2783,2.2473,2.2473,0,0,0,.0234-.37,1.6779,1.6779,0,0,0-.0506-.4826A.4566.4566,0,0,0,20.7744,14.6676Z"/><path class="cls-4" d="M22.1893,16.5049V14.4925a.4893.4893,0,0,0,.2978-.0993h.0642v.3289a2.4394,2.4394,0,0,1,.2881-.2.8728.8728,0,0,1,.432-.1168.4789.4789,0,0,1,.4457.2316.7222.7222,0,0,1,.09.3737v1.4947h-.362V15.0394q0-.3329-.2977-.3329a1.1512,1.1512,0,0,0-.5956.23v1.5687Z"/><path class="cls-4" d="M24.192,16.2713l.1207-.2763a1.3958,1.3958,0,0,0,.2783.2,1.0964,1.0964,0,0,0,.4807.1071.6987.6987,0,0,0,.3523-.0759.2707.2707,0,0,0,.1459-.2433.2472.2472,0,0,0-.1576-.2258,2.2181,2.2181,0,0,0-.3776-.1323,1.9582,1.9582,0,0,1-.5157-.21.47.47,0,0,1-.2024-.4165.5377.5377,0,0,1,.2179-.4554.83.83,0,0,1,.5119-.14,1.1216,1.1216,0,0,1,.7493.2492l-.1265.2627a.8476.8476,0,0,0-.5956-.2472.567.567,0,0,0-.2744.06.25.25,0,0,0-.1362.2335.2387.2387,0,0,0,.1323.216,1.8078,1.8078,0,0,0,.3718.1363,2.2545,2.2545,0,0,1,.5332.2043.4613.4613,0,0,1,.2161.42.5634.5634,0,0,1-.29.506,1.052,1.052,0,0,1-.5547.1207A1.3669,1.3669,0,0,1,24.192,16.2713Z"/><path class="cls-4" d="M26.5353,13.64a.2136.2136,0,0,1,.2238.2258.2225.2225,0,0,1-.0584.1576.2252.2252,0,0,1-.1654.0662.2167.2167,0,0,1-.2258-.2277.2119.2119,0,0,1,.06-.1557A.2253.2253,0,0,1,26.5353,13.64Zm-.181,2.8649V14.508a.4944.4944,0,0,0,.2977-.0992h.0643v2.0961Z"/><path class="cls-4" d="M27.8743,16.5321,27.08,14.44h.3912l.5294,1.5064.5177-1.5064h.3484l-.763,2.0922Z"/><path class="cls-4" d="M30.9805,15.5571H29.5772v.0486a.8346.8346,0,0,0,.0993.4418.58.58,0,0,0,.5391.2316,1.1931,1.1931,0,0,0,.4029-.0681,2.81,2.81,0,0,0,.2608-.1168v.3036a1.4825,1.4825,0,0,1-.6832.1674.9843.9843,0,0,1-.7707-.2939,1.1188,1.1188,0,0,1-.2355-.7707,1.2,1.2,0,0,1,.28-.868.8341.8341,0,0,1,.6286-.23.7731.7731,0,0,1,.796.4866,1.38,1.38,0,0,1,.0857.5157Zm-.3873-.2647a1.1252,1.1252,0,0,0-.074-.3757.4233.4233,0,0,0-.4282-.2491.44.44,0,0,0-.432.2511,1.0573,1.0573,0,0,0-.0818.3737Z"/><path class="cls-4" d="M12.1613,21.315l-.5585-2.0922h.3834l.3542,1.4947.4612-1.51h.2725l.4457,1.51.3717-1.4947h.3173l-.5567,2.0922h-.3l-.4379-1.5181L12.44,21.315Z"/><path class="cls-4" d="M16.3555,20.34H14.9522v.0487a.8346.8346,0,0,0,.0993.4418.58.58,0,0,0,.5391.2316,1.1931,1.1931,0,0,0,.4029-.0681,2.85,2.85,0,0,0,.2608-.1168v.3036a1.4825,1.4825,0,0,1-.6832.1674.9843.9843,0,0,1-.7707-.2939,1.1188,1.1188,0,0,1-.2355-.7707,1.2,1.2,0,0,1,.28-.868.8341.8341,0,0,1,.6286-.23.7731.7731,0,0,1,.796.4866,1.3821,1.3821,0,0,1,.0857.5157Zm-.3873-.2647a1.1251,1.1251,0,0,0-.074-.3756.4233.4233,0,0,0-.4282-.2491.44.44,0,0,0-.432.2511,1.0573,1.0573,0,0,0-.0818.3736Z"/><path class="cls-4" d="M17.2313,19.505a2.0008,2.0008,0,0,1,.2569-.2.7941.7941,0,0,1,.42-.1187.5873.5873,0,0,1,.5546.3231,1.0238,1.0238,0,0,1,.1168.362,2.608,2.608,0,0,1,.0234.36,1.7791,1.7791,0,0,1-.0779.5839.796.796,0,0,1-.3406.4379.7049.7049,0,0,1-.3639.0954.9979.9979,0,0,1-.6462-.2725l-.07.2122h-.2355V18.382a.485.485,0,0,0,.2977-.0992h.0643Zm0,1.3877c.0739.0477.13.0817.1693.1012a.7618.7618,0,0,0,.325.072.407.407,0,0,0,.3893-.2.7347.7347,0,0,0,.0856-.2744c.0107-.11.0156-.24.0156-.3912a1.6283,1.6283,0,0,0-.0273-.35.4869.4869,0,0,0-.1654-.29.3863.3863,0,0,0-.2374-.0662.6875.6875,0,0,0-.3348.0857c-.036.02-.11.0671-.22.1381Z"/><path class="cls-4" d="M21.4643,21.0211a1.7261,1.7261,0,0,1-.2608.2024.8147.8147,0,0,1-.432.1246.6151.6151,0,0,1-.5644-.3289.9284.9284,0,0,1-.0973-.2433,2.25,2.25,0,0,1-.0487-.4924,1.3233,1.3233,0,0,1,.2219-.8466.6774.6774,0,0,1,.5508-.2491.9791.9791,0,0,1,.5994.23V18.382a.4912.4912,0,0,0,.3017-.0992h.06v3.005h-.2394Zm-.0311-1.3565a1.7706,1.7706,0,0,0-.179-.1012.7752.7752,0,0,0-.3309-.072.4052.4052,0,0,0-.3815.2,1.2929,1.2929,0,0,0-.0934.59,1.2246,1.2246,0,0,0,.0973.5936.373.373,0,0,0,.3348.1868.7286.7286,0,0,0,.3445-.09c.0476-.0263.1177-.0711.2082-.1343Z"/><path class="cls-4" d="M24.1132,20.34H22.71v.0487a.8346.8346,0,0,0,.0993.4418.58.58,0,0,0,.5391.2316,1.1931,1.1931,0,0,0,.4029-.0681,2.8377,2.8377,0,0,0,.2608-.1168v.3036a1.4825,1.4825,0,0,1-.6832.1674.9843.9843,0,0,1-.7707-.2939,1.1188,1.1188,0,0,1-.2355-.7707,1.2,1.2,0,0,1,.28-.868.8341.8341,0,0,1,.6286-.23.7731.7731,0,0,1,.796.4866,1.38,1.38,0,0,1,.0857.5157Zm-.3873-.2647a1.1251,1.1251,0,0,0-.074-.3756.4233.4233,0,0,0-.4282-.2491.44.44,0,0,0-.432.2511,1.0573,1.0573,0,0,0-.0818.3736Z"/><path class="cls-4" d="M24.4129,21.0542l.1207-.2764a1.393,1.393,0,0,0,.2783.2005,1.0977,1.0977,0,0,0,.4807.107.6987.6987,0,0,0,.3523-.0759.27.27,0,0,0,.1459-.2432.2472.2472,0,0,0-.1576-.2258,2.2181,2.2181,0,0,0-.3776-.1323,1.9582,1.9582,0,0,1-.5157-.21.47.47,0,0,1-.2024-.4165.5378.5378,0,0,1,.2179-.4555.8311.8311,0,0,1,.5119-.14,1.1216,1.1216,0,0,1,.7493.2491l-.1265.2628a.8476.8476,0,0,0-.5956-.2472.567.567,0,0,0-.2744.06.2505.2505,0,0,0-.1362.2336.2389.2389,0,0,0,.1323.216,1.8078,1.8078,0,0,0,.3718.1363,2.25,2.25,0,0,1,.5332.2043.4612.4612,0,0,1,.2161.42.5634.5634,0,0,1-.29.506,1.0522,1.0522,0,0,1-.5547.1207A1.3669,1.3669,0,0,1,24.4129,21.0542Z"/><path class="cls-4" d="M26.7562,18.4229a.2136.2136,0,0,1,.2238.2258.2225.2225,0,0,1-.0584.1576.2252.2252,0,0,1-.1654.0662.2167.2167,0,0,1-.2258-.2277.2119.2119,0,0,1,.06-.1557A.2253.2253,0,0,1,26.7562,18.4229Zm-.181,2.8649V19.2909a.4944.4944,0,0,0,.2977-.0992h.0643v2.0961Z"/><path class="cls-4" d="M27.8753,20.55a.3277.3277,0,0,0-.0993.2122c0,.1245.0885.1868.2666.1868h.4905a1.0664,1.0664,0,0,1,.59.1265.477.477,0,0,1,.1888.4223q0,.6408-1.0218.64a1.6206,1.6206,0,0,1-.7376-.1324.4246.4246,0,0,1-.255-.3912q0-.2728.3484-.4535a.3274.3274,0,0,1-.1771-.2919.5559.5559,0,0,1,.2355-.4106.6472.6472,0,0,1-.2628-.5528.6712.6712,0,0,1,.2355-.543.6991.6991,0,0,1,.253-.1343,1.4046,1.4046,0,0,1,.37-.0408,1.4407,1.4407,0,0,1,.3328.035h.71v.2044h-.0681a.733.733,0,0,0-.2666.0486.7308.7308,0,0,1,.1148.4107.6815.6815,0,0,1-.2044.5235.91.91,0,0,1-.6383.2A1.2267,1.2267,0,0,1,27.8753,20.55Zm-.0468.6793a.439.439,0,0,0-.1887.3406.2443.2443,0,0,0,.1712.2355,1.3658,1.3658,0,0,0,.5.0661,1.24,1.24,0,0,0,.471-.07.3615.3615,0,0,0,.1518-.1071.3066.3066,0,0,0,.0467-.1849.2164.2164,0,0,0-.1343-.2238,1.1389,1.1389,0,0,0-.362-.037h-.3853A1.6834,1.6834,0,0,1,27.8285,21.2294Zm.4632-1.7847a.5029.5029,0,0,0-.4048.14.5982.5982,0,0,0,.0175.65.5186.5186,0,0,0,.3757.1168.4914.4914,0,0,0,.397-.1382.4863.4863,0,0,0,.0876-.3192.4663.4663,0,0,0-.0993-.3347A.5035.5035,0,0,0,28.2917,19.4447Z"/><path class="cls-4" d="M29.7222,21.2878V19.2753a.49.49,0,0,0,.2978-.0992h.0642v.3289a2.4547,2.4547,0,0,1,.2881-.2.874.874,0,0,1,.432-.1167.4787.4787,0,0,1,.4457.2316.7221.7221,0,0,1,.09.3736v1.4948h-.362V19.8222q0-.3327-.2978-.3328a1.1512,1.1512,0,0,0-.5956.23v1.5687Z"/><path class="cls-2" d="M19.7365,31.7825l-.812-.3139v-.16l.812-.3152v.1443l-.6941.25.6941.25Z"/><path class="cls-2" d="M20.2114,32.0236l-.2616-.98h.18l.1662.7.2159-.7074h.1279l.2086.7074.1742-.7h.1484l-.261.98h-.14l-.2047-.7107-.2225.7107Z"/><path class="cls-2" d="M22.1752,31.5672h-.657V31.59a.3928.3928,0,0,0,.047.2073.2715.2715,0,0,0,.2524.1079.5648.5648,0,0,0,.1887-.0318c.03-.0112.0716-.03.1219-.0543v.1418a.6967.6967,0,0,1-.32.0788.462.462,0,0,1-.361-.1378.5233.5233,0,0,1-.1106-.361.5634.5634,0,0,1,.1318-.4066.389.389,0,0,1,.2941-.1073.3623.3623,0,0,1,.3729.2278.6554.6554,0,0,1,.04.2418Zm-.1808-.1238a.5261.5261,0,0,0-.0351-.1762.1981.1981,0,0,0-.2-.1166.2067.2067,0,0,0-.2027.1173.5107.5107,0,0,0-.0384.1755Z"/><path class="cls-2" d="M22.5852,31.1765a.8911.8911,0,0,1,.12-.0941.3718.3718,0,0,1,.1968-.0556.2743.2743,0,0,1,.26.151.479.479,0,0,1,.055.1695,1.24,1.24,0,0,1,.0112.1689.825.825,0,0,1-.0371.2736.3714.3714,0,0,1-.1589.2046.331.331,0,0,1-.1709.0451.4721.4721,0,0,1-.3027-.1278l-.0325.0993h-.1106v-1.36a.2242.2242,0,0,0,.14-.0471h.03Zm0,.65c.0351.0225.0616.0378.0795.047a.3539.3539,0,0,0,.1523.0338.19.19,0,0,0,.1822-.094.3487.3487,0,0,0,.04-.1285c.0046-.0517.0072-.1126.0072-.1828a.7609.7609,0,0,0-.0132-.1643.2282.2282,0,0,0-.0775-.1358.18.18,0,0,0-.1106-.0311.3193.3193,0,0,0-.157.04c-.0172.0093-.0516.0311-.1033.0649Z"/><path class="cls-2" d="M23.46,31.7825v-.1444l.6941-.25-.6941-.25v-.1443l.812.3139v.159Z"/><path class="cls-2" d="M18.6986,40.9584l-.812-.3139v-.16l.812-.3152v.1444l-.6941.25.6941.25Z"/><path class="cls-2" d="M19.5875,41.0617a.8281.8281,0,0,1-.1219.0954.3864.3864,0,0,1-.2027.0583.288.288,0,0,1-.2642-.1543.4357.4357,0,0,1-.0457-.1139,1.042,1.042,0,0,1-.0225-.23.62.62,0,0,1,.1039-.3968.3183.3183,0,0,1,.2577-.1165.4556.4556,0,0,1,.2808.1079v-.4848a.2243.2243,0,0,0,.1411-.047h.0285v1.4074h-.112Zm-.0146-.6351a.7248.7248,0,0,0-.0841-.0471.3585.3585,0,0,0-.155-.0337.1884.1884,0,0,0-.1781.094.6033.6033,0,0,0-.0438.2762.5813.5813,0,0,0,.0451.2775.1751.1751,0,0,0,.1569.0874.34.34,0,0,0,.1617-.0417,1.028,1.028,0,0,0,.0973-.0629Z"/><path class="cls-2" d="M20.8274,40.7432H20.17v.0225a.3916.3916,0,0,0,.0471.2073.2714.2714,0,0,0,.2523.1079.5674.5674,0,0,0,.1888-.0317c.03-.0113.0715-.03.1218-.0544v.1418a.6961.6961,0,0,1-.32.0788.4618.4618,0,0,1-.3609-.1378.523.523,0,0,1-.1106-.3609.5631.5631,0,0,1,.1318-.4067.3892.3892,0,0,1,.294-.1073.3623.3623,0,0,1,.3729.2278.6553.6553,0,0,1,.04.2418Zm-.1808-.1239a.5261.5261,0,0,0-.0351-.1762.1982.1982,0,0,0-.2-.1165.2064.2064,0,0,0-.2026.1172.5128.5128,0,0,0-.0385.1755Z"/><path class="cls-2" d="M20.9678,41.0776l.0563-.13a.6425.6425,0,0,0,.13.0941.5086.5086,0,0,0,.2252.05.3236.3236,0,0,0,.1649-.0358.1258.1258,0,0,0,.0682-.1139.1145.1145,0,0,0-.0735-.1053,1.0571,1.0571,0,0,0-.1769-.0623.9082.9082,0,0,1-.2417-.0986.2205.2205,0,0,1-.0947-.1948.25.25,0,0,1,.102-.2132.389.389,0,0,1,.24-.0656.5284.5284,0,0,1,.3511.1166l-.06.1232a.394.394,0,0,0-.2789-.1159.26.26,0,0,0-.1285.0284.116.116,0,0,0-.0636.1093.1128.1128,0,0,0,.0623.1014.8573.8573,0,0,0,.1735.0635,1.041,1.041,0,0,1,.25.0954.2185.2185,0,0,1,.1007.1974.2625.2625,0,0,1-.1358.2364.4927.4927,0,0,1-.26.057A.6416.6416,0,0,1,20.9678,41.0776Z"/><path class="cls-2" d="M22.0653,39.845a.1053.1053,0,0,1,.0775.0312.116.116,0,0,1,0,.149.1051.1051,0,0,1-.0775.0305.1028.1028,0,0,1-.0775-.0305.1045.1045,0,0,1-.0285-.0762.0977.0977,0,0,1,.0285-.0728A.105.105,0,0,1,22.0653,39.845Zm-.0848,1.3419v-.9352a.2258.2258,0,0,0,.1391-.0464h.03v.9816Z"/><path class="cls-2" d="M22.5892,40.8412a.1538.1538,0,0,0-.0464.0993c0,.059.0417.0881.1245.0881h.23a.4966.4966,0,0,1,.2761.059.2226.2226,0,0,1,.0881.198c0,.1994-.1589.2994-.4782.2994a.7692.7692,0,0,1-.3457-.0616.2.2,0,0,1-.1192-.1835q0-.1272.1629-.2119a.1549.1549,0,0,1-.0828-.1371.26.26,0,0,1,.1106-.1921.3032.3032,0,0,1-.1232-.259.3143.3143,0,0,1,.1106-.2543.32.32,0,0,1,.1179-.0629.7687.7687,0,0,1,.3292-.0027h.3325v.0954h-.0318a.3341.3341,0,0,0-.1245.0232.3412.3412,0,0,1,.0536.192.3172.3172,0,0,1-.096.2451.4221.4221,0,0,1-.2987.0941A.5613.5613,0,0,1,22.5892,40.8412Zm-.0219.3186a.2046.2046,0,0,0-.0887.16.1144.1144,0,0,0,.08.11.6391.6391,0,0,0,.2345.0312.5788.5788,0,0,0,.2205-.0332.168.168,0,0,0,.0709-.05.1445.1445,0,0,0,.0218-.0868.1005.1005,0,0,0-.0622-.1046.5156.5156,0,0,0-.17-.0179h-.1808A.793.793,0,0,1,22.5673,41.16Zm.2166-.8359a.2357.2357,0,0,0-.1894.0656.2187.2187,0,0,0-.0411.145.2162.2162,0,0,0,.05.16.2409.2409,0,0,0,.1755.0544.2285.2285,0,0,0,.1861-.065.2257.2257,0,0,0,.0411-.149.2222.2222,0,0,0-.0464-.157A.2391.2391,0,0,0,22.7839,40.3239Z"/><path class="cls-2" d="M23.4535,41.1869v-.9425a.2272.2272,0,0,0,.14-.0463h.03v.1543a1.1019,1.1019,0,0,1,.1351-.0941.409.409,0,0,1,.2027-.0549.226.226,0,0,1,.2086.1086.3384.3384,0,0,1,.0417.1748v.7h-.17v-.6862c0-.1039-.0464-.1556-.14-.1556a.54.54,0,0,0-.2788.1073v.7345Z"/><path class="cls-2" d="M24.4973,40.9584V40.814l.6942-.25-.6942-.25V40.17l.8121.3139v.159Z"/><path class="cls-2" d="M13.7273,57.1683a3.14,3.14,0,0,1-2.06.2547,2.3254,2.3254,0,0,1-1.5892-1.352,2.9554,2.9554,0,0,1,1.4311-3.6937,2.8961,2.8961,0,0,1,2.1162-.1391,2.1594,2.1594,0,0,1,1.4286,1.5091,2.2908,2.2908,0,0,1-.3916,2.0168,1.3711,1.3711,0,0,1-.9436.4573.7649.7649,0,0,1-.5315-.1278.6838.6838,0,0,1-.252-.4929l.0674.0614-.015,0,.058-.0327a1.1358,1.1358,0,0,1-1.4406.5274.94.94,0,0,1-.4848-.6808,1.8227,1.8227,0,0,1,.0411-.8247,1.7967,1.7967,0,0,1,1.0863-1.2027,2.1862,2.1862,0,0,1,1.6516.0631l.0953.0424-.0182.1175-.1367.8827a5.637,5.637,0,0,0-.1022.8452.1909.1909,0,0,0,.0273.1013c-.005-.0007.0128.0081.0613.0017a.4552.4552,0,0,0,.2571-.1753,1.3723,1.3723,0,0,0,.24-.7362,1.5481,1.5481,0,0,0-.5678-1.425,1.8943,1.8943,0,0,0-1.5611-.23,1.9322,1.9322,0,0,0-1.2382,1.0184,2.5156,2.5156,0,0,0-.1861,1.654,1.6056,1.6056,0,0,0,1.0908,1.1849,2.4468,2.4468,0,0,0,1.7017-.0922l.035-.0157.0092.0339Zm-.031-.0139-.149-.4164.044.0182a2.48,2.48,0,0,1-1.7786.1939,1.8018,1.8018,0,0,1-1.2586-1.2848,2.7627,2.7627,0,0,1,.1473-1.833,2.2319,2.2319,0,0,1,3.26-.9487,1.9041,1.9041,0,0,1,.7208,1.7346,1.683,1.683,0,0,1-.3279.9288.788.788,0,0,1-.4787.2943.4026.4026,0,0,1-.3542-.1046.4892.4892,0,0,1-.1184-.3111,5.4409,5.4409,0,0,1,.1186-.9234l.1495-.88.0771.16a1.9647,1.9647,0,0,0-1.4088-.0848,1.5555,1.5555,0,0,0-.9719,1.0153c-.1432.4526-.12,1.0639.3155,1.2923a.9839.9839,0,0,0,1.2467-.4456l.0182-.0332.04.0005h.015l.0628.0007.0048.0609a.5538.5538,0,0,0,.1925.4071.6494.6494,0,0,0,.45.1139,1.1692,1.1692,0,0,0,.8665-.4186,2.0946,2.0946,0,0,0,.32-1.9,1.9578,1.9578,0,0,0-1.3485-1.3176,2.7764,2.7764,0,0,0-1.9141.1708,2.6329,2.6329,0,0,0-1.29,1.4086,2.7606,2.7606,0,0,0-.0381,1.9264A2.1163,2.1163,0,0,0,11.711,57.262,3.1893,3.1893,0,0,0,13.6963,57.1544Z"/><path class="cls-2" d="M13.0336,54.089a1.103,1.103,0,0,0-.7853.4352.9222.9222,0,0,0-.2453.4206.4793.4793,0,0,0,.1.4448c.2274.15.4526-.0784.5775-.3514a2.3445,2.3445,0,0,0,.1576-.4305Zm.0282-.0189a2.3219,2.3219,0,0,1-.0531,1.12.939.939,0,0,1-.42.4615.4753.4753,0,0,1-.6328-.1478,1.0005,1.0005,0,0,1-.0623-.5737,1.441,1.441,0,0,1,.12-.5625A.7455.7455,0,0,1,13.0618,54.07Z"/><path class="cls-2" d="M32.635,56.1844c-.5719-.6388-1.096-1.205-1.5741-1.8049L30.974,54.27l.1133-.09c.2762-.2192.5543-.436.8424-.64l.0172.2432c-.5413-.3044-1.0587-.6521-1.5929-.9691-.5352-.3155-1.0805-.6125-1.6384-.8866l.1144-.0911c.3976,1.1483.7573,2.3074,1.0955,3.4727l-.2779-.0933.7954-.59.1375-.102.1.1333q.7259.9672,1.4153,1.9625l-.1086-.0133Zm.0337.0041-.5861.5412-.0535.0494-.0553-.0627q-.801-.9083-1.5626-1.8473l.2374.0313-.787.6008-.2074.1583-.0708-.2516c-.3288-1.168-.6363-2.342-.9058-3.527l-.0426-.1875.1571.0964c.53.3251,1.0722.6274,1.6247.9112.5534.2823,1.1238.5338,1.67.8288l.1919.1035-.1746.14c-.2755.22-.5608.4274-.848.6321l.0263-.1988C31.7912,54.8688,32.2539,55.565,32.6687,56.1885Z"/><path class="cls-3" d="M37.5208.2108,23.0948.2924,8.6688.4436c-1.1952.02-2.42.01-3.5908.0542A4.8461,4.8461,0,0,0,.59,4.8951C.5506,6.044.5909,7.2847.5876,8.475L.6011,22.9012l-.11,28.8526C.4741,56.5626.5044,61.3713.5328,66.18l.02,3.6065.01,1.8033a11.6931,11.6931,0,0,0,.0768,1.7743,4.9,4.9,0,0,0,1.6849,2.97,4.9833,4.9833,0,0,0,3.2029,1.1638l28.852-.1861c1.1929-.012,2.4252.0054,3.5856-.0308a4.7314,4.7314,0,0,0,3.0131-1.3455A4.8106,4.8106,0,0,0,42.3939,72.96c.0409-1.1365.0026-2.3861.0077-3.5736L42.3786,54.96q-.028-14.4263.073-28.8526l.1023-14.4264L42.57,8.0748l.0029-1.8033a11.7765,11.7765,0,0,0-.0654-1.79,5.0151,5.0151,0,0,0-1.702-3.0508A5.1219,5.1219,0,0,0,37.5208.2108Zm0-.0678a5.2019,5.2019,0,0,1,3.345,1.217,5.12,5.12,0,0,1,1.7581,3.1029,11.85,11.85,0,0,1,.0793,1.8084l.01,1.8032.03,3.6066L42.898,26.107q.1686,14.426.18,28.8521l.03,14.4262c-.0122,1.2163.0246,2.3727-.0278,3.6382a5.4938,5.4938,0,0,1-1.634,3.3943,5.3967,5.3967,0,0,1-3.44,1.5173c-1.2422.0332-2.4155.008-3.6266.015L5.5277,77.87a5.342,5.342,0,0,1-3.4271-1.2723A5.232,5.232,0,0,1,.3244,73.4145,11.9382,11.9382,0,0,1,.2567,71.59L.26,69.7871l.0064-3.6066C.2772,61.3717.29,56.5629.2557,51.7543L.0392,22.9022,0,8.4761C.0138,7.2625-.02,6.0972.033,4.844a5.4214,5.4214,0,0,1,1.6177-3.35A5.2734,5.2734,0,0,1,5.0466.01C6.2785-.0156,7.4592.0169,8.6681.0178L23.0944.1152Z"/><path class="cls-3" d="M21.591,75.4024a4.5461,4.5461,0,0,1-2.9491-1.0372A3.6885,3.6885,0,0,1,17.3457,71.42a4.2661,4.2661,0,0,1,1.3582-2.877,4.5024,4.5024,0,0,1,2.8725-1.2713,4.0208,4.0208,0,0,1,3.0245,1.113,4.1623,4.1623,0,0,1,1.3,3.02,3.8936,3.8936,0,0,1-1.3568,2.9573A4.5475,4.5475,0,0,1,21.591,75.4024Zm0-.0679a3.4662,3.4662,0,0,0,2.6369-1.287,4.12,4.12,0,0,0,.95-2.6409,3.7771,3.7771,0,0,0-1.0265-2.57,3.9271,3.9271,0,0,0-2.5737-1.1936A3.4958,3.4958,0,0,0,18.86,68.6986a3.661,3.661,0,0,0-.95,2.7207,4.47,4.47,0,0,0,1.0322,2.6444A3.4689,3.4689,0,0,0,21.5908,75.3345Z"/><path class="cls-3" d="M39.8545,65.3043l-18.164.219-18.3136.1244-.3.002-.0006-.3015c-.0088-4.9054-.0137-9.8109.016-14.7165L3.1855,35.915c0-4.9055.0365-9.8111-.0116-14.7165L3.082,6.4821l-.0012-.1845.1866-.0015L21.4945,6.148l18.2273-.0894.3559-.0017,0,.3566.0113,14.7814c.01,4.93-.0216,9.85-.0519,14.76Zm-.0481-.0478L39.5156,35.74c-.0484-4.9011-.0975-9.792-.1059-14.6733L39.3671,6.4148l.356.3547L21.4957,6.7479,3.268,6.6674l.1853-.1859L3.4156,21.198c-.03,4.9056.0244,9.811.0428,14.7165l.1474,14.7163c.0478,4.9054.061,9.8109.07,14.7164l-.3-.2994,18.1406.0571Z"/><text class="cls-5" transform="translate(13.3245 16.4562)">responsive<tspan x="-0.3782" y="4.0693">web design</tspan></text></g></g></g></svg>