<svg xmlns="http://www.w3.org/2000/svg" xmlns:xlink="http://www.w3.org/1999/xlink" viewBox="0 0 109.0148 101.2695"><defs><style>.cls-1{fill:none;}.cls-2{clip-path:url(#clip-path);}.cls-3,.cls-5{fill:#575756;}.cls-4{fill:#0087b9;}.cls-5{font-size:2.0347px;font-family:DBOffice-Bold, DB Office;font-weight:700;}.cls-6{letter-spacing:-0.0742em;}.cls-7{letter-spacing:-0.0002em;}.cls-8{fill:#fff;}</style><clipPath id="clip-path"><rect class="cls-1" x="11.0948" y="4.4884" width="89.3656" height="92.609"/></clipPath></defs><title>Element 16</title><g id="Ebene_2" data-name="Ebene 2"><g id="Ebene_1-2" data-name="Ebene 1"><g id="Illustrationen"><g class="cls-2"><rect class="cls-3" x="55.4386" y="4.4881" width="0.6782" height="92.6089"/><rect class="cls-3" x="11.095" y="50.4532" width="89.3655" height="0.6782"/></g><rect class="cls-3" x="55.4383" y="4.5385" width="0.6782" height="92.5075" transform="translate(-19.5788 54.3169) rotate(-44.9997)"/><rect class="cls-3" x="9.5236" y="50.4539" width="92.5075" height="0.6782" transform="translate(-19.5792 54.3175) rotate(-45)"/><path class="cls-4" d="M25.0642,50.8078l.1274-15.0442.1853-15.1151.0042-.3481.3348.103,15.0813,4.6422,15.06,4.7113h-.16l15.1-4.582L85.8857,20.552l.2224-.0681-.0944.2126L72.6058,50.8842l.0041-.174,10.8212,27.3.12.304-.3022.1285L55.64,90.1827l-.3089.1314-.1371-.3048L43.1776,63.2908l.0716.0848-9.1263-6.2821Zm.06-.0312,9.2118,6.1276,9.1442,6.131.0471.0315.0247.0535L55.8176,89.7253l-.4458-.1733L82.9862,77.8231l-.1815.4324L72.1912,50.8744l-.0344-.0889.0387-.0853L85.8206,20.61l.1279.1444L70.8966,25.4921,55.8573,30.271l-.0787.025-.0811-.025-15.0791-4.65L25.5607,20.9028l.339-.245-.3587,15.024Z"/><text class="cls-5" transform="translate(42.0201 1.8982)">WETTBEWERBSFÄHIGKEIT</text><text class="cls-5" transform="translate(78.0162 15.4373)">INNO<tspan class="cls-6" x="5.0864" y="0">VA</tspan><tspan class="cls-7" x="7.6108" y="0">TIONSKRAFT</tspan></text><text class="cls-5" transform="translate(85.0997 48.8064)">UMSETZBARKEIT</text><text class="cls-5" transform="translate(13.9517 15.4373)">KUNDENNUTZEN</text><text class="cls-5" transform="translate(7.8839 48.8064)">REN<tspan class="cls-6" x="4.2954" y="0">T</tspan><tspan x="5.3872" y="0">ABILITÄT</tspan></text><text class="cls-5" transform="translate(8.4762 87.1853)">DIFFERENZIERUNGSKRAFT</text><text class="cls-5" transform="translate(75.6607 87.1853)">UNTERNEHMENSNUTZEN</text><text class="cls-5" transform="translate(46.005 100.8094)">UNTERNEHMENSFIT</text><polygon class="cls-8" points="37.983 34.359 40.04 33.602 47.252 41.368 46.291 42.724 37.983 34.359"/><path class="cls-4" d="M38.3559,47.5783A8.3572,8.3572,0,0,0,43.1634,40.77c.0215-.2015-.0214-.41,0-.61a8.3591,8.3591,0,0,1-4.8075,6.8087c-.0844.0418.0771.5723,0,.61Z"/><path class="cls-4" d="M33.1819,42.3555a8.7533,8.7533,0,0,1,2.6418-3.0618,8.212,8.212,0,0,1,4.7377-.9907c-.0007,0,.01-.61,0-.61a8.212,8.212,0,0,0-4.7377.9907,8.7533,8.7533,0,0,0-2.6418,3.0618c-.0866.1584.0846.4558,0,.61Z"/><path class="cls-4" d="M43.56,39.434a7.96,7.96,0,0,1,1.47,1.5872c.5538,1.0069.0893,2.2638-.2937,3.2385-.07.1777.0686.4359,0,.61a7.2725,7.2725,0,0,0,.5442-3.5576,4.4138,4.4138,0,0,0-1.72-2.4889c.0994.0977-.104.5081,0,.61Z"/><path class="cls-4" d="M43.9984,38.9188c1.8018,2.5386,4.2369,1.6186,6.1414-.23.104-.1009-.0992-.514,0-.61-1.9045,1.8489-4.34,2.7689-6.1414.23.0945.1331-.0975.473,0,.61Z"/><path class="cls-4" d="M44.4328,38.6194a8.38,8.38,0,0,0,3.9417-1.1909,4.45,4.45,0,0,0,2.023-3.7736c.0008-.0786-.0021-.6548-.0043-.4316A4.4835,4.4835,0,0,1,47.86,37.1274a8.4008,8.4008,0,0,1-3.4271.8816c-.026.0028.017.6085,0,.61Z"/><path class="cls-4" d="M41.7519,37.077a6.2263,6.2263,0,0,0-1.5266-1.5592c-1.0962-.5871-2.5735-.1878-3.6586.1764-.0654.0219.0572.5912,0,.61,1.0861-.3646,2.5621-.7639,3.6586-.1764a6.2251,6.2251,0,0,1,1.5266,1.5593c-.0985-.1157.1024-.49,0-.6105Z"/><path class="cls-4" d="M42.2163,36.6438c-2.24-1.7962-.8285-3.7058.89-5.2492.1036-.0931-.0985-.5219,0-.61-1.1289,1.0139-2.1316,2.0734-2.146,3.65a3.224,3.224,0,0,0,1.2561,2.82c-.0965-.0774.1021-.5285,0-.61Z"/><path class="cls-4" d="M42.89,36.9655a8.59,8.59,0,0,1,1.3438-3.542,4.585,4.585,0,0,1,3.95-2.05c-.0036,0,.0128-.61,0-.61a4.5865,4.5865,0,0,0-3.95,2.05,8.5873,8.5873,0,0,0-1.3438,3.542c-.04.1962.0394.416,0,.61Z"/><ellipse class="cls-8" cx="42.3605" cy="38.6347" rx="2.295" ry="1.8856" transform="translate(-14.9686 39.2805) rotate(-43.0116)"/><path class="cls-4" d="M41.2662,37.2773c.8872-.7684,2.39-.8771,2.8589.4032a2.24,2.24,0,0,1-.6958,2.3247,1.7054,1.7054,0,0,1-2.8333-.4164,2.28,2.28,0,0,1,.7034-2.3412c.1209-.121-.3548-.079-.45.0165-.8445.845-1.3114,2.44-.1385,3.2477a2.6581,2.6581,0,0,0,3.1448-.4917c.866-.806,1.3008-2.3779.2222-3.2109a2.6264,2.6264,0,0,0-3.1953.4252C40.6828,37.4072,41.1673,37.363,41.2662,37.2773Z"/><ellipse class="cls-8" cx="44.2569" cy="36.8655" rx="1.1044" ry="0.7425" transform="translate(-13.2521 40.0986) rotate(-43.0116)"/><path class="cls-4" d="M43.9472,36.3621c.281-.2448.8412-.4823.9916.0333a1.0453,1.0453,0,0,1-.3721.9735c-.2679.25-.8023.4688-.9816.0017a1.032,1.032,0,0,1,.3621-1.0085c.2018-.2007-.2787-.1932-.3935-.0791-.3534.3515-.7815,1.0866-.26,1.4946.49.3833,1.2758.0335,1.6668-.33.3613-.3354.7661-1.0755.2766-1.4833-.4943-.4119-1.2793-.0336-1.6831.3183C43.3416,36.4678,43.8269,36.467,43.9472,36.3621Z"/></g></g></g></svg>