<svg xmlns="http://www.w3.org/2000/svg" viewBox="0 0 89.7758 63.1945"><defs><style>.cls-1{fill:#575756;}.cls-2{fill:#0087b9;}.cls-3{fill:#fff;}</style></defs><title>Element 25</title><g id="Ebene_2" data-name="Ebene 2"><g id="Ebene_1-2" data-name="Ebene 1"><g id="Illustrationen"><path class="cls-1" d="M23.8175,16.3228a8.0781,8.0781,0,0,1-2.0183,5.3956,7.023,7.023,0,0,1-5.3955,2.3189,8.0482,8.0482,0,0,1-7.5974-7.7144,7.4557,7.4557,0,0,1,2.1111-5.4864,7.63,7.63,0,0,1,5.4863-2.3242,7.3284,7.3284,0,0,1,5.4044,2.4062A8.08,8.08,0,0,1,23.8175,16.3228Zm-.0822,0a6.77,6.77,0,0,0-2.3093-5.0222,7.51,7.51,0,0,0-5.0223-1.9125,7.1636,7.1636,0,0,0-4.94,1.9946,7.3416,7.3416,0,0,0-2.2077,4.94,6.81,6.81,0,0,0,2.0289,5.1191,7.0225,7.0225,0,0,0,5.1191,1.9118,7.93,7.93,0,0,0,5.0311-2A6.7741,6.7741,0,0,0,23.7353,16.3228Z"/><path class="cls-2" d="M53.49,46.5041c-.14-1.6179-.1986-3.2357-.2614-4.8535-.0429-1.6177-.0753-3.2355-.0623-4.8533s.1155-3.2357.1778-4.8535c.077-1.6178.0662-3.2356.0379-4.8534l-.0024-.1458.1515-.0032c.8141-.0172,1.6284-.058,2.4425-.09l.2243-.0089.0153.2483c.1259,2.0548.1493,4.11.19,6.1644.0148,1.0274.0142,2.0548-.0074,3.0821-.01,1.0274-.0648,2.0549-.0948,3.0823h-.6535c-.03-1.0274-.0852-2.0549-.0951-3.0823-.0216-1.0273-.022-2.0547-.0072-3.0821.04-2.0548.0636-4.11.19-6.1644l.2391.2393c-.8141-.0325-1.6284-.0732-2.4425-.09l.149-.1489c-.0283,1.6178-.0391,3.2356.0379,4.8534.0621,1.6178.1636,3.2357.1778,4.8535s-.02,3.2356-.0624,4.8533c-.0627,1.6178-.1214,3.2356-.2614,4.8535Z"/><path class="cls-2" d="M37.3441,46.5446c-.2646-3.2356-.3283-6.4712-.3237-9.7068.0142-1.6178.1157-3.2356.1778-4.8534.0716-1.6178.0746-3.2356.0405-4.8534l.1463.1464c-.3013.0484-.6026.1661-.9039.2046a8.3484,8.3484,0,0,1-.9039.0869,4.01,4.01,0,0,1-.9039-.1008,3.6107,3.6107,0,0,1-.9041-.2961V27.09a3.6151,3.6151,0,0,1,.9041-.2962,4.022,4.022,0,0,1,.9039-.1008,8.3739,8.3739,0,0,1,.9039.087c.3013.0385.6026.1562.9039.2046l.1492.0239-.0024.1227c-.0341,1.6178-.0313,3.2356.0405,4.8534.0621,1.6178.1636,3.2356.1776,4.8534.0046,3.2356-.0591,6.4712-.3236,9.7068Z"/><path class="cls-1" d="M6.7206,44.81a29.1707,29.1707,0,0,1,.41,5.1781,28.8374,28.8374,0,0,1-.41,5.1782,28.8373,28.8373,0,0,1-.41-5.1782A29.1705,29.1705,0,0,1,6.7206,44.81Z"/><path class="cls-1" d="M25.7332,33.5364a3.9282,3.9282,0,0,1,1.0312,1.8648,17.9683,17.9683,0,0,1,.5186,2.0737q.2038,1.0494.3189,2.115c.0375.3554.069.7121.078,1.0729.004.1807.0062.3617-.003.547a1.5039,1.5039,0,0,1-.1229.6191.345.345,0,0,1-.1331.1256.2715.2715,0,0,1-.2227.0075.6077.6077,0,0,1-.1907-.1178,1.3368,1.3368,0,0,1-.2-.2454,3.6892,3.6892,0,0,1-.2759-.491c-.1619-.3289-.2949-.6625-.4234-.9979-.2533-.6716-.4751-1.35-.67-2.041l-.1363-.5261-.0574-.2694c.0139.057.0612.0753.0119.0575a2.6072,2.6072,0,0,0-.9023.1187,18.6353,18.6353,0,0,0-1.9708.6764q-.9754.3908-1.9241.8482c-.3151.1522-.6274.31-.9327.4756a3.2376,3.2376,0,0,0-.7774.5117c-.3326.1989.3091.72.8956.992a8.1872,8.1872,0,0,0,.9366.3933A6.0026,6.0026,0,0,1,21.6,41.832a12.9046,12.9046,0,0,1,3.2812,2.8429,8.2445,8.2445,0,0,0,1.5077,1.3587,2.4117,2.4117,0,0,0,1.73.515,1.911,1.911,0,0,0,1.261-1.1965,8.86,8.86,0,0,0,.5342-1.9689c.25-1.3761.3859-2.7852.5016-4.1917.1084-1.4076.1956-2.8227.2241-4.2327l.0192-2.1243a9.7341,9.7341,0,0,0-.1678-2.083,4.6535,4.6535,0,0,0-2.269-3.2922,7.9625,7.9625,0,0,0-4.0641-.76l-8.5007.0743v-.4319l.7471-.0083v.4485l-8.61.0892c-.7.0262-1.4459-.02-2.1173.06a7.2914,7.2914,0,0,0-1.9874.4635A4.2777,4.2777,0,0,0,1.119,30.2308a14.2178,14.2178,0,0,0-.3,4.1533c-.0092,1.4254.07,2.8523.1528,4.277.095,1.4229.2089,2.8455.4055,4.2443.2167,1.3474.4388,2.9284,1.4562,3.4651a1.79,1.79,0,0,0,1.6633-.2088,6.8146,6.8146,0,0,0,1.5712-1.2638,14.44,14.44,0,0,1,3.2652-2.9246,7.893,7.893,0,0,1,.9989-.5307c.0854-.0366.1864-.0791.28-.1085l.2411-.0857c.1608-.0606.32-.1256.4765-.1949a4.5647,4.5647,0,0,0,.8668-.484,1.57,1.57,0,0,0,.3017-.29c.0447-.0988.0836-.1479.0457-.2049-.0431-.1395-.3179-.3364-.63-.5068-.3039-.1737-.6173-.3381-.9338-.4968-.6339-.3167-1.2816-.6113-1.9371-.8838a18.5608,18.5608,0,0,0-1.992-.7152,3.94,3.94,0,0,0-.9761-.176.4526.4526,0,0,0-.1357.02c-.0038.0037.0138-.0178.0221-.0329.0058-.0522-.0139.0578-.02.0867-.0371.1887-.0826.363-.13.54-.1908.7023-.4093,1.3895-.6609,2.07-.1241.34-.2612.6777-.4148,1.0119-.0764.167-.1632.3327-.2584.4973a2.4382,2.4382,0,0,1-.1744.2465l-.1145.1226a.7885.7885,0,0,1-.2159.1094.2986.2986,0,0,1-.3119-.1923.7441.7441,0,0,1-.0531-.1705,2.0549,2.0549,0,0,1-.0391-.2941c-.0138-.1887-.0146-.3722-.0116-.5553.0054-.3657.033-.727.0695-1.087.0728-.72.1791-1.4333.3144-2.1417a18.2279,18.2279,0,0,1,.5176-2.1,3.9617,3.9617,0,0,1,1.0364-1.8907l.0463.0678a3.8868,3.8868,0,0,0-.9194,1.8714,18.025,18.025,0,0,0-.4259,2.0952c-.1051.7055-.1811,1.416-.2234,2.126-.02.3549-.0336.71-.0334,1.0615.0008.1754.0058.3509.0218.52a1.6737,1.6737,0,0,0,.0365.2379.36.36,0,0,0,.0263.0856c.003.0288.0158-.0393-.12-.0327-.0066-.01.0064-.0173.0182-.0191l.0656-.0772a2.15,2.15,0,0,0,.1309-.1953c.0808-.1478.1575-.3013.2267-.4622.1389-.32.2654-.6509.3793-.9868.2309-.67.4324-1.3556.6028-2.0413.0411-.1705.082-.3445.11-.5084a.8734.8734,0,0,1,.0411-.1745.4313.4313,0,0,1,.1919-.23.815.815,0,0,1,.3823-.101,4.3181,4.3181,0,0,1,1.14.1706,19.05,19.05,0,0,1,2.0718.6921q1.0125.3951,1.9965.8585c.3281.1555.6537.3173.9764.4924a3.6728,3.6728,0,0,1,.4976.3047,1.0244,1.0244,0,0,1,.2552.2246.8294.8294,0,0,1,.2059.3379.7726.7726,0,0,1,.0374.44,1.1942,1.1942,0,0,1-.15.3717,2.2013,2.2013,0,0,1-.4531.47,5.2511,5.2511,0,0,1-.9937.588q-.2547.12-.5142.2236l-.2636.1a2.3216,2.3216,0,0,0-.2191.09,7.1412,7.1412,0,0,0-.8882.4984,15.0271,15.0271,0,0,0-3.0846,2.8373A7.6147,7.6147,0,0,1,4.9,46.897a3.3666,3.3666,0,0,1-1.1435.414,2.0792,2.0792,0,0,1-1.2966-.18A3.1628,3.1628,0,0,1,.99,45.2032a14.388,14.388,0,0,1-.4663-2.1715c-.21-1.4412-.3311-2.88-.4059-4.32-.07-1.4393-.1355-2.88-.1127-4.3232C.0134,33.6645,0,32.9649.0269,32.2215A8.1534,8.1534,0,0,1,.3821,30,5.3109,5.3109,0,0,1,1.5129,28a4.9493,4.9493,0,0,1,1.9113-1.274,7.9736,7.9736,0,0,1,2.1967-.4669c.7575-.0693,1.45-.0055,2.1828-.0174l8.6014.0919v.4485l-.7471-.0083v-.4319l8.5019.0745a8.2169,8.2169,0,0,1,4.1831.8265,4.6076,4.6076,0,0,1,1.6058,1.4494,5.7106,5.7106,0,0,1,.8277,1.9995,24.9115,24.9115,0,0,1,.2165,4.27c.0108,1.4237-.0373,2.8408-.1069,4.2611-.0765,1.42-.1752,2.8391-.3935,4.2588a9.3314,9.3314,0,0,1-.526,2.1362,2.5008,2.5008,0,0,1-1.71,1.6012A3.0647,3.0647,0,0,1,26.003,46.62a8.92,8.92,0,0,1-1.6558-1.4621,13.44,13.44,0,0,0-3.11-2.7061,5.3112,5.3112,0,0,0-.8912-.4382,8.8907,8.8907,0,0,1-1.017-.44,3.8879,3.8879,0,0,1-.9628-.6574,1.2547,1.2547,0,0,1-.3637-.6217.8812.8812,0,0,1,.2318-.7665,3.5771,3.5771,0,0,1,.979-.6609c.3194-.1689.6413-.3271.9657-.48q.973-.4564,1.9738-.8455a16.1376,16.1376,0,0,1,2.0587-.668,2.825,2.825,0,0,1,1.1954-.0878.6131.6131,0,0,1,.2193.1071.474.474,0,0,1,.1674.2808l.0469.2515.1173.5057c.172.6775.3735,1.3528.6036,2.0132.1163.329.2378.6577.3811.9683a3.2823,3.2823,0,0,0,.2319.4412.9448.9448,0,0,0,.1273.1706c.0255.0343.0233.0079.0291.0273.0269.0172-.0429-.0188-.0978.0164-.0363.0252-.0335.0157-.0421.0338a1.475,1.475,0,0,0,.0721-.4174c.0129-.1683.0155-.3418.0161-.5152-.0024-.3477-.0153-.6986-.0371-1.049-.0439-.7013-.1193-1.4029-.2235-2.1a17.7244,17.7244,0,0,0-.4222-2.0689,3.85,3.85,0,0,0-.91-1.8473Z"/><path class="cls-2" d="M21.4292,43.7745a11.4651,11.4651,0,0,1-1.2838,1.2983,12.5933,12.5933,0,0,1-1.4293,1.1027c-.5142.3169-1.0633.5867-1.5717.9115a9.74,9.74,0,0,0-1.4052,1.1349l-.081.0772-.149-.0633c-.5791-.2465-1.1611-.4886-1.7129-.7829-.5559-.2871-1.1178-.5639-1.6569-.8808a20.6852,20.6852,0,0,1-3.0575-2.2093l.0407-.0713a20.6856,20.6856,0,0,1,3.4538,1.517c.5463.3042,1.07.6484,1.5987.9824.5335.3267,1.0368.7057,1.5428,1.08l-.2295.0139a9.7359,9.7359,0,0,0,1.49-1.0211c.4569-.3938.8729-.8427,1.3237-1.2444a12.6123,12.6123,0,0,1,1.4662-1.0533,11.44,11.44,0,0,1,1.6118-.8577Z"/><path class="cls-2" d="M8.4474,35.7208c-.5587-1.2456-1.0586-2.51-1.5231-3.7866l-.273-.7506.724.3741c2.8226,1.4585,5.6355,2.9345,8.3741,4.5486l-.2773.0025,4.5364-2.3911q2.2555-1.2182,4.4692-2.51l.256-.1489-.0482.31c-.0581.3754-.0354.7726-.0968,1.1472-.0549.3763-.1195.75-.2067,1.1177a6.104,6.104,0,0,1-.39,1.0682,5.2883,5.2883,0,0,1-.5815,1.0169l-.0794-.0213a5.3008,5.3008,0,0,1,.007-1.1714,6.0872,6.0872,0,0,1,.1985-1.12c.1088-.3619.2405-.7175.3817-1.0706.1349-.3548.3538-.687.4919-1.041l.2077.1615q-2.2517,1.2246-4.4654,2.5172L15.754,36.61l-.1273.0763-.15-.0738c-2.8533-1.4013-5.6319-2.9407-8.4014-4.4977l.4509-.3763c.3765,1.3049.7175,2.6214,1,3.9571Z"/><path class="cls-2" d="M52.8913,7.8108a8.0777,8.0777,0,0,1-2.0181,5.3956,7.0233,7.0233,0,0,1-5.3956,2.3189A8.0483,8.0483,0,0,1,37.88,7.8109a7.4553,7.4553,0,0,1,2.1111-5.4864A7.63,7.63,0,0,1,45.4776,0,7.3284,7.3284,0,0,1,50.882,2.4065,8.0787,8.0787,0,0,1,52.8913,7.8108Zm-.082,0A6.77,6.77,0,0,0,50.5,2.7886,7.51,7.51,0,0,0,45.4776.8761a7.1623,7.1623,0,0,0-4.94,1.9946,7.3412,7.3412,0,0,0-2.2078,4.94A6.8112,6.8112,0,0,0,40.3585,12.93a7.0235,7.0235,0,0,0,5.1191,1.9118,7.9306,7.9306,0,0,0,5.0311-2A6.7742,6.7742,0,0,0,52.8093,7.8108Z"/><path class="cls-2" d="M29.4983,24.5283A7.779,7.779,0,0,1,31.78,19.1a5.6442,5.6442,0,0,1,2.7761-1.3493c.258-.0265.529-.0694.78-.0739l.7385.0029c.4779-.0059.9975.0141,1.475.0238,1.9516.0588,3.91.1784,5.8681.2085,1.9575.0241,3.9148-.0212,5.8712-.0917,1.9712-.0656,3.8766-.1652,5.91-.1388a6.0489,6.0489,0,0,1,2.9453,1.014,6.2891,6.2891,0,0,1,2.0142,2.377,7.8969,7.8969,0,0,1,.7967,2.9584l.2031,2.9352c.12,1.9581.2259,3.9169.2758,5.879l-.0818.0078c-.3193-1.9361-.5825-3.8755-.8319-5.8156L60.17,24.1254a7.5628,7.5628,0,0,0-.7929-2.6575A5.7956,5.7956,0,0,0,57.65,19.3946a5.231,5.231,0,0,0-2.5194-.9435c-1.88-.0684-3.8921-.09-5.836-.1809-1.9593-.07-3.9175-.1158-5.8756-.0918-1.9582.03-3.9147.15-5.8789.2086l-1.4614.0241-.73.0034c-.2381.0089-.4538.0326-.6828.0488a4.9633,4.9633,0,0,0-2.4713,1.1113A8.4873,8.4873,0,0,0,29.58,24.5369Z"/><path class="cls-1" d="M81.3981,24.3955A8.0781,8.0781,0,0,1,79.38,29.791a7.0234,7.0234,0,0,1-5.3956,2.319,8.0483,8.0483,0,0,1-7.5974-7.7144,7.4559,7.4559,0,0,1,2.1111-5.4864,7.63,7.63,0,0,1,5.4863-2.3242,7.3281,7.3281,0,0,1,5.4044,2.4062A8.08,8.08,0,0,1,81.3981,24.3955Zm-.0822,0a6.77,6.77,0,0,0-2.3094-5.0223,7.51,7.51,0,0,0-5.0223-1.9125,7.164,7.164,0,0,0-4.94,1.9946,7.3416,7.3416,0,0,0-2.2078,4.94,6.8109,6.8109,0,0,0,2.029,5.1191,7.0223,7.0223,0,0,0,5.119,1.9118,7.93,7.93,0,0,0,5.0311-2A6.7742,6.7742,0,0,0,81.3159,24.3955Z"/><path class="cls-1" d="M65.5017,53.027a28.1,28.1,0,0,1,.41,5.0837,27.7985,27.7985,0,0,1-.41,5.0838,27.807,27.807,0,0,1-.41-5.0838A28.1268,28.1268,0,0,1,65.5017,53.027Z"/><path class="cls-1" d="M63.122,41.6768a4.0144,4.0144,0,0,0-.8672,1.8869c-.1738.6879-.2877,1.3914-.3933,2.094-.1008.7036-.1726,1.4124-.2109,2.1194-.0186.3531-.03.7067-.0229,1.0543.0039.1732.0115.3462.0261.5091a1.5582,1.5582,0,0,0,.0337.2225.2862.2862,0,0,0,.018.0623c-.0056.0229-.0012-.1047-.2391-.0948-.0343-.004-.0341-.0035-.0371.0069l.0529-.0641a2.1013,2.1013,0,0,0,.12-.18c.078-.1426.1531-.2925.2215-.4514.1369-.3159.2626-.644.3761-.978.23-.6657.4312-1.35.6006-2.031.0409-.1688.0818-.3425.109-.5008l.0105-.0594.0066-.035a.807.807,0,0,1,.0288-.0979.5424.5424,0,0,1,.2376-.2866.8858.8858,0,0,1,.4352-.1132,4.3433,4.3433,0,0,1,1.1665.1943,19.037,19.037,0,0,1,2.0658.7341c.6694.28,1.3213.5964,1.9656.9286.3217.1675.6405.341.955.5271a1.8569,1.8569,0,0,1,.8852.8386.7806.7806,0,0,1-.1164.6993,2.0332,2.0332,0,0,1-.4346.42,5.0391,5.0391,0,0,1-.9807.5319c-.3264.1471-.6992.268-1.0053.3892a7.3347,7.3347,0,0,0-.93.4938,13.2767,13.2767,0,0,0-3.1467,2.8605,7.9554,7.9554,0,0,1-1.6881,1.399,2.3931,2.3931,0,0,1-2.2356.2693,3.0014,3.0014,0,0,1-1.4185-1.7941,13.1015,13.1015,0,0,1-.502-2.1412c-.23-1.4328-.3741-2.8694-.4693-4.3073-.09-1.4374-.177-2.8766-.175-4.3205-.0056-.7241-.0184-1.4222.008-2.1677a8.1933,8.1933,0,0,1,.3543-2.2311,5.35,5.35,0,0,1,1.1362-2.0169A4.8808,4.8808,0,0,1,60.99,34.7659a7.9961,7.9961,0,0,1,2.2079-.4552c.76-.0649,1.4514.0041,2.1845-.0031,2.8624.0637,5.7329.1524,8.6009.2814v.0821q-4.3029.1915-8.61.2785c-.6994.0312-1.4467-.01-2.1153.0752a7.2529,7.2529,0,0,0-1.9758.4764,4.2725,4.2725,0,0,0-2.5473,2.815,14.8519,14.8519,0,0,0-.3149,4.1421c-.03,1.425.0285,2.8529.0906,4.2794.0748,1.425.1664,2.85.3426,4.2572a15.2542,15.2542,0,0,0,.39,2.0632,2.5276,2.5276,0,0,0,1.0835,1.5638,2,2,0,0,0,1.8676-.1752,6.545,6.545,0,0,0,1.65-1.2892,16.3657,16.3657,0,0,1,3.203-2.9009,7.607,7.607,0,0,1,.9571-.5351c.3564-.1521.6687-.25.99-.4144a4.6772,4.6772,0,0,0,.8794-.54c.2616-.2033.4647-.4851.3606-.6573a1.5645,1.5645,0,0,0-.7038-.5347c-.3121-.1626-.6323-.3154-.9552-.462-.6457-.2947-1.3069-.558-1.9678-.8137a18.4133,18.4133,0,0,0-1.998-.6728,3.8118,3.8118,0,0,0-.95-.1521c-.0514.0016-.12.0223-.0826.0087a.2286.2286,0,0,0,.0681-.0889.0948.0948,0,0,0,.0058-.0347l-.0066.0309-.0142.0728c-.0381.1942-.0838.3688-.1309.5475-.1918.7069-.4106,1.3956-.6631,2.08-.1245.3425-.2625.6821-.418,1.0207-.0772.1691-.1656.3384-.2638.508a2.5266,2.5266,0,0,1-.1847.2615l-.1273.1356a.8408.8408,0,0,1-.2714.1349.4056.4056,0,0,1-.4306-.2549.8368.8368,0,0,1-.0613-.1938,2.1384,2.1384,0,0,1-.0417-.3095,5.0159,5.0159,0,0,1-.0074-.5656c.012-.37.0425-.7324.08-1.0941.0768-.7226.1871-1.438.3266-2.1482a15.6867,15.6867,0,0,1,.55-2.1014,3.8677,3.8677,0,0,1,1.0885-1.8752Z"/><path class="cls-1" d="M81.8311,50.7884a41.7441,41.7441,0,0,1,.41,6.203,41.24,41.24,0,0,1-.41,6.2031,41.2529,41.2529,0,0,1-.41-6.2031A41.7709,41.7709,0,0,1,81.8311,50.7884Z"/><path class="cls-1" d="M84.2573,41.609a2.9744,2.9744,0,0,1,.8993,1.3593,13.39,13.39,0,0,1,.5,1.5494,23.5665,23.5665,0,0,1,.5659,3.1994,10.6511,10.6511,0,0,1,.0755,1.654,1.8094,1.8094,0,0,1-.0855.4846.497.497,0,0,1-.1478.2153.38.38,0,0,1-.2606.0861.4185.4185,0,0,1-.1473-.0352.9444.9444,0,0,1-.2582-.1645,4.5667,4.5667,0,0,1-.58-.651A25.0929,25.0929,0,0,1,83.06,46.5525c-.1319-.2409-.2608-.4763-.3823-.7443l-.3085-.7374a10.918,10.918,0,0,0-.72-1.3791c-.513-.84-1.3438-1.7257-2.0969-1.2858a1.1485,1.1485,0,0,0-.5711,1.0741,5.2462,5.2462,0,0,0,.188,1.5124,13.7458,13.7458,0,0,0,1.1533,2.95l.0042.0079.0024.0054a28.5553,28.5553,0,0,0,2.7744,4.791,5.6,5.6,0,0,0,1.9708,1.8208,1.89,1.89,0,0,0,2.3216-.2463,4.4943,4.4943,0,0,0,.9406-2.4038c.1543-.899.2472-1.8165.3227-2.7347.152-1.8375.2286-3.6894.2568-5.5361l-.008-2.7768a8.5642,8.5642,0,0,0-.3267-2.62,4.3506,4.3506,0,0,0-1.39-2.0828,5.44,5.44,0,0,0-2.349-1.0369,10.7939,10.7939,0,0,0-1.3263-.158l-1.386-.03c-.92-.0027-1.8585-.0462-2.7861-.0673-1.8581-.0428-3.7148-.127-5.5723-.2032V34.589c1.8571-.0762,3.715-.16,5.5713-.2033l2.7859-.0789,1.4-.018a11.4628,11.4628,0,0,1,1.4436.1209,6.0922,6.0922,0,0,1,2.73,1.1123,5.19,5.19,0,0,1,1.6815,2.467,9.4039,9.4039,0,0,1,.3889,2.8816c.0064.9324.0014,1.8537-.018,2.795-.0682,1.8662-.1714,3.727-.3751,5.5874-.1086.9294-.2341,1.8582-.426,2.7845a4.9024,4.9024,0,0,1-1.2146,2.6382,2.1608,2.1608,0,0,1-1.4015.5953,2.7591,2.7591,0,0,1-1.4327-.381,6.4756,6.4756,0,0,1-2.0329-1.9809,39.8156,39.8156,0,0,1-2.8256-4.828l.0064.0129a17.1159,17.1159,0,0,1-1.34-2.9723,5.6931,5.6931,0,0,1-.3-1.6572,2.2784,2.2784,0,0,1,.1636-.9031,1.522,1.522,0,0,1,.6648-.7384,1.5429,1.5429,0,0,1,.9812-.1941,2.0287,2.0287,0,0,1,.8831.3843A4.8869,4.8869,0,0,1,82.25,43.3088a11.6211,11.6211,0,0,1,.7877,1.462c.112.2446.2269.5157.3153.7464.0952.2228.2181.4619.34.6937a24.4449,24.4449,0,0,0,1.6484,2.7039,4.0936,4.0936,0,0,0,.4743.5612.6744.6744,0,0,0,.0746.058c-.021-.0053.03.0064-.0517-.0072a.2634.2634,0,0,0-.1688.054c-.06.0593-.0415.0472-.0415.0472a1.3631,1.3631,0,0,0,.0533-.3056,11.9966,11.9966,0,0,0,0-1.5614,25.3273,25.3273,0,0,0-.3827-3.1638,13.0881,13.0881,0,0,0-.364-1.55,3.0771,3.0771,0,0,0-.7231-1.3709Z"/><path class="cls-1" d="M24.716,55.5424a29.1705,29.1705,0,0,1-.41-5.1781,28.8373,28.8373,0,0,1,.41-5.1782,28.8374,28.8374,0,0,1,.41,5.1782A29.1707,29.1707,0,0,1,24.716,55.5424Z"/><rect class="cls-2" x="15.2025" y="36.3597" width="0.8211" height="11.6936"/><polygon class="cls-3" points="77.939 44.04 79.89 44.04 78.914 46.348 77.939 44.04"/><polygon class="cls-3" points="79.966 39.658 82.002 41.469 77.47 44.513 79.966 39.658"/><path class="cls-2" d="M77.0411,44.0066a6.0246,6.0246,0,0,1,1.187-1.2542,5.5061,5.5061,0,0,1,1.4724-.8632,4.6375,4.6375,0,0,0,1.3431-1.04,11.68,11.68,0,0,1,1.261-1.1531l.0515-.0429.083-.0224a1.3006,1.3006,0,0,1,.6052-.0379,1.058,1.058,0,0,1,.59.3118,1.1954,1.1954,0,0,1,.2834.5562,1.1176,1.1176,0,0,1-.0383.6116,1.7014,1.7014,0,0,1-.6084.7759,2.6073,2.6073,0,0,1-.7914.3972l-.0447-.0688a7.4076,7.4076,0,0,0,.47-.6717,1.5012,1.5012,0,0,0,.25-.62.3684.3684,0,0,0-.0344-.2053.3246.3246,0,0,0-.1067-.1631.487.487,0,0,0-.349-.0766l.1343-.0652a11.6763,11.6763,0,0,1-1.4824.8493,4.6427,4.6427,0,0,0-1.4005.962,5.505,5.505,0,0,1-1.2709,1.1392,6.0218,6.0218,0,0,1-1.5564.7482Z"/><path class="cls-2" d="M67.5046,45.17a3.1251,3.1251,0,0,1,.6866-.6432L68.23,44.5l.0922-.0053c1.8695-.106,3.7395-.1911,5.6138-.1178.9366.0184,1.874.0629,2.81.0649.9363.0039,1.8717-.0218,2.8065-.0712l.3221-.017-.2129.256c-.519.6241-1.0011,1.2821-1.5079,1.9175s-1.04,1.2467-1.5666,1.8641c-.5222.6215-1.0789,1.2113-1.6438,1.7937-.58.5686-1.1469,1.1493-1.7529,1.6941l-.095.0854-.0908,0c-1.7505-.005-3.5012-.023-5.2526-.0736L67.75,51.808c1.746-.1483,3.4929-.2639,5.24-.3667l-.1856.0851c.4871-.6534,1.0136-1.271,1.5266-1.9007.5282-.6159,1.0646-1.2243,1.6356-1.8011.5667-.5808,1.1264-1.168,1.7129-1.7307s1.1974-1.1032,1.7713-1.6772l.1093.2388c-.9362,0-1.8715.0241-2.8063.0776-.9348.0517-1.8686.1458-2.8029.2137-1.8678.1725-3.7395.1866-5.6121.18l.1307-.0322a3.1309,3.1309,0,0,1-.9289.1489Z"/></g></g></g></svg>