<svg xmlns="http://www.w3.org/2000/svg" viewBox="0 0 55.8964 84.7616"><defs><style>.cls-1{fill:#575756;}.cls-2{fill:#0087b9;}</style></defs><title>Element 27</title><g id="Ebene_2" data-name="Ebene 2"><g id="Ebene_1-2" data-name="Ebene 1"><g id="Illustrationen"><path class="cls-1" d="M42.9394,13.7816A13.9778,13.9778,0,0,1,39.1218,23.43a13.1492,13.1492,0,0,1-4.3957,3.0318,13.2822,13.2822,0,0,1-5.2522,1.0328,13.5945,13.5945,0,0,1-5.2121-1.13,14.2658,14.2658,0,0,1-4.3683-3.0024,14.0386,14.0386,0,0,1-4.0366-9.58,13.5166,13.5166,0,0,1,3.8943-9.7229,13.8147,13.8147,0,0,1,4.4479-3.0118A13.5693,13.5693,0,0,1,29.4742,0a13.3346,13.3346,0,0,1,9.6551,4.1263A13.9828,13.9828,0,0,1,42.9394,13.7816Zm-.0679,0a12.9071,12.9071,0,0,0-4.0578-9.34A13.6265,13.6265,0,0,0,29.4742.7,13.29,13.29,0,0,0,16.2283,13.7813,12.9214,12.9214,0,0,0,20.06,23.1958a13.117,13.117,0,0,0,9.4143,3.7364,13.8027,13.8027,0,0,0,9.3469-3.8037,13.2719,13.2719,0,0,0,2.98-4.241A13.1145,13.1145,0,0,0,42.8715,13.7816Z"/><path class="cls-1" d="M11.8348,65.2124c.14,1.5719.2054,3.1439.26,4.7158.062,1.572.0707,3.144.0792,4.7159-.0076,1.572-.0165,3.1439-.078,4.7159l-.0946,2.358c-.0564.7859-.0893,1.5719-.1662,2.3579-.0769-.786-.11-1.572-.1663-2.3579l-.0946-2.358c-.0614-1.572-.0705-3.1439-.0781-4.7159.0086-1.5719.0173-3.1439.0793-4.7159C11.6294,68.3563,11.6949,66.7843,11.8348,65.2124Z"/><path class="cls-1" d="M46.4467,44.7046a3.9687,3.9687,0,0,1,1.1362,1.5686,14.6949,14.6949,0,0,1,.6837,1.8189,33.0971,33.0971,0,0,1,.896,3.7761q.3465,1.91.5335,3.8456c.06.6451.108,1.2921.1194,1.9429.0064.3253.0052.6515-.0128.98a2.7076,2.7076,0,0,1-.1982,1.0234.3749.3749,0,0,1-.1534.1513.2905.2905,0,0,1-.2483.0035.7114.7114,0,0,1-.26-.1691,2.3516,2.3516,0,0,1-.3305-.4078,7.46,7.46,0,0,1-.4752-.87c-.28-.5913-.52-1.1955-.7454-1.8041-.4477-1.2182-.8381-2.4532-1.1794-3.7054-.0844-.3135-.1654-.628-.2373-.9474-.0366-.1581-.0686-.3243-.0973-.4847-.0055-.0593-.0666-.1011-.1914-.1374a4.7123,4.7123,0,0,0-1.8023.1952,31.114,31.114,0,0,0-3.6379,1.23q-1.79.7143-3.5294,1.55c-.5786.2786-1.1522.5673-1.7152.8718a6.3768,6.3768,0,0,0-1.5342,1.0067c-.41.4069-.2417.919.2041,1.336a6.2912,6.2912,0,0,0,1.5365,1.02,15.2114,15.2114,0,0,0,1.7487.7384,10.4682,10.4682,0,0,1,1.7934.8556,23.3066,23.3066,0,0,1,5.89,5.1112,15.3742,15.3742,0,0,0,2.8173,2.5355,4.7445,4.7445,0,0,0,3.4259.9946,2.7849,2.7849,0,0,0,1.5283-.8567,5.0473,5.0473,0,0,0,1.0109-1.5333,16.3972,16.3972,0,0,0,.9637-3.6762c.4348-2.53.6578-5.1031.8438-7.6726.173-2.5709.3071-5.15.3344-7.7254l.0165-3.8712a17.8864,17.8864,0,0,0-.3126-3.8225,10.0243,10.0243,0,0,0-1.4155-3.5247,7.9148,7.9148,0,0,0-2.7848-2.5558,14.5988,14.5988,0,0,0-7.4627-1.4079l-15.4881.0518v-.3616l1.3606-.0045v.3707l-15.6817.0723c-.6479-.01-1.3054.0183-1.9549.0116l-.9775.0047-.9594.0715a13.6248,13.6248,0,0,0-3.725.8471,8.2663,8.2663,0,0,0-3.0987,2.1071,8.6731,8.6731,0,0,0-1.8178,3.2811C.4807,40.9776.712,43.6121.678,46.223c-.0234,2.6061.1141,5.2127.2586,7.8155.1631,2.6012.3745,5.2012.7395,7.7709a25.1451,25.1451,0,0,0,.7969,3.773A4.6816,4.6816,0,0,0,4.5741,68.433a2.6611,2.6611,0,0,0,1.7021.228,5.07,5.07,0,0,0,1.7153-.6272,12.8245,12.8245,0,0,0,2.96-2.384c.8618-.9314,1.74-1.9658,2.7145-2.8524a21.17,21.17,0,0,1,3.1451-2.432,13.9794,13.9794,0,0,1,1.7656-.95c.15-.0646.3235-.1381.48-.1874l.4506-.1636c.2994-.1144.5958-.2375.887-.37a8.7311,8.7311,0,0,0,1.6421-.934c.4857-.3578.9185-.8664.75-1.2947-.1745-.4614-.7726-.783-1.33-1.0982-.5631-.317-1.14-.6153-1.7227-.9028q-1.749-.86-3.5588-1.5974a33.9584,33.9584,0,0,0-3.6692-1.2911,7.2809,7.2809,0,0,0-1.86-.317.8658.8658,0,0,0-.369.078c-.038.0251-.0615.04-.0648.0714-.0157-.0035-.03.141-.0455.2056-.0654.3289-.1447.6479-.2275.9667q-.5052,1.907-1.1749,3.7575c-.2252.6169-.4622,1.23-.7381,1.8312a9.42,9.42,0,0,1-.4569.8879,3.5348,3.5348,0,0,1-.2924.4242.8848.8848,0,0,1-.4866.3524.2922.2922,0,0,1-.252-.09.4945.4945,0,0,1-.098-.15,1.3548,1.3548,0,0,1-.0839-.268,4.01,4.01,0,0,1-.0675-.5067c-.0263-.3339-.03-.6642-.0264-.9939.0075-.6591.05-1.3145.1088-1.9677.1179-1.3063.2968-2.605.5271-3.8944a33.6688,33.6688,0,0,1,.8968-3.8244,14.9237,14.9237,0,0,1,.686-1.8433,4.0089,4.0089,0,0,1,1.1455-1.5907l.0382.056A3.9373,3.9373,0,0,0,8.575,46.3384a14.7884,14.7884,0,0,0-.6461,1.84,33.4878,33.4878,0,0,0-.821,3.82c-.2053,1.2871-.3592,2.583-.4521,3.8815-.0452.6491-.0759,1.2993-.0789,1.9468,0,.3234.0066.6471.0349.9644a3.726,3.726,0,0,0,.0659.4635,1.0443,1.0443,0,0,0,.0629.1982c.027.0674.0582.0561-.0013.05a.6724.6724,0,0,0,.2733-.2364,3.2226,3.2226,0,0,0,.2588-.3846,9.1123,9.1123,0,0,0,.4306-.8586c.2636-.5893.4921-1.1982.7088-1.8107.4288-1.2269.8071-2.4759,1.127-3.7339.0783-.3143.1533-.63.2122-.943a1.389,1.389,0,0,1,.0608-.2712.53.53,0,0,1,.2408-.2916,1.2329,1.2329,0,0,1,.5743-.1459,7.6068,7.6068,0,0,1,1.996.3126,34.4041,34.4041,0,0,1,3.7351,1.2719q1.83.7266,3.6079,1.5766c.592.2848,1.1792.5809,1.758.8992a3.2053,3.2053,0,0,1,1.5982,1.3854,1.3311,1.3311,0,0,1-.1785,1.1851,3.3345,3.3345,0,0,1-.7479.77,9.3,9.3,0,0,1-1.7468,1.02q-.4536.2112-.918.3932l-.4688.1756a4.5867,4.5867,0,0,0-.4307.1732,13.3752,13.3752,0,0,0-1.6739.9232,21.4468,21.4468,0,0,0-3.028,2.3823c-.9583.8769-1.7719,1.842-2.682,2.83a13.4908,13.4908,0,0,1-3.121,2.5162,5.7576,5.7576,0,0,1-1.9439.7084,3.3614,3.3614,0,0,1-2.1142-.2874,4.2385,4.2385,0,0,1-1.5727-1.4106,8.036,8.036,0,0,1-.52-.8928c-.124-.3186-.2747-.6357-.3735-.9571A25.7708,25.7708,0,0,1,.971,61.9138C.5952,59.3091.3775,56.6953.2311,54.08c-.1336-2.615-.26-5.2326-.2253-7.8536.0123-1.312-.0151-2.6044.03-3.9322a14.4743,14.4743,0,0,1,.6187-3.9454A9.301,9.301,0,0,1,2.622,34.84,8.7353,8.7353,0,0,1,5.9594,32.598a14.1867,14.1867,0,0,1,3.898-.85l.9959-.0641.9825.0046c.6571.0129,1.3062-.0093,1.9644.0071l15.6775.077v.3707l-1.3606-.0046v-.3616l15.4891.0518a14.8235,14.8235,0,0,1,7.5618,1.4856,8.2551,8.2551,0,0,1,2.878,2.606,10.269,10.269,0,0,1,1.4826,3.6,18.17,18.17,0,0,1,.3513,3.8777l.0165,3.8731c-.0054,2.5877-.1177,5.1682-.2693,7.7493-.1638,2.58-.3685,5.16-.7878,7.7233a16.7533,16.7533,0,0,1-.9713,3.8017A5.5262,5.5262,0,0,1,52.7715,68.23a3.2987,3.2987,0,0,1-1.7853,1.0125,3.9618,3.9618,0,0,1-2.0394-.1534,7.4193,7.4193,0,0,1-1.792-.8918A15.918,15.918,0,0,1,44.21,65.5913a24.5657,24.5657,0,0,0-5.7542-4.9968,9.9192,9.9192,0,0,0-1.6888-.8234,15.7192,15.7192,0,0,1-1.81-.781,6.7813,6.7813,0,0,1-1.6651-1.1314,1.8786,1.8786,0,0,1-.5662-.9539,1.2662,1.2662,0,0,1,.3491-1.1076,3.2516,3.2516,0,0,1,.8312-.6342c.282-.1664.5683-.3215.8554-.4748.5746-.3051,1.1566-.5923,1.7431-.8691q1.76-.8284,3.572-1.5359A31.5234,31.5234,0,0,1,43.78,51.064,4.8972,4.8972,0,0,1,45.8,50.8869a.7812.7812,0,0,1,.2917.1413.5708.5708,0,0,1,.1945.33c.0269.1572.0548.3083.09.4649.0674.3107.145.622.2259.9323.3279,1.2409.707,2.4727,1.14,3.6808.2179.6035.4506,1.202.7188,1.7791a7.1138,7.1138,0,0,0,.4451.8316,2.0358,2.0358,0,0,0,.2734.3458.3965.3965,0,0,0,.138.0974c.0372.0122-.0021.006-.0174.0131-.0129.0092,0,.0006.0115-.02a2.62,2.62,0,0,0,.1568-.8662c.02-.3156.0236-.6353.02-.9551-.01-.64-.0416-1.282-.0885-1.9231q-.1443-1.9233-.4547-3.833a32.8815,32.8815,0,0,0-.8164-3.7721,14.538,14.538,0,0,0-.6417-1.8163,3.898,3.898,0,0,0-1.0778-1.5567Z"/><path class="cls-2" d="M38.6066,63.29c-.8055.7538-1.6527,1.4516-2.5025,2.1459-.8567.6851-1.7236,1.3564-2.6228,1.9843-.9055.6195-1.84,1.2-2.74,1.8263-.8958.6325-1.7571,1.3112-2.6028,2.0111l-.08.066-.11-.0545c-2.0448-1.0123-4.0426-2.1067-6.0238-3.23-.9835-.574-1.9512-1.1757-2.9171-1.7805-.9621-.6115-1.9167-1.236-2.8486-1.9l.0337-.0589c1.0445.4676,2.0663.9747,3.0807,1.4947,1.0106.5268,2.0194,1.0566,3.0124,1.6142,1.9718,1.14,3.927,2.3084,5.8352,3.5594l-.19.0113c.913-.6093,1.81-1.24,2.6731-1.9167.8581-.6831,1.6824-1.4116,2.5356-2.1014.8594-.6813,1.7512-1.3193,2.6532-1.9435.9088-.6151,1.82-1.2265,2.7735-1.7819Z"/><path class="cls-2" d="M15.02,48.6387q-.6635-1.7348-1.2845-3.4832c-.4083-1.1676-.8311-2.33-1.2275-3.5019l-.2083-.6159.5778.3076,7.6614,4.08c2.54,1.3864,5.0865,2.76,7.6085,4.1787l-.2289.0021L36.11,45.1238q4.0885-2.2545,8.14-4.575l.2378-.136-.0616.2729c-.1515.6718-.2261,1.3643-.3757,2.0365-.1454.6734-.2882,1.3475-.4691,2.0114-.1828.6634-.3733,1.3247-.61,1.9738a20.1535,20.1535,0,0,1-.7732,1.93l-.0655-.0177a20.1406,20.1406,0,0,1,.2985-2.0572c.1211-.68.2878-1.3477.4622-2.0134.1764-.665.3908-1.32.6026-1.9755.2076-.6566.49-1.2932.6959-1.95l.1762.1368q-4.0842,2.2623-8.135,4.5839L28.1508,50.02l-.11.0637-.1193-.0616c-2.5714-1.3274-5.118-2.7009-7.6717-4.0611l-7.6188-4.16L13,41.4932c.37,1.18.7128,2.3689,1.07,3.553q.5256,1.78,1.0134,3.5716Z"/><path class="cls-1" d="M44.618,84.7616c-.14-1.5723-.2054-3.1446-.26-4.7168-.062-1.5723-.0708-3.1445-.0793-4.7168.0076-1.5723.0166-3.1446.0781-4.7168l.0946-2.3585c.0564-.7861.0893-1.5722.1662-2.3584.0769.7862.11,1.5723.1663,2.3584l.0946,2.3585c.0614,1.5722.07,3.1445.0781,4.7168-.0086,1.5723-.0173,3.1445-.0793,4.7168C44.8234,81.617,44.7579,83.1893,44.618,84.7616Z"/><rect class="cls-2" x="27.6953" y="49.8135" width="0.6782" height="21.3052"/></g></g></g></svg>