<svg xmlns="http://www.w3.org/2000/svg" viewBox="0 0 54.6205 99.2342"><defs><style>.cls-1{fill:#575756;}.cls-2{fill:#0087b9;}</style></defs><title>Element 15</title><g id="Ebene_2" data-name="Ebene 2"><g id="Ebene_1-2" data-name="Ebene 1"><g id="Illustrationen"><path class="cls-1" d="M38.028,90.4875a1.3865,1.3865,0,0,1-.6185,1.12,5.455,5.455,0,0,1-1.0644.6713,13.2536,13.2536,0,0,1-2.3.8559,23.5854,23.5854,0,0,1-4.7626.822c-1.6063.0978-3.2164.0023-4.81.0406-1.5952.0294-3.1852.1491-4.7826.27a42.8086,42.8086,0,0,1-4.8036.1476,46.6006,46.6006,0,0,1-4.8075-.3,30.9576,30.9576,0,0,1-4.7464-.9715A14.2684,14.2684,0,0,1,3.04,92.2653a5.4229,5.4229,0,0,1-1.0593-.6736,2.4156,2.4156,0,0,1-.4467-.4691.9919.9919,0,0,1-.1821-.6351h.1356a1.2324,1.2324,0,0,0,.7364.74,6.7436,6.7436,0,0,0,1.0709.3924,21.9929,21.9929,0,0,0,2.2789.4819c1.5438.243,3.104.4256,4.6694.5747,1.5643.1588,3.1318.3373,4.7073.4633,1.5759.1109,3.1542.25,4.74.384a30.5227,30.5227,0,0,0,4.7605.0336c1.5841-.1214,3.1484-.4623,4.7043-.7231s3.1154-.4477,4.6532-.7242c.7674-.14,1.5308-.2955,2.2719-.5034a6.7408,6.7408,0,0,0,1.0657-.3946,1.2344,1.2344,0,0,0,.7467-.7248Z"/><path class="cls-1" d="M32.4124,56.2879a22.6353,22.6353,0,0,1,3.0914.1405,10.8722,10.8722,0,0,1,1.5593.2751,3.8339,3.8339,0,0,1,.8205.298,1.2829,1.2829,0,0,1,.2308.1474l.12.1018a1.65,1.65,0,0,1,.1287.1735.7478.7478,0,0,1,.0944.538.87.87,0,0,1-.2166.4209,2.4194,2.4194,0,0,1-.8555.5242,7.4348,7.4348,0,0,1-.7816.2636c-.5174.14-1.03.2479-1.5428.3415a25.3465,25.3465,0,0,1-3.08.3619c-2.0588.1056-4.1136.03-6.1583.0622-2.0451.03-4.0859.1483-6.1323.2685-2.0461.13-4.0978.2-6.1488.1492-2.0512-.0352-4.1061-.1007-6.1576-.3219-1.0241-.1267-2.05-.2544-3.0741-.464-.5119-.1029-1.0242-.2206-1.54-.3694a7.7566,7.7566,0,0,1-.7809-.2744,2.4627,2.4627,0,0,1-.8553-.5357.8815.8815,0,0,1-.2162-.4254.7513.7513,0,0,1,.0972-.5409,1.66,1.66,0,0,1,.13-.1734l.1211-.101a1.2665,1.2665,0,0,1,.2322-.1452,3.7858,3.7858,0,0,1,.8233-.2881A13.3129,13.3129,0,0,1,3.88,56.4459a26.4089,26.4089,0,0,1,3.088-.158l.0145.1348c-1.0008.2241-2,.4415-2.9754.6975a12.56,12.56,0,0,0-1.4182.44,2.8767,2.8767,0,0,0-.59.2932c-.032.0253-.0781.053-.0829.07a.1216.1216,0,0,1-.0243.0233.0254.0254,0,0,0,.02-.0165c-.0065,0,.0266-.0375.03-.0721.0013-.0356.0045-.0684.0033-.1058-.03-.0867-.02-.0822-.0347-.0961a2.1351,2.1351,0,0,0,.4754.1989c.2145.0669.4475.12.6834.171.4732.1021.9638.1808,1.4587.2453.99.1269,1.9923.2423,2.9993.3208,2.0124.18,4.0355.3584,6.0641.4865l6.0984.3831a50.1675,50.1675,0,0,0,6.1149.0347c2.0351-.1315,4.0582-.4505,6.0633-.7463l2.993-.4229c.4943-.0738.9843-.1618,1.4565-.2732.2354-.0554.4683-.1112.6826-.1818a1.9679,1.9679,0,0,0,.4751-.21c-.0139.0124-.0048.0068-.035.0916-.0015.0364.0014.0685.0021.1036.0031.0341.0354.071.0285.0713a.0242.0242,0,0,0,.0189.0167.1205.1205,0,0,1-.0253-.0227c-.0054-.0165-.0519-.0434-.0844-.068a2.9251,2.9251,0,0,0-.5923-.2832c-.4487-.1652-.9325-.304-1.4178-.4341-.9749-.256-1.9737-.4707-2.9722-.7151Z"/><path class="cls-1" d="M32.1532,57.8091c-.0244.16-.1136.17-.17.2276a1.4523,1.4523,0,0,1-.19.1082,4.1462,4.1462,0,0,1-.3863.163c-.2594.0905-.52.1726-.7819.2363a14.7537,14.7537,0,0,1-1.5774.3088,17.688,17.688,0,0,1-3.1734.2043c-1.061-.046-2.1216-.2422-3.1765-.2633a21.5492,21.5492,0,0,0-3.164.1747,29.5825,29.5825,0,0,1-3.1712.2411c-1.0581.0375-2.1175.0481-3.176-.0055a29.2777,29.2777,0,0,1-3.1688-.3664c-.5268-.0929-1.0531-.2-1.5765-.3472a6.1922,6.1922,0,0,1-.7832-.2662,1.4961,1.4961,0,0,1-.4111-.2322.27.27,0,0,1-.0615-.0787.2.2,0,0,1-.0155-.1549.2214.2214,0,0,1,.1369-.128.8565.8565,0,0,1,.2191-.0453l.04.13a.6621.6621,0,0,0-.1453.1047c-.0174.0139-.0216.0458.0024.0106.0246-.05-.0109-.0838.0123-.0715a1.9316,1.9316,0,0,0,.325.04c.2524.012.5137.0026.7731.0041l1.5676-.03c1.0474-.028,2.0941-.023,3.1418-.0143,1.0468.0279,2.0937.095,3.1421.1692,1.0487.0558,2.0978.1639,3.1492.2982a17.4849,17.4849,0,0,0,3.1565.1282c1.0517-.0552,2.0977-.3015,3.1421-.4253a28.1122,28.1122,0,0,1,3.1385-.1246c.5233.0007,1.0461.0068,1.57.0227l.7822.0133c.1291-.0005.26.0038.3857-.004.1159.0043.2812-.0341.3081-.0273Z"/><path class="cls-1" d="M38.028,57.8091a32.5635,32.5635,0,0,1,.4578,4.0848,36.1735,36.1735,0,0,1,.0389,4.0848c-.0837,1.3616-.3028,2.7232-.3446,4.0848a32.8733,32.8733,0,0,0,.1514,4.0848c.1316,1.3616.236,2.7232.2666,4.0848.0469,1.3616.1038,2.7232.0854,4.0848a60.1473,60.1473,0,0,1-.6555,8.17h-.1357a60.1473,60.1473,0,0,1-.6555-8.17c-.0184-1.3616.0385-2.7232.0854-4.0848.0306-1.3616.1349-2.7232.2667-4.0848a32.8926,32.8926,0,0,0,.1514-4.0848c-.0418-1.3616-.261-2.7232-.3447-4.0848a36.1735,36.1735,0,0,1,.0389-4.0848,32.6009,32.6009,0,0,1,.4578-4.0848Z"/><path class="cls-1" d="M1.4876,57.8091a32.5822,32.5822,0,0,1,.4578,4.0848,36.1735,36.1735,0,0,1,.0389,4.0848c-.0837,1.3616-.3028,2.7232-.3446,4.0848a32.8733,32.8733,0,0,0,.1514,4.0848c.1316,1.3616.236,2.7232.2667,4.0848.0469,1.3616.1038,2.7232.0854,4.0848a60.1314,60.1314,0,0,1-.6556,8.17H1.352a60.1475,60.1475,0,0,1-.6556-8.17c-.0184-1.3616.0385-2.7232.0855-4.0848.03-1.3616.1349-2.7232.2666-4.0848A32.8733,32.8733,0,0,0,1.2,70.0635C1.1581,68.7019.939,67.34.8553,65.9787a36.1734,36.1734,0,0,1,.0388-4.0848,32.5825,32.5825,0,0,1,.4579-4.0848Z"/><path class="cls-1" d="M27.2969,56.4488c-.0626.211-.26.2331-.4005.2991-.1542.0545-.312.0918-.4689.1313-.3137.0817-.6327.1332-.95.2-.6356.1236-1.2761.2185-1.918.3043a22.9947,22.9947,0,0,1-3.87.1868c-1.2919-.05-2.5787-.1807-3.8632-.2894-.6423-.0562-1.2856-.0986-1.9287-.1713-.3212-.04-.6425-.08-.9665-.1329a4.2862,4.2862,0,0,1-.4887-.1085,1.7152,1.7152,0,0,1-.2527-.0942c-.0743-.0548-.2164-.0775-.2589-.3251a.4334.4334,0,0,1,.2487-.344,1.84,1.84,0,0,1,.2492-.1157,4.4934,4.4934,0,0,1,.4844-.1517,9.3548,9.3548,0,0,1,.9651-.1978c.6439-.1046,1.2885-.18,1.9344-.2313,1.2911-.1077,2.5839-.1683,3.8769-.16a29.2973,29.2973,0,0,1,3.8706.256c.6417.09,1.2824.185,1.918.3091.317.0668.6359.1193.95.2016.1569.04.3146.0781.4686.1332C27.0378,56.2143,27.2348,56.2374,27.2969,56.4488Zm-.0678,0c-.03-.1139-.22-.1764-.3584-.2234a3.51,3.51,0,0,0-.4634-.1126A8.5389,8.5389,0,0,0,25.4542,56c-.64-.0418-1.2815-.055-1.9229-.05l-3.8413.022c-1.2791.01-2.5591.0139-3.8351.0736-.6372.0342-1.2749.0669-1.9065.1283-.315.0329-.63.068-.9377.1167a4.109,4.109,0,0,0-.4477.0942,1.4956,1.4956,0,0,0-.1962.0679c-.06.0174-.0793.0786-.0642-.0032-.0228-.08-.004-.0083.0541.0156a1.3669,1.3669,0,0,0,.1925.09,3.9615,3.9615,0,0,0,.4436.1373,7.7253,7.7253,0,0,0,.9362.1817,19.0019,19.0019,0,0,0,1.9123.1884c1.2824.0586,2.5684-.0082,3.8487-.0556,1.281-.0423,2.5589-.0578,3.842-.0471.6413.0007,1.2829-.013,1.9229-.0553a8.471,8.471,0,0,0,.9532-.1147,3.4674,3.4674,0,0,0,.4633-.1145C27.01,56.6265,27.1994,56.5631,27.2291,56.4488Z"/><path class="cls-1" d="M38.7839,5.9452a.7639.7639,0,0,1-.3852.5688,3.96,3.96,0,0,1-.559.3148,8.7727,8.7727,0,0,1-1.1714.4368,19.81,19.81,0,0,1-2.3978.5635,31.0241,31.0241,0,0,1-4.856.4937c-1.6267.0231-3.2542-.125-4.872-.1188-1.6184-.0048-3.2333.1015-4.8525.2208-1.619.1305-3.2421.2133-4.8647.1971-1.6228-.0012-3.2484-.0155-4.87-.14a44.655,44.655,0,0,1-4.8467-.644,22.1166,22.1166,0,0,1-2.3938-.5855,8.7659,8.7659,0,0,1-1.1684-.4407,4.2857,4.2857,0,0,1-.56-.3059.7556.7556,0,0,1-.39-.56H.7317c.0442.1443.2288.2245.3964.2958a3.9509,3.9509,0,0,0,.5585.1556c.3839.08.779.1278,1.1736.1769.79.091,1.5884.1505,2.3867.2047q2.3972.147,4.803.26l4.8125.3087c1.6073.077,3.2154.2028,4.8276.3356a36.338,36.338,0,0,0,4.84.0823c1.612-.09,3.2131-.3792,4.8107-.5681,1.5983-.1853,3.199-.2778,4.7938-.41.7969-.0664,1.5934-.1345,2.3826-.227.3939-.0505.7883-.0991,1.1706-.1807.3588-.085.8224-.16.9609-.4338Z"/><path class="cls-1" d="M38.7839,4.3833c.3176,3.0248.4541,6.05.5125,9.0743.0235,1.5124.0516,3.0248-.0033,4.5372-.0517,1.5124-.154,3.0247-.2337,4.5372a77.69,77.69,0,0,0-.01,9.0743l.2188,4.5371c.0563,1.5125.08,3.0248.11,4.5372H38.0542l-.0149-.7586,1.3113.2352c-.5141,1.5049-1.0554,3-1.6109,4.4892-.5755,1.4821-1.1449,2.9664-1.75,4.4375q-.8957,2.211-1.8569,4.3978c-.631,1.4615-1.287,2.9138-1.9835,4.351l-.1273-.0472c.4086-1.5439.8577-3.0728,1.3319-4.5925.4608-1.5246.95-3.0385,1.4584-4.5456.5-1.51,1.0354-3.0071,1.5651-4.5061.55-1.4917,1.1134-2.9781,1.7045-4.4545L39.4652,36.23l-.0725,3.6918-.0148.7586H38.0542c.03-1.5124.0536-3.0247.11-4.5372l.2188-4.5371a77.69,77.69,0,0,0-.01-9.0743c-.08-1.5125-.1819-3.0248-.2337-4.5372-.0549-1.5124-.0267-3.0248-.0033-4.5372.0585-3.0247.195-6.0495.5126-9.0743Z"/><path class="cls-1" d="M.7317,5.9452c.3175,2.86.4541,5.719.5126,8.5785.0234,1.43.0515,2.86-.0033,4.2894-.0516,1.43-.154,2.86-.2335,4.2892a69.4409,69.4409,0,0,0-.0107,8.5786c.0619,1.43.1665,2.86.2188,4.2893.0564,1.43.08,2.86.11,4.2894l-.0427-.2338c.5844,1.4505,1.1717,2.9,1.7171,4.3649.5434,1.466,1.0764,2.9358,1.5773,4.4178.5094,1.4787,1.0007,2.9643,1.4584,4.4626.4709,1.4933.92,2.9947,1.3224,4.514l-.1269.048c-.703-1.4056-1.3589-2.829-1.9931-4.2606-.6473-1.4267-1.2611-2.866-1.8568-4.3121-.6042-1.443-1.1763-2.8981-1.7381-4.357-.56-1.46-1.0775-2.9354-1.5982-4.41L0,40.3662.0022,40.26c.03-1.43.0536-2.86.11-4.2894.0524-1.43.157-2.8595.2189-4.2893A69.4409,69.4409,0,0,0,.32,23.1023c-.0795-1.43-.1819-2.86-.2335-4.2892-.0548-1.43-.0267-2.86-.0033-4.2894.0585-2.86.195-5.719.5126-8.5785Z"/><path class="cls-1" d="M24.6633,77.0719a5.5257,5.5257,0,0,1-1.33,3.6433A4.66,4.66,0,0,1,19.69,82.2936a5.2544,5.2544,0,0,1-3.5705-1.6512,5.4835,5.4835,0,0,1-1.5545-3.57,5.0061,5.0061,0,0,1,1.4068-3.7182A5.1494,5.1494,0,0,1,19.69,71.7709a4.8737,4.8737,0,0,1,3.65,1.6506A5.5262,5.5262,0,0,1,24.6633,77.0719Zm-.0679,0a4.4446,4.4446,0,0,0-1.5706-3.3348A5.0984,5.0984,0,0,0,19.69,72.4942a4.7648,4.7648,0,0,0-3.2671,1.3106,4.9114,4.9114,0,0,0-1.4866,3.2671,4.4768,4.4768,0,0,0,1.3388,3.415A4.6475,4.6475,0,0,0,19.69,81.7291a5.42,5.42,0,0,0,3.3421-1.315A4.4476,4.4476,0,0,0,24.5954,77.0719Z"/><path class="cls-1" d="M18.4237,74.8348a5.4978,5.4978,0,0,1,.2483,2.1395c-.0418.3566-.1514.7132-.1723,1.07a4.5373,4.5373,0,0,0,.0758,1.07,1.3727,1.3727,0,0,0,.3488.8051,1.1118,1.1118,0,0,0,.695.3248,1.2627,1.2627,0,0,0,1.337-.9346h.0679a1.2373,1.2373,0,0,1-.2693,1.148,1.4725,1.4725,0,0,1-1.1893.508,1.5083,1.5083,0,0,1-1.1425-.6464,1.43,1.43,0,0,1-.251-.6039,1.7021,1.7021,0,0,1,.032-.601,4.5425,4.5425,0,0,0,.0757-1.07c-.0209-.3566-.1305-.7132-.1723-1.07a5.4978,5.4978,0,0,1,.2483-2.1395Z"/><path class="cls-1" d="M20.9563,79.3091A5.4976,5.4976,0,0,1,20.708,77.17c.0418-.3566.1513-.7132.1723-1.07a4.5484,4.5484,0,0,0-.0758-1.07,1.3739,1.3739,0,0,0-.3488-.805,1.1128,1.1128,0,0,0-.695-.3248,1.2627,1.2627,0,0,0-1.337.9346h-.0679a1.2372,1.2372,0,0,1,.2692-1.148,1.4724,1.4724,0,0,1,1.1893-.508,1.5085,1.5085,0,0,1,1.1426.6464,1.43,1.43,0,0,1,.251.604,1.7008,1.7008,0,0,1-.0321.6008A4.5482,4.5482,0,0,0,21.1,76.1c.0208.3566.13.7132.1723,1.07a5.5,5.5,0,0,1-.2483,2.1395Z"/><path class="cls-1" d="M38.3683,42.7423c1.7879-.2589,3.5757-.3731,5.3636-.4578l1.3409-.05c.4319-.012.9276-.008,1.3072-.0329a2.958,2.958,0,0,0,1.927-.932,2.8987,2.8987,0,0,0,.5945-.95,3.6109,3.6109,0,0,0,.2142-1.1953c.07-.894.1354-1.7879.1577-2.6818.0515-1.7879-.0333-3.5757-.1515-5.3635-.1316-1.7879-.236-3.5758-.2666-5.3637l-.0688-2.6817c-.0156-.4469-.0156-.8939-.0163-1.3409l-.0021-.6705c-.0045-.3687-.0053-.07.07-.0659a.2007.2007,0,0,0,.117.04l-.2869-.0072-.67-.0142c-.447-.0089-.8939-.0171-1.3409-.0378-.8939-.0317-1.7879-.07-2.6818-.1232-1.7879-.1-3.5757-.2459-5.3635-.4663v-.1356c1.7878-.2205,3.5756-.366,5.3635-.4663.8939-.053,1.7879-.0916,2.6818-.1232.447-.0207.8939-.0291,1.3409-.0379l.67-.0141.1677-.0035.0837-.0018c.0231,0,.0513-.0024.132.0017a1.2437,1.2437,0,0,1,.7268.29,1.2239,1.2239,0,0,1,.4087.6684,2.2057,2.2057,0,0,1,.0312.497l-.0021.6705c-.0007.447-.0007.894-.0163,1.3409l-.0689,2.6817c-.0306,1.7879-.1349,3.5758-.2666,5.3637-.1182,1.7878-.2029,3.5756-.1514,5.3635.0223.8939.0877,1.7878.1577,2.6818a4.6785,4.6785,0,0,1-.0463,1.4618,3.581,3.581,0,0,1-3.3776,2.8147c-.96.0086-1.8063-.0277-2.7151-.0648-1.7879-.0847-3.5757-.1989-5.3636-.4578Z"/><path class="cls-1" d="M38.6118,15.7378c2.4622-.2485,4.9245-.3879,7.3868-.4621l1.8468-.0487a14.6053,14.6053,0,0,1,1.93.039,5.2849,5.2849,0,0,1,3.486,2.0169,5.53,5.53,0,0,1,1.0635,3.7819c-.0712,1.2312-.1332,2.4623-.1425,3.6935-.0433,2.4623.0635,4.9246.1862,7.3869.1375,2.4623.21,4.9246.2509,7.3869a8.5531,8.5531,0,0,1-.8745,3.8857,8.1094,8.1094,0,0,1-2.6261,3.01,7.9586,7.9586,0,0,1-3.7211,1.3963,11.8167,11.8167,0,0,1-1.93.031l-1.8467-.0663c-2.4623-.1171-4.9246-.2279-7.3869-.4361v-.1356c2.4623-.2082,4.9246-.3191,7.3869-.4361l1.8467-.0663a12.2965,12.2965,0,0,0,1.755-.1375,7.2627,7.2627,0,0,0,3.073-1.3055,7.4019,7.4019,0,0,0,3.0194-5.7391c.0409-2.4623.1134-4.9246.2508-7.3869.1228-2.4623.23-4.9246.1863-7.3869-.0094-1.2312-.0714-2.4623-.1426-3.6935a4.6332,4.6332,0,0,0-1.2051-3.0785,4.7555,4.7555,0,0,0-2.8024-1.5255,13.9212,13.9212,0,0,0-1.7572-.0766l-1.8468-.0487c-2.4623-.0742-4.9246-.2137-7.3868-.4621Z"/><path class="cls-1" d="M35.6837,92.1129c.9211.9521,1.7794,1.95,2.6255,2.9575l.0813.097.0027.1595a1.3642,1.3642,0,0,1-.3064.8393,2.7293,2.7293,0,0,1-.532.4975,6.1146,6.1146,0,0,1-1.1422.6251,14.8943,14.8943,0,0,1-2.35.7583,23.59,23.59,0,0,1-4.7932.63c-1.6047.0771-3.2055.0612-4.7974.1469-1.5933.0645-3.1848.1762-4.7819.2741a58.1063,58.1063,0,0,1-9.6107-.1468,32.9434,32.9434,0,0,1-4.7772-.838,16.119,16.119,0,0,1-2.3459-.7959,6.4676,6.4676,0,0,1-1.14-.6393,2.5816,2.5816,0,0,1-.5313-.5044,1.3752,1.3752,0,0,1-.3006-.8466l.0048-.19.1084-.1032c.5129-.4876,1.0166-.9836,1.537-1.4644.5269-.4749,1.0408-.9617,1.5821-1.4235l.1005.0912c-.4075.5833-.8425,1.1417-1.2645,1.7119-.4284.5643-.8736,1.1134-1.31,1.6708l.1131-.2929c.0182.1157.2318.3313.5334.4934a5.4585,5.4585,0,0,0,.99.4268,18.4261,18.4261,0,0,0,2.2254.5633c1.5222.3045,3.08.51,4.6386.7082,3.12.4274,6.28.5994,9.4471.853a39.7872,39.7872,0,0,0,4.7611.0378,36.0521,36.0521,0,0,0,4.7172-.6166c1.5549-.303,3.1-.5993,4.6227-.9164a20.4027,20.4027,0,0,0,2.2213-.6009,5.8008,5.8008,0,0,0,.988-.441c.3034-.1628.5139-.39.5268-.5076l.084.2563c-.708-1.1085-1.4039-2.2261-2.0368-3.39Z"/><path class="cls-1" d="M16.443,56.479A18.74,18.74,0,0,1,13.3084,55.19c-.5022-.2549-.9711-.5752-1.45-.8767a11.1528,11.1528,0,0,0-1.4751-.8264l-.39-.1828.4352-.0216c.7649-.0381,1.5291-.0957,2.3-.0753a14.4594,14.4594,0,0,1,2.2962.28,8.42,8.42,0,0,1,2.1967.7889,5.282,5.282,0,0,1,1.7853,1.4933l-.0486.0472a8.48,8.48,0,0,0-1.9738-1.0149,17.9093,17.9093,0,0,0-2.1191-.61,21.983,21.983,0,0,0-2.19-.4257,14.8949,14.8949,0,0,0-2.2388-.2673l.0453-.2044a11.1238,11.1238,0,0,0,1.5378.703c.5258.2083,1.0612.3977,1.5633.6527a18.7448,18.7448,0,0,1,2.8911,1.7693Z"/><path class="cls-1" d="M22.0818,56.4186a18.7457,18.7457,0,0,1,2.8912-1.7693c.5021-.255,1.0374-.4444,1.5632-.6527a11.1184,11.1184,0,0,0,1.5378-.703l.0453.2044a14.8965,14.8965,0,0,0-2.2388.2673,21.9941,21.9941,0,0,0-2.19.4257,17.92,17.92,0,0,0-2.1191.61,8.4812,8.4812,0,0,0-1.9737,1.0149l-.0487-.0472a5.283,5.283,0,0,1,1.7853-1.4933,8.4237,8.4237,0,0,1,2.1967-.7889,14.4622,14.4622,0,0,1,2.2962-.28c.7707-.02,1.5351.0372,2.3.0753l.4351.0216-.39.1828a11.14,11.14,0,0,0-1.4751.8264c-.4786.3015-.9475.6218-1.45.8767a18.7375,18.7375,0,0,1-3.1347,1.2895Z"/><path class="cls-2" d="M32.8937,23.3491a5.5677,5.5677,0,0,1-1.9168.5179,5.7965,5.7965,0,0,1-1.9915-.12,4.3428,4.3428,0,0,1-2.935-2.5618,5.0739,5.0739,0,0,1-.3476-1.98A5.8432,5.8432,0,0,1,26.07,17.23a5.4936,5.4936,0,0,1,1.0416-1.7257,5.03,5.03,0,0,1,1.62-1.2015,5.5676,5.5676,0,0,1,1.9483-.5041c.17-.0062.3326-.0177.5081-.0193.166.01.33.01.4975.03a4.89,4.89,0,0,1,.9919.2094,4.1271,4.1271,0,0,1,1.7133,1.044A3.9666,3.9666,0,0,1,35.3831,16.8a4.9186,4.9186,0,0,1,.0972,1.9962,3.5345,3.5345,0,0,1-.8114,1.8146,2.5259,2.5259,0,0,1-1.77.8547,1.4059,1.4059,0,0,1-.9741-.2371,1.236,1.236,0,0,1-.45-.8972l.0512.0467h-.0291l.0441-.0248a2.298,2.298,0,0,1-1.139,1.001,2.1379,2.1379,0,0,1-.7621.1374,1.6055,1.6055,0,0,1-1.623-1.4134,2.9691,2.9691,0,0,1-.041-.7682,3.6252,3.6252,0,0,1,.1316-.7605,3.3128,3.3128,0,0,1,2.0209-2.2021,3.2622,3.2622,0,0,1,.7514-.1895,4.14,4.14,0,0,1,.7731-.0345,4.9538,4.9538,0,0,1,.7646.1029,2.8591,2.8591,0,0,1,.7434.2548l.0719.0382-.0133.0834-.27,1.6944-.1351.8472a3.6416,3.6416,0,0,0-.0708.8227.5222.5222,0,0,0,.1051.3167.2069.2069,0,0,0,.12.0622.367.367,0,0,0,.0724.0075l.1053-.0074a1.077,1.077,0,0,0,.613-.4045,2.8134,2.8134,0,0,0,.5124-1.5266,3.8727,3.8727,0,0,0-.2064-1.63,2.8089,2.8089,0,0,0-.9729-1.2882,3.2124,3.2124,0,0,0-1.5249-.5777,4.1755,4.1755,0,0,0-1.6478.11,3.8885,3.8885,0,0,0-2.4737,2.0757,4.7612,4.7612,0,0,0-.4473,1.6093,5.1025,5.1025,0,0,0,.1118,1.6729,3.3255,3.3255,0,0,0,.7806,1.4627,3.1778,3.1778,0,0,0,1.4126.8724,4.5344,4.5344,0,0,0,1.6751.1809,4.417,4.417,0,0,0,1.64-.4171l.0256-.0127.0079.0266.2522.8452Zm-.0211-.0194-.2657-.8166.0334.0138a4.794,4.794,0,0,1-3.3732.3135,3.3154,3.3154,0,0,1-1.4832-.89,3.4857,3.4857,0,0,1-.8377-1.5207,5.2816,5.2816,0,0,1-.1391-1.7332,4.9662,4.9662,0,0,1,.4451-1.6852A4.1164,4.1164,0,0,1,29.85,14.78a4.4274,4.4274,0,0,1,1.7512-.1209,3.4751,3.4751,0,0,1,1.648.6226,3.0784,3.0784,0,0,1,1.0686,1.4076,3.73,3.73,0,0,1,.2079.8666,4.4816,4.4816,0,0,1,.019.88,3.0492,3.0492,0,0,1-.5791,1.673,1.3053,1.3053,0,0,1-.8012.4971.58.58,0,0,1-.5008-.143.7571.7571,0,0,1-.1741-.476,3.8522,3.8522,0,0,1,.0783-.8824l.14-.8464.28-1.6928.0586.1214A3.811,3.811,0,0,0,31.64,16.343a3.9224,3.9224,0,0,0-.7318.0236,3.0528,3.0528,0,0,0-.71.17,3.13,3.13,0,0,0-1.9339,2.06,3.4653,3.4653,0,0,0-.1346.7212,2.82,2.82,0,0,0,.0291.7341,1.473,1.473,0,0,0,1.4872,1.3172,2.0274,2.0274,0,0,0,.7153-.1233A2.1888,2.1888,0,0,0,31.4527,20.3l.0152-.0251.029,0h.0291l.0474,0,.004.0466a1.1376,1.1376,0,0,0,.4045.8319,1.3168,1.3168,0,0,0,.9123.2267,2.35,2.35,0,0,0,1.7079-.8286,3.4359,3.4359,0,0,0,.7678-1.7724,4.7987,4.7987,0,0,0-.1158-1.9429,3.8212,3.8212,0,0,0-.975-1.664,3.9659,3.9659,0,0,0-1.6556-.9855,4.7253,4.7253,0,0,0-.95-.1913c-.1611-.0171-.33-.0156-.4943-.0243l-.4843.0239a5.3586,5.3586,0,0,0-1.87.5037,5.1934,5.1934,0,0,0-2.5619,2.8047,5.6271,5.6271,0,0,0-.3742,1.91,4.8987,4.8987,0,0,0,.3157,1.91,4.1956,4.1956,0,0,0,2.8138,2.5023,5.8643,5.8643,0,0,0,1.9525.164A5.511,5.511,0,0,0,32.8726,23.33Z"/><path class="cls-2" d="M31.5965,17.4276a1.9687,1.9687,0,0,0-.3317-.0124,1.6539,1.6539,0,0,0-.3792.0595,1.6316,1.6316,0,0,0-.4388.2029,2.2176,2.2176,0,0,0-.4216.39,2.47,2.47,0,0,0-.3488.5557,1.8631,1.8631,0,0,0-.1575.6976.9667.9667,0,0,0,.1927.6774.61.61,0,0,0,.6074.1541,1.0569,1.0569,0,0,0,.5154-.3786,2.4577,2.4577,0,0,0,.4814-1.118C31.4446,17.9726,31.5746,17.5052,31.5965,17.4276Zm.0287-.01s-.0056.5129-.0868,1.2715a2.203,2.203,0,0,1-.1366.6268,2.0611,2.0611,0,0,1-.3629.63,1.2571,1.2571,0,0,1-.68.43.7519.7519,0,0,1-.7593-.2911,1.2644,1.2644,0,0,1-.1608-.7664,3.2083,3.2083,0,0,1,.1064-.7414,1.8642,1.8642,0,0,1,.3061-.6451,1.5891,1.5891,0,0,1,.4826-.4345,1.3567,1.3567,0,0,1,.5187-.1885,1.4143,1.4143,0,0,1,.4179-.0021l.3544.1008Z"/><path class="cls-2" d="M8.9334,22.32a2.8822,2.8822,0,0,1-.0841.7056,2.73,2.73,0,0,1-1.0159,1.5919,2.4643,2.4643,0,0,1-1.2215.4584c-.1189.0085-.23.0143-.36.0113a2.5737,2.5737,0,0,1-.35-.0462,2.6223,2.6223,0,0,1-.704-.2389A2.9992,2.9992,0,0,1,4.07,23.7979a2.9434,2.9434,0,0,1-.4908-1.4786A2.672,2.672,0,0,1,3.982,20.782,2.8035,2.8035,0,0,1,5.16,19.7525a2.7376,2.7376,0,0,1,1.4469-.2208,2.57,2.57,0,0,1,1.2306.4836,2.7461,2.7461,0,0,1,1.0142,1.5972A2.853,2.853,0,0,1,8.9334,22.32Zm-.037-.001-.0121-.1824a2.02,2.02,0,0,0-.1-.5053,2.48,2.48,0,0,0-1.1184-1.3594,2.8679,2.8679,0,0,0-1.0843-.3631,2.5746,2.5746,0,0,0-1.2658.1946,2.4919,2.4919,0,0,0-1.062.86,2.6413,2.6413,0,0,0-.4715,1.3566,2.3933,2.3933,0,0,0,.3834,1.4152,2.3434,2.3434,0,0,0,1.1127.8851,2.7555,2.7555,0,0,0,1.2981.1416A3.0462,3.0462,0,0,0,7.67,24.3729a2.4958,2.4958,0,0,0,1.1169-1.3648,1.9975,1.9975,0,0,0,.0984-.5055Z"/><path class="cls-2" d="M17.1225,22.3371l-2.0448.0759-.0866.0032-.0072-.097-.063-.8493-.1446-.837-.217-.8193c-.0883-.268-.1965-.5294-.2933-.7941-.1147-.2575-.2474-.5071-.37-.7608l-.4387-.7226-.4986-.6829-.5621-.6328-.6147-.5843-.67-.523c-.2394-.1513-.475-.3111-.719-.4568-.2538-.1272-.5033-.2665-.764-.3807-.2672-.0979-.5312-.2072-.8016-.2964-.2761-.07-.5492-.156-.8283-.2136l-.847-.12-.8543-.0368L6.23,13.6063,6.2282,13.54l-.04-2.026L6.186,11.4l.1119.0036,1.0716.0344,1.065.1383c.351.07.6986.1606,1.0479.2438.3425.1059.6775.2371,1.0169.355.33.14.6514.3027.9778.4535.3145.1734.6193.3652.93.5475.2945.2061.5769.43.8656.6444l.7974.7267.7212.8019c.2149.2882.43.5766.6316.8733.1788.3118.3668.6179.5363.9332.1468.3273.3057.6488.4414.9793.1137.3395.2407.6742.3423,1.0161.08.3484.1717.6936.24,1.0428.048.3535.0916.7075.1244,1.0606Zm-.039-.0371-.0906-1.0341-.1875-1.0365c-.0811-.3408-.1849-.6761-.2756-1.0134-.1128-.3309-.25-.6533-.3733-.98-.1451-.3172-.3125-.6243-.4669-.9362-.177-.3-.3714-.59-.5553-.8844l-.6319-.8293-.7018-.77-.7745-.6964-.837-.6192c-.2963-.18-.5872-.3709-.8881-.5439-.3127-.1505-.62-.3138-.9376-.4548-.3263-.119-.6485-.2521-.9786-.3607-.3364-.0873-.6694-.1922-1.0085-.272l-1.032-.1736-1.0464-.073.1095-.1095-.04,2.026-.07-.07.8666.05.8568.1339.8425.2055c.276.0851.546.1905.82.285l.7924.3573c.2558.1359.5043.2867.7576.43l.7134.5036.6625.572.5941.6444.528.7c.1542.2484.3061.499.4481.7542.1225.2655.2548.5267.3683.7956.0957.2761.2022.5486.2881.8272.0667.2842.149.565.2022.8514l.1088.8669.0243.8714-.0936-.0936Z"/><path class="cls-2" d="M13.2625,22.3378c-.6753.0494-1.3506.079-2.026.1l-.1111.0035-.0075-.1221a7.1539,7.1539,0,0,0-.1188-.9351,5.4364,5.4364,0,0,0-.2861-.8932,7.1055,7.1055,0,0,0-.4456-.8234,6.2768,6.2768,0,0,0-.5836-.7342,5.6915,5.6915,0,0,0-.7062-.6253,5.5359,5.5359,0,0,0-.82-.4806,5.41,5.41,0,0,0-.9087-.2922,4.8381,4.8381,0,0,0-.9515-.0913l-.0632-.001v-.0623c-.0009-.6753-.0354-1.3506-.0507-2.0259l-.0026-.1166.1166.0026.6955.0156.6927.0832c.2284.0434.4553.099.6821.1543.223.0679.4412.1521.6623.2279.2153.09.4247.195.6375.2923l.6065.3538.562.4211.518.4737.4684.5225c.14.1874.2773.3769.4082.57l.3464.608c.0947.2131.1971.4224.2844.6376.074.2207.1495.4407.2122.6634.0476.2272.103.4521.1432.6791.027.23.05.4595.0672.6881l-.0035.7053ZM13.2419,22.3l-.07-.6574-.1338-.6635c-.0562-.2177-.1271-.4315-.1893-.6462l-.2491-.6228c-.0937-.2024-.2016-.3982-.301-.597l-.3572-.5634-.4061-.5275-.4489-.4907-.4951-.4435-.5354-.3933-.5649-.35c-.1991-.0968-.395-.202-.5972-.2931-.2079-.0769-.4132-.1629-.6238-.2333L7.6264,15.64l-.659-.1178-.6695-.0536.1139-.1138c-.0153.6753-.05,1.3506-.0507,2.0259l-.0632-.0631.49.03.4853.07a5.6257,5.6257,0,0,1,1.83.7041,5.931,5.931,0,0,1,.79.6026,5.4663,5.4663,0,0,1,.6443.7623,4.7733,4.7733,0,0,1,.4684.8826,5.7257,5.7257,0,0,1,.2769.9585c.0214.1649.05.329.0647.4941l.0081.4972-.1185-.1184C11.905,22.2215,12.5735,22.2512,13.2419,22.3Z"/><path class="cls-2" d="M32.67,40.7856Q30.2342,38.84,27.8349,36.85l.0822.0264-1.1081.0493c-.3755.004-.7346-.0031-1.1061-.0232a13.8684,13.8684,0,0,1-2.2011-.3036A8.2286,8.2286,0,0,1,19.5581,34.64a3.1438,3.1438,0,0,1-.9736-1.9675,2.65,2.65,0,0,1,.1565-1.1012,3.6588,3.6588,0,0,1,.5749-.951,5.7571,5.7571,0,0,1,1.7513-1.3462,9.7406,9.7406,0,0,1,2.07-.7829,12.9065,12.9065,0,0,1,2.18-.39,16.1446,16.1446,0,0,1,2.2127-.0653,15.2815,15.2815,0,0,1,2.2074.2754,11.4636,11.4636,0,0,1,2.1308.6513A6.9177,6.9177,0,0,1,33.7642,30.16a3.2744,3.2744,0,0,1,1.1144,1.96,2.8018,2.8018,0,0,1-.6431,2.1509,5.4628,5.4628,0,0,1-1.7605,1.3739l.052-.0934.1352,2.6121.0567,1.305c-.0022.4353-.0168.8708-.0245,1.3061l-.0005.03Zm-.0061-.0438c-.01-.4245-.0147-.8492-.0308-1.2734l-.1084-1.302L32.33,35.5642l-.0047-.0622.0567-.0313A5.248,5.248,0,0,0,34.04,34.1188a2.5557,2.5557,0,0,0,.5487-1.959,2.98,2.98,0,0,0-1.029-1.7785,6.633,6.633,0,0,0-1.8144-1.1347,11.1764,11.1764,0,0,0-2.0667-.6541,15.0405,15.0405,0,0,0-2.1551-.2916,16.6081,16.6081,0,0,0-2.1864.0189,12.71,12.71,0,0,0-2.157.3369,9.3044,9.3044,0,0,0-2.0519.7362,5.6425,5.6425,0,0,0-1.7362,1.2916,3.2011,3.2011,0,0,0-.5654.919,2.561,2.561,0,0,0-.1383,1.0611,2.904,2.904,0,0,0,.9745,1.8691,6.2278,6.2278,0,0,0,1.8223,1.16,12.3507,12.3507,0,0,0,2.0713.66,16.754,16.754,0,0,0,2.157.2963c.36.0238.7364.0353,1.0939.0351l1.092-.0364.0495-.0017.033.0281Q30.3424,38.6856,32.6644,40.7418Z"/><path class="cls-2" d="M28.2954,35.549q1.6191,1.2724,3.21,2.5781l-.1757.0888-.2448-3.3538-.0066-.09.0815-.0368a6.2376,6.2376,0,0,0,1.5633-.9147,1.769,1.769,0,0,0,.7716-1.4919,2.2844,2.2844,0,0,0-.9769-1.4411,6.3232,6.3232,0,0,0-1.6186-.8544,11.88,11.88,0,0,0-3.6157-.6276,14.6687,14.6687,0,0,0-1.8389.0668,11.7911,11.7911,0,0,0-1.8056.3083,8.5686,8.5686,0,0,0-1.721.5931,4.8319,4.8319,0,0,0-1.4666,1.0126,1.8959,1.8959,0,0,0-.4486.7219,1.2324,1.2324,0,0,0-.0655.3916l.0252.23c.0154.07.0425.1256.0612.19a2.8586,2.8586,0,0,0,1.1674,1.2651,8.97,8.97,0,0,0,3.4143,1.2193,14.3422,14.3422,0,0,0,1.8323.1721c.6089.0192,1.2342-.0029,1.8469-.03l.0061,0Zm-.0144.0262c-.6153.06-1.2231.1153-1.8454.13a14.14,14.14,0,0,1-1.8572-.1193,9.1942,9.1942,0,0,1-3.5451-1.1567,3.1125,3.1125,0,0,1-1.2947-1.4146c-.0261-.0833-.0593-.1713-.076-.2517l-.0263-.23a1.4637,1.4637,0,0,1,.0756-.5166,2.1957,2.1957,0,0,1,.5124-.84,5.1042,5.1042,0,0,1,1.5729-1.0619,8.8394,8.8394,0,0,1,1.7815-.5891,11.94,11.94,0,0,1,1.85-.2639,14.8452,14.8452,0,0,1,1.8615-.016,12.0145,12.0145,0,0,1,3.64.7052,6.5021,6.5021,0,0,1,1.6564.8462,2.4469,2.4469,0,0,1,1.0851,1.5128,1.4762,1.4762,0,0,1-.1824.95,2.8275,2.8275,0,0,1-.6076.7435,6.47,6.47,0,0,1-1.61.97l.0748-.127.1973,3.3573.0149.254-.1907-.1651Q29.8136,36.946,28.281,35.5752Z"/><path class="cls-2" d="M15.0522,50.0208s-.0356.0549-.099.1656a1.6688,1.6688,0,0,1-.1344.1956.3559.3559,0,0,1-.3025.1632c-.4714.0186-1.147.05-1.9528.0529a.6687.6687,0,0,1-.59-.4278c-.0767-.2149-.136-.4243-.2079-.6466-.1441-.44-.2686-.9121-.4105-1.3967-.1351-.4868-.2915-.9843-.4534-1.4888l-.2574-.7577a.9557.9557,0,0,1-.0973-.4154.4686.4686,0,0,1,.27-.3667,1.2271,1.2271,0,0,1,.4293-.05l.4029-.0116.8-.0229,1.556-.0223a3.0374,3.0374,0,0,1,.4018.0067.5656.5656,0,0,1,.3906.2813,4.2364,4.2364,0,0,1,.2038.7253,8.9217,8.9217,0,0,1,.1733,1.3082,12.438,12.438,0,0,1-.0308,1.9629l-.0893.7412Zm-.0249-.0137c.0008-.0194.0118-.2833.0059-.736a18.6778,18.6778,0,0,0-.102-1.9363c-.0456-.3973-.1152-.8243-.209-1.2694a4.7106,4.7106,0,0,0-.18-.6428.27.27,0,0,0-.1892-.1326c-.0689-.0084-.2338-.0052-.3477-.0084l-1.556-.0223-.8-.0229-.4029-.0116a1.174,1.174,0,0,0-.3689.0145.3276.3276,0,0,0-.2026.2448.8677.8677,0,0,0,.0694.3639l.24.7632c.1677.5027.3356.9964.5144,1.4689.172.4747.351.9294.4946,1.3692l.2131.6338a.4309.4309,0,0,0,.3649.2848c.809.01,1.4793.0391,1.95.06.105.025.168-.04.2363-.1016a1.9165,1.9165,0,0,0,.1495-.1718C14.9768,50.0655,15.0193,50.0163,15.0273,50.0071Z"/><path class="cls-2" d="M23.6869,45.0094a3.1429,3.1429,0,0,1-.1.3243,1.4231,1.4231,0,0,1-.07.1562.3583.3583,0,0,1-.114.14l.0051-.0028c-.1758.1421.0037.3627-.0207.5713a2.3834,2.3834,0,0,1-.0861.62c-.0284.215-.2622.3761-.2909.5229a2.1554,2.1554,0,0,1,.0216.3061c-.0028.1058-.0113.21-.0229.3142s-.0263.208-.0474.3124a1.3658,1.3658,0,0,1-.04.1588.4.4,0,0,1-.0947.158.3674.3674,0,0,0-.1187.2193c-.0074.0641.0359.1828.0359.295a1.3986,1.3986,0,0,1-.1076.6553,1.0421,1.0421,0,0,1-.5184.45,1.5469,1.5469,0,0,1-.6531.1056l-.6193-.0011-1.2386-.0077-2.4771-.0492h-.0074l-.0042-.0009a5.1914,5.1914,0,0,1-.5864-.1507,1.4582,1.4582,0,0,0-.5515-.1914.1479.1479,0,0,1-.1222-.16l.011-.1489.0217-.2976c.0079-.198.0242-.3957.0211-.5944a12.121,12.121,0,0,0-.2-2.3643c-.0373-.1939-.0824-.386-.1341-.5758q-.0391-.1422-.0863-.2815a.4961.4961,0,0,1-.04-.1721.2746.2746,0,0,1,.0849-.1911.2994.2994,0,0,1,.1836-.0767,1.1342,1.1342,0,0,0,.3912-.1321,1.4779,1.4779,0,0,0,.424-.36,8.1082,8.1082,0,0,0,.5911-1.0114L17.7,42.5033l.02-.0266a.5.5,0,0,0,.0343-.06.8529.8529,0,0,0,.0368-.0852,1.5115,1.5115,0,0,0,.056-.1885A2.9143,2.9143,0,0,0,17.91,41.74a5.8549,5.8549,0,0,0,.0072-.8339l-.0006-.013.0013-.0091a1.79,1.79,0,0,1,.2074-.6867.6135.6135,0,0,1,.3146-.2806.5421.5421,0,0,1,.4306.0472,1.2182,1.2182,0,0,1,.2967.2207,1.9461,1.9461,0,0,1,.2338.2572l.1123.1409a1.0888,1.0888,0,0,1,.09.1561,1.8915,1.8915,0,0,1,.121.3371,6.5752,6.5752,0,0,1-.0107,2.6718l-.0024.0144-.0065.0149c-.0465.1077-.0571.2449.0067.3047a.5088.5088,0,0,0,.353.0953l.9086.0253c.6057.0125,1.2115.0377,1.8172.04h.0029l.0019,0a1.9786,1.9786,0,0,1,.6066.2247.6913.6913,0,0,1,.2387.2221A.4084.4084,0,0,1,23.6869,45.0094ZM23.66,45.002a.3752.3752,0,0,0-.0492-.2941.6537.6537,0,0,0-.2306-.2051,1.9337,1.9337,0,0,0-.5948-.2065l.0046,0c-.6057.002-1.2115.0273-1.8172.04l-.9086.0252a.678.678,0,0,1-.5018-.1315.403.403,0,0,1-.1189-.2771.6775.6775,0,0,1,.0514-.2711l-.0089.0292a9.2437,9.2437,0,0,0,.0953-1.2936,5.0556,5.0556,0,0,0-.1336-1.2667,1.65,1.65,0,0,0-.1013-.2813.7769.7769,0,0,0-.0748-.1283l-.0945-.1152a1.6849,1.6849,0,0,0-.2091-.2283.9423.9423,0,0,0-.2278-.1707.255.255,0,0,0-.2021-.0317.3252.3252,0,0,0-.1579.1547,1.5747,1.5747,0,0,0-.1745.5639l.0006-.0218a6.1476,6.1476,0,0,1-.02.8752,3.2137,3.2137,0,0,1-.0753.4406,1.7809,1.7809,0,0,1-.0692.22,1.1221,1.1221,0,0,1-.05.11.5676.5676,0,0,1-.0791.1207l.0194-.0264-.5943,1.0356a8.1065,8.1065,0,0,1-.6463,1.0266,1.6762,1.6762,0,0,1-.4936.3925,1.3387,1.3387,0,0,1-.2994.111c-.1063.0318-.2267.02-.247.0552-.0427.05-.05.0764-.0077.19l.08.2917c.0486.1953.09.3918.124.59a12.2208,12.2208,0,0,1,.1508,2.3908l-.0177.5988-.0168.2981-.0086.149a.0467.0467,0,0,0,.0417.0544,1.5528,1.5528,0,0,1,.5688.1859,4.4225,4.4225,0,0,0,.5745.125l-.0114-.001,2.4771-.0492,1.2386-.0077.6193-.0011a1.31,1.31,0,0,0,.5623-.0726.8409.8409,0,0,0,.412-.33,1.3451,1.3451,0,0,0,.1088-.5531c.0083-.0956-.0307-.1769-.0188-.32a.535.535,0,0,1,.1768-.3109,1.15,1.15,0,0,0,.1734-.5367,2.1965,2.1965,0,0,0,.0317-.6128c.0255-.1378.121-.1987.1825-.2786a.66.66,0,0,0,.1424-.2548,2.0127,2.0127,0,0,0,.1-.6.7839.7839,0,0,0-.0419-.2986.2988.2988,0,0,1,.0892-.3043l.0053-.003a.3624.3624,0,0,0,.0957-.12,1.3552,1.3552,0,0,0,.0709-.1507A3.0954,3.0954,0,0,0,23.66,45.002Z"/><path class="cls-2" d="M13.948,34.3156l-.0409-1.351.0563.0563-.94.023-.0633.0015-.0145-.0651a3.2944,3.2944,0,0,0-.5024-1.1492l-.0467-.0678.06-.0614.6572-.675V31.19l-.9732-.9591h.1768l-.6611.671-.0746.0756-.0917-.0588a3.4129,3.4129,0,0,0-1.1431-.4775l-.1047-.0218.0007-.1056.0055-.94.1243.1243L9.0058,29.474l.1006-.1007-.0178.94-.0013.0694-.0651.0119a3.28,3.28,0,0,0-1.1739.4627l-.0411.0265-.0335-.034-.6609-.6711h.0734c-.3239.32-.6515.6367-.9677.9645v-.07l.6728.6593.0342.0335-.0267.0412a3.3223,3.3223,0,0,0-.4729,1.1718l-.0111.0575-.06.0006-.94.01.0821-.0821.02,1.3664-.102-.1021.94-.0136.0929-.0014.0206.0941a3.26,3.26,0,0,0,.4935,1.1388l.0614.09-.0786.08-.6613.6707v-.2l.9726.96H7.0433l.6615-.67.0887-.09.1086.07a3.3368,3.3368,0,0,0,1.135.4713l.1262.0259,0,.1282-.0025.94-.1547-.1548,1.3663.0035-.1512.1513.0086-.94.0011-.1187.1132-.0212a3.2526,3.2526,0,0,0,1.1506-.4573l.0862-.0552.0687.0708.6559.6762h-.1536l.9808-.9515v.1242l-.6558-.6761-.0425-.0438.0331-.0489a3.4806,3.4806,0,0,0,.5151-1.1578l.0079-.0343.033.0009Zm.03.03-.9549.0271.0408-.0333a3.3066,3.3066,0,0,1-.474,1.2222l-.0093-.0925.6761.6559.0621.06-.0621.0641-.9515.9809-.0746.0768-.0792-.0768-.6761-.6559.1546.0156a3.5186,3.5186,0,0,1-1.2292.5318l.1141-.14.0086.94.0014.1509-.1528,0-1.3663.0035-.1545,0,0-.1552-.0024-.94.1258.154a3.4406,3.4406,0,0,1-1.2451-.5179l.1972-.02-.6705.6616-.1078.1063-.105-.1063-.96-.9727-.1-.1013.1-.0985.6706-.6614-.0171.1694a3.5114,3.5114,0,0,1-.4956-1.2411l.1133.0926-.94-.0137-.1037-.0015.0015-.1006.02-1.3664.0012-.0831.0811.0008.94.01-.071.058A3.4506,3.4506,0,0,1,6.8,31.7418l.0075.0746-.6592-.6729-.0355-.0362.0355-.0342c.3279-.3162.6443-.6438.9646-.9677l.0362-.0367.0373.0367.6712.6609-.0744-.0075a3.4969,3.4969,0,0,1,1.206-.5265l-.0663.0812-.0178-.94-.0019-.099.1027-.0018,1.3663-.0236.1238-.0022.0007.1266.0056.94-.104-.1272a3.374,3.374,0,0,1,1.2368.5117l-.1661.0168.671-.6612.09-.0885.0873.0885.959.9733.082.0831-.082.08-.6749.6571.013-.129a3.4769,3.4769,0,0,1,.4868,1.2307l-.0777-.0634.94.023.0581.0014-.0016.055Z"/><path class="cls-2" d="M9.6885,35.6252a2.2,2.2,0,0,1-.53-.0623,2.054,2.054,0,0,1-1.2-.7587,1.8382,1.8382,0,0,1-.3459-.92c-.0063-.09-.0106-.1728-.0082-.2717A1.9469,1.9469,0,0,1,7.64,33.35a1.9734,1.9734,0,0,1,.1818-.5294,2.2488,2.2488,0,0,1,1.8713-1.2168,2.0029,2.0029,0,0,1,1.154.3,2.1114,2.1114,0,0,1,.7772.8869,2.0585,2.0585,0,0,1,.1664,1.09,1.9216,1.9216,0,0,1-.3663.9272,2.0673,2.0673,0,0,1-1.2049.7574A2.1723,2.1723,0,0,1,9.6885,35.6252Zm.0009-.03.1366-.0093a1.4938,1.4938,0,0,0,.3784-.0758,1.8506,1.8506,0,0,0,1.0122-.8418,2.1648,2.1648,0,0,0,.2685-.8086,1.925,1.925,0,0,0-.1451-.9437,1.8589,1.8589,0,0,0-.6393-.7928,1.9756,1.9756,0,0,0-1.0159-.3557,1.78,1.78,0,0,0-1.0551.2843,1.74,1.74,0,0,0-.66.8339,2.0747,2.0747,0,0,0-.1022.97,2.3167,2.3167,0,0,0,.2891.816,1.8635,1.8635,0,0,0,1.0165.84,1.4765,1.4765,0,0,0,.3785.0745Z"/><path class="cls-1" d="M38.4684,2.858c-.065.3169-.3124.3764-.4833.4771a4.2937,4.2937,0,0,1-.5762.206c-.3873.1155-.7807.1945-1.1715.2826-.7815.1819-1.5724.2983-2.3594.4514-1.5777.2738-3.1609.5464-4.7512.7512a53.5393,53.5393,0,0,1-9.5784.4529c-3.1969-.1457-6.3809-.5051-9.5612-.7558L5.21,4.3577c-.7977-.0727-1.5958-.1446-2.4025-.2451C2.404,4.0611,2,3.9952,1.5863,3.901a4.4665,4.4665,0,0,1-.641-.19,1.7287,1.7287,0,0,1-.3677-.19A.8332.8332,0,0,1,.1811,2.858.8843.8843,0,0,1,.5589,2.17,1.9806,1.9806,0,0,1,.92,1.9479a4.9629,4.9629,0,0,1,.6321-.2542c.409-.1364.81-.2447,1.21-.3383.8-.1941,1.5974-.3339,2.3962-.4572C6.7552.652,8.354.5,9.9527.3772,13.1494.13,16.3486-.022,19.5484.0026a70.5427,70.5427,0,0,1,9.58.6566c1.59.2161,3.1732.4906,4.7514.7655.7872.1534,1.578.2728,2.36.4564.3907.0889.7838.1708,1.1711.288a4.2823,4.2823,0,0,1,.5757.2091C38.157,2.48,38.4045,2.5407,38.4684,2.858Zm-.2,0c-.0145-.0941-.205-.2108-.3717-.2779a4.0745,4.0745,0,0,0-.5519-.1783,9.8315,9.8315,0,0,0-1.1581-.2291c-.7842-.1006-1.5732-.1806-2.367-.2057-1.5854-.0744-3.1777-.03-4.7648.0065-3.1768.1288-6.34.1207-9.5064.1623-3.1648.03-6.3316.0132-9.49.12-1.5785.0567-3.1553.1348-4.722.2381-.7821.0551-1.5647.1148-2.33.2048-.3834.0446-.761.1032-1.1188.1788a3.95,3.95,0,0,0-.4955.1332,1.4088,1.4088,0,0,0-.16.0659c-.0607.0149.0431.0124.0444-.2183-.0132-.23-.12-.2172-.0632-.193a.6628.6628,0,0,0,.1528.0982,3.5074,3.5074,0,0,0,.4868.197c.3529.1178.7278.2188,1.1082.3055a22.9778,22.9778,0,0,0,2.3241.4169c1.5678.2167,3.1528.3322,4.7387.3933,3.1752.103,6.3572-.1206,9.5249-.2614,3.17-.1236,6.3313-.1427,9.5081-.0415,1.5869.0253,3.1792.0678,4.7649-.0078.7939-.0254,1.583-.1083,2.3673-.2107A9.6551,9.6551,0,0,0,37.3464,3.32a4.081,4.081,0,0,0,.5514-.1813C38.0643,3.0707,38.2549,2.9525,38.2683,2.858Z"/></g></g></g></svg>