<svg xmlns="http://www.w3.org/2000/svg" viewBox="0 0 62.9464 100.7702"><defs><style>.cls-1{fill:#575756;}.cls-2,.cls-4{fill:#0087b9;}.cls-3{fill:#fff;}.cls-4{font-size:7.4605px;font-family:DBOffice-Regular, DB Office;}.cls-5{letter-spacing:-0.0181em;}</style></defs><title>Element 4</title><g id="Ebene_2" data-name="Ebene 2"><g id="Ebene_1-2" data-name="Ebene 1"><g id="Illustrationen"><path class="cls-1" d="M21.0307,36.547c-1.8982.1364-3.9059.2592-5.9624.3311-2.0534.0713-4.1535.1217-6.23.0493l-.4323-.0151.0159-.4013c.0773-1.95.2235-3.9.2527-5.8505q.021-1.4626-.01-2.9253c-.0141-.9751-.0712-1.95-.1045-2.9253L8.55,24.5434l.2878-.012c1.013-.0423,2.0261-.1038,3.0393-.1268,1.013-.0327,2.026-.0626,3.0391-.0752,2.0262-.0367,4.0523-.08,6.0783-.0588l.5494.0056-.01.5338c-.0187,1.0059-.0192,2.0159-.0631,3.0161l-.1121,2.9853C21.2624,32.78,21.1529,34.71,21.0307,36.547Zm-.0718-.0719L20.6305,30.51l-.1121-2.8652c-.0437-.95-.0442-1.89-.0629-2.8345l.5391.5393c-2.026.0208-4.0521-.0222-6.0783-.0589-1.0131-.0125-2.0261-.0425-3.0391-.0751-1.0132-.023-2.0263-.0845-3.0393-.1268l.2784-.2785c-.0333.9751-.09,1.95-.1044,2.9253q-.0331,1.4627-.01,2.9253c.029,1.95.1752,3.9.2525,5.8505l-.4163-.4163c1.9754-.0724,3.9276-.022,5.9264.0494C16.76,36.2159,18.8047,36.3387,20.9589,36.4751Z"/><path class="cls-1" d="M21.0307,57.8162c-1.8982.1364-3.9059.2592-5.9624.331-2.0534.0714-4.1535.1218-6.23.0494l-.4323-.0151.0159-.4013c.0773-1.95.2235-3.9.2527-5.8505q.021-1.4626-.01-2.9253c-.0141-.9751-.0712-1.95-.1045-2.9253L8.55,45.8126l.2878-.012c1.013-.0424,2.0261-.1038,3.0393-.1268,1.013-.0327,2.026-.0626,3.0391-.0752,2.0262-.0367,4.0523-.08,6.0783-.0588l.5494.0056-.01.5337c-.0187,1.0059-.0192,2.0159-.0631,3.0162l-.1121,2.9853C21.2624,54.0493,21.1529,55.9787,21.0307,57.8162Zm-.0718-.0719-.3284-5.9655-.1121-2.8652c-.0437-.95-.0442-1.89-.0629-2.8345l.5391.5393c-2.026.0207-4.0521-.0222-6.0783-.0589-1.0131-.0125-2.0261-.0425-3.0391-.0751-1.0132-.023-2.0263-.0845-3.0393-.1268l.2784-.2785c-.0333.9751-.09,1.95-.1044,2.9253q-.0331,1.4627-.01,2.9253c.029,1.95.1752,3.9.2525,5.8505l-.4163-.4163c1.9754-.0724,3.9276-.022,5.9264.0494C16.76,57.4851,18.8047,57.6079,20.9589,57.7443Z"/><path class="cls-1" d="M20.944,69.3367c-.0812-.6628-.12-1.3256-.1795-1.9884l.23.23c-2.026.1434-4.0521.2073-6.0783.2241-1.0131.0057-2.0261-.0045-3.0391-.0672l-3.0393-.1709.2163-.2163a57.6332,57.6332,0,0,0,.027,5.8505l.1452,2.9253c.0318.9751.075,1.95.0879,2.9253l-.4764-.4764c2.0261-.0416,4.0523-.0962,6.0784-.0533,1.013.009,2.0262.0446,3.0392.0833,1.0131.0346,2.0261.0675,3.0391.1356l-.3108.3108c.0626-1.1722.1453-2.3444.26-3.5166h.1016c.1148,1.1722.1976,2.3444.26,3.5166l.0154.289-.3264.0219c-1.013.068-2.026.1009-3.0391.1355-1.013.0387-2.0262.0744-3.0392.0834-2.0261.0429-4.0523-.0118-6.0784-.0534l-.4827-.01.0062-.4665c.0129-.9751.0561-1.95.0881-2.9253l.145-2.9253a57.6332,57.6332,0,0,0,.027-5.8505l-.01-.2037.2267-.0127,3.0393-.1709c1.013-.0627,2.026-.0729,3.0391-.0672,2.0262.0168,4.0523.0808,6.0783.2241l.25.0177-.0192.2127c-.06.6628-.0985,1.3256-.18,1.9884Z"/><path class="cls-1" d="M21.0307,100.3546c-1.8982.1364-3.9059.2591-5.9624.331-2.0534.0714-4.1535.1218-6.23.0494l-.4323-.0151.0159-.4013c.0773-1.95.2235-3.9.2527-5.8506q.021-1.4625-.01-2.9252c-.0141-.9751-.0712-1.95-.1045-2.9253L8.55,88.351l.2878-.012c1.013-.0424,2.0261-.1038,3.0393-.1269,1.013-.0326,2.026-.0626,3.0391-.0751,2.0262-.0367,4.0523-.08,6.0783-.0589l.5494.0057-.01.5337c-.0187,1.0059-.0192,2.0159-.0631,3.0161l-.1121,2.9853C21.2624,96.5877,21.1529,98.517,21.0307,100.3546Zm-.0718-.0719-.3284-5.9655-.1121-2.8653c-.0437-.95-.0442-1.89-.0629-2.8344l.5391.5392c-2.026.0208-4.0521-.0221-6.0783-.0588-1.0131-.0125-2.0261-.0425-3.0391-.0752-1.0132-.023-2.0263-.0844-3.0393-.1268l.2784-.2784c-.0333.9751-.09,1.95-.1044,2.9253q-.0331,1.4626-.01,2.9252c.029,1.95.1752,3.9.2525,5.8506l-.4163-.4163c1.9754-.0724,3.9276-.022,5.9264.0493C16.76,100.0235,18.8047,100.1463,20.9589,100.2827Z"/><path class="cls-1" d="M62.9463,49.4413c-4.56,2.14-9.1877,4.1082-13.8439,6.0037-2.33.9422-4.6588,1.8892-7.019,2.7552s-4.7352,1.6953-7.1038,2.54l.0747-.041c-2.2738,1.5254-4.5,3.1159-6.699,4.7436-2.2054,1.6189-4.362,3.3046-6.5246,4.9819l.0573-.5659a6.3245,6.3245,0,0,1,1.616,3.8254l-.5848-.4686c2.6437-.4738,5.2864-.9525,7.9354-1.3922s5.2917-.9187,7.9453-1.3287l-.154.0421c3.9968-1.5986,8.024-3.1211,12.0617-4.617,2.0173-.7518,4.0481-1.4693,6.0764-2.1935,2.0257-.7309,4.067-1.4222,6.1124-2.1029l.05.1261c-1.9558.9065-3.9161,1.8023-5.8919,2.6586-1.9734.8628-3.9438,1.7325-5.928,2.5678-3.9654,1.6783-7.9412,3.33-11.9473,4.9057l-.0748.0294-.0795.0128c-2.6511.4257-5.3129.7834-7.9688,1.1784s-5.3178.753-7.9791,1.115l-.57.0775-.0144-.5463a5.4467,5.4467,0,0,0-1.17-3.3751L21.041,70.04l.3383-.2327c2.2546-1.5515,4.5154-3.0946,6.7274-4.7046,2.2184-1.6012,4.4095-3.24,6.5531-4.9429l.0245-.02.05-.0217c2.3089-.997,4.6111-2.01,6.9284-2.9855s4.6662-1.8707,7.0131-2.77c4.6986-1.7882,9.4256-3.5041,14.22-5.0477Z"/><path class="cls-2" d="M20.7537,70.6329c-1.119.9721-2.15,1.8022-3.2018,2.5735a18.2052,18.2052,0,0,1-1.6251,1.0381,19.3974,19.3974,0,0,0-1.66,1.061l-.0757-.1879c1.2843-.2,2.544-.5634,3.8248-.7869,1.2791-.2344,2.5579-.47,3.8523-.6041l-.2585.2061a1.8575,1.8575,0,0,0,.0608-.7669,4.5663,4.5663,0,0,0-.1845-.8608,6.64,6.64,0,0,0-.3313-.8508Zm.0106-.067c.101.1056.2247.2242.3416.3624l.3009.3775a6.1952,6.1952,0,0,1,.4982.8325,3.5491,3.5491,0,0,1,.3267.9422,2.3276,2.3276,0,0,1-.0056,1.0948l-.0431.163-.2157.0432c-1.2758.2552-2.5674.4079-3.8586.5624-1.29.1653-2.6.1912-3.8864.38l-.4449.0651.3694-.253c.5559-.3808,1.0833-.8043,1.6161-1.25.5347-.4379,1.0811-.8928,1.6512-1.2724A37.7238,37.7238,0,0,1,20.7643,70.5659Z"/><path class="cls-1" d="M35.9948,63.65c2.1933-.9994,4.4136-1.9295,6.6378-2.8491,2.2216-.9268,4.4623-1.8039,6.7031-2.6808,2.2467-.8619,4.4938-1.7225,6.76-2.5341l3.4-1.2153c1.1424-.3819,2.2763-.7856,3.4259-1.1484-1.0941.5062-2.2042.9715-3.3056,1.4585l-3.3317,1.3917c-2.2218.9263-4.4625,1.8036-6.7036,2.68-2.247.861-4.4939,1.7219-6.76,2.533C40.5567,62.104,38.2892,62.9119,35.9948,63.65Z"/><path class="cls-1" d="M37.436,67.5509c2.0737-.9448,4.174-1.82,6.2784-2.6851,2.1016-.8721,4.2223-1.6945,6.3429-2.5167,2.1266-.8071,4.2537-1.6129,6.4-2.37l3.22-1.1329c1.0819-.3545,2.1557-.7308,3.245-1.0661-1.0343.4789-2.0843.9168-3.1262,1.3765l-3.1516,1.31c-2.102.8716-4.2224,1.6942-6.3435,2.5155-2.1269.8063-4.2538,1.6124-6.4,2.3687C41.757,66.1143,39.61,66.8673,37.436,67.5509Z"/><polygon class="cls-3" points="17.513 48.218 21.586 42.922 25.821 47.485 22.145 50.174 19.498 54.706 17.513 48.218"/><polygon class="cls-3" points="11.37 48.931 16.244 56.124 29.57 36.369 16.244 51.507 11.37 48.931"/><path class="cls-2" d="M11.3955,48.954c.8542,1.2351,1.7532,2.44,2.6021,3.5865.8614,1.15,1.6848,2.2706,2.4853,3.421l-.4789.0005q1.6126-2.505,3.281-4.9727,1.6452-2.4831,3.3476-4.9277,1.6834-2.4575,3.3987-4.8933c1.15-1.6194,2.3089-3.2331,3.438-4.8668l.1913.1477Q27.9671,38.317,26.3358,40.24L23.1,44.1082c-1.0846,1.2843-2.1786,2.56-3.3041,3.8086-1.1291,1.2451-2.2345,2.5111-3.383,3.739l-.1255.1342-.149-.0838c-.7705-.4337-1.5277-.87-2.3046-1.337C13.0531,49.8941,12.2436,49.4227,11.3955,48.954Zm-.05-.0452c.7762.39,1.5912.777,2.4351,1.16.8476.3918,1.7147.8137,2.5686,1.2385l-.2742.05c1.0725-1.295,2.188-2.552,3.28-3.83,1.0954-1.2746,2.2224-2.5217,3.3588-3.76l3.4271-3.7q1.6958-1.8657,3.3384-3.7784l.1911.1477c-1.0918,1.6587-2.1542,3.3374-3.2249,5.0105q-1.6181,2.5014-3.2644,4.9839-1.6338,2.4907-3.3153,4.95-1.6641,2.47-3.382,4.9046l-.2478.3507-.2314-.35c-.824-1.247-1.6249-2.5239-2.3879-3.7712C12.8407,51.2632,12.1153,50.0712,11.345,48.9088Z"/><polygon class="cls-3" points="17.796 26.6 21.869 21.304 26.104 25.867 22.428 28.556 19.781 33.088 17.796 26.6"/><polygon class="cls-3" points="11.37 27.662 16.244 34.855 29.57 15.1 16.244 30.238 11.37 27.662"/><path class="cls-2" d="M11.3955,27.6849c.8542,1.235,1.7532,2.44,2.6021,3.5864.8614,1.15,1.6848,2.2706,2.4853,3.421l-.4789,0q1.6126-2.505,3.281-4.9727,1.6452-2.4831,3.3476-4.9277,1.6834-2.4575,3.3987-4.8933c1.15-1.6194,2.3089-3.2331,3.438-4.8668l.1913.1477q-1.6935,1.8678-3.3248,3.7905L23.1,22.839c-1.0846,1.2843-2.1786,2.56-3.3041,3.8086-1.1291,1.2451-2.2345,2.5111-3.383,3.739l-.1255.1342-.149-.0838c-.7705-.4337-1.5277-.87-2.3046-1.337C13.0531,28.6249,12.2436,28.1535,11.3955,27.6849Zm-.05-.0453c.7762.39,1.5912.777,2.4351,1.16.8476.3918,1.7147.8137,2.5686,1.2386l-.2742.05c1.0725-1.2951,2.188-2.552,3.28-3.83,1.0954-1.2746,2.2224-2.5217,3.3588-3.76l3.4271-3.7q1.6958-1.8657,3.3384-3.7783l.1911.1476c-1.0918,1.6587-2.1542,3.3374-3.2249,5.0105q-1.6181,2.5014-3.2644,4.9839-1.6338,2.4908-3.3153,4.95-1.6641,2.4705-3.382,4.9046l-.2478.3507-.2314-.35c-.824-1.2471-1.6249-2.524-2.3879-3.7713C12.8407,29.9941,12.1153,28.802,11.345,27.64Z"/><text class="cls-4" transform="translate(0.0001 6.4417)">CHECKLIS<tspan class="cls-5" x="37.313" y="0">T</tspan></text></g></g></g></svg>