<svg xmlns="http://www.w3.org/2000/svg" viewBox="0 0 75.6825 118.4982"><defs><style>.cls-1{fill:#575756;}.cls-2{fill:#fff;}.cls-3{fill:#0087b9;}</style></defs><title>Element 10</title><g id="Ebene_2" data-name="Ebene 2"><g id="Ebene_1-2" data-name="Ebene 1"><g id="Illustrationen"><rect class="cls-1" x="50.212" y="117.6182" width="12.6326" height="0.7236"/><path class="cls-2" d="M50.2015,117.6076c1.0188-.0355,2.0573-.0624,3.1053-.0827,1.0541-.01,2.105-.0358,3.1731-.0237,1.0649.0046,2.1371.0443,3.1957.0607,1.0594.0147,2.1123.0119,3.1689-.01l.0653-.0013.0013.0679.0152.7235.0018.08-.0836.0018c-2.1053.0447-4.2107.0817-6.3162.0735-2.1054.0018-4.2109-.04-6.3162-.1125l-.0446-.0015.0018-.0413Zm.0211.0211.0321.713-.0426-.0427c2.1053-.0726,4.2108-.1142,6.3162-.1124,2.1055-.0083,4.2109.0288,6.3162.0734l-.0816.0817.0152-.7235.0664.0665c-1.0487-.0221-2.1012-.025-3.1473-.01-1.0467.0164-2.08.0561-3.12.0606-1.0373.0121-2.0919-.0141-3.1432-.0237Z"/><path class="cls-1" d="M58.8593,8.2817l-4.17-.1854L54.63,6.516l2.8164-.0618Zm-3.8817-.4712,3.2519.1446-.9277-1.1988L54.94,6.8076Z"/><path class="cls-1" d="M54.3752,8.0823,51.634,7.96a.3869.3869,0,0,1-.2892-.2193.29.29,0,0,1,.0577-.2793l.6665-.89,2.2706-.05ZM52.2206,6.8671l-.579.7738c-.01.0064.0227.0221.0379.0262l2.39.1026-.0216-.9423Z"/><path class="cls-1" d="M59.3351,8.2012c-.091,0-.2286-.0869-.4327-.2822-.2729-.2607-1.1417-1.22-1.1784-1.2607l-.2251-.249.3359,0a.9775.9775,0,0,0,.3428-.0525l.0968-.0525.0788.077s1.2659,1.242,1.5026,1.4787l.0642.0642-.0274.0874c-.0315.1-.0683.1062-.519.1837A.1156.1156,0,0,1,59.3351,8.2012Zm-1.19-1.5236c.28.3073.7767.8472.9639,1.0256a1.1047,1.1047,0,0,0,.2431.1936c.0338-.0058.0671-.0122.0991-.018-.3574-.3528-1.0245-1.0076-1.2385-1.2176C58.1905,6.6671,58.1677,6.6729,58.145,6.6776Z"/><path class="cls-1" d="M63.074,8.7481A3.2312,3.2312,0,0,0,61.2761,7.99a6.9017,6.9017,0,0,0-.99-.0623,1.7912,1.7912,0,0,1-.2647-.0082,1.1073,1.1073,0,0,1-.2241-.1542l-.38-.3278-.7446-.6646a2.17,2.17,0,0,0-.7714-.5354,3.7328,3.7328,0,0,0-.9571-.0563l-.9975-.0026a34.7038,34.7038,0,0,0-3.9774.0535,1.7531,1.7531,0,0,0-.4583.0907,1.4346,1.4346,0,0,0-.3471.3179,5.8574,5.8574,0,0,0-.5719.8044,1.901,1.901,0,0,0-.1092.2184c-.03.04-.0057.0731-.0991.1312a.0934.0934,0,0,0-.0411.0181.3258.3258,0,0,1-.0657.0331c-.12.0443-.1509.2412-.1861.391-.0606.3229-.0849.6549-.1256.9817l-.0032.0265-.0194.0146a.6022.6022,0,0,0-.2481.4488c.0283.0923.2576.3125.18.5417-.0239.1039-.0867.2016-.0787.2534,0,.0434.091.0968.1712.1414a1.7471,1.7471,0,0,0,.5013.1988l-.0688.0972a1.3844,1.3844,0,0,1,1.2875-1.8492,1.4122,1.4122,0,0,1,1.3477,1.8692l-.1279-.1805q3.477-.0312,6.9539-.0173l-.1414.2021a1.4482,1.4482,0,0,1,1.3781-1.9373,1.4244,1.4244,0,0,1,1.15.63,1.4015,1.4015,0,0,1,.143,1.2753l-.0552-.0789.0392.0009H62.38l.0042.0007a1.8018,1.8018,0,0,0,.5494.0151.4877.4877,0,0,0,.4241-.27,3.9144,3.9144,0,0,0,.0567-.5559l.0408-.5681.0012.0093A2.3686,2.3686,0,0,0,63.074,8.7481Zm.02-.022a1.3316,1.3316,0,0,1,.2353.3554c.0634.1267.1193.2563.17.3888l.0016.0041,0,.0055-.03.5681a3.7736,3.7736,0,0,1-.05.5745.5711.5711,0,0,1-.4712.3365,1.9011,1.9011,0,0,1-.5842.0105l.01.0008-.0392.0009-.0833.0019.0279-.0808a1.2443,1.2443,0,0,0-.1779-1.1329,1.2217,1.2217,0,0,0-1.0047-.4925,1.1869,1.1869,0,0,0-1.0952,1.5948l.0741.2009-.2155.0013q-3.477.02-6.9538-.0128l-.1937-.0016.0657-.1789a1.1754,1.1754,0,0,0-1.0919-1.573,1.2033,1.2033,0,0,0-1.15,1.5944l.0391.1127-.1079-.0153a1.7149,1.7149,0,0,1-.5674-.2273c-.0745-.0549-.1978-.0847-.2336-.2445.0007-.1459.0727-.2124.0871-.2975a.3146.3146,0,0,0-.0334-.2379.9539.9539,0,0,0-.0717-.1163l-.0424-.0615a.1462.1462,0,0,1-.0254-.102.7081.7081,0,0,1,.3044-.5276l-.0224.0409c.0476-.3326.0807-.6645.1336-.9973.0433-.1536.0382-.3615.24-.4674a.2272.2272,0,0,0,.0455-.0229.2.2,0,0,1,.0713-.0337c-.0175.019.0223-.0442.0316-.0742a2.0524,2.0524,0,0,1,.1107-.2293,7.1524,7.1524,0,0,1,.5659-.8334,1.552,1.552,0,0,1,.3746-.3644,1.7652,1.7652,0,0,1,.51-.127,26.2419,26.2419,0,0,1,3.9975-.1533l.9987.0136a3.9,3.9,0,0,1,1.0263.0877,1.2784,1.2784,0,0,1,.47.2677l.3656.3464.7133.6991.3608.3408a1.3862,1.3862,0,0,0,.1767.1405c.0461.01.1569.0089.2321.0139a7.4627,7.4627,0,0,1,.9972.1058A3.2764,3.2764,0,0,1,63.0942,8.7261Z"/><path class="cls-1" d="M51.638,7.826a.2763.2763,0,0,1-.1559-.0988.1707.1707,0,0,1,.0137-.1881l.1776-.3026a6.232,6.232,0,0,1,.3654-.596l.0361-.0488.067-.0042a7.9875,7.9875,0,0,1,1.0258.04,5.9042,5.9042,0,0,0,1.0247-.02l.0606-.0054.0075.0705c.0434.4163.0915.8325.107,1.2494l.0055.1483h-.1573a12.3869,12.3869,0,0,1-1.2984-.0638C52.487,7.9561,52.0683,7.8431,51.638,7.826Zm.0046-.0295c.43.0212.8722-.0534,1.3025-.0664a12.0962,12.0962,0,0,1,1.2836.051l-.1516.1483c-.0035-.4172.0256-.8351.05-1.253l.0679.065a5.9034,5.9034,0,0,0-1.0245.0253,8.007,8.007,0,0,1-1.0231.0852l.1028-.0529a6.2314,6.2314,0,0,1-.4691.5185l-.2392.255a.1164.1164,0,0,0-.029.1351A.2482.2482,0,0,0,51.6426,7.7965Z"/><path class="cls-1" d="M54.8229,7.9639c-.06-.39-.1257-.84-.1553-1.2975L54.66,6.5518l.1222-.0072a11.6244,11.6244,0,0,1,1.2946-.0214c.4321.0231.8644.0478,1.2959.0358l.0233-.0007.0146.0188c.39.5043.8417.9611,1.2415,1.458l.1792.2224-.2933-.0023C57.903,8.25,57.26,8.22,56.6293,8.1707,56.0053,8.1111,55.3872,8.0492,54.8229,7.9639Zm.0213-.021c.6727-.03,1.2914-.037,1.9044-.0415.6063.0061,1.2.0308,1.8018.0808l-.114.22c-.38-.5119-.7091-1.0638-1.0992-1.5683l.0378.018c-.4315.0068-.8623.05-1.293.0923a11.6263,11.6263,0,0,1-1.2944.0351l.1147-.1217C54.9051,7.0612,54.8717,7.4722,54.8442,7.9429Z"/><path class="cls-1" d="M59.3519,8.0622a.6263.6263,0,0,1-.2508-.1232,2.0829,2.0829,0,0,1-.2246-.1547,2.5626,2.5626,0,0,1-.4069-.3511c-.2456-.2619-.4067-.6009-.6708-.842l-.0855-.0779.1218-.0042a.7634.7634,0,0,0,.3733-.0959l.0424-.03.0572.0434a9.6391,9.6391,0,0,1,.95.8308,3.43,3.43,0,0,1,.4054.4854l.0917.131.0232.0324.0117.0162.009.0132a.063.063,0,0,1-.016.0765c-.021.0131-.0107.0051-.0175.0086l-.0158.0037-.0836.0057A2.8854,2.8854,0,0,0,59.3519,8.0622Zm-.0072-.0289a1.833,1.833,0,0,0,.3047-.0831l.0694-.03.003-.0027c-.0039.0022.01-.0061-.0087.0048-.0179.005-.03.0583-.0128.0728.015.0183.0077.01.0077.01l-.0165-.0114-.0328-.0228-.1326-.09a3.4378,3.4378,0,0,1-.4919-.3977,9.5923,9.5923,0,0,1-.8445-.9355l.0995.0139a1.3752,1.3752,0,0,1-.4541.0459l.0364-.082c.222.28.5473.4611.7879.72a2.5869,2.5869,0,0,1,.3226.43C59.0771,7.8213,59.1919,7.99,59.3447,8.0333Z"/><path class="cls-1" d="M51.6875,9.3155a.9791.9791,0,0,0-.7726.3988,1.4514,1.4514,0,0,0-.29.7727,1.0559,1.0559,0,0,0,.2579.8042.9888.9888,0,0,0,.8042.3,1.1244,1.1244,0,0,0,1.0272-1.1046,1.27,1.27,0,0,0-.2578-.7694A.9776.9776,0,0,0,51.6875,9.3155Zm0-.03a1.4542,1.4542,0,0,1,.9085.293,1.1645,1.1645,0,0,1,.4372.9084,1.2668,1.2668,0,0,1-1.3457,1.268,1.433,1.433,0,0,1-.8726-.3953,1.3225,1.3225,0,0,1-.4379-.8727,1.08,1.08,0,0,1,.4054-.9052A1.4555,1.4555,0,0,1,51.6875,9.2856Z"/><path class="cls-1" d="M61.098,9.2655a1.0053,1.0053,0,0,0-.7913.4066,1.4737,1.4737,0,0,0-.2972.7913,1.08,1.08,0,0,0,.2656.8228,1.0141,1.0141,0,0,0,.8229.3081,1.1507,1.1507,0,0,0,1.0535-1.1308,1.2963,1.2963,0,0,0-.2653-.7882A1.0042,1.0042,0,0,0,61.098,9.2655Zm0-.03a1.48,1.48,0,0,1,.9271.3008,1.19,1.19,0,0,1,.4449.9271,1.2931,1.2931,0,0,1-1.372,1.2942,1.457,1.457,0,0,1-.8913-.4031,1.3459,1.3459,0,0,1-.4458-.8911,1.1064,1.1064,0,0,1,.4133-.9239A1.4808,1.4808,0,0,1,61.098,9.2356Z"/><path class="cls-1" d="M26.43,60.8471l.5011-.05-.0606.0606a26.5818,26.5818,0,0,1-.0509-2.86c.0237-.4767.06-.9533.0628-1.43.0073-.4767-.0093-.9534-.0329-1.43l.0816.0817-.5116.0264.1081-.1081c.0376.9418.0539,1.8629.0323,2.802-.0017.4652-.0336.9468-.0476,1.4251Zm-.0212.0212-.0823-1.3776c-.014-.475-.046-.9469-.0476-1.435-.0216-.9677-.0053-1.9534.0323-2.9183l.0044-.1136.1039.0054.5116.0264.0857.0044-.0039.0774c-.0236.4767-.04.9534-.0328,1.43.0032.4767.0389.9533.0627,1.43a26.5818,26.5818,0,0,1-.0509,2.86l-.0042.0662-.0566-.0054Z"/><path class="cls-1" d="M27.0394,54.8869l.0654,6.3922-.0759-.0759,6.93-.029.1045,0,0,.1055.0028.6421-.1076-.1076,1.0385-.0044.1117,0,0,.1125.0015.3311-.1134-.1134,2.2881-.01-.1229.1229-.0041-.9733-.0006-.1266.1276-.0005.9031-.0038.1306-.0005,0,.1314.0023,1.1539-.1331-.133,14.9933.0649-.0681.0681.0054-1.1539,0-.0632.0625,0,2.1676.01.053,0v.0527l-.0009.19,0,.0522-.0517,0-.4515-.0021.05-.05-.0033.7427-.0464-.0464.4515.0013h.045l0,.0451.0007.2-.0458-.0458.4184-.0016h.0328l.0115.0306a.9829.9829,0,0,0,1.8359-.0033l.0133-.0361h.0395l2.7336-.01.0459,0,.016.0428a.9641.9641,0,0,0,1.8007-.0033l.0176-.0482.0528,0,.3582-.0013-.0767.0767-.0007-.2,0-.0773.0778,0,.4515-.0017-.079.0791-.0028-.7427.0818.0817-.4515.0024-.0838,0,0-.0846-.0011-.19,0-.0848.0857,0,1.9735-.01-.09.0638.1724-.5026.0225-.0654.07,0,.38-.002.1-.0005.0005.1006.0014.2558-.1014-.1013.4665-.0024-.1036.1037-.0057-1.0988.1093.1094-.4665.0025.1118-.1119.0006.12.0006.112-.1131.0006-.1815.0009-.11.0006-.0038-.112a9.3254,9.3254,0,0,0-.6977-3.4106,3.7333,3.7333,0,0,0-.9837-1.37,1.3821,1.3821,0,0,0-.7524-.2622l-.8839-.0009-.1366,0,0-.1365,0-.6773.137.1371-3.944.0028.14-.14,0,.6773,0,.14-.1407,0-.6321,0H56.925l0-.1411,0-.8429.1414.1415-9.6041.0071.1486-.1486.0005.8429,0,.15-.1494-.001Zm-.0211-.0211,20.4432-.1386-.1492.1491.0006-.8429,0-.1487h.1485l9.6041.007h.1416v.1415l-.0007.8429-.1408-.1409.6321.0005-.14.14.0006-.6773v-.14h.14l3.944.0029h.1372l0,.137,0,.6773-.1364-.1365.8915.0023a1.6528,1.6528,0,0,1,.9006.3128,3.8676,3.8676,0,0,1,1.0689,1.4843,9.561,9.561,0,0,1,.6835,3.5135l-.1134-.1113.1815.0009-.1124.1124.0006-.12.0006-.1125.1113.0006.4665.0024.11.0006-.0006.1089-.0056,1.0988-.0006.1044-.1034-.0005-.4665-.0024-.1019-.0006,0-.1009.0013-.2558.1.1-.38-.002.0925-.0657-.1777.5008-.0229.0644-.0672,0-1.9735-.01.085-.085-.001.19-.084-.0841.4515.0023.0821,0,0,.0815-.0027.7427,0,.0794-.0788,0L62.726,62.29l.0773-.0774-.0008.2v.077l-.0765,0-.3582-.0013.07-.0483a1.1059,1.1059,0,0,1-2.0654-.0033l.062.0425-2.7336-.01.0526-.0361a1.0868,1.0868,0,0,1-2.03-.0033l.0442.03L55.35,62.459h-.046v-.0458l.0007-.2.0451.0451-.4515.0012h-.0462l0-.0465-.0034-.7427,0-.05.05,0,.4515-.0021-.0519.0519-.0009-.19.0528.0527-2.1676.01.0627-.0627.0054,1.1539,0,.0679-.0685,0-14.9933.0649-.1334.0006,0-.1337.0024-1.1539.1306.1307-.9031-.0038.127-.1269-.0041.9733,0,.1235-.1224-.0005-2.2881-.01-.1139-.0005,0-.1129.0014-.3311.1118.1119-1.0385-.0043-.1081-.0005,0-.1072.0028-.6421.1048.1049-6.93-.029-.0768,0,.0008-.0757Z"/><path class="cls-1" d="M61.6219,58.79a2.1947,2.1947,0,0,0-.3279.0241.18.18,0,0,1-.2026-.0576.6183.6183,0,0,1-.049-.194,2.4267,2.4267,0,0,1-.0306-.6556c.0215-.2185.0649-.437.0758-.6556.006-.1092.0008-.2185-.0041-.3278a1.4818,1.4818,0,0,0-.0116-.1639.1736.1736,0,0,1,.1637-.1888c.1093-.012.2185-.03.3278-.0367a.3917.3917,0,0,1,.1107,0,.2282.2282,0,0,1,.1494.105c.0615.15.0236.1616.0383.2263.01.2185.0229.4371.0189.6556a3.7382,3.7382,0,0,1-.061.6556l-.0568.3278c-.0108.0546-.013.1093-.0194.1639A.1206.1206,0,0,1,61.6219,58.79Zm0-.03c.1176-.0082.0679-.1533.058-.2561l-.0567-.3278a3.719,3.719,0,0,1-.0609-.6556c-.0041-.2185.0084-.4371.0186-.6556.0048-.0426,0-.1465.013-.0971.0107.0149.0545.0076-.03.003-.1093-.0066-.2185-.0247-.3278-.0367-.0095-.0045-.03-.0052-.0353.0254a1.4818,1.4818,0,0,0-.0116.1639c-.0049.1093-.01.2186-.0043.3278.0111.2186.0545.4371.076.6556a2.4308,2.4308,0,0,1-.0306.6556c-.0113.134-.0729.1561.0642.1735A2.1947,2.1947,0,0,0,61.6219,58.76Z"/><path class="cls-1" d="M56.71,56.7522a.1161.1161,0,0,1,.1-.1157l.1457-.0042c.096-.0061.1917-.0078.2875-.0186l.5749-.0547a7.6055,7.6055,0,0,1,1.15-.03c.048,0,.0959.0061.1438.0088l.0718.0052a.2108.2108,0,0,1,.1324.0506.2321.2321,0,0,1,.0655.2136l-.0108.1437c-.0167.1917-.0289.3833-.0315.575a11.1779,11.1779,0,0,0,.03,1.15.1869.1869,0,0,1-.1573.19l-.1551.0116-.2875.0166-.5749.0219c-.3833.0111-.7666.0231-1.15.0136l-.1437-.0015-.0719-.0007a.2553.2553,0,0,1-.1617-.0564.25.25,0,0,1-.0887-.1529.6221.6221,0,0,1-.003-.097l.0075-.1437c.0125-.1917.02-.3833.0439-.5749A11.1408,11.1408,0,0,0,56.71,56.7522Zm.03,0a11.1692,11.1692,0,0,0,.0834,1.15c.0234.1916.0312.3832.0438.5749,0,.0723.026.2641-.01.1587a.0646.0646,0,0,0-.0281-.0122l.0719-.0007.1437-.0015c.3833-.0095.7666.0025,1.15.0135l.5749.022.2875.0166.1322.01c.0037.0034.0133.0013.0168-.0076a11.1752,11.1752,0,0,0,.03-1.15c-.0026-.1917-.0148-.3833-.0315-.575-.0064-.0769-.0163-.247-.02-.1949-.0025.0019.0063.005-.0012.0063l-.0718.0053c-.0479.0027-.0958.0087-.1438.0088a7.6055,7.6055,0,0,1-1.15-.03l-.5749-.0547c-.0958-.0108-.1915-.0125-.2875-.0186C56.8645,56.67,56.7428,56.6484,56.74,56.7522Z"/><path class="cls-1" d="M49.6053,56.7522a.1159.1159,0,0,1,.1-.1157l.1459-.0042c.0958-.0061.1915-.0078.2875-.0186l.5749-.0547a7.6022,7.6022,0,0,1,1.15-.03c.048,0,.096.0061.1438.0088l.0718.0052a.2115.2115,0,0,1,.1326.0506.2318.2318,0,0,1,.0653.2136l-.0108.1437c-.0165.1917-.0289.3833-.0315.575a11.2347,11.2347,0,0,0,.03,1.15.1869.1869,0,0,1-.1573.19l-.1551.0116-.2875.0166-.5749.0219c-.3832.0111-.7665.0231-1.15.0136l-.1437-.0015-.0719-.0007a.2553.2553,0,0,1-.1617-.0564.2506.2506,0,0,1-.0887-.1529.6444.6444,0,0,1-.0029-.097l.0074-.1437c.0127-.1917.02-.3833.0439-.5749A11.1973,11.1973,0,0,0,49.6053,56.7522Zm.03,0a11.1692,11.1692,0,0,0,.0834,1.15c.0234.1916.0312.3832.0439.5749,0,.0723.0259.2641-.01.1587a.0646.0646,0,0,0-.0281-.0122l.0719-.0007.1437-.0015c.3834-.0095.7667.0025,1.15.0135l.5749.022.2875.0166.1324.01c.0035.0034.0131.0013.0166-.0076a11.1752,11.1752,0,0,0,.03-1.15c-.0026-.1917-.0148-.3833-.0313-.575-.0064-.0769-.0163-.247-.02-.1949-.0025.0019.0061.005-.0014.0063l-.0718.0053c-.0478.0027-.0958.0087-.1438.0088a7.6022,7.6022,0,0,1-1.15-.03l-.5749-.0547c-.096-.0108-.1917-.0125-.2875-.0186C49.7592,56.67,49.6375,56.6484,49.635,56.7522Z"/><path class="cls-1" d="M45.4505,56.7522a.1159.1159,0,0,1,.1-.1157l.1459-.0042c.0958-.0061.1916-.0078.2875-.0186l.5748-.0547a7.6051,7.6051,0,0,1,1.15-.03c.0479,0,.0959.0061.1437.0088l.0719.0052a.2115.2115,0,0,1,.1325.0506.2318.2318,0,0,1,.0653.2136l-.0108.1437c-.0165.1917-.0289.3833-.0315.575a11.2347,11.2347,0,0,0,.03,1.15.1869.1869,0,0,1-.1573.19l-.1551.0116-.2874.0166-.575.0219c-.3832.0111-.7666.0231-1.15.0136l-.1437-.0015-.0719-.0007a.2548.2548,0,0,1-.1616-.0564.2507.2507,0,0,1-.0888-.1529.6444.6444,0,0,1-.0029-.097l.0074-.1437c.0127-.1917.02-.3833.0439-.5749A11.1692,11.1692,0,0,0,45.4505,56.7522Zm.03,0a11.1692,11.1692,0,0,0,.0834,1.15c.0235.1916.0312.3832.0439.5749,0,.0723.0259.2641-.01.1587a.0654.0654,0,0,0-.0282-.0122l.0719-.0007.1437-.0015c.3833-.0095.7667.0025,1.15.0135l.575.022.2874.0166.1323.01c.0036.0034.0132.0013.0167-.0076a11.1753,11.1753,0,0,0,.03-1.15c-.0027-.1917-.0149-.3833-.0314-.575-.0064-.0769-.0165-.247-.02-.1949-.0023.0019.0063.005-.0011.0063l-.0719.0053c-.0478.0027-.0958.0087-.1437.0088a7.6051,7.6051,0,0,1-1.15-.03l-.5748-.0547c-.0959-.0108-.1917-.0125-.2875-.0186C45.6044,56.67,45.4827,56.6484,45.48,56.7522Z"/><path class="cls-1" d="M38.4956,56.7522a.1162.1162,0,0,1,.1-.1157l.1458-.0042c.0959-.0061.1917-.0078.2874-.0186l.575-.0547a7.6051,7.6051,0,0,1,1.15-.03c.0479,0,.0957.0061.1437.0088l.0719.0052a.2105.2105,0,0,1,.1323.0506.2318.2318,0,0,1,.0655.2136l-.011.1437c-.0164.1917-.0287.3833-.0313.575a11.1779,11.1779,0,0,0,.03,1.15.187.187,0,0,1-.1573.19l-.1551.0116-.2874.0166-.575.0219c-.3832.0111-.7666.0231-1.15.0136l-.1437-.0015-.0719-.0007a.2548.2548,0,0,1-.1616-.0564.2507.2507,0,0,1-.0888-.1529.6037.6037,0,0,1-.0029-.097l.0074-.1437c.0125-.1917.02-.3833.0439-.5749A11.113,11.113,0,0,0,38.4956,56.7522Zm.03,0a11.0857,11.0857,0,0,0,.0834,1.15c.0235.1916.0312.3832.0439.5749,0,.0723.0259.2641-.01.1587a.0654.0654,0,0,0-.0282-.0122l.0719-.0007.1437-.0015c.3833-.0095.7667.0025,1.15.0135l.575.022.2874.0166.1323.01c.0036.0034.0131.0013.0167-.0076a11.2037,11.2037,0,0,0,.03-1.15c-.0027-.1917-.0151-.3833-.0315-.575-.0065-.0769-.0164-.247-.02-.1949-.0024.0019.0063.005-.0011.0063l-.0719.0053c-.048.0027-.0958.0087-.1437.0088a7.6051,7.6051,0,0,1-1.15-.03l-.575-.0547c-.0957-.0108-.1915-.0125-.2874-.0186C38.65,56.67,38.528,56.6484,38.5255,56.7522Z"/><path class="cls-1" d="M34.9129,56.7522a.1161.1161,0,0,1,.1-.1157l.1458-.0042c.0959-.0061.1917-.0078.2875-.0186l.5749-.0547a7.6055,7.6055,0,0,1,1.15-.03c.048,0,.0958.0061.1437.0088l.0719.0052a.211.211,0,0,1,.1324.0506.2319.2319,0,0,1,.0654.2136l-.0109.1437c-.0165.1917-.0287.3833-.0313.575a11.1779,11.1779,0,0,0,.03,1.15.187.187,0,0,1-.1573.19l-.1551.0116-.2875.0166-.5749.0219c-.3833.0111-.7667.0231-1.15.0136l-.1437-.0015-.0719-.0007a.2551.2551,0,0,1-.1617-.0564.2507.2507,0,0,1-.0888-.1529.6167.6167,0,0,1-.0029-.097l.0075-.1437c.0125-.1917.02-.3833.0438-.5749A11.141,11.141,0,0,0,34.9129,56.7522Zm.03,0a11.0855,11.0855,0,0,0,.0833,1.15c.0235.1916.0312.3832.0439.5749,0,.0723.026.2641-.01.1587a.0646.0646,0,0,0-.0281-.0122l.0719-.0007.1437-.0015c.3832-.0095.7666.0025,1.15.0135l.5749.022.2875.0166.1322.01c.0037.0034.0133.0013.0168-.0076a11.232,11.232,0,0,0,.03-1.15c-.0026-.1917-.015-.3833-.0315-.575-.0064-.0769-.0163-.247-.02-.1949-.0025.0019.0062.005-.0012.0063l-.0719.0053c-.0479.0027-.0957.0087-.1437.0088a7.6055,7.6055,0,0,1-1.15-.03l-.5749-.0547c-.0958-.0108-.1916-.0125-.2875-.0186C35.067,56.67,34.9452,56.6484,34.9428,56.7522Z"/><path class="cls-1" d="M27.898,56.7522a.1161.1161,0,0,1,.1-.1157l.1458-.0042c.0959-.0061.1916-.0078.2875-.0186l.5749-.0547a7.6048,7.6048,0,0,1,1.15-.03c.0479,0,.0958.0061.1437.0088l.0719.0052a.2112.2112,0,0,1,.1324.0506.2318.2318,0,0,1,.0653.2136l-.0108.1437c-.0165.1917-.0288.3833-.0314.575a11.2063,11.2063,0,0,0,.03,1.15.187.187,0,0,1-.1573.19l-.1551.0116-.2875.0166-.5749.0219c-.3833.0111-.7666.0231-1.15.0136l-.1437-.0015-.0719-.0007a.2551.2551,0,0,1-.1617-.0564.2506.2506,0,0,1-.0887-.1529.6359.6359,0,0,1-.003-.097l.0075-.1437c.0126-.1917.02-.3833.0439-.5749A11.141,11.141,0,0,0,27.898,56.7522Zm.03,0a11.0855,11.0855,0,0,0,.0833,1.15c.0235.1916.0312.3832.0438.5749,0,.0723.026.2641-.01.1587a.0651.0651,0,0,0-.0281-.0122l.0719-.0007.1437-.0015c.3833-.0095.7666.0025,1.15.0135l.5749.022.2875.0166.1323.01c.0036.0034.0131.0013.0167-.0076a11.2036,11.2036,0,0,0,.03-1.15c-.0025-.1917-.0149-.3833-.0314-.575-.0064-.0769-.0163-.247-.02-.1949-.0025.0019.0062.005-.0012.0063l-.0719.0053c-.0479.0027-.0958.0087-.1437.0088a7.6048,7.6048,0,0,1-1.15-.03l-.5749-.0547c-.0959-.0108-.1916-.0125-.2875-.0186C28.052,56.67,27.93,56.6484,27.9279,56.7522Z"/><path class="cls-1" d="M22.4374,61.4846l-.4515.0064.0212-.0212.0108.7427-.032-.0321.4514-.0177.0478-.0018.0021.0517.0079.2-.0576-.0576.3581-.014.0468-.0019.02.0478a.96.96,0,0,0,.8995.5734.94.94,0,0,0,.8439-.5948l.0339-.0844.0887,0c.6664.0013,1.3328.02,1.9992.0432.6663.0258,1.3326.0365,1.999.0423l.032,0,.0108.0292a.984.984,0,0,0,.9236.6255.9683.9683,0,0,0,.8852-.64l.0185-.0543.0627-.0015.3432-.0082-.0951.0951-.0048-.2-.0024-.0976.1024-.0025.4515-.0108-.1107.1108-.0178-.7427.1285.1285Q29.2,61.64,26.9459,61.62q-1.1271-.0189-2.2542-.0729C23.94,61.51,23.1888,61.4919,22.4374,61.4846Zm0-.03c.7514-.0073,1.5028-.0253,2.2543-.062s1.5028-.06,2.2542-.0729q2.2543-.02,4.5085.0212l.1317.0025-.003.1262-.0178.7427-.0027.1134-.1082-.0026-.4515-.0108.1-.1-.0048.2-.0024.0975-.0929-.0023L30.66,62.5l.0812-.0557a1.111,1.111,0,0,1-1.0476.6893,1.0956,1.0956,0,0,1-1.0091-.7041l.0427.0293c-.6664.0058-1.3327.0166-1.999.0424-.6664.0229-1.3328.0419-1.9992.0432l.1226-.0841a1.1421,1.1421,0,0,1-1.0891.7348,1.12,1.12,0,0,1-1.0334-.7562l.0669.0458-.3581-.014-.06-.0024.0021-.0553.0079-.2.05.05-.4514-.0177-.0326-.0013,0-.0308.0108-.7427,0-.0216.021,0Z"/><path class="cls-1" d="M23.2727,108.3442a.44.44,0,0,0,.3765-.2347,1.13,1.13,0,0,0,.1254-.3765.4942.4942,0,0,0-.0934-.4085.4438.4438,0,0,0-.4085-.1358.5629.5629,0,0,0-.4669.5443.758.758,0,0,0,.0936.3733A.4388.4388,0,0,0,23.2727,108.3442Zm0,.03a.9156.9156,0,0,1-.5122-.1289.6165.6165,0,0,1-.2732-.5122.7048.7048,0,0,1,.7854-.7078.8977.8977,0,0,1,.477.2308.7576.7576,0,0,1,.2734.477.547.547,0,0,1-.2414.509A.9191.9191,0,0,1,23.2727,108.3741Z"/><path class="cls-1" d="M25.0133,110.6478l-.9925-.4144-.0119-.0049-.0033-.0132c-.1042-.4113-.2186-.82-.3341-1.2277a.4712.4712,0,0,0-.3481-.4055.9209.9209,0,0,0-.559.1141l.0145-.0094q-.62.53-1.2549,1.0426l.0437-.07-.2053.9456-.11.4712c-.0221.0926-.0332.1272-.017.1705a.1623.1623,0,0,0,.0872.0978.1648.1648,0,0,0,.222-.1005l.116-.4609.2353-.9408.0092-.0369.029-.0181.356-.2218.1672-.1042-.0459.1875q-.3619,1.48-.6771,2.9708l-.0018.0082-.0049.0078-.9084,1.4575.0035-.0062a.3529.3529,0,0,0-.0008.2965.34.34,0,0,0,.2423.1572.3242.3242,0,0,0,.2644-.1094,2.3874,2.3874,0,0,0,.1948-.2956l.7845-1.2718-.0164.04.2276-1.1234.0545-.2692.184.2081.8917,1.0085.0223.0253.0092.0341.3153,1.1767.0753.2949.0373.1474.0093.0368c.0006-.0247-.0029-.0213.0007-.0139a.2273.2273,0,0,0,.018.0393c.0551.1084.1807.1259.3215.07.1095-.0453.1463-.1575.0923-.3275l-.1511-.5745-.2944-1.1512.03.0557-1.016-1.22-.0363-.0436.0138-.0492.3134-1.1113.0783-.278.0524.28.09.4829-.0321-.0378,1.043.4473.13.0574.0328.0155c.0078.0055.0048-.0017.0256.0167a.0469.0469,0,0,1,.01.0295c.0094-.0046-.0081-.036-.0017-.0231a.2112.2112,0,0,0,.0549.0233.2239.2239,0,0,0,.2372-.0564.2812.2812,0,0,0,.0673-.2442A.3065.3065,0,0,0,25.0133,110.6478Zm.0109-.0278a.3389.3389,0,0,1,.2088.2.32.32,0,0,1-.07.2831.27.27,0,0,1-.2825.0758.2315.2315,0,0,1-.0748-.0319c.0005.01-.0186-.0274-.013-.0362a.0173.0173,0,0,0-.0049.02c.0112.0115-.0059.0006-.0059.0006l-.0316-.014-.1305-.0538c-.3495-.1428-.7049-.2726-1.06-.4013l-.0251-.009-.0071-.0289-.1183-.4768.1307.0019-.2432,1.1286-.0223-.0926,1.0709,1.1725.02.0224.0093.0335.3176,1.1469.155.5746.0194.0718a.5353.5353,0,0,1,.0151.1029.5953.5953,0,0,1-.0211.1986.4859.4859,0,0,1-.2748.3129.6458.6458,0,0,1-.3854.0492.5.5,0,0,1-.336-.2459.5146.5146,0,0,1-.0438-.0957.2911.2911,0,0,1-.0173-.0858l-.0095-.035-.0381-.14-.0752-.28-.287-1.124.0314.0591L22.55,111.9l.2384-.0612-.2591,1.1165-.0054.0233-.0111.0167-.8306,1.2465a2.2214,2.2214,0,0,1-.23.3176.4636.4636,0,0,1-.7515-.5335l.0013-.0028.0023-.0035.9417-1.4363-.0065.0158q.3315-1.4868.6169-2.9838l.1213.0833-.3454.2381.038-.0547-.1925.9485-.0994.4834a.4115.4115,0,0,1-.785.0133.5214.5214,0,0,1,.0063-.3052l.1038-.4736.2224-.9437.01-.0436.0336-.0262q.6427-.502,1.2979-.9886l.01-.0077.0043-.0018a1.07,1.07,0,0,1,.6742-.0924.5952.5952,0,0,1,.4168.5159c.09.4159.1817.8309.2833,1.2434l-.015-.018Z"/><path class="cls-1" d="M61.1535,103.1245a.2389.2389,0,0,0-.2135-.2348l-.3693.0008-.7423.0044-.0236,0,0-.0239-.0039-.6706.0276.0276-6.5425.093.1206-.1206.0052.6706.0009.1249-.1268.001-.6722.0051-.3362.0026a.3721.3721,0,0,0-.12.0081.1176.1176,0,0,0-.0607.0488.1367.1367,0,0,0-.0186.0907l-.0008.168-.0013.3361-.0028.6722-.0237,2.6887-.0519,5.3774c-.0147.8962.0017,1.7924.0055,2.6887l.01,1.3443a1.7393,1.7393,0,0,0,.0134.3109.1861.1861,0,0,0,.1978.1194l.6722-.0047,1.3444-.0114.6721-.0068.3362-.0033c.1273.0057.1593-.0134.206-.0763.0355-.0416.0148-.1611.0189-.2762l-.0033-.3361-.0067-.6721-.0069-.6722c.0016-.1216-.0082-.2028.0026-.3575a.3809.3809,0,0,1,.3464-.3154l1.3531-.01a1.37,1.37,0,0,1,.1924.0056.3925.3925,0,0,1,.3228.36l.0019.177.0032.6721.0061,1.3444a.1023.1023,0,0,0,.0777.1.8934.8934,0,0,0,.13.0027l.1681-.0008.6722-.0031,1.3443,0,.6722.0012.1665,0a.0989.0989,0,0,0,.06-.0211c.0381-.0368.04-.0437.0376-.1856l.0048-2.6887C61.05,110.2944,61.1456,106.7094,61.1535,103.1245Zm.03,0c.0079,3.5849.1038,7.17.1348,10.7548l.0049,2.6887a.4857.4857,0,0,1-.1531.428.41.41,0,0,1-.2506.09l-.17,0-.6722.0012-1.3443,0-.6722-.0031-.1681-.0008a.8821.8821,0,0,1-.2048-.0136.4061.4061,0,0,1-.3035-.3942l.0063-1.3444.003-.6721,0-.1591a.1092.1092,0,0,0-.0277-.0681c-.0351-.0432-.0708-.04-.2074-.04l-1.3355-.0087a.126.126,0,0,0-.1169.1017c-.0055.0684-.0035.212-.0057.3143l-.0067.6722-.0067.6721-.0033.3361-.0018.1681a.38.38,0,0,1-.0538.2141.391.391,0,0,1-.38.167l-.3362-.0033-.6721-.0068-1.3444-.0114-.6722-.0047a.33.33,0,0,1-.3291-.2168,1.5292,1.5292,0,0,1-.0168-.3578l.01-1.3443c.0038-.8963.02-1.7925.0057-2.6887l-.0521-5.3774-.0236-2.6887-.0028-.6722-.0013-.3361-.0007-.168a.4085.4085,0,0,1,.0573-.2311.385.385,0,0,1,.1946-.16.3718.3718,0,0,1,.1257-.024l.0868,0,.3362.0025.6722.0052-.1258.1258.0051-.6706.001-.1224.12.0017,6.5425.0931.0278,0v.0272l-.004.6706-.0236-.0236.7423.0043.3729.0037A.2711.2711,0,0,1,61.1834,103.1245Z"/><path class="cls-1" d="M54.1143,113.4567a4.5157,4.5157,0,0,0-.7311.0788c-.0609.0089-.1219.02-.1827.0248a.4038.4038,0,0,1-.2361-.0259.3622.3622,0,0,1-.1885-.196.4777.4777,0,0,1-.0216-.2317c.0214-.2437.0649-.4874.076-.731.0071-.1248-.0021-.2372-.0015-.372a.3315.3315,0,0,1,.3031-.2963c.2437-.0287.4873-.05.7309-.0586a1.0668,1.0668,0,0,1,.43.0259.3957.3957,0,0,1,.202.2077.4138.4138,0,0,1,.0321.1447l0,.0972a4.61,4.61,0,0,1-.061.731l-.0593.3706A.3006.3006,0,0,1,54.1143,113.4567Zm0-.03a.21.21,0,0,0,.21-.2114l-.0548-.36a4.6221,4.6221,0,0,1-.0609-.731c.0128-.2131-.0408-.1764-.3455-.1947-.2436-.0088-.4872-.03-.7309-.0587a.1777.1777,0,0,0-.199.146,3.1188,3.1188,0,0,0-.0058.3588c.0109.2436.0543.4873.0758.731-.0037.2317.0854.1963.38.2414A4.5046,4.5046,0,0,0,54.1143,113.4269Z"/><path class="cls-1" d="M54.1143,110.7805a4.5157,4.5157,0,0,0-.7311.0788c-.0609.0089-.1219.02-.1827.0248a.4038.4038,0,0,1-.2361-.0259.3622.3622,0,0,1-.1885-.196.4777.4777,0,0,1-.0216-.2317c.0214-.2437.0649-.4874.076-.731.0071-.1247-.0021-.2372-.0015-.372a.3315.3315,0,0,1,.3031-.2963c.2437-.0287.4873-.05.7309-.0586a1.0686,1.0686,0,0,1,.43.0259.3957.3957,0,0,1,.202.2077.4138.4138,0,0,1,.0321.1447l0,.0972a4.61,4.61,0,0,1-.061.731l-.0593.3706A.3006.3006,0,0,1,54.1143,110.7805Zm0-.03a.21.21,0,0,0,.21-.2114l-.0548-.36a4.6221,4.6221,0,0,1-.0609-.731c.0128-.2131-.0408-.1764-.3455-.1947-.2436-.0088-.4872-.03-.7309-.0587a.1777.1777,0,0,0-.199.146,3.1188,3.1188,0,0,0-.0058.3588c.0109.2436.0543.4873.0758.731-.0037.2317.0854.1963.38.2414A4.5046,4.5046,0,0,0,54.1143,110.7507Z"/><path class="cls-1" d="M54.1143,108.1043a4.5046,4.5046,0,0,0-.7311.0788c-.0609.0088-.1217.02-.1827.0247a.4045.4045,0,0,1-.2361-.0258.3624.3624,0,0,1-.1885-.1961.4775.4775,0,0,1-.0216-.2317c.0214-.2437.0649-.4873.076-.731.0071-.1247-.0021-.2371-.0015-.372a.3314.3314,0,0,1,.3031-.2962c.2437-.0287.4873-.05.7309-.0587a1.0681,1.0681,0,0,1,.4295.0259.3963.3963,0,0,1,.2021.2077.4138.4138,0,0,1,.0321.1447l0,.0973a4.6092,4.6092,0,0,1-.061.7309l-.0593.3707A.3007.3007,0,0,1,54.1143,108.1043Zm0-.03a.21.21,0,0,0,.21-.2114l-.0548-.36a4.6208,4.6208,0,0,1-.0609-.7309c.0128-.2131-.0408-.1765-.3455-.1948-.2436-.0087-.4872-.03-.7309-.0587a.1777.1777,0,0,0-.199.146,3.12,3.12,0,0,0-.0058.3588c.0109.2437.0543.4873.0758.731-.0037.2318.0854.1964.38.2415A4.5044,4.5044,0,0,0,54.1143,108.0744Z"/><path class="cls-1" d="M54.1143,105.4281a4.5046,4.5046,0,0,0-.7311.0788c-.0609.0088-.1219.02-.1827.0248a.4055.4055,0,0,1-.2361-.0259.3624.3624,0,0,1-.1885-.1961.4776.4776,0,0,1-.0216-.2317c.0214-.2437.0649-.4873.076-.731.0071-.1248-.0021-.2372-.0015-.372a.3314.3314,0,0,1,.3031-.2962c.2437-.0287.4873-.05.731-.0588a1.07,1.07,0,0,1,.4295.026.3957.3957,0,0,1,.202.2077.4138.4138,0,0,1,.0321.1447l0,.0973a4.6092,4.6092,0,0,1-.061.7309l-.0593.3707A.3007.3007,0,0,1,54.1143,105.4281Zm0-.03a.21.21,0,0,0,.21-.2115l-.0548-.36a4.6208,4.6208,0,0,1-.0609-.7309c.0128-.2132-.0408-.1766-.3454-.1948-.2437-.0087-.4873-.03-.731-.0587a.1777.1777,0,0,0-.199.146,3.1188,3.1188,0,0,0-.0058.3588c.0109.2437.0543.4873.0758.731-.0037.2318.0854.1964.38.2415A4.5157,4.5157,0,0,0,54.1143,105.3983Z"/><path class="cls-1" d="M56.07,113.4567a4.5181,4.5181,0,0,0-.7311.0788c-.0609.0089-.1218.02-.1826.0248a.4041.4041,0,0,1-.2362-.0259.3625.3625,0,0,1-.1885-.196.4764.4764,0,0,1-.0216-.2317c.0215-.2437.0649-.4874.0758-.731.0072-.1248-.0018-.2372-.0013-.372a.3314.3314,0,0,1,.3031-.2963c.2436-.0287.4873-.05.7309-.0586a1.0662,1.0662,0,0,1,.4295.0259.395.395,0,0,1,.202.2077.4073.4073,0,0,1,.0322.1447l0,.0972a4.6458,4.6458,0,0,1-.0609.731l-.0594.3706A.3007.3007,0,0,1,56.07,113.4567Zm0-.03a.21.21,0,0,0,.21-.2114l-.0548-.36a4.6341,4.6341,0,0,1-.061-.731c.0128-.2131-.0408-.1764-.3455-.1947-.2436-.0088-.4873-.03-.7309-.0587a.1777.1777,0,0,0-.199.146,3.0964,3.0964,0,0,0-.0058.3588c.0109.2436.0544.4873.0758.731-.0038.2317.0854.1963.38.2414A4.507,4.507,0,0,0,56.07,113.4269Z"/><path class="cls-1" d="M56.07,110.7805a4.5181,4.5181,0,0,0-.7311.0788c-.0609.0089-.1218.02-.1826.0248a.4041.4041,0,0,1-.2362-.0259.3625.3625,0,0,1-.1885-.196.4764.4764,0,0,1-.0216-.2317c.0215-.2437.0649-.4874.0758-.731.0072-.1247-.0018-.2372-.0013-.372a.3314.3314,0,0,1,.3031-.2963c.2436-.0287.4873-.05.7309-.0586a1.068,1.068,0,0,1,.4295.0259.395.395,0,0,1,.202.2077.4073.4073,0,0,1,.0322.1447l0,.0972a4.6458,4.6458,0,0,1-.0609.731l-.0594.3706A.3007.3007,0,0,1,56.07,110.7805Zm0-.03a.21.21,0,0,0,.21-.2114l-.0548-.36a4.6341,4.6341,0,0,1-.061-.731c.0128-.2131-.0408-.1764-.3455-.1947-.2436-.0088-.4873-.03-.7309-.0587a.1777.1777,0,0,0-.199.146,3.0964,3.0964,0,0,0-.0058.3588c.0109.2436.0544.4873.0758.731-.0038.2317.0854.1963.38.2414A4.507,4.507,0,0,0,56.07,110.7507Z"/><path class="cls-1" d="M56.07,108.1043a4.507,4.507,0,0,0-.7311.0788c-.0609.0088-.1218.02-.1826.0247a.4048.4048,0,0,1-.2362-.0258.3627.3627,0,0,1-.1885-.1961.4763.4763,0,0,1-.0216-.2317c.0215-.2437.0649-.4873.0758-.731.0072-.1247-.0018-.2371-.0013-.372a.3313.3313,0,0,1,.3031-.2962c.2436-.0287.4873-.05.7309-.0587a1.068,1.068,0,0,1,.4295.0259.3957.3957,0,0,1,.202.2077.4073.4073,0,0,1,.0322.1447l0,.0973a4.6446,4.6446,0,0,1-.0609.7309l-.0594.3707A.3008.3008,0,0,1,56.07,108.1043Zm0-.03a.21.21,0,0,0,.21-.2114l-.0548-.36a4.6328,4.6328,0,0,1-.061-.7309c.0128-.2131-.0408-.1765-.3455-.1948-.2436-.0087-.4873-.03-.7309-.0587a.1777.1777,0,0,0-.199.146,3.0971,3.0971,0,0,0-.0058.3588c.0109.2437.0544.4873.0758.731-.0038.2318.0854.1964.38.2415A4.5068,4.5068,0,0,0,56.07,108.0744Z"/><path class="cls-1" d="M56.07,105.4281a4.507,4.507,0,0,0-.7311.0788c-.0609.0088-.1218.02-.1828.0248a.4052.4052,0,0,1-.236-.0259.3627.3627,0,0,1-.1885-.1961.4764.4764,0,0,1-.0216-.2317c.0215-.2437.0649-.4873.0758-.731.0072-.1248-.0018-.2372-.0013-.372a.3313.3313,0,0,1,.3031-.2962c.2436-.0287.4873-.05.7309-.0588a1.0708,1.0708,0,0,1,.43.026.3952.3952,0,0,1,.2019.2077.4073.4073,0,0,1,.0322.1447l0,.0973a4.6446,4.6446,0,0,1-.0609.7309l-.0594.3707A.3008.3008,0,0,1,56.07,105.4281Zm0-.03a.21.21,0,0,0,.21-.2115l-.0548-.36a4.6328,4.6328,0,0,1-.061-.7309c.0128-.2132-.0408-.1766-.3455-.1948-.2436-.0087-.4873-.03-.7309-.0587a.1777.1777,0,0,0-.199.146,3.0964,3.0964,0,0,0-.0058.3588c.0109.2437.0544.4873.0758.731-.0038.2318.0854.1964.38.2415A4.5181,4.5181,0,0,0,56.07,105.3983Z"/><path class="cls-1" d="M58.0262,113.4567a4.5133,4.5133,0,0,0-.7309.0788c-.061.0089-.1219.02-.1829.0248a.4036.4036,0,0,1-.236-.0259.3624.3624,0,0,1-.1886-.196.4746.4746,0,0,1-.0214-.2317c.0213-.2437.0648-.4873.0758-.731.0071-.1247-.0021-.2372-.0015-.372a.3315.3315,0,0,1,.3031-.2963c.2437-.0287.4873-.05.7311-.0586a1.0677,1.0677,0,0,1,.4294.0259.3957.3957,0,0,1,.2021.2076.4117.4117,0,0,1,.0322.1447v.0973a4.623,4.623,0,0,1-.0609.731l-.0593.3706A.3009.3009,0,0,1,58.0262,113.4567Zm0-.03a.21.21,0,0,0,.21-.2114l-.0548-.36a4.6232,4.6232,0,0,1-.061-.731c.0129-.2131-.0409-.1764-.3454-.1947-.2438-.0088-.4874-.03-.7311-.0587a.1776.1776,0,0,0-.1989.146,3.1414,3.1414,0,0,0-.0059.3588c.0109.2437.0545.4873.0758.731-.0037.2317.0855.1963.38.2414A4.5021,4.5021,0,0,0,58.0262,113.4269Z"/><path class="cls-1" d="M58.0262,110.7805a4.5133,4.5133,0,0,0-.7309.0788c-.061.0089-.1219.02-.1829.0248a.4036.4036,0,0,1-.236-.0259.3625.3625,0,0,1-.1886-.1959.475.475,0,0,1-.0214-.2318c.0213-.2437.0648-.4873.0758-.731.0071-.1247-.0021-.2372-.0015-.372a.3315.3315,0,0,1,.3031-.2963c.2437-.0287.4873-.05.7311-.0586a1.0677,1.0677,0,0,1,.4294.0259.3957.3957,0,0,1,.2021.2076.4117.4117,0,0,1,.0322.1447v.0973a4.6221,4.6221,0,0,1-.0609.731l-.0593.3706A.3009.3009,0,0,1,58.0262,110.7805Zm0-.03a.21.21,0,0,0,.21-.2114l-.0548-.36a4.6222,4.6222,0,0,1-.061-.731c.0129-.2131-.0409-.1764-.3454-.1947-.2438-.0088-.4874-.03-.7311-.0587a.1776.1776,0,0,0-.1989.146,3.1414,3.1414,0,0,0-.0059.3588c.0109.2437.0545.4873.0758.731-.0037.2317.0855.1963.38.2414A4.5021,4.5021,0,0,0,58.0262,110.7507Z"/><path class="cls-1" d="M58.0262,108.1043a4.5021,4.5021,0,0,0-.7309.0788c-.061.0088-.1219.02-.1829.0247a.4035.4035,0,0,1-.236-.0258.3627.3627,0,0,1-.1886-.196.4749.4749,0,0,1-.0214-.2318c.0213-.2436.0648-.4873.0758-.731.0071-.1247-.0021-.2371-.0015-.372a.3314.3314,0,0,1,.3031-.2962c.2437-.0287.4873-.05.7311-.0587a1.0677,1.0677,0,0,1,.4294.0259.3959.3959,0,0,1,.2021.2077.4111.4111,0,0,1,.0322.1446v.0973a4.6211,4.6211,0,0,1-.0609.731l-.0593.3706A.3011.3011,0,0,1,58.0262,108.1043Zm0-.03a.21.21,0,0,0,.21-.2114l-.0548-.36a4.6212,4.6212,0,0,1-.061-.731c.0129-.213-.0409-.1764-.3454-.1947-.2438-.0087-.4874-.03-.7311-.0587a.1777.1777,0,0,0-.1989.146,3.1418,3.1418,0,0,0-.0059.3588c.0109.2437.0545.4874.0758.731-.0037.2318.0855.1964.38.2415A4.5019,4.5019,0,0,0,58.0262,108.0744Z"/><path class="cls-1" d="M58.0262,105.4281a4.5021,4.5021,0,0,0-.7309.0788c-.061.0088-.1219.02-.1829.0248a.4045.4045,0,0,1-.236-.0259.363.363,0,0,1-.1886-.196.4749.4749,0,0,1-.0214-.2318c.0213-.2436.0648-.4873.0758-.731.0071-.1247-.0021-.2372-.0015-.372a.3314.3314,0,0,1,.3031-.2962c.2437-.0287.4873-.05.7311-.0588a1.07,1.07,0,0,1,.4294.026.3956.3956,0,0,1,.2021.2077.4111.4111,0,0,1,.0322.1446v.0973a4.6211,4.6211,0,0,1-.0609.731l-.0593.3706A.301.301,0,0,1,58.0262,105.4281Zm0-.03a.21.21,0,0,0,.21-.2115l-.0548-.36a4.6212,4.6212,0,0,1-.061-.731c.0129-.2131-.0409-.1765-.3454-.1947-.2438-.0087-.4874-.03-.7311-.0587a.1776.1776,0,0,0-.1989.146,3.1418,3.1418,0,0,0-.0059.3588c.0109.2437.0545.4874.0758.731-.0037.2318.0854.1964.38.2415A4.5133,4.5133,0,0,0,58.0262,105.3983Z"/><path class="cls-1" d="M59.9822,113.4567a4.5181,4.5181,0,0,0-.7311.0788c-.0608.0089-.1217.02-.1826.0248a.4041.4041,0,0,1-.2362-.0259.3625.3625,0,0,1-.1885-.196.4758.4758,0,0,1-.0214-.2317c.0213-.2437.0647-.4874.0758-.731.0071-.1248-.002-.2372-.0015-.372A.3316.3316,0,0,1,59,111.7074c.2438-.0287.4873-.05.7311-.0586a1.0658,1.0658,0,0,1,.4294.0259.3956.3956,0,0,1,.2021.2077.4138.4138,0,0,1,.0321.1447v.0972a4.6221,4.6221,0,0,1-.0609.731l-.0594.3706A.3006.3006,0,0,1,59.9822,113.4567Zm0-.03a.2106.2106,0,0,0,.21-.2114l-.0549-.36a4.6341,4.6341,0,0,1-.061-.731c.0129-.2131-.0408-.1764-.3453-.1947-.2438-.0088-.4873-.03-.7311-.0587a.1775.1775,0,0,0-.1988.146,3.1176,3.1176,0,0,0-.006.3588c.0109.2436.0545.4873.0758.731-.0036.2317.0854.1963.38.2414A4.507,4.507,0,0,0,59.9822,113.4269Z"/><path class="cls-1" d="M59.9822,110.7805a4.5181,4.5181,0,0,0-.7311.0788c-.0608.0089-.1217.02-.1826.0248a.4041.4041,0,0,1-.2362-.0259.3625.3625,0,0,1-.1885-.196.4758.4758,0,0,1-.0214-.2317c.0213-.2437.0647-.4874.0758-.731.0071-.1247-.002-.2372-.0015-.372A.3316.3316,0,0,1,59,109.0312c.2438-.0287.4873-.05.7311-.0586a1.0676,1.0676,0,0,1,.4294.0259.3956.3956,0,0,1,.2021.2077.4138.4138,0,0,1,.0321.1447v.0972a4.6221,4.6221,0,0,1-.0609.731l-.0594.3706A.3006.3006,0,0,1,59.9822,110.7805Zm0-.03a.2106.2106,0,0,0,.21-.2114l-.0549-.36a4.6341,4.6341,0,0,1-.061-.731c.0129-.2131-.0408-.1764-.3453-.1947-.2438-.0088-.4873-.03-.7311-.0587a.1775.1775,0,0,0-.1988.146,3.1176,3.1176,0,0,0-.006.3588c.0109.2436.0545.4873.0758.731-.0036.2317.0854.1963.38.2414A4.507,4.507,0,0,0,59.9822,110.7507Z"/><path class="cls-1" d="M59.9822,108.1043a4.507,4.507,0,0,0-.7311.0788c-.0608.0088-.1217.02-.1826.0247a.4048.4048,0,0,1-.2362-.0258.3627.3627,0,0,1-.1885-.1961.4757.4757,0,0,1-.0214-.2317c.0213-.2437.0647-.4873.0758-.731.0071-.1247-.002-.2371-.0015-.372A.3315.3315,0,0,1,59,106.355c.2438-.0287.4873-.05.7311-.0587a1.0676,1.0676,0,0,1,.4294.0259.397.397,0,0,1,.2021.2077.4138.4138,0,0,1,.0321.1447v.0973a4.6208,4.6208,0,0,1-.0609.7309l-.0594.3707A.3007.3007,0,0,1,59.9822,108.1043Zm0-.03a.21.21,0,0,0,.21-.2114l-.0549-.36a4.6328,4.6328,0,0,1-.061-.7309c.0129-.2131-.0408-.1765-.3453-.1948-.2438-.0087-.4873-.03-.7311-.0587a.1775.1775,0,0,0-.1988.146,3.1184,3.1184,0,0,0-.006.3588c.0109.2437.0545.4873.0758.731-.0036.2318.0854.1964.38.2415A4.5068,4.5068,0,0,0,59.9822,108.0744Z"/><path class="cls-1" d="M59.9822,105.4281a4.507,4.507,0,0,0-.7311.0788c-.0608.0088-.1217.02-.1826.0248a.4058.4058,0,0,1-.2362-.0259.3627.3627,0,0,1-.1885-.1961.4758.4758,0,0,1-.0214-.2317c.0213-.2437.0647-.4873.0758-.731.0071-.1248-.002-.2372-.0015-.372A.3315.3315,0,0,1,59,103.6788c.2438-.0287.4873-.05.7311-.0588a1.07,1.07,0,0,1,.4294.026.3956.3956,0,0,1,.2021.2077.4138.4138,0,0,1,.0321.1447v.0973a4.6208,4.6208,0,0,1-.0609.7309l-.0594.3707A.3007.3007,0,0,1,59.9822,105.4281Zm0-.03a.2106.2106,0,0,0,.21-.2115l-.0549-.36a4.6328,4.6328,0,0,1-.061-.7309c.0129-.2132-.0408-.1766-.3453-.1948-.2438-.0087-.4873-.03-.7311-.0587a.1775.1775,0,0,0-.1988.146,3.1176,3.1176,0,0,0-.006.3588c.0109.2437.0545.4873.0758.731-.0036.2318.0854.1964.38.2415A4.5181,4.5181,0,0,0,59.9822,105.3983Z"/><path class="cls-1" d="M37.3593,27.9l-1.4015-1.7669.12.0018q-1.7846,2.3319-3.6172,4.6252l-.1028-.2133c2.8.0039,5.6.1185,8.4.0739l8.4-.09-.114.2416q-1.1633-1.3848-2.3046-2.7876l.1187.056c-1.5942.0038-3.1867-.0234-4.7711-.0488C40.5021,27.97,38.92,27.9461,37.3593,27.9Zm.0134-.0267c1.6031-.046,3.1855-.07,4.7644-.0917,1.58-.0254,3.1516-.0527,4.7216-.0489l.0723,0,.0466.0559q1.1563,1.39,2.295,2.7954l.1981.2451-.3121-.0033-8.4-.09c-2.8-.0446-5.6.07-8.4.074l-.2736,0,.1708-.2139q1.8322-2.2936,3.7038-4.5561l.0645-.0776.0559.0794Z"/><path class="cls-1" d="M49.1481,30.8815c-2.851.0568-5.6367.0677-8.4351.099-1.399.02-2.7881.021-4.1782.0131l-4.1767-.043.08-.08c-.0074,1.7286-.0513,3.4572-.025,5.1858l-.0546-.0545,1.9091-.0137-.068.0682-.0331-3.7885-.0009-.1.1022-.0009,3.5421-.0346.1351-.0013.0006.1371.0179,3.7885-.1535-.1535,5.6745.0033,5.6745.0556-.0946.0946Zm.0211-.0211c.0309,1.7021.072,3.443.084,5.1964l.0007.0938-.0953.0009-5.6745.0557-5.6745.0033h-.1544l.0008-.1537.0177-3.7885.1358.1357L34.2674,32.37l.1012-.1012-.033,3.7885-.0006.0688-.0678,0-1.9091-.0136-.0555,0,.0009-.0543c.0262-1.7286-.0177-3.4572-.0251-5.1858l0-.0788.08-.0008,4.2235-.0431c1.41-.0078,2.821-.0067,4.2221.0131C43.6055,30.7927,46.42,30.8037,49.1692,30.86Z"/><path class="cls-1" d="M41.6072,35.3493c-.3213.04-.6946.0783-1.0762.1-.3566.0058-.7113.0319-1.067.0185l-.1315-.005.0025-.1241c.0121-.6131.0977-1.2261.0805-1.8392a1.31,1.31,0,0,1,.2361-.9173,1.1416,1.1416,0,0,1,.8788-.4513,1.2031,1.2031,0,0,1,.9289.4084,1.2982,1.2982,0,0,1,.2838.969C41.7163,34.1523,41.6667,34.79,41.6072,35.3493Zm-.0211-.0211c-.0593-.6667-.1091-1.2552-.1357-1.8374a.9789.9789,0,0,0-.92-1.0852A.9957.9957,0,0,0,39.5126,33.5c-.0172.6131.0683,1.2261.08,1.8392l-.129-.1291c.3553-.0134.7116.0127,1.0658.0185C40.859,35.25,41.1966,35.2881,41.5861,35.3282Z"/><path class="cls-1" d="M44.5147,35.3493c-.3213.04-.6946.0783-1.0762.1-.3566.0058-.7113.0319-1.067.0185l-.1315-.005.0025-.1241c.0121-.6131.0977-1.2261.0805-1.8392a1.3107,1.3107,0,0,1,.2361-.9173,1.1416,1.1416,0,0,1,.8788-.4513,1.2031,1.2031,0,0,1,.9289.4084,1.2982,1.2982,0,0,1,.2838.969C44.6238,34.1523,44.5742,34.79,44.5147,35.3493Zm-.0211-.0211c-.0593-.6667-.109-1.2552-.1357-1.8374a.9789.9789,0,0,0-.92-1.0852A.9956.9956,0,0,0,42.42,33.5c-.0172.6131.0683,1.2261.08,1.8392l-.129-.1291c.3553-.0134.7116.0127,1.0658.0185C43.7665,35.25,44.1041,35.2881,44.4936,35.3282Z"/><path class="cls-1" d="M47.49,35.3493c-.3213.04-.6945.0783-1.0763.1-.3566.0058-.7111.0319-1.0668.0185l-.1316-.005.0025-.1241c.0121-.6131.0976-1.2261.08-1.8392a1.31,1.31,0,0,1,.2362-.9173,1.1415,1.1415,0,0,1,.8787-.4513,1.2038,1.2038,0,0,1,.9291.4084,1.2989,1.2989,0,0,1,.2836.969C47.5992,34.1523,47.55,34.79,47.49,35.3493Zm-.021-.0211c-.0595-.6667-.1092-1.2552-.1359-1.8373a.9788.9788,0,0,0-.92-1.0853A.9954.9954,0,0,0,45.3957,33.5c-.0174.6131.0683,1.2261.08,1.8392l-.129-.1291c.3551-.0134.7114.0127,1.0656.0185C46.7419,35.25,47.08,35.2881,47.4692,35.3282Z"/><path class="cls-1" d="M36.1985,32.3605a13.1362,13.1362,0,0,1,.1084,1.8041c-.01.3218-.0452.6465-.0645.96a7.8242,7.8242,0,0,0,.0132.9318l.0043.0626-.0721.0052-.1944.014-.0744.0054-.0074-.0872a17.8361,17.8361,0,0,1,.0395-3.6857l.0057-.0457.0366.0035C36.0687,32.336,36.1392,32.35,36.1985,32.3605Zm-.0212.0211-.1839.0316.0421-.0421a17.8222,17.8222,0,0,1,.04,3.6857l-.0816-.0816.1944.014-.0676.0676a7.4928,7.4928,0,0,0,.0133-.911c-.0194-.3-.0543-.59-.0646-.8826A16.3962,16.3962,0,0,1,36.1773,32.3816Z"/><path class="cls-3" d="M48.2141,8.3738H45.8257V7.4782h2.3884Zm-4.7768,0H41.0489V7.4782h2.3884Zm-4.7768,0H37.6173V7.4782h1.0432Z"/><path class="cls-3" d="M14.2354,59.2784H13.0423v-.8957h1.1931Zm-3.5815,0H8.2655v-.8957h2.3884Zm-4.7768,0H3.4887v-.8957H5.8771Zm-4.7768,0H0V57.0946H.8957v1.2881H1.1ZM.8957,54.7062H0V52.3178H.8957Zm0-4.7768H0V47.541H.8957Zm74.7868-3.1307H73.2982v-.8956l2.3843-.0041Zm-4.7727,0H68.5214v-.8956H70.91Zm-4.7768,0H63.7445v-.8956H66.133Zm-4.7769,0H58.9677v-.8956h2.3884Zm-4.7768,0H54.1909v-.8956h2.3884Zm-4.7768,0H49.4141v-.8956h2.3884Zm-4.7768,0H44.6373v-.8956h2.3884Zm-4.7768,0H39.8605v-.8956h2.3884Zm-4.7768,0H35.0837v-.8956h2.3884Zm-4.7768,0H30.3069v-.8956h2.3884Zm-4.7768,0H25.53v-.8956h2.3884Zm-4.7768,0H20.7533v-.8956h2.3884Zm-4.7768,0H15.9765v-.8956h2.3884Zm-4.7768,0H11.2v-.8956h2.3884Zm-4.7768,0H6.4229v-.8956H8.8113Zm-4.7768,0H1.6461v-.8956H4.0345Zm71.648-3.2881h-.8957V41.1222h.8957Zm0-4.7768h-.8957V36.3454h.8957Zm0-4.7768h-.8957V33.81H73.441v-.8957h2.2415Zm-4.63-.1469H68.6642v-.8957h2.3884Zm-4.7768,0H63.8874v-.8957h2.3884Zm-4.7768,0H59.1106v-.8957H61.499Zm-4.7768,0H54.3338v-.8957h2.3884Z"/><path class="cls-3" d="M27.7354,84.6913H26.778v-.8957h.9574Zm-3.3458,0H22.0012v-.8957H24.39Zm-4.7768,0H17.2244v-.8957h2.3884Zm-4.7768,0H12.4476v-.8957H14.836Zm-4.7768,0H7.6708v-.8957h2.3884Zm-4.7768,0H2.894v-.8957H5.2824Zm-4.7768,0H.0577L0,84.2435V81.9128H.8957v2.3307H.4764Zm.39-5.1669H0V77.136H.8957Zm0-4.7768H0V72.3592H.8957Zm74.7868-2.5359h-1.79V71.316h.8939v-.5988h.8957Zm-4.178,0H69.1161V71.316h2.3884Zm-4.7768,0H64.3393V71.316h2.3884Zm-4.7768,0H59.5625V71.316h2.3884Zm-4.7768,0H54.7857V71.316h2.3884Zm-4.7768,0H50.0089V71.316h2.3884Zm-4.7768,0H45.2321V71.316h2.3884Zm-4.7768,0H40.4553V71.316h2.3884Zm-4.7768,0H35.6785V71.316h2.3884Zm-4.7768,0H30.9017V71.316H33.29Zm-4.7768,0H26.1249V71.316h2.3884Zm-4.7768,0H21.3481V71.316h2.3884Zm-4.7768,0H16.5713V71.316H18.96Zm-4.7768,0H11.7945V71.316h2.3884Zm-4.7768,0H7.0177V71.316H9.4061Zm-4.7768,0H2.2409V71.316H4.6293Zm71.0532-3.8829h-.8957V65.94h.8957Zm0-4.7768h-.8957V61.1636h.8957Zm-.4479-4.329H72.8462v-.8957h2.3884Zm-4.7768,0H68.0694v-.8957h2.3884Z"/><path class="cls-3" d="M15.43,110.16H13.0417v-.8957H15.43Zm-4.7768,0H8.2649v-.8957h2.3884Zm-4.7768,0H3.4881v-.8957H5.8765Zm-4.7768,0H0v-2.1843H.8957v1.2886H1.1Zm-.204-4.5727H0v-2.3884H.8957Zm0-4.7768H0V98.4223H.8957Zm74.7868-3.13H73.2987v-.8957l2.3838-.0047Zm-4.7722,0H68.5219v-.8957H70.91Zm-4.7768,0H63.7451v-.8957h2.3884Zm-4.7768,0H58.9683v-.8957h2.3884Zm-4.7768,0H54.1915v-.8957H56.58Zm-4.7768,0H49.4147v-.8957h2.3884Zm-4.7768,0H44.6379v-.8957h2.3884Zm-4.7768,0H39.8611v-.8957H42.25Zm-4.7768,0H35.0843v-.8957h2.3884Zm-4.7768,0H30.3075v-.8957h2.3884Zm-4.7768,0H25.5307v-.8957h2.3884Zm-4.7768,0H20.7539v-.8957h2.3884Zm-4.7768,0H15.9771v-.8957h2.3884Zm-4.7768,0H11.2v-.8957h2.3884Zm-4.7768,0H6.4235v-.8957H8.8119Zm-4.7768,0H1.6467v-.8957H4.0351Zm71.6474-3.2888h-.8957V92.0034h.8957Zm0-4.7768h-.8957V87.2266h.8957Zm0-4.7768h-.8957v-.1469H73.441v-.8957h2.2415Zm-4.63-.1469H68.6642v-.8957h2.3884Zm-4.7768,0H63.8874v-.8957h2.3884Zm-4.7768,0H59.1106v-.8957H61.499Zm-4.7768,0H54.3338v-.8957h2.3884Z"/><path class="cls-3" d="M25.6584,33.8H23.27v-.8956h2.3884Zm-4.7768,0H18.4932v-.8956h2.3884Zm-4.7768,0H13.7164v-.8956h2.3884Zm-4.7768,0H8.94v-.8956H11.328Zm-4.7768,0H4.1628v-.8956H6.5512Zm-4.7768,0H0v-1.51H.8957v.614h.8787Zm-.8787-3.898H0V27.5137H.8957Zm0-4.7768H0V22.7369H.8957Zm74.1168-3.8048H72.6241v-.8956h2.3884Zm-4.7768,0H67.8473v-.8956h2.3884Zm-4.7768,0H63.0705v-.8956h2.3884Zm-4.7768,0H58.2937v-.8956h2.3884Zm-4.7768,0H53.5169v-.8956h2.3884Zm-4.7768,0H48.74v-.8956h2.3884Zm-4.7768,0H43.9633v-.8956h2.3884Zm-4.7768,0H39.1865v-.8956h2.3884Zm-4.7768,0H34.41v-.8956h2.3884Zm-4.7768,0H29.6329v-.8956h2.3884Zm-4.7768,0H24.8561v-.8956h2.3884Zm-4.7768,0H20.0793v-.8956h2.3884Zm-4.7769,0H15.3024v-.8956h2.3884Zm-4.7768,0H10.5256v-.8956H12.914Zm-4.7768,0H5.7488v-.8956H8.1372Zm-4.7768,0H.972v-.8956H3.36Zm72.3221-2.614h-.8957V16.3181h.8957Zm0-4.7768h-.8957V11.5413h.8957Zm0-4.7769h-.8957v-.821h-.6717V7.4362h1.5674Zm-3.9558-.821H69.3383V7.4362h2.3884Zm-4.7768,0H64.5615V7.4362H66.95Z"/><polygon class="cls-3" points="42.879 108.444 46.112 109.712 42.879 110.981 42.879 108.444"/><path class="cls-1" d="M18.2826,58.76c.0709-.0038.0928-.0694.0789-.1441-.0059-.0719-.0084-.1439-.0192-.2158l-.0557-.4316a4.076,4.076,0,0,1-.0271-.8632l.0373-.3676c.0161-.0168-.0845-.02-.1519-.0271L17.929,56.7a7.2936,7.2936,0,0,0-.8632.04l.0871-.0871c.04.3538.05.7075.0629,1.0613a9.6833,9.6833,0,0,1-.01,1.0612l-.14-.14C17.4715,58.6659,17.8771,58.7627,18.2826,58.76Zm0,.03c-.4055-.0023-.8111.0945-1.2168.1251l-.131.01-.0091-.15a9.6833,9.6833,0,0,1-.01-1.0612c.0126-.3538.0231-.7075.0629-1.0613l.0106-.0945.0765.0074a7.2936,7.2936,0,0,0,.8632.04l.2159-.0108.1078-.01a.1892.1892,0,0,1,.1564.0412.2193.2193,0,0,1,.0635.1564l.0108.1079.0213.2158a4.0694,4.0694,0,0,1-.027.8632l-.0556.4316c-.011.0719-.0134.1439-.0193.2158C18.4136,58.6782,18.38,58.7984,18.2826,58.79Z"/><path class="cls-1" d="M25.2976,56.6676c-.7666-.0007-1.5332.17-2.3.1088a.4509.4509,0,0,1-.0621-.0036.017.017,0,0,0,.01-.01l-.0009-.01-.0054.0671-.0213.2875c-.0165.1917-.0289.3833-.0314.5749-.01.1917-.0042.3833.0008.575.0011.0958.0046.1916.0117.2874l.0091.1346a.0216.0216,0,0,0,.0262.0144c.7666-.0543,1.5331-.082,2.3-.0722l.0594.0008a.0531.0531,0,0,0-.048.0513l.0008-.0652c.0006-.0958.0009-.1917.0089-.2875.0126-.1916.02-.3833.0438-.5749l.0568-.5749c.0109-.0959.013-.1917.0193-.2875C25.3785,56.7914,25.4011,56.6709,25.2976,56.6676Zm0-.03a.1165.1165,0,0,1,.1166.1l.005.1459c.0063.0958.0084.1916.0194.2875l.0568.5749c.0235.1916.0312.3833.0438.5749.008.0958.0083.1917.0089.2875l0,.0785a.2518.2518,0,0,1-.23.2408l-.0843.0017c-.7666.01-1.5331-.0179-2.3-.0722a.1776.1776,0,0,1-.1711-.16c0-.066.0051-.1008.0073-.1528.0072-.0958.0107-.1916.0118-.2874.005-.1917.0106-.3833.0008-.575-.0026-.1916-.0149-.3832-.0314-.5749L22.73,56.82l-.0049-.0765a.2108.2108,0,0,1,.0543-.14.217.217,0,0,1,.1365-.07l.0816-.0044C23.7644,56.4676,24.531,56.6385,25.2976,56.6378Z"/><path class="cls-1" d="M17.0763,54.8869l.0588,1.7657-.0693-.0692,1.1675-.0219a.2233.2233,0,0,1,.2088.0815.21.21,0,0,1,.0352.1224l.0013.073.0053.2919.01.5837.0044.5837.0021.2918.0006.073a.2334.2334,0,0,1-.0378.1369.2537.2537,0,0,1-.23.0964l-1.1675.0086.1292-.1291c.0068,1.1591.0022,2.3182-.0225,3.4773l-.1067-.1067,1.2469.0237-.083.083.0065-.3311.0015-.078.0751.0014,1.0386.0182-.0582.0583.0049-.6421,0-.0543.053.0008c1.1549.0184,2.31-.0069,3.4648-.0158l3.4648-.0456-.1148.1147c-.0292-2.1342-.0489-4.2684-.04-6.4027l.1547.1547c-1.5169.0034-3.0331-.0213-4.5655-.0529Zm-.021-.0211,4.576-.0913c1.5393-.0316,3.0949-.0563,4.65-.0528l.1541,0,.0006.1544c.0091,2.1343-.0106,4.2685-.04,6.4027l-.0016.1164-.1133-.0015-3.4648-.0457c-1.1549-.0089-2.31-.0341-3.4648-.0158l.0533-.0532.005.6421,0,.0573-.0588.001-1.0386.0183.0765-.0765.0065.3311.0016.0814-.0847.0016-1.2469.0238-.1044.002-.0023-.1088c-.0248-1.1591-.0294-2.3182-.0225-3.4773l.0008-.13.1284.001,1.1675.0086c.0751,0,.0321.0005.0329.01-.0027-.0028-.0038.0251-.003-.0019l.0006-.073.0021-.2918.0043-.5837.01-.5837.0053-.2919.0017-.0894c-.0053-.0033.0145-.0044-.0541-.0051l-1.1675-.0219-.0715-.0013.0022-.0681Z"/><path class="cls-1" d="M25.412,58.6756a.1161.1161,0,0,1-.1.1158l-.1458.0043c-.0959.0061-.1916.0078-.2875.0186l-.5749.0547a7.6048,7.6048,0,0,1-1.15.03c-.0479,0-.0958-.006-.1437-.0087l-.0719-.0053a.2112.2112,0,0,1-.1324-.05.2314.2314,0,0,1-.0654-.2137l.0108-.1437c.0165-.1917.0288-.3833.0314-.5749a11.1773,11.1773,0,0,0-.03-1.15.1871.1871,0,0,1,.1572-.19l.1552-.0117.2874-.0165.575-.022c.3833-.0111.7666-.023,1.15-.0136l.1437.0015.0719.0007a.2551.2551,0,0,1,.1616.0563.2508.2508,0,0,1,.0889.1528.6374.6374,0,0,1,.003.0971l-.0075.1437c-.0126.1917-.02.3833-.0438.575A11.1135,11.1135,0,0,0,25.412,58.6756Zm-.03,0a11.1413,11.1413,0,0,0-.0834-1.15c-.0235-.1917-.0312-.3833-.0438-.575,0-.0723-.0261-.264.01-.1585a.0639.0639,0,0,0,.028.0121l-.0719.0008-.1437.0014c-.3833.0095-.7666-.0025-1.15-.0135l-.575-.022-.2874-.0166-.1322-.01c-.0036-.0034-.0132-.0013-.0167.0077a11.2055,11.2055,0,0,0-.03,1.15c.0025.1916.0149.3832.0314.5749.0064.0771.0163.2468.02.1949.0026-.0019-.0062-.0051.0013-.0064l.0719-.0052c.0479-.0028.0958-.0088.1437-.0088a7.5918,7.5918,0,0,1,1.15.03l.5749.0547c.0959.0107.1916.0125.2875.0185C25.2582,58.7582,25.38,58.78,25.3822,58.6756Z"/><rect class="cls-1" x="18.5199" y="10.9524" width="16.8047" height="0.7236"/><path class="cls-2" d="M18.5094,10.9418c2.731-.0725,5.5421-.1138,8.3647-.1057l4.2388.0613c1.4074.0215,2.8061-.0068,4.2117-.0191l.0734-.0007.0008.0749.0075.7234.0009.08-.0826.0013c-2.8007.045-5.6015.083-8.4023.0732q-2.1006.0033-4.2011-.0383c-1.4-.0281-2.8008-.03-4.2012-.0805l-.0374-.0013.0012-.0349Zm.0211.0212.0255.7129-.036-.036c1.4-.0505,2.8008-.0524,4.2012-.0805s2.8007-.04,4.2011-.0383c2.8008-.01,5.6016.0283,8.4023.0732l-.0817.0816.0076-.7234.0741.074c-1.3951-.0123-2.7972-.0407-4.1907-.0191l-4.1634.0613C24.1915,11.0768,21.401,11.0355,18.5305,10.963Z"/><rect class="cls-1" x="27.5507" y="36.6084" width="26.0103" height="0.7236"/><path class="cls-2" d="M27.54,36.5979c2.13-.04,4.2912-.0579,6.4563-.073,2.1634-.0165,4.3274-.0467,6.5114-.0321l6.539.0554c2.1766.0341,4.34-.0092,6.5141-.0165l.0763,0,0,.077.0051.7235.0006.0809-.0824.0009c-4.3351.0452-8.67.0844-13.0051.0728q-3.2514.0043-6.5025-.0409c-2.1676-.0256-4.3351-.0343-6.5026-.0848l-.03-.0007.0007-.0282Zm.0211.0211.0182.713-.0287-.0288c2.1675-.05,4.335-.0592,6.5026-.0848s4.3349-.0437,6.5025-.0409c4.3351-.0116,8.67.0276,13.0051.0728l-.0817.0817.0051-.7235.0766.0767c-2.1612-.0073-4.3326-.0506-6.4911-.0165l-6.4662.0553c-2.1511.0147-4.322-.0155-6.4936-.032C31.94,36.6769,29.7665,36.6588,27.5613,36.619Z"/><rect class="cls-1" x="27.5507" y="89.1336" width="26.0103" height="0.7236"/><path class="cls-2" d="M27.54,89.1231c2.13-.04,4.2912-.0579,6.4563-.073,2.1634-.0165,4.3274-.0467,6.5114-.032l6.539.0553c2.1766.0341,4.34-.0092,6.5141-.0165l.0763,0,0,.0771.0051.7235.0006.0809-.0824.0009c-4.3351.0452-8.67.0844-13.0051.0728q-3.2514.0044-6.5025-.0409c-2.1676-.0256-4.3351-.0343-6.5026-.0848l-.03-.0007.0007-.0282Zm.0211.0211.0182.713-.0287-.0288c2.1675-.05,4.335-.0592,6.5026-.0848s4.3349-.0438,6.5025-.0409c4.3351-.0116,8.67.0276,13.0051.0728l-.0817.0817.0051-.7235.0766.0767C51.4,89.203,49.2284,89.16,47.07,89.1939l-6.4662.0553c-2.1511.0147-4.322-.0155-6.4936-.0321C31.94,89.2021,29.7665,89.184,27.5613,89.1442Z"/><path class="cls-2" d="M33.44,5.4581H20.2033v5.2445H22.739V6.9409h1.8589v3.7617H33.44ZM28.2972,8.97H26.4383V6.9409h1.8589Zm3.55,0H29.9886V6.9409h1.8589Z"/><path class="cls-1" d="M33.429,5.4686c-2.2468.0418-4.4611.0881-6.6537.1011-2.1983.024-4.3769.0244-6.5719-.0182l.0933-.0934L20.26,8.08c-.0016.874-.02,1.7481-.0063,2.6222l-.05-.05,2.5355-.0211-.0715.0715-.04-3.7616-.0012-.1105.113-.0013,1.8588-.022.133-.0016.0007.1354.0209,3.7616-.1545-.1545,4.4208.0037,4.4207.0467-.1041.1041C33.3526,8.98,33.3918,7.2485,33.429,5.4686Zm.0212-.0211c.0373,1.7165.0763,3.4811.0935,5.2551l.0011.1031-.1053.0011-4.4207.0467-4.4208.0037h-.1555l.0009-.1547.0208-3.7616.1337.1336-1.8588-.022.1117-.1116-.04,3.7616-.0007.0722-.0709-.0006-2.5355-.0211-.0513,0,.0007-.05c.0135-.8741-.0047-1.7482-.0063-2.6222L20.11,5.4581l-.0013-.0917.0948-.0018c2.217-.0426,4.4505-.0422,6.6643-.0181C29.0872,5.3594,31.285,5.4057,33.45,5.4475Z"/><path class="cls-1" d="M28.3077,8.9806a11.6025,11.6025,0,0,1-1.8693.1177l-.1346-.004L26.31,8.97c.0171-.3382.0627-.6763.0785-1.0145a8.8617,8.8617,0,0,0-.0319-1.0145l-.0057-.0739.0875-.0079c.6195-.0561,1.2392-.0725,1.8588-.078l.1609-.0015-.0011.1613A18.5343,18.5343,0,0,1,28.3077,8.9806Zm-.021-.0211c-.0725-.7455-.1441-1.3806-.1492-2.0185l.16.16c-.62-.0056-1.2393-.022-1.8588-.0781L26.52,6.941a8.8845,8.8845,0,0,0-.0319,1.0145c.0158.3382.0614.6763.0785,1.0145l-.1282-.1282A13.0065,13.0065,0,0,1,28.2867,8.96Z"/><path class="cls-1" d="M31.8581,8.9806a11.6045,11.6045,0,0,1-1.8694.1177l-.1346-.004L29.86,8.97c.0171-.3382.0627-.6763.0785-1.0145a8.8845,8.8845,0,0,0-.0319-1.0145l-.0057-.0739.0875-.0079c.6195-.0561,1.2392-.0725,1.8588-.078l.1609-.0015-.0011.1613A18.56,18.56,0,0,1,31.8581,8.9806ZM31.837,8.96c-.0725-.7455-.1441-1.3806-.1492-2.0185l.16.16c-.62-.0056-1.2393-.022-1.8588-.0781L30.07,6.941a8.9075,8.9075,0,0,0-.0319,1.0145c.0158.3382.0615.6763.0784,1.0145l-.1281-.1282A13.0073,13.0073,0,0,1,31.837,8.96Z"/><path class="cls-2" d="M31.9074,2.521H25.8052L23.7654.19,21.6159,2.6412V1.5637h-.9365V3.7091L19.2757,5.31H34.32Zm-8.142.3632a.4161.4161,0,1,1,.4161-.4161A.416.416,0,0,1,23.7654,2.8842Z"/><path class="cls-1" d="M31.9012,2.5346c-2.06.0616-4.0791.1031-6.096.111l-.0555,0-.0383-.0428c-.689-.769-1.3663-1.5482-2.04-2.3308h.1874L21.668,2.6868l-.1236.1362.0022-.1819L21.56,1.5637l.0555.0554-.9365-.0068.0486-.0486c-.0108.7151.0091,1.43.0122,2.1454v.0225l-.0153.0177L19.3372,5.3637l-.0615-.1358q3.7613-.0621,7.5223-.0766l3.7611.01,3.7612.0551-.0707.1546C33.4637,4.4437,32.6876,3.4981,31.9012,2.5346Zm.0124-.0271c.8223.8956,1.6546,1.8092,2.4774,2.7411l.1338.1516-.2045.003-3.7612.0552-3.7611.01q-3.7611-.0141-7.5223-.0767l-.18-.003.1189-.1328,1.4194-1.5867-.015.04c.003-.7151.023-1.43.0122-2.1454L20.63,1.5154l.0493,0,.9365-.007.0548,0,.0007.056.0137,1.0774-.1212-.0456L23.6717.1079,23.7632,0l.096.108c.6863.7714,1.3689,1.5461,2.04,2.331l-.0937-.0425C27.8565,2.4044,29.9058,2.4458,31.9136,2.5075Z"/><path class="cls-1" d="M23.7654,2.8992a.736.736,0,0,1-.36-.0706.3572.3572,0,0,1-.18-.36.544.544,0,0,1,.2118-.3284.7163.7163,0,0,1,.3285-.1694.4954.4954,0,0,1,.5753.4978.417.417,0,0,1-.2116.3637A.7277.7277,0,0,1,23.7654,2.8992Zm0-.03a.25.25,0,0,0,.2247-.1764.6415.6415,0,0,0,.0322-.2248.3552.3552,0,0,0-.2569-.3344.2492.2492,0,0,0-.26.0744.2865.2865,0,0,0-.0318.26c.02.0767.0349.138.0638.228A.2515.2515,0,0,0,23.7654,2.8693Z"/><path class="cls-3" d="M45.3417,110.16H43.2151v-.8957h2.1266Zm-4.515,0H38.4383v-.8957h2.3884Zm-4.7768,0H33.6615v-.8957H36.05Zm-4.7768,0H28.8847v-.8957h2.3884Z"/><path class="cls-1" d="M37.7042,80.5467,36.3026,78.78l.12.0018q-1.7846,2.3317-3.6173,4.6252l-.1028-.2134c2.8.004,5.6.1186,8.4.074l8.4-.09-.114.2417q-1.1631-1.3848-2.3046-2.7876l.1188.056c-1.5944.0038-3.1868-.0235-4.7713-.0489C40.847,80.6162,39.2652,80.5926,37.7042,80.5467Zm.0133-.0268c1.6032-.046,3.1856-.07,4.7645-.0917,1.58-.0253,3.1516-.0526,4.7216-.0488l.0723,0,.0465.0559q1.1565,1.39,2.2951,2.7954l.198.2451-.3121-.0034-8.4-.09c-2.8-.0446-5.6.07-8.4.074l-.2736,0,.1708-.2139q1.8324-2.2938,3.7039-4.5562l.0645-.0775.0559.0793Z"/><path class="cls-1" d="M49.4929,83.5281c-2.8508.0568-5.6366.0677-8.4351.099-1.3989.02-2.788.0209-4.1781.0131l-4.1768-.043.08-.08c-.0073,1.7286-.0512,3.4572-.0251,5.1858l-.0545-.0545,1.9092-.0137-.0682.0682-.0329-3.7885-.0009-.1.1022-.001,3.5421-.0345.1351-.0013.0006.1371.0178,3.7885-.1535-.1535,5.6745.0033,5.6745.0556-.0947.0946Zm.0211-.0211c.031,1.702.072,3.443.0841,5.1964l.0007.0938-.0954.0009-5.6745.0556-5.6745.0033H38l.0008-.1537.0177-3.7885.1358.1357-3.5421-.0345.1012-.1012-.033,3.7885-.0006.0688-.0678-.0005-1.9092-.0137-.0554,0,.0009-.0542c.0261-1.7286-.0178-3.4572-.0251-5.1858l0-.0789.08-.0008,4.2236-.043c1.41-.0079,2.8209-.0068,4.2221.0131C43.95,83.4393,46.7648,83.45,49.514,83.507Z"/><path class="cls-1" d="M41.9521,87.9958c-.3213.04-.6946.0784-1.0762.1-.3566.0058-.7113.0319-1.067.0184l-.1315-.0049.0024-.1242c.0121-.613.0978-1.2261.08-1.8391a1.31,1.31,0,0,1,.2362-.9173,1.1419,1.1419,0,0,1,.8789-.4513,1.2031,1.2031,0,0,1,.9289.4084,1.2993,1.2993,0,0,1,.2837.969C42.0612,86.7989,42.0115,87.4364,41.9521,87.9958Zm-.0211-.0211c-.0593-.6666-.109-1.2552-.1357-1.8373a.979.979,0,0,0-.92-1.0852.9955.9955,0,0,0-1.0178,1.0939c-.0172.613.0683,1.2261.08,1.8391l-.129-.129c.3553-.0134.7116.0127,1.0658.0185C41.2039,87.8964,41.5415,87.9346,41.931,87.9747Z"/><path class="cls-1" d="M44.86,87.9958c-.3212.04-.6946.0784-1.0762.1-.3567.0058-.7113.0319-1.067.0184l-.1315-.0049.0024-.1242c.0121-.613.0978-1.2261.0805-1.8391a1.31,1.31,0,0,1,.2361-.9173,1.1419,1.1419,0,0,1,.8789-.4513,1.2031,1.2031,0,0,1,.9289.4084,1.2989,1.2989,0,0,1,.2837.969C44.9687,86.7989,44.919,87.4364,44.86,87.9958Zm-.0211-.0211c-.0593-.6666-.109-1.2552-.1357-1.8373a.979.979,0,0,0-.92-1.0852.9955.9955,0,0,0-1.0178,1.0939c-.0172.613.0684,1.2261.0805,1.8391l-.1291-.129c.3552-.0134.7116.0127,1.0658.0185C44.1114,87.8964,44.449,87.9346,44.8385,87.9747Z"/><path class="cls-1" d="M47.8351,87.9958c-.3213.04-.6946.0784-1.0763.1-.3565.0058-.7112.0319-1.0669.0184l-.1315-.0049.0025-.1242c.0121-.613.0976-1.2261.08-1.8391a1.31,1.31,0,0,1,.2362-.9173,1.1414,1.1414,0,0,1,.8787-.4513,1.2028,1.2028,0,0,1,.9289.4084,1.298,1.298,0,0,1,.2837.969C47.9441,86.7989,47.8944,87.4364,47.8351,87.9958Zm-.0211-.0211c-.0594-.6666-.1091-1.2552-.1358-1.8373a.979.979,0,0,0-.92-1.0852A.9957.9957,0,0,0,45.74,86.1461c-.0172.613.0684,1.2261.0805,1.8391l-.129-.129c.3552-.0134.7115.0127,1.0658.0185C47.0868,87.8964,47.4244,87.9346,47.814,87.9747Z"/><path class="cls-1" d="M36.5434,85.007a13.1377,13.1377,0,0,1,.1084,1.8042c-.01.3217-.0453.6464-.0645.96a7.7825,7.7825,0,0,0,.0132.9318l.0043.0626-.0721.0051-.1944.0141-.0745.0053-.0073-.0871a17.836,17.836,0,0,1,.0395-3.6857l.0055-.0457.0368.0034C36.4136,84.9826,36.4841,84.997,36.5434,85.007Zm-.0211.0211-.184.0317.0421-.0421a17.829,17.829,0,0,1,.0395,3.6857l-.0816-.0817.1944.0141-.0676.0676a7.5151,7.5151,0,0,0,.0133-.9111c-.0194-.3-.0543-.59-.0646-.8825A16.3327,16.3327,0,0,1,36.5223,85.0281Z"/><path class="cls-1" d="M52.9365,60.5561c.4753-.04.8989-.0779,1.3142-.0989l-.1093.1093L54.1181,59.4c.0017-.3888.0186-.7777.0446-1.1666A17.603,17.603,0,0,0,54.1691,55.9l.0816.0817q-.6623.039-1.3247.0551l.1369-.1368c.0232.7612.0207,1.5128-.0011,2.277C53.03,58.9474,52.9944,59.7245,52.9365,60.5561Zm-.0211.0211c-.0577-.724-.093-1.5024-.1252-2.2876-.0217-.7914-.0242-1.5952-.001-2.3895l.004-.14.1328.0033q.6624.0163,1.3247.0552l.0865.0051-.0047.0767a17.5351,17.5351,0,0,0,.0064,2.3332c.0258.3889.0427.7778.0445,1.1666L54.36,60.5665l-.0023.1143-.1072-.0048C53.7828,60.6551,53.3234,60.6167,52.9154,60.5772Z"/><path class="cls-1" d="M53.1428,56.7522a.1234.1234,0,0,1,.1384-.12c.06-.0061.12-.0078.18-.0186l.3605-.0547c.0336-.0044.0522-.01.098-.0133a.205.205,0,0,1,.1657.085c.0761.1484.0347.1773.05.2429a3.0317,3.0317,0,0,1-.007.36c-.0215.24-.0649.4806-.0758.7209a5.0737,5.0737,0,0,0,.0332.7209c.0227.1148-.13.2168-.2051.2013-.06.0075-.12.0128-.18.0166l-.3605.0219-.1006.0031a.246.246,0,0,1-.1876-.1051c-.0809-.1729-.0316-.1913-.05-.2593-.0055-.12-.0035-.24-.0036-.36C52.9806,57.7133,53.1358,57.2328,53.1428,56.7522Zm.03,0c.0068.4806.1621.9611.1442,1.4417,0,.12.0019.24-.0037.36-.0057.0493.0025.16-.0157.0944a.0465.0465,0,0,0-.037-.0176l.0794.0037.3605.022c.06.0038.12.0091.18.0166.0452.0071.0229.0142.0417.0023a5.0718,5.0718,0,0,0,.0334-.7208c-.0111-.24-.0546-.4806-.076-.7209a3.0107,3.0107,0,0,1-.007-.36c.0028-.0516.0026-.1522.016-.1108a.0112.0112,0,0,0,.0154-.0023c-.0143-.0049-.0557-.0094-.0823-.0141l-.3605-.0547C53.3526,56.6877,53.1836,56.6239,53.1727,56.7522Z"/><path class="cls-1" d="M54.6025,60.5561c.4752-.04.8988-.0779,1.314-.0989l-.1093.1093L55.784,59.4c.0017-.3888.0186-.7777.0444-1.1666A17.5183,17.5183,0,0,0,55.8349,55.9l.0816.0817q-.6621.039-1.3245.0551l.1369-.1368c.023.7612.02,1.5128-.0012,2.277C54.6955,58.9474,54.66,59.7245,54.6025,60.5561Zm-.0212.0211c-.0577-.724-.093-1.5024-.1252-2.2876-.0217-.7914-.0242-1.5952-.0012-2.3895l.0041-.14.133.0033q.6623.0163,1.3245.0552l.0866.0051-.0048.0767a17.569,17.569,0,0,0,.0064,2.3332c.0259.3889.0429.7778.0446,1.1666l-.0233,1.1666-.0022.1143-.1073-.0048C55.4487,60.6551,54.9892,60.6167,54.5813,60.5772Z"/><path class="cls-1" d="M54.8086,56.7522a.1236.1236,0,0,1,.1385-.12c.06-.0061.12-.0078.18-.0186l.36-.0547c.0336-.0044.0522-.01.098-.0133a.2049.2049,0,0,1,.1657.085c.0763.1484.0349.1773.05.2429a3.0107,3.0107,0,0,1-.007.36c-.0214.24-.0649.4806-.076.7209a5.0739,5.0739,0,0,0,.0334.7209c.0226.1148-.13.2168-.2052.2013-.06.0075-.12.0128-.18.0166l-.36.0219-.1007.0031a.246.246,0,0,1-.1875-.1051c-.081-.1729-.0316-.1913-.0495-.2593-.0056-.12-.0037-.24-.0037-.36C54.6465,57.7133,54.8017,57.2328,54.8086,56.7522Zm.03,0c.007.4806.1622.9611.1443,1.4417,0,.12.0019.24-.0036.36-.0057.0493.0024.16-.0159.0944a.0463.0463,0,0,0-.0371-.0176l.08.0037.36.022c.06.0038.12.0091.18.0166.0453.0071.023.0142.0418.0023a5.0716,5.0716,0,0,0,.0332-.7208c-.0109-.24-.0543-.4806-.0758-.7209a3.0317,3.0317,0,0,1-.007-.36c.0028-.0516.0027-.1522.0161-.1108a.0109.0109,0,0,0,.0151-.0023c-.0142-.0049-.0556-.0094-.0822-.0141l-.36-.0547C55.0185,56.6877,54.85,56.6239,54.8385,56.7522Z"/><path class="cls-1" d="M43.4328,60.5561c.4751-.04.8988-.0779,1.314-.0989l-.1093.1093L44.6143,59.4c.0016-.3888.0185-.7777.0445-1.1666A17.5351,17.5351,0,0,0,44.6652,55.9l.0816.0817q-.6622.039-1.3245.0551L43.559,55.9c.0232.7612.0207,1.5128-.001,2.277C43.5258,58.9474,43.4905,59.7245,43.4328,60.5561Zm-.0212.0211c-.0578-.724-.093-1.5024-.1252-2.2876-.0218-.7914-.0243-1.5952-.0011-2.3895l.004-.14.133.0033q.6621.0163,1.3245.0552l.0865.0051-.0047.0767a17.569,17.569,0,0,0,.0064,2.3332c.026.3889.0429.7778.0446,1.1666l-.0233,1.1666-.0022.1143-.1073-.0048C44.279,60.6551,43.82,60.6167,43.4116,60.5772Z"/><path class="cls-1" d="M43.6389,56.7522a.1235.1235,0,0,1,.1384-.12c.06-.0061.12-.0078.18-.0186l.36-.0547c.0336-.0044.0522-.01.098-.0133a.2049.2049,0,0,1,.1657.085c.0763.1484.0347.1773.05.2429a2.9493,2.9493,0,0,1-.007.36c-.0213.24-.0649.4806-.0758.7209a5.0591,5.0591,0,0,0,.0333.7209c.0226.1148-.13.2168-.2052.2013-.06.0075-.12.0128-.18.0166l-.36.0219-.1007.0031a.2464.2464,0,0,1-.1876-.1051c-.0809-.1729-.0316-.1913-.05-.2593-.0055-.12-.0035-.24-.0036-.36C43.4768,57.7133,43.6321,57.2328,43.6389,56.7522Zm.03,0c.0068.4806.1621.9611.1443,1.4417,0,.12.0019.24-.0036.36-.0059.0493.0023.16-.0159.0944a.0465.0465,0,0,0-.037-.0176l.08.0037.36.022c.06.0038.12.0091.18.0166.0452.0071.023.0142.0417.0023a5.0718,5.0718,0,0,0,.0334-.7208c-.011-.24-.0546-.4806-.0758-.7209a2.93,2.93,0,0,1-.007-.36c.0027-.0516.0024-.1522.016-.1108a.011.011,0,0,0,.0152-.0023c-.0143-.0049-.0557-.0094-.0823-.0141l-.36-.0547C43.8487,56.6877,43.68,56.6239,43.6688,56.7522Z"/><path class="cls-1" d="M41.7669,60.5561c.4752-.04.8988-.0779,1.314-.0989l-.1094.1093L42.9484,59.4c.0017-.3888.0186-.7777.0444-1.1666A17.5014,17.5014,0,0,0,42.9992,55.9l.0817.0817q-.6621.039-1.3245.0551l.1368-.1368c.0231.7612.0206,1.5128-.0011,2.277C41.86,58.9474,41.8246,59.7245,41.7669,60.5561Zm-.0212.0211c-.0577-.724-.093-1.5024-.1252-2.2876-.0217-.7914-.0242-1.5952-.0012-2.3895l.0041-.14.133.0033q.6623.0163,1.3245.0552l.0866.0051-.0048.0767a17.569,17.569,0,0,0,.0064,2.3332c.0259.3889.0428.7778.0446,1.1666L43.19,60.5665l-.0022.1143-.1073-.0048C42.6131,60.6551,42.1536,60.6167,41.7457,60.5772Z"/><path class="cls-1" d="M41.973,56.7522a.1236.1236,0,0,1,.1385-.12c.06-.0061.12-.0078.18-.0186l.36-.0547c.0335-.0044.0522-.01.098-.0133a.205.205,0,0,1,.1657.085c.0763.1484.0349.1773.05.2429a3.0317,3.0317,0,0,1-.007.36c-.0215.24-.0649.4806-.076.7209a5.0739,5.0739,0,0,0,.0334.7209c.0226.1148-.13.2168-.2052.2013-.06.0075-.12.0128-.18.0166l-.36.0219-.1007.0031a.246.246,0,0,1-.1875-.1051c-.081-.1729-.0316-.1913-.0495-.2593-.0056-.12-.0037-.24-.0037-.36C41.8109,57.7133,41.9661,57.2328,41.973,56.7522Zm.03,0c.007.4806.1622.9611.1443,1.4417,0,.12.0019.24-.0037.36-.0056.0493.0025.16-.0159.0944a.0461.0461,0,0,0-.037-.0176l.08.0037.36.022c.06.0038.12.0091.18.0166.0453.0071.023.0142.0418.0023a5.0716,5.0716,0,0,0,.0332-.7208c-.0109-.24-.0543-.4806-.0758-.7209a3.0317,3.0317,0,0,1-.007-.36c.0028-.0516.0027-.1522.0161-.1108a.0109.0109,0,0,0,.0151-.0023c-.0143-.0049-.0557-.0094-.0822-.0141l-.36-.0547C42.1829,56.6877,42.0139,56.6239,42.0029,56.7522Z"/><path class="cls-1" d="M22.1258,55.9106c-.4752.0395-.8989.0779-1.3141.0988L20.921,55.9l.0233,1.1666c-.0017.3889-.0187.7777-.0445,1.1666a17.5521,17.5521,0,0,0-.0065,2.3332l-.0816-.0816q.6623-.0392,1.3246-.0552l-.1369.1369c-.0231-.7612-.0206-1.5129.0011-2.2771C22.0327,57.5192,22.068,56.7422,22.1258,55.9106Zm.0211-.0211c.0578.7239.093,1.5023.1253,2.2875.0217.7914.0242,1.5952.0011,2.3895l-.0041.14-.1329-.0033q-.6624-.0162-1.3246-.0552l-.0865-.0051.0047-.0767a17.5352,17.5352,0,0,0-.0064-2.3332c-.0259-.3889-.0428-.7777-.0445-1.1666L20.7022,55.9l.0023-.1143.1072.0048C21.28,55.8116,21.739,55.85,22.1469,55.89Z"/><path class="cls-1" d="M21.92,58.6756a.1236.1236,0,0,1-.1383.12c-.06.0061-.12.0078-.18.0186l-.36.0546c-.0335.0044-.0523.01-.0979.0134a.2056.2056,0,0,1-.1659-.0849c-.0762-.1482-.0348-.1775-.05-.243a2.97,2.97,0,0,1,.0071-.36c.0213-.24.0648-.4806.0758-.7209a5.0872,5.0872,0,0,0-.0333-.7208c-.0228-.1148.1292-.2169.205-.2015.06-.0075.12-.0128.18-.0165l.3605-.022.1005-.0031a.2465.2465,0,0,1,.1877.1049c.0812.173.0316.1915.05.2594.0056.12.0036.24.0037.3605C22.0818,57.7145,21.9265,58.1951,21.92,58.6756Zm-.03,0c-.0069-.4805-.1622-.9611-.1442-1.4416,0-.12-.002-.24.0036-.3605.0058-.0493-.0025-.16.0159-.0942a.047.047,0,0,0,.037.0176l-.08-.0038-.3605-.022c-.06-.0037-.12-.009-.18-.0165-.045-.0071-.0229-.0143-.0416-.0023a5.0577,5.0577,0,0,0-.0333.7208c.011.24.0545.4806.0758.7209a2.97,2.97,0,0,1,.007.36c-.0027.0518-.0026.1519-.016.1107a.011.011,0,0,0-.0152.0023c.0145.0049.0557.0094.0823.0142l.36.0546C21.71,58.74,21.8789,58.804,21.89,58.6756Z"/><path class="cls-1" d="M20.46,55.9106c-.4752.0395-.8988.0779-1.3141.0988l.1094-.1093.0232,1.1666c-.0017.3889-.0186.7777-.0445,1.1666a17.5352,17.5352,0,0,0-.0064,2.3332l-.0817-.0816q.6622-.0392,1.3246-.0552l-.1368.1369c-.0231-.7612-.0207-1.5129.0011-2.2771C20.3669,57.5192,20.4021,56.7422,20.46,55.9106Zm.0211-.0211c.0578.7239.0931,1.5023.1252,2.2875.0218.7914.0243,1.5952.0012,2.3895l-.0041.14-.1329-.0033q-.6623-.0162-1.3246-.0552l-.0865-.0051.0047-.0767a17.5352,17.5352,0,0,0-.0064-2.3332c-.0259-.3889-.0428-.7777-.0445-1.1666L19.0363,55.9l.0023-.1143.1072.0048C19.6136,55.8116,20.0731,55.85,20.481,55.89Z"/><path class="cls-1" d="M20.2537,58.6756a.1236.1236,0,0,1-.1383.12c-.06.0061-.12.0078-.18.0186l-.36.0546c-.0335.0044-.0523.01-.0979.0134a.2052.2052,0,0,1-.1658-.0849c-.0763-.1482-.0349-.1775-.05-.243a3.0111,3.0111,0,0,1,.007-.36c.0215-.24.0649-.4806.0759-.7209a5.0724,5.0724,0,0,0-.0333-.7208c-.0228-.1148.1292-.2169.205-.2015.06-.0075.12-.0128.18-.0165l.36-.022.1005-.0031a.246.246,0,0,1,.1877.1049c.0812.173.0317.1915.05.2594.0056.12.0036.24.0037.3605C20.4158,57.7145,20.2607,58.1951,20.2537,58.6756Zm-.03,0c-.007-.4805-.1622-.9611-.1444-1.4416,0-.12-.0019-.24.0037-.3605.0057-.0493-.0024-.16.0159-.0942a.047.047,0,0,0,.0371.0176l-.08-.0038-.36-.022c-.06-.0037-.12-.009-.18-.0165-.0449-.0071-.0229-.0143-.0416-.0023a5.0577,5.0577,0,0,0-.0333.7208c.011.24.0544.4806.0759.7209a3.0321,3.0321,0,0,1,.007.36c-.0028.0518-.0027.1519-.0161.1107a.011.011,0,0,0-.0152.0023c.0144.0049.0558.0094.0823.0142l.36.0546C20.044,58.74,20.213,58.804,20.2239,58.6756Z"/><path class="cls-1" d="M31.1842,60.5561c.4752-.04.8989-.0779,1.314-.0989l-.1093.1093L32.3657,59.4c.0018-.3888.0187-.7777.0445-1.1666A17.5351,17.5351,0,0,0,32.4166,55.9l.0816.0817q-.6621.039-1.3245.0551l.1368-.1368c.0232.7612.0207,1.5128-.0011,2.277C31.2773,58.9474,31.242,59.7245,31.1842,60.5561Zm-.0211.0211c-.0578-.724-.093-1.5024-.1252-2.2876-.0218-.7914-.0243-1.5952-.0011-2.3895l.004-.14.1329.0033q.6624.0163,1.3245.0552l.0866.0051L32.58,55.9a17.586,17.586,0,0,0,.0064,2.3332c.026.3889.0429.7778.0446,1.1666l-.0233,1.1666-.0022.1143-.1073-.0048C32.03,60.6551,31.571,60.6167,31.1631,60.5772Z"/><path class="cls-1" d="M31.39,56.7522a.1235.1235,0,0,1,.1384-.12c.06-.0061.12-.0078.18-.0186l.36-.0547c.0336-.0044.0522-.01.098-.0133a.2052.2052,0,0,1,.1657.085c.0762.1484.0348.1773.05.2429a2.99,2.99,0,0,1-.007.36c-.0214.24-.0648.4806-.0759.7209a5.0445,5.0445,0,0,0,.0334.7209c.0226.1148-.13.2168-.2052.2013-.06.0075-.12.0128-.18.0166l-.36.0219-.1007.0031a.2462.2462,0,0,1-.1876-.1051c-.081-.1729-.0316-.1913-.05-.2593-.0055-.12-.0035-.24-.0036-.36C31.2282,57.7133,31.3835,57.2328,31.39,56.7522Zm.03,0c.007.4806.1622.9611.1443,1.4417,0,.12.0019.24-.0036.36-.0058.0493.0024.16-.0158.0944a.0466.0466,0,0,0-.0371-.0176l.08.0037.36.022c.06.0038.12.0091.18.0166.0452.0071.0229.0142.0417.0023a5.0718,5.0718,0,0,0,.0334-.7208c-.011-.24-.0546-.4806-.0759-.7209a2.97,2.97,0,0,1-.007-.36c.0028-.0516.0025-.1522.016-.1108a.0111.0111,0,0,0,.0153-.0023c-.0143-.0049-.0558-.0094-.0823-.0141l-.36-.0547C31.6,56.6877,31.4312,56.6239,31.42,56.7522Z"/><path class="cls-1" d="M32.85,60.5561c.4751-.04.8989-.0779,1.3141-.0989l-.1094.1093L34.0317,59.4c.0016-.3888.0185-.7777.0444-1.1666A17.5014,17.5014,0,0,0,34.0825,55.9l.0817.0817q-.6624.039-1.3246.0551l.1368-.1368c.0232.7612.0207,1.5128-.001,2.277C32.9431,58.9474,32.9079,59.7245,32.85,60.5561Zm-.0211.0211c-.0579-.724-.093-1.5024-.1252-2.2876-.0219-.7914-.0244-1.5952-.0012-2.3895l.0041-.14.1329.0033q.6623.0163,1.3246.0552l.0864.0051L34.246,55.9a17.569,17.569,0,0,0,.0064,2.3332c.0259.3889.0428.7778.0446,1.1666l-.0233,1.1666-.0022.1143-.1073-.0048C33.6964,60.6551,33.2369,60.6167,32.829,60.5772Z"/><path class="cls-1" d="M33.0563,56.7522a.1234.1234,0,0,1,.1383-.12c.06-.0061.12-.0078.18-.0186l.36-.0547c.0335-.0044.0522-.01.098-.0133a.205.205,0,0,1,.1657.085c.0762.1484.0347.1773.05.2429a2.9493,2.9493,0,0,1-.007.36c-.0213.24-.0649.4806-.0758.7209a5.0592,5.0592,0,0,0,.0334.7209c.0226.1148-.13.2168-.2053.2013-.06.0075-.12.0128-.18.0166l-.3605.0219-.1006.0031a.246.246,0,0,1-.1876-.1051c-.0809-.1729-.0317-.1913-.05-.2593-.0055-.12-.0035-.24-.0036-.36C32.8942,57.7133,33.0494,57.2328,33.0563,56.7522Zm.03,0c.0068.4806.1621.9611.1443,1.4417,0,.12.0019.24-.0037.36-.0058.0493.0024.16-.0159.0944a.0462.0462,0,0,0-.037-.0176l.0795.0037.3605.022c.06.0038.12.0091.18.0166.0452.0071.0231.0142.0417.0023a5.0425,5.0425,0,0,0,.0334-.7208c-.0109-.24-.0545-.4806-.0758-.7209a2.97,2.97,0,0,1-.0071-.36c.0029-.0516.0026-.1522.0162-.1108a.0109.0109,0,0,0,.0151-.0023c-.0143-.0049-.0557-.0094-.0822-.0141l-.36-.0547C33.266,56.6877,33.0971,56.6239,33.0862,56.7522Z"/><path class="cls-3" d="M36.9205,9.2234A1.2974,1.2974,0,1,1,38.2179,7.926,1.2987,1.2987,0,0,1,36.9205,9.2234Zm0-1.9977a.7.7,0,1,0,.7.7A.7013.7013,0,0,0,36.9205,7.2257Z"/></g></g></g></svg>