<svg xmlns="http://www.w3.org/2000/svg" viewBox="0 0 59.6001 110.9768"><defs><style>.cls-1{fill:#575756;}.cls-2{fill:#0087b9;}</style></defs><title>Element 37</title><g id="Ebene_2" data-name="Ebene 2"><g id="Ebene_1-2" data-name="Ebene 1"><g id="Illustrationen"><path class="cls-1" d="M31.5982,56.9045a10.5991,10.5991,0,0,1-2.817,7.2333,9.7662,9.7662,0,0,1-7.2334,3.0642,10.1626,10.1626,0,0,1-3.9053-.87,10.851,10.851,0,0,1-3.26-2.2621,10.62,10.62,0,0,1-3.0365-7.1658A10.1624,10.1624,0,0,1,21.5477,46.5383a9.9153,9.9153,0,0,1,7.2406,3.1256A10.5624,10.5624,0,0,1,31.5982,56.9045Zm-.0679,0a9.4935,9.4935,0,0,0-3.0576-6.925,10.2094,10.2094,0,0,0-6.925-2.7418,9.8749,9.8749,0,0,0-9.8309,9.6669,9.5025,9.5025,0,0,0,2.8312,7,9.6935,9.6935,0,0,0,7,2.7358A10.3889,10.3889,0,0,0,28.48,63.8368,9.52,9.52,0,0,0,31.53,56.9045Z"/><path class="cls-1" d="M43.3271,102.44c-.2288-4.7329-.2981-9.4658-.2471-14.1986.0426-2.3665.154-4.733.1636-7.0994a29.6665,29.6665,0,0,0-.0806-3.534A8.2285,8.2285,0,0,0,42.1169,74.31a5.8948,5.8948,0,0,0-2.4785-2.2841,8.86,8.86,0,0,0-3.3019-.85c-1.1423-.0806-2.3338-.015-3.5133-.0133-1.1834.0147-2.3673-.0035-3.5509-.0036-4.7347-.01-9.4705-.106-14.2035-.3158v-.0679c4.7327-.21,9.4625-.3056,14.1937-.3157,1.1829,0,2.3654-.0183,3.5485-.0037,1.1859.022,2.3648-.0237,3.582.0846A8.9683,8.9683,0,0,1,39.89,71.55a6.1479,6.1479,0,0,1,2.55,2.5765,9.23,9.23,0,0,1,.96,3.4558c.1093,1.1937.0442,2.377.0783,3.5592.01,2.3664.1209,4.7329.1635,7.0994.051,4.7328-.0182,9.4657-.2471,14.1986Z"/><path class="cls-1" d="M33.1246,109.6168c-.1154-2.1979-.1641-4.3959-.216-6.5938-.0155-2.198-.0705-4.396-.0442-6.5939,0-2.198.09-4.3959.14-6.5938s.06-4.3959.0315-6.5939l-.0017-.1215.1247-.0017c1.1063-.0141,2.2125-.0478,3.3186-.0746l.1913-.0046.0064.2024c.1042,3.2.1235,6.3993.1568,9.599L36.8207,97.64c.0017,1.6-.0508,3.2-.0735,4.8l-.27-.27c1.1473.015,2.2946.0641,3.4418.0944s2.2946.0955,3.4419.1415v.0678c-1.1473.0462-2.2946.1108-3.4419.1415s-2.2945.0795-3.4418.0946l-.2661.0035-.0038-.2735c-.0229-1.6-.0752-3.2-.0735-4.8L36.1228,92.84c.0333-3.2.0526-6.3993.1568-9.599l.1975.1976c-1.1061-.0268-2.2123-.06-3.3186-.0746l.123-.123q-.0425,3.297.0315,6.5939c.0495,2.1979.14,4.3958.14,6.5938.0263,2.1979-.0287,4.3959-.0442,6.5939-.0519,2.1979-.1005,4.3959-.2159,6.5938Z"/><path class="cls-2" d="M43.8575,27.7034,38.9511,45.7022l-.4267-.2217,8.1869-10.2061,4.1145-5.0862,4.1331-5.0712.0388-.0476.0758-.035a5.2351,5.2351,0,0,0,1.8136-1.5524,9.9064,9.9064,0,0,0,1.2479-2.151A13.4089,13.4089,0,0,0,59.2432,16.45a14.276,14.276,0,0,0-.6681-4.9828,12.12,12.12,0,0,0-2.5081-4.35,12.6193,12.6193,0,0,0-4.0233-3.0294,19.4392,19.4392,0,0,0-2.3286-1.0081c-.7917-.3008-1.6169-.5111-2.4233-.7712A54.833,54.833,0,0,0,37.25.6718,76.368,76.368,0,0,0,27.0714.5847a51.2082,51.2082,0,0,0-10.028,1.496,19.8225,19.8225,0,0,0-2.3966.7749,11.2779,11.2779,0,0,0-1.16.4766l-1.1111.5736A13.7367,13.7367,0,0,0,8.596,7.1a14.1148,14.1148,0,0,0-2.93,9.2861l0,.0114.0011.0158a12.4451,12.4451,0,0,0,1.61,5.1959,13.14,13.14,0,0,0,3.6778,4.0516A16.8518,16.8518,0,0,0,15.9384,28.05c.9037.2246,1.7932.4969,2.7268.6339.9242.165,1.8459.35,2.78.4522A57.1207,57.1207,0,0,0,32.7,29.5446,53.0863,53.0863,0,0,0,43.8575,27.7034Zm-.0467.0493a11.97,11.97,0,0,1-1.32.4286q-.6813.196-1.37.363c-.9173.2282-1.8423.4248-2.7717.6a52.7229,52.7229,0,0,1-5.6248.7432A57.5462,57.5462,0,0,1,21.38,29.64c-.9446-.09-1.8772-.2625-2.8132-.4157-.9389-.1238-1.8633-.3891-2.7936-.6075a17.4763,17.4763,0,0,1-5.21-2.4093,13.265,13.265,0,0,1-5.0464-6.9123,11.6707,11.6707,0,0,1-.5545-2.87l.0014.027a15.1937,15.1937,0,0,1,.6578-5.1793A13.3835,13.3835,0,0,1,8.0541,6.6648,14.417,14.417,0,0,1,12.0492,3.33l1.1625-.5909a11.859,11.859,0,0,1,1.2036-.4865,20.472,20.472,0,0,1,2.4653-.78A49.4373,49.4373,0,0,1,27.0442.0754a77.0511,77.0511,0,0,1,10.237.2289A55.1357,55.1357,0,0,1,47.3642,2.049c.8111.27,1.6391.49,2.4357.8013a19.7117,19.7117,0,0,1,2.3445,1.0424,13.5712,13.5712,0,0,1,4.093,3.071,13.5929,13.5929,0,0,1,3.3592,9.4969,13.7818,13.7818,0,0,1-1.05,5.0439,10.356,10.356,0,0,1-1.2692,2.2774,5.6294,5.6294,0,0,1-2.0148,1.7554l.1144-.0826-4.0932,5.1035-4.1117,5.0882L38.906,45.7891l-.7794.9564.3526-1.1781Z"/><path class="cls-1" d="M.2628,102.6043C.0342,98.2-.0351,93.7952.0159,89.3907c.0425-2.2023.154-4.4045.1635-6.6068.0222-1.1011.0094-2.2023-.0018-3.3034A16.4157,16.4157,0,0,1,.42,76.1582a7.4566,7.4566,0,0,1,1.315-3.1112,5.701,5.701,0,0,1,2.7868-1.9823,9.93,9.93,0,0,1,3.3648-.45l3.3068.0094c4.4023.01,8.8031.1059,13.2074.3157v.0678c-4.4048.21-8.8131.3057-13.22.3158-1.1007-.0009-2.2066.0215-3.3-.0019a9.2663,9.2663,0,0,0-3.1572.348,5.3118,5.3118,0,0,0-2.5672,1.7115A7.3712,7.3712,0,0,0,.7823,76.24,13.68,13.68,0,0,0,.416,79.4805C.4047,80.5816.392,81.6828.4142,82.7839c.01,2.2023.1209,4.4045.1635,6.6068C.6287,93.7952.56,98.2.3307,102.6043Z"/><path class="cls-1" d="M10.1108,110.9768c-.1155-2.1979-.1641-4.3959-.216-6.5939-.0156-2.1979-.0705-4.3959-.0443-6.5938,0-2.1979.09-4.3959.14-6.5938s.06-4.396.0314-6.5939l.123.123c-1.0523.0132-2.1047.0465-3.1571.0716l.1947-.1946c.107,3.2.1262,6.3993.16,9.5989L7.33,99c-.0029,1.6-.0529,3.2-.0771,4.8l-.0041.2718-.2617-.006q-3.2743-.0752-6.5487-.2318v-.0679q3.2744-.1595,6.5487-.2319l-.2657.2658c-.0242-1.6-.0742-3.2-.0771-4.8L6.6325,94.2c.0341-3.2.0532-6.3992.16-9.5989l.0067-.1993.1881.0045c1.0524.0251,2.1048.0585,3.1571.0717l.1247.0015-.0016.1216q-.0425,3.2969.0314,6.5939c.05,2.1979.14,4.3959.14,6.5938.0262,2.1979-.0287,4.3959-.0443,6.5938-.0518,2.198-.1,4.396-.2159,6.5939Z"/></g></g></g></svg>