<svg xmlns="http://www.w3.org/2000/svg" viewBox="0 0 86.3576 84.8831"><defs><style>.cls-1{fill:#0087b9;}.cls-2{fill:#575756;}</style></defs><title>Element 31</title><g id="Ebene_2" data-name="Ebene 2"><g id="Ebene_1-2" data-name="Ebene 1"><g id="Illustrationen"><path class="cls-1" d="M24.9572,44.09a8.3321,8.3321,0,0,1-2.1538,5.6318,7.3507,7.3507,0,0,1-2.5512,1.8049,7.7076,7.7076,0,0,1-3.08.596,8.1224,8.1224,0,0,1-5.5643-2.4684A8.3543,8.3543,0,0,1,9.2344,44.09a7.8237,7.8237,0,0,1,2.23-5.7068,7.9679,7.9679,0,0,1,5.7068-2.4065,7.7151,7.7151,0,0,1,5.6391,2.4742A8.3333,8.3333,0,0,1,24.9572,44.09Zm-.0678,0a7.2527,7.2527,0,0,0-2.3943-5.3234A7.8631,7.8631,0,0,0,17.1716,36.7a7.5816,7.5816,0,0,0-5.2556,2.1342,7.7283,7.7283,0,0,0-2.31,5.2557,7.2361,7.2361,0,0,0,2.1678,5.3982,7.4227,7.4227,0,0,0,5.3982,2.0725,8.18,8.18,0,0,0,5.3307-2.14A7.2552,7.2552,0,0,0,24.8894,44.09Z"/><path class="cls-2" d="M65.2733,44.09A8.3329,8.3329,0,0,1,63.12,49.7216a7.352,7.352,0,0,1-2.5513,1.8049,7.7083,7.7083,0,0,1-3.0805.596,8.1218,8.1218,0,0,1-5.5642-2.4684A8.3534,8.3534,0,0,1,49.5505,44.09a7.8232,7.8232,0,0,1,2.23-5.7068,7.9683,7.9683,0,0,1,5.7068-2.4065,7.7152,7.7152,0,0,1,5.6393,2.4742A8.3337,8.3337,0,0,1,65.2733,44.09Zm-.0679,0a7.2527,7.2527,0,0,0-2.3943-5.3234A7.8629,7.8629,0,0,0,57.4876,36.7a7.5816,7.5816,0,0,0-5.2555,2.1342,7.7289,7.7289,0,0,0-2.31,5.2557A7.2369,7.2369,0,0,0,52.09,49.4881a7.4229,7.4229,0,0,0,5.3983,2.0725,8.1806,8.1806,0,0,0,5.3308-2.14A7.2554,7.2554,0,0,0,65.2054,44.09Z"/><path class="cls-2" d="M46.6034,79.3286c-.0644-1.2381-.1209-2.4762-.1505-3.7143s-.0768-2.4761-.0811-3.7142c-.0279-2.4762-.0737-4.9524.0077-7.4286l.0087-.2647.2492.0068,2.4825.069.2014.0056-.0124.1833a44.5062,44.5062,0,0,0-.0232,5.103c.0871,1.7009.15,3.4018.17,5.1028.0467,1.7009.0326,3.4019-.0247,5.1028-.0508,1.7011-.1257,3.402-.2775,5.1029H49.086c-.1518-1.7009-.2267-3.4018-.2775-5.1029-.0573-1.7009-.0714-3.4019-.0247-5.1028.0207-1.701.0833-3.4019.17-5.1028a44.5062,44.5062,0,0,0-.0232-5.103l.1889.1889-2.4825.0689.2578-.2578c.0813,2.4762.0354,4.9524.0076,7.4286-.0043,1.2381-.0523,2.4762-.0811,3.7142s-.086,2.4762-.15,3.7143Z"/><path class="cls-2" d="M41.7629,67.7385c.0812.9717.1054,1.9407.11,2.9088.0215.969-.0106,1.9354-.0456,2.9017s-.0934,1.9315-.1717,2.8958c-.0917.9637-.1767,1.9276-.3176,2.889l-.1134-.1188,5.4131.1136-5.4131.1136-.1071.0022-.0065-.1211c-.0511-.97-.0463-1.9381-.0482-2.9061q.0172-1.4511.0977-2.8991c.0548-.9655.1125-1.9307.2239-2.8934C41.4781,69.6611,41.5921,68.6984,41.7629,67.7385Z"/><path class="cls-2" d="M73.7172,79.3286c-.2293-3.6627-.2967-7.3254-.2482-10.9881.0485-1.8313.1472-3.6626.1722-5.494a23.2321,23.2321,0,0,0-.07-2.7321,6.2586,6.2586,0,0,0-.8193-2.5342,4.5332,4.5332,0,0,0-1.91-1.7345,6.8493,6.8493,0,0,0-2.5331-.64c-.8758-.0594-1.7992-.0063-2.7113-.0023l-2.7481.0084c-3.6647-.0341-7.33-.1126-10.993-.3278v-.0678c3.6625-.2152,7.3223-.2937,10.983-.3278l2.7459.0083c.9185.02,1.8293-.0134,2.78.0735a6.96,6.96,0,0,1,2.7281.7995,4.7878,4.7878,0,0,1,1.9814,2.0269,7.2641,7.2641,0,0,1,.7335,2.6923c.0826.9275.03,1.8424.0528,2.7573.025,1.8314.1239,3.6627.1724,5.494.0483,3.6627-.0191,7.3254-.2484,10.9881Z"/><path class="cls-2" d="M65.8217,84.883c-.1154-1.7009-.164-3.4018-.2159-5.1029-.0187-1.7009-.0634-3.4019-.0515-5.1028s.0956-3.4019.1469-5.1028c.0636-1.701.0546-3.402.0315-5.103l-.0017-.121.1247-.0021c.856-.0141,1.7121-.0478,2.5682-.0746l.1892-.0059.0085.2036c.1041,2.4762.1235,4.9524.1568,7.4286q.0183,1.857-.0061,3.7142c-.0082,1.2381-.0535,2.4761-.0784,3.7142l-.27-.27c.8879.0151,1.7757.0642,2.6636.0945.8878.0345,1.7757.084,2.6636.1414v.0679c-.8879.0575-1.7758.107-2.6636.1415-.8879.03-1.7757.0795-2.6636.0945l-.2644.0045-.0055-.2745c-.025-1.2381-.07-2.4761-.0784-3.7142Q68.0489,73.7572,68.07,71.9c.0333-2.4762.0527-4.9524.1568-7.4286l.1976.1977c-.8561-.0268-1.7122-.0605-2.5682-.0746l.123-.1231c-.0233,1.701-.0323,3.402.0315,5.103.0513,1.7009.1351,3.4018.1467,5.1028s-.0326,3.4019-.0513,5.1028c-.0519,1.7011-.1006,3.402-.216,5.1029Z"/><path class="cls-1" d="M8.2533,73.9611a18.935,18.935,0,0,1,.3954,2.7306c.0811.91.1028,1.82.1129,2.73-.0088.91-.03,1.82-.1114,2.7305a18.7029,18.7029,0,0,1-.3969,2.73,18.7031,18.7031,0,0,1-.397-2.73c-.0809-.91-.1025-1.82-.1114-2.7305.01-.91.0318-1.82.113-2.73A18.8933,18.8933,0,0,1,8.2533,73.9611Z"/><path class="cls-1" d="M24.9551,84.8831l-.1611-9.4392-.1091-9.44-.0006-.0474.02-.0488.3366-.8042.2383-.5695.226.5794,3.2759,8.4-.0087-.02a8.1045,8.1045,0,0,0,1.3648,1.9511,2.3765,2.3765,0,0,0,1.9279.8882,3.1074,3.1074,0,0,0,1.7482-1.3348,20.0107,20.0107,0,0,0,1.344-2.0419c.829-1.4169,1.56-2.8991,2.2575-4.3948.7006-1.4946,1.3658-3.0112,1.9842-4.54l.3206-.1172a.7109.7109,0,0,0,.1954-.0024,1.3993,1.3993,0,0,0,.2826-.0847,2.8911,2.8911,0,0,0,.5584-.3187,7.2339,7.2339,0,0,0,1.0056-.8939c.1528-.1614.3184-.34.45-.5a1.2532,1.2532,0,0,0,.2356-.5483,2.5,2.5,0,0,0-.15-1.2689,3.6952,3.6952,0,0,0-.6617-1.1419,1.9958,1.9958,0,0,0-1.0531-.697,1.128,1.128,0,0,0-1.0882.4756c-.32.328-.6287.67-.9327,1.0166-.6067.6944-1.1942,1.4077-1.7831,2.1208l-.8927,1.0654a4.8591,4.8591,0,0,0-.4322.5236c-.1247.1879-.2393.3874-.3521.5877-.4463.806-.85,1.6415-1.3357,2.4374a6.397,6.397,0,0,1-.8378,1.1364,1.2337,1.2337,0,0,1-.6524.3885.7138.7138,0,0,1-.6791-.395l-.0131-.0225L31.579,67.76l-1.0237-5.5726.0105.0365a13.4486,13.4486,0,0,1-.8134-2.7663c-.1868-.9387-.2587-1.9033-.5045-2.7811a2.12,2.12,0,0,0-.6556-1.0925,2.3843,2.3843,0,0,0-1.203-.4526,9.3717,9.3717,0,0,0-1.3876-.0447l-1.4224.0139-11.4066.065-5.6968.0177a11.2256,11.2256,0,0,0-2.7562.23,5.1054,5.1054,0,0,0-2.3669,1.174,4.6027,4.6027,0,0,0-1.3341,2.25,9.6991,9.6991,0,0,0-.3038,2.7216l.0034,2.842q.0327,1.4181.1088,2.8369a48.3029,48.3029,0,0,0,.5684,5.6237A5.3317,5.3317,0,0,0,2.31,75.34a1.5565,1.5565,0,0,0,.9884.5772,2.2158,2.2158,0,0,0,1.1971-.24A7.3625,7.3625,0,0,0,6.6171,73.99a16.2466,16.2466,0,0,1,2.07-2.0175,9.0631,9.0631,0,0,1,2.52-1.4924,7.82,7.82,0,0,0,1.254-.5639c.3732-.2087.79-.54.788-.8018.0147-.2585-.4431-.5237-.8449-.7412-.4094-.2271-.8306-.4393-1.2557-.643-.8512-.4057-1.72-.7794-2.6038-1.1051-.4418-.1612-.8881-.3117-1.3376-.4282a4.8934,4.8934,0,0,0-.6709-.1314,1.3771,1.3771,0,0,0-.31-.0043c-.1024.014-.1258.0453-.1153.0363a21.1494,21.1494,0,0,1-.8076,2.76,13.2539,13.2539,0,0,1-.5506,1.3335,2.7348,2.7348,0,0,1-.4047.6384.5509.5509,0,0,1-.1979.1409.2282.2282,0,0,1-.2227-.0217.3142.3142,0,0,1-.0962-.13,1.3509,1.3509,0,0,1-.0821-.3931,15.3184,15.3184,0,0,1,.1776-2.87,23.86,23.86,0,0,1,.5488-2.8059A11.4192,11.4192,0,0,1,4.9194,63.39a2.7787,2.7787,0,0,1,.7883-1.1939l.0383.056a2.7113,2.7113,0,0,0-.73,1.176A11.3009,11.3009,0,0,0,4.61,64.785a23.68,23.68,0,0,0-.4746,2.7979,15.1814,15.1814,0,0,0-.1062,2.8142,1.1519,1.1519,0,0,0,.0659.3009c.0062.0185.0184.0246.0053.0145-.0165-.0229-.0856-.01-.0558-.0179a.3.3,0,0,0,.0845-.0706,2.6846,2.6846,0,0,0,.3417-.57,12.9787,12.9787,0,0,0,.5177-1.3071,20.8427,20.8427,0,0,0,.7548-2.7164.3909.3909,0,0,1,.1928-.267.6734.6734,0,0,1,.2359-.0765,1.7294,1.7294,0,0,1,.4011-.0027,5.24,5.24,0,0,1,.7285.1313c.472.1154.9291.2629,1.3819.4208.904.3189,1.7875.6842,2.6569,1.0838.4345.2008.8653.41,1.29.638a6.183,6.183,0,0,1,.6423.3812,1.0158,1.0158,0,0,1,.469.77,1.1152,1.1152,0,0,1-.4022.7937,3.3975,3.3975,0,0,1-.6187.4557,8.321,8.321,0,0,1-1.333.623,8.55,8.55,0,0,0-2.34,1.4361,15.6571,15.6571,0,0,0-1.9775,1.985A7.9522,7.9522,0,0,1,4.776,76.2664a2.8646,2.8646,0,0,1-1.5592.3186,2.2066,2.2066,0,0,1-1.4254-.8045,3.9,3.9,0,0,1-.7282-1.3665,11.9172,11.9172,0,0,1-.3438-1.4275,48.897,48.897,0,0,1-.5923-5.71Q.0476,65.8478.0106,64.4179L0,61.56a10.2335,10.2335,0,0,1,.3282-2.9213,5.3133,5.3133,0,0,1,1.5539-2.5707,5.7927,5.7927,0,0,1,2.6834-1.32,11.8664,11.8664,0,0,1,2.9085-.23l5.703.0176,11.3937.065,1.4277.0052a9.7724,9.7724,0,0,1,1.4569.0685,2.8237,2.8237,0,0,1,1.4181.5679,2.5465,2.5465,0,0,1,.7811,1.3161c.2524.9594.3039,1.9042.477,2.83a13.1468,13.1468,0,0,0,.7533,2.7027l.0078.0192.0029.0175.9295,5.5891-.0172-.0446c.11.181.2636.3132.4368.2858a1.0229,1.0229,0,0,0,.5159-.3155,6.2029,6.2029,0,0,0,.8133-1.0858c.4826-.7812.9017-1.6047,1.3456-2.42.1116-.204.2249-.4073.3535-.6062a4.87,4.87,0,0,1,.4437-.55l.8807-1.0682c.5831-.7176,1.1661-1.437,1.7708-2.14.3032-.351.6114-.6985.9346-1.0349a2.0735,2.0735,0,0,1,.57-.4655,1.23,1.23,0,0,1,.76-.1079,2.284,2.284,0,0,1,1.24.772,4.0217,4.0217,0,0,1,.7466,1.231,2.8463,2.8463,0,0,1,.1939,1.4519,1.6338,1.6338,0,0,1-.2944.7175c-.1576.2-.3051.3633-.4659.5411a7.583,7.583,0,0,1-1.047.9665,3.3024,3.3024,0,0,1-.6373.3783,1.1155,1.1155,0,0,1-.8667.079l.32-.117a66.7188,66.7188,0,0,1-4.1582,9.0667,20.5689,20.5689,0,0,1-1.375,2.1149,7.2924,7.2924,0,0,1-.8821.9628,2.567,2.567,0,0,1-1.2539.6021,2.3012,2.3012,0,0,1-1.38-.2625,4.1109,4.1109,0,0,1-1.0559-.8129,8.6414,8.6414,0,0,1-1.46-2.1161l-.0041-.0081-.0047-.0122-3.2114-8.4246.4642.01-.36.7942.02-.0958-.0434,9.44-.0954,9.44Z"/><path class="cls-1" d="M74.1406,21.4861l-3.7488,13.95-.4267-.2217,6.3269-7.9056,3.1843-3.9359,3.2031-3.9208.0394-.0481.0751-.0345a4.003,4.003,0,0,0,1.3808-1.1784,7.5992,7.5992,0,0,0,.9632-1.65,10.3342,10.3342,0,0,0,.8644-3.7591,10.9871,10.9871,0,0,0-.5057-3.8453,9.3535,9.3535,0,0,0-1.9317-3.3588,9.7535,9.7535,0,0,0-3.104-2.3428,20.155,20.155,0,0,0-3.672-1.38,40.8677,40.8677,0,0,0-7.77-1.2407A59.1886,59.1886,0,0,0,61.148.5625a39.8423,39.8423,0,0,0-7.7451,1.1689,15.2747,15.2747,0,0,0-1.8469.5991,12.0143,12.0143,0,0,0-1.7466.81,10.5567,10.5567,0,0,0-2.901,2.4562,10.876,10.876,0,0,0-2.2494,7.13l0,.0111.0012.0162a9.5593,9.5593,0,0,0,1.2337,3.9835,10.1036,10.1036,0,0,0,2.8227,3.1124,12.9672,12.9672,0,0,0,3.8311,1.8468,31.0052,31.0052,0,0,0,4.25.8476,44.1575,44.1575,0,0,0,8.7.3341A41.7913,41.7913,0,0,0,74.1406,21.4861Zm-.0465.0492a28.35,28.35,0,0,1-4.2172,1.0959,39.77,39.77,0,0,1-4.3547.5892,44.5876,44.5876,0,0,1-8.7888-.1728,31.4784,31.4784,0,0,1-4.35-.7848,13.5951,13.5951,0,0,1-4.0578-1.8667,10.6672,10.6672,0,0,1-3.031-3.3159,10.1915,10.1915,0,0,1-1.3389-4.3153l.0015.0269a11.83,11.83,0,0,1,.5108-4.04,10.4031,10.4031,0,0,1,1.8989-3.5914,11.2329,11.2329,0,0,1,3.116-2.5968,12.6713,12.6713,0,0,1,1.8419-.8368A15.9007,15.9007,0,0,1,53.24,1.1232a38.066,38.066,0,0,1,7.8808-1.07A59.5658,59.5658,0,0,1,69.05.247a44.3374,44.3374,0,0,1,7.8039,1.3759A20.3744,20.3744,0,0,1,80.5584,3.046a10.245,10.245,0,0,1,5.7972,9.7463,10.7072,10.7072,0,0,1-.8064,3.9218,8.0692,8.0692,0,0,1-.9847,1.7767,4.3981,4.3981,0,0,1-1.5818,1.3814l.1144-.0825-3.1631,3.953-3.1818,3.938-6.4054,7.8421-.7857.9619L69.92,35.301Z"/><path class="cls-2" d="M10.352,65.527c.93-1.3087,1.9136-2.5728,2.9011-3.8336l.07-.09.1305-.0043a40.7736,40.7736,0,0,1,4.2547.0257c.7091.0356,1.4182.0929,2.1273.1151.7091.0286,1.4183.0151,2.1274,0l.2086-.0046-.1042.1869c-.5528.992-1.06,2.01-1.5973,3.0118s-1.0966,1.9892-1.6512,2.98c-.55.9935-1.134,1.9674-1.7256,2.9366-.6062.9607-1.2,1.9289-1.8309,2.875l-.0855.128-.1326-.0236c-1.48-.2646-2.9576-.54-4.4316-.8419l.01-.067c1.4982.1393,2.9925.3053,4.4852.4819l-.2179.1044c.5166-1.0133,1.071-2.0043,1.6126-3.0029.5562-.99,1.12-1.9754,1.7178-2.9412.5932-.9683,1.18-1.94,1.7923-2.8975s1.251-1.8987,1.846-2.8661l.1044.1822c-.7091-.0156-1.4183-.0291-2.1274,0-.7091.0221-1.4182.0794-2.1273.115a40.7461,40.7461,0,0,1-4.2547.0256l.2006-.0939c-1.063,1.1979-2.13,2.3926-3.2505,3.5425Z"/><path class="cls-2" d="M41.5621,56.9634a14.8644,14.8644,0,0,1,.6421-1.8171,4.9258,4.9258,0,0,1,1.0285-1.6977c.2617-.2488.5081-.41.7694-.6209a1.96,1.96,0,0,1,.9374-.422,3.1686,3.1686,0,0,1,1.8668.6409,2.3777,2.3777,0,0,1,.7709.7249,1.8243,1.8243,0,0,1,.2091,1.1071,3.4763,3.4763,0,0,1-.9741,1.8433,4.7658,4.7658,0,0,1-1.67,1.1455c-.57.2634-1.1457.5234-1.756.7455l-.0352-.058c.4961-.4165,1.0263-.7952,1.5628-1.17a6.7244,6.7244,0,0,0,.7274-.5235,6.17,6.17,0,0,0,.64-.6307,3.4673,3.4673,0,0,0,.8748-1.4523,1.4452,1.4452,0,0,0-.0634-.7582,2.1722,2.1722,0,0,0-.5107-.6771,2.0606,2.0606,0,0,0-1.61-.72,1.2907,1.2907,0,0,0-.7165.4839c-.1949.2354-.436.49-.6014.7166-.182.2355-.35.4862-.5149.7417-.162.2515-.2956.525-.4622.8094a14.9077,14.9077,0,0,1-1.0547,1.6188Z"/></g></g></g></svg>