<svg xmlns="http://www.w3.org/2000/svg" viewBox="0 0 35.7754 105.8526"><defs><style>.cls-1{fill:#0087b9;}.cls-2{fill:#575756;}</style></defs><title>Element 30</title><g id="Ebene_2" data-name="Ebene 2"><g id="Ebene_1-2" data-name="Ebene 1"><g id="Illustrationen"><path class="cls-1" d="M26.2138,16.8132,20.8461,26.939l-.3737-.2937,6.1594-5.77q1.5359-1.4469,3.0983-2.865l3.1158-2.8462.0314-.0287.0567-.0257a3.0761,3.0761,0,0,0,1.055-.8969,5.8812,5.8812,0,0,0,.7488-1.2734,8.0508,8.0508,0,0,0,.6828-2.9142A7.76,7.76,0,0,0,33.54,4.4223a10.3849,10.3849,0,0,0-5.2745-2.8939A31.8,31.8,0,0,0,22.2083.5727,44.9893,44.9893,0,0,0,16.0745.548a31.8108,31.8108,0,0,0-6.0282.9213,9.094,9.094,0,0,0-5.0219,3A8.4333,8.4333,0,0,0,3.29,9.9766l0,.0084.0012.0188a7.2847,7.2847,0,0,0,.9492,3.071,7.6712,7.6712,0,0,0,2.1774,2.4065,9.7063,9.7063,0,0,0,2.9624,1.44,13.1789,13.1789,0,0,0,1.6338.3831c.5555.1019,1.11.2162,1.6716.28a34.3921,34.3921,0,0,0,6.7759.2786A33.6752,33.6752,0,0,0,26.2138,16.8132Zm-.0519.0436a4.5494,4.5494,0,0,1-.7792.2721c-.2738.0815-.5494.1565-.8262.2268-.5532.1428-1.1112.2666-1.6722.3773a30.0781,30.0781,0,0,1-3.3981.4732,34.8241,34.8241,0,0,1-6.8652-.1173c-.5722-.0517-1.1374-.1538-1.7047-.2438a13.73,13.73,0,0,1-1.7-.3566,10.3354,10.3354,0,0,1-3.1893-1.46,8.1325,8.1325,0,0,1-3.44-6.0128l.0014.0269A8.8645,8.8645,0,0,1,4.4825,4.0341,9.757,9.757,0,0,1,9.8846.8608a29.9711,29.9711,0,0,1,6.1629-.822A45.3834,45.3834,0,0,1,22.239.2065,35.35,35.35,0,0,1,28.33,1.2973a11.1286,11.1286,0,0,1,5.38,2.9718,8.33,8.33,0,0,1,2.064,5.7667,8.4222,8.4222,0,0,1-.6247,3.0769,4.6627,4.6627,0,0,1-2.0265,2.5l.0879-.0543L30.13,18.4426q-1.54,1.4424-3.0979,2.8655l-6.2331,5.6906L19.64,28.057l.7854-1.3519,2.8239-4.861C24.22,20.2146,25.2013,18.5459,26.1619,16.8568Z"/><path class="cls-2" d="M8.94,41.3885c-.3517.15-.7087.2641-1.0556.4046-.3392.1595-.692.2789-1.0187.4549A12.6371,12.6371,0,0,0,4.9885,43.39a11.8332,11.8332,0,0,0-1.5973,1.4836,5.2541,5.2541,0,0,0-1.1,1.8884l-.0059.0208-.0059.01a13.7575,13.7575,0,0,0-1.543,5.6144,27.1177,27.1177,0,0,0,.0954,5.836,26.1039,26.1039,0,0,0,1.3237,5.6628A16.363,16.363,0,0,0,5.059,68.9543l-.048.0479a13.4,13.4,0,0,1-3.4036-4.8764,19.7644,19.7644,0,0,1-1.48-5.8022,23.2188,23.2188,0,0,1,.1416-5.9747,20.63,20.63,0,0,1,.6868-2.9057A14.9747,14.9747,0,0,1,2.09,46.6863l-.0117.0309a6.902,6.902,0,0,1,.94-2.1227A6.3894,6.3894,0,0,1,4.63,42.9065a8.3992,8.3992,0,0,1,2.06-1.0732c.36-.1367.7369-.225,1.1037-.3309.3782-.0678.7546-.1341,1.1318-.18Z"/><path class="cls-2" d="M23.5223,69.6692a21.1941,21.1941,0,0,0,4.6-6.7162,17.2433,17.2433,0,0,0,1.149-3.8978,13.39,13.39,0,0,0,.0323-4.0991,20.3053,20.3053,0,0,0-1.0182-3.9722c-.2394-.6371-.4924-1.2662-.7875-1.875a17.1154,17.1154,0,0,0-1.0124-1.7474,12.634,12.634,0,0,0-2.7037-2.9569A13.2641,13.2641,0,0,0,20.2014,42.47l.0171-.0657a10.1356,10.1356,0,0,1,3.8912,1.545,10.5357,10.5357,0,0,1,2.9788,3.013,14.6784,14.6784,0,0,1,1.7374,3.8462,22.2372,22.2372,0,0,1,.7149,4.12A26.4943,26.4943,0,0,1,29.65,59.1a13.0953,13.0953,0,0,1-.967,4.0883,15.9405,15.9405,0,0,1-2.14,3.6139,14.9241,14.9241,0,0,1-2.9789,2.9207Z"/><path class="cls-2" d="M11.4874,31.1493A10.8257,10.8257,0,0,1,13.7961,29.3a4.9613,4.9613,0,0,1,2.9273-.7389,4.2528,4.2528,0,0,1,2.6917,1.483A8.6365,8.6365,0,0,1,20.9593,32.64l.014.0341.0022.0181a17.2264,17.2264,0,0,1,.0457,3.1649,12.8482,12.8482,0,0,1-.5356,3.106,7.7038,7.7038,0,0,1-1.5184,2.7978,6.5289,6.5289,0,0,1-2.7488,1.7047l-.0179.0063-.0255.0026a6.5652,6.5652,0,0,1-2.6716-.2731,4.6633,4.6633,0,0,1-2.245-1.5329,5.7773,5.7773,0,0,1-1.0608-2.4811c-.08-.4381-.08-.8835-.1168-1.3217l.0709-1.3082.0032.0642a11.2042,11.2042,0,0,1-.052-1.4661,9.2972,9.2972,0,0,1,.14-1.4482A4.2621,4.2621,0,0,1,11.4874,31.1493Zm.0468.049a2.8944,2.8944,0,0,0-.7837,1.159,4.6654,4.6654,0,0,0-.2871,1.3783,10.0461,10.0461,0,0,0,.2055,2.7957l.0024.0118.0008.0527.0193,1.2467c.0582.4066.0967.8178.177,1.214a5.4334,5.4334,0,0,0,.9564,2.16,4.2482,4.2482,0,0,0,1.9011,1.3377,5.958,5.958,0,0,0,2.3692.3111l-.0432.0089a6.4461,6.4461,0,0,0,2.5943-1.4251A6.93,6.93,0,0,0,20.25,38.8844a11.8911,11.8911,0,0,0,.2936-6.1152l.0162.0519A10.31,10.31,0,0,0,18.97,30.4525a4.2369,4.2369,0,0,0-2.32-1.3835,4.5591,4.5591,0,0,0-2.7541.4262A7.7073,7.7073,0,0,0,11.5342,31.1983Z"/><path class="cls-2" d="M21.91,104.187c.1976-2.847.08-5.7149.3172-8.5718.1121-1.4294.2144-2.8606.2074-4.2935.0189-1.4324-.0758-2.8661-.1113-4.2986-.0438-1.4327-.0465-2.865-.0734-4.2974.02-1.4326.0049-2.8637.0576-4.298.0083-1.4351.0343-2.8708.0895-4.3072.0314-.7184.0649-1.4367.1206-2.1559a14.3114,14.3114,0,0,1,.29-2.1971l-.01.136a15.39,15.39,0,0,1,.3916-5.26,18.0009,18.0009,0,0,0,.509-2.5264,14.3157,14.3157,0,0,0,.0289-2.5679A34.3852,34.3852,0,0,0,21.09,49.56l.0626-.026a50.7675,50.7675,0,0,1,1.8254,4.8787,25.3131,25.3131,0,0,1,1.0683,5.1116,14.6461,14.6461,0,0,1,.0151,2.6282,19.2361,19.2361,0,0,1-.468,2.5787,15.3415,15.3415,0,0,0-.2853,5.0727l.008.0568-.0178.0793a15.0626,15.0626,0,0,0-.24,2.0638c-.0476.71-.0735,1.4235-.0973,2.1368-.04,1.4277-.051,2.8578-.0443,4.2883.0522,1.4314.0412,2.866.0532,4.299-.0332,1.4333-.049,2.8666-.1134,4.2995-.0562,1.433-.1794,2.865-.2,4.2979-.0467,1.4326.0052,2.8666.0481,4.302a41.2167,41.2167,0,0,1-.1133,4.3026c-.04.7172-.1166,1.4324-.2053,2.1472a12.3357,12.3357,0,0,1-.41,2.1263Z"/><path class="cls-2" d="M8.3572,49.984c.0019-.0051-.0093-.0181.0084-.0007.0307.0078.0195,0,.0161.0076a.4318.4318,0,0,0-.0328.0478L8.29,50.15l-.1056.2334-.189.4789c-.12.322-.23.6477-.335.975-.21.6549-.3975,1.3168-.57,1.9825q-.5146,1.9975-.8465,4.0346a47.8009,47.8009,0,0,0-.6783,8.1927c.1657,2.733.3546,5.4941.5553,8.237.22,2.74.4088,5.5049.8206,8.1964a35.47,35.47,0,0,1,.47,4.136c.0928,1.3811.1424,2.7636.16,4.1469a48.5912,48.5912,0,0,1-.51,8.2884,14.0023,14.0023,0,0,1-1.1763,4.021,4.11,4.11,0,0,1-.2721.4635c-.1005.1577-.2088.2954-.2763.4152a.56.56,0,0,0,.0663.7192,3.4234,3.4234,0,0,0,1.7844.6885,9.8169,9.8169,0,0,0,2.0257.0944,4.7393,4.7393,0,0,0,1.9313-.4338.6227.6227,0,0,0,.29-.3255,4.2481,4.2481,0,0,0,.21-.4558,9.1687,9.1687,0,0,0,.3159-.9664,19.0439,19.0439,0,0,0,.3979-2.0127,103.8947,103.8947,0,0,0,.42-16.4923l-.153-4.1306a17.106,17.106,0,0,1,.1142-4.1573,6.1046,6.1046,0,0,1,.289-1.0211,2.3065,2.3065,0,0,1,.6007-.936.6731.6731,0,0,1,.6517-.1435.9655.9655,0,0,1,.4689.4177,3.3921,3.3921,0,0,1,.3846,1.023,28.3841,28.3841,0,0,1,.3093,4.1469c.4411,5.4694,1.657,10.8792,1.9842,16.42a28.7813,28.7813,0,0,1-.0218,4.1779,8.8616,8.8616,0,0,1-1.2067,4.0828,4.19,4.19,0,0,1-.344.4426c-.0654.0681-.1262.14-.196.2043l-.1049.0961-.0526.0479-.0232.0215a.2017.2017,0,0,0,.0481-.0575.2923.2923,0,0,0,.0385-.1831.3006.3006,0,0,0-.062-.1492.2012.2012,0,0,0-.0526-.0471.587.587,0,0,0,.0569.0189,2.0561,2.0561,0,0,0,.214.0428c.1559.0233.32.0394.4862.0509a16.6748,16.6748,0,0,0,2.0219-.0009,7.2163,7.2163,0,0,0,3.68-.9473l.0659.0159a1.4042,1.4042,0,0,1,.1038.0948l.0467.0861c.0219.0562.0748.1291.0587.1886a.4376.4376,0,0,1-.0961.1958,1.1855,1.1855,0,0,1-.1249.14,1.9579,1.9579,0,0,1-.5324.34,5.2689,5.2689,0,0,1-1.06.3253,14.0927,14.0927,0,0,1-2.1043.2521,17.3148,17.3148,0,0,1-2.11-.01c-.1779-.0135-.3565-.0313-.5412-.06a2.66,2.66,0,0,1-.2919-.0612.97.97,0,0,1-.1851-.07.4687.4687,0,0,1-.1568-.1218.3979.3979,0,0,1-.09-.2057.3816.3816,0,0,1,.0546-.2442.449.449,0,0,1,.09-.1058l.0244-.0222.0429-.0391.0862-.0778c.0576-.0517.1078-.1122.1625-.1676a3.5168,3.5168,0,0,0,.2914-.3713,8.2614,8.2614,0,0,0,1.115-3.765,28.1767,28.1767,0,0,0,.0423-4.0828c-.2929-5.4783-1.4174-10.8982-1.8076-16.4262a29.6783,29.6783,0,0,0-.2413-4.0908,3.0512,3.0512,0,0,0-.3206-.91c-.1692-.2757-.3626-.38-.5835-.1934a3.3921,3.3921,0,0,0-.7976,1.7441,16.2831,16.2831,0,0,0-.1653,4.0826l.13,4.133c.0753,2.7561.1179,5.5139.08,8.2721a66.2176,66.2176,0,0,1-.4921,8.2637,19.2806,19.2806,0,0,1-.3921,2.043,9.4372,9.4372,0,0,1-.32.999,4.5229,4.5229,0,0,1-.2191.4835.86.86,0,0,1-.1536.2484,1.1982,1.1982,0,0,1-.2276.1865,4.9622,4.9622,0,0,1-2.058.5129,10.1456,10.1456,0,0,1-2.0983-.06,3.7006,3.7006,0,0,1-2.0161-.7685.9459.9459,0,0,1-.28-.5714,1.0956,1.0956,0,0,1,.1352-.6106c.1-.1814.2061-.3157.287-.4509a3.723,3.723,0,0,0,.2437-.4309,13.5909,13.5909,0,0,0,1.0687-3.9018,53.7783,53.7783,0,0,0,.4177-8.2036,59.2134,59.2134,0,0,0-.6384-8.1895c-.4029-2.7615-.5681-5.5052-.7713-8.2592-.1855-2.7555-.3559-5.496-.4662-8.2677a46.89,46.89,0,0,1,.83-8.2541q.3952-2.0357.9656-4.03c.1917-.6635.3989-1.3225.6282-1.974.1147-.3257.2349-.6495.3644-.97l.204-.477.1141-.2343.0658-.1148a.4766.4766,0,0,1,.0423-.0572c.0121-.0055.0177-.0336.07-.02.0336.0338.0194.0441.0246.06Z"/></g></g></g></svg>