<svg xmlns="http://www.w3.org/2000/svg" viewBox="0 0 110.8398 36.2046"><defs><style>.cls-1{fill:#575756;}.cls-2{fill:#fff;}.cls-3{fill:#0087b9;}</style></defs><title>Element 46</title><g id="Ebene_2" data-name="Ebene 2"><g id="Ebene_1-2" data-name="Ebene 1"><g id="Illustrationen"><path class="cls-1" d="M0,35.8184,11.3284,25.6919c3.8117-3.4053,7.6322-6.85,11.4987-10.2395l.0859-.0754.115,0c7.2806-.009,14.5614-.0707,21.842-.0364,7.2806.0013,14.5612.0735,21.842.1266q10.9209.099,21.8418.09l21.8421-.09.4439-.0018-.2754.3508L94.7038,36.0294l-.1073.1367-.1763,0-23.7076.0382L47.01,36.12Zm.0735-.0277,47.3736-.302,23.489-.0843,23.4841.0382-.2834.1368L110.2275,15.548l.1684.3489-21.8421-.09q-10.9209.0012-21.8418.09c-7.2808.053-14.5614.1251-21.842.1266-7.2806.0342-14.5614-.0276-21.842-.0366l.2006-.0754c-3.7971,3.318-7.64,6.5809-11.4926,9.8831Z"/><path class="cls-2" d="M13.3586,31.916l14.7358-6.5245,11.7425-4.8226L34.493,28.3875s24.5344,6.0436,24.0484-1.825-7.1412-4.89-6.6071-2.6142,3.4492,4.7408,12.437,2.2937,8.4321-4.7839,8.4321-4.7839"/><path class="cls-3" d="M13.3426,31.88c4.3134-2.1189,8.6764-4.13,13.0564-6.1019,2.1724-1.0273,4.4285-1.8594,6.6465-2.78,2.2213-.9127,4.4654-1.7713,6.6981-2.6561l.7779-.3082-.4819.6739q-2.7546,3.8526-5.444,7.75l-.0727-.1907a71.8194,71.8194,0,0,0,15.1982,2.0392,25.6644,25.6644,0,0,0,3.7946-.2106,8.43,8.43,0,0,0,3.4712-1.1385,2.62,2.62,0,0,0,1.038-1.296,3.7593,3.7593,0,0,0,.0675-1.7326,5.6952,5.6952,0,0,0-1.304-3.2727,2.6888,2.6888,0,0,0-3.0915-.5225,2.59,2.59,0,0,0-1.2435,1.0476.9882.9882,0,0,0-.129.6553,2.9868,2.9868,0,0,0,.2914.7922,4.3078,4.3078,0,0,0,2.806,1.9644,11.7122,11.7122,0,0,0,3.7066.2761,34.48,34.48,0,0,0,7.4588-1.5311,24.2818,24.2818,0,0,0,3.5644-1.37,8.9966,8.9966,0,0,0,1.6152-.9967,2.2156,2.2156,0,0,0,.9984-1.5042l.0764-.0183a2.2947,2.2947,0,0,1-.9571,1.6607,9.2135,9.2135,0,0,1-1.6,1.11,21.5567,21.5567,0,0,1-3.5563,1.5438,31.6623,31.6623,0,0,1-7.55,1.7807,12.4071,12.4071,0,0,1-3.9472-.2112A4.9732,4.9732,0,0,1,51.91,25.0065a3.7813,3.7813,0,0,1-.3744-1.0076,1.7916,1.7916,0,0,1,.2034-1.2,3.3782,3.3782,0,0,1,1.6269-1.4154,3.8153,3.8153,0,0,1,2.1083-.305,3.3019,3.3019,0,0,1,1.9078.9971,6.45,6.45,0,0,1,1.4863,3.7617,4.4966,4.4966,0,0,1-.13,2.0757,3.3663,3.3663,0,0,1-1.3376,1.6483,8.7768,8.7768,0,0,1-3.7988,1.1949,25.6343,25.6343,0,0,1-3.8937.1279,62.45,62.45,0,0,1-7.6815-.8616c-2.5376-.4265-5.0584-.9236-7.5638-1.5146l-.1743-.0412.1016-.15q2.6588-3.9181,5.2435-7.887l.2961.3657c-2.2091.9394-4.4067,1.905-6.6269,2.8164L29.98,24.9959c-1.11.456-2.2231.9046-3.3188,1.3942-4.4011,1.9165-8.8191,3.7928-13.2868,5.5618Z"/><rect class="cls-2" x="75.929" y="14.6698" width="10.8636" height="2.3161"/><path class="cls-3" d="M82.4874,4.018a1.3917,1.3917,0,0,0,1.1742-.6941,2.9726,2.9726,0,0,0,.4061-1.1746A1.559,1.559,0,0,0,83.7463.8906,1.3948,1.3948,0,0,0,82.4878.4564a1.9206,1.9206,0,0,0-1.0873.6055,1.7113,1.7113,0,0,0-.4014,1.0871,2.2157,2.2157,0,0,0,.3227,1.166A1.3878,1.3878,0,0,0,82.4874,4.018Zm0,.0786a2.6831,2.6831,0,0,1-1.5317-.4158A1.8735,1.8735,0,0,1,80.16,2.1491,2.1138,2.1138,0,0,1,82.4878.0258,2.6632,2.6632,0,0,1,83.9266.71,2.2556,2.2556,0,0,1,84.7224,2.15a1.6819,1.6819,0,0,1-.7117,1.5234A2.6892,2.6892,0,0,1,82.4874,4.0966Z"/><path class="cls-3" d="M87.7911,11.0223l-3.02-1.2653L84.74,9.744l-.0088-.0348c-.317-1.253-.6613-2.4991-1.0082-3.7429a2.3268,2.3268,0,0,0-.3642-.8279,1.18,1.18,0,0,0-.71-.4307,2.835,2.835,0,0,0-1.7264.3434l.0382-.0249q-1.8964,1.6066-3.8316,3.1645l.1152-.1838c-.2107.96-.4,1.9242-.6282,2.88l-.3341,1.4357c-.0659.2755-.1039.4008-.049.5477a.5438.5438,0,0,0,1.0389-.0105L77.62,11.451l.7069-2.8676.0238-.0969.0768-.048,1.083-.6789.4385-.2749-.1188.4946c-.3619,1.5045-.719,3.01-1.0527,4.5206-.3406,1.5091-.6872,3.0169-.9982,4.5325l-.0044.0216-.0129.02c-.9309,1.4736-1.8638,2.9458-2.7729,4.4333l.0094-.0167a1.1127,1.1127,0,0,0-.0048.9316,1.06,1.06,0,0,0,.76.4988,1.02,1.02,0,0,0,.8331-.343,1.0725,1.0725,0,0,0,.15-.1791l.1494-.2425.2985-.4849,2.4017-3.8686-.0442.1071.705-3.42.146-.708.4822.5468,2.7133,3.0762.0591.067.0238.0892.9544,3.5739.2295.8955.1134.4475.0285.112c.0036-.0539-.0064-.05.0057-.022a.7216.7216,0,0,0,.06.1311.6251.6251,0,0,0,.4289.3245,1.1219,1.1219,0,0,0,.634-.0848c.3705-.15.4873-.5474.3153-1.0706L85.98,20.1177c-.31-1.1663-.6165-2.3334-.9018-3.5063l.0781.1469c-1.0367-1.2342-2.086-2.4573-3.1055-3.7067l-.0944-.1159.0355-.1284.9375-3.39.2029-.7335.1415.7384.2821,1.471-.0847-.1,1.8744.8046.9408.3936.4694.2.2343.1028.1173.0534.0589.0281c-.0019-.0191.1052.0737.0853.1246l.0025-.0053c-.006-.1112-.006-.04.0038-.0535l.0328.0181a.789.789,0,0,0,.0747.0307.8593.8593,0,0,0,.16.0412.7768.7768,0,0,0,.3245-.0115.7958.7958,0,0,0,.4547-1.0732A1.0436,1.0436,0,0,0,87.7911,11.0223Zm.0288-.0731a1.1243,1.1243,0,0,1,.565.4525.8134.8134,0,0,1,.0232.7256.8259.8259,0,0,1-.526.51.9018.9018,0,0,1-.3769.0215.9763.9763,0,0,1-.1834-.0434.902.902,0,0,1-.0894-.0349l-.0454-.0238c-.0122-.0327-.0434.0277-.0587-.1135l.0023-.0055c-.0566.0295.0167.0958-.025.0612l-.0566-.0255-.1156-.05-.2346-.0973-.4721-.19-.9475-.3741-1.9107-.71-.0665-.0247-.0182-.0751-.3556-1.4549.3443.0049L82.52,12.9381l-.059-.244c1.099,1.18,2.168,2.3859,3.25,3.5809l.0524.0579.0259.0892c.3362,1.1608.6511,2.3274.9629,3.4948l.4712,1.75.0589.2188a1.5678,1.5678,0,0,1,.0445.3008,1.7512,1.7512,0,0,1-.0614.5843,1.4138,1.4138,0,0,1-.8033.9126,1.91,1.91,0,0,1-1.1341.1452,1.4587,1.4587,0,0,1-.9813-.7177,1.5333,1.5333,0,0,1-.1282-.28.8625.8625,0,0,1-.0494-.241l-.029-.1072-.1158-.4285-.229-.8569-.88-3.4353.0827.156-2.67-3.1136.628-.1612L80.18,18.0489l-.014.0615-.03.0458-2.52,3.8039-.3168.4741-.1584.2372a1.5475,1.5475,0,0,1-.2231.25,1.3826,1.3826,0,0,1-2.241-1.5909l.0037-.0082.0059-.0088c.9686-1.45,1.9134-2.9141,2.86-4.3775l-.0172.0417c.3463-1.5079.6568-3.0236.9734-4.5379.3235-1.5128.6234-3.0307.9189-4.55l.3192.22-1.0552.7218.1-.1446-.5941,2.8882-.3056,1.4681a1.2043,1.2043,0,0,1-1.622.7662,1.2169,1.2169,0,0,1-.67-.7277,1.1991,1.1991,0,0,1-.0578-.5041c.0251-.1942.0524-.2609.0785-.3976l.317-1.4421c.2062-.9626.4506-1.9168.6739-2.8755l.0267-.1145.0889-.07q1.956-1.5313,3.9451-3.022l.0264-.02.0121-.0052a3.2265,3.2265,0,0,1,2.03-.2862,1.5348,1.5348,0,0,1,.8836.5985,2.62,2.62,0,0,1,.3713.951c.2807,1.2652.5641,2.528.8747,3.784l-.04-.0475Z"/></g></g></g></svg>