<svg xmlns="http://www.w3.org/2000/svg" viewBox="0 0 93.0813 113.8307"><defs><style>.cls-1{font-size:4.0693px;font-family:DBOffice-Regular, DB Office;}.cls-1,.cls-4{fill:#0087b9;}.cls-2{letter-spacing:-0.0371em;}.cls-3{fill:#575756;}</style></defs><title>Element 14</title><g id="Ebene_2" data-name="Ebene 2"><g id="Ebene_1-2" data-name="Ebene 1"><g id="Illustrationen"><text class="cls-1" transform="translate(4.0634 11.9193)"><tspan class="cls-2">W</tspan><tspan x="3.6899" y="0">AS?</tspan></text><text class="cls-1" transform="translate(21.1503 11.9613)">WER?</text><path class="cls-3" d="M3.468,13.6636c4.9643-.2288,9.9284-.2981,14.8928-.2471,2.4821.0426,4.9643.1541,7.4464.1636,2.4821.0347,4.9641-.0134,7.4464-.0683,4.9642-.1233,9.9285-.1864,14.8926-.1641,4.9644.01,9.9287.106,14.8929.3159v.0678c-4.9642.21-9.9285.3056-14.8929.3158q-7.4462.0334-14.8926-.1641c-2.4823-.0549-4.9643-.103-7.4464-.0682-2.4821.01-4.9643.1209-7.4464.1635-4.9644.051-9.9285-.0183-14.8928-.247Z"/><path class="cls-3" d="M37.0666,7.74c.2294,3.2508.2969,6.5016.2484,9.7524-.0485,1.6254-.1474,3.2508-.1722,4.8762-.02,1.6254.0174,3.2508.0757,4.8762.1286,3.2508.1743,6.5016.176,9.7524-.0341,3.2507-.1126,6.5015-.3279,9.7523h-.0677c-.2153-3.2508-.2937-6.5016-.3279-9.7523.0017-3.2508.0474-6.5016.1761-9.7524.0582-1.6254.0957-3.2508.0758-4.8762-.025-1.6254-.1239-3.2508-.1724-4.8762-.0483-3.2508.0191-6.5016.2484-9.7524Z"/><path class="cls-3" d="M18.1064,7.74c.2294,3.2508.2968,6.5016.2484,9.7524-.0485,1.6254-.1474,3.2508-.1724,4.8762-.02,1.6254.0176,3.2508.0759,4.8762.1286,3.2508.1743,6.5016.176,9.7524-.0341,3.2507-.1126,6.5015-.3279,9.7523h-.0678c-.2151-3.2508-.2936-6.5016-.3277-9.7523.0016-3.2508.0473-6.5016.176-9.7524.0581-1.6254.0955-3.2508.0756-4.8762-.025-1.6254-.1236-3.2508-.1722-4.8762-.0485-3.2508.0189-6.5016.2483-9.7524Z"/><path class="cls-3" d="M64.9946,52.1572,32.71,52.3813c-10.8065.0476-21.6472.0764-32.4659-.0056L0,52.3739l.0017-.2407L.0883,39.1859.1354,26.2386l-.03-12.9472L.0585.3441.0578.1592.2442.1584,32.6075.0174,64.9706,0l.3439,0V.3441c0,8.6749-.0883,17.3392-.133,25.9819Zm-.0479-.0479L64.76,26.1513c-.0449-8.62-.1332-17.2191-.1332-25.8072l.3438.3438L32.6075.6707.2442.53.43.3441.3832,13.2914l-.03,12.9472L.4,39.1859.4866,52.1332l-.2424-.2425c10.7569-.0819,21.4916-.0532,32.2605-.0055Z"/><path class="cls-4" d="M50.1806,66.5863c-.5206.2017-1.0336.3905-1.52.6333a8.4566,8.4566,0,0,0-1.3764.8371,8.2684,8.2684,0,0,0-1.1707,1.0878,3.7526,3.7526,0,0,0-.8036,1.3842l-.0046.0163-.0048.0085a9.94,9.94,0,0,0-1.1336,4.1153,19.9325,19.9325,0,0,0,.0719,4.2795,19.2176,19.2176,0,0,0,.97,4.1524,12.0058,12.0058,0,0,0,2.1258,3.7038l-.036.0359a9.8234,9.8234,0,0,1-2.5006-3.5753,14.4576,14.4576,0,0,1-1.087-4.2569,16.9926,16.9926,0,0,1,.1058-4.3835A13.9115,13.9115,0,0,1,45.15,70.4684l-.0093.0246a5.23,5.23,0,0,1,.693-1.5579,4.7992,4.7992,0,0,1,1.1832-1.2385,6.5264,6.5264,0,0,1,1.5115-.788c.2646-.1.5409-.1644.81-.2417.2776-.0491.554-.0973.8309-.13Z"/><path class="cls-4" d="M60.8759,87.3289a15.5415,15.5415,0,0,0,3.3716-4.9271,12.5963,12.5963,0,0,0,.8426-2.8581,9.9826,9.9826,0,0,0,.0249-3.006,14.8828,14.8828,0,0,0-.7495-2.9124A12.0229,12.0229,0,0,0,63.0449,70.97a9.2885,9.2885,0,0,0-1.9809-2.1683A9.7227,9.7227,0,0,0,58.44,67.3794l.0128-.0492a7.55,7.55,0,0,1,5.044,3.34,10.76,10.76,0,0,1,1.2738,2.8231,16.3214,16.3214,0,0,1,.5217,3.0234,18.7909,18.7909,0,0,1,.0813,3.06,9.6366,9.6366,0,0,1-.7093,3,11.7234,11.7234,0,0,1-3.7573,4.7922Z"/><path class="cls-4" d="M85.0686,74.6167a21.302,21.302,0,0,1-2.6143,2.74,16.1156,16.1156,0,0,1-3.108,2.1975,6.7126,6.7126,0,0,1-3.6993.85,4.4044,4.4044,0,0,1-.937-.2139,3.9977,3.9977,0,0,1-.8422-.4644,5.31,5.31,0,0,1-.7234-.6362,6.3773,6.3773,0,0,1-.5739-.7731,9.6353,9.6353,0,0,1-1.2883-3.5952,14.4025,14.4025,0,0,1-.1323-3.823,7.4747,7.4747,0,0,1,1.2456-3.6391A4.6758,4.6758,0,0,1,73.84,65.9669a5.5064,5.5064,0,0,1,1.8011-.624l.0111.05a5.1068,5.1068,0,0,0-2.929,2.0926A7.5843,7.5843,0,0,0,71.69,70.9505a16.2843,16.2843,0,0,0,.065,3.6977A10.73,10.73,0,0,0,72.81,78.1744a4.0549,4.0549,0,0,0,1.1639,1.4074,3.8327,3.8327,0,0,0,.7923.4619,3.4282,3.4282,0,0,0,.8989.1854,6.0245,6.0245,0,0,0,3.4806-1.0454,33.2811,33.2811,0,0,0,5.885-4.6008Z"/><path class="cls-4" d="M83.0278,63.2332a7.9109,7.9109,0,0,1,2.0461-.3806,6.1682,6.1682,0,0,1,2.1.2058,3.9872,3.9872,0,0,1,1.8489,1.1,18.3881,18.3881,0,0,1,1.3212,1.6061,13.7479,13.7479,0,0,1,1.9047,3.6873,16.0118,16.0118,0,0,1,.7852,4.0768l-.0035-.0311a4.2144,4.2144,0,0,1-.9119,3.3385,5.8023,5.8023,0,0,1-2.9741,1.784,13.1028,13.1028,0,0,1-3.397.3732c-.5661-.0361-1.1339-.0177-1.6935-.0991l-1.6748-.23.0058-.05c1.1258.0208,2.2422.0773,3.3541.0022a15.0781,15.0781,0,0,0,1.6535-.1533,5.6108,5.6108,0,0,0,.8089-.1571c.2649-.0675.54-.1018.7974-.19a5.9114,5.9114,0,0,0,2.73-1.6075,3.9245,3.9245,0,0,0,.9227-2.9369l-.0035-.0314a12.7736,12.7736,0,0,0-.5524-4.0366,10.1459,10.1459,0,0,0-2.0423-3.5112c-.4451-.5138-.8931-1.0312-1.3632-1.5262a3.7249,3.7249,0,0,0-1.6343-1.0233,8.85,8.85,0,0,0-4.0141-.16Z"/><path class="cls-4" d="M85.4526,72.0564c.7889.0555,1.53.1324,2.2839.2017.7524.076,1.5007.127,2.2834.2685a5.6657,5.6657,0,0,1-2.3316.2376A5.0516,5.0516,0,0,1,85.4526,72.0564Z"/><path class="cls-4" d="M87.61,71.2644a4.3178,4.3178,0,0,0-3.235-1.8173c-1.2644.0913-2.0918,1.2841-3.0823,2.15-.9763.9065-1.9042,1.8637-2.8046,2.8429a3.6367,3.6367,0,0,1-.75.7118.78.78,0,0,1-.5809.1433.6587.6587,0,0,1-.4277-.4662,3.7323,3.7323,0,0,0-.1373-.4578.3646.3646,0,0,0-.22-.2317.9952.9952,0,0,0-.719.2511L75.5,74.505l-.1315-.1167a1.2676,1.2676,0,0,1-.5145-.7955.6765.6765,0,0,1,.2176-.5476,1.88,1.88,0,0,1,.3848-.2412.3241.3241,0,0,0,.0911-.0573c.0134-.0105-.0235.017-.0129.033-.0254.0254.0082.0922.0015.0908.0265.0328-.0852-.0586-.1805-.0892a4.2062,4.2062,0,0,0-.6877-.2021l-.1126-.0236-.0594-.0914a5.2979,5.2979,0,0,1-.4544-.83,2.6285,2.6285,0,0,1-.1585-.4762.7516.7516,0,0,1,.11-.6537.5784.5784,0,0,1,.3616-.1788,2.0444,2.0444,0,0,1,.2835.0148l.4431.0615c.2989.0412.6021.085.9028.1486a6.7348,6.7348,0,0,1,1.7359.6043,7.2613,7.2613,0,0,1,1.502,1.0235l-.0306.0407a8.7785,8.7785,0,0,0-1.5826-.8162,7.7542,7.7542,0,0,0-1.6976-.4434c-.29-.0444-.5828-.07-.88-.0942a2.5792,2.5792,0,0,0-.65-.0256.4878.4878,0,0,0,.0146.2058,2.1085,2.1085,0,0,0,.1366.3722,6.466,6.466,0,0,0,.4156.7438l-.1719-.1149a4.3461,4.3461,0,0,1,.7938.2408.8814.8814,0,0,1,.4392.3517.4128.4128,0,0,1,.0311.276.5317.5317,0,0,1-.1186.1927.7813.7813,0,0,1-.2311.1534c-.2621.1143-.3593.1966-.3477.2934a.8581.8581,0,0,0,.3139.4682l-.2846-.0019a1.8678,1.8678,0,0,1,.5078-.2582.9731.9731,0,0,1,.6309-.0152c.49.1973.4977.7353.5545.9811.0361.1351.0919.2453.1747.2695a.5028.5028,0,0,0,.3645-.0779,3.4133,3.4133,0,0,0,.739-.6108c.9451-.9431,1.8631-1.9082,2.7326-2.924a19.7841,19.7841,0,0,1,1.3663-1.4815,2.9427,2.9427,0,0,1,1.9085-.8709,3.0224,3.0224,0,0,1,1.964.6846,5.1082,5.1082,0,0,1,1.3381,1.5186Z"/><path class="cls-4" d="M52.0484,59.0751a7.9409,7.9409,0,0,1,1.6945-1.3519,3.6119,3.6119,0,0,1,2.1443-.5367,3.0831,3.0831,0,0,1,1.9716,1.083,8.5619,8.5619,0,0,1,.6638.9018L59,60.1671l.01.0208.0021.0184a13.4366,13.4366,0,0,1,.0378,2.3226,9.8348,9.8348,0,0,1-.3989,2.2783,5.658,5.658,0,0,1-1.1131,2.054A4.7889,4.7889,0,0,1,55.52,68.1139l-.0133.0048-.0192.0019a4.8185,4.8185,0,0,1-1.9621-.2,3.4249,3.4249,0,0,1-1.65-1.1259,4.24,4.24,0,0,1-.7788-1.8225c-.059-.3216-.0587-.6487-.0853-.97l.0528-.96.0025.0481a8.0117,8.0117,0,0,1,.0665-2.1385A3.1325,3.1325,0,0,1,52.0484,59.0751Zm.0352.0367a2.6522,2.6522,0,0,0-.784,1.861,7.36,7.36,0,0,0,.1532,2.05l.0018.0086.0006.04.0148.914c.0429.298.0715.5993.13.89a3.9809,3.9809,0,0,0,.7005,1.5814,3.1137,3.1137,0,0,0,1.3916.98,4.3652,4.3652,0,0,0,1.7351.2285l-.0323.0066a4.7269,4.7269,0,0,0,1.9018-1.0429,5.0754,5.0754,0,0,0,1.1767-1.879,8.7818,8.7818,0,0,0,.2136-4.4841l.0121.039-.5292-.9158a9.4973,9.4973,0,0,0-.6376-.8172,3.16,3.16,0,0,0-1.7006-1.0034,3.3079,3.3079,0,0,0-2.0143.3023A5.6131,5.6131,0,0,0,52.0836,59.1118Z"/><path class="cls-4" d="M78.0665,56.583a7.3158,7.3158,0,0,1,1.6689.4282,5.0135,5.0135,0,0,1,1.505.887,3.499,3.499,0,0,1,1.0311,1.4527,4.7522,4.7522,0,0,1,.3028,1.7574l-.001-.02a7.6412,7.6412,0,0,1-.0955,1.5238,6.3655,6.3655,0,0,1-.4036,1.4618,3.7846,3.7846,0,0,1-.8277,1.269,3.0351,3.0351,0,0,1-1.3493.7044l.0154-.0042a3.3279,3.3279,0,0,1-1.7044.0482,4.1266,4.1266,0,0,1-1.5507-.7233,6.26,6.26,0,0,1-1.2153-1.1965l-.486-.6948-.4237-.7308-.0149-.0258-.0077-.0361a9.5075,9.5075,0,0,1-.2136-2.0939,5.7743,5.7743,0,0,1,.369-2.0839,3.0489,3.0489,0,0,1,1.3735-1.5885A4.056,4.056,0,0,1,78.0665,56.583Zm-.0041.0507a3.26,3.26,0,0,0-1.935.4368,2.7278,2.7278,0,0,0-1.0768,1.5716,6.3578,6.3578,0,0,0-.23,1.9472,11.2233,11.2233,0,0,0,.2165,1.9727L75.014,62.5l.3838.7056.4385.6685a6.4559,6.4559,0,0,0,1.0847,1.1489,4.1368,4.1368,0,0,0,1.37.7479,2.9922,2.9922,0,0,0,1.5514.0739l.0157-.0042a2.6414,2.6414,0,0,0,1.2781-.6137,3.19,3.19,0,0,0,.7569-1.2225,5.1342,5.1342,0,0,0,.2793-1.4279,8.4458,8.4458,0,0,0-.02-1.4486l-.0009-.02a5.1368,5.1368,0,0,0-.297-1.598,3.8828,3.8828,0,0,0-.835-1.3846A4.9592,4.9592,0,0,0,78.0624,56.6337Z"/><path class="cls-4" d="M59.87,66.8128a3.6229,3.6229,0,0,1,2.6318-.424,3.2961,3.2961,0,0,1-1.2745.4628A3.3524,3.3524,0,0,1,59.87,66.8128Z"/><path class="cls-4" d="M70.8693,76.9189a11.2771,11.2771,0,0,1-2.2478,1.1874,11.1405,11.1405,0,0,1-2.4392.7164,11.2467,11.2467,0,0,1,2.248-1.1874A11.3746,11.3746,0,0,1,70.8693,76.9189Z"/><path class="cls-4" d="M73.4722,80.2232a16.24,16.24,0,0,1-3.652.2952,17.805,17.805,0,0,1-3.6379-.424,32.7683,32.7683,0,0,1,3.6488-.0842C71.0425,80.044,72.2489,80.0819,73.4722,80.2232Z"/><path class="cls-4" d="M70.7309,64.7135a3.1683,3.1683,0,0,1,1.8788-.5189,3.0376,3.0376,0,0,1,.98.1945,2.1139,2.1139,0,0,1,.8215.5577,8.8486,8.8486,0,0,0-1.8181-.2441C71.9918,64.6806,71.39,64.7153,70.7309,64.7135Z"/><path class="cls-4" d="M70.3793,70.827a15.7556,15.7556,0,0,0-2.1655,1.2483,11.2834,11.2834,0,0,1-2.2676,1.1692,11.2775,11.2775,0,0,1,1.9929-1.597,5.34,5.34,0,0,1,1.1573-.5942A3.6244,3.6244,0,0,1,70.3793,70.827Z"/><path class="cls-4" d="M66.4207,57.4685a7.3078,7.3078,0,0,1,1.5555.7412,5.01,5.01,0,0,1,1.3063,1.16,3.4989,3.4989,0,0,1,.7325,1.6239,4.7513,4.7513,0,0,1-.0407,1.7829l.0028-.0194a7.64,7.64,0,0,1-.3868,1.477,6.3729,6.3729,0,0,1-.677,1.3569,3.7865,3.7865,0,0,1-1.0563,1.0862,3.0357,3.0357,0,0,1-1.46.4318l.0159-.0011a3.3279,3.3279,0,0,1-1.682-.2805,4.1278,4.1278,0,0,1-1.3826-1.008,6.2658,6.2658,0,0,1-.9625-1.4078l-.3435-.7753-.2752-.7986-.01-.0283-.0006-.0368a9.5161,9.5161,0,0,1,.1931-2.096,5.7783,5.7783,0,0,1,.7626-1.974,3.05,3.05,0,0,1,1.6534-1.2948A4.0576,4.0576,0,0,1,66.4207,57.4685Zm-.0139.0489a3.261,3.261,0,0,0-1.9828.0567,2.7285,2.7285,0,0,0-1.3588,1.3352,6.3568,6.3568,0,0,0-.6,1.8665,11.2185,11.2185,0,0,0-.1671,1.9775l-.01-.0649.2409.7662.3017.74a6.4549,6.4549,0,0,0,.8436,1.336,4.1369,4.1369,0,0,0,1.201.9975,2.9917,2.9917,0,0,0,1.5083.3708l.0164-.0011a2.6411,2.6411,0,0,0,1.3722-.3564,3.1874,3.1874,0,0,0,.9777-1.0542,5.1341,5.1341,0,0,0,.5488-1.3475,8.4565,8.4565,0,0,0,.2586-1.4255l.0028-.02a5.1262,5.1262,0,0,0,.0158-1.6253,3.88,3.88,0,0,0-.5531-1.5193A4.9592,4.9592,0,0,0,66.4068,57.5174Z"/><path class="cls-4" d="M59.693,112.0455c.1354-2.04.0523-4.0917.2323-6.1368a41.1053,41.1053,0,0,0,.0642-6.1516c-.0553-2.0519-.0712-4.101-.0081-6.1543.007-1.0276.0257-2.0556.0677-3.0842A20.0033,20.0033,0,0,1,60.3478,87.4l-.0072.1018a11.2837,11.2837,0,0,1,.2881-3.86,13.19,13.19,0,0,0,.3737-1.8526,10.5046,10.5046,0,0,0,.0215-1.883,25.2189,25.2189,0,0,0-1.9323-7.3271l.047-.02a37.2525,37.2525,0,0,1,1.34,3.5783,18.575,18.575,0,0,1,.7847,3.75,10.7407,10.7407,0,0,1,.0114,1.9282,14.1219,14.1219,0,0,1-.3429,1.8919,11.2552,11.2552,0,0,0-.2085,3.7192l.0053.0371-.0126.065a20.9572,20.9572,0,0,0-.2444,3.0049c-.0308,1.0219-.0385,2.0458-.0346,3.07.0282,1.0241.0363,2.0517.0394,3.0776-.0192,1.0263-.0332,2.0526-.08,3.0785-.04,1.0261-.1333,2.0513-.1513,3.0772-.0389,1.0256,0,2.0524.0329,3.08a27.4115,27.4115,0,0,1-.0814,3.0811,15.23,15.23,0,0,1-.4544,3.0587Z"/><path class="cls-4" d="M49.7524,72.8905c-.02-.0146.0364.0074.019.0053a.2932.2932,0,0,0-.0238.0346l-.0434.0809-.077.17-.1376.349c-.0874.2347-.1677.4721-.2444.7107-.1528.4773-.29.96-.4154,1.445q-.3753,1.4559-.6187,2.9406a35.1626,35.1626,0,0,0-.5023,5.9722c.1119,1.9894.2563,4.0041.4,6.0031.1581,1.9982.3,4.011.5865,5.9782a38.7355,38.7355,0,0,1,.4833,6.0335,36.9908,36.9908,0,0,1-.3359,6.0443,11.5249,11.5249,0,0,1-.789,2.9486,4.1291,4.1291,0,0,1-.3876.68c-.1446.1976-.2418.3841-.1771.5535a.8563.8563,0,0,0,.4683.406,3.2473,3.2473,0,0,0,.6888.2124,6.1657,6.1657,0,0,0,2.9159-.0939,1.122,1.122,0,0,0,.3034-.158.4746.4746,0,0,0,.1033-.1083l.0805-.1633a4.1355,4.1355,0,0,0,.2644-.6868,11.36,11.36,0,0,0,.3269-1.4563,71.6953,71.6953,0,0,0,.3644-12.0173l-.1074-3.011a18.7464,18.7464,0,0,1-.0007-3.029,4.3523,4.3523,0,0,1,.4323-1.4839,1.2836,1.2836,0,0,1,.2527-.3315.5276.5276,0,0,1,.457-.1527c.36.1095.4574.4138.5615.6463a10.5337,10.5337,0,0,1,.3277,3.0282c.2624,3.9876,1.2131,7.9229,1.475,11.9614a20.101,20.101,0,0,1-.0048,3.048,6.2143,6.2143,0,0,1-.9107,2.9724,2.7928,2.7928,0,0,1-.2573.3182c-.0474.05-.0929.1012-.1454.1464l-.0767.07s-.0486.0441-.0152.014a.2286.2286,0,0,0,.0393-.2237c-.0911-.1445-.0777-.0779-.0681-.0915l.0575.017c.0481.0117.1044.0212.1611.0293.1142.0165.2348.0269.3556.0351a12.3451,12.3451,0,0,0,1.4736-.0036,5.3572,5.3572,0,0,0,2.6811-.6881l.0493.0118a.3058.3058,0,0,1,.1131.1329c.0169.0413.0556.0945.0455.1386a.3239.3239,0,0,1-.07.1445.8992.8992,0,0,1-.0916.1031,1.43,1.43,0,0,1-.39.2506,3.8243,3.8243,0,0,1-.774.2392,10.2668,10.2668,0,0,1-1.5347.186,12.8411,12.8411,0,0,1-1.5383-.0048c-.13-.01-.26-.0213-.3939-.0412-.0674-.01-.1351-.0216-.209-.04a.9806.9806,0,0,1-.1223-.0382c-.0464-.0374-.0987.0052-.2185-.1969a.2978.2978,0,0,1,.0641-.3074l.0535-.05.0631-.0569a1.5861,1.5861,0,0,0,.12-.12,2.2733,2.2733,0,0,0,.2173-.2658,5.757,5.757,0,0,0,.8368-2.7266,19.6113,19.6113,0,0,0,.0207-2.9734c-.2326-3.9911-1.1157-7.934-1.3387-11.9753a10.5537,10.5537,0,0,0-.2636-2.9442c-.0747-.2134-.205-.4469-.3495-.4783-.1335-.0387-.3213.1483-.43.3472a4.1321,4.1321,0,0,0-.4264,1.3871,17.8022,17.8022,0,0,0-.0377,2.9892l.0934,3.013c.0521,2.0093.0768,4.02.0435,6.0305a45.27,45.27,0,0,1-.3992,6.0221,11.5613,11.5613,0,0,1-.3242,1.4838,4.3207,4.3207,0,0,1-.2724.7185l-.0851.175a.666.666,0,0,1-.15.1682,1.3209,1.3209,0,0,1-.3568.1968,4.9459,4.9459,0,0,1-1.5161.2609,7.0287,7.0287,0,0,1-1.5292-.1019,3.51,3.51,0,0,1-.752-.2179,1.1212,1.1212,0,0,1-.6327-.5632.9061.9061,0,0,1,.2028-.8366,3.823,3.823,0,0,0,.3466-.6329,11.2133,11.2133,0,0,0,.7148-2.8687,41.059,41.059,0,0,0,.27-5.9827,42.2967,42.2967,0,0,0-.4885-5.97c-.279-2.0117-.404-4.0129-.5492-6.02-.133-2.01-.2617-4.005-.3327-6.0287a34.4193,34.4193,0,0,1,.6163-6.0155q.29-1.4836.7074-2.9371c.14-.4836.2917-.9638.4591-1.4386.0838-.2374.1716-.4734.2661-.7069l.149-.3476.0833-.1708.0482-.0837a.3329.3329,0,0,1,.031-.0418c.0084-.0039.0139-.0251.052-.0139.0248.0253.014.0323.018.0442Z"/><path class="cls-4" d="M72.2852,111.9914c.1972-1.8167.051-3.7084.2384-5.56a34.3451,34.3451,0,0,0,.0553-5.593c-.0523-1.8655-.0866-3.7287-.0121-5.5953.0062-.9343.0235-1.869.0587-2.8044A19.4934,19.4934,0,0,1,72.8806,89.6l-.0064.0955a7.92,7.92,0,0,1-.0229-1.6562,13.804,13.804,0,0,1,.2292-1.6162c.098-.5407.2679-1.0468.35-1.5677a9.7207,9.7207,0,0,0,.15-1.5945l.0508-.002a9.7483,9.7483,0,0,1,.0283,1.6254,15.0807,15.0807,0,0,1-.2692,1.597,13.4292,13.4292,0,0,0-.1843,1.5809,8.1787,8.1787,0,0,0,.052,1.5632l.0048.0323-.0112.0635a20.4932,20.4932,0,0,0-.2031,2.7321c-.0238.9292-.03,1.86-.0253,2.7912.0762,1.8643.0393,3.7321-.04,5.5974a43.1214,43.1214,0,0,0-.1038,5.5986,23.4385,23.4385,0,0,1-.07,2.8018c-.0266.467-.0818.9328-.1445,1.3982-.03.2328-.0654.4654-.1167.6964a2.22,2.22,0,0,1-.22.6827Z"/><path class="cls-4" d="M62.2512,88.393c.3227,3.1389.5118,6.3011.9058,9.4106.2775,1.541.5088,3.123.6484,4.6991a28.05,28.05,0,0,1,.0806,4.7632,12.0319,12.0319,0,0,1-.41,2.3658,4.4949,4.4949,0,0,1-1.1925,2.1139c-.9521.5139.2079.9421.8777,1.0861a5.81,5.81,0,0,0,2.2947.1051c.1771-.0445.3628-.1087.4214-.2441a3.8522,3.8522,0,0,0,.2185-.5323,8.531,8.531,0,0,0,.28-1.1348,22.5347,22.5347,0,0,0,.2856-2.3388c.1169-1.57.1515-3.1481.1391-4.7246-.01-1.577-.0565-3.1537-.1154-4.73l-.0941-2.3665a20.9573,20.9573,0,0,1,.1-2.3776,7.8573,7.8573,0,0,1,.4937-2.3557.5676.5676,0,0,1,.2632-.2793.28.28,0,0,1,.266.0376.5162.5162,0,0,1,.1333.1488,2.1219,2.1219,0,0,1,.22.5953,9.2435,9.2435,0,0,1,.1857,1.1878c.1731,1.59.0494,3.1693.26,4.7226.3426,3.1248,1.0568,6.2153,1.1841,9.4092a10.8021,10.8021,0,0,1-.1492,2.4133,4.1547,4.1547,0,0,1-.4113,1.1859,2.4438,2.4438,0,0,1-.3921.5281,2.5424,2.5424,0,0,1-.5092.3843c-.0243.014-.0453.0473-.0178.01a.18.18,0,0,0,.0081-.14.145.145,0,0,0-.0414-.0648s.097.0331.1735.0494a3.7494,3.7494,0,0,0,.5453.0677c.3791.0221.7658.0126,1.1531.02a8.9125,8.9125,0,0,0,1.1589-.0758c.1921-.0236.378-.069.5656-.1074a1.0053,1.0053,0,0,0,.5054-.2335l.0425.0279a1.7994,1.7994,0,0,1-1.0539.5976,9.2513,9.2513,0,0,1-1.1861.2373,6.1312,6.1312,0,0,1-1.2122.0582,4.2494,4.2494,0,0,1-.63-.0653.9237.9237,0,0,1-.3787-.1517.3929.3929,0,0,1-.1346-.1771.3511.3511,0,0,1,.022-.2821.53.53,0,0,1,.1924-.194,2.3589,2.3589,0,0,0,1.1189-1.7735,10.341,10.341,0,0,0,.1556-2.301c-.1136-3.1245-.7546-6.2341-1.0615-9.3865-.1865-1.5851-.0449-3.1778-.2-4.7308a8.98,8.98,0,0,0-.1664-1.1512,1.9043,1.9043,0,0,0-.1787-.5142c-.0474-.0772-.0825-.0869-.0714-.0792a.3715.3715,0,0,0-.1238.153,7.7649,7.7649,0,0,0-.491,2.2532,21.1473,21.1473,0,0,0-.1275,2.3485l.0691,2.3651c.0508,1.5777.0886,3.1566.091,4.7359-.0043,1.5792-.0178,3.16-.1261,4.7381a22.692,22.692,0,0,1-.2718,2.36,8.719,8.719,0,0,1-.2786,1.1632,4.0576,4.0576,0,0,1-.227.563.7881.7881,0,0,1-.55.36,6.0157,6.0157,0,0,1-2.4037-.055,3.4755,3.4755,0,0,1-1.1565-.4224.8931.8931,0,0,1-.2536-.246.4733.4733,0,0,1-.0547-.4108,1.4148,1.4148,0,0,1,.4322-.4989,4.1747,4.1747,0,0,0,1.06-1.979,11.662,11.662,0,0,0,.3547-2.298,41.9317,41.9317,0,0,0-.768-9.37c-.3544-3.16-.467-6.3089-.5186-9.47Z"/><path class="cls-4" d="M76.922,111.2354a19.3264,19.3264,0,0,1-.5112-2.9733,26.0251,26.0251,0,0,1-.1824-3.0037c-.005-1.0042-.0009-2.0076-.0792-3.0069-.0583-1-.1873-1.9974-.2595-2.9975-.145-2.0012-.2586-4-.2056-6.0148.0015-1-.0075-1.9994-.0441-2.9964a18.3931,18.3931,0,0,0-.27-2.9231l-.0161-.0736.0071-.0394a6.9886,6.9886,0,0,0,.08-1.3962,11.0174,11.0174,0,0,0-.1418-1.4205c-.0784-.4708-.1761-.9395-.3015-1.4018a5.7906,5.7906,0,0,1-.1586-1.4591l.0507-.0051a12.0394,12.0394,0,0,0,.3952,1.3841c.1383.4682.2489.9449.34,1.4258a11.3638,11.3638,0,0,1,.1787,1.4608,6.8365,6.8365,0,0,1-.0615,1.4955l-.0089-.1127a9.0412,9.0412,0,0,1,.2315,1.54c.0432.5029.0738,1.0054.0977,1.5077.0473,1.0047.067,2.0086.0762,3.0123.01.9976.099,1.9941.1144,2.9958l.0511,3.0034c.0129,1.0014-.026,2.0057.0174,3.0063.0224,1.0016.1335,1.9988.254,2.9941.24,1.9916.2759,3.9881.3973,5.99Z"/><path class="cls-4" d="M89.7737,80.1827a27.2914,27.2914,0,0,1,.3863,2.8615c.0361.4827.0594.9586.0723,1.45l-.075,1.4447c-.1084,1.9175-.2479,3.8329-.4017,5.7482a54.8335,54.8335,0,0,1-.6845,5.7282,45.1338,45.1338,0,0,0-.3871,5.709,33.14,33.14,0,0,0,.3886,5.7,8.6537,8.6537,0,0,0,.8594,2.6725,6.1968,6.1968,0,0,0,.4017.5911.7854.7854,0,0,1,.1309.4191.6348.6348,0,0,1-.1718.4227,2.5609,2.5609,0,0,1-1.3966.5779,8.6947,8.6947,0,0,1-2.91-.025,3.0333,3.0333,0,0,1-.712-.2212.8658.8658,0,0,1-.3228-.2468c-.0717-.1155-.1212-.2205-.1824-.3314a7.0853,7.0853,0,0,1-.4478-1.3884,33.3,33.3,0,0,1-.5676-5.74c-.1164-3.8417-.0064-7.6834.1336-11.52a13.83,13.83,0,0,0-.0634-2.8492,3.7022,3.7022,0,0,0-.4555-1.3042c-.1161-.1847-.2858-.3566-.4459-.3634-.1537-.0156-.304.1527-.4.3463a7.0688,7.0688,0,0,0-.3494,2.7695c-.0248.9695-.1248,1.9289-.2376,2.8847-.4654,3.8174-1.2036,7.5975-1.42,11.4069a16.713,16.713,0,0,0,.0666,2.8321,3.3612,3.3612,0,0,0,1.05,2.3683.9639.9639,0,0,1,.1977.16.3418.3418,0,0,1,.0595.3342.3844.3844,0,0,1-.1693.1895,1.2953,1.2953,0,0,1-.4346.1319,5.6206,5.6206,0,0,1-.7533.0573,10.98,10.98,0,0,1-1.4723-.0778,6.2439,6.2439,0,0,1-1.4664-.3312,1.2529,1.2529,0,0,1-.7117-.5523.6716.6716,0,0,1-.053-.41.97.97,0,0,1,.0941-.3925l.05-.0088a1.3394,1.3394,0,0,1,.2352.3132l.1.1464a.9289.9289,0,0,0,.0576.1312.8979.8979,0,0,0,.424.2794,5.7728,5.7728,0,0,0,1.3341.3054,10.4511,10.4511,0,0,0,1.4.0818,5.1352,5.1352,0,0,0,.6815-.047.99.99,0,0,0,.254-.0645c.0039.0014-.0112-.0052-.0445.0645a.1749.1749,0,0,0,.0195.1677c.0108.01-.02-.0146-.0861-.0591a2.604,2.604,0,0,1-.9206-1.27,6.4145,6.4145,0,0,1-.3337-1.4574,17.1882,17.1882,0,0,1-.0543-2.9177c.2305-3.8644,1.0356-7.6317,1.537-11.4279.1233-.9484.2334-1.9.2687-2.8491a7.1937,7.1937,0,0,1,.4259-2.89.76.76,0,0,1,.67-.486.9235.9235,0,0,1,.6451.4946,3.9287,3.9287,0,0,1,.468,1.4036,14.59,14.59,0,0,1,.0288,2.8961c-.1552,3.8343-.3,7.6727-.1673,11.5066a33.1746,33.1746,0,0,0,.5943,5.7022,6.9062,6.9062,0,0,0,.44,1.3439c.0555.0986.1106.2106.1656.2983a.6786.6786,0,0,0,.2492.1783,2.8392,2.8392,0,0,0,.663.1921,8.4617,8.4617,0,0,0,2.82-.0237,2.3629,2.3629,0,0,0,1.2217-.5054.3654.3654,0,0,0,.0021-.4839,6.1888,6.1888,0,0,1-.4159-.5918,8.9649,8.9649,0,0,1-.9442-2.767,30.4934,30.4934,0,0,1-.46-5.77,43.1735,43.1735,0,0,1,.3712-5.7741,54.6107,54.6107,0,0,0,.7208-5.6964c.1715-1.91.309-3.8233.4517-5.7365l.1-1.4289c.01-.4687.01-.9525-.0028-1.4283-.0263-.9551-.0689-1.9132-.17-2.8678Z"/><text class="cls-1" transform="translate(39.2548 11.9613)">BIS <tspan class="cls-2" x="7.6895" y="0">W</tspan><tspan x="11.3794" y="0">ANN?</tspan></text></g></g></g></svg>