<svg xmlns="http://www.w3.org/2000/svg" viewBox="0 0 67.1612 59.389"><defs><style>.cls-1{fill:#575756;}.cls-2,.cls-4{fill:#fff;}.cls-3{fill:#0087b9;}.cls-4{fill-rule:evenodd;}</style></defs><title>Element 39</title><g id="Ebene_2" data-name="Ebene 2"><g id="Ebene_1-2" data-name="Ebene 1"><g id="Illustrationen"><path class="cls-1" d="M0,8.0881,16.1549,5.9957c5.4324-.662,10.85-1.3645,16.3142-1.9919,5.45-.6531,10.9382-1.2166,16.3915-1.8138Q57.0434,1.2933,65.1853.2869l.1212-.015.0166.1228L66.33,7.9263l.0245.183-.1861.0239L49.9032,10.22,33.6286,12.2248c-5.4283.64-10.8527,1.3115-16.287,1.9015L1.0452,15.949.89,15.9665l-.0172-.1519ZM.0535,8.13l1.1271,7.6447L1.0079,15.64l16.2632-2.1c5.4188-.7175,10.8476-1.3533,16.2726-2.0211l16.285-1.9178L66.1235,7.7655l-.1614.2068L65.0769.4255l.1376.1078q-8.141.9182-16.262,1.9463c-5.409.6859-10.7831,1.4056-16.195,2.0358C27.36,5.171,21.9148,5.7517,16.4851,6.3729Z"/><path class="cls-1" d="M24.3724,12.9018l-4.38-3.209c-.6913-.518-1.3767-1.0308-2.0392-1.5642-.6608-.5339-1.2968-1.1032-1.9527-1.6742l.1479.0421c-1.116.0787-2.2311.1661-3.34.3047C11.7,6.9426,10.5935,7.1,9.49,7.2828l.0936-.3285c1.4425,1.0432,2.8569,2.1219,4.2611,3.2133Q15.966,11.786,18.01,13.5l-.249-.07c1.0574-.1009,2.0994-.2007,3.1954-.2661C22.05,13.0928,23.188,13.0146,24.3724,12.9018Zm.0652.0183c-1.016.17-2.0778.3745-3.1858.5857-1.1044.2173-2.2628.4-3.4058.5822l-.1308.0209-.1186-.0907q-2.1186-1.6215-4.17-3.3275c-1.3743-1.1288-2.7385-2.27-4.0744-3.447l-.3365-.2964.43-.0322c1.1155-.0836,2.2279-.1933,3.3383-.3185,1.11-.1281,2.214-.3074,3.317-.4954l.0737-.0126.0745.0548c.7241.5309,1.4682,1.0637,2.1873,1.6317.7175.5686,1.4121,1.1578,2.1009,1.7419Z"/><path class="cls-1" d="M37.5832,11.2l-4.38-3.2086c-.6913-.5179-1.3766-1.0306-2.0391-1.5639-.6609-.534-1.2967-1.1031-1.9527-1.6742l.1478.0421c-1.1158.0787-2.2309.1662-3.34.3048-1.1083.1414-2.2148.2983-3.3183.4815l.0936-.3285c1.4425,1.0431,2.8569,2.1218,4.2611,3.2129q2.1213,1.6183,4.1657,3.3325l-.249-.07c1.0572-.1008,2.0992-.2007,3.195-.2661C35.26,11.3912,36.399,11.3131,37.5832,11.2Zm.0653.0183c-1.0159.17-2.0777.3746-3.1855.5857-1.1043.2174-2.2625.4-3.4055.5823l-.1308.0208-.1186-.0906Q28.69,10.6953,26.6382,8.99C25.2641,7.8608,23.9,6.72,22.5638,5.5428l-.3365-.2964.43-.0322c1.1154-.0835,2.2276-.1932,3.338-.3185,1.11-.1281,2.2138-.3074,3.3166-.4953l.0735-.0125.0745.0546c.7243.5309,1.4684,1.0636,2.1875,1.6316.7175.5685,1.4121,1.1577,2.101,1.7417Z"/><path class="cls-1" d="M50.5179,9.7133l-4.38-3.209c-.6913-.5179-1.3767-1.0306-2.0392-1.5641-.661-.534-1.2968-1.1032-1.9528-1.6743l.1478.0421c-1.1158.0789-2.2307.1664-3.3394.3051-1.1084.1416-2.215.2986-3.3185.4819l.0936-.3285C37.1718,4.81,38.586,5.8883,39.99,6.98q2.121,1.6182,4.1653,3.3324l-.2491-.07c1.0574-.1008,2.1-.2007,3.1956-.2661C48.1946,9.9043,49.3333,9.8262,50.5179,9.7133Zm.0652.0183c-1.0162.17-2.078.3746-3.186.5858-1.1046.2173-2.2631.4-3.4063.5822l-.1308.0209-.1184-.0907Q41.623,9.2085,39.5721,7.5025c-1.3741-1.1287-2.7383-2.27-4.074-3.4466L35.1616,3.76l.43-.0322c1.1154-.0837,2.2276-.1935,3.338-.3189,1.11-.1281,2.2138-.3075,3.3166-.4956L42.32,2.9l.0745.0546c.7243.531,1.4684,1.0637,2.1875,1.6318s1.4123,1.1578,2.1011,1.7419Z"/><path class="cls-1" d="M63.7512,8.1488,59.3712,4.94C58.68,4.4224,57.9946,3.91,57.3321,3.3763c-.661-.5339-1.2969-1.1031-1.9527-1.6741l.1477.042c-1.1159.0789-2.2307.1662-3.3395.3048-1.1084.1415-2.215.2985-3.3184.4816l.0935-.3285C50.4054,3.2452,51.82,4.3239,53.224,5.415Q55.3453,7.0332,57.39,8.7475l-.2491-.07c1.0573-.1009,2.0993-.2007,3.1953-.2662C61.4284,8.34,62.567,8.2617,63.7512,8.1488Zm.0654.0183c-1.016.17-2.0777.3746-3.1854.5858-1.1045.2173-2.2627.4-3.4057.5822l-.1309.0209-.1185-.0907q-2.1186-1.6212-4.17-3.3271c-1.3744-1.1288-2.7386-2.27-4.0747-3.4467l-.3365-.2965.43-.0322c1.1153-.0835,2.2275-.1932,3.3379-.3185,1.11-.128,2.2139-.3074,3.3168-.4953l.0735-.0125.0746.0546c.724.5309,1.4682,1.0637,2.1873,1.6316.7176.5685,1.4122,1.1577,2.1011,1.7418Z"/><path class="cls-1" d="M65.6576,3.328a18.261,18.261,0,0,1-1.7623-.939,6.3763,6.3763,0,0,1-.9248-.7306A6.317,6.317,0,0,0,62.107.9573L61.882.8108l.2694-.0437c.5047-.082.9936-.267,1.4909-.3977.2487-.0654.5-.1156.75-.1672.2512-.049.5-.1109.7531-.1493L65.4941,0l.063.3558a9.7,9.7,0,0,1,.124,1.6193ZM65.6218,3.27c-.1421-.586-.3138-1.0906-.4633-1.5361a6.6687,6.6687,0,0,1-.3158-1.27l.4115.3027c-.2528.0384-.509.0534-.7633.0812-.2548.0252-.5093.0519-.7662.0633C63.2111.9346,62.6892.9033,62.183.975l.0445-.19a4.922,4.922,0,0,0,.8728.5129,4.0682,4.0682,0,0,1,.8114.4835C64.4238,2.19,64.9376,2.6876,65.6218,3.27Z"/><path class="cls-2" d="M5.1644,11.4611A1.18,1.18,0,1,1,3.9275,10.34,1.181,1.181,0,0,1,5.1644,11.4611Z"/><path class="cls-1" d="M5.1983,11.4594a1.9483,1.9483,0,0,1-.1782.9973,1.0264,1.0264,0,0,1-.9627.5235,1.4623,1.4623,0,0,1-.9383-.505,1.8872,1.8872,0,0,1-.4981-.8888A1.3556,1.3556,0,0,1,3.91,9.9792a1.168,1.168,0,0,1,1.0183.5A1.89,1.89,0,0,1,5.1983,11.4594Zm-.0677.0034a.7684.7684,0,0,0-.5024-.653,1.5479,1.5479,0,0,0-.6829-.1082,1.0463,1.0463,0,0,0-.9534.8665.7659.7659,0,0,0,.2749.7442.8917.8917,0,0,0,.7628.1041,2.9208,2.9208,0,0,0,.67-.25A.7606.7606,0,0,0,5.1306,11.4628Z"/><path class="cls-1" d="M1.0461,23.2937l.1756,17.967c.0637,5.961.069,11.888.0917,17.8258l-.2911-.2911c5.4677-.0283,10.9354.0036,16.4031.0177l16.4029.1256c5.4677.0193,10.9354.066,16.4031.03l16.4031-.068-.1858.1858L66.3434,41.2l-.0561-17.8868.347.3474L50.2965,23.644Q42.13,23.6347,33.94,23.5605Zm-.0478-.048,32.7188-.2237q8.2051-.0669,16.4492-.062l16.4684.0055h.3484l-.0012.3473L66.9258,41.2,66.82,59.0865l-.001.1866-.1848-.0008-16.4031-.0679c-5.4677-.0361-10.9354.0107-16.4031.03L17.4254,59.36c-5.4677.0141-10.9354.046-16.4031.0177L.73,59.3762l.0011-.29c.0227-6.0012.028-12.0131.0918-17.991Z"/><rect class="cls-2" x="0.8645" y="15.6105" width="66.0469" height="7.6592"/><path class="cls-1" d="M.8405,23.2937.7022,15.6106.6993,15.45l.1654-.0018q8.2557-.0919,16.5115-.1212,8.256-.0457,16.5117.0383c5.504.0562,11.0078.1281,16.5118.1359,5.5039.012,11.0077-.023,16.5117-.0764l.1841-.0017.0016.1875.0621,7.659.002.2454-.25.0025q-8.2786.0807-16.5755.0866c-5.5334.0285-11.0564-.004-16.58-.0164-5.5288-.0069-11.0145-.0916-16.5089-.1283Zm.048-.048L17.505,23.08c5.5134-.0368,11.0356-.1215,16.5147-.1284,5.4846-.0123,10.9694-.0449,16.4437-.0164q8.2179.0188,16.448.0866l-.2477.2477.062-7.659.1857.1856c-5.504-.0534-11.0078-.0883-16.5117-.0764-5.504.0079-11.0078.08-16.5118.136q-8.2557.0878-16.5117.0383Q9.1205,15.8785.8647,15.7729l.1621-.1623Z"/><path class="cls-1" d="M10.232,23.1761l3.4663-3.844c.6143-.6621,1.2336-1.33,1.878-1.98.6463-.65,1.3216-1.2675,1.9771-1.8811l.0676-.063.0745.0036c1.1173.055,2.2345.1013,3.3518.096,1.1174-.0082,2.2347-.032,3.3521-.0822l.4308-.0193-.2988.3344c-1.1858,1.3278-2.4041,2.6237-3.6337,3.9083Q19.07,21.5923,17.1548,23.45l-.1068.1042-.1323-.0051c-1.1566-.0442-2.3285-.0876-3.4509-.1715C12.34,23.3,11.2611,23.2235,10.232,23.1761Zm.0628-.0259c1.1892-.0294,2.3289-.0877,3.4222-.147,1.0958-.0659,2.1423-.0911,3.204-.1172l-.2387.0989q1.83-1.9407,3.738-3.8057c1.2639-1.2509,2.5392-2.4906,3.847-3.6985l.1321.315c-1.1174-.05-2.2347-.074-3.3521-.0821-1.1173-.0053-2.2345.041-3.3518.096l.1417-.0594c-.583.6452-1.1465,1.2862-1.7389,1.8952-.5942.6087-1.2134,1.2-1.8378,1.7961Z"/><path class="cls-1" d="M23.5114,23.1761l3.466-3.844c.6141-.6621,1.2334-1.33,1.8778-1.98.6461-.65,1.3214-1.2675,1.9769-1.8811l.0676-.0631.0745.0037c1.1173.055,2.2348.1013,3.3522.096,1.1175-.0082,2.2349-.032,3.3524-.0822l.4308-.0193-.2987.3344c-1.1859,1.3278-2.4042,2.6237-3.6339,3.9083q-1.8278,1.9435-3.7428,3.801l-.1068.1042-.1324-.0051c-1.1566-.0442-2.3285-.0876-3.451-.1715C25.6191,23.3,24.54,23.2235,23.5114,23.1761Zm.0626-.0259c1.1894-.0294,2.3291-.0877,3.4222-.147,1.096-.0659,2.1425-.0911,3.2042-.1172l-.2389.0989q1.83-1.9407,3.7382-3.8057c1.2639-1.2509,2.5392-2.4906,3.8469-3.6985l.1322.315c-1.1175-.05-2.2349-.074-3.3524-.0821-1.1174-.0053-2.2349.041-3.3522.096l.1417-.0594c-.583.6452-1.1463,1.2862-1.7388,1.8952-.5941.6086-1.2133,1.2-1.8378,1.7961Z"/><path class="cls-1" d="M36.9322,23.1761l3.4666-3.844c.6143-.6621,1.2336-1.33,1.8782-1.98.6463-.65,1.3217-1.2675,1.9772-1.8811l.0676-.063.0745.0036c1.1173.055,2.2345.1013,3.3519.096,1.1173-.0082,2.2347-.032,3.352-.0822l.4309-.0193-.2987.3344c-1.1861,1.3278-2.4045,2.6237-3.6342,3.9083Q45.77,21.5923,43.8548,23.45l-.1066.1042-.1325-.0051c-1.1566-.0442-2.3284-.0876-3.4509-.1715C39.04,23.3,37.9613,23.2235,36.9322,23.1761Zm.0626-.0259c1.1893-.0294,2.329-.0877,3.4224-.147,1.0958-.0659,2.1423-.0911,3.204-.1172l-.2389.0989q1.8308-1.9407,3.7385-3.8057c1.264-1.2509,2.5395-2.4906,3.8475-3.6985l.1319.315c-1.1173-.05-2.2347-.074-3.352-.0821-1.1174-.0053-2.2346.041-3.3519.096l.1417-.0594c-.5831.6452-1.1466,1.2862-1.7391,1.8952-.5943.6087-1.2135,1.2-1.8381,1.7962Z"/><path class="cls-1" d="M50.3761,23.1761l3.466-3.844c.6142-.6621,1.2334-1.33,1.8779-1.98.6461-.65,1.3213-1.2675,1.9769-1.8811l.0675-.063.0745.0036c1.1172.055,2.2344.1013,3.3516.096,1.1172-.0082,2.2345-.032,3.3517-.0822l.4307-.0193-.2986.3344c-1.1857,1.3278-2.4037,2.6236-3.6332,3.9083q-1.8273,1.9435-3.7421,3.801l-.1068.1042-.1323-.0051c-1.1566-.0442-2.3286-.0876-3.4511-.1715C52.4838,23.3,51.4052,23.2235,50.3761,23.1761Zm.0628-.0259c1.1892-.0294,2.3289-.0877,3.4223-.1471,1.0958-.0658,2.1423-.091,3.204-.1172l-.239.099q1.83-1.9407,3.7376-3.8057c1.2637-1.2509,2.5388-2.4906,3.8463-3.6985l.1321.315c-1.1172-.05-2.2345-.074-3.3517-.0821-1.1172-.0053-2.2344.041-3.3516.096l.1418-.0595c-.583.6452-1.1463,1.2863-1.7388,1.8953-.5941.6086-1.2134,1.2-1.8378,1.7961Z"/><path class="cls-1" d="M63.6818,23.2307a18.2584,18.2584,0,0,1,1.1929-1.6,6.3814,6.3814,0,0,1,.861-.8041,6.2971,6.2971,0,0,0,.8226-.7478l.1787-.2.0028.2729c.0052.5111.1144,1.0221.1689,1.5332.0273.2555.0394.5111.0527.7666.0107.2555.0344.511.0344.7666V23.57l-.3613.0088a9.6831,9.6831,0,0,1-1.6191-.121Zm.0625-.0267c.6007-.0523,1.1251-.1461,1.5879-.2269a6.6631,6.6631,0,0,1,1.3023-.121l-.3611.3612c0-.2556.0237-.5111.0344-.7666.0133-.2555.0252-.5111.0525-.7666.0547-.5111.1639-1.0221.1691-1.5332l.1813.0725a4.9182,4.9182,0,0,0-.638.7855,4.0789,4.0789,0,0,1-.6.7291C64.9916,22.1824,64.4232,22.6155,63.7443,23.204Z"/><path class="cls-1" d="M5.8653,19.44a1.9522,1.9522,0,0,1-.2264.9876,1.0255,1.0255,0,0,1-.9874.4756,1.4612,1.4612,0,0,1-.9123-.55,1.8882,1.8882,0,0,1-.4537-.9124A1.3556,1.3556,0,0,1,4.651,17.8982a1.169,1.169,0,0,1,.9927.5494A1.89,1.89,0,0,1,5.8653,19.44Zm-.0678,0a.7681.7681,0,0,0-.47-.6769,1.5482,1.5482,0,0,0-.6767-.1416,1.0455,1.0455,0,0,0-.9943.8189.7659.7659,0,0,0,.2378.757.8909.8909,0,0,0,.7568.1413,2.8852,2.8852,0,0,0,.6816-.2165A.7607.7607,0,0,0,5.7975,19.44Z"/><path class="cls-3" d="M28.65,39.8089c.4663.2376.9215.4873,1.3759.7439a9.2511,9.2511,0,0,1,1.3256.8538.764.764,0,0,1,.1484.1591.3405.3405,0,0,1,.0535.2514,3.0228,3.0228,0,0,0-.0257.376,1.4829,1.4829,0,0,0,.1533.6929,1.2451,1.2451,0,0,0,.47.497,5.6926,5.6926,0,0,0,.6868.304c1.9221.8542,3.7291,1.8722,5.5515,2.88,1.8118,1.0217,3.5908,2.1083,5.4485,3.04.4643.2312.9256.4718,1.4036.6676a4.2373,4.2373,0,0,0,.7129.2439c.08.008.0519.0214.13-.0055l.1793-.0743.3567-.153a8.59,8.59,0,0,0,1.3608-.7148c.1927-.13.4356-.3248.4576-.4484.005-.0288.0028-.0127-.0159-.0445l-.1218-.1111-.2946-.2452c-3.2817-2.5407-6.6137-5.0437-9.9358-7.5356-.8253-.6287-1.6653-1.2426-2.4986-1.8443-.2075-.149-.4218-.2955-.6229-.4168-.16-.063-.0082-.0646-.1325-.0472a1.0392,1.0392,0,0,0-.2722.1395,6.4718,6.4718,0,0,1-.6761.4407,1.1121,1.1121,0,0,1-.948.0768,5.7364,5.7364,0,0,1-1.274-1.019c-.1892-.1791-.3763-.3583-.5691-.5264a1.4919,1.4919,0,0,0-.5742-.3715l-1.0972,1.0259a7.2247,7.2247,0,0,0-.5345.562,1.9487,1.9487,0,0,0-.2222.31C28.5875,39.6179,28.537,39.7642,28.65,39.8089Zm-.0291.0613a.5641.5641,0,0,1-.0884-.0778.4119.4119,0,0,1-.0194-.1158.579.579,0,0,1,.07-.1955,1.9971,1.9971,0,0,1,.225-.3273c.1653-.2043.3469-.3924.5271-.5812l.5476-.5575.2694-.2794.1225-.1438.0553-.0735c.0386-.0342.0874-.09.1358-.0852a.6905.6905,0,0,1,.4351.1348,3.6674,3.6674,0,0,1,.3332.2259c.2129.1578.4156.3234.6181.4866a5.5969,5.5969,0,0,0,1.2213.835c.3643.1256.7086-.229,1.1487-.562a1.585,1.585,0,0,1,.4111-.2313.6686.6686,0,0,1,.1366-.0366l.0726-.0133a.704.704,0,0,1,.1185.013.7827.7827,0,0,1,.1166.0316l.0525.0245.1049.05c.2519.134.4743.2718.6975.4144.8893.5662,1.7229,1.19,2.57,1.8,1.678,1.2383,3.3133,2.5289,4.9431,3.8262,1.6292,1.2994,3.2408,2.6152,4.8021,4.0075l.2919.2694a1.7584,1.7584,0,0,1,.1556.1629.3775.3775,0,0,1,.0686.3172.7736.7736,0,0,1-.2866.3919,2.683,2.683,0,0,1-.3385.2358,12.4069,12.4069,0,0,1-1.4242.6884l-.3634.1478-.1825.0716a.432.432,0,0,1-.2513.0149,4.3208,4.3208,0,0,1-.7572-.2718c-.48-.2121-.956-.4237-1.426-.65-1.8718-.9172-3.7568-1.8077-5.6113-2.7556-1.8486-.953-3.6724-1.9733-5.4682-2.9908a5.8153,5.8153,0,0,1-.7085-.39,1.5867,1.5867,0,0,1-.537-.67,1.7525,1.7525,0,0,1-.12-.8281,3.2452,3.2452,0,0,1,.0586-.3992c.0137-.09.0136-.0635-.0119-.1175a.5959.5959,0,0,0-.1083-.133A13.4115,13.4115,0,0,0,28.6211,39.87Z"/><path class="cls-4" d="M28.6321,43.3583s2.8481-1.5665,2.7709-1.9738a1.6154,1.6154,0,0,1,.9578-2.0486c1.2845-.5523,12.7216-7.5088,13.4118-7.2584s2.8513,1.0657,2.5374,1.5677S35.4939,44.4862,34.8991,44.4558c-.5947-.0325-1.2087-1.0975-1.9989-.6584s-2.1754,2.1506-2.444,1.7744S28.1,43.61,28.6321,43.3583Z"/><path class="cls-3" d="M28.6168,43.328a13.3934,13.3934,0,0,0,2.5592-1.7363.5982.5982,0,0,0,.1042-.136c.0235-.0539.0248-.0281.0081-.118a3.2848,3.2848,0,0,1-.07-.3974,1.7514,1.7514,0,0,1,.0967-.8312,1.5872,1.5872,0,0,1,.5186-.684,5.9239,5.9239,0,0,1,.6973-.4092c1.7662-1.0681,3.5606-2.1391,5.3817-3.1437,1.8272-1,3.6864-1.9428,5.5316-2.9121.4637-.2393.9339-.4641,1.4073-.6894a4.3053,4.3053,0,0,1,.7494-.2929.4328.4328,0,0,1,.2516.0078l.1844.0664.3674.1377a12.3571,12.3571,0,0,1,1.4429.648,2.69,2.69,0,0,1,.3451.2264.7716.7716,0,0,1,.2969.3844.3774.3774,0,0,1-.06.3185,1.7339,1.7339,0,0,1-.1509.1673l-.2843.2775c-1.5215,1.4355-3.0956,2.796-4.6876,4.1407-1.5928,1.3424-3.1911,2.6784-4.8337,3.9634-.83.6331-1.6454,1.2805-2.5184,1.8715-.219.1489-.4374.2928-.6855.4339l-.1033.0529-.0518.026a.7983.7983,0,0,1-.1161.0349.6992.6992,0,0,1-.1181.0162l-.0728-.0113a.664.664,0,0,1-.1378-.0331,1.5911,1.5911,0,0,1-.4169-.22c-.4491-.3205-.8034-.6649-1.1644-.5295a5.5852,5.5852,0,0,0-1.1972.8688c-.1978.1687-.3959.34-.6043.5036a3.63,3.63,0,0,1-.3267.2351.6926.6926,0,0,1-.4307.1472c-.0484.0059-.0987-.047-.1384-.0805l-.0578-.0725-.1262-.14-.2768-.2718-.563-.542c-.1855-.1837-.3723-.3666-.5431-.5663a1.9977,1.9977,0,0,1-.2342-.3209.5809.5809,0,0,1-.0755-.1935.4136.4136,0,0,1,.0163-.1163A.5645.5645,0,0,1,28.6168,43.328Zm.0308.06c-.1123.0478-.0576.1926.0074.2929a1.9237,1.9237,0,0,0,.2307.3038,7.2229,7.2229,0,0,0,.55.5468l1.1248.9946a1.49,1.49,0,0,0,.5638-.3875c.1881-.1734.37-.3578.5542-.5421a5.7284,5.7284,0,0,1,1.2451-1.0544,1.1141,1.1141,0,0,1,.95.05,6.4241,6.4241,0,0,1,.6883.4214,1.0455,1.0455,0,0,0,.2762.1322c.1248.014-.0275.0167.1306-.0508.1977-.127.4077-.2794.611-.4342.816-.625,1.6385-1.2622,2.4458-1.9139,3.2508-2.5842,6.5112-5.18,9.72-7.8114l.2876-.2535.1186-.1144c.0179-.0323.0207-.0167.0147-.0453-.025-.1227-.2732-.3113-.4694-.4354a8.5753,8.5753,0,0,0-1.38-.6764l-.3606-.1428-.1815-.0692c-.079-.0248-.0508-.0122-.13-.0019a4.2366,4.2366,0,0,0-.7057.2636c-.4723.2091-.9266.4626-1.3845.7067-1.8308.983-3.5785,2.1191-5.3609,3.1913-1.7932,1.0591-3.5709,2.1274-5.468,3.0357a5.8165,5.8165,0,0,0-.6784.3231,1.2448,1.2448,0,0,0-.4565.51,1.479,1.479,0,0,0-.1339.6968,3.0253,3.0253,0,0,0,.0362.3751.3417.3417,0,0,1-.0457.2529.7656.7656,0,0,1-.1439.1632,9.2116,9.2116,0,0,1-1.3011.8909C29.5548,42.8756,29.1071,43.138,28.6476,43.3885Z"/><path class="cls-3" d="M35.2139,41.6826a1.9019,1.9019,0,0,1-.2119.95.9791.9791,0,0,1-.95.4593,1.4073,1.4073,0,0,1-.8753-.5351,1.8427,1.8427,0,0,1-.4373-.8757,1.303,1.303,0,0,1,1.3139-1.489,1.119,1.119,0,0,1,.9549.5349A1.8475,1.8475,0,0,1,35.2139,41.6826Zm-.0679,0a.7214.7214,0,0,0-.454-.64,1.52,1.52,0,0,0-.64-.1269.9938.9938,0,0,0-.9418.766.7179.7179,0,0,0,.2217.72.8377.8377,0,0,0,.7194.1258,3.1394,3.1394,0,0,0,.6451-.2005A.7129.7129,0,0,0,35.146,41.6826Z"/><path class="cls-3" d="M29.4728,38.4939a3.7528,3.7528,0,0,1-3.3964,1.2206A6.6754,6.6754,0,0,1,22.6,38.2938a8.4333,8.4333,0,0,1-2.3286-2.917,5.1626,5.1626,0,0,1-.5259-1.7941,2.9915,2.9915,0,0,1,.43-1.8563,2.8739,2.8739,0,0,1,1.5972-1.1241A4.641,4.641,0,0,1,23.71,30.49a7.8259,7.8259,0,0,1,3.5069,1.4615A7.1613,7.1613,0,0,1,29.6,34.8821,3.756,3.756,0,0,1,29.4728,38.4939Zm-.0549-.04a2.4554,2.4554,0,0,0,.3939-1.7141,4.3111,4.3111,0,0,0-.6108-1.6582,9.06,9.06,0,0,0-2.41-2.5453,8.0455,8.0455,0,0,0-3.1772-1.4158,3.2784,3.2784,0,0,0-3.1386.8244,2.4413,2.4413,0,0,0-.4918,1.6231,4.046,4.046,0,0,0,.4845,1.71,7.4067,7.4067,0,0,0,2.464,2.559,10.1157,10.1157,0,0,0,3.2082,1.4562,4.3758,4.3758,0,0,0,1.7686.0672A2.4435,2.4435,0,0,0,29.4179,38.454Z"/><path class="cls-3" d="M29.2788,44.5686a3.7525,3.7525,0,0,1-.2592,3.6,6.6705,6.6705,0,0,1-2.7064,2.6032,8.4369,8.4369,0,0,1-3.61.9467,5.164,5.164,0,0,1-1.8533-.2459,2.9941,2.9941,0,0,1-1.5235-1.1441,2.8729,2.8729,0,0,1-.3811-1.9158,4.6432,4.6432,0,0,1,.6822-1.817,7.8314,7.8314,0,0,1,2.7565-2.6144,7.1569,7.1569,0,0,1,3.6446-.9919A3.756,3.756,0,0,1,29.2788,44.5686Zm-.0588.034a2.4548,2.4548,0,0,0-1.4076-1.0543,4.3035,4.3035,0,0,0-1.7635-.1133,9.0553,9.0553,0,0,0-3.303,1.172,8.0535,8.0535,0,0,0-2.5811,2.3318,3.2779,3.2779,0,0,0-.5176,3.2033,2.4444,2.4444,0,0,0,1.2854,1.1066,4.0453,4.0453,0,0,0,1.76.25A7.4109,7.4109,0,0,0,26.03,50.2829a10.11,10.11,0,0,0,2.63-2.3436,4.3733,4.3733,0,0,0,.7774-1.59A2.4433,2.4433,0,0,0,29.22,44.6026Z"/></g></g></g></svg>