<svg xmlns="http://www.w3.org/2000/svg" viewBox="0 0 17.5096 25"><defs><style>.cls-1{fill:#fff;}</style></defs><title>Element 9</title><g id="Ebene_2" data-name="Ebene 2"><g id="Footer_Desktop_8" data-name="Footer Desktop 8"><g id="Adress_Block" data-name="Adress Block"><g id="Nadel"><path class="cls-1" d="M8.8365,5.4788a3.1959,3.1959,0,1,0,3.196,3.1959A3.2,3.2,0,0,0,8.8365,5.4788Zm0,5.4787a2.2828,2.2828,0,1,1,2.2828-2.2828A2.2854,2.2854,0,0,1,8.8365,10.9575Z"/><path class="cls-1" d="M14.9467,2.5645a8.7551,8.7551,0,0,0-12.382,0A9.9727,9.9727,0,0,0,1.7411,14.87L8.7557,25,15.76,14.8839A9.9762,9.9762,0,0,0,14.9467,2.5645ZM15.0193,14.35,8.7557,23.3956l-6.2736-9.06A9.01,9.01,0,0,1,3.2108,3.21a7.8417,7.8417,0,0,1,11.09,0A9.014,9.014,0,0,1,15.0193,14.35Z"/></g></g></g></g></svg>