<svg xmlns="http://www.w3.org/2000/svg" viewBox="0 0 94 65.5858"><defs><style>.cls-1,.cls-3{fill:#010101;}.cls-2{fill:#fff;stroke:#1e1e1c;stroke-miterlimit:10;stroke-width:2px;}.cls-3{font-size:12px;font-family:DBOffice-Regular, DB Office;}</style></defs><title>Element 7</title><g id="Ebene_2" data-name="Ebene 2"><g id="Bereich_Grafiken" data-name="Bereich Grafiken"><g id="Icon"><g id="Member_Icons" data-name="Member Icons"><path class="cls-1" d="M70.2176,44.3358H68.461c0-10.1795-5.1773-19.1839-13.19-22.9407l-1.1468-.5387.9057-.8851a10.557,10.557,0,0,0,3.1414-8.78,10.6261,10.6261,0,0,0-21.1853,1.1911,10.5343,10.5343,0,0,0,3.2053,7.5892l.9058.8851-1.1468.5387c-8.0129,3.7568-13.19,12.7612-13.19,22.9407H25.0035c0-10.4042,5.1171-19.68,13.1343-23.9957A12.2537,12.2537,0,0,1,35.23,12.3037a12.3817,12.3817,0,0,1,24.7631.0784,12.248,12.248,0,0,1-2.9094,7.958C65.1,24.6562,70.2176,33.9316,70.2176,44.3358Z"/><rect class="cls-2" x="1" y="30.0858" width="92" height="34.5"/><text class="cls-3" transform="translate(6.9834 45.4603)">Product Owner<tspan x="24.6738" y="12.4004">Intern</tspan></text></g></g></g></g></svg>