<svg xmlns="http://www.w3.org/2000/svg" viewBox="0 0 23.73 25.57"><defs><style>.cls-1{fill:#fff;}</style></defs><title>Element 3</title><g id="Ebene_2" data-name="Ebene 2"><g id="Variante_2" data-name="Variante 2"><path d="M16,24.31,0,21.79,2.73,4.41l16,2.51ZM1,21l14.21,2.23L17.69,7.67,3.49,5.44Z"/><rect class="cls-1" x="5.62" y="7.97" width="17.15" height="17.15"/><path d="M23.22,25.57H5.17V7.52H23.22Zm-17.15-.9H22.32V8.42H6.07Z"/><path d="M20.38,6.73a3.37,3.37,0,0,1-2.94-5,3.32,3.32,0,0,1,2-1.6,3.36,3.36,0,1,1,.93,6.6Zm0-5.82a2.46,2.46,0,1,0,2.36,1.79A2.45,2.45,0,0,0,20.37.9Z"/><rect x="13.3" y="9.02" width="7.4" height="0.9" transform="translate(0.48 19.76) rotate(-61.03)"/></g></g></svg>