<svg xmlns="http://www.w3.org/2000/svg" viewBox="0 0 23.1684 15"><defs><style>.cls-1{fill:#fff;}</style></defs><title>Element 12</title><g id="Ebene_2" data-name="Ebene 2"><g id="Footer_Desktop_8" data-name="Footer Desktop 8"><g id="Site_Map_Icons_Kopie" data-name="Site Map + Icons Kopie"><g id="D_Frame_Entdecken_Kopie" data-name="D Frame Entdecken Kopie"><g id="Ebene_165_Kopie" data-name="Ebene 165 Kopie"><path class="cls-1" d="M5.2884,15a5.3374,5.3374,0,0,1-2.9771-.8858A5.6237,5.6237,0,0,1,.07,8.5825a4.9416,4.9416,0,0,1,3.4159-4.16,5.0967,5.0967,0,0,1,4.3065.78A3.2818,3.2818,0,0,1,9.1989,7.8658H8.4007A2.49,2.49,0,0,0,7.3169,5.8435a4.3264,4.3264,0,0,0-3.6-.6575A4.1622,4.1622,0,0,0,.8592,8.7013a4.8237,4.8237,0,0,0,1.8987,4.7511,4.5924,4.5924,0,0,0,2.7932.7424A5.5144,5.5144,0,0,0,8.9342,12.57a5.15,5.15,0,0,0,.5086-.6349,2.7815,2.7815,0,0,1,2.1509-1.5066v.7981c-.6512,0-1.0659.5717-1.5047,1.177a5.7179,5.7179,0,0,1-.5967.7369,6.24,6.24,0,0,1-3.8976,1.8512C5.4926,14.9973,5.39,15,5.2884,15Z"/><path class="cls-1" d="M21.41,6.531,17.26,1.7421A2.3186,2.3186,0,0,0,15.6281.7982h-.009c-.703.0042-1.417.5128-2.1216,1.5113l-.2958.4186-.3336-.3894a1.6018,1.6018,0,0,0-1.2534-.4548,1.6529,1.6529,0,0,0-1.3168.4575l-.3344.3761L9.6708,2.31C8.9662,1.311,8.2522.8024,7.5492.7982H7.54a2.2953,2.2953,0,0,0-1.6092.9154L1.7583,6.531,1.155,6.008,5.3055,1.219A3.047,3.047,0,0,1,7.54,0h.0062A3.3214,3.3214,0,0,1,10.064,1.5024a2.3878,2.3878,0,0,1,1.5511-.4143A2.2863,2.2863,0,0,1,13.1062,1.5,3.3183,3.3183,0,0,1,15.6219,0h.0062a3.0675,3.0675,0,0,1,2.2577,1.2487L22.0133,6.008Z"/><path class="cls-1" d="M10.7952,9.063H9.997a1.5979,1.5979,0,0,1,1.5963-1.5963v.7981A.7992.7992,0,0,0,10.7952,9.063Z"/><path class="cls-1" d="M17.88,15q-.1532,0-.3063-.0086A6.2386,6.2386,0,0,1,13.676,13.14a5.5789,5.5789,0,0,1-.5955-.74c-.4334-.6037-.8434-1.1739-1.5055-1.1739v-.7981a2.759,2.759,0,0,1,2.154,1.5062,5.0057,5.0057,0,0,0,.5051.6353,5.5144,5.5144,0,0,0,3.3835,1.6251,4.5855,4.5855,0,0,0,2.7932-.7424,4.8231,4.8231,0,0,0,1.8983-4.7515A4.1613,4.1613,0,0,0,19.4513,5.186a4.3251,4.3251,0,0,0-3.6.6579,2.49,2.49,0,0,0-1.0838,2.0219h-.7982a3.2805,3.2805,0,0,1,1.4065-2.663,5.0912,5.0912,0,0,1,4.3069-.7806,4.9411,4.9411,0,0,1,3.4155,4.16,5.6237,5.6237,0,0,1-2.2409,5.5321A5.3393,5.3393,0,0,1,17.88,15Z"/><path class="cls-1" d="M13.1713,9.063h-.7982a.7992.7992,0,0,0-.7981-.7982V7.4667A1.5979,1.5979,0,0,1,13.1713,9.063Z"/></g></g></g></g></g></svg>