<svg xmlns="http://www.w3.org/2000/svg" viewBox="0 0 41.25 42.2"><defs><style>.cls-1{fill:#010101;}</style></defs><title>Element 16</title><g id="Ebene_2" data-name="Ebene 2"><g id="Bereich_Grafiken" data-name="Bereich Grafiken"><g id="Icon"><g id="Icons"><path class="cls-1" d="M10.54,41.28H0V22H10.54ZM1.76,39.52h7V23.71h-7Z"/><path class="cls-1" d="M24.59,35.13V33.38a.88.88,0,1,0,0-1.76H18.44v-.88a3.67,3.67,0,0,0-2.73-3.49,10.46,10.46,0,0,0-2.34-.06c-.4,0-.79,0-1.18,0H9.66V25.47H12.2c.35,0,.72,0,1.09,0a11.89,11.89,0,0,1,2.75.08,5.35,5.35,0,0,1,4.08,4.34h4.47a2.63,2.63,0,1,1,0,5.27Z"/><path class="cls-1" d="M24.78,42.2,9.53,39.84l.27-1.74L24.4,40.36l9.09-5.68c1.49-.93,3-1.83,4.53-2.71l.2-.11c.84-.48,1.22-.74,1.27-1.27a.44.44,0,0,0-.27-.53,3.25,3.25,0,0,0-1.82.4L26.35,35.13H15.81V33.38H26.17l10.54-4.52a4.5,4.5,0,0,1,3-.47,2.17,2.17,0,0,1,1.53,2.39,3.48,3.48,0,0,1-2.15,2.61l-.19.11c-1.51.87-3,1.75-4.47,2.67Z"/><path class="cls-1" d="M37.77,24.59H18.44V0H37.77ZM20.2,22.84H36V1.76H20.2Z"/><rect class="cls-1" x="22.84" y="5.27" width="10.54" height="1.76"/><rect class="cls-1" x="22.84" y="10.54" width="10.54" height="1.76"/><rect class="cls-1" x="22.84" y="15.81" width="10.54" height="1.76"/></g></g></g></g></svg>