<svg xmlns="http://www.w3.org/2000/svg" viewBox="0 0 50.1723 50"><defs><style>.cls-1{fill:#5bc914;}</style></defs><title>Element 11</title><g id="Ebene_2" data-name="Ebene 2"><g id="Ebene_138" data-name="Ebene 138"><path class="cls-1" d="M50.1722,39.4461A12.5158,12.5158,0,0,0,43.9259,28.583V19.2717C43.9259,9.006,35.7863.37,25.7767.0129A18.84,18.84,0,0,0,6.259,18.1494q-.0135.3671-.0126.7343v9.7148A12.5081,12.5081,0,0,0,0,39.4616v1.7459a.7759.7759,0,0,0,.776.7759H16.2948a8.7991,8.7991,0,0,0,17.5284,0H49.342a.7759.7759,0,0,0,.7759-.7759ZM25.0861,48.4392a7.2626,7.2626,0,0,1-7.2084-6.4713H32.2946A7.2627,7.2627,0,0,1,25.0861,48.4392ZM48.62,40.416H1.5519v-.97a10.9639,10.9639,0,0,1,5.82-9.6992.776.776,0,0,0,.4267-.6906V18.8837A17.288,17.288,0,0,1,25.09,1.6q.3123,0,.6245.0114c9.1793.3259,16.6516,8.2715,16.6516,17.707v9.738a.776.776,0,0,0,.4112.6828,10.9639,10.9639,0,0,1,5.8351,9.707Z"/></g></g></svg>