<svg xmlns="http://www.w3.org/2000/svg" viewBox="0 0 15.41 26.28"><title>Element 2</title><g id="Ebene_2" data-name="Ebene 2"><g id="Variante_2" data-name="Variante 2"><rect x="4.04" y="21.23" width="8.09" height="1.01"/><rect x="4.04" y="23.25" width="8.09" height="1.01"/><rect x="5.56" y="25.27" width="5.05" height="1.01"/><path d="M12.37,13.79a8.55,8.55,0,0,1-1,1l-.2.15v4.3H5.05v-4.3l-.2-.15C3,13.39,1,10.32,1,8.09A7.07,7.07,0,0,1,8.09,1a7,7,0,0,1,3.41.88L12,1A8,8,0,0,0,8.09,0,8.08,8.08,0,0,0,0,8.09c0,2.48,2.05,5.72,4,7.32v4.81h8.09V15.41a9.67,9.67,0,0,0,.85-.79Z"/><rect x="13.9" y="5.69" width="1.52" height="6.06"/><rect x="13.9" y="2.58" width="1.52" height="1.52"/></g></g></svg>