<svg xmlns="http://www.w3.org/2000/svg" viewBox="0 0 52.7 37.77"><defs><style>.cls-1{fill:#010101;}</style></defs><title>Element 3</title><g id="Ebene_2" data-name="Ebene 2"><g id="Bereich_Grafiken" data-name="Bereich Grafiken"><g id="Icon"><g id="Icons"><path class="cls-1" d="M26.35,33.38a12.3,12.3,0,1,1,12.3-12.3A12.31,12.31,0,0,1,26.35,33.38Zm0-22.84A10.54,10.54,0,1,0,36.89,21.08,10.55,10.55,0,0,0,26.35,10.54Z"/><path class="cls-1" d="M52.7,37.77H0V4.91H17.44L19.63,0H33.07l2.14,4.91H52.7ZM1.76,36H50.94V6.67H34.06L31.92,1.76H20.77l-2.2,4.91H1.76Z"/><path class="cls-1" d="M22.84,22H21.08a6.16,6.16,0,0,1,6.15-6.15v1.76A4.4,4.4,0,0,0,22.84,22Z"/></g></g></g></g></svg>