<svg xmlns="http://www.w3.org/2000/svg" viewBox="0 0 48.856 43.0372"><defs><style>.cls-1{fill:#010101;}.cls-2{fill:#fff;}</style></defs><title>Element 4</title><g id="Ebene_2" data-name="Ebene 2"><g id="Ebene_1-2" data-name="Ebene 1"><g id="Icons"><path class="cls-1" d="M39.7593,43.0372H16.0051a1.9988,1.9988,0,0,1-1.6663-.868,1.8166,1.8166,0,0,1-.1435-1.8081l7.837-16.6467H48.856ZM23.22,25.471,15.8714,41.0816a.128.128,0,0,0,.0108.1355l22.69.0618L46.0134,25.471Z"/><rect class="cls-2" x="15.2756" y="0.8783" width="24.8085" height="31.6192"/><path class="cls-1" d="M41.0029,33.3758H14.3568V0H41.0029ZM16.1944,31.6192H39.1652V1.7566H16.1944Z"/><polygon class="cls-2" points="11.702 42.159 1.493 22.836 11.702 22.836 13.744 24.983 30.079 24.983 38.246 42.159 11.702 42.159"/><path class="cls-1" d="M39.6731,43.0372H11.1373L0,21.9578H12.109L14.15,24.1055h16.52ZM12.2679,41.2806H36.82L29.4879,25.8621H13.3374l-2.0413-2.1477h-8.31Z"/><rect class="cls-1" x="18.3996" y="7.0265" width="18.3766" height="1.7566"/><rect class="cls-1" x="18.3996" y="12.2964" width="18.3766" height="1.7566"/></g></g></g></svg>