<svg xmlns="http://www.w3.org/2000/svg" viewBox="0 0 16.76 18.47"><defs><style>.cls-1{fill:#010101;}</style></defs><title>Element 3</title><g id="Ebene_2" data-name="Ebene 2"><g id="Ebene_1-2" data-name="Ebene 1"><path class="cls-1" d="M16.76,18.47h-.65c0-4.24-1.92-8-4.89-9.56l-.43-.22.34-.37a4.67,4.67,0,0,0,1.19-3.16A4.21,4.21,0,0,0,8.38.73,4.21,4.21,0,0,0,4.44,5.16,4.67,4.67,0,0,0,5.63,8.32L6,8.69l-.43.22c-3,1.57-4.89,5.32-4.89,9.56H0c0-4.34,1.9-8.2,4.87-10A5.5,5.5,0,0,1,3.79,5.16,4.91,4.91,0,0,1,8.38,0,4.91,4.91,0,0,1,13,5.16a5.5,5.5,0,0,1-1.08,3.32C14.86,10.27,16.76,14.14,16.76,18.47Z"/></g></g></svg>