<svg xmlns="http://www.w3.org/2000/svg" viewBox="0 0 17.5094 25"><title>Element 2</title><g id="Ebene_2" data-name="Ebene 2"><g id="Ebene_1-2" data-name="Ebene 1"><g id="Ebene_2-2" data-name="Ebene 2"><g id="Footer_Desktop_8" data-name="Footer Desktop 8"><g id="Adress_Block" data-name="Adress Block"><g id="Nadel"><path d="M8.8362,5.4788a3.1959,3.1959,0,1,0,3.196,3.1959A3.196,3.196,0,0,0,8.8362,5.4788Zm0,5.4787A2.2828,2.2828,0,1,1,11.119,8.6747h0A2.2853,2.2853,0,0,1,8.8362,10.9575Z"/><path d="M14.9464,2.5645a8.7551,8.7551,0,0,0-12.3816,0l0,0A9.9728,9.9728,0,0,0,1.7408,14.87L8.7554,25,15.76,14.8839A9.9763,9.9763,0,0,0,14.9464,2.5645ZM15.019,14.35,8.7554,23.3956l-6.2736-9.06A9.01,9.01,0,0,1,3.2105,3.21a7.8416,7.8416,0,0,1,11.09,0h0A9.0139,9.0139,0,0,1,15.019,14.35Z"/></g></g></g></g></g></g></svg>