<svg xmlns="http://www.w3.org/2000/svg" viewBox="0 0 17.52 17.35"><defs><style>.cls-1{fill:#010101;}.cls-2{fill:#fff;}</style></defs><title>Element 4</title><g id="Ebene_2" data-name="Ebene 2"><g id="Ebene_1-2" data-name="Ebene 1"><path class="cls-1" d="M14.26,17.35H5.74a.7.7,0,0,1-.6-.35.81.81,0,0,1-.05-.73L7.9,9.56h9.62ZM8.33,10.27,5.69,16.56a.06.06,0,0,0,0,.05l8.14,0,2.67-6.37Z"/><rect class="cls-2" x="5.48" y="0.35" width="8.9" height="12.75"/><path class="cls-1" d="M14.71,13.46H5.15V0h9.56Zm-8.9-.71H14V.71H5.81Z"/><polygon class="cls-2" points="4.2 17 0.54 9.21 4.2 9.21 4.93 10.07 10.79 10.07 13.72 17 4.2 17"/><path class="cls-1" d="M14.23,17.35H4L0,8.85H4.34l.73.87H11ZM4.4,16.64h8.81l-2.63-6.22H4.78l-.73-.87h-3Z"/><rect class="cls-1" x="6.6" y="2.83" width="6.59" height="0.71"/><rect class="cls-1" x="6.6" y="4.96" width="6.59" height="0.71"/></g></g></svg>