<svg xmlns="http://www.w3.org/2000/svg" viewBox="0 0 50.9906 33.013"><defs><style>.cls-1{fill:#010101;}</style></defs><title>Element 1</title><g id="Ebene_2" data-name="Ebene 2"><g id="Ebene_1-2" data-name="Ebene 1"><g id="Icons"><path class="cls-1" d="M11.639,33.013a11.7465,11.7465,0,0,1-6.5521-1.95A12.377,12.377,0,0,1,.1541,18.8888a10.8758,10.8758,0,0,1,7.518-9.1562A11.2172,11.2172,0,0,1,17.15,11.45a7.2225,7.2225,0,0,1,3.0955,5.8617H18.4888a5.4809,5.4809,0,0,0-2.3853-4.4508,9.5213,9.5213,0,0,0-7.922-1.447A9.16,9.16,0,0,0,1.891,19.15,10.6161,10.6161,0,0,0,6.07,29.6069a10.1069,10.1069,0,0,0,6.1473,1.634,12.1369,12.1369,0,0,0,7.4459-3.5767,11.3739,11.3739,0,0,0,1.1194-1.3972c1.0713-1.4779,2.4042-3.316,4.7338-3.316v1.7566c-1.4333,0-2.3459,1.2583-3.3117,2.59a12.5856,12.5856,0,0,1-1.3132,1.622,13.7343,13.7343,0,0,1-8.5781,4.0742C12.0885,33.007,11.8629,33.013,11.639,33.013Z"/><path class="cls-1" d="M47.1205,14.3738,37.9858,3.834c-.0635-.0823-1.5328-2.0774-3.59-2.0774h-.02c-1.5473.01-3.1187,1.1288-4.6695,3.3263l-.651.9212-.7342-.8569a3.5251,3.5251,0,0,0-2.7584-1.001,3.6379,3.6379,0,0,0-2.8983,1.007l-.7359.8277-.6442-.898c-1.5507-2.1975-3.1221-3.3168-4.6694-3.3263h-.02a5.05,5.05,0,0,0-3.5416,2.0148L3.87,14.3738,2.542,13.2227l9.1348-10.54A6.7048,6.7048,0,0,1,16.595,0h.0137C18.548.0051,20.4093,1.1168,22.15,3.3065a5.2559,5.2559,0,0,1,3.4137-.9117,5.0321,5.0321,0,0,1,3.2817.9074C30.5836,1.115,32.4432.0051,34.3816,0h.0137c2.972,0,4.8891,2.6358,4.9688,2.7482l9.0842,10.4745Z"/><path class="cls-1" d="M23.7587,19.9464H22.0021a3.5167,3.5167,0,0,1,3.5132-3.5133V18.19A1.7588,1.7588,0,0,0,23.7587,19.9464Z"/><path class="cls-1" d="M39.3521,33.013q-.337,0-.6741-.0189A13.7322,13.7322,0,0,1,30.099,28.92a12.2939,12.2939,0,0,1-1.3106-1.6288c-.9538-1.3286-1.8561-2.5835-3.3134-2.5835V22.951c2.3587,0,3.6788,1.8381,4.7406,3.3151a11.0283,11.0283,0,0,0,1.1116,1.3981,12.1373,12.1373,0,0,0,7.4468,3.5767,10.09,10.09,0,0,0,6.1473-1.634A10.6146,10.6146,0,0,0,49.0993,19.15a9.1584,9.1584,0,0,0-6.29-7.7359,9.5182,9.5182,0,0,0-7.9228,1.4479,5.48,5.48,0,0,0-2.3853,4.45H30.7449A7.22,7.22,0,0,1,33.84,11.4506a11.2047,11.2047,0,0,1,9.4787-1.718,10.875,10.875,0,0,1,7.5171,9.1554,12.3772,12.3772,0,0,1-4.9319,12.1754A11.7509,11.7509,0,0,1,39.3521,33.013Z"/><path class="cls-1" d="M28.9882,19.9464H27.2316A1.7588,1.7588,0,0,0,25.475,18.19V16.4331A3.5167,3.5167,0,0,1,28.9882,19.9464Z"/></g></g></g></svg>