<svg xmlns="http://www.w3.org/2000/svg" viewBox="0 0 52.7 47.26"><defs><style>.cls-1{fill:#010101;}</style></defs><title>Element 18</title><g id="Ebene_2" data-name="Ebene 2"><g id="Bereich_Grafiken" data-name="Bereich Grafiken"><g id="Icon"><g id="Icons"><polygon class="cls-1" points="52.7 47.26 0 47.26 0 13.88 16.69 13.88 16.69 15.64 1.76 15.64 1.76 45.5 50.94 45.5 50.94 15.64 36.01 15.64 36.01 13.88 52.7 13.88 52.7 47.26"/><rect class="cls-1" x="25.47" y="2.46" width="1.76" height="14.05"/><rect class="cls-1" x="3.51" y="17.39" width="3.51" height="1.76"/><rect class="cls-1" x="3.51" y="20.91" width="3.51" height="1.76"/><rect class="cls-1" x="3.51" y="24.42" width="3.51" height="1.76"/><rect class="cls-1" x="3.51" y="27.93" width="3.51" height="1.76"/><rect class="cls-1" x="3.51" y="31.45" width="3.51" height="1.76"/><rect class="cls-1" x="3.51" y="34.96" width="3.51" height="1.76"/><rect class="cls-1" x="3.51" y="38.47" width="3.51" height="1.76"/><rect class="cls-1" x="3.51" y="41.99" width="3.51" height="1.76"/><rect class="cls-1" x="45.67" y="17.39" width="3.51" height="1.76"/><rect class="cls-1" x="45.67" y="20.91" width="3.51" height="1.76"/><rect class="cls-1" x="45.67" y="24.42" width="3.51" height="1.76"/><rect class="cls-1" x="45.67" y="27.93" width="3.51" height="1.76"/><rect class="cls-1" x="45.67" y="31.45" width="3.51" height="1.76"/><rect class="cls-1" x="45.67" y="34.96" width="3.51" height="1.76"/><rect class="cls-1" x="45.67" y="38.47" width="3.51" height="1.76"/><rect class="cls-1" x="45.67" y="41.99" width="3.51" height="1.76"/><path class="cls-1" d="M21.41,38.24V21.14l14.81,8.55Zm1.76-14.05v11l9.54-5.5Z"/><polygon class="cls-1" points="29.13 7.34 26.35 3.17 23.57 7.34 22.11 6.37 26.35 0 30.59 6.37 29.13 7.34"/></g></g></g></g></svg>