      <svg xmlns="http://www.w3.org/2000/svg" viewBox="0 0 37.78 46.12"><defs><style>.cls-1{fill:#010101;}.cls-2{fill:#fff;}</style></defs><title>Element 19</title><g id="Ebene_2" data-name="Ebene 2"><g id="Bereich_Grafiken" data-name="Bereich Grafiken"><g id="Icon"><g id="Icons"><path class="cls-1" d="M31.64,46.12,9.31,13.28l6.14-4.17L37.78,41.95ZM11.75,13.75,32.11,43.68l3.23-2.2L15,11.55Z"/><circle class="cls-2" cx="14.89" cy="14.89" r="14.01" transform="translate(-2.52 26.73) rotate(-79.22)"/><path class="cls-1" d="M14.89,29.77a14.89,14.89,0,1,1,14.62-12.1A14.88,14.88,0,0,1,14.89,29.77Zm0-28A13.14,13.14,0,0,0,2,12.43H2A13.11,13.11,0,1,0,14.86,1.76Z"/><rect class="cls-1" x="14.11" y="8.69" width="1.76" height="12.3"/><rect class="cls-1" x="8.84" y="13.96" width="12.3" height="1.76"/></g></g></g></g></svg>