<svg xmlns="http://www.w3.org/2000/svg" viewBox="0 0 46.5505 42.1589"><defs><style>.cls-1{fill:#010101;}.cls-2{fill:#fff;}</style></defs><title>Element 5</title><g id="Ebene_2" data-name="Ebene 2"><g id="Ebene_1-2" data-name="Ebene 1"><g id="Icons"><path class="cls-1" d="M35.1324,38.6457H3.5132V0H35.1324ZM5.27,36.889H33.3758V1.7566H5.27Z"/><rect class="cls-2" x="0.8783" y="4.3916" width="29.8626" height="36.889"/><path class="cls-1" d="M31.6192,42.1589H0V3.5132H31.6192ZM1.7566,40.4023h28.106V5.27H1.7566Z"/><rect class="cls-1" x="6.1482" y="10.5397" width="19.3228" height="1.7566"/><rect class="cls-1" x="6.1482" y="17.5662" width="19.3228" height="1.7566"/><rect class="cls-1" x="6.1482" y="24.5927" width="19.3228" height="1.7566"/><path class="cls-1" d="M46.5505,40.4023H37.7674V7.6389l4.3915-6.5873,4.3916,6.5873ZM39.524,38.6457h5.27V8.1707L42.1589,4.2183,39.524,8.1707Z"/><rect class="cls-1" x="38.6457" y="33.3758" width="6.1482" height="1.7566"/><rect class="cls-1" x="38.6457" y="7.0265" width="6.1482" height="1.7566"/></g></g></g></svg>