<svg xmlns="http://www.w3.org/2000/svg" viewBox="0 0 15.83 17.8"><defs><style>.cls-1{fill:#010101;}</style></defs><title>Element 5</title><g id="Ebene_2" data-name="Ebene 2"><g id="Ebene_1-2" data-name="Ebene 1"><path class="cls-1" d="M15.83,17.8H0V0ZM.57,17.15H14.45L.57,1.55Zm9.55-1.93H1.71V5.78Zm-7.83-.64H8.74L2.29,7.33Z"/><polygon class="cls-1" points="1.92 4.54 1.51 4.08 2.08 3.44 2.49 3.89 1.92 4.54"/><polygon class="cls-1" points="3.06 5.82 2.65 5.37 3.23 4.72 3.63 5.18 3.06 5.82"/><polygon class="cls-1" points="4.2 7.1 3.8 6.65 4.37 6.01 4.77 6.46 4.2 7.1"/><polygon class="cls-1" points="5.34 8.39 4.94 7.93 5.51 7.29 5.92 7.75 5.34 8.39"/><polygon class="cls-1" points="6.49 9.67 6.08 9.22 6.65 8.58 7.06 9.03 6.49 9.67"/><polygon class="cls-1" points="7.63 10.96 7.23 10.5 7.8 9.86 8.2 10.31 7.63 10.96"/><polygon class="cls-1" points="8.77 12.24 8.37 11.79 8.94 11.15 9.34 11.6 8.77 12.24"/><polygon class="cls-1" points="9.91 13.53 9.51 13.07 10.08 12.43 10.49 12.88 9.91 13.53"/><polygon class="cls-1" points="11.06 14.81 10.65 14.36 11.22 13.71 11.63 14.17 11.06 14.81"/><polygon class="cls-1" points="12.2 16.1 11.8 15.64 12.37 15 12.77 15.45 12.2 16.1"/><path class="cls-1" d="M13.79,13.75,4.29,3.07,3.61,0,6.32.78l.06.06,9.45,10.63Zm-9-11,9,10.11L15,11.46,6,1.36,4.39.9Z"/><polygon class="cls-1" points="12.62 12.07 12.21 11.61 13.93 9.69 14.33 10.14 12.62 12.07"/></g></g></svg>