<svg xmlns="http://www.w3.org/2000/svg" viewBox="0 0 28.3801 25"><defs><style>.cls-1{fill:#fff;}.cls-2{fill:#6d757d;}</style></defs><title>Element 9</title><g id="Ebene_2" data-name="Ebene 2"><g id="Footer_Desktop_10" data-name="Footer Desktop 10"><g id="Site_Map_Icons_Kopie_Kopie_Kopie" data-name="Site Map + Icons Kopie Kopie Kopie"><g id="Portfolio_Kopie_4_Kopie_Kopie" data-name="Portfolio Kopie 4 Kopie Kopie"><g id="Portfolio_Icon_Kopie_Kopie_Kopie" data-name="Portfolio Icon Kopie Kopie Kopie"><path class="cls-1" d="M23.0958,25H9.2972a1.161,1.161,0,0,1-.9679-.5042,1.0552,1.0552,0,0,1-.0834-1.05l4.5525-9.67H28.38ZM13.4885,14.7959,9.22,23.864a.0741.0741,0,0,0,.0062.0787l13.18.0359,4.3226-9.1827Z"/><rect class="cls-2" x="8.8735" y="0.5102" width="14.4111" height="18.3673"/><path class="cls-1" d="M23.8183,19.3878H8.34V0H23.8183Zm-14.4111-1.02H22.7508V1.02H9.4072Z"/><polygon class="cls-2" points="6.798 24.49 0.867 13.265 6.798 13.265 7.984 14.512 17.473 14.512 22.217 24.49 6.798 24.49"/><path class="cls-1" d="M23.0458,25H6.47L0,12.7551H7.034L8.22,14.0027h9.5965M7.1263,23.98h14.262l-4.259-8.9565H7.7476L6.5618,13.7755H1.7347Z"/><rect class="cls-1" x="10.6882" y="4.0816" width="10.6749" height="1.0204"/><rect class="cls-1" x="10.6882" y="7.1429" width="10.6749" height="1.0204"/></g></g></g></g></g></svg>