<svg xmlns="http://www.w3.org/2000/svg" viewBox="0 0 49.1854 34.2155"><defs><style>.cls-1{fill:#010101;}.cls-2{fill:#fff;}</style></defs><title>Element 17</title><g id="Ebene_2" data-name="Ebene 2"><g id="Ebene_1-2" data-name="Ebene 1"><g id="Icons"><path class="cls-1" d="M49.1854,29.4423H22.76V28.564a14.46,14.46,0,0,1,7.2109-12.7827,6.5817,6.5817,0,0,1-1.4058-4.0648A7.1952,7.1952,0,0,1,35.973,4.7732a7.1952,7.1952,0,0,1,7.4082,6.9433,6.5836,6.5836,0,0,1-1.4058,4.0648,14.46,14.46,0,0,1,7.21,12.7827ZM24.5438,27.6857H47.4013a12.48,12.48,0,0,0-7.2186-10.8314l-1.2446-.5421,1.0044-.9135a4.9456,4.9456,0,0,0,1.682-3.6822A5.4405,5.4405,0,0,0,35.973,6.53a5.4406,5.4406,0,0,0-5.6516,5.1866,4.9465,4.9465,0,0,0,1.6812,3.6822l1.0061.9127-1.2454.5429A12.48,12.48,0,0,0,24.5438,27.6857Z"/><path class="cls-1" d="M26.4257,29.4423H0V28.564A14.46,14.46,0,0,1,7.2109,15.7813a6.5811,6.5811,0,0,1-1.4058-4.0648,7.1952,7.1952,0,0,1,7.4082-6.9433,7.1952,7.1952,0,0,1,7.4081,6.9433,6.5811,6.5811,0,0,1-1.4058,4.0648,14.4629,14.4629,0,0,1,7.21,12.7827ZM1.7841,27.6857H24.6416A12.48,12.48,0,0,0,17.423,16.8543l-1.2454-.5429,1.0061-.9127a4.9468,4.9468,0,0,0,1.6811-3.6822A5.4405,5.4405,0,0,0,13.2133,6.53a5.4405,5.4405,0,0,0-5.6516,5.1866,4.9468,4.9468,0,0,0,1.6811,3.6822l1.0062.9127-1.2455.5429A12.48,12.48,0,0,0,1.7841,27.6857Z"/><path class="cls-2" d="M30.5936,15.6075a8.5922,8.5922,0,1,0-12.0012,0c-5.99,2.8091-10.2291,9.6809-10.2291,17.73H40.8226C40.8226,25.2884,36.5837,18.4166,30.5936,15.6075Z"/><path class="cls-1" d="M41.7009,34.2155H7.4854v-.8783c0-7.75,3.7671-14.6731,9.69-17.9891A9.3693,9.3693,0,0,1,15.1226,9.47a9.4706,9.4706,0,0,1,18.9411,0,9.37,9.37,0,0,1-2.0534,5.878c5.9226,3.316,9.6906,10.24,9.6906,17.9891ZM9.2591,32.4589h30.668c-.2848-7.1534-4.03-13.3951-9.7069-16.0566l-1.1467-.5378.9057-.8852a7.7135,7.7135,0,1,0-10.773,0l.9057.8852-1.1467.5378C13.29,19.0638,9.5439,25.3055,9.2591,32.4589Z"/></g></g></g></svg>