<svg xmlns="http://www.w3.org/2000/svg" viewBox="0 0 52.7 47.26"><defs><style>.cls-1{fill:#010101;}</style></defs><title>Element 15</title><g id="Ebene_2" data-name="Ebene 2"><g id="Bereich_Grafiken" data-name="Bereich Grafiken"><g id="Icon"><g id="Icons"><polygon class="cls-1" points="27.23 42.35 16.69 31.81 13.08 35.42 7.93 28.55 1.6 37.59 0.16 36.58 7.88 25.56 13.27 32.74 16.69 29.33 27.23 39.87 43.04 24.06 52.44 33.46 51.2 34.7 43.04 26.54 27.23 42.35"/><polygon class="cls-1" points="52.7 47.26 0 47.26 0 13.88 16.69 13.88 16.69 15.64 1.76 15.64 1.76 45.5 50.94 45.5 50.94 15.64 36.01 15.64 36.01 13.88 52.7 13.88 52.7 47.26"/><polygon class="cls-1" points="29.13 7.34 26.35 3.17 23.57 7.34 22.1 6.37 26.35 0 30.59 6.37 29.13 7.34"/><rect class="cls-1" x="25.47" y="2.46" width="1.76" height="14.05"/></g></g></g></g></svg>