<svg xmlns="http://www.w3.org/2000/svg" viewBox="0 0 48.6708 48.6707"><defs><style>.cls-1{fill:#010101;}</style></defs><title>Element 3</title><g id="Ebene_2" data-name="Ebene 2"><g id="Ebene_1-2" data-name="Ebene 1"><g id="Icons"><path class="cls-1" d="M48.6708,48.6707H0V0ZM1.7566,46.9141H44.43L1.7566,4.2406Zm29.348-5.27H5.27V15.81ZM7.0265,39.8876H26.864L7.0265,20.05Z"/><rect class="cls-1" x="4.9061" y="10.0252" width="2.4842" height="1.7564" transform="translate(-5.9091 7.541) rotate(-45)"/><rect class="cls-1" x="8.4193" y="13.5384" width="2.4842" height="1.7564" transform="translate(-7.3643 11.0542) rotate(-45)"/><rect class="cls-1" x="11.9325" y="17.0517" width="2.4842" height="1.7564" transform="translate(-8.8196 14.5674) rotate(-45)"/><rect class="cls-1" x="15.4458" y="20.5649" width="2.4842" height="1.7564" transform="translate(-10.2748 18.0807) rotate(-45)"/><rect class="cls-1" x="18.959" y="24.0781" width="2.4842" height="1.7564" transform="translate(-11.73 21.5939) rotate(-45)"/><rect class="cls-1" x="22.4723" y="27.5914" width="2.4842" height="1.7564" transform="translate(-13.1853 25.1072) rotate(-45)"/><rect class="cls-1" x="25.9855" y="31.1046" width="2.4842" height="1.7564" transform="translate(-14.6405 28.6204) rotate(-45)"/><rect class="cls-1" x="29.4988" y="34.6179" width="2.4842" height="1.7564" transform="translate(-16.0957 32.1337) rotate(-45)"/><rect class="cls-1" x="33.012" y="38.1311" width="2.4842" height="1.7564" transform="translate(-17.551 35.6469) rotate(-45)"/><rect class="cls-1" x="36.5253" y="41.6444" width="2.4842" height="1.7564" transform="translate(-19.0062 39.1602) rotate(-45)"/><path class="cls-1" d="M42.41,37.6164,13.1755,8.3834,11.09.0352l8.3483,2.086.1715.1724L48.6708,31.355ZM14.7623,7.4845,42.41,35.1324l3.7766-3.7774L18.54,3.7079,13.5032,2.4488Z"/><rect class="cls-1" x="37.0782" y="28.8728" width="7.4527" height="1.7564" transform="translate(-9.0858 37.5671) rotate(-45)"/></g></g></g></svg>