<svg xmlns="http://www.w3.org/2000/svg" viewBox="0 0 26.7885 45.6721"><defs><style>.cls-1{fill:#010101;}</style></defs><title>Element 18</title><g id="Ebene_2" data-name="Ebene 2"><g id="Ebene_1-2" data-name="Ebene 1"><g id="Icons"><rect class="cls-1" x="7.0265" y="36.889" width="14.053" height="1.7566"/><rect class="cls-1" x="7.0265" y="40.4023" width="14.053" height="1.7566"/><rect class="cls-1" x="9.6614" y="43.9155" width="8.7831" height="1.7566"/><path class="cls-1" d="M21.4906,23.97a14.8651,14.8651,0,0,1-1.817,1.6778l-.3508.2625v7.4656H8.7831V25.91l-.3508-.2625C5.275,23.2769,1.7566,17.9316,1.7566,14.053A12.2855,12.2855,0,0,1,14.053,1.7566a12.2144,12.2144,0,0,1,5.9231,1.527l.8463-1.5386A13.9625,13.9625,0,0,0,14.053,0,14.0376,14.0376,0,0,0,0,14.053c0,4.316,3.569,9.941,7.0265,12.7252v8.3542H21.08V26.7782a16.8276,16.8276,0,0,0,1.4842-1.3775Z"/><rect class="cls-1" x="24.1535" y="9.881" width="2.6349" height="10.5397"/><rect class="cls-1" x="24.1535" y="4.479" width="2.6349" height="2.6349"/></g></g></g></svg>