<svg xmlns="http://www.w3.org/2000/svg" viewBox="0 0 26.3493 26.3493"><defs><style>.cls-1{fill:#010101;}</style></defs><title>Element 3</title><g id="Ebene_2" data-name="Ebene 2"><g id="Ebene_1-2" data-name="Ebene 1"><path class="cls-1" d="M15.81,26.3493H10.54V22.4707a9.5369,9.5369,0,0,1-2.07-.8646L5.7219,24.3542l-3.726-3.7276L4.7424,17.88a9.6119,9.6119,0,0,1-.8638-2.07H0V10.54H3.8786a9.614,9.614,0,0,1,.8638-2.07L1.9959,5.7227l3.726-3.7276L8.4692,4.7432a9.5369,9.5369,0,0,1,2.07-.8646V0h5.27V3.8786a9.5348,9.5348,0,0,1,2.07.8646l2.7473-2.7481,3.726,3.7276L21.607,8.4692a9.6186,9.6186,0,0,1,.8637,2.07h3.8786v5.27H22.4707a9.6165,9.6165,0,0,1-.8637,2.07l2.7464,2.7465-3.726,3.7276L17.88,21.6061a9.5348,9.5348,0,0,1-2.07.8646Zm-3.5133-1.7566H14.053V21.064l.7033-.1441a7.8118,7.8118,0,0,0,2.7722-1.1562l.5987-.3963,2.5,2.5029,1.242-1.2437-2.5011-2.5012.3963-.5986a7.8384,7.8384,0,0,0,1.1562-2.7705l.1432-.7033h3.5287V12.2963H21.064l-.1432-.7033a7.838,7.838,0,0,0-1.1562-2.77l-.3963-.5987,2.5011-2.5012L20.6274,4.479l-2.5,2.5029-.5987-.3963a7.8118,7.8118,0,0,0-2.7722-1.1562l-.7033-.1441V1.7566H12.2963V5.2853l-.7033.1441A7.8118,7.8118,0,0,0,8.8208,6.5856l-.5986.3963-2.5-2.5029L4.48,5.7227,6.981,8.2239l-.3962.5987a7.8382,7.8382,0,0,0-1.1563,2.77l-.1432.7033H1.7566V14.053H5.2853l.1432.7033a7.8387,7.8387,0,0,0,1.1563,2.7705l.3962.5986L4.48,20.6266,5.7219,21.87l2.5-2.5029.5986.3963A7.8118,7.8118,0,0,0,11.593,20.92l.7033.1441Zm.8784-6.1482a5.27,5.27,0,1,1,5.27-5.27A5.2756,5.2756,0,0,1,13.1747,18.4445Zm0-8.7831a3.5133,3.5133,0,1,0,3.5132,3.5133A3.5173,3.5173,0,0,0,13.1747,9.6614Z"/></g></g></svg>