<svg xmlns="http://www.w3.org/2000/svg" viewBox="0 0 34.5938 43.0372"><defs><style>.cls-1{fill:#010101;}</style></defs><title>Element 16</title><g id="Ebene_2" data-name="Ebene 2"><g id="Ebene_1-2" data-name="Ebene 1"><g id="Icons"><path class="cls-1" d="M13.0151,13.0143H0V0H13.0151ZM1.7566,11.2576h9.5019V1.7566H1.7566Z"/><path class="cls-1" d="M13.0151,28.0262H0V15.011H13.0151ZM1.7566,26.27h9.5019V16.7677H1.7566Z"/><path class="cls-1" d="M13.0151,43.0372H0V30.0221H13.0151ZM1.7566,41.2806h9.5019V31.7787H1.7566Z"/><polygon class="cls-1" points="23.75 1.974 16.95 6.507 23.75 11.041 24.791 9.479 21.74 7.445 34.59 7.445 34.59 5.569 21.74 5.569 24.791 3.535 23.75 1.974"/><polygon class="cls-1" points="34.594 38.346 13.075 38.346 13.075 36.59 32.837 36.59 32.837 6.508 34.594 6.508 34.594 38.346"/></g></g></g></svg>