<svg xmlns="http://www.w3.org/2000/svg" viewBox="0 0 47.3361 20.5926"><defs><style>.cls-1{fill:#010101;}</style></defs><title>Element 19</title><g id="Ebene_2" data-name="Ebene 2"><g id="Ebene_1-2" data-name="Ebene 1"><g id="Icons"><path class="cls-1" d="M23.6681,14.9214h0a.8788.8788,0,0,1,.8736-.8734C36.9852,13.906,45.58,10.7465,45.58,7.9048c0-2.9077-8.9984-6.1482-21.9114-6.1482S1.7566,4.9971,1.7566,7.9048c0,1.29,2.1374,3.2528,8.0844,4.6828a.8832.8832,0,0,1,.6651,1.0417l0,.0012a.88.88,0,0,1-1.06.6684C3.3448,12.8351,0,10.5783,0,7.9048,0,2.7705,12.1943,0,23.6681,0s23.668,2.7705,23.668,7.9048c0,5.0022-11.5745,7.7606-22.7807,7.8993A.8812.8812,0,0,1,23.6681,14.9214Z"/><path class="cls-1" d="M30.2054,20.4451l-7.1748-4.7837a.8775.8775,0,0,1,0-1.46l7.1748-4.7836a.8776.8776,0,0,1,1.217.2433l.0008.0013A.8775.8775,0,0,1,31.18,10.879l-4.9825,3.3221a.8775.8775,0,0,0,0,1.46L31.18,18.9836a.8775.8775,0,0,1,.2434,1.2169l-.0008.0012A.8775.8775,0,0,1,30.2054,20.4451Z"/></g></g></g></svg>