<svg xmlns="http://www.w3.org/2000/svg" viewBox="0 0 18.07 16.81"><defs><style>.cls-1{fill:#010101;}.cls-2{fill:#fff;}</style></defs><title>Element 2</title><g id="Ebene_2" data-name="Ebene 2"><g id="Ebene_1-2" data-name="Ebene 1"><path class="cls-1" d="M12.46,15.41H1.25V0H12.46Zm-10.59-.7h10V.7h-10Z"/><rect class="cls-2" x="0.31" y="1.75" width="10.59" height="14.71"/><path class="cls-1" d="M11.21,16.81H0V1.4H11.21ZM.62,16.11h10V2.1H.62Z"/><rect class="cls-1" x="2.18" y="4.2" width="6.85" height="0.7"/><rect class="cls-1" x="2.18" y="7" width="6.85" height="0.7"/><rect class="cls-1" x="2.18" y="9.8" width="6.85" height="0.7"/><path class="cls-1" d="M16.51,16.11H13.39V3L15,.42,16.51,3ZM14,15.41h1.87V3.26L15,1.68,14,3.26Z"/><rect class="cls-1" x="13.71" y="13.31" width="4.05" height="0.7"/><rect class="cls-1" x="17.44" y="9.45" width="0.62" height="4.55"/><rect class="cls-1" x="13.71" y="2.8" width="2.18" height="0.7"/></g></g></svg>