<svg xmlns="http://www.w3.org/2000/svg" viewBox="0 0 33.1288 45.6725"><defs><style>.cls-1{fill:#010101;}.cls-2{fill:#fff;}</style></defs><title>Element 35</title><g id="Ebene_2" data-name="Ebene 2"><g id="Ebene_1-2" data-name="Ebene 1"><rect class="cls-1" x="7.0265" y="36.8894" width="14.053" height="1.7566"/><rect class="cls-1" x="7.0265" y="40.4026" width="14.053" height="1.7566"/><rect class="cls-1" x="9.6614" y="43.9159" width="8.7831" height="1.7566"/><path class="cls-1" d="M21.08,35.1328H7.0265V26.7785C3.569,23.9926,0,18.3677,0,14.0533A14.1852,14.1852,0,0,1,.32,11.059h0a14.0545,14.0545,0,0,1,27.786,2.9943c0,4.3152-3.569,9.94-7.0264,12.7252ZM8.7831,33.3762h10.54V25.9105l.3508-.2633c3.1573-2.3716,6.6757-7.7161,6.6757-11.5939a12.2964,12.2964,0,1,0-24.5927,0c0,3.8769,3.5184,9.2223,6.6757,11.5939l.3508.2642Z"/><polygon class="cls-2" points="25.471 15.81 29.863 9.486 25.471 0 21.08 6.324 25.471 15.81"/><polygon class="cls-1" points="13.819 21.465 6.395 13.786 7.658 12.564 13.819 18.938 31.866 0.268 33.129 1.489 13.819 21.465"/></g></g></svg>