<svg xmlns="http://www.w3.org/2000/svg" viewBox="0 0 20.3962 20"><defs><style>.cls-1{fill:#fff;}</style></defs><title>Element 15</title><g id="Ebene_2" data-name="Ebene 2"><g id="Footer_Desktop_8" data-name="Footer Desktop 8"><g id="Site_Map_Icons_Kopie" data-name="Site Map + Icons Kopie"><g id="Mein_Profil_Kopie_4" data-name="Mein Profil Kopie 4"><g id="Ebene_169_Kopie" data-name="Ebene 169 Kopie"><path class="cls-1" d="M20.3962,20h-.7924c0-4.592-2.3355-8.6539-5.95-10.3486l-.5173-.243.4086-.3993a4.7928,4.7928,0,1,0-6.6938,0l.4086.3993-.5173.243C3.1279,11.3461.7924,15.408.7924,20H0c0-4.6934,2.3084-8.8775,5.9249-10.8245a5.5275,5.5275,0,0,1-1.312-3.59,5.5854,5.5854,0,1,1,11.1708,0,5.5258,5.5258,0,0,1-1.3124,3.59C18.0878,11.1225,20.3962,15.3066,20.3962,20Z"/></g></g></g></g></g></svg>