<svg xmlns="http://www.w3.org/2000/svg" viewBox="0 0 37.7795 46.121"><defs><style>.cls-1{fill:#010101;}.cls-2{fill:#fff;}</style></defs><title>Element 9</title><g id="Ebene_2" data-name="Ebene 2"><g id="Ebene_1-2" data-name="Ebene 1"><g id="Icons"><path class="cls-1" d="M31.6408,46.121,9.3056,13.283l6.1379-4.1745L37.78,41.9465ZM11.7467,13.7479,32.1057,43.68l3.2328-2.1983L14.9786,11.55Z"/><circle class="cls-2" cx="14.8859" cy="14.8881" r="14.006"/><path class="cls-1" d="M14.8911,29.7745A14.886,14.886,0,1,1,29.5076,17.6711,14.877,14.877,0,0,1,14.8911,29.7745ZM14.8585,1.7569A13.1356,13.1356,0,0,0,1.99,12.433v.0009A13.1071,13.1071,0,1,0,14.8585,1.7569Z"/><rect class="cls-1" x="14.1055" y="8.6933" width="1.7566" height="12.2963"/><rect class="cls-1" x="8.8356" y="13.9632" width="12.2964" height="1.7566"/></g></g></g></svg>