<svg xmlns="http://www.w3.org/2000/svg" viewBox="0 0 16 16"><title>Element 1</title><g id="Ebene_2" data-name="Ebene 2"><g id="Ebene_1-2" data-name="Ebene 1"><g id="Ebene_2-2" data-name="Ebene 2"><g id="Footer_Desktop_8" data-name="Footer Desktop 8"><g id="Adress_Block" data-name="Adress Block"><g id="DB_Planet_Link_Kopie_2" data-name="DB Planet Link Kopie 2"><path d="M7.7156,14.7378a.1075.1075,0,0,1-.0712-.0178c-1.1911-.32-1.1377-1.44-1.1022-2.3644a3.8442,3.8442,0,0,0-.0533-1.1378,1.4172,1.4172,0,0,0-.4622-.6045,1.9722,1.9722,0,0,1-.5334-.6577,2.3768,2.3768,0,0,1-.1777-1.0489A2.0607,2.0607,0,0,0,5.2622,8.32c-.0711-.3022-.2133-.3733-.4978-.4978a4.7392,4.7392,0,0,1-.4266-.2133A4.22,4.22,0,0,1,3.8044,7.2a2.4748,2.4748,0,0,0-.3377-.2667,1.263,1.263,0,0,0-.5511-.2311c-.0534-.0178-.1067-.0178-.16-.0355C2.0622,6.4889,1.9022,5.9022,1.76,5.44a5.6307,5.6307,0,0,1-.2667-1.9911.2673.2673,0,0,1,.5334.0355,5.0708,5.0708,0,0,0,.2489,1.8134c.1422.5155.2488.7466.6044.8533.0533.0178.1067.0178.1422.0356a2.1976,2.1976,0,0,1,.7467.32,2.9022,2.9022,0,0,1,.3555.3022,2.6752,2.6752,0,0,0,.4623.3555,2.1974,2.1974,0,0,0,.3555.1778,1.1629,1.1629,0,0,1,.8178.8889,3.0418,3.0418,0,0,1,.0533.6933,1.9811,1.9811,0,0,0,.1245.8178,1.5089,1.5089,0,0,0,.4089.48,1.8762,1.8762,0,0,1,.6222.8534,4.0813,4.0813,0,0,1,.0889,1.3333c-.0356.7289-.0178,1.2622.2666,1.5644a1.2562,1.2562,0,0,1,.1245-.96,1.6514,1.6514,0,0,1,.7644-.48,1.719,1.719,0,0,0,.4445-.2311,1.0417,1.0417,0,0,0,.4089-.8l.0177-.0533a1.0318,1.0318,0,0,1,.5689-.64c.0889-.0533.1778-.1067.2489-.16a2.2865,2.2865,0,0,0,.7467-1.3333.4423.4423,0,0,0-.1245-.3378,2.0166,2.0166,0,0,0-.5511-.3022A3.572,3.572,0,0,1,9.6,8.4978,2.1744,2.1744,0,0,1,9.0489,8a2.2911,2.2911,0,0,0-.2845-.3022,1.3584,1.3584,0,0,0-.64-.1778c-.1422-.0178-.2666-.0356-.4088-.0533a5.7271,5.7271,0,0,1-.6578-.2134c-.1956-.0711-.3734-.1422-.5511-.1955a2.4922,2.4922,0,0,0-1.1911.0711c-.5156.1067-.8534.1422-1.0312-.5511-.0355-.1245-.16-.1778-.4088-.2489-.32-.0889-.9245-.2667-.7112-1.0845A1.2822,1.2822,0,0,1,4.0889,4.32a1.417,1.417,0,0,1,.9778.0533,3.9946,3.9946,0,0,1,.7822-1.3689,1.6778,1.6778,0,0,1,1.6889-.7111h.1244a.5407.5407,0,0,0-.1244-.0889.9962.9962,0,0,1-.32-.2844,2.985,2.985,0,0,1-.2667-.5333c-.16-.3734-.2844-.6223-.4978-.6578a.2835.2835,0,0,1-.2311-.32A.2709.2709,0,0,1,6.5259.1752l.0163.0026c.5334.0889.7467.5866.9067.9778a3.1679,3.1679,0,0,0,.2133.4266,2.4009,2.4009,0,0,0,.1956.16.9026.9026,0,0,1,.4089.4445.4445.4445,0,0,1-.0534.4266.6877.6877,0,0,1-.64.1956H7.5378c-.6578-.0178-.8711.0178-1.2622.4978A2.91,2.91,0,0,0,5.5289,4.8a.2453.2453,0,0,1-.1778.2311.2783.2783,0,0,1-.2844-.0533A.8748.8748,0,0,0,4.2311,4.8a.7835.7835,0,0,0-.5511.5511c-.0711.32-.0178.3378.3378.4267a.9934.9934,0,0,1,.8.64.6247.6247,0,0,0,.0711.2133c.0533,0,.2133-.0355.32-.0533a2.9406,2.9406,0,0,1,1.4222-.0534,3.4891,3.4891,0,0,1,.6045.2134,3.7762,3.7762,0,0,0,.5866.1955c.1067.0178.2134.0356.3378.0534a1.6806,1.6806,0,0,1,.9244.3022,2.293,2.293,0,0,1,.3556.3733,1.5566,1.5566,0,0,0,.3911.3734l.32.16a2.1,2.1,0,0,1,.6933.4088,1.0186,1.0186,0,0,1,.3023.7467,2.7866,2.7866,0,0,1-.9423,1.7245c-.1066.0888-.2311.16-.32.2311-.1777.1066-.2844.1777-.32.3022l-.0177.0533a1.5729,1.5729,0,0,1-.6223,1.1022,2.8823,2.8823,0,0,1-.5688.3023,1.6082,1.6082,0,0,0-.5512.32c-.1066.1244-.0177.5511.0178.8.0178.1066.0356.2133.0534.3022a.2316.2316,0,0,1-.0889.2311C7.84,14.7022,7.7689,14.7378,7.7156,14.7378Z"/><path d="M8,16a8,8,0,1,1,8-8A8,8,0,0,1,8,16ZM8,.5511A7.4489,7.4489,0,1,0,15.4489,8h0A7.4582,7.4582,0,0,0,8,.5511Z"/><path d="M14.2044,8.8356A1.0648,1.0648,0,0,1,13.6,8.64a2.7375,2.7375,0,0,1-.8533-1.6711,6.6006,6.6006,0,0,1-.0178-1.1911A3.474,3.474,0,0,0,12.4444,3.84a2.079,2.079,0,0,0-.3377-.3556c-.2134-.1777-.4445-.3733-.4089-.6577a.614.614,0,0,1,.2844-.3911,2.5666,2.5666,0,0,0-.5155-.1956C10.9689,2.0978,10.3644,1.92,10.4.96a.2757.2757,0,0,1,.5512.014V.9778c-.0178.5333.1956.5866.6756.7289a1.965,1.965,0,0,1,1.0489.5866.2833.2833,0,0,1,.0533.2311.2884.2884,0,0,1-.16.1956,1.4215,1.4215,0,0,0-.32.1778,1.96,1.96,0,0,0,.1955.1778,1.987,1.987,0,0,1,.4623.48,3.906,3.906,0,0,1,.3555,2.2577A5.4293,5.4293,0,0,0,13.28,6.8978a2,2,0,0,0,.6222,1.2978.4989.4989,0,0,0,.4445.0711.847.847,0,0,0,.3555-.32c.16-.1956.32-.4267.6045-.4089.2844,0,.4977.2666.6222.4444a.2687.2687,0,0,1-.4445.3022.7739.7739,0,0,0-.1955-.2133.9722.9722,0,0,0-.1778.1956,1.2622,1.2622,0,0,1-.6755.5155A.4445.4445,0,0,1,14.2044,8.8356Z"/></g></g></g></g></g></g></svg>