<svg xmlns="http://www.w3.org/2000/svg" viewBox="0 0 45.2141 44.3358"><defs><style>.cls-1{fill:#010101;}</style></defs><title>Element 6</title><g id="Ebene_2" data-name="Ebene 2"><g id="Ebene_1-2" data-name="Ebene 1"><g id="Icons"><path class="cls-1" d="M45.2141,44.3358H43.4575c0-10.1795-5.1772-19.1839-13.19-22.9407l-1.1468-.5387.9058-.8851a10.6247,10.6247,0,1,0-14.8387,0l.9058.8851-1.1468.5387c-8.0128,3.7568-13.19,12.7612-13.19,22.9407H0C0,33.9316,5.1172,24.6562,13.1343,20.34a12.2525,12.2525,0,0,1-2.9085-7.958,12.3817,12.3817,0,1,1,24.7634,0A12.2486,12.2486,0,0,1,32.08,20.34C40.0969,24.6562,45.2141,33.9316,45.2141,44.3358Z"/></g></g></g></svg>