<svg xmlns="http://www.w3.org/2000/svg" viewBox="0 0 43.42 43.27"><defs><style>.cls-1{fill:#010101;stroke:#000;stroke-miterlimit:10;stroke-width:0.75px;}</style></defs><title>Element 21</title><g id="Ebene_2" data-name="Ebene 2"><g id="Bereich_Grafiken" data-name="Bereich Grafiken"><g id="Icon"><g id="Icons"><path id="Icon_Update" data-name="Icon Update" class="cls-1" d="M43,33.92a10.64,10.64,0,0,0-5.31-9.24V16.76A16.34,16.34,0,0,0,22.3.39,16,16,0,0,0,5.7,15.81q0,.31,0,.62v8.26A10.64,10.64,0,0,0,.38,33.93v1.48a.66.66,0,0,0,.66.66h13.2a7.48,7.48,0,0,0,14.91,0h13.2a.66.66,0,0,0,.66-.66ZM21.71,41.57a6.18,6.18,0,0,1-6.13-5.5H27.84A6.18,6.18,0,0,1,21.71,41.57Zm20-6.82h-40v-.82a9.32,9.32,0,0,1,4.95-8.25A.66.66,0,0,0,7,25.08V16.43A14.7,14.7,0,0,1,21.71,1.74h.53A15,15,0,0,1,36.4,16.8v8.28a.66.66,0,0,0,.35.58,9.32,9.32,0,0,1,5,8.25Z"/></g></g></g></g></svg>