<svg xmlns="http://www.w3.org/2000/svg" viewBox="0 0 20 20"><defs><style>.cls-1{fill:#fff;}</style></defs><title>Element 13</title><g id="Ebene_2" data-name="Ebene 2"><g id="Footer_Desktop_8" data-name="Footer Desktop 8"><g id="Site_Map_Icons_Kopie" data-name="Site Map + Icons Kopie"><g id="D_Tools_Kopie" data-name="D Tools Kopie"><g id="Ebene_166_Kopie" data-name="Ebene 166 Kopie"><path class="cls-1" d="M20,20H0V0ZM.7218,19.2782H18.2574L.7218,1.7426Zm12.06-2.1656H2.1655V6.4965Zm-9.8942-.7218h8.1517L2.8874,8.2391Z"/><rect class="cls-1" x="2.016" y="4.1196" width="1.0208" height="0.7218" transform="translate(-2.4282 3.0988) rotate(-45)"/><rect class="cls-1" x="3.4597" y="5.5633" width="1.0208" height="0.7218" transform="translate(-3.0262 4.5424) rotate(-45)"/><rect class="cls-1" x="4.9034" y="7.0069" width="1.0208" height="0.7218" transform="translate(-3.6242 5.9861) rotate(-45)"/><rect class="cls-1" x="6.347" y="8.4506" width="1.0208" height="0.7218" transform="translate(-4.2222 7.4298) rotate(-45)"/><rect class="cls-1" x="7.7907" y="9.8943" width="1.0208" height="0.7218" transform="translate(-4.8202 8.8735) rotate(-45)"/><rect class="cls-1" x="9.2344" y="11.338" width="1.0208" height="0.7218" transform="translate(-5.4182 10.3171) rotate(-45)"/><rect class="cls-1" x="10.6781" y="12.7817" width="1.0208" height="0.7218" transform="translate(-6.0161 11.7608) rotate(-45)"/><rect class="cls-1" x="12.1218" y="14.2253" width="1.0208" height="0.7218" transform="translate(-6.6141 13.2045) rotate(-45)"/><rect class="cls-1" x="13.5654" y="15.669" width="1.0208" height="0.7218" transform="translate(-7.2121 14.6482) rotate(-45)"/><rect class="cls-1" x="15.0091" y="17.1127" width="1.0208" height="0.7218" transform="translate(-7.8101 16.0919) rotate(-45)"/><path class="cls-1" d="M17.4274,15.4575,5.4141,3.4449,4.557.0145l3.43.8571.07.0709L20,12.8845ZM6.0662,3.0756,17.4274,14.4368l1.5519-1.5523L7.6184,1.5237l-2.07-.5174Z"/><rect class="cls-1" x="15.2363" y="11.8646" width="3.0625" height="0.7218" transform="translate(-3.7336 15.4372) rotate(-45)"/></g></g></g></g></g></svg>