<svg xmlns="http://www.w3.org/2000/svg" viewBox="0 0 41.25 42.2"><defs><style>.cls-1{fill:#010101;}</style></defs><title>Element 17</title><g id="Ebene_2" data-name="Ebene 2"><g id="Bereich_Grafiken" data-name="Bereich Grafiken"><g id="Icon"><g id="Icons"><path class="cls-1" d="M41.25,41.28H30.71V22H41.25Zm-8.78-1.76h7V23.71h-7Z"/><path class="cls-1" d="M16.66,35.13a2.63,2.63,0,0,1,0-5.27h4.47a5.35,5.35,0,0,1,4.08-4.34A11.8,11.8,0,0,1,28,25.44c.37,0,.74,0,1.09,0h2.54v1.76H29.05c-.38,0-.78,0-1.18,0a10.62,10.62,0,0,0-2.34.06,3.67,3.67,0,0,0-2.73,3.49v.88H16.66a.88.88,0,1,0,0,1.76Z"/><path class="cls-1" d="M16.47,42.2l-9.64-6c-1.48-.92-3-1.8-4.47-2.67l-.19-.11A3.48,3.48,0,0,1,0,30.78a2.17,2.17,0,0,1,1.53-2.39,4.5,4.5,0,0,1,3,.47l10.54,4.52H25.44v1.76l-10.89-.07L3.85,30.47A3.28,3.28,0,0,0,2,30.07a.44.44,0,0,0-.27.53c.05.52.43.79,1.27,1.27l.2.11c1.53.88,3,1.77,4.53,2.71l9.09,5.68,14.61-2.26.27,1.74Z"/><path class="cls-1" d="M22.81,24.59H3.49V0H22.81ZM5.24,22.84H21.05V1.76H5.24Z"/><rect class="cls-1" x="7.88" y="5.27" width="10.54" height="1.76"/><rect class="cls-1" x="7.88" y="10.54" width="10.54" height="1.76"/><rect class="cls-1" x="7.88" y="15.81" width="10.54" height="1.76"/></g></g></g></g></svg>