<svg xmlns="http://www.w3.org/2000/svg" viewBox="0 0 22.0833 20"><defs><style>.cls-1{fill:#fff;}.cls-2{fill:#6d757a;}</style></defs><title>Element 14</title><g id="Ebene_2" data-name="Ebene 2"><g id="Footer_Desktop_8" data-name="Footer Desktop 8"><g id="Site_Map_Icons_Kopie" data-name="Site Map + Icons Kopie"><g id="Meine_Projekte_Kopie_4" data-name="Meine Projekte Kopie 4"><g id="Meine_Projekte_Logo" data-name="Meine Projekte Logo"><path class="cls-1" d="M16.6667,18.3333h-15V0h15ZM2.5,17.5H15.8333V.8333H2.5Z"/><rect class="cls-2" x="0.4167" y="2.0833" width="14.1667" height="17.5"/><path class="cls-1" d="M15,20H0V1.6667H15ZM.8333,19.1667H14.1667V2.5H.8333Z"/><rect class="cls-1" x="2.9167" y="5" width="9.1667" height="0.8333"/><rect class="cls-1" x="2.9167" y="8.3333" width="9.1667" height="0.8333"/><rect class="cls-1" x="2.9167" y="11.6667" width="9.1667" height="0.8333"/><path class="cls-1" d="M22.0833,19.1667H17.9167V3.6239L20,.4989l2.0833,3.125ZM18.75,18.3333h2.5V3.8761L20,2.0011l-1.25,1.875Z"/><rect class="cls-1" x="18.3333" y="15.8333" width="2.9167" height="0.8333"/><rect class="cls-1" x="18.3333" y="3.3333" width="2.9167" height="0.8333"/></g></g></g></g></g></svg>